<?xml version="1.0" ?><svg data-name="003" id="_003" viewBox="0 0 128 128" xmlns="http://www.w3.org/2000/svg"><defs><style>.cls-1{opacity:0.3;}.cls-2{fill:#97c1ff;}.cls-3{fill:#fff;}.cls-4{fill:#eef6ff;}.cls-5{fill:#6d6daa;}.cls-6{fill:#8d96b8;}.cls-7{fill:#939fc6;}.cls-8{fill:#96d7ff;}.cls-9{fill:#ff9797;}.cls-10{fill:#b1f1a8;}.cls-11{fill:#c9c1f5;}.cls-12{fill:#d4edff;}.cls-13{fill:#bed1f4;}.cls-14{fill:#9eb2cc;}.cls-15{fill:#fff27d;}.cls-16{fill:#c7e9ff;}.cls-17{fill:#1c64ba;}.cls-18{opacity:0.5;}.cls-19{fill:#f7a706;}.cls-20{fill:#ced8ee;}.cls-21{fill:#3b4872;}.cls-22{fill:#efdcd2;}.cls-23{fill:#cc7e54;}.cls-24{fill:#f9e2dc;}.cls-25{fill:#d6b5b0;}</style></defs><title/><g class="cls-1"><path class="cls-2" d="M1.81,45.69a30,30,0,0,1,23.51-25A19.69,19.69,0,0,0,36.26,14.1a37,37,0,0,1,64.33,15.68A19.57,19.57,0,0,0,111,42.95,28,28,0,1,1,73.34,80.29,9.41,9.41,0,0,0,64.83,75H64a12.39,12.39,0,0,0-12,9.74A20,20,0,0,1,25.88,98.88,20,20,0,0,1,12.53,81,21.38,21.38,0,0,0,8,68.65,29.91,29.91,0,0,1,1.81,45.69Z"/><path class="cls-3" d="M44,12a1,1,0,0,1-.71-.3A1,1,0,0,1,43,11a1,1,0,0,1,.07-.39,1,1,0,0,1,.22-.32,1,1,0,0,1,.32-.22,1,1,0,0,1,1.1.22,1,1,0,0,1,.21.32A1.05,1.05,0,0,1,45,11a1,1,0,0,1-.29.7A1,1,0,0,1,44,12Z"/><path class="cls-3" d="M56,16H50a1,1,0,0,1,0-2h6a1,1,0,0,1,0,2Z"/><path class="cls-3" d="M63,12H48a1,1,0,0,1,0-2H63a1,1,0,0,1,0,2Z"/><path class="cls-3" d="M53,20H46a1,1,0,0,1,0-2h7a1,1,0,0,1,0,2Z"/><path class="cls-3" d="M46,16H42a1,1,0,0,1,0-2h4a1,1,0,0,1,0,2Z"/><path class="cls-3" d="M44,12a1,1,0,0,1-.71-.3A1,1,0,0,1,43,11a1,1,0,0,1,.07-.39,1,1,0,0,1,.22-.32,1,1,0,0,1,.32-.22,1,1,0,0,1,1.1.22,1,1,0,0,1,.21.32A1.05,1.05,0,0,1,45,11a1,1,0,0,1-.29.7A1,1,0,0,1,44,12Z"/><path class="cls-3" d="M56,16H50a1,1,0,0,1,0-2h6a1,1,0,0,1,0,2Z"/><path class="cls-3" d="M63,12H48a1,1,0,0,1,0-2H63a1,1,0,0,1,0,2Z"/><path class="cls-3" d="M53,20H46a1,1,0,0,1,0-2h7a1,1,0,0,1,0,2Z"/><path class="cls-3" d="M46,16H42a1,1,0,0,1,0-2h4a1,1,0,0,1,0,2Z"/><rect class="cls-4" height="4" width="4" x="16" y="79"/><path class="cls-5" d="M20,84H16a1,1,0,0,1-1-1V79a1,1,0,0,1,1-1h4a1,1,0,0,1,1,1v4A1,1,0,0,1,20,84Zm-3-2h2V80H17Z"/><rect class="cls-4" height="4" width="4" x="16" y="69"/><path class="cls-5" d="M20,74H16a1,1,0,0,1-1-1V69a1,1,0,0,1,1-1h4a1,1,0,0,1,1,1v4A1,1,0,0,1,20,74Zm-3-2h2V70H17Z"/><rect class="cls-4" height="4" width="4" x="16" y="59"/><path class="cls-5" d="M20,64H16a1,1,0,0,1-1-1V59a1,1,0,0,1,1-1h4a1,1,0,0,1,1,1v4A1,1,0,0,1,20,64Zm-3-2h2V60H17Z"/><rect class="cls-4" height="4" width="4" x="16" y="49"/><path class="cls-5" d="M20,54H16a1,1,0,0,1-1-1V49a1,1,0,0,1,1-1h4a1,1,0,0,1,1,1v4A1,1,0,0,1,20,54Zm-3-2h2V50H17Z"/><rect class="cls-4" height="4" width="4" x="16" y="39"/><path class="cls-5" d="M20,44H16a1,1,0,0,1-1-1V39a1,1,0,0,1,1-1h4a1,1,0,0,1,1,1v4A1,1,0,0,1,20,44Zm-3-2h2V40H17Z"/><rect class="cls-4" height="4" width="4" x="16" y="99"/><path class="cls-5" d="M20,104H16a1,1,0,0,1-1-1V99a1,1,0,0,1,1-1h4a1,1,0,0,1,1,1v4A1,1,0,0,1,20,104Zm-3-2h2v-2H17Z"/><rect class="cls-4" height="4" width="4" x="16" y="89"/><path class="cls-5" d="M20,94H16a1,1,0,0,1-1-1V89a1,1,0,0,1,1-1h4a1,1,0,0,1,1,1v4A1,1,0,0,1,20,94Zm-3-2h2V90H17Z"/><path class="cls-5" d="M70,109a1,1,0,0,1-1-1V34a1,1,0,1,1,2,0v74A1,1,0,0,1,70,109Z"/><path class="cls-5" d="M70,76H64a1,1,0,0,1,0-2h6a1,1,0,1,1,0,2Z"/><path class="cls-5" d="M70,72H64a1,1,0,0,1,0-2h6a1,1,0,1,1,0,2Z"/><path class="cls-5" d="M70,80H64a1,1,0,0,1,0-2h6a1,1,0,1,1,0,2Z"/><path class="cls-5" d="M70,64H64a1,1,0,0,1,0-2h6a1,1,0,0,1,0,2Z"/><path class="cls-5" d="M70,60H64a1,1,0,0,1,0-2h6a1,1,0,0,1,0,2Z"/><path class="cls-5" d="M70,68H64a1,1,0,1,1,0-2h6a1,1,0,0,1,0,2Z"/><path class="cls-5" d="M70,52H64a1,1,0,0,1,0-2h6a1,1,0,0,1,0,2Z"/><path class="cls-5" d="M70,48H64a1,1,0,0,1,0-2h6a1,1,0,0,1,0,2Z"/><path class="cls-5" d="M70,56H64a1,1,0,0,1,0-2h6a1,1,0,0,1,0,2Z"/><path class="cls-5" d="M70,40H64a1,1,0,0,1,0-2h6a1,1,0,0,1,0,2Z"/><path class="cls-5" d="M70,36H64a1,1,0,0,1,0-2h6a1,1,0,0,1,0,2Z"/><path class="cls-5" d="M70,44H64a1,1,0,0,1,0-2h6a1,1,0,0,1,0,2Z"/><path class="cls-5" d="M70,84H64a1,1,0,0,1,0-2h6a1,1,0,1,1,0,2Z"/><path class="cls-5" d="M70,88H64a1,1,0,0,1,0-2h6a1,1,0,1,1,0,2Z"/><path class="cls-5" d="M70,92H64a1,1,0,0,1,0-2h6a1,1,0,1,1,0,2Z"/><path class="cls-5" d="M70,96H64a1,1,0,0,1,0-2h6a1,1,0,1,1,0,2Z"/><path class="cls-5" d="M70,100H64a1,1,0,0,1,0-2h6a1,1,0,0,1,0,2Z"/><path class="cls-5" d="M70,104H64a1,1,0,1,1,0-2h6a1,1,0,0,1,0,2Z"/><path class="cls-5" d="M70,108H64a1,1,0,1,1,0-2h6a1,1,0,0,1,0,2Z"/><rect class="cls-6" height="3.99" width="44" x="20" y="25"/><path class="cls-5" d="M64,30H20a1,1,0,0,1-1-1V25a1,1,0,0,1,1-1H64a1,1,0,0,1,1,1v4A1,1,0,0,1,64,30ZM21,28H63V26H21Z"/><rect class="cls-4" height="86" width="44" x="20" y="29"/><path class="cls-5" d="M64,116H20a1,1,0,0,1-1-1V29a1,1,0,0,1,1-1H64a1,1,0,0,1,1,1v86A1,1,0,0,1,64,116Zm-43-2H63V30H21Z"/><rect class="cls-7" height="10" width="8" x="50" y="105"/><path class="cls-5" d="M58,116H50a1,1,0,0,1-1-1V105a1,1,0,0,1,1-1h8a1,1,0,0,1,1,1v10A1,1,0,0,1,58,116Zm-7-2h6v-8H51Z"/><rect class="cls-8" height="6" width="20" x="26" y="105"/><path class="cls-5" d="M46,112H26a1,1,0,0,1-1-1v-6a1,1,0,0,1,1-1H46a1,1,0,0,1,1,1v6A1,1,0,0,1,46,112Zm-19-2H45v-4H27Z"/><rect class="cls-8" height="6" width="10" x="26" y="95"/><path class="cls-5" d="M36,102H26a1,1,0,0,1-1-1V95a1,1,0,0,1,1-1H36a1,1,0,0,1,1,1v6A1,1,0,0,1,36,102Zm-9-2h8V96H27Z"/><path class="cls-5" d="M31,102a1,1,0,0,1-1-1V95a1,1,0,0,1,2,0v6A1,1,0,0,1,31,102Z"/><rect class="cls-8" height="6" width="10" x="26" y="85"/><path class="cls-5" d="M36,92H26a1,1,0,0,1-1-1V85a1,1,0,0,1,1-1H36a1,1,0,0,1,1,1v6A1,1,0,0,1,36,92Zm-9-2h8V86H27Z"/><path class="cls-5" d="M31,92a1,1,0,0,1-1-1V85a1,1,0,0,1,2,0v6A1,1,0,0,1,31,92Z"/><rect class="cls-8" height="6" width="10" x="26" y="75"/><path class="cls-5" d="M36,82H26a1,1,0,0,1-1-1V75a1,1,0,0,1,1-1H36a1,1,0,0,1,1,1v6A1,1,0,0,1,36,82Zm-9-2h8V76H27Z"/><path class="cls-5" d="M31,82a1,1,0,0,1-1-1V75a1,1,0,0,1,2,0v6A1,1,0,0,1,31,82Z"/><rect class="cls-8" height="6" width="10" x="26" y="65"/><path class="cls-5" d="M36,72H26a1,1,0,0,1-1-1V65a1,1,0,0,1,1-1H36a1,1,0,0,1,1,1v6A1,1,0,0,1,36,72Zm-9-2h8V66H27Z"/><path class="cls-5" d="M31,72a1,1,0,0,1-1-1V65a1,1,0,0,1,2,0v6A1,1,0,0,1,31,72Z"/><rect class="cls-8" height="6" width="10" x="48" y="95"/><path class="cls-5" d="M58,102H48a1,1,0,0,1-1-1V95a1,1,0,0,1,1-1H58a1,1,0,0,1,1,1v6A1,1,0,0,1,58,102Zm-9-2h8V96H49Z"/><path class="cls-5" d="M53,102a1,1,0,0,1-1-1V95a1,1,0,0,1,2,0v6A1,1,0,0,1,53,102Z"/><rect class="cls-8" height="6" width="10" x="48" y="85"/><path class="cls-5" d="M58,92H48a1,1,0,0,1-1-1V85a1,1,0,0,1,1-1H58a1,1,0,0,1,1,1v6A1,1,0,0,1,58,92Zm-9-2h8V86H49Z"/><path class="cls-5" d="M53,92a1,1,0,0,1-1-1V85a1,1,0,0,1,2,0v6A1,1,0,0,1,53,92Z"/><rect class="cls-8" height="6" width="10" x="48" y="75"/><path class="cls-5" d="M58,82H48a1,1,0,0,1-1-1V75a1,1,0,0,1,1-1H58a1,1,0,0,1,1,1v6A1,1,0,0,1,58,82Zm-9-2h8V76H49Z"/><path class="cls-5" d="M53,82a1,1,0,0,1-1-1V75a1,1,0,0,1,2,0v6A1,1,0,0,1,53,82Z"/><rect class="cls-8" height="6" width="10" x="48" y="65"/><path class="cls-5" d="M58,72H48a1,1,0,0,1-1-1V65a1,1,0,0,1,1-1H58a1,1,0,0,1,1,1v6A1,1,0,0,1,58,72Zm-9-2h8V66H49Z"/><path class="cls-5" d="M53,72a1,1,0,0,1-1-1V65a1,1,0,0,1,2,0v6A1,1,0,0,1,53,72Z"/><rect class="cls-8" height="6" width="10" x="26" y="55"/><path class="cls-5" d="M36,62H26a1,1,0,0,1-1-1V55a1,1,0,0,1,1-1H36a1,1,0,0,1,1,1v6A1,1,0,0,1,36,62Zm-9-2h8V56H27Z"/><path class="cls-5" d="M31,62a1,1,0,0,1-1-1V55a1,1,0,0,1,2,0v6A1,1,0,0,1,31,62Z"/><rect class="cls-8" height="6" width="10" x="48" y="55"/><path class="cls-5" d="M58,62H48a1,1,0,0,1-1-1V55a1,1,0,0,1,1-1H58a1,1,0,0,1,1,1v6A1,1,0,0,1,58,62Zm-9-2h8V56H49Z"/><path class="cls-5" d="M53,62a1,1,0,0,1-1-1V55a1,1,0,0,1,2,0v6A1,1,0,0,1,53,62Z"/><rect class="cls-8" height="6" width="10" x="26" y="45"/><path class="cls-5" d="M36,52H26a1,1,0,0,1-1-1V45a1,1,0,0,1,1-1H36a1,1,0,0,1,1,1v6A1,1,0,0,1,36,52Zm-9-2h8V46H27Z"/><path class="cls-5" d="M31,52a1,1,0,0,1-1-1V45a1,1,0,0,1,2,0v6A1,1,0,0,1,31,52Z"/><rect class="cls-8" height="6" width="10" x="48" y="45"/><path class="cls-5" d="M58,52H48a1,1,0,0,1-1-1V45a1,1,0,0,1,1-1H58a1,1,0,0,1,1,1v6A1,1,0,0,1,58,52Zm-9-2h8V46H49Z"/><path class="cls-5" d="M53,52a1,1,0,0,1-1-1V45a1,1,0,0,1,2,0v6A1,1,0,0,1,53,52Z"/><rect class="cls-8" height="6" width="10" x="26" y="35"/><path class="cls-5" d="M36,42H26a1,1,0,0,1-1-1V35a1,1,0,0,1,1-1H36a1,1,0,0,1,1,1v6A1,1,0,0,1,36,42Zm-9-2h8V36H27Z"/><path class="cls-5" d="M31,42a1,1,0,0,1-1-1V35a1,1,0,1,1,2,0v6A1,1,0,0,1,31,42Z"/><rect class="cls-8" height="6" width="10" x="48" y="35"/><path class="cls-5" d="M58,42H48a1,1,0,0,1-1-1V35a1,1,0,0,1,1-1H58a1,1,0,0,1,1,1v6A1,1,0,0,1,58,42Zm-9-2h8V36H49Z"/><path class="cls-5" d="M53,42a1,1,0,0,1-1-1V35a1,1,0,1,1,2,0v6A1,1,0,0,1,53,42Z"/><rect class="cls-2" height="66" width="4" x="40" y="35"/><path class="cls-5" d="M44,102H40a1,1,0,0,1-1-1V35a1,1,0,0,1,1-1h4a1,1,0,0,1,1,1v66A1,1,0,0,1,44,102Zm-3-2h2V36H41Z"/><path class="cls-5" d="M44,94H40a1,1,0,0,1,0-2h4a1,1,0,1,1,0,2Z"/><path class="cls-5" d="M44,84H40a1,1,0,0,1,0-2h4a1,1,0,0,1,0,2Z"/><path class="cls-5" d="M44,74H40a1,1,0,0,1,0-2h4a1,1,0,0,1,0,2Z"/><path class="cls-5" d="M44,64H40a1,1,0,0,1,0-2h4a1,1,0,0,1,0,2Z"/><path class="cls-5" d="M44,54H40a1,1,0,0,1,0-2h4a1,1,0,0,1,0,2Z"/><path class="cls-5" d="M44,44H40a1,1,0,0,1,0-2h4a1,1,0,0,1,0,2Z"/><path class="cls-5" d="M64,30H20a1,1,0,0,1,0-2H64a1,1,0,0,1,0,2Z"/><path class="cls-5" d="M66,26H18a1,1,0,0,1,0-2H66a1,1,0,0,1,0,2Z"/><rect class="cls-2" height="14" width="50" x="5" y="59.03"/><path class="cls-5" d="M55,74H5a1,1,0,0,1-1-1V59a1,1,0,0,1,1-1H55a1,1,0,0,1,1,1V73A1,1,0,0,1,55,74ZM6,72H54V60H6Z"/><polygon class="cls-4" points="51 77.03 51 75.03 30 61.5 9 75.03 9 77.03 7 77.03 7 115.03 53 115.03 53 109.34 53 83.45 53 77.03 51 77.03"/><path class="cls-5" d="M53,116H7a1,1,0,0,1-1-1V77a1,1,0,0,1,1-1H8V75a1,1,0,0,1,.46-.84l21-13.53a1,1,0,0,1,1.08,0l21,13.53A1,1,0,0,1,52,75v1h1a1,1,0,0,1,1,1v38A1,1,0,0,1,53,116ZM8,114H52V78H51a1,1,0,0,1-1-1V75.58L30,62.69,10,75.58V77a1,1,0,0,1-1,1H8Z"/><rect class="cls-8" height="12" width="18" x="13" y="99.03"/><path class="cls-5" d="M31,112H13a1,1,0,0,1-1-1V99a1,1,0,0,1,1-1H31a1,1,0,0,1,1,1v12A1,1,0,0,1,31,112Zm-17-2H30V100H14Z"/><rect class="cls-8" height="8" width="6" x="13" y="81.03"/><path class="cls-5" d="M19,90H13a1,1,0,0,1-1-1V81a1,1,0,0,1,1-1h6a1,1,0,0,1,1,1v8A1,1,0,0,1,19,90Zm-5-2h4V82H14Z"/><polygon class="cls-9" points="49 69.03 49 60.03 43 60.03 43 65.35 49 69.03"/><path class="cls-5" d="M49,70a1,1,0,0,1-.52-.15l-6-3.68a1,1,0,0,1-.48-.85V60a1,1,0,0,1,1-1h6a1,1,0,0,1,1,1v9a1,1,0,0,1-1,1Zm-5-5.24,4,2.45V61H44Z"/><rect class="cls-9" height="3" width="8" x="42" y="57.03"/><path class="cls-5" d="M50,61H42a1,1,0,0,1-1-1V57a1,1,0,0,1,1-1h8a1,1,0,0,1,1,1v3A1,1,0,0,1,50,61Zm-7-2h6V58H43Z"/><path class="cls-5" d="M22,112a1,1,0,0,1-1-1V99a1,1,0,0,1,2,0v12A1,1,0,0,1,22,112Z"/><path class="cls-5" d="M32,112H12a1,1,0,0,1,0-2H32a1,1,0,0,1,0,2Z"/><rect class="cls-9" height="13" width="10" x="37" y="99.03"/><path class="cls-5" d="M47,113H37a1,1,0,0,1-1-1V99a1,1,0,0,1,1-1H47a1,1,0,0,1,1,1v13A1,1,0,0,1,47,113Zm-9-2h8V100H38Z"/><path class="cls-5" d="M39,107H37a1,1,0,1,1,0-2h2a1,1,0,0,1,0,2Z"/><rect class="cls-7" height="3" width="12" x="36" y="112.03"/><path class="cls-5" d="M48,116H36a1,1,0,0,1-1-1v-3a1,1,0,0,1,1-1H48a1,1,0,0,1,1,1v3A1,1,0,0,1,48,116Zm-11-2H47v-1H37Z"/><rect class="cls-8" height="8" width="6" x="41" y="81.03"/><path class="cls-5" d="M47,90H41a1,1,0,0,1-1-1V81a1,1,0,0,1,1-1h6a1,1,0,0,1,1,1v8A1,1,0,0,1,47,90Zm-5-2h4V82H42Z"/><path class="cls-5" d="M20,90H12a1,1,0,0,1,0-2h8a1,1,0,0,1,0,2Z"/><rect class="cls-8" height="8" width="6" x="27" y="81.03"/><path class="cls-5" d="M33,90H27a1,1,0,0,1-1-1V81a1,1,0,0,1,1-1h6a1,1,0,0,1,1,1v8A1,1,0,0,1,33,90Zm-5-2h4V82H28Z"/><path class="cls-5" d="M19,86H13a1,1,0,0,1,0-2h6a1,1,0,0,1,0,2Z"/><path class="cls-5" d="M33,86H27a1,1,0,0,1,0-2h6a1,1,0,0,1,0,2Z"/><path class="cls-5" d="M47,86H41a1,1,0,0,1,0-2h6a1,1,0,0,1,0,2Z"/><path class="cls-5" d="M48,90H40a1,1,0,1,1,0-2h8a1,1,0,0,1,0,2Z"/><path class="cls-5" d="M34,90H26a1,1,0,0,1,0-2h8a1,1,0,0,1,0,2Z"/><path class="cls-8" d="M27,73V70a3,3,0,0,1,3-3h0a3,3,0,0,1,3,3v3Z"/><path class="cls-5" d="M33,74H27a1,1,0,0,1-1-1V70a4,4,0,0,1,8,0v3A1,1,0,0,1,33,74Zm-5-2h4V70a2,2,0,0,0-4,0Z"/><path class="cls-5" d="M34,74H26a1,1,0,0,1,0-2h8a1,1,0,0,1,0,2Z"/><path class="cls-5" d="M53,96H8a1,1,0,1,1,0-2H53a1,1,0,1,1,0,2Z"/><path class="cls-5" d="M53,78H8a1,1,0,1,1,0-2H53a1,1,0,0,1,0,2Z"/><polygon class="cls-2" points="51 77.03 51 75.03 30 61.5 9 75.03 9 77.03 5 77.03 5 73.03 30 57.03 55 73.03 55 77.03 51 77.03"/><path class="cls-5" d="M55,78H51a1,1,0,0,1-1-1V75.58L30,62.69,10,75.58V77a1,1,0,0,1-1,1H5a1,1,0,0,1-1-1V73a1,1,0,0,1,.46-.84l25-16a1,1,0,0,1,1.08,0l25,16A1,1,0,0,1,56,73v4A1,1,0,0,1,55,78Zm-3-2h2V73.58L30,58.22,6,73.58V76H8V75a1,1,0,0,1,.46-.84l21-13.53a1,1,0,0,1,1.08,0l21,13.53A1,1,0,0,1,52,75Z"/><path class="cls-10" d="M22,111a3,3,0,0,0-1.12.22,3,3,0,0,0-4.57-1.7,5,5,0,0,0-8.92.52,3.92,3.92,0,0,0-.4,0,4,4,0,0,0-4,4v1H25v-1A3,3,0,0,0,22,111Z"/><path class="cls-5" d="M25,116H3a1,1,0,0,1-1-1v-1a5,5,0,0,1,4.8-5,6,6,0,0,1,9.84-.77,4,4,0,0,1,4.83,1.8,3.81,3.81,0,0,1,.53,0,4,4,0,0,1,4,4v1A1,1,0,0,1,25,116ZM4,114H24a2,2,0,0,0-2.74-1.85,1,1,0,0,1-1.34-.67,2,2,0,0,0-3-1.14,1,1,0,0,1-1.43-.33A4,4,0,0,0,12,108a4,4,0,0,0-3.68,2.43,1,1,0,0,1-1,.6l-.18,0H7A3,3,0,0,0,4,114Z"/><path class="cls-5" d="M13.11,112.12a1,1,0,0,1-.59-.2c-.5-.37-.78-.32-1.11-.11a1,1,0,0,1-1.07-1.69,2.79,2.79,0,0,1,3.37.2,1,1,0,0,1-.6,1.8Z"/><rect class="cls-11" height="4" width="26" x="80" y="11.03"/><path class="cls-5" d="M106,16H80a1,1,0,0,1-1-1V11a1,1,0,0,1,1-1h26a1,1,0,0,1,1,1v4A1,1,0,0,1,106,16ZM81,14h24V12H81Z"/><rect class="cls-4" height="28" width="4" x="64" y="87.03"/><path class="cls-5" d="M68,116H64a1,1,0,0,1-1-1V87a1,1,0,0,1,1-1h4a1,1,0,0,1,1,1v28A1,1,0,0,1,68,116Zm-3-2h2V88H65Z"/><rect class="cls-12" height="28" width="6" x="68" y="87.03"/><path class="cls-5" d="M74,116H68a1,1,0,0,1-1-1V87a1,1,0,0,1,1-1h6a1,1,0,0,1,1,1v28A1,1,0,0,1,74,116Zm-5-2h4V88H69Z"/><rect class="cls-4" height="28" width="4" x="118" y="87.03"/><path class="cls-5" d="M122,116h-4a1,1,0,0,1-1-1V87a1,1,0,0,1,1-1h4a1,1,0,0,1,1,1v28A1,1,0,0,1,122,116Zm-3-2h2V88h-2Z"/><rect class="cls-12" height="28" width="6" x="112" y="87.03"/><path class="cls-5" d="M118,116h-6a1,1,0,0,1-1-1V87a1,1,0,0,1,1-1h6a1,1,0,0,1,1,1v28A1,1,0,0,1,118,116Zm-5-2h4V88h-4Z"/><rect class="cls-4" height="100" width="38" x="74" y="15.03"/><path class="cls-5" d="M112,116H74a1,1,0,0,1-1-1V15a1,1,0,0,1,1-1h38a1,1,0,0,1,1,1V115A1,1,0,0,1,112,116Zm-37-2h36V16H75Z"/><rect class="cls-8" height="80" width="30" x="78" y="19.03"/><path class="cls-5" d="M108,100H78a1,1,0,0,1-1-1V19a1,1,0,0,1,1-1h30a1,1,0,0,1,1,1V99A1,1,0,0,1,108,100ZM79,98h28V20H79Z"/><rect class="cls-12" height="16" width="30" x="78" y="99.03"/><path class="cls-5" d="M108,116H78a1,1,0,0,1-1-1V99a1,1,0,0,1,1-1h30a1,1,0,0,1,1,1v16A1,1,0,0,1,108,116Zm-29-2h28V100H79Z"/><path class="cls-5" d="M102,100a1,1,0,0,1-1-1V19a1,1,0,0,1,2,0V99A1,1,0,0,1,102,100Z"/><path class="cls-5" d="M96,100a1,1,0,0,1-1-1V19a1,1,0,0,1,2,0V99A1,1,0,0,1,96,100Z"/><path class="cls-5" d="M90,100a1,1,0,0,1-1-1V19a1,1,0,0,1,2,0V99A1,1,0,0,1,90,100Z"/><path class="cls-5" d="M93,12a1,1,0,0,1-1-1V7a1,1,0,1,1,2,0v4A1,1,0,0,1,93,12Z"/><rect class="cls-7" height="4" width="10" x="64" y="111.03"/><path class="cls-5" d="M74,116H64a1,1,0,0,1-1-1v-4a1,1,0,0,1,1-1H74a1,1,0,0,1,1,1v4A1,1,0,0,1,74,116Zm-9-2h8v-2H65Z"/><path class="cls-5" d="M84,100a1,1,0,0,1-1-1V19a1,1,0,0,1,2,0V99A1,1,0,0,1,84,100Z"/><path class="cls-5" d="M86,116a1,1,0,0,1-1-1V99a1,1,0,0,1,2,0v16A1,1,0,0,1,86,116Z"/><path class="cls-5" d="M100,116a1,1,0,0,1-1-1V99a1,1,0,0,1,2,0v16A1,1,0,0,1,100,116Z"/><path class="cls-5" d="M93,116a1,1,0,0,1-1-1V99a1,1,0,0,1,2,0v16A1,1,0,0,1,93,116Z"/><path class="cls-5" d="M108,80H78a1,1,0,0,1,0-2h30a1,1,0,1,1,0,2Z"/><path class="cls-5" d="M108,90H78a1,1,0,0,1,0-2h30a1,1,0,1,1,0,2Z"/><path class="cls-5" d="M108,50H78a1,1,0,0,1,0-2h30a1,1,0,0,1,0,2Z"/><path class="cls-5" d="M108,60H78a1,1,0,0,1,0-2h30a1,1,0,0,1,0,2Z"/><path class="cls-5" d="M108,70H78a1,1,0,0,1,0-2h30a1,1,0,1,1,0,2Z"/><path class="cls-5" d="M108,30H78a1,1,0,0,1,0-2h30a1,1,0,0,1,0,2Z"/><path class="cls-5" d="M108,40H78a1,1,0,0,1,0-2h30a1,1,0,0,1,0,2Z"/><path class="cls-5" d="M108,100H78a1,1,0,0,1,0-2h30a1,1,0,1,1,0,2Z"/><path class="cls-5" d="M118,112a1,1,0,0,1-1-1V91a1,1,0,0,1,2,0v20A1,1,0,0,1,118,112Z"/><rect class="cls-7" height="4" width="10" x="112" y="111.03"/><path class="cls-5" d="M122,116H112a1,1,0,0,1-1-1v-4a1,1,0,0,1,1-1h10a1,1,0,0,1,1,1v4A1,1,0,0,1,122,116Zm-9-2h8v-2h-8Z"/><rect class="cls-11" height="4" width="10" x="112" y="87.03"/><path class="cls-5" d="M122,92H112a1,1,0,0,1-1-1V87a1,1,0,0,1,1-1h10a1,1,0,0,1,1,1v4A1,1,0,0,1,122,92Zm-9-2h8V88h-8Z"/><rect class="cls-11" height="4" width="10" x="64" y="87.03"/><path class="cls-5" d="M74,92H64a1,1,0,0,1-1-1V87a1,1,0,0,1,1-1H74a1,1,0,0,1,1,1v4A1,1,0,0,1,74,92Zm-9-2h8V88H65Z"/><path class="cls-5" d="M113.09,115.92a1,1,0,0,1-1-1v-8a1,1,0,0,1,2,0v8A1,1,0,0,1,113.09,115.92Z"/><path class="cls-10" d="M119.09,101.42a6,6,0,0,1-12,0c0-3,2.69-16.5,6-16.5S119.09,98.38,119.09,101.42Z"/><path class="cls-5" d="M113.09,107.92a6.77,6.77,0,0,1-7-6.5c0-1.95,2.34-17.5,7-17.5s7,15.55,7,17.5A6.77,6.77,0,0,1,113.09,107.92Zm0-22c-2,0-5,11.79-5,15.5a5,5,0,0,0,10,0C118.09,97.71,115.11,85.92,113.09,85.92Z"/><path class="cls-5" d="M111.81,103.78a1,1,0,0,1-.25,0,2.79,2.79,0,0,1-2.18-2.57,1,1,0,1,1,2-.25c.08.61.31.79.69.88a1,1,0,0,1-.24,2Z"/><path class="cls-5" d="M114.11,94.37a1,1,0,0,1-.83-.44c-.35-.51-.63-.56-1-.47a1,1,0,0,1-.44-2,2.8,2.8,0,0,1,3.11,1.3,1,1,0,0,1-.83,1.56Z"/><path class="cls-10" d="M64.14,111.17a3,3,0,0,1,4.54-1.62,5,5,0,0,1,9.11,1.15A4,4,0,0,1,84,114v1H62v-1A3,3,0,0,1,64.14,111.17Z"/><path class="cls-5" d="M84,116H62a1,1,0,0,1-1-1v-1a4,4,0,0,1,2.36-3.64,4,4,0,0,1,5-2.13,6,6,0,0,1,10,1.05A5,5,0,0,1,85,114v1A1,1,0,0,1,84,116Zm-21-2H83a3,3,0,0,0-4.65-2.5,1,1,0,0,1-1.51-.57A4,4,0,0,0,73,108a4,4,0,0,0-3.45,2,1,1,0,0,1-1.43.33,2,2,0,0,0-3,1.08,1,1,0,0,1-.67.67A2,2,0,0,0,63,114Zm1.14-2.86h0Z"/><path class="cls-5" d="M74.11,112.06a1,1,0,0,1-.55-.17c-.51-.34-.8-.28-1.12-.05a1,1,0,1,1-1.15-1.63,2.8,2.8,0,0,1,3.37,0,1,1,0,0,1-.55,1.83Z"/><path class="cls-5" d="M112,116H23a1,1,0,0,1,0-2h89a1,1,0,0,1,0,2Z"/><path class="cls-5" d="M127,116H115a1,1,0,1,1,0-2h12a1,1,0,1,1,0,2Z"/><path class="cls-5" d="M6,116H1a1,1,0,1,1,0-2H6a1,1,0,1,1,0,2Z"/><path class="cls-5" d="M20,116H9a1,1,0,0,1,0-2H20a1,1,0,1,1,0,2Z"/><path class="cls-5" d="M127,126H95a1,1,0,0,1,0-2h32a1,1,0,1,1,0,2Z"/><path class="cls-5" d="M92,126H9a1,1,0,1,1,0-2H92a1,1,0,0,1,0,2Z"/><path class="cls-5" d="M3,126H1a1,1,0,0,1,0-2H3a1,1,0,0,1,0,2Z"/></g><path class="cls-7" d="M12,116v7a2,2,0,0,0,2,2h8a2,2,0,0,0,2-2v-7H12Z"/><g class="cls-1"><path class="cls-13" d="M12,116v7a2,2,0,0,0,2,2h2v-9Z"/></g><path class="cls-5" d="M14,120H12a1,1,0,0,1,0-2h2a1,1,0,0,1,0,2Z"/><path class="cls-5" d="M14,123H12a1,1,0,0,1,0-2h2a1,1,0,0,1,0,2Z"/><path class="cls-5" d="M24,123H22a1,1,0,1,1,0-2h2a1,1,0,1,1,0,2Z"/><path class="cls-5" d="M24,120H22a1,1,0,1,1,0-2h2a1,1,0,1,1,0,2Z"/><path class="cls-5" d="M21,126H15a4,4,0,0,1-4-4v-6a1,1,0,0,1,1-1H24a1,1,0,0,1,1,1v6A4,4,0,0,1,21,126Zm-8-9v5a2,2,0,0,0,2,2h6a2,2,0,0,0,2-2v-5Z"/><path class="cls-7" d="M72,116v7a2,2,0,0,0,2,2h8a2,2,0,0,0,2-2v-7H72Z"/><g class="cls-1"><path class="cls-13" d="M80,116v9h2a2,2,0,0,0,2-2v-7Z"/></g><path class="cls-5" d="M74,120H72a1,1,0,0,1,0-2h2a1,1,0,0,1,0,2Z"/><path class="cls-5" d="M74,123H72a1,1,0,0,1,0-2h2a1,1,0,0,1,0,2Z"/><path class="cls-5" d="M84,123H82a1,1,0,0,1,0-2h2a1,1,0,1,1,0,2Z"/><path class="cls-5" d="M84,120H82a1,1,0,0,1,0-2h2a1,1,0,1,1,0,2Z"/><path class="cls-5" d="M81,126H75a4,4,0,0,1-4-4v-6a1,1,0,0,1,1-1H84a1,1,0,0,1,1,1v6A4,4,0,0,1,81,126Zm-8-9v5a2,2,0,0,0,2,2h6a2,2,0,0,0,2-2v-5Z"/><path class="cls-14" d="M6,104v6a6,6,0,0,0,6,6H84a6,6,0,0,0,6-6v-6"/><path class="cls-5" d="M84,117H12a7,7,0,0,1-7-7v-6a1,1,0,0,1,2,0v6a5,5,0,0,0,5,5H84a5,5,0,0,0,5-5v-6a1,1,0,0,1,2,0v6A7,7,0,0,1,84,117Z"/><polygon class="cls-15" points="59.14 59 36.86 59 34 65 62 65 59.14 59"/><path class="cls-5" d="M62,66H34a1,1,0,0,1-.9-1.43l2.86-6a1,1,0,0,1,.9-.57H59.14a1,1,0,0,1,.9.57l2.86,6A1,1,0,0,1,62,66ZM35.59,64H60.42l-1.9-4h-21Z"/><rect class="cls-5" height="4" rx="1" ry="1" width="4" x="46" y="62"/><rect class="cls-5" height="4" rx="1" ry="1" width="4" x="38" y="62"/><rect class="cls-5" height="4" rx="1" ry="1" width="4" x="42" y="58"/><rect class="cls-5" height="4" rx="1" ry="1" width="4" x="50" y="58"/><rect class="cls-5" height="4" rx="1" ry="1" width="4" x="54" y="62"/><path class="cls-8" d="M77.34,74.23,81,83l-3.47,1.74A12.12,12.12,0,0,1,72.17,86H23.84a12.12,12.12,0,0,1-5.37-1.26L15,83l3.66-8.77A15,15,0,0,1,32.51,65h31A15,15,0,0,1,77.34,74.23Z"/><path class="cls-16" d="M63.5,65h-31a15,15,0,0,0-13.85,9.22L15,83l3.47,1.74a12.09,12.09,0,0,0,1.45.6l45-20.26C64.46,65,64,65,63.5,65Z"/><path class="cls-16" d="M31.77,86l40.44-18.2a15,15,0,0,0-3-1.66L25.11,86Z"/><g class="cls-1"><path class="cls-17" d="M17.66,78.23C20,72.65,26.45,69,32.51,69h31c6.06,0,12.52,3.65,14.85,9.23l2.28,5.47L81,83l-3.66-8.78A15,15,0,0,0,63.5,65h-31a15,15,0,0,0-13.85,9.22L15,83l.38.69Z"/></g><path class="cls-15" d="M90,98.21V106a6,6,0,0,1-6,6H12a6,6,0,0,1-6-6V98.21A15,15,0,0,1,10.4,87.61L15,83l3.47,1.74A12.12,12.12,0,0,0,23.84,86H72.17a12.12,12.12,0,0,0,5.37-1.26L81,83l4.6,4.61A15,15,0,0,1,90,98.21Z"/><g class="cls-18"><path class="cls-19" d="M84,108H12a6,6,0,0,1-6-6v4a6,6,0,0,0,6,6H84a6,6,0,0,0,6-6v-4A6,6,0,0,1,84,108Z"/></g><path class="cls-5" d="M84,113H12a7,7,0,0,1-7-7V98.22A15.9,15.9,0,0,1,9.69,86.9l4.61-4.61a1,1,0,0,1,1.41,1.41L11.1,88.32A13.91,13.91,0,0,0,7,98.22V106a5,5,0,0,0,5,5H84a5,5,0,0,0,5-5V98.22a13.91,13.91,0,0,0-4.1-9.9l-4.61-4.61a1,1,0,0,1,1.41-1.41l4.61,4.61A15.9,15.9,0,0,1,91,98.22V106A7,7,0,0,1,84,113Z"/><path class="cls-5" d="M81,84a1,1,0,0,1-.92-.62l-3.65-8.77A14,14,0,0,0,63.5,66h-31a14,14,0,0,0-12.92,8.62l-3.65,8.77a1,1,0,0,1-1.85-.77l3.65-8.77A16,16,0,0,1,32.5,64h31a16,16,0,0,1,14.77,9.85l3.65,8.77A1,1,0,0,1,81,84Z"/><path class="cls-5" d="M72.17,87H23.84A13.18,13.18,0,0,1,18,85.64L14.55,83.9a1,1,0,1,1,.9-1.79l3.46,1.74A11.16,11.16,0,0,0,23.84,85H72.17a11.16,11.16,0,0,0,4.93-1.16l3.46-1.74a1,1,0,1,1,.9,1.79L78,85.64A13.18,13.18,0,0,1,72.17,87Z"/><path class="cls-20" d="M72.81,102h8.4A2.87,2.87,0,0,0,84,99.06V97.94A2.85,2.85,0,0,0,80.89,95l-8.28,1a2.77,2.77,0,0,0-1.93,1.16l-.11.16A3,3,0,0,0,72.81,102Z"/><path class="cls-3" d="M80.89,95l-8.28,1a2.77,2.77,0,0,0-1.93,1.16l-.11.16a3,3,0,0,0-.16,3.26,3,3,0,0,1,.16-.26l.11-.16A2.77,2.77,0,0,1,72.61,99l8.28-1a2.79,2.79,0,0,1,2.95,2,3,3,0,0,0,.16-.94V97.94A2.85,2.85,0,0,0,80.89,95Z"/><path class="cls-5" d="M81.2,103h-8.4a3.73,3.73,0,0,1-3.35-2.08,4,4,0,0,1,.3-4.2l.11-.16A3.78,3.78,0,0,1,72.49,95l8.28-1a3.7,3.7,0,0,1,2.9.92,4,4,0,0,1,1.32,3v1.12A3.87,3.87,0,0,1,81.2,103Zm0-7H81l-8.28,1a1.78,1.78,0,0,0-1.23.75l-.11.16a2,2,0,0,0-.15,2.12,1.76,1.76,0,0,0,1.57,1h8.4A1.87,1.87,0,0,0,83,99.06V97.94a2,2,0,0,0-.65-1.49A1.71,1.71,0,0,0,81.21,96Z"/><path class="cls-20" d="M23.19,102h-8.4A2.87,2.87,0,0,1,12,99.06V97.94A2.85,2.85,0,0,1,15.1,95l8.28,1a2.77,2.77,0,0,1,1.93,1.16l.11.16A3,3,0,0,1,23.19,102Z"/><path class="cls-3" d="M15.1,98l8.28,1a2.77,2.77,0,0,1,1.93,1.16l.11.16a3,3,0,0,1,.16.26,3,3,0,0,0-.16-3.26l-.11-.16A2.77,2.77,0,0,0,23.39,96L15.1,95A2.85,2.85,0,0,0,12,97.94v1.12a3,3,0,0,0,.16.94A2.79,2.79,0,0,1,15.1,98Z"/><path class="cls-5" d="M23.19,103h-8.4A3.87,3.87,0,0,1,11,99.06V97.94a4,4,0,0,1,1.32-3,3.71,3.71,0,0,1,2.9-.92l8.28,1a3.79,3.79,0,0,1,2.63,1.57l.11.16a4,4,0,0,1,.3,4.2A3.73,3.73,0,0,1,23.19,103Zm-8.4-7a1.71,1.71,0,0,0-1.14.44A2,2,0,0,0,13,97.94v1.12a1.87,1.87,0,0,0,1.8,1.94h8.4a1.76,1.76,0,0,0,1.57-1,2,2,0,0,0-.15-2.12l-.11-.16A1.78,1.78,0,0,0,23.27,97L15,96Z"/><path class="cls-15" d="M12,80V78.5A1.5,1.5,0,0,0,10.5,77h-4A1.5,1.5,0,0,0,5,78.5v3A1.5,1.5,0,0,0,6.5,83H15A3,3,0,0,1,12,80Z"/><path class="cls-5" d="M15,84H6.5A2.5,2.5,0,0,1,4,81.5v-3A2.5,2.5,0,0,1,6.5,76h4A2.5,2.5,0,0,1,13,78.5V80a2,2,0,0,0,2,2,1,1,0,0,1,0,2ZM6.5,78a.5.5,0,0,0-.5.5v3a.5.5,0,0,0,.5.5h5A4,4,0,0,1,11,80V78.5a.5.5,0,0,0-.5-.5Z"/><path class="cls-15" d="M84,80V78.5A1.5,1.5,0,0,1,85.5,77h4A1.5,1.5,0,0,1,91,78.5v3A1.5,1.5,0,0,1,89.5,83H81A3,3,0,0,0,84,80Z"/><path class="cls-5" d="M89.5,84H81a1,1,0,0,1,0-2,2,2,0,0,0,2-2V78.5A2.5,2.5,0,0,1,85.5,76h4A2.5,2.5,0,0,1,92,78.5v3A2.5,2.5,0,0,1,89.5,84Zm-5-2h5a.5.5,0,0,0,.5-.5v-3a.5.5,0,0,0-.5-.5h-4a.5.5,0,0,0-.5.5V80A4,4,0,0,1,84.46,82Z"/><rect class="cls-4" height="4" width="18" x="39" y="112"/><path class="cls-5" d="M57,117H39a1,1,0,0,1-1-1v-4a1,1,0,0,1,1-1H57a1,1,0,0,1,1,1v4A1,1,0,0,1,57,117Zm-17-2H56v-2H40Z"/><path class="cls-7" d="M57.38,105H38.62a4,4,0,0,1-3.88-3l-1.12-4.48A2,2,0,0,1,35.56,95H60.44a2,2,0,0,1,1.94,2.49L61.26,102A4,4,0,0,1,57.38,105Z"/><g class="cls-1"><path class="cls-21" d="M34.15,99.6a2,2,0,0,1,1.41-.6H60.44a2,2,0,0,1,1.41.6l.53-2.12A2,2,0,0,0,60.44,95H35.56a2,2,0,0,0-1.94,2.49Z"/></g><path class="cls-5" d="M57.38,106H38.62a5,5,0,0,1-4.85-3.79l-1.12-4.48A3,3,0,0,1,35.56,94H60.44a3,3,0,0,1,2.91,3.73l-1.12,4.48A5,5,0,0,1,57.38,106ZM35.56,96a1,1,0,0,0-1,1.24l1.12,4.49A3,3,0,0,0,38.62,104H57.38a3,3,0,0,0,2.91-2.27l1.12-4.48a1,1,0,0,0-1-1.24Z"/><path class="cls-5" d="M48,106a1,1,0,0,1-1-1V95a1,1,0,0,1,2,0v10A1,1,0,0,1,48,106Z"/><path class="cls-5" d="M44,106a1,1,0,0,1-1-.9l-1-10A1,1,0,0,1,42.9,94a1,1,0,0,1,1.09.9l1,10a1,1,0,0,1-.9,1.09Z"/><path class="cls-5" d="M40,106a1,1,0,0,1-1-.8l-2-10a1,1,0,1,1,2-.39l2,10A1,1,0,0,1,40.2,106Z"/><path class="cls-5" d="M52,106h-.1a1,1,0,0,1-.9-1.09l1-10a1,1,0,1,1,2,.2l-1,10A1,1,0,0,1,52,106Z"/><path class="cls-5" d="M56,106l-.2,0A1,1,0,0,1,55,104.8l2-10a1,1,0,1,1,2,.39l-2,10A1,1,0,0,1,56,106Z"/><path class="cls-4" d="M119.19,89.9H102.81v2.87H98L96.78,82.19a7,7,0,0,1,0-1.78l.92-7.74a5,5,0,0,1,2.82-4l5-2.27c.5,1.64,2.95,3,5.5,3a6.05,6.05,0,0,0,5.46-3.13h.05l5,2.38a5,5,0,0,1,2.78,3.95l.92,7.78a7,7,0,0,1,0,1.78L124,92.76h-4.77Z"/><path class="cls-3" d="M96.87,82.92l.83-7a5,5,0,0,1,2.82-4l4.06-2c.84,1.56,3.83,2.78,6.39,2.78A9.34,9.34,0,0,0,117.41,70l4.11,2a5,5,0,0,1,2.78,3.95l.83,7,.09-.73a7,7,0,0,0,0-1.78l-.92-7.78a5,5,0,0,0-2.78-3.95l-5-2.38h-.05A6.05,6.05,0,0,1,111,69.45c-2.55,0-5-1.38-5.5-3l-5,2.27a5,5,0,0,0-2.82,4l-.92,7.74a7,7,0,0,0,0,1.78Z"/><polygon class="cls-3" points="101.95 92.76 98 92.76 97.64 89.18 101.95 89.18 101.95 92.76"/><polygon class="cls-3" points="120.1 92.76 124.05 92.88 124.44 89.18 120.1 89.18 120.1 92.76"/><path class="cls-22" d="M115.67,63.69a2.13,2.13,0,0,0,.94,2.63c-.72,1.65-3.53,2.55-5.5,3.13-2-.59-5-1.39-5.5-3a2.23,2.23,0,0,0,.92-2.74Z"/><g class="cls-1"><path class="cls-23" d="M115.67,63.69h-9.14a2.6,2.6,0,0,1,0,1.86l.57.6a4.17,4.17,0,0,0,3,1.31h2a4.17,4.17,0,0,0,3-1.31l.57-.6A2.58,2.58,0,0,1,115.67,63.69Z"/></g><path class="cls-24" d="M98,93h4a0,0,0,0,1,0,0v5.6a0,0,0,0,1,0,0h-.64A3.36,3.36,0,0,1,98,95.24V93A0,0,0,0,1,98,93Z"/><path class="cls-5" d="M102,99.6h-.64A4.37,4.37,0,0,1,97,95.24V93a1,1,0,0,1,1-1h4a1,1,0,0,1,1,1v5.6A1,1,0,0,1,102,99.6ZM99,94v1.24a2.37,2.37,0,0,0,2,2.33V94Z"/><path class="cls-24" d="M123.36,93H124a0,0,0,0,1,0,0v5.6a0,0,0,0,1,0,0h-4a0,0,0,0,1,0,0V96.36A3.36,3.36,0,0,1,123.36,93Z" transform="translate(244 191.6) rotate(180)"/><path class="cls-5" d="M120.64,99.6H120a1,1,0,0,1-1-1V93a1,1,0,0,1,1-1h4a1,1,0,0,1,1,1v2.24A4.37,4.37,0,0,1,120.64,99.6ZM121,94v3.57a2.37,2.37,0,0,0,2-2.33V94Z"/><path class="cls-5" d="M120,90.9a1,1,0,0,1-1-1V77.41a2.4,2.4,0,0,0-.71-1.71,1,1,0,0,1,1.42-1.41A4.39,4.39,0,0,1,121,77.41V89.9A1,1,0,0,1,120,90.9Z"/><path class="cls-5" d="M102,90.9a1,1,0,0,1-1-1V77.41a4.38,4.38,0,0,1,1.29-3.12,1,1,0,0,1,1.41,1.41,2.4,2.4,0,0,0-.71,1.71V89.9A1,1,0,0,1,102,90.9Z"/><path class="cls-5" d="M124,94h-4.77a1,1,0,0,1,0-2h3.88l1.15-9.93a6,6,0,0,0,0-1.53l-.92-7.79a4,4,0,0,0-2.21-3.16l-5-2.38a1,1,0,1,1,.86-1.81l5,2.38a6,6,0,0,1,3.34,4.73l.92,7.78a8,8,0,0,1,0,2L125,93.12A1,1,0,0,1,124,94Z"/><path class="cls-5" d="M102.81,94H98a1,1,0,0,1-1-.88L95.79,82.3a8,8,0,0,1,0-2l.92-7.74a6,6,0,0,1,3.4-4.77l5-2.27.44.9.36.93h0l-4.89,2.25a4,4,0,0,0-2.25,3.18l-.92,7.75a6,6,0,0,0,0,1.53L98.93,92h3.88a1,1,0,0,1,0,2Z"/><path class="cls-5" d="M111.11,70.45c-3,0-5.81-1.64-6.45-3.73a1,1,0,0,1,.42-1.14,1.44,1.44,0,0,0,.54-1.65,1,1,0,1,1,1.84-.79,3.33,3.33,0,0,1-.61,3.51,5.56,5.56,0,0,0,4.26,1.79,5.34,5.34,0,0,0,4.21-2,3.44,3.44,0,0,1-.57-3.49,1,1,0,0,1,1.85.77,1.55,1.55,0,0,0,.55,1.72,1,1,0,0,1,.34,1.22A7.07,7.07,0,0,1,111.11,70.45Z"/><polygon class="cls-7" points="102 124 109 124 109 97 113 97 113 124 120 124 120 89.9 102 89.9 102 124"/><path class="cls-5" d="M120,125h-7a1,1,0,0,1-1-1V98h-2v26a1,1,0,0,1-1,1h-7a1,1,0,0,1-1-1V89.9a1,1,0,0,1,1-1h18a1,1,0,0,1,1,1V124A1,1,0,0,1,120,125Zm-6-2h5V90.9H103V123h5V97a1,1,0,0,1,1-1h4a1,1,0,0,1,1,1Z"/><path class="cls-5" d="M102,95.7a1,1,0,0,1-.71-1.71l4.83-4.8a1,1,0,0,1,1.41,1.42l-4.83,4.8A1,1,0,0,1,102,95.7Z"/><path class="cls-5" d="M119.92,95.4a1,1,0,0,1-.71-.29l-4.5-4.5a1,1,0,0,1,1.41-1.41l4.5,4.5a1,1,0,0,1-.71,1.71Z"/><path class="cls-5" d="M124,90h-4a1,1,0,0,1,0-2h4a1,1,0,0,1,0,2Z"/><path class="cls-5" d="M102,90H98.23a1,1,0,0,1,0-2H102a1,1,0,0,1,0,2Z"/><path class="cls-5" d="M96.85,82.3a1,1,0,0,1-.34-1.94l1.72-.61a1,1,0,0,1,.67,1.88l-1.72.61A1,1,0,0,1,96.85,82.3Z"/><path class="cls-5" d="M125.15,82.3a1,1,0,0,1-.33-.06l-1.63-.57a1,1,0,1,1,.66-1.89l1.63.57a1,1,0,0,1-.33,1.94Z"/><path class="cls-25" d="M104.7,119.91h.6a3.7,3.7,0,0,1,3.7,3.7V125a0,0,0,0,1,0,0h-7.33a.67.67,0,0,1-.67-.67v-.72A3.7,3.7,0,0,1,104.7,119.91Z"/><path class="cls-5" d="M109,126h-7.33a1.67,1.67,0,0,1-1.67-1.67v-.72a4.7,4.7,0,0,1,4.7-4.7h.6a4.7,4.7,0,0,1,4.7,4.7V125A1,1,0,0,1,109,126Zm-7-2h6v-.39a2.7,2.7,0,0,0-2.7-2.7h-.6a2.7,2.7,0,0,0-2.7,2.7Z"/><path class="cls-25" d="M116.7,119.91h.6a3.7,3.7,0,0,1,3.7,3.7v.72a.67.67,0,0,1-.67.67H113a0,0,0,0,1,0,0v-1.39A3.7,3.7,0,0,1,116.7,119.91Z"/><path class="cls-5" d="M120.33,126H113a1,1,0,0,1-1-1v-1.39a4.7,4.7,0,0,1,4.7-4.7h.6a4.7,4.7,0,0,1,4.7,4.7v.72A1.67,1.67,0,0,1,120.33,126ZM114,124h6v-.39a2.7,2.7,0,0,0-2.7-2.7h-.6a2.7,2.7,0,0,0-2.7,2.7Z"/><path class="cls-24" d="M112.1,65H109.9a4.3,4.3,0,0,1-3-1.24l-2.61-2.59a4.22,4.22,0,0,1-1.25-3V50.83c0-6.18,16-6.18,16,0v7.34a4.22,4.22,0,0,1-1.25,3l-2.61,2.59A4.3,4.3,0,0,1,112.1,65Z"/><g class="cls-1"><path class="cls-23" d="M115.13,61a4.3,4.3,0,0,1-3,1.24H109.9a4.3,4.3,0,0,1-3-1.24l-2.61-2.59a4.22,4.22,0,0,1-1.25-3v2.8a4.22,4.22,0,0,0,1.25,3l2.61,2.59a4.3,4.3,0,0,0,3,1.24h2.21a4.3,4.3,0,0,0,3-1.24l2.61-2.59a4.22,4.22,0,0,0,1.25-3v-2.8a4.22,4.22,0,0,1-1.25,3Z"/></g><g class="cls-1"><path class="cls-23" d="M118.9,53.69V50.51c0-5.75-15.85-5.75-15.85,0v2.91c.72-.84,1.88-1.49,2.27-2.66,4.5,2.1,9,.24,12,.78A2.35,2.35,0,0,1,118.9,53.69Z"/></g><path class="cls-5" d="M112.1,66H109.9a5.26,5.26,0,0,1-3.73-1.53l-2.61-2.59A5.26,5.26,0,0,1,102,58.17V50.83c0-3.87,4.67-5.63,9-5.63s9,1.76,9,5.63v7.34a5.25,5.25,0,0,1-1.55,3.71l-2.61,2.59A5.27,5.27,0,0,1,112.1,66ZM111,47.2c-3.48,0-7,1.25-7,3.63v7.34a3.24,3.24,0,0,0,1,2.29L107.57,63a3.28,3.28,0,0,0,2.32,1h2.21a3.32,3.32,0,0,0,2.32-1L117,60.46a3.24,3.24,0,0,0,1-2.29V50.83a3,3,0,0,0-2-2.58A11.46,11.46,0,0,0,111,47.2Z"/><path class="cls-25" d="M116.18,44c2.3,1.06,4.26,2.25,4.26,5.52a11.38,11.38,0,0,1-.25,2.28c-.15.71-1.18.39-1.18.39s0-1.91-1.4-2.45c-3.52-1.41-9.25,1.07-13.13-1.56A3.56,3.56,0,0,1,103.3,51s-1.36,0-1.45-.78c-.39-3.51,1.06-5.07,2.62-4.68C108.38,41.62,114.79,43.32,116.18,44Z"/><g class="cls-1"><path class="cls-3" d="M104.48,47.45c3.9-3.9,10.32-2.2,11.7-1.56,2.07,1,4,1.57,4.26,4.15.3-3.7-1.83-5-4.26-6.08-1.38-.64-7.8-2.34-11.7,1.56-1.48-.37-2.89,1-2.66,4.18C102,47.6,103.25,47.14,104.48,47.45Z"/></g><path class="cls-5" d="M119.49,53.22a2.71,2.71,0,0,1-.78-.12,1,1,0,0,1-.7-.89,2.3,2.3,0,0,0-.9-1.65c-1-.56-2.67-.44-4.46-.31-2.3.17-4.9.36-7.37-.67a5.15,5.15,0,0,1-1.19,2,1.07,1.07,0,0,1-.79.38h0c-1.12,0-2.31-.52-2.44-1.67-.26-2.35.21-4.18,1.33-5.16a2.7,2.7,0,0,1,1.94-.69c4.21-3.78,10.37-2.33,12.44-1.42h0c2.21,1,4.76,2.57,4.86,6.41a11.07,11.07,0,0,1-.27,2.5,1.52,1.52,0,0,1-.72,1A1.87,1.87,0,0,1,119.49,53.22Zm-4.64-5.08a6.47,6.47,0,0,1,3.25.68,3.51,3.51,0,0,1,1.32,1.35,6.16,6.16,0,0,0,0-.68c-.07-2.54-1.51-3.69-3.66-4.63h0c-1.67-.73-7.19-2.05-10.6,1.35a1,1,0,0,1-.95.26.74.74,0,0,0-.72.17c-.22.19-.89,1-.68,3.24l.05,0a2.36,2.36,0,0,0,.53-1.1,1.65,1.65,0,0,1,.88-1.17,1.67,1.67,0,0,1,1.48,0c2.1,1,4.46.81,6.74.65C113.31,48.21,114.1,48.15,114.85,48.15Z"/><path class="cls-5" d="M111.19,59.26a1.83,1.83,0,0,1-1.14-.49,1,1,0,0,1,1.14-1.62,1,1,0,0,1,1.19.23,1,1,0,0,1-.06,1.4A1.83,1.83,0,0,1,111.19,59.26Z"/><path class="cls-5" d="M111.11,62a3.59,3.59,0,0,1-2.09-.53,1,1,0,0,1-.48-1.36,1,1,0,0,1,1.31-.47l.22.12a1.68,1.68,0,0,0,1,.24,1.92,1.92,0,0,0,1.1-.23,1,1,0,0,1,1.29,1.53A3.58,3.58,0,0,1,111.11,62Z"/><path class="cls-5" d="M116.57,55.08a1,1,0,0,1-.45-.11,5.22,5.22,0,0,0-1.71,0c-.45,0-.92.09-1.36.09a1,1,0,0,1,0-2c.36,0,.76,0,1.16-.08a5.34,5.34,0,0,1,2.8.19,1,1,0,0,1-.45,1.89Z"/><path class="cls-5" d="M107.19,57.23a1.36,1.36,0,1,1,1.36-1.36A1.36,1.36,0,0,1,107.19,57.23Zm0-2a.64.64,0,1,0,.64.64A.64.64,0,0,0,107.19,55.23Z"/><path class="cls-5" d="M109.16,55.08a11.51,11.51,0,0,1-1.55-.14,4.67,4.67,0,0,0-1.52-.07,1,1,0,0,1-.89-1.79,4.72,4.72,0,0,1,2.68-.12,10.21,10.21,0,0,0,1.28.12,1,1,0,0,1,0,2Z"/><path class="cls-5" d="M115.07,57.23a1.36,1.36,0,1,1,1.36-1.36A1.36,1.36,0,0,1,115.07,57.23Zm0-2a.64.64,0,1,0,.64.64A.64.64,0,0,0,115.07,55.23Z"/><circle class="cls-5" cx="107.19" cy="55.87" r="1"/><circle class="cls-5" cx="115.07" cy="55.87" r="1"/><path class="cls-2" d="M113.39,69.12s0-.07,0-.11a6.62,6.62,0,0,1-2.32.44,7.44,7.44,0,0,1-2.54-.46l0,.14L110.17,72l-1.67,9.5,2.5,3.33,2.5-3.33L111.83,72Z"/><path class="cls-5" d="M111,85.83a1,1,0,0,1-.8-.4l-2.5-3.33a1,1,0,0,1-.19-.77l1.61-9.16-1.39-2.57-.06-.12,0-.12a1,1,0,0,1,.25-1.06,1,1,0,0,1,1-.25,5.88,5.88,0,0,0,4.17,0,1,1,0,0,1,1.26,1.36.55.55,0,0,1-.06.15v0l-1.39,2.57,1.61,9.16a1,1,0,0,1-.19.77l-2.5,3.33A1,1,0,0,1,111,85.83Zm-1.44-4.58L111,83.16l1.44-1.92L111,73.05Zm.9-10.83.54,1,.54-1A7.35,7.35,0,0,1,110.46,70.42Z"/></svg>