<?xml version="1.0" ?><svg data-name="003" id="_003" viewBox="0 0 128 128" xmlns="http://www.w3.org/2000/svg"><defs><style>.cls-1{opacity:0.3;}.cls-2{fill:#c9c1f5;}.cls-3{fill:#eef6ff;}.cls-4{fill:#7595b5;}.cls-5{fill:#fff;}.cls-6{fill:#6d6daa;}.cls-7{fill:#89dbba;}.cls-8{fill:#48bc33;}.cls-9{fill:#b1f1a8;}.cls-10{fill:#ffc661;}.cls-11{fill:#fff27d;}.cls-12{opacity:0.5;}.cls-13{fill:#f7a706;}.cls-14{fill:#7690a8;}.cls-15{fill:#fffad1;}.cls-16{fill:#ff99b1;}.cls-16,.cls-17,.cls-18{fill-rule:evenodd;}.cls-17{fill:#db4962;}.cls-18{fill:#fff9e0;}.cls-19{fill:#a09557;}.cls-20{fill:#96d7ff;}.cls-21{fill:#8593ba;}.cls-22{fill:#939fc6;}.cls-23{fill:#97c1ff;}</style></defs><title/><g class="cls-1"><path class="cls-2" d="M126.7,47.65a30,30,0,0,0-23.51-25,19.69,19.69,0,0,1-10.93-6.55A37,37,0,0,0,28,31.43,21,21,0,0,1,17.12,45.1C3,52.46-4.14,71.56,8.77,89.48a16.6,16.6,0,0,0,6.35,4.91,20.58,20.58,0,0,1,10,10.88,28.49,28.49,0,0,0,42.62,12.64A20.06,20.06,0,0,1,84.39,115a29,29,0,0,0,36-33.79A20.08,20.08,0,0,1,122.94,67,29.83,29.83,0,0,0,126.7,47.65Z"/><circle class="cls-3" cx="29" cy="109" r="18"/><g class="cls-1"><path class="cls-4" d="M29,123.14a18,18,0,0,1-17.89-16.07A18,18,0,1,0,47,109a18.18,18.18,0,0,0-.11-1.93A18,18,0,0,1,29,123.14Z"/></g><path class="cls-5" d="M29,94.86a18,18,0,0,1,17.89,16.07A18,18,0,1,0,11,109a18.18,18.18,0,0,0,.11,1.93A18,18,0,0,1,29,94.86Z"/><path class="cls-6" d="M29,128a19,19,0,1,1,19-19A19,19,0,0,1,29,128Zm0-36a17,17,0,1,0,17,17A17,17,0,0,0,29,92Z"/><path class="cls-6" d="M29,122.86a1,1,0,0,1-.71-.3,1,1,0,0,1-.29-.7,1.09,1.09,0,0,1,.08-.39,1,1,0,0,1,.21-.32,1,1,0,0,1,1.42,0,1,1,0,0,1,.21.32,1.09,1.09,0,0,1,.08.39,1,1,0,0,1-.29.7A1,1,0,0,1,29,122.86Z"/><path class="cls-6" d="M41.86,110a1,1,0,0,1-.38-.08.93.93,0,0,1-.33-.21,1.21,1.21,0,0,1-.22-.33,1.07,1.07,0,0,1,0-.76,1.07,1.07,0,0,1,.22-.33,1,1,0,0,1,.32-.21,1,1,0,0,1,.77,0,1,1,0,0,1,.32.21,1,1,0,0,1,.3.71,1,1,0,0,1-.08.38,1,1,0,0,1-.22.33,1,1,0,0,1-.7.29Z"/><path class="cls-6" d="M15.86,110a1,1,0,0,1-.39-.08,1,1,0,0,1-.32-.21,1.21,1.21,0,0,1-.22-.33,1,1,0,0,1-.07-.38,1,1,0,0,1,.29-.71,1,1,0,0,1,.32-.21,1,1,0,0,1,1.09.21.91.91,0,0,1,.22.33.94.94,0,0,1,0,.76,1,1,0,0,1-.22.33A1,1,0,0,1,15.86,110Z"/><path class="cls-6" d="M29,97a1,1,0,0,1-.38-.08.9.9,0,0,1-.54-.54A1,1,0,0,1,28,96a1.05,1.05,0,0,1,.29-.71,1,1,0,0,1,.33-.21.91.91,0,0,1,.76,0,1.15,1.15,0,0,1,.33.21A1.05,1.05,0,0,1,30,96a1,1,0,0,1-.08.38,1.17,1.17,0,0,1-.21.33A1,1,0,0,1,29,97Z"/><path class="cls-6" d="M29,112.57A3.57,3.57,0,1,1,32.57,109,3.58,3.58,0,0,1,29,112.57Zm0-5.14A1.57,1.57,0,1,0,30.57,109,1.57,1.57,0,0,0,29,107.43Z"/><path class="cls-6" d="M29,107.43a1,1,0,0,1-1-1V99.14a1,1,0,0,1,2,0v7.29A1,1,0,0,1,29,107.43Z"/><path class="cls-6" d="M26.43,110H19.14a1,1,0,1,1,0-2h7.29a1,1,0,0,1,0,2Z"/><rect class="cls-7" height="36" width="69" x="55" y="9"/><g class="cls-1"><rect class="cls-8" height="18" width="69" x="55" y="27"/></g><path class="cls-9" d="M119,35.58A4.42,4.42,0,0,0,114.57,40H64.42A4.42,4.42,0,0,0,60,35.58V18.42A4.42,4.42,0,0,0,64.42,14h50.15A4.42,4.42,0,0,0,119,18.42Z"/><path class="cls-6" d="M124,46H55a1,1,0,0,1-1-1V9a1,1,0,0,1,1-1h69a1,1,0,0,1,1,1V45A1,1,0,0,1,124,46ZM56,44h67V10H56Z"/><g class="cls-1"><path class="cls-8" d="M59.5,27v9A4.5,4.5,0,0,1,64,40.5h51a4.5,4.5,0,0,1,4.5-4.5V27Z"/></g><path class="cls-6" d="M114.57,41H64.42a1,1,0,0,1-1-1A3.42,3.42,0,0,0,60,36.58a1,1,0,0,1-1-1V18.42a1,1,0,0,1,1-1A3.42,3.42,0,0,0,63.42,14a1,1,0,0,1,1-1h50.15a1,1,0,0,1,1,1A3.42,3.42,0,0,0,119,17.42a1,1,0,0,1,1,1V35.58a1,1,0,0,1-1,1A3.42,3.42,0,0,0,115.57,40,1,1,0,0,1,114.57,41ZM65.33,39h48.34A5.44,5.44,0,0,1,118,34.68V19.33A5.44,5.44,0,0,1,113.67,15H65.33A5.44,5.44,0,0,1,61,19.33V34.68A5.44,5.44,0,0,1,65.33,39Z"/><ellipse class="cls-7" cx="89.5" cy="28.5" rx="9.6" ry="12"/><path class="cls-6" d="M89.5,41.5c-5.84,0-10.6-5.83-10.6-13s4.76-13,10.6-13,10.6,5.83,10.6,13S95.34,41.5,89.5,41.5Zm0-24c-4.74,0-8.6,4.93-8.6,11s3.86,11,8.6,11,8.6-4.93,8.6-11S94.24,17.5,89.5,17.5Z"/><circle class="cls-7" cx="70" cy="27" r="2.25"/><path class="cls-6" d="M70,30.25A3.25,3.25,0,1,1,73.25,27,3.25,3.25,0,0,1,70,30.25Zm0-4.5A1.25,1.25,0,1,0,71.25,27,1.25,1.25,0,0,0,70,25.75Z"/><circle class="cls-6" cx="59.5" cy="13.5" r="0.75"/><path class="cls-6" d="M59.5,15.25a1.75,1.75,0,1,1,1.75-1.75A1.75,1.75,0,0,1,59.5,15.25Zm0-2a.25.25,0,0,0-.25.25c0,.28.5.28.5,0A.25.25,0,0,0,59.5,13.25Z"/><circle class="cls-6" cx="59.5" cy="40.5" r="0.75"/><path class="cls-6" d="M59.5,42.25a1.75,1.75,0,1,1,1.75-1.75A1.75,1.75,0,0,1,59.5,42.25Zm0-2a.25.25,0,0,0-.25.25c0,.28.5.28.5,0A.25.25,0,0,0,59.5,40.25Z"/><circle class="cls-6" cx="119.5" cy="13.5" r="0.75"/><path class="cls-6" d="M119.5,15.25a1.75,1.75,0,1,1,1.75-1.75A1.75,1.75,0,0,1,119.5,15.25Zm0-2a.25.25,0,0,0-.25.25c0,.28.5.28.5,0A.25.25,0,0,0,119.5,13.25Z"/><circle class="cls-6" cx="119.5" cy="40.5" r="0.75"/><path class="cls-6" d="M119.5,42.25a1.75,1.75,0,1,1,1.75-1.75A1.75,1.75,0,0,1,119.5,42.25Zm0-2a.25.25,0,0,0-.25.25c0,.28.5.28.5,0A.25.25,0,0,0,119.5,40.25Z"/><path class="cls-9" d="M93.45,35.11,92.91,35a.65.65,0,0,1-.55-.67c0-.36,0-.74,0-1.14,0-.91,1.1-2,1.16-3.29a5.16,5.16,0,0,0,.57-2.09,1.08,1.08,0,0,0-.26-.8c.09-.48.17-1,.26-1.5.38-2.09-.35-3.59-2.19-4.24-.66-.23-3.41-.71-4.43-1.7-.37-.36-.12,1.66-.45,1.81a3.35,3.35,0,0,0-2.14,4.13c.09.52.17,1,.26,1.5a1.08,1.08,0,0,0-.26.8,5.16,5.16,0,0,0,.57,2.09c.06,1.28,1.16,2.32,1.16,3.29,0,.4,0,.78,0,1.14a.65.65,0,0,1-.55.67l-.61.12a11,11,0,0,0-3.27,1.2,9.17,9.17,0,0,0,6.29,4.13,8.47,8.47,0,0,0,1,.06h.09a8.47,8.47,0,0,0,.93-.06,9.18,9.18,0,0,0,6.3-4.15A10.41,10.41,0,0,0,93.45,35.11Z"/><path class="cls-6" d="M89.49,41.5h-.1a9.86,9.86,0,0,1-1-.07,10.13,10.13,0,0,1-7-4.56,1,1,0,0,1,.33-1.43,12,12,0,0,1,3.56-1.31l.35-.07c0-.28,0-.58,0-.89a3.08,3.08,0,0,0-.4-1,5.77,5.77,0,0,1-.73-2,5.94,5.94,0,0,1-.59-2.36,2.35,2.35,0,0,1,.21-1L84,26.34l-.12-.68a4.26,4.26,0,0,1,2.31-5c0-.12,0-.27,0-.37,0-.7.07-1.42.78-1.69a1.08,1.08,0,0,1,1.16.25,9.4,9.4,0,0,0,3.23,1.24c.37.09.67.17.84.23,2.27.81,3.3,2.76,2.84,5.36l-.12.68-.07.43a2.35,2.35,0,0,1,.21,1,6,6,0,0,1-.59,2.36,6,6,0,0,1-.75,2.08,3.36,3.36,0,0,0-.39.95c0,.3,0,.6,0,.89l.28.06a11.51,11.51,0,0,1,3.65,1.29,1,1,0,0,1,.33,1.43,10.13,10.13,0,0,1-7,4.58,9.69,9.69,0,0,1-1,.07Zm-5.74-4.83a7.81,7.81,0,0,0,4.87,2.78,7.36,7.36,0,0,0,.86.06h.09a7.57,7.57,0,0,0,.81-.05,7.81,7.81,0,0,0,4.88-2.79,10.2,10.2,0,0,0-2-.56h0L92.69,36a1.65,1.65,0,0,1-1.33-1.69c0-.34,0-.71,0-1.09A4.16,4.16,0,0,1,92,31.31a4,4,0,0,0,.54-1.47,1,1,0,0,1,.1-.39,4.28,4.28,0,0,0,.47-1.66.56.56,0,0,0,0-.16.85.85,0,0,1-.23-.82c0-.26.09-.52.14-.79l.12-.7c.29-1.63-.21-2.65-1.54-3.12-.14,0-.37-.11-.66-.18a17.73,17.73,0,0,1-2.74-.87,1.33,1.33,0,0,1-.73,1.13,2.37,2.37,0,0,0-1.56,3L86,26c0,.27.09.54.14.79a1,1,0,0,1-.24.86s0,0,0,.13a4.26,4.26,0,0,0,.48,1.66,1,1,0,0,1,.1.39A3.7,3.7,0,0,0,87,31.25a4.18,4.18,0,0,1,.63,1.92c0,.39,0,.75,0,1.1A1.66,1.66,0,0,1,86.27,36l-.59.12A10.81,10.81,0,0,0,83.75,36.67ZM85.9,34h0Zm7.18,0h0ZM86.62,20.44h0Z"/><path class="cls-7" d="M101.5,40h-6a12.71,12.71,0,0,0-12,0h-6v5h24Z"/><path class="cls-6" d="M101.5,46h-24a1,1,0,0,1-1-1V40a1,1,0,0,1,1-1h5.71a13.89,13.89,0,0,1,12.56,0h5.72a1,1,0,0,1,1,1v5A1,1,0,0,1,101.5,46Zm-23-2h22V41h-5a1,1,0,0,1-.55-.17,11.75,11.75,0,0,0-10.88,0,1,1,0,0,1-.55.17h-5Z"/><path class="cls-6" d="M74.49,33h-9a1,1,0,0,1,0-2h9a1,1,0,0,1,0,2Z"/><circle class="cls-7" cx="109" cy="27" r="2.25"/><path class="cls-6" d="M109,30.25A3.25,3.25,0,1,1,112.25,27,3.25,3.25,0,0,1,109,30.25Zm0-4.5A1.25,1.25,0,1,0,110.25,27,1.25,1.25,0,0,0,109,25.75Z"/><path class="cls-6" d="M113.5,33h-9a1,1,0,0,1,0-2h9a1,1,0,0,1,0,2Z"/><circle class="cls-10" cx="60.01" cy="16" r="9"/><path class="cls-6" d="M60,26A10,10,0,1,1,70,16,10,10,0,0,1,60,26ZM60,8a8,8,0,1,0,8,8A8,8,0,0,0,60,8Z"/><circle class="cls-11" cx="60.01" cy="16" r="5"/><path class="cls-6" d="M60,22a6,6,0,1,1,6-6A6,6,0,0,1,60,22Zm0-10a4,4,0,1,0,4,4A4,4,0,0,0,60,12Z"/><circle class="cls-10" cx="72.01" cy="10" r="9"/><path class="cls-6" d="M72,20A10,10,0,1,1,82,10,10,10,0,0,1,72,20ZM72,2a8,8,0,1,0,8,8A8,8,0,0,0,72,2Z"/><circle class="cls-11" cx="72.01" cy="10" r="5"/><path class="cls-6" d="M72,16a6,6,0,1,1,6-6A6,6,0,0,1,72,16ZM72,6a4,4,0,1,0,4,4A4,4,0,0,0,72,6Z"/><circle class="cls-10" cx="102.01" cy="112" r="9"/><path class="cls-6" d="M102,122a10,10,0,1,1,10-10A10,10,0,0,1,102,122Zm0-18a8,8,0,1,0,8,8A8,8,0,0,0,102,104Z"/><circle class="cls-11" cx="102.01" cy="112" r="5"/><path class="cls-6" d="M102,118a6,6,0,1,1,6-6A6,6,0,0,1,102,118Zm0-10a4,4,0,1,0,4,4A4,4,0,0,0,102,108Z"/><path class="cls-11" d="M24.79,5.89l-19,19a2.79,2.79,0,0,0,0,3.95L17.23,40.22a2.79,2.79,0,0,0,3.95,0l19-19V5.89Zm8.38,9.78A2.79,2.79,0,1,1,36,12.87,2.79,2.79,0,0,1,33.17,15.66Z"/><path class="cls-5" d="M24.79,5.89l-19,19a2.79,2.79,0,0,0-.38,3.47,2.8,2.8,0,0,1,.38-.47l20-20H40.15v-2Z"/><g class="cls-12"><path class="cls-13" d="M17.23,37.22,5.82,25.81a2.77,2.77,0,0,1-.63-1,2.79,2.79,0,0,0,.63,3L17.23,39.22a2.79,2.79,0,0,0,3.95,0l19-19v-2l-19,19A2.79,2.79,0,0,1,17.23,37.22Z"/></g><path class="cls-6" d="M19.2,42a3.78,3.78,0,0,1-2.68-1.11L5.11,29.52a3.8,3.8,0,0,1,0-5.36l19-19a1,1,0,0,1,.71-.29H40.15a1,1,0,0,1,1,1V21.25a1,1,0,0,1-.29.71l-19,19A3.78,3.78,0,0,1,19.2,42Zm6-35.15L6.52,25.57a1.79,1.79,0,0,0,0,2.54L17.94,39.51a1.84,1.84,0,0,0,2.54,0L39.15,20.83V6.89Zm8,9.78A3.79,3.79,0,1,1,37,12.87,3.8,3.8,0,0,1,33.17,16.66Zm0-5.59A1.79,1.79,0,1,0,35,12.87,1.8,1.8,0,0,0,33.17,11.08Z"/><path class="cls-6" d="M40.15,13.87a1,1,0,0,1,0-2,2.2,2.2,0,0,0,1.3-.42,1,1,0,0,1,1.15,1.64A4.19,4.19,0,0,1,40.15,13.87Zm-7,0h0a1,1,0,0,1-1-1c0-.71,0-1.41.09-2.09a1,1,0,1,1,2,.18c-.06.61-.08,1.25-.09,1.91A1,1,0,0,1,33.17,13.82Zm10.68-2.89A1,1,0,0,1,43,9.5a12.25,12.25,0,0,0,.67-1.72,1,1,0,0,1,1.91.59,14.25,14.25,0,0,1-.78,2A1,1,0,0,1,43.85,10.94ZM33.77,8.88a1,1,0,0,1-1-1.25,15.55,15.55,0,0,1,.68-2,1,1,0,1,1,1.85.77,13.65,13.65,0,0,0-.59,1.76A1,1,0,0,1,33.77,8.88ZM44.94,6.13a1,1,0,0,1-1-.84,3.71,3.71,0,0,0-.56-1.46,1,1,0,1,1,1.67-1.09A5.7,5.7,0,0,1,45.93,5a1,1,0,0,1-.83,1.14ZM35.87,4.38a1,1,0,0,1-.8-1.6,12,12,0,0,1,.81-1,6.23,6.23,0,0,1,.74-.68,1,1,0,1,1,1.23,1.58,4.31,4.31,0,0,0-.5.46,9.46,9.46,0,0,0-.67.8A1,1,0,0,1,35.87,4.38Zm6.09-2a1,1,0,0,1-.4-.08A3.94,3.94,0,0,0,40,2a1,1,0,0,1,0-2h0a5.87,5.87,0,0,1,2.34.5A1,1,0,0,1,42,2.37Z"/><path class="cls-6" d="M22.27,27.38h0a3.62,3.62,0,0,1-3.58-3.59,3.52,3.52,0,0,1,1-2.53,1,1,0,0,1,1.41,1.41,1.53,1.53,0,0,0-.45,1.1,1.62,1.62,0,0,0,1.6,1.6,1.68,1.68,0,0,0,1.1-.45c.86-.86-.05-2.56-.06-2.58-.63-1.12-1.27-3.42.27-5a3.6,3.6,0,0,1,6.11,2.55,3.51,3.51,0,0,1-1,2.53,1,1,0,1,1-1.41-1.41,1.53,1.53,0,0,0,.45-1.1,1.6,1.6,0,0,0-.47-1.12,1.58,1.58,0,0,0-2.23,0c-.86.86.05,2.56.06,2.57.63,1.12,1.27,3.42-.27,5A3.52,3.52,0,0,1,22.27,27.38Z"/><path class="cls-6" d="M27.92,19.12a1,1,0,0,1-.71-1.71l1.06-1.06a1,1,0,0,1,1.41,1.41l-1.06,1.06A1,1,0,0,1,27.92,19.12Z"/><path class="cls-6" d="M19.2,27.83a1,1,0,0,1-.71-1.71l1.22-1.22a1,1,0,0,1,1.41,1.41l-1.22,1.22A1,1,0,0,1,19.2,27.83Z"/><path class="cls-6" d="M18.51,32a1,1,0,0,1-.71-.29l-3.49-3.49a1,1,0,0,1,1.41-1.41l3.49,3.49A1,1,0,0,1,18.51,32Z"/><path class="cls-6" d="M18.51,36.21a1,1,0,0,1-.71-.29l-7.68-7.68a1,1,0,0,1,1.41-1.41l7.68,7.68a1,1,0,0,1-.71,1.71Z"/></g><path class="cls-3" d="M87,99h38a2,2,0,0,0,2-2V37a2,2,0,0,0-2-2H87Z"/><path class="cls-5" d="M125,35a2,2,0,0,1,2,2v4a2,2,0,0,0-2-2H87V35Z"/><path class="cls-6" d="M125,100H87a1,1,0,0,1-1-1V35a1,1,0,0,1,1-1h38a3,3,0,0,1,3,3V97A3,3,0,0,1,125,100ZM88,98h37a1,1,0,0,0,1-1V37a1,1,0,0,0-1-1H88Z"/><path class="cls-3" d="M41,99H3a2,2,0,0,1-2-2V37a2,2,0,0,1,2-2H41Z"/><path class="cls-5" d="M3,35a2,2,0,0,0-2,2v4a2,2,0,0,1,2-2H41V35Z"/><g class="cls-1"><rect class="cls-14" height="64" width="4" x="35" y="35"/></g><g class="cls-1"><rect class="cls-14" height="64" width="4" x="89" y="35"/></g><path class="cls-6" d="M41,100H3a3,3,0,0,1-3-3V37a3,3,0,0,1,3-3H41a1,1,0,0,1,1,1V99A1,1,0,0,1,41,100ZM3,36a1,1,0,0,0-1,1V97a1,1,0,0,0,1,1H40V36Z"/><g class="cls-1"><rect class="cls-9" height="6" rx="3" ry="3" width="28" x="6" y="87"/><g class="cls-12"><path class="cls-5" d="M31,87H9a3,3,0,0,0-3,3H34A3,3,0,0,0,31,87Z"/></g><path class="cls-6" d="M31,94H9a4,4,0,1,1,0-8H31a4,4,0,0,1,0,8ZM9,88a2,2,0,1,0,0,4H31a2,2,0,0,0,0-4Z"/><path class="cls-6" d="M13,42H6a1,1,0,1,1,0-2h7a1,1,0,1,1,0,2Z"/><path class="cls-6" d="M24,80H16a1,1,0,0,1,0-2h8a1,1,0,0,1,0,2Z"/><path class="cls-6" d="M31,84H9a1,1,0,1,1,0-2H31a1,1,0,0,1,0,2Z"/><path class="cls-6" d="M34,42H32a1,1,0,0,1,0-2h2a1,1,0,0,1,0,2Z"/><path class="cls-6" d="M28,42H26a1,1,0,0,1,0-2h2a1,1,0,0,1,0,2Z"/><path class="cls-6" d="M22,42H20a1,1,0,0,1,0-2h2a1,1,0,0,1,0,2Z"/><path class="cls-15" d="M18.2,48.72C19.62,50.13,20,54,20,54s-3.87-.38-5.28-1.8a2.46,2.46,0,1,1,3.48-3.48Z"/><path class="cls-6" d="M20,55h-.1c-.43,0-4.27-.47-5.89-2.09A3.46,3.46,0,0,1,18.91,48c1.62,1.62,2,5.46,2.09,5.89A1,1,0,0,1,20,55Zm-3.54-6a1.46,1.46,0,0,0-1,2.49,7.56,7.56,0,0,0,3.38,1.32,7.57,7.57,0,0,0-1.31-3.38A1.45,1.45,0,0,0,16.46,49Z"/><path class="cls-15" d="M21.8,48.72C20.38,50.13,20,54,20,54s3.87-.38,5.28-1.8a2.46,2.46,0,0,0-3.48-3.48Z"/><path class="cls-6" d="M20,55a1,1,0,0,1-1-1.1c0-.43.47-4.27,2.09-5.89h0A3.46,3.46,0,1,1,26,52.91c-1.62,1.62-5.46,2-5.89,2.09Zm2.51-5.57a7.58,7.58,0,0,0-1.31,3.38,7.58,7.58,0,0,0,3.38-1.32,1.46,1.46,0,0,0-2.07-2.07Z"/><path class="cls-16" d="M30,74H10a2,2,0,0,1-2-2V60H32V72A2,2,0,0,1,30,74Z"/><g class="cls-1"><path class="cls-17" d="M30,71H10a2,2,0,0,1-2-2v3a2,2,0,0,0,2,2H30a2,2,0,0,0,2-2V69A2,2,0,0,1,30,71Z"/></g><path class="cls-6" d="M30,75H10a3,3,0,0,1-3-3V60a1,1,0,0,1,1-1H32a1,1,0,0,1,1,1V72A3,3,0,0,1,30,75ZM9,61V72a1,1,0,0,0,1,1H30a1,1,0,0,0,1-1V61Z"/><path class="cls-16" d="M33,60H7V56a2,2,0,0,1,2-2H31a2,2,0,0,1,2,2Z"/><g class="cls-1"><path class="cls-18" d="M31,54H9a2,2,0,0,0-2,2v3a2,2,0,0,1,2-2H31a2,2,0,0,1,2,2V56A2,2,0,0,0,31,54Z"/></g><path class="cls-6" d="M33,61H7a1,1,0,0,1-1-1V56a3,3,0,0,1,3-3H31a3,3,0,0,1,3,3v4A1,1,0,0,1,33,61ZM8,59H32V56a1,1,0,0,0-1-1H9a1,1,0,0,0-1,1Z"/><rect class="cls-15" height="20" width="6" x="17" y="54"/><rect class="cls-5" height="3" width="6" x="17" y="54"/><g class="cls-1"><rect class="cls-19" height="3" width="6" x="17" y="71"/></g><path class="cls-6" d="M23,75H17a1,1,0,0,1-1-1V54a1,1,0,0,1,1-1h6a1,1,0,0,1,1,1V74A1,1,0,0,1,23,75Zm-5-2h4V55H18Z"/><g class="cls-12"><path class="cls-6" d="M23,61H17a1,1,0,0,1,0-2h6a1,1,0,0,1,0,2Z"/></g></g><g class="cls-1"><path class="cls-6" d="M101,42H94a1,1,0,1,1,0-2h7a1,1,0,0,1,0,2Z"/><path class="cls-6" d="M112,80h-8a1,1,0,0,1,0-2h8a1,1,0,0,1,0,2Z"/><path class="cls-6" d="M119,84H97a1,1,0,1,1,0-2h22a1,1,0,0,1,0,2Z"/><path class="cls-6" d="M119,88H97a1,1,0,1,1,0-2h22a1,1,0,0,1,0,2Z"/><path class="cls-6" d="M122,42h-2a1,1,0,0,1,0-2h2a1,1,0,0,1,0,2Z"/><path class="cls-6" d="M116,42h-2a1,1,0,0,1,0-2h2a1,1,0,0,1,0,2Z"/><path class="cls-6" d="M110,42h-2a1,1,0,0,1,0-2h2a1,1,0,0,1,0,2Z"/><path class="cls-3" d="M121,67V62.47a2,2,0,0,0-.21-.89l-2.24-4.47A2,2,0,0,0,116.76,56H111V67Z"/><path class="cls-6" d="M121,68H111a1,1,0,0,1-1-1V56a1,1,0,0,1,1-1h5.76a3,3,0,0,1,2.68,1.66l2.24,4.47a3,3,0,0,1,.32,1.34V67A1,1,0,0,1,121,68Zm-9-2h8V62.47a1,1,0,0,0-.11-.45l-2.24-4.47a1,1,0,0,0-.89-.55H112Z"/><path class="cls-20" d="M121,62.47a2,2,0,0,0-.21-.89L119.5,59H115v4h6Z"/><path class="cls-6" d="M121,64h-6a1,1,0,0,1-1-1V59a1,1,0,0,1,1-1h4.5a1,1,0,0,1,.89.55l1.29,2.58a3,3,0,0,1,.32,1.34V63A1,1,0,0,1,121,64Zm-5-2h3.88l-1-2H116Z"/><path class="cls-9" d="M95,63h16V54a2,2,0,0,0-2-2H97a2,2,0,0,0-2,2Z"/><path class="cls-6" d="M111,64H95a1,1,0,0,1-1-1V54a3,3,0,0,1,3-3h12a3,3,0,0,1,3,3v9A1,1,0,0,1,111,64ZM96,62h14V54a1,1,0,0,0-1-1H97a1,1,0,0,0-1,1Z"/><rect class="cls-3" height="4" width="16" x="95" y="63"/><path class="cls-6" d="M111,68H95a1,1,0,0,1-1-1V63a1,1,0,0,1,1-1h16a1,1,0,0,1,1,1v4A1,1,0,0,1,111,68ZM96,66h14V64H96Z"/><path class="cls-6" d="M99,64a1,1,0,0,1-1-1V62a1,1,0,1,1,2,0v1A1,1,0,0,1,99,64Z"/><path class="cls-6" d="M103,64a1,1,0,0,1-1-1V62a1,1,0,0,1,2,0v1A1,1,0,0,1,103,64Z"/><path class="cls-6" d="M107,64a1,1,0,0,1-1-1V62a1,1,0,0,1,2,0v1A1,1,0,0,1,107,64Z"/><circle class="cls-21" cx="115.5" cy="68.5" r="2.5"/><path class="cls-6" d="M115.5,72a3.5,3.5,0,1,1,3.5-3.5A3.5,3.5,0,0,1,115.5,72Zm0-5a1.5,1.5,0,1,0,1.5,1.5A1.5,1.5,0,0,0,115.5,67Z"/><circle class="cls-21" cx="100.5" cy="68.5" r="2.5"/><path class="cls-6" d="M100.5,72a3.5,3.5,0,1,1,3.5-3.5A3.5,3.5,0,0,1,100.5,72Zm0-5a1.5,1.5,0,1,0,1.5,1.5A1.5,1.5,0,0,0,100.5,67Z"/></g><rect class="cls-22" height="92" rx="4" ry="4" width="50" x="39" y="23"/><path class="cls-6" d="M85,116H43a5,5,0,0,1-5-5V27a5,5,0,0,1,5-5H85a5,5,0,0,1,5,5v84A5,5,0,0,1,85,116ZM43,24a3,3,0,0,0-3,3v84a3,3,0,0,0,3,3H85a3,3,0,0,0,3-3V27a3,3,0,0,0-3-3Z"/><rect class="cls-5" height="72" width="50" x="39" y="31"/><rect class="cls-9" height="6" rx="3" ry="3" width="26" x="51" y="89"/><g class="cls-12"><path class="cls-5" d="M74,89H54a3,3,0,0,0-3,3H77A3,3,0,0,0,74,89Z"/></g><path class="cls-6" d="M74,96H54a4,4,0,1,1,0-8H74a4,4,0,0,1,0,8ZM54,90a2,2,0,1,0,0,4H74a2,2,0,0,0,0-4Z"/><g class="cls-12"><path class="cls-6" d="M52,42H45a1,1,0,0,1,0-2h7a1,1,0,0,1,0,2Z"/><path class="cls-6" d="M68,82H60a1,1,0,1,1,0-2h8a1,1,0,0,1,0,2Z"/><path class="cls-6" d="M75,86H53a1,1,0,1,1,0-2H75a1,1,0,0,1,0,2Z"/><path class="cls-6" d="M83,42H81a1,1,0,0,1,0-2h2a1,1,0,0,1,0,2Z"/><path class="cls-6" d="M77,42H75a1,1,0,0,1,0-2h2a1,1,0,0,1,0,2Z"/><path class="cls-6" d="M71,42H69a1,1,0,0,1,0-2h2a1,1,0,0,1,0,2Z"/></g><rect class="cls-23" height="23" rx="2" ry="2" width="34" x="47" y="50"/><path class="cls-6" d="M79,74H49a3,3,0,0,1-3-3V52a3,3,0,0,1,3-3H79a3,3,0,0,1,3,3V71A3,3,0,0,1,79,74ZM49,51a1,1,0,0,0-1,1V71a1,1,0,0,0,1,1H79a1,1,0,0,0,1-1V52a1,1,0,0,0-1-1Z"/><rect class="cls-5" height="4" width="22" x="53" y="63"/><path class="cls-6" d="M75,68H53a1,1,0,0,1-1-1V63a1,1,0,0,1,1-1H75a1,1,0,0,1,1,1v4A1,1,0,0,1,75,68ZM54,66H74V64H54Z"/><rect class="cls-22" height="5" width="34" x="47" y="54"/><path class="cls-6" d="M81,60H47a1,1,0,0,1-1-1V54a1,1,0,0,1,1-1H81a1,1,0,0,1,1,1v5A1,1,0,0,1,81,60ZM48,58H80V55H48Z"/><g class="cls-1"><rect class="cls-14" height="4" width="50" x="39" y="31"/></g><path class="cls-6" d="M89,104H39a1,1,0,0,1-1-1V31a1,1,0,0,1,1-1H89a1,1,0,0,1,1,1v72A1,1,0,0,1,89,104Zm-49-2H88V32H40Z"/><path class="cls-6" d="M67,28H61a1,1,0,0,1,0-2h6a1,1,0,0,1,0,2Z"/><path class="cls-6" d="M57,28a1,1,0,0,1-.38-.08.9.9,0,0,1-.54-.54A.84.84,0,0,1,56,27a1.05,1.05,0,0,1,.29-.71,1,1,0,0,1,.33-.21,1,1,0,0,1,1.09.21l.12.15a.76.76,0,0,1,.09.18.65.65,0,0,1,.06.18,1.54,1.54,0,0,1,0,.2.84.84,0,0,1-.08.38,1.17,1.17,0,0,1-.21.33,1.15,1.15,0,0,1-.33.21A1,1,0,0,1,57,28Z"/><circle class="cls-21" cx="64" cy="109" r="3"/><path class="cls-6" d="M64,113a4,4,0,1,1,4-4A4,4,0,0,1,64,113Zm0-6a2,2,0,1,0,2,2A2,2,0,0,0,64,107Z"/></svg>