<?xml version="1.0" ?><svg data-name="003" id="_003" viewBox="0 0 128 128" xmlns="http://www.w3.org/2000/svg"><defs><style>.cls-1{opacity:0.3;}.cls-2{fill:#c9c1f5;}.cls-3{fill:#97c1ff;}.cls-4{fill:#6d6daa;}.cls-5{fill:#fff;}.cls-6{fill:#939fc6;}.cls-7{fill:#fff27d;}.cls-8{opacity:0.5;}.cls-9{fill:#f7a706;}.cls-10{fill:#fff2cc;}.cls-11{fill:#c1a29f;}.cls-12{fill:#d6b5b0;}.cls-13{fill:#eef6ff;}.cls-14{fill:#ff9797;}.cls-15{fill:#fff9e0;}.cls-16{fill:#ffc661;}.cls-17{fill:#c4a8a5;}.cls-18{fill:#89dbba;}.cls-19{fill:#48bc33;}.cls-20{fill:#b1f1a8;}.cls-21{fill:#7690a8;}.cls-22{fill:#93765f;}.cls-23{fill:#96d7ff;}.cls-24{fill:#f9e2dc;}.cls-25{fill:#cc7e54;}.cls-26{fill:#ffd599;}.cls-27{fill:#1c64ba;}.cls-28{fill:#d4edff;}.cls-29{fill:#ff99b1;}.cls-30{fill:#d63c74;}</style></defs><title/><g class="cls-1"><path class="cls-2" d="M68.65,10.64a37.45,37.45,0,1,0-49,56.67,19.8,19.8,0,0,1,5.85,21.06,29.53,29.53,0,1,0,57.63,11c.6-8.23,6.46-15.24,14.62-16.51a32.41,32.41,0,0,0-6.39-64.4A32.3,32.3,0,0,1,68.65,10.64Z"/><rect class="cls-3" height="33" rx="2" ry="2" width="48" x="1" y="84"/><path class="cls-4" d="M47,118H3a3,3,0,0,1-3-3V86a3,3,0,0,1,3-3H47a3,3,0,0,1,3,3v29A3,3,0,0,1,47,118ZM3,85a1,1,0,0,0-1,1v29a1,1,0,0,0,1,1H47a1,1,0,0,0,1-1V86a1,1,0,0,0-1-1Z"/><rect class="cls-5" height="6" width="36" x="7" y="103"/><path class="cls-4" d="M43,110H7a1,1,0,0,1-1-1v-6a1,1,0,0,1,1-1H43a1,1,0,0,1,1,1v6A1,1,0,0,1,43,110ZM8,108H42v-4H8Z"/><rect class="cls-6" height="7" width="48" x="1" y="90"/><path class="cls-4" d="M49,98H1a1,1,0,0,1-1-1V90a1,1,0,0,1,1-1H49a1,1,0,0,1,1,1v7A1,1,0,0,1,49,98ZM2,96H48V91H2Z"/><g class="cls-1"><path class="cls-4" d="M2,95a1.05,1.05,0,0,1-.71-.29A1.05,1.05,0,0,1,1,94a1,1,0,0,1,.08-.38.93.93,0,0,1,.21-.33,1,1,0,0,1,1.42,0,.94.94,0,0,1,.21.33A1,1,0,0,1,3,94a1.05,1.05,0,0,1-.29.71A1.05,1.05,0,0,1,2,95Z"/><path class="cls-4" d="M4,93a1.05,1.05,0,0,1-.71-.29,1,1,0,0,1-.21-.33.95.95,0,0,1,0-.76,1,1,0,0,1,.21-.33,1,1,0,0,1,1.42,0A1,1,0,0,1,4,93Z"/><path class="cls-4" d="M6,95a1,1,0,0,1-1-1,1,1,0,0,1,.08-.38.93.93,0,0,1,.21-.33,1,1,0,0,1,1.42,0,.94.94,0,0,1,.21.33A1,1,0,0,1,7,94a1,1,0,0,1-1,1Z"/><path class="cls-4" d="M8,93a1,1,0,0,1-1-1,1,1,0,0,1,.08-.38,1,1,0,0,1,.21-.33A1,1,0,1,1,8,93Z"/><path class="cls-4" d="M10,95a1,1,0,0,1-1-1,1,1,0,0,1,.08-.38.93.93,0,0,1,.21-.33,1,1,0,0,1,1.42,0,.94.94,0,0,1,.21.33A1,1,0,0,1,11,94a1,1,0,0,1-1,1Z"/><path class="cls-4" d="M12,93a1,1,0,1,1,.71-1.71,1,1,0,0,1,.21.33A1,1,0,0,1,13,92a1,1,0,0,1-1,1Z"/><path class="cls-4" d="M14,95a1,1,0,0,1-1-1,1,1,0,0,1,.08-.38.93.93,0,0,1,.21-.33,1,1,0,0,1,1.42,0,.94.94,0,0,1,.21.33A1,1,0,0,1,15,94a1,1,0,0,1-1,1Z"/><path class="cls-4" d="M16,93a1,1,0,0,1-1-1,1,1,0,0,1,.08-.38,1,1,0,0,1,.21-.33,1,1,0,0,1,1.42,0,1,1,0,0,1,.21.33.94.94,0,0,1,0,.76,1,1,0,0,1-.21.33A1.05,1.05,0,0,1,16,93Z"/><path class="cls-4" d="M18,95a1.05,1.05,0,0,1-.71-.29,1,1,0,0,1-.21-.33.95.95,0,0,1,0-.76.93.93,0,0,1,.21-.33,1,1,0,0,1,1.42,0,.94.94,0,0,1,.21.33.94.94,0,0,1,0,.76,1,1,0,0,1-.21.33A1.05,1.05,0,0,1,18,95Z"/><path class="cls-4" d="M20,93a1,1,0,0,1-.38-.08.94.94,0,0,1-.33-.21,1,1,0,0,1,0-1.42.93.93,0,0,1,.33-.21,1,1,0,0,1,.76,0,1,1,0,0,1,.33.21,1,1,0,0,1-.33,1.63A1,1,0,0,1,20,93Z"/><path class="cls-4" d="M22,95a1,1,0,1,1,.71-.29A1.05,1.05,0,0,1,22,95Z"/><path class="cls-4" d="M24,93a1,1,0,0,1-.71-1.71,1,1,0,0,1,1.09-.21,1,1,0,0,1,.33.21A1.05,1.05,0,0,1,25,92a1,1,0,0,1-.29.71A1.05,1.05,0,0,1,24,93Z"/><path class="cls-4" d="M26,95a1.05,1.05,0,0,1-.71-.29A1,1,0,0,1,25,94a1,1,0,0,1,.08-.38,1,1,0,0,1,.21-.33,1,1,0,0,1,1.42,1.42l-.16.12a.55.55,0,0,1-.17.09L26.2,95Z"/><path class="cls-4" d="M28,93a1,1,0,0,1-.38-.08,1,1,0,0,1-.33-.21A1.05,1.05,0,0,1,27,92a1,1,0,0,1,.08-.38,1.15,1.15,0,0,1,.21-.33,1,1,0,0,1,.33-.21,1,1,0,0,1,.76,0,1.16,1.16,0,0,1,.33.21,1,1,0,0,1,0,1.42,1.16,1.16,0,0,1-.33.21A1,1,0,0,1,28,93Z"/><path class="cls-4" d="M30,95a1,1,0,1,1,.71-.29A1.05,1.05,0,0,1,30,95Z"/><path class="cls-4" d="M32,93a1,1,0,0,1-.71-1.71,1,1,0,0,1,1.09-.21,1.16,1.16,0,0,1,.33.21,1,1,0,0,1,0,1.42,1.16,1.16,0,0,1-.33.21A.84.84,0,0,1,32,93Z"/><path class="cls-4" d="M34,95a1,1,0,1,1,.71-.29A1.05,1.05,0,0,1,34,95Z"/><path class="cls-4" d="M36,93a1,1,0,0,1-.38-.08,1.16,1.16,0,0,1-.33-.21A1.05,1.05,0,0,1,35,92a1,1,0,0,1,.08-.38,1,1,0,0,1,.21-.33,1.15,1.15,0,0,1,.33-.21,1,1,0,0,1,1.09.21A1,1,0,0,1,36,93Z"/><path class="cls-4" d="M38,95a1,1,0,0,1-1-1,1,1,0,0,1,.08-.38.93.93,0,0,1,.21-.33,1,1,0,0,1,1.09-.21,1.16,1.16,0,0,1,.33.21,1,1,0,0,1,0,1.42,1.16,1.16,0,0,1-.33.21A1,1,0,0,1,38,95Z"/><path class="cls-4" d="M40,93a1.05,1.05,0,0,1-.71-.29,1.16,1.16,0,0,1-.21-.33A1,1,0,0,1,39,92a1,1,0,0,1,1.71-.71,1.16,1.16,0,0,1,.21.33.94.94,0,0,1,0,.76,1.16,1.16,0,0,1-.21.33A1.05,1.05,0,0,1,40,93Z"/><path class="cls-4" d="M42,95l-.2,0-.18-.06-.18-.09-.15-.12a1.16,1.16,0,0,1-.21-.33.95.95,0,0,1,0-.76,1.15,1.15,0,0,1,.21-.33A1,1,0,0,1,42.2,93a.63.63,0,0,1,.18.06.55.55,0,0,1,.17.09l.16.12a1.16,1.16,0,0,1,.21.33.94.94,0,0,1,0,.76,1.16,1.16,0,0,1-.21.33l-.16.12a.55.55,0,0,1-.17.09L42.2,95Z"/><path class="cls-4" d="M44,93a1,1,0,0,1-.71-.29,1,1,0,1,1,1.42,0A1,1,0,0,1,44,93Z"/><path class="cls-4" d="M46,95a1,1,0,0,1-1-1,1,1,0,1,1,2,0,1,1,0,0,1-.29.71A1.05,1.05,0,0,1,46,95Z"/><path class="cls-4" d="M48,93a1,1,0,0,1-.38-.08,1.16,1.16,0,0,1-.33-.21l-.12-.16a.55.55,0,0,1-.09-.17A.63.63,0,0,1,47,92.2a1.32,1.32,0,0,1,0-.2,1,1,0,0,1,.08-.38.91.91,0,0,1,.54-.54A1,1,0,0,1,48.2,91a.63.63,0,0,1,.18.06.55.55,0,0,1,.17.09l.16.12a1.16,1.16,0,0,1,.21.33A1,1,0,0,1,49,92a1,1,0,0,1-.29.71A1.05,1.05,0,0,1,48,93Z"/><path class="cls-4" d="M4,97a1,1,0,0,1-.71-.29,1,1,0,0,1,0-1.42,1,1,0,0,1,1.42,0A1,1,0,0,1,5,96a1,1,0,0,1-.08.38,1,1,0,0,1-.21.33,1,1,0,0,1-.33.21A1,1,0,0,1,4,97Z"/><path class="cls-4" d="M8,97a1,1,0,0,1-.38-.08.9.9,0,0,1-.54-.54A1,1,0,0,1,7,96a1,1,0,0,1,.29-.71,1,1,0,0,1,1.42,1.42A1,1,0,0,1,8,97Z"/><path class="cls-4" d="M12,97a1,1,0,0,1-.71-.29A1,1,0,1,1,12,97Z"/><path class="cls-4" d="M16,97a1,1,0,0,1-.38-.08.9.9,0,0,1-.54-.54A1,1,0,0,1,15,96a1,1,0,1,1,1,1Z"/><path class="cls-4" d="M20,97a1,1,0,1,1,.71-.29A1.05,1.05,0,0,1,20,97Z"/><path class="cls-4" d="M24,97a1,1,0,0,1-.71-1.71,1,1,0,0,1,1.09-.21.9.9,0,0,1,.54.54A1,1,0,0,1,25,96a1,1,0,0,1-.29.71A1.05,1.05,0,0,1,24,97Z"/><path class="cls-4" d="M28,97a1,1,0,0,1-.38-.08,1,1,0,0,1-.33-.21,1,1,0,0,1,0-1.42,1,1,0,0,1,.33-.21,1,1,0,0,1,.76,0,1.16,1.16,0,0,1,.33.21,1,1,0,0,1,0,1.42,1.16,1.16,0,0,1-.33.21A1,1,0,0,1,28,97Z"/><path class="cls-4" d="M32,97a1,1,0,0,1-.71-1.71,1,1,0,0,1,1.09-.21,1.16,1.16,0,0,1,.33.21,1,1,0,0,1,0,1.42,1.16,1.16,0,0,1-.33.21A.84.84,0,0,1,32,97Z"/><path class="cls-4" d="M36,97a1,1,0,0,1-.38-.08,1.16,1.16,0,0,1-.33-.21A1.05,1.05,0,0,1,35,96a1,1,0,0,1,.08-.38.93.93,0,0,1,.21-.33,1.15,1.15,0,0,1,.33-.21,1,1,0,0,1,1.09.21A1,1,0,0,1,36,97Z"/><path class="cls-4" d="M40,97a1.05,1.05,0,0,1-.71-.29,1.16,1.16,0,0,1-.21-.33.95.95,0,0,1,0-.76,1.15,1.15,0,0,1,.21-.33,1,1,0,0,1,1.42,0,1.16,1.16,0,0,1,.21.33.94.94,0,0,1,0,.76,1.16,1.16,0,0,1-.21.33A1.05,1.05,0,0,1,40,97Z"/><path class="cls-4" d="M44,97a1.05,1.05,0,0,1-.71-.29l-.12-.15a.76.76,0,0,1-.09-.18A.63.63,0,0,1,43,96.2a1.32,1.32,0,0,1,0-.2,1.05,1.05,0,0,1,.29-.71A1,1,0,0,1,44.2,95a.63.63,0,0,1,.18.06.76.76,0,0,1,.18.09l.15.12A1.05,1.05,0,0,1,45,96a1.38,1.38,0,0,1,0,.2.65.65,0,0,1-.06.18.76.76,0,0,1-.09.18l-.12.15-.15.12a.76.76,0,0,1-.18.09L44.2,97Z"/><path class="cls-4" d="M48,97a.84.84,0,0,1-.38-.08,1.16,1.16,0,0,1-.33-.21l-.12-.15a.76.76,0,0,1-.09-.18.6.6,0,0,1-.06-.19A1.19,1.19,0,0,1,47,96a1,1,0,0,1,.08-.38.91.91,0,0,1,.54-.54A1,1,0,0,1,48.2,95a.63.63,0,0,1,.18.06.55.55,0,0,1,.17.09,1,1,0,0,1,.16.12,1,1,0,0,1,.21.33A1,1,0,0,1,49,96a1.05,1.05,0,0,1-.29.71,1,1,0,0,1-.16.12.55.55,0,0,1-.17.09L48.2,97Z"/></g><path class="cls-7" d="M21.79,9.89l-19,19a2.79,2.79,0,0,0,0,3.95L14.23,44.22a2.79,2.79,0,0,0,3.95,0l19-19V9.89Zm8.38,9.78A2.79,2.79,0,1,1,33,16.87,2.79,2.79,0,0,1,30.17,19.66Z"/><path class="cls-5" d="M21.79,9.89l-19,19a2.79,2.79,0,0,0-.38,3.47,2.8,2.8,0,0,1,.38-.47l20-20H37.15v-2Z"/><g class="cls-8"><path class="cls-9" d="M14.23,41.22,2.82,29.81a2.77,2.77,0,0,1-.63-1,2.79,2.79,0,0,0,.63,3L14.23,43.22a2.79,2.79,0,0,0,3.95,0l19-19v-2l-19,19A2.79,2.79,0,0,1,14.23,41.22Z"/></g><path class="cls-4" d="M16.2,46a3.78,3.78,0,0,1-2.68-1.11L2.11,33.52a3.8,3.8,0,0,1,0-5.36l19-19a1,1,0,0,1,.71-.29H37.15a1,1,0,0,1,1,1V25.25a1,1,0,0,1-.29.71l-19,19A3.78,3.78,0,0,1,16.2,46Zm6-35.15L3.52,29.57a1.8,1.8,0,0,0,0,2.54L14.94,43.51a1.8,1.8,0,0,0,2.54,0L36.15,24.83V10.89Zm8,9.77A3.79,3.79,0,1,1,34,16.87,3.8,3.8,0,0,1,30.17,20.66Zm0-5.59A1.79,1.79,0,1,0,32,16.87,1.79,1.79,0,0,0,30.17,15.08Z"/><path class="cls-4" d="M37.15,17.87a1,1,0,0,1,0-2,2.2,2.2,0,0,0,1.3-.42,1,1,0,1,1,1.15,1.64A4.19,4.19,0,0,1,37.15,17.87Zm-7,0h0a1,1,0,0,1-1-1c0-.71,0-1.41.09-2.09a1,1,0,1,1,2,.18c-.06.61-.08,1.25-.09,1.91A1,1,0,0,1,30.17,17.83Zm10.68-2.89A1,1,0,0,1,40,13.5a12.33,12.33,0,0,0,.67-1.72,1,1,0,0,1,1.91.59,14.24,14.24,0,0,1-.78,2A1,1,0,0,1,40.85,14.94ZM30.77,12.88a1,1,0,0,1-1-1.25,15.56,15.56,0,0,1,.68-2,1,1,0,0,1,1.85.77,13.54,13.54,0,0,0-.59,1.76A1,1,0,0,1,30.77,12.88Zm11.17-2.75a1,1,0,0,1-1-.84,3.72,3.72,0,0,0-.56-1.46,1,1,0,1,1,1.67-1.09A5.7,5.7,0,0,1,42.93,9a1,1,0,0,1-.83,1.14ZM32.87,8.38a1,1,0,0,1-.8-1.6,11.84,11.84,0,0,1,.81-1,6.35,6.35,0,0,1,.74-.68,1,1,0,0,1,1.23,1.58,4.21,4.21,0,0,0-.5.46,9.86,9.86,0,0,0-.67.8A1,1,0,0,1,32.87,8.38Zm6.09-2a1,1,0,0,1-.4-.08A3.94,3.94,0,0,0,37,6a1,1,0,0,1,0-2h0a5.86,5.86,0,0,1,2.34.49A1,1,0,0,1,39,6.37Z"/><path class="cls-4" d="M19.27,31.38a3.6,3.6,0,0,1-2.57-6.11,1,1,0,0,1,1.41,1.41,1.59,1.59,0,0,0,2.25,2.25c.86-.86-.05-2.56-.06-2.57-.63-1.12-1.27-3.42.27-5a3.52,3.52,0,0,1,2.5-1h0a3.6,3.6,0,0,1,2.55,6.11,1,1,0,0,1-1.41-1.41,1.58,1.58,0,0,0,0-2.23,1.6,1.6,0,0,0-1.12-.47h0A1.53,1.53,0,0,0,22,22.8c-.86.86.05,2.56.06,2.57.63,1.12,1.27,3.42-.27,5A3.53,3.53,0,0,1,19.27,31.38Z"/><path class="cls-4" d="M24.92,23.12a1,1,0,0,1-.71-1.71l1.06-1.06a1,1,0,0,1,1.41,1.41l-1.06,1.06A1,1,0,0,1,24.92,23.12Z"/><path class="cls-4" d="M16.2,31.83a1,1,0,0,1-.71-1.71l1.22-1.22a1,1,0,0,1,1.41,1.41l-1.22,1.22A1,1,0,0,1,16.2,31.83Z"/><path class="cls-4" d="M15.51,36a1,1,0,0,1-.71-.29l-3.49-3.49a1,1,0,1,1,1.41-1.41l3.49,3.49A1,1,0,0,1,15.51,36Z"/><path class="cls-4" d="M15.51,40.21a1,1,0,0,1-.71-.29L7.12,32.24a1,1,0,1,1,1.41-1.41l7.68,7.68a1,1,0,0,1-.71,1.71Z"/><polygon class="cls-5" points="119 124 119 116 127 116 119 124"/><polygon class="cls-10" points="119 124 93 124 93 90 127 90 127 116 119 116 119 124"/><g class="cls-1"><rect class="cls-11" height="5" width="34" x="93" y="90"/></g><path class="cls-4" d="M119,125a1,1,0,0,1-1-1v-8a1,1,0,0,1,1-1h8a1,1,0,0,1,.71,1.71l-8,8A1,1,0,0,1,119,125Zm1-8v4.59l4.59-4.59Z"/><path class="cls-4" d="M119,125H93a1,1,0,0,1-1-1V90a1,1,0,0,1,1-1h34a1,1,0,0,1,1,1v26a1,1,0,0,1-1,1h-7v7A1,1,0,0,1,119,125Zm-25-2h24v-7a1,1,0,0,1,1-1h7V91H94Z"/><polygon class="cls-12" points="63 118 56 115 63 112 65 115 63 118"/><path class="cls-4" d="M63,119a1,1,0,0,1-.39-.08l-7-3a1,1,0,0,1,0-1.84l7-3a1,1,0,0,1,1.23.36l2,3a1,1,0,0,1,0,1.11l-2,3A1,1,0,0,1,63,119Zm-4.46-4,4.09,1.75L63.8,115l-1.17-1.75Z"/><polygon class="cls-7" points="101 118 63 118 65 115 63 112 101 112 101 118"/><g class="cls-8"><polygon class="cls-9" points="101 115 65 115 64 116.5 65 118 101 118 101 115"/></g><path class="cls-4" d="M101,119H63a1,1,0,0,1-.83-1.55L63.8,115l-1.63-2.45A1,1,0,0,1,63,111h38a1,1,0,0,1,1,1v6A1,1,0,0,1,101,119Zm-36.13-2H100v-4H64.87l1,1.45a1,1,0,0,1,0,1.11Z"/><rect class="cls-13" height="6" width="4" x="101" y="112"/><path class="cls-4" d="M105,119h-4a1,1,0,0,1-1-1v-6a1,1,0,0,1,1-1h4a1,1,0,0,1,1,1v6A1,1,0,0,1,105,119Zm-3-2h2v-4h-2Z"/><path class="cls-14" d="M109,118h-4v-6h4a3,3,0,0,1,3,3h0A3,3,0,0,1,109,118Z"/><g class="cls-1"><path class="cls-15" d="M112,115a3,3,0,0,0-3-3h-3a3,3,0,0,1,0,6h3A3,3,0,0,0,112,115Z"/></g><path class="cls-4" d="M109,119h-4a1,1,0,0,1-1-1v-6a1,1,0,0,1,1-1h4a4,4,0,0,1,0,8Zm-3-2h3a2,2,0,0,0,0-4h-3Z"/><circle class="cls-16" cx="59.01" cy="24" r="9"/><path class="cls-4" d="M59,34A10,10,0,1,1,69,24,10,10,0,0,1,59,34Zm0-18a8,8,0,1,0,8,8A8,8,0,0,0,59,16Z"/><circle class="cls-7" cx="59.01" cy="24" r="5"/><path class="cls-4" d="M59,30a6,6,0,1,1,6-6A6,6,0,0,1,59,30Zm0-10a4,4,0,1,0,4,4A4,4,0,0,0,59,20Z"/><circle class="cls-16" cx="81.01" cy="22" r="9"/><path class="cls-4" d="M81,32A10,10,0,1,1,91,22,10,10,0,0,1,81,32Zm0-18a8,8,0,1,0,8,8A8,8,0,0,0,81,14Z"/><circle class="cls-7" cx="81.01" cy="22" r="5"/><path class="cls-4" d="M81,28a6,6,0,1,1,6-6A6,6,0,0,1,81,28Zm0-10a4,4,0,1,0,4,4A4,4,0,0,0,81,18Z"/><circle class="cls-16" cx="71.01" cy="16" r="9"/><path class="cls-4" d="M71,26A10,10,0,1,1,81,16,10,10,0,0,1,71,26ZM71,8a8,8,0,1,0,8,8A8,8,0,0,0,71,8Z"/><circle class="cls-7" cx="71.01" cy="16" r="5"/><path class="cls-4" d="M71,22a6,6,0,1,1,6-6A6,6,0,0,1,71,22Zm0-10a4,4,0,1,0,4,4A4,4,0,0,0,71,12Z"/><circle class="cls-16" cx="113.01" cy="16" r="9"/><path class="cls-4" d="M113,26a10,10,0,1,1,10-10A10,10,0,0,1,113,26Zm0-18a8,8,0,1,0,8,8A8,8,0,0,0,113,8Z"/><circle class="cls-7" cx="113.01" cy="16" r="5"/><path class="cls-4" d="M113,22a6,6,0,1,1,6-6A6,6,0,0,1,113,22Zm0-10a4,4,0,1,0,4,4A4,4,0,0,0,113,12Z"/></g><rect class="cls-17" height="53" rx="2" ry="2" width="106" x="11" y="48"/><path class="cls-4" d="M115,102H13a3,3,0,0,1-3-3V50a3,3,0,0,1,3-3H115a3,3,0,0,1,3,3V99A3,3,0,0,1,115,102ZM13,49a1,1,0,0,0-1,1V99a1,1,0,0,0,1,1H115a1,1,0,0,0,1-1V50a1,1,0,0,0-1-1Z"/><rect class="cls-18" height="48" transform="translate(-6.53 8.39) rotate(-7.35)" width="92" x="16" y="31"/><g class="cls-1"><rect class="cls-19" height="24" transform="translate(-8.04 8.68) rotate(-7.35)" width="92" x="17.54" y="54.91"/></g><path class="cls-20" d="M103.2,61.78A6,6,0,0,0,98,68.5L30.59,77.2A6,6,0,0,0,23.87,72l-3.07-23.8A6,6,0,0,0,26,41.5l67.44-8.7A6,6,0,0,0,100.13,38Z"/><g class="cls-1"><polygon class="cls-21" points="15.23 52 103 52 103 48 14.72 48 15.23 52"/></g><g class="cls-1"><path class="cls-19" d="M22.33,60.15,23.87,72a6,6,0,0,1,6.72,5.18L98,68.5a6,6,0,0,1,5.18-6.72l-1.53-11.87Z"/></g><path class="cls-4" d="M30.58,78.2a1,1,0,0,1-1-.87A5,5,0,0,0,24,73a1,1,0,0,1-1.12-.86L19.8,48.35a1,1,0,0,1,.86-1.12A5,5,0,0,0,25,41.63a1,1,0,0,1,.86-1.12l67.44-8.7a1,1,0,0,1,1.12.86A5,5,0,0,0,100,37a1,1,0,0,1,1.12.86l3.07,23.8a1,1,0,0,1-.86,1.12A5,5,0,0,0,99,68.37a1,1,0,0,1-.86,1.12L30.71,78.2ZM24.74,71a7,7,0,0,1,6.64,5.12L97,67.63A7,7,0,0,1,102.09,61L99.26,39a7,7,0,0,1-6.64-5.12L27,42.38A7,7,0,0,1,21.91,49Z"/><ellipse class="cls-18" cx="62.26" cy="56.99" rx="12.8" ry="16" transform="translate(-6.78 8.44) rotate(-7.35)"/><path class="cls-4" d="M63,73.94c-7,0-13.29-6.49-14.41-15.19-1.2-9.3,4-17.65,11.51-18.63s14.66,5.8,15.86,15.09h0c1.2,9.3-4,17.65-11.51,18.63A11.32,11.32,0,0,1,63,73.94ZM61.54,42a9.4,9.4,0,0,0-1.2.08c-6.45.83-10.84,8.18-9.78,16.39s7.17,14.2,13.62,13.37S75,63.68,74,55.47h0C73,47.78,67.53,42,61.54,42Z"/><circle class="cls-18" cx="36.21" cy="58.33" r="3" transform="translate(-7.17 5.12) rotate(-7.35)"/><path class="cls-4" d="M36.21,62.33a4,4,0,1,1,4-4.51h0a4,4,0,0,1-4,4.51Zm0-6-.26,0a2,2,0,1,0,2.24,1.73h0a2,2,0,0,0-2-1.74Z"/><circle class="cls-4" cx="20.02" cy="42.27" r="1" transform="translate(-5.25 2.91) rotate(-7.35)"/><path class="cls-4" d="M20,44.27a2,2,0,0,1-.26-4A2,2,0,0,1,22,42h0a2,2,0,0,1-1.73,2.24Z"/><circle class="cls-4" cx="24.63" cy="77.98" r="1" transform="translate(-9.78 3.79) rotate(-7.35)"/><path class="cls-4" d="M24.63,80a2,2,0,1,1,2-2.26h0A2,2,0,0,1,24.89,80Z"/><circle class="cls-4" cx="99.37" cy="32.03" r="1" transform="matrix(0.99, -0.13, 0.13, 0.99, -3.28, 12.98)"/><path class="cls-4" d="M99.37,34a2,2,0,1,1,.26,0Zm0-2h0Zm0,0h0Zm0,0h0Zm0,0h0Zm0,0Zm0,0h0Zm0,0h0Zm0,0h0Zm0,0h0Zm0,0Z"/><circle class="cls-4" cx="103.98" cy="67.73" r="1" transform="translate(-7.81 13.87) rotate(-7.35)"/><path class="cls-4" d="M104,69.73a2,2,0,1,1,.26,0Zm0-2h0Zm0,0h0Zm0,0h0Zm0,0h0Zm0,0Zm0,0h0Zm0,0h0Zm0,0h0Zm0,0h0Zm0,0Z"/><path class="cls-20" d="M68.61,65,67.87,65a.87.87,0,0,1-.84-.79c0-.48-.11-1-.18-1.51-.16-1.21,1.11-2.85,1-4.55a6.88,6.88,0,0,0,.4-2.87,1.44,1.44,0,0,0-.48-1c0-.65.05-1.33.09-2,.14-2.83-1.08-4.69-3.62-5.24-.91-.2-4.63-.36-6.15-1.49-.55-.41.13,2.22-.29,2.47-2.24,1.38-3,3.16-2.12,5.83.21.67.4,1.32.6,1.94a1.44,1.44,0,0,0-.21,1.1,6.88,6.88,0,0,0,1.12,2.67c.3,1.68,1.93,2.86,2.09,4.16.07.53.13,1,.21,1.5a.87.87,0,0,1-.61,1l-.78.26A14.65,14.65,0,0,0,54,68.55a12.23,12.23,0,0,0,9,4.39,11.29,11.29,0,0,0,1.31-.08h0l.09,0a11.29,11.29,0,0,0,1.22-.24A12.24,12.24,0,0,0,73.24,66,13.88,13.88,0,0,0,68.61,65Z"/><path class="cls-4" d="M63,73.94a13.18,13.18,0,0,1-9.77-4.72,1,1,0,0,1,.14-1.47,15.76,15.76,0,0,1,4.4-2.29l.71-.24c-.08-.45-.14-.94-.2-1.44a4.07,4.07,0,0,0-.76-1.39,7.2,7.2,0,0,1-1.28-2.5A7.63,7.63,0,0,1,55.06,57a2.74,2.74,0,0,1,.12-1.33L55,55l-.27-.89c-.92-2.92-.2-5.14,2.22-6.77,0-.21,0-.49,0-.69-.07-.9-.13-1.67.57-2.06a1.12,1.12,0,0,1,1.22.11c1,.71,3.35,1,4.64,1.16.49.06.89.11,1.12.16,3,.64,4.57,2.93,4.4,6.27,0,.31,0,.62,0,.92s0,.46,0,.69a2.73,2.73,0,0,1,.45,1.25,7.65,7.65,0,0,1-.38,3.13,7.5,7.5,0,0,1-.61,2.81,4.25,4.25,0,0,0-.38,1.48c.07.5.13,1,.17,1.44l.66.06a15,15,0,0,1,4.94,1.05,1,1,0,0,1,.51,1.38,13.18,13.18,0,0,1-8.26,7.08,12.42,12.42,0,0,1-1.33.26l-.11,0h-.05A12.38,12.38,0,0,1,63,73.94ZM55.5,68.71A10.87,10.87,0,0,0,63,71.94a10.2,10.2,0,0,0,1.19-.08l.09,0a10.24,10.24,0,0,0,1.12-.22,10.88,10.88,0,0,0,6.42-5.05A13.66,13.66,0,0,0,68.56,66h0L67.78,66A1.87,1.87,0,0,1,66,64.27c0-.46-.1-1-.17-1.46a5.29,5.29,0,0,1,.48-2.42,5.52,5.52,0,0,0,.48-2.18,1,1,0,0,1,0-.4,5.94,5.94,0,0,0,.36-2.43.78.78,0,0,0-.1-.35,1,1,0,0,1-.38-.85c0-.35,0-.71,0-1.07s0-.63,0-.95C67,49.77,66,48.39,64,48c-.19,0-.53-.08-.94-.13A20.54,20.54,0,0,1,58.91,47c0,.78,0,1.43-.61,1.79-1.89,1.16-2.37,2.51-1.69,4.68l.28.91c.11.35.21.69.32,1a1,1,0,0,1-.16.91.72.72,0,0,0,0,.37A5.93,5.93,0,0,0,58,59a1,1,0,0,1,.15.37,5.23,5.23,0,0,0,1,1.92,5.33,5.33,0,0,1,1.11,2.29c.06.51.13,1,.21,1.46a1.88,1.88,0,0,1-1.3,2.1l-.76.26A14.43,14.43,0,0,0,55.5,68.71Zm3-3.51h0ZM67.92,64h0Z"/><path class="cls-18" d="M79.91,68.83l-7.94,1a14.93,14.93,0,0,0-8.18-1,14.93,14.93,0,0,0-7.67,3l-7.94,1,1,7.93,31.73-4.09Z"/><path class="cls-4" d="M49.21,81.85a1,1,0,0,1-1-.87l-1-7.93a1,1,0,0,1,.86-1.12l7.65-1a16.22,16.22,0,0,1,8-3,16.24,16.24,0,0,1,8.47.93l7.65-1a1,1,0,0,1,1.12.86l1,7.93a1,1,0,0,1-.86,1.12L49.34,81.84Zm.1-8.06.77,5.95,29.75-3.84L79,69.95l-7,.9a1,1,0,0,1-.57-.1,14.11,14.11,0,0,0-7.61-.87,14.09,14.09,0,0,0-7.14,2.77,1,1,0,0,1-.53.24Z"/><line class="cls-18" x1="43.05" x2="31.16" y1="64.5" y2="66.04"/><path class="cls-4" d="M31.16,67A1,1,0,0,1,31,65l11.89-1.53a1,1,0,0,1,.26,2L31.29,67Z"/><circle class="cls-18" cx="87.79" cy="51.67" r="3" transform="translate(-5.89 11.66) rotate(-7.35)"/><path class="cls-4" d="M87.78,55.67a4,4,0,1,1,4-4.51h0a4,4,0,0,1-3.46,4.48A4.07,4.07,0,0,1,87.78,55.67Zm0-6-.26,0a2,2,0,1,0,2.24,1.73h0A2,2,0,0,0,87.79,49.67Z"/><line class="cls-18" x1="94.63" x2="82.74" y1="57.85" y2="59.38"/><path class="cls-4" d="M82.74,60.38a1,1,0,0,1-.13-2L94.5,56.85a1,1,0,1,1,.26,2L82.87,60.37Z"/><line class="cls-18" x1="76.46" x2="52.66" y1="73.3" y2="76.37"/><path class="cls-4" d="M52.66,77.37a1,1,0,0,1-.13-2l23.79-3.07a1,1,0,0,1,.26,2L52.79,77.36Z"/><path class="cls-4" d="M19.45,85.69a1,1,0,0,1-1-.87l-6.14-47.6a1,1,0,0,1,.86-1.12l91.24-11.78a1,1,0,0,1,1.12.86l6.14,47.6a1,1,0,0,1-.86,1.12L19.58,85.68ZM14.43,38l5.89,45.62,89.26-11.52-5.89-45.62Z"/><rect class="cls-18" height="48" width="92" x="21" y="32"/><g class="cls-1"><rect class="cls-19" height="24" width="92" x="21" y="56"/></g><path class="cls-20" d="M107,68a6,6,0,0,0-6,6H33a6,6,0,0,0-6-6V44a6,6,0,0,0,6-6h68a6,6,0,0,0,6,6Z"/><ellipse class="cls-18" cx="67" cy="58" rx="12.8" ry="16"/><path class="cls-20" d="M72.27,66.81l-.73-.16a.87.87,0,0,1-.73-.89c0-.48,0-1,0-1.52,0-1.22,1.46-2.68,1.54-4.39a6.88,6.88,0,0,0,.77-2.79A1.44,1.44,0,0,0,72.79,56c.12-.64.22-1.31.35-2,.5-2.78-.47-4.79-2.92-5.66-.88-.31-4.54-.95-5.91-2.27-.49-.48-.16,2.21-.6,2.42-2.4,1.08-3.35,2.75-2.85,5.51.12.69.23,1.37.35,2a1.44,1.44,0,0,0-.35,1.07,6.88,6.88,0,0,0,.77,2.79c.08,1.71,1.54,3.09,1.54,4.39,0,.53,0,1,0,1.52a.87.87,0,0,1-.73.89l-.81.16a14.65,14.65,0,0,0-4.36,1.6,12.23,12.23,0,0,0,8.38,5.51A11.29,11.29,0,0,0,67,74h.12a11.29,11.29,0,0,0,1.24-.08,12.24,12.24,0,0,0,8.4-5.54A13.88,13.88,0,0,0,72.27,66.81Z"/><g class="cls-1"><rect class="cls-21" height="4" width="92" x="21" y="48"/></g><g class="cls-1"><path class="cls-19" d="M27,56V68a6,6,0,0,1,6,6h68a6,6,0,0,1,6-6V56Z"/></g><path class="cls-4" d="M67,75c-7.61,0-13.8-7.63-13.8-17S59.39,41,67,41s13.8,7.63,13.8,17S74.61,75,67,75Zm0-32c-6.51,0-11.8,6.73-11.8,15S60.49,73,67,73s11.8-6.73,11.8-15S73.51,43,67,43Z"/><path class="cls-4" d="M101,75H33a1,1,0,0,1-1-1,5,5,0,0,0-5-5,1,1,0,0,1-1-1V44a1,1,0,0,1,1-1,5,5,0,0,0,5-5,1,1,0,0,1,1-1h68a1,1,0,0,1,1,1,5,5,0,0,0,5,5,1,1,0,0,1,1,1V68a1,1,0,0,1-1,1,5,5,0,0,0-5,5A1,1,0,0,1,101,75ZM33.93,73h66.14A7,7,0,0,1,106,67.07V44.93A7,7,0,0,1,100.07,39H33.93A7,7,0,0,1,28,44.93V67.07A7,7,0,0,1,33.93,73Z"/><circle class="cls-18" cx="41" cy="56" r="3"/><path class="cls-4" d="M41,60a4,4,0,1,1,4-4A4,4,0,0,1,41,60Zm0-6a2,2,0,1,0,2,2A2,2,0,0,0,41,54Z"/><circle class="cls-4" cx="27" cy="38" r="1"/><path class="cls-4" d="M27,40a2,2,0,1,1,2-2A2,2,0,0,1,27,40Zm0-2h0Zm0,0h0Zm0,0h0Zm0,0h0Zm0,0h0Zm0,0h0Zm0,0h0Zm0,0h0Z"/><circle class="cls-4" cx="27" cy="74" r="1"/><path class="cls-4" d="M27,76a2,2,0,1,1,2-2A2,2,0,0,1,27,76Zm0-2h0Zm0,0h0Zm0,0h0Zm0,0h0Zm0,0h0Zm0,0h0Zm0,0h0Zm0,0h0Z"/><circle class="cls-4" cx="107.01" cy="38" r="1"/><path class="cls-4" d="M107,40a2,2,0,1,1,2-2A2,2,0,0,1,107,40Zm0-2h0Zm0,0h0Zm0,0h0Zm0,0h0Zm0,0h0Zm0,0h0Zm0,0h0Zm0,0h0Z"/><path class="cls-4" d="M67,75a12.6,12.6,0,0,1-1.45-.09A13.18,13.18,0,0,1,56.46,69a1,1,0,0,1,.33-1.44,15.78,15.78,0,0,1,4.65-1.71l.74-.15c0-.46,0-.95,0-1.45a4.06,4.06,0,0,0-.58-1.48,7.21,7.21,0,0,1-.95-2.65,7.65,7.65,0,0,1-.78-3.05,2.74,2.74,0,0,1,.29-1.3L60,55.08c0-.3-.1-.6-.16-.91-.54-3,.46-5.12,3.07-6.43,0-.21,0-.49,0-.69,0-.9.09-1.68.82-2a1.11,1.11,0,0,1,1.19.26c.85.83,3.2,1.42,4.46,1.74.48.12.87.22,1.09.3,2.86,1,4.16,3.49,3.57,6.78-.06.31-.11.61-.16.91l-.12.68a2.74,2.74,0,0,1,.29,1.3,7.64,7.64,0,0,1-.78,3.05,7.51,7.51,0,0,1-1,2.71,4.25,4.25,0,0,0-.56,1.42c0,.5,0,1,0,1.45l.65.14a15,15,0,0,1,4.76,1.68,1,1,0,0,1,.33,1.43,13.18,13.18,0,0,1-9.1,6A12.14,12.14,0,0,1,67.1,75Zm-8.2-6.24a10.88,10.88,0,0,0,7,4.16A10.28,10.28,0,0,0,67,73h.1a10.21,10.21,0,0,0,1.13-.07,10.87,10.87,0,0,0,7-4.19,13.65,13.65,0,0,0-3.13-.94h0l-.73-.16a1.87,1.87,0,0,1-1.51-1.91c0-.46,0-1,0-1.47a5.31,5.31,0,0,1,.78-2.34,5.52,5.52,0,0,0,.76-2.1,1,1,0,0,1,.1-.39,5.94,5.94,0,0,0,.67-2.36.74.74,0,0,0-.06-.36,1,1,0,0,1-.27-.89c.06-.34.12-.7.18-1.06s.1-.62.16-.94c.43-2.36-.32-3.85-2.27-4.54-.19-.07-.51-.15-.91-.25a20.62,20.62,0,0,1-4-1.33c-.06.78-.21,1.42-.84,1.7-2,.92-2.68,2.16-2.27,4.42.06.32.11.63.16.94s.12.71.18,1.06a1,1,0,0,1-.27.89.75.75,0,0,0-.06.36,5.94,5.94,0,0,0,.67,2.36,1,1,0,0,1,.1.39,5.23,5.23,0,0,0,.74,2,5.32,5.32,0,0,1,.81,2.41c0,.52,0,1,0,1.48a1.88,1.88,0,0,1-1.56,1.92l-.79.16A14.42,14.42,0,0,0,58.8,68.76Zm3.47-3.09h0Zm9.45,0h0ZM63.3,47.56h0Z"/><circle class="cls-4" cx="107.01" cy="74" r="1"/><path class="cls-4" d="M107,76a2,2,0,1,1,2-2A2,2,0,0,1,107,76Zm0-2h0Zm0,0h0Zm0,0h0Zm0,0h0Zm0,0h0Zm0,0h0Zm0,0h0Zm0,0h0Z"/><path class="cls-18" d="M83,72H75a14.93,14.93,0,0,0-8-2,14.93,14.93,0,0,0-8,2H51v8H83Z"/><path class="cls-4" d="M83,81H51a1,1,0,0,1-1-1V72a1,1,0,0,1,1-1h7.71A16.23,16.23,0,0,1,67,69a16.23,16.23,0,0,1,8.28,2H83a1,1,0,0,1,1,1v8A1,1,0,0,1,83,81ZM52,79H82V73H75a1,1,0,0,1-.55-.17A14.09,14.09,0,0,0,67,71a14.09,14.09,0,0,0-7.44,1.84A1,1,0,0,1,59,73H52Z"/><path class="cls-4" d="M47,64H35a1,1,0,0,1,0-2H47a1,1,0,0,1,0,2Z"/><circle class="cls-18" cx="93.01" cy="56" r="3"/><path class="cls-4" d="M93,60a4,4,0,1,1,4-4A4,4,0,0,1,93,60Zm0-6a2,2,0,1,0,2,2A2,2,0,0,0,93,54Z"/><path class="cls-4" d="M99,64H87a1,1,0,0,1,0-2H99a1,1,0,0,1,0,2Z"/><path class="cls-4" d="M79,77H55a1,1,0,0,1,0-2H79a1,1,0,0,1,0,2Z"/><path class="cls-4" d="M113,81H21a1,1,0,0,1-1-1V32a1,1,0,0,1,1-1h92a1,1,0,0,1,1,1V80A1,1,0,0,1,113,81ZM22,79h90V33H22Z"/><rect class="cls-12" height="53" rx="2" ry="2" width="106" x="11" y="52"/><g class="cls-1"><path class="cls-15" d="M115,52H13a2,2,0,0,0-2,2v4a2,2,0,0,1,2-2H115a2,2,0,0,1,2,2V54A2,2,0,0,0,115,52Z"/></g><g class="cls-1"><path class="cls-22" d="M13,105H115a2,2,0,0,0,2-2V99a2,2,0,0,1-2,2H13a2,2,0,0,1-2-2v4A2,2,0,0,0,13,105Z"/></g><path class="cls-4" d="M115,106H13a3,3,0,0,1-3-3V54a3,3,0,0,1,3-3H115a3,3,0,0,1,3,3v49A3,3,0,0,1,115,106ZM13,53a1,1,0,0,0-1,1v49a1,1,0,0,0,1,1H115a1,1,0,0,0,1-1V54a1,1,0,0,0-1-1Z"/><rect class="cls-2" height="18" rx="2" ry="2" transform="translate(-13.74 27.83) rotate(-16.27)" width="37" x="72" y="53"/><path class="cls-4" d="M76.62,76.34a3,3,0,0,1-2.88-2.16L69.82,60.74a3,3,0,0,1,2-3.72l31.68-9.24a3,3,0,0,1,3.72,2l3.92,13.44a3,3,0,0,1-2,3.72h0L77.46,76.22A3,3,0,0,1,76.62,76.34Zm27.76-26.68a1,1,0,0,0-.28,0L72.42,58.94a1,1,0,0,0-.68,1.24l3.92,13.44a1,1,0,0,0,1.24.68l31.68-9.24a1,1,0,0,0,.68-1.24l-3.92-13.44A1,1,0,0,0,104.38,49.66ZM108.86,66h0Z"/><rect class="cls-6" height="6" transform="translate(-13.23 27.6) rotate(-16.27)" width="37" x="71.44" y="57.08"/><path class="cls-4" d="M73,69.14a1,1,0,0,1-1-.72l-1.68-5.76a1,1,0,0,1,.68-1.24l35.52-10.36a1,1,0,0,1,1.24.68l1.68,5.76a1,1,0,0,1-.68,1.24L73.3,69.1A1,1,0,0,1,73,69.14Zm-.44-6.08L73.7,66.9l33.6-9.8-1.12-3.84Z"/><g class="cls-1"><path class="cls-4" d="M73.14,66a1,1,0,0,1-.71-.29,1,1,0,0,1-.29-.71,1,1,0,0,1,.08-.38,1.16,1.16,0,0,1,.21-.33,1,1,0,0,1,.33-.21,1,1,0,0,1,1.38.92,1.05,1.05,0,0,1-.29.71A1,1,0,0,1,73.14,66Z"/><path class="cls-4" d="M74.5,63.5a1,1,0,0,1-.38-.07,1.27,1.27,0,0,1-.33-.22.94.94,0,0,1-.21-.33,1,1,0,0,1-.08-.38,1.05,1.05,0,0,1,.29-.71,1,1,0,0,1,.33-.21,1,1,0,0,1,.76,0,1,1,0,0,1,.33.21,1.05,1.05,0,0,1,.29.71.84.84,0,0,1-.08.38.94.94,0,0,1-.21.33A1,1,0,0,1,74.5,63.5Z"/><path class="cls-4" d="M77,64.86a1,1,0,0,1-.71-1.71.93.93,0,0,1,.33-.21,1,1,0,0,1,1.09.21,1.05,1.05,0,0,1,.29.71,1,1,0,0,1-.29.71A1.05,1.05,0,0,1,77,64.86Z"/><path class="cls-4" d="M78.34,62.38l-.19,0A.61.61,0,0,1,78,62.3a.76.76,0,0,1-.18-.09l-.15-.12a1,1,0,0,1-.29-.71,1.19,1.19,0,0,1,0-.19.59.59,0,0,1,.06-.19.56.56,0,0,1,.09-.17,1,1,0,0,1,.12-.16l.15-.12a.76.76,0,0,1,.18-.09.59.59,0,0,1,.19-.06,1,1,0,0,1,.9.27l.12.16a.56.56,0,0,1,.09.17.59.59,0,0,1,.06.19,1.25,1.25,0,0,1,0,.19,1,1,0,0,1-.29.71A1.05,1.05,0,0,1,78.34,62.38Z"/><path class="cls-4" d="M80.82,63.74a1,1,0,0,1-1-1,1.19,1.19,0,0,1,0-.19.59.59,0,0,1,.06-.19.55.55,0,0,1,.09-.17l.12-.16a1,1,0,0,1,1.42,0,1,1,0,0,1,.12.16.55.55,0,0,1,.09.17.59.59,0,0,1,.06.19,1.19,1.19,0,0,1,0,.19,1,1,0,0,1-1,1Z"/><path class="cls-4" d="M82.18,61.26a1,1,0,1,1,.71-.29A1.05,1.05,0,0,1,82.18,61.26Z"/><path class="cls-4" d="M84.66,62.62a1,1,0,1,1,.71-.29A1.05,1.05,0,0,1,84.66,62.62Z"/><path class="cls-4" d="M86,60.14a1,1,0,1,1,.71-.29A1.05,1.05,0,0,1,86,60.14Z"/><path class="cls-4" d="M88.5,61.5a1,1,0,1,1,.71-.29A1.05,1.05,0,0,1,88.5,61.5Z"/><path class="cls-4" d="M89.86,59a1,1,0,1,1,.71-.29A1.05,1.05,0,0,1,89.86,59Z"/><path class="cls-4" d="M92.34,60.38a1,1,0,0,1-1-1,1,1,0,0,1,.08-.38,1,1,0,0,1,.21-.33,1,1,0,0,1,1.42,0,1,1,0,0,1,.21.33,1,1,0,0,1,.08.38,1,1,0,0,1-1,1Z"/><path class="cls-4" d="M93.7,57.9a1.05,1.05,0,0,1-.71-.29,1.15,1.15,0,0,1-.21-.33,1,1,0,0,1-.08-.38,1.05,1.05,0,0,1,.29-.71A1,1,0,0,1,94.08,56a1.14,1.14,0,0,1,.33.21,1.05,1.05,0,0,1,.29.71,1,1,0,0,1-.08.38.9.9,0,0,1-.54.54A1,1,0,0,1,93.7,57.9Z"/><path class="cls-4" d="M96.18,59.26a1,1,0,0,1-.71-1.71,1,1,0,0,1,1.09-.21,1.15,1.15,0,0,1,.33.21,1,1,0,0,1,0,1.42,1.14,1.14,0,0,1-.33.21A1,1,0,0,1,96.18,59.26Z"/><path class="cls-4" d="M97.54,56.78a1,1,0,1,1,.71-.29A1.05,1.05,0,0,1,97.54,56.78Z"/><path class="cls-4" d="M100,58.14a1,1,0,0,1-.71-.29,1,1,0,0,1,0-1.42,1,1,0,0,1,1.09-.21,1.16,1.16,0,0,1,.33.21l.12.15a.76.76,0,0,1,.09.18.65.65,0,0,1,.06.18,1.38,1.38,0,0,1,0,.2,1.05,1.05,0,0,1-.29.71,1.16,1.16,0,0,1-.33.21A1,1,0,0,1,100,58.14Z"/><path class="cls-4" d="M101.38,55.66a1,1,0,0,1-.38-.08,1,1,0,0,1-.33-.21,1.14,1.14,0,0,1-.21-.33,1,1,0,0,1-.08-.38,1,1,0,0,1,.62-.92.92.92,0,0,1,.76,0,1.16,1.16,0,0,1,.33.21l.12.15a.76.76,0,0,1,.09.18.65.65,0,0,1,.06.18,1.38,1.38,0,0,1,0,.2,1,1,0,0,1-.08.38.9.9,0,0,1-.54.54A1,1,0,0,1,101.38,55.66Z"/><path class="cls-4" d="M103.86,57a1,1,0,0,1-.38-.08,1,1,0,0,1-.33-.21,1,1,0,0,1,0-1.42,1,1,0,0,1,.33-.21,1,1,0,0,1,.76,0,1.16,1.16,0,0,1,.33.21,1.05,1.05,0,0,1,.29.71,1.26,1.26,0,0,1,0,.19.6.6,0,0,1-.06.19.55.55,0,0,1-.09.17l-.12.16a1.16,1.16,0,0,1-.33.21A1,1,0,0,1,103.86,57Z"/><path class="cls-4" d="M105.22,54.54l-.2,0-.18-.06a1.48,1.48,0,0,1-.18-.09l-.15-.13a1,1,0,0,1-.29-.7,1,1,0,0,1,.29-.71,1,1,0,0,1,1.09-.22,1.47,1.47,0,0,1,.33.22,1,1,0,0,1,.29.71,1,1,0,0,1-1,1Z"/><path class="cls-4" d="M75.62,67.34a1.05,1.05,0,0,1-.71-.29,1,1,0,0,1-.29-.71A1,1,0,0,1,74.7,66a1.16,1.16,0,0,1,.21-.33,1,1,0,0,1,.33-.21,1,1,0,0,1,1.09.21,1.16,1.16,0,0,1,.21.33.84.84,0,0,1,.08.38,1,1,0,0,1-1,1Z"/><path class="cls-4" d="M79.46,66.22a1,1,0,0,1-.38-.07,1.45,1.45,0,0,1-.33-.22,1,1,0,0,1,0-1.42,1.15,1.15,0,0,1,.33-.21,1,1,0,0,1,.76,0,.94.94,0,0,1,.33.21,1,1,0,0,1,0,1.42,1.12,1.12,0,0,1-.33.22A1,1,0,0,1,79.46,66.22Z"/><path class="cls-4" d="M83.3,65.1a1,1,0,1,1,.71-.29A1.05,1.05,0,0,1,83.3,65.1Z"/><path class="cls-4" d="M87.14,64a1,1,0,1,1,.71-.29A1.05,1.05,0,0,1,87.14,64Z"/><path class="cls-4" d="M91,62.86a1,1,0,1,1,.71-.29A1.05,1.05,0,0,1,91,62.86Z"/><path class="cls-4" d="M94.82,61.74a1.05,1.05,0,0,1-.71-.29,1.15,1.15,0,0,1-.21-.33,1,1,0,0,1-.08-.38,1.05,1.05,0,0,1,.29-.71,1,1,0,0,1,1.09-.21,1.15,1.15,0,0,1,.33.21,1.05,1.05,0,0,1,.29.71,1,1,0,0,1-.08.38.9.9,0,0,1-.54.54A1,1,0,0,1,94.82,61.74Z"/><path class="cls-4" d="M98.66,60.62a1,1,0,0,1-.71-1.71A1,1,0,0,1,99,58.7a1.16,1.16,0,0,1,.33.21,1.05,1.05,0,0,1,.29.71,1.2,1.2,0,0,1,0,.19.59.59,0,0,1-.06.19.55.55,0,0,1-.09.17l-.12.16a1.15,1.15,0,0,1-.33.21A1,1,0,0,1,98.66,60.62Z"/><path class="cls-4" d="M102.5,59.5a1,1,0,0,1-1-1,1,1,0,0,1,.29-.71,1,1,0,0,1,1.42,0l.12.15a.77.77,0,0,1,.09.18.65.65,0,0,1,.06.18,1.38,1.38,0,0,1,0,.2,1.25,1.25,0,0,1,0,.19.62.62,0,0,1-.06.19.55.55,0,0,1-.09.17l-.12.16A1.05,1.05,0,0,1,102.5,59.5Z"/><path class="cls-4" d="M106.34,58.38a1,1,0,0,1-.38-.08,1,1,0,0,1-.33-.21,1.05,1.05,0,0,1-.29-.71,1,1,0,0,1,.29-.71,1,1,0,0,1,.33-.21.91.91,0,0,1,.76,0,1.14,1.14,0,0,1,.33.21,1,1,0,0,1,.29.71,1.05,1.05,0,0,1-.29.71,1.15,1.15,0,0,1-.33.21A1,1,0,0,1,106.34,58.38Z"/></g><rect class="cls-12" height="13" width="45" x="68" y="64"/><g class="cls-1"><rect class="cls-15" height="3" width="45" x="68" y="64"/></g><g class="cls-1"><rect class="cls-22" height="3" width="45" x="68" y="74"/></g><path class="cls-4" d="M113,78H68a1,1,0,0,1-1-1V64a1,1,0,0,1,1-1h45a1,1,0,0,1,1,1V77A1,1,0,0,1,113,78ZM69,76h43V65H69Z"/><rect class="cls-20" height="18" rx="2" ry="2" width="37" x="72" y="68"/><path class="cls-4" d="M107,87H74a3,3,0,0,1-3-3V70a3,3,0,0,1,3-3h33a3,3,0,0,1,3,3V84A3,3,0,0,1,107,87ZM74,69a1,1,0,0,0-1,1V84a1,1,0,0,0,1,1h33a1,1,0,0,0,1-1V70a1,1,0,0,0-1-1Z"/><rect class="cls-6" height="6" width="37" x="72" y="72"/><path class="cls-4" d="M109,79H72a1,1,0,0,1-1-1V72a1,1,0,0,1,1-1h37a1,1,0,0,1,1,1v6A1,1,0,0,1,109,79ZM73,77h35V73H73Z"/><g class="cls-1"><path class="cls-4" d="M73,76a1.05,1.05,0,0,1-.71-.29.94.94,0,0,1-.21-.33A1,1,0,0,1,72,75a1,1,0,0,1,.29-.71A1,1,0,0,1,73.2,74a.63.63,0,0,1,.18.06.76.76,0,0,1,.18.09l.15.12A1.05,1.05,0,0,1,74,75a1,1,0,0,1-.08.38.94.94,0,0,1-.21.33l-.15.12a.76.76,0,0,1-.18.09L73.2,76Z"/><path class="cls-4" d="M75,74a1,1,0,0,1-.71-1.71.93.93,0,0,1,.33-.21,1,1,0,0,1,1.09.21l.12.15a.77.77,0,0,1,.09.18.65.65,0,0,1,.06.18,1.54,1.54,0,0,1,0,.2,1,1,0,0,1-1,1Z"/><path class="cls-4" d="M77,76a1,1,0,0,1-.38-.08,1,1,0,0,1-.33-.21,1,1,0,1,1,1.09.21A1,1,0,0,1,77,76Z"/><path class="cls-4" d="M79,74a1,1,0,0,1-.38-.08.94.94,0,0,1-.33-.21,1.16,1.16,0,0,1-.21-.33A1,1,0,0,1,78,73a1.05,1.05,0,0,1,.29-.71A1,1,0,0,1,79.2,72a.63.63,0,0,1,.18.06.76.76,0,0,1,.18.09l.15.12a1,1,0,0,1,0,1.42l-.15.12a.76.76,0,0,1-.18.09L79.2,74Z"/><path class="cls-4" d="M81,76a1,1,0,1,1,.71-.29A1.05,1.05,0,0,1,81,76Z"/><path class="cls-4" d="M83,74a1,1,0,1,1,.71-.29A1.05,1.05,0,0,1,83,74Z"/><path class="cls-4" d="M85,76a1,1,0,1,1,.71-.29A1.05,1.05,0,0,1,85,76Z"/><path class="cls-4" d="M87,74a1,1,0,1,1,.71-.29A1.05,1.05,0,0,1,87,74Z"/><path class="cls-4" d="M89,76a1,1,0,1,1,.71-.29A1.05,1.05,0,0,1,89,76Z"/><path class="cls-4" d="M91,74a1,1,0,1,1,1-1,1.38,1.38,0,0,1,0,.2.65.65,0,0,1-.06.18.55.55,0,0,1-.09.17l-.12.16-.16.12a.55.55,0,0,1-.17.09L91.2,74Z"/><path class="cls-4" d="M93,76a1.05,1.05,0,0,1-.71-.29,1.16,1.16,0,0,1-.21-.33A1,1,0,0,1,92,75a1,1,0,1,1,2,0,.84.84,0,0,1-.08.38,1.16,1.16,0,0,1-.21.33l-.16.12a.55.55,0,0,1-.17.09L93.2,76Z"/><path class="cls-4" d="M95,74a1,1,0,1,1,.71-.29A1.05,1.05,0,0,1,95,74Z"/><path class="cls-4" d="M97,76a1,1,0,1,1,.71-.29A1.05,1.05,0,0,1,97,76Z"/><path class="cls-4" d="M99,74a1,1,0,0,1-1-1,1,1,0,0,1,.08-.38,1.15,1.15,0,0,1,.21-.33,1,1,0,0,1,1.09-.21.9.9,0,0,1,.54.54A1,1,0,0,1,100,73a1.05,1.05,0,0,1-.29.71,1.16,1.16,0,0,1-.33.21A1,1,0,0,1,99,74Z"/><path class="cls-4" d="M101,76a1,1,0,0,1-.38-.08,1.16,1.16,0,0,1-.33-.21,1,1,0,0,1,0-1.42,1.15,1.15,0,0,1,.33-.21,1,1,0,0,1,.58-.06.63.63,0,0,1,.18.06.76.76,0,0,1,.18.09,1.6,1.6,0,0,1,.15.12A1.05,1.05,0,0,1,102,75a1.38,1.38,0,0,1,0,.2.65.65,0,0,1-.06.18.76.76,0,0,1-.09.18l-.12.15-.15.12a.76.76,0,0,1-.18.09l-.18.06Z"/><path class="cls-4" d="M103,74a1,1,0,0,1-.38-.08,1.16,1.16,0,0,1-.33-.21,1,1,0,0,1,0-1.42,1.15,1.15,0,0,1,.33-.21.92.92,0,0,1,.76,0,1.16,1.16,0,0,1,.33.21,1,1,0,0,1,0,1.42,1.16,1.16,0,0,1-.33.21A1,1,0,0,1,103,74Z"/><path class="cls-4" d="M105,76a1,1,0,0,1-.71-1.71,1,1,0,0,1,.91-.27.63.63,0,0,1,.18.06.76.76,0,0,1,.18.09,1.6,1.6,0,0,1,.15.12,1.47,1.47,0,0,1,.12.15.77.77,0,0,1,.09.18.65.65,0,0,1,.06.18,1.38,1.38,0,0,1,0,.2,1.54,1.54,0,0,1,0,.2.65.65,0,0,1-.06.18.76.76,0,0,1-.09.18,1.59,1.59,0,0,1-.12.15A1.05,1.05,0,0,1,105,76Z"/><path class="cls-4" d="M107,74a1.05,1.05,0,0,1-.71-.29l-.12-.15a.76.76,0,0,1-.09-.18.63.63,0,0,1-.06-.18,1.32,1.32,0,0,1,0-.2,1,1,0,0,1,1.71-.71,1.47,1.47,0,0,1,.12.15.77.77,0,0,1,.09.18.65.65,0,0,1,.06.18,1.54,1.54,0,0,1,0,.2,1.38,1.38,0,0,1,0,.2.65.65,0,0,1-.06.18.76.76,0,0,1-.09.18,1.59,1.59,0,0,1-.12.15A1.05,1.05,0,0,1,107,74Z"/><path class="cls-4" d="M75,78a1,1,0,0,1-.38-.08.94.94,0,0,1-.33-.21,1,1,0,0,1,0-1.42.93.93,0,0,1,.33-.21,1,1,0,0,1,1.09.21A1.05,1.05,0,0,1,76,77a1.54,1.54,0,0,1,0,.2.65.65,0,0,1-.06.18.76.76,0,0,1-.09.18l-.12.15A1.05,1.05,0,0,1,75,78Z"/><path class="cls-4" d="M79,78a1,1,0,0,1-1-1,1,1,0,0,1,.08-.38,1.15,1.15,0,0,1,.21-.33.93.93,0,0,1,.33-.21A1,1,0,0,1,79.2,76a.63.63,0,0,1,.18.06.76.76,0,0,1,.18.09l.15.12a1,1,0,0,1,0,1.42l-.15.12a.76.76,0,0,1-.18.09L79.2,78Z"/><path class="cls-4" d="M83,78a1,1,0,1,1,.71-.29A1.05,1.05,0,0,1,83,78Z"/><path class="cls-4" d="M87,78a1.05,1.05,0,0,1-.71-.29,1.16,1.16,0,0,1-.21-.33A1,1,0,0,1,86,77a1,1,0,1,1,2,0,1,1,0,0,1-.08.38,1.16,1.16,0,0,1-.21.33A1.05,1.05,0,0,1,87,78Z"/><path class="cls-4" d="M91,78a1,1,0,0,1-1-1,1,1,0,0,1,.08-.38,1.15,1.15,0,0,1,.21-.33A1,1,0,0,1,91.2,76a.63.63,0,0,1,.18.06.55.55,0,0,1,.17.09l.16.12A1,1,0,0,1,91,78Z"/><path class="cls-4" d="M95,78a1,1,0,1,1,.71-.29A1.05,1.05,0,0,1,95,78Z"/><path class="cls-4" d="M99,78a1,1,0,0,1-1-1,1,1,0,0,1,.08-.38,1.15,1.15,0,0,1,.21-.33,1,1,0,0,1,1.09-.21.9.9,0,0,1,.54.54A1,1,0,0,1,100,77a1.05,1.05,0,0,1-.29.71,1.16,1.16,0,0,1-.33.21A.84.84,0,0,1,99,78Z"/><path class="cls-4" d="M103,78a1,1,0,0,1-.38-.08,1.16,1.16,0,0,1-.33-.21,1,1,0,0,1,0-1.42,1.15,1.15,0,0,1,.33-.21.92.92,0,0,1,.76,0,1.16,1.16,0,0,1,.33.21,1,1,0,0,1,0,1.42,1.16,1.16,0,0,1-.33.21A1,1,0,0,1,103,78Z"/><path class="cls-4" d="M107,78a1.05,1.05,0,0,1-.71-.29l-.12-.15a.76.76,0,0,1-.09-.18.63.63,0,0,1-.06-.18,1.32,1.32,0,0,1,0-.2,1,1,0,0,1,1.71-.71,1.47,1.47,0,0,1,.12.15.77.77,0,0,1,.09.18.65.65,0,0,1,.06.18,1.54,1.54,0,0,1,0,.2,1.38,1.38,0,0,1,0,.2.65.65,0,0,1-.06.18.76.76,0,0,1-.09.18,1.59,1.59,0,0,1-.12.15A1.05,1.05,0,0,1,107,78Z"/></g><rect class="cls-13" height="33" width="45" x="15" y="68"/><g class="cls-1"><rect class="cls-21" height="3" width="45" x="15" y="68"/></g><path class="cls-4" d="M60,102H15a1,1,0,0,1-1-1V68a1,1,0,0,1,1-1H60a1,1,0,0,1,1,1v33A1,1,0,0,1,60,102Zm-44-2H59V69H16Z"/><rect class="cls-23" height="21" width="18" x="19" y="72"/><path class="cls-24" d="M28.53,89.78H27.47a2.31,2.31,0,0,1-1.63-.68l-1.41-1.41a2.31,2.31,0,0,1-.68-1.63V81.9a2.52,2.52,0,0,1,2.52-2.52h3.45a2.52,2.52,0,0,1,2.52,2.52v4.16a2.31,2.31,0,0,1-.68,1.63L30.16,89.1A2.31,2.31,0,0,1,28.53,89.78Z"/><g class="cls-1"><path class="cls-25" d="M30.16,88.25a2.31,2.31,0,0,1-1.63.68H27.47a2.31,2.31,0,0,1-1.63-.68l-1.41-1.41a2.31,2.31,0,0,1-.68-1.63v.85a2.31,2.31,0,0,0,.68,1.63l1.41,1.41a2.31,2.31,0,0,0,1.63.68h1.06a2.31,2.31,0,0,0,1.63-.68l1.41-1.41a2.31,2.31,0,0,0,.68-1.63v-.85a2.31,2.31,0,0,1-.68,1.63Z"/></g><g class="cls-1"><path class="cls-25" d="M29.72,79.38H26.28a2.52,2.52,0,0,0-2.52,2.52v.66c0-1.27,2.12-2.33,3.82-2.33a1.91,1.91,0,0,0-.64,2.13c2.06-1.52,2.9-.13,4.59-.5.71-.15.71,1.33.71,1.33V81.9A2.52,2.52,0,0,0,29.72,79.38Z"/></g><path class="cls-26" d="M30.24,77.4a4.1,4.1,0,0,1,2.5,5c-.11.38-.42,0-.5.21,0,0,0-1.48-.71-1.33-1.7.36-2.53-1-4.59.5a1.91,1.91,0,0,1,.64-2.13c-1.7,0-3.82,1.06-3.82,2.33,0,0-.59-.43-.64-.85-.21-1.91.81-2.85,2.48-3.58.32-.14.08-2,.43-1.68C27,76.74,29.48,77,30.24,77.4Z"/><g class="cls-1"><path class="cls-25" d="M27.58,79c-1.7,0-3.82,1.06-3.82,2.33,0,0-.59-.43-.64-.85,0-.05,0-.1,0-.15a4,4,0,0,0,0,.79c0,.42.64.85.64.85,0-1.14,1.71-2.11,3.28-2.3A2,2,0,0,1,27.58,79Z"/><path class="cls-25" d="M32.74,81.71c-.11.38-.42,0-.5.21,0,0,0-1.48-.71-1.33-1.7.36-2.53-1-4.59.5a.85.85,0,0,1-.09-.25,1.32,1.32,0,0,0,.09.89c2.06-1.52,2.9-.13,4.59-.5.71-.15.71,1.33.71,1.33.08-.16.38.16.5-.21a4,4,0,0,0,.17-1.53A4.29,4.29,0,0,1,32.74,81.71Z"/></g><path class="cls-24" d="M32.24,82.56h0a.85.85,0,0,1,.85.85v.42a.85.85,0,0,1-.85.85h0a0,0,0,0,1,0,0V82.56A0,0,0,0,1,32.24,82.56Z"/><path class="cls-24" d="M22.91,82.56h0a.85.85,0,0,1,.85.85v.42a.85.85,0,0,1-.85.85h0a0,0,0,0,1,0,0V82.56a0,0,0,0,1,0,0Z" transform="translate(46.67 167.25) rotate(-180)"/><path class="cls-4" d="M32.24,83.56l-.22,0a1,1,0,0,1-.78-1,2.28,2.28,0,0,0,0-.28,5.33,5.33,0,0,1-1.57-.16,2.07,2.07,0,0,0-2.11.41,1,1,0,0,1-1.45-.29A2.13,2.13,0,0,1,25.82,81c-.63.3-1.06.69-1.06.92a1,1,0,0,1-1.59.81,2.49,2.49,0,0,1-1-1.55,4.13,4.13,0,0,1,2.65-4.41c0-.1,0-.21,0-.29,0-.64.07-1.36.76-1.63a1.08,1.08,0,0,1,1.15.24,7.44,7.44,0,0,0,2.6,1,8.46,8.46,0,0,1,1.34.41,5.09,5.09,0,0,1,3,6.15,1.19,1.19,0,0,1-1.23.9ZM28.83,80a5.64,5.64,0,0,1,1.24.17,2.77,2.77,0,0,0,1.25.09,1.42,1.42,0,0,1,.43,0,3.86,3.86,0,0,0-1.94-1.92h0a9,9,0,0,0-1-.29,16.14,16.14,0,0,1-2.1-.64,1.28,1.28,0,0,1-.72,1,3.83,3.83,0,0,0-1.56,1.06,6.45,6.45,0,0,1,3.14-.88A1,1,0,0,1,28.48,80Z"/><path class="cls-4" d="M32.24,85.68a1,1,0,0,1-1-1V82.56a1,1,0,0,1,1-1,1.85,1.85,0,0,1,1.85,1.85v.42A1.85,1.85,0,0,1,32.24,85.68Z"/><path class="cls-4" d="M23.76,85.68a1.85,1.85,0,0,1-1.85-1.85v-.42a1.85,1.85,0,0,1,1.85-1.85,1,1,0,0,1,1,1v2.12A1,1,0,0,1,23.76,85.68Z"/><path class="cls-5" d="M25.67,77.47a3,3,0,0,1-.42,1.27"/><path class="cls-4" d="M25.24,79.75a1,1,0,0,1-.89-1.45,2.59,2.59,0,0,0,.32-.83,1,1,0,0,1,2,0,3.83,3.83,0,0,1-.53,1.72A1,1,0,0,1,25.24,79.75Z"/><path class="cls-4" d="M28.53,90.78H27.47a3.29,3.29,0,0,1-2.34-1L23.73,88.4a3.29,3.29,0,0,1-1-2.34V81.9a1,1,0,0,1,2,0v4.16a1.3,1.3,0,0,0,.38.92l1.41,1.41a1.3,1.3,0,0,0,.92.38h1.06a1.3,1.3,0,0,0,.92-.38L30.86,87a1.3,1.3,0,0,0,.38-.92v-3.5a1,1,0,0,1,2,0v3.5a3.29,3.29,0,0,1-1,2.34l-1.41,1.41A3.29,3.29,0,0,1,28.53,90.78Z"/><path class="cls-4" d="M26.5,85a1,1,0,0,1-.38-.08,1.16,1.16,0,0,1-.33-.21.94.94,0,0,1-.21-.33.95.95,0,0,1,0-.76.93.93,0,0,1,.21-.33,1.15,1.15,0,0,1,.33-.21,1,1,0,0,1,1.09.21.94.94,0,0,1,.21.33.94.94,0,0,1,0,.76.94.94,0,0,1-.21.33A1.05,1.05,0,0,1,26.5,85Z"/><path class="cls-4" d="M29.5,85a1.05,1.05,0,0,1-.71-.29,1,1,0,0,1-.21-.33A1,1,0,0,1,28.5,84a1,1,0,1,1,2,0,1,1,0,0,1-.08.38,1,1,0,0,1-.21.33l-.15.12a.76.76,0,0,1-.18.09L29.7,85Z"/><g class="cls-1"><rect class="cls-27" height="3" width="18" x="19" y="72"/></g><g class="cls-1"><polygon class="cls-5" points="37 77.48 19 85.95 19 88.95 37 80.48 37 77.48"/></g><g class="cls-1"><polygon class="cls-5" points="37 72 19 72 19 83.53 37 75.17 37 72"/></g><path class="cls-4" d="M37,94H19a1,1,0,0,1-1-1V72a1,1,0,0,1,1-1H37a1,1,0,0,1,1,1V93A1,1,0,0,1,37,94ZM20,92H36V73H20Z"/><g class="cls-8"><path class="cls-4" d="M48,75H41a1,1,0,0,1,0-2h7a1,1,0,0,1,0,2Z"/><path class="cls-4" d="M56,79H41a1,1,0,0,1,0-2H56a1,1,0,0,1,0,2Z"/><path class="cls-4" d="M56,86H41a1,1,0,0,1,0-2H56a1,1,0,0,1,0,2Z"/><path class="cls-4" d="M21,98H19a1,1,0,0,1,0-2h2a1,1,0,0,1,0,2Z"/><path class="cls-4" d="M26,98H24a1,1,0,0,1,0-2h2a1,1,0,0,1,0,2Z"/><path class="cls-4" d="M31,98H29a1,1,0,0,1,0-2h2a1,1,0,0,1,0,2Z"/><path class="cls-4" d="M36,98H34a1,1,0,0,1,0-2h2a1,1,0,0,1,0,2Z"/><path class="cls-4" d="M41,98H39a1,1,0,0,1,0-2h2a1,1,0,0,1,0,2Z"/><path class="cls-4" d="M46,98H44a1,1,0,0,1,0-2h2a1,1,0,0,1,0,2Z"/><path class="cls-4" d="M51,98H49a1,1,0,0,1,0-2h2a1,1,0,0,1,0,2Z"/><path class="cls-4" d="M56,98H54a1,1,0,0,1,0-2h2a1,1,0,0,1,0,2Z"/><path class="cls-4" d="M44,90H41a1,1,0,0,1,0-2h3a1,1,0,0,1,0,2Z"/><path class="cls-4" d="M56,90H47a1,1,0,0,1,0-2h9a1,1,0,0,1,0,2Z"/></g><rect class="cls-12" height="13" width="45" x="68" y="76"/><g class="cls-1"><rect class="cls-15" height="3" width="45" x="68" y="76"/></g><g class="cls-1"><rect class="cls-22" height="3" width="45" x="68" y="86"/></g><path class="cls-4" d="M113,90H68a1,1,0,0,1-1-1V76a1,1,0,0,1,1-1h45a1,1,0,0,1,1,1V89A1,1,0,0,1,113,90ZM69,88h43V77H69Z"/><rect class="cls-3" height="18" rx="2" ry="2" width="37" x="72" y="80"/><path class="cls-4" d="M107,99H74a3,3,0,0,1-3-3V82a3,3,0,0,1,3-3h33a3,3,0,0,1,3,3V96A3,3,0,0,1,107,99ZM74,81a1,1,0,0,0-1,1V96a1,1,0,0,0,1,1h33a1,1,0,0,0,1-1V82a1,1,0,0,0-1-1Z"/><rect class="cls-28" height="5" width="6" x="76" y="84"/><path class="cls-4" d="M82,90H76a1,1,0,0,1-1-1V84a1,1,0,0,1,1-1h6a1,1,0,0,1,1,1v5A1,1,0,0,1,82,90Zm-5-2h4V85H77Z"/><circle class="cls-28" cx="102.25" cy="87" r="3"/><circle class="cls-5" cx="97.75" cy="87" r="3"/><path class="cls-4" d="M102.25,91a4,4,0,0,1-2.25-.71,4,4,0,0,1-2.25.71,4,4,0,0,1,0-8,4,4,0,0,1,2.25.71,4,4,0,0,1,2.25-.71,4,4,0,0,1,0,8ZM100,88a1,1,0,0,1,.75.34,2,2,0,0,0,1.5.69,2,2,0,0,0,0-4,2,2,0,0,0-1.5.69,1,1,0,0,1-1.51,0,2,2,0,0,0-1.5-.69,2,2,0,0,0,0,4,2,2,0,0,0,1.5-.69A1,1,0,0,1,100,88Z"/><g class="cls-1"><path class="cls-22" d="M14,60v2a1,1,0,0,0,1,1H60a1,1,0,0,0,1-1V60Z"/></g><path class="cls-4" d="M60,61H15a1,1,0,0,1,0-2H60a1,1,0,0,1,0,2Z"/><path class="cls-4" d="M58,63a1,1,0,0,1-1-1V60a1,1,0,0,1,2,0v2A1,1,0,0,1,58,63Z"/><rect class="cls-12" height="13" width="45" x="68" y="88"/><g class="cls-1"><rect class="cls-15" height="3" width="45" x="68" y="88"/></g><g class="cls-1"><rect class="cls-22" height="3" width="45" x="68" y="98"/></g><path class="cls-4" d="M113,102H68a1,1,0,0,1-1-1V88a1,1,0,0,1,1-1h45a1,1,0,0,1,1,1v13A1,1,0,0,1,113,102Zm-44-2h43V89H69Z"/><g class="cls-8"><path class="cls-4" d="M64,106a1,1,0,0,1-1-1V52a1,1,0,0,1,2,0v53A1,1,0,0,1,64,106Z"/></g><path class="cls-29" d="M120,95h-3V82h3a1,1,0,0,1,1,1V94A1,1,0,0,1,120,95Z"/><g class="cls-1"><path class="cls-15" d="M117,82v3h4V83a1,1,0,0,0-1-1Z"/></g><g class="cls-1"><path class="cls-30" d="M117,95h3a1,1,0,0,0,1-1V92h-4Z"/></g><path class="cls-4" d="M120,96h-3a1,1,0,0,1-1-1V82a1,1,0,0,1,1-1h3a2,2,0,0,1,2,2V94A2,2,0,0,1,120,96Zm-2-2h2V83h-2Z"/></svg>