<?xml version="1.0" ?><svg data-name="003" id="_003" viewBox="0 0 128 128" xmlns="http://www.w3.org/2000/svg" xmlns:xlink="http://www.w3.org/1999/xlink"><defs><style>.cls-1{fill:none;}.cls-2{opacity:0.3;}.cls-3{fill:#97c1ff;}.cls-4{clip-path:url(#clip-path);}.cls-5{fill:#fff27d;}.cls-6{fill:#fffad1;}.cls-7{fill:#96d7ff;}.cls-8{fill:#c7e9ff;}.cls-9{fill:#fff;}.cls-10{fill:#6d6daa;}.cls-11{fill:#d6b5b0;}.cls-11,.cls-12,.cls-13,.cls-14{fill-rule:evenodd;}.cls-12,.cls-19{fill:#b1f1a8;}.cls-13,.cls-20{fill:#48bc33;}.cls-14{fill:#585889;stroke:#6d6daa;stroke-linecap:round;stroke-linejoin:round;stroke-width:2px;}.cls-15{fill:#eef6ff;}.cls-16{fill:#5cbeff;}.cls-17{fill:#8d96b8;}.cls-18{fill:#939fc6;}.cls-21{fill:#4d5266;}.cls-22{fill:#ced8ee;}.cls-23{fill:#0070b8;}</style><clipPath id="clip-path"><path class="cls-1" d="M116,48a39,39,0,1,0-77-12.09A20.62,20.62,0,0,1,23.55,52.71a30.75,30.75,0,0,0,14.29,59.81c12.7-2.8,26-.68,36.71,6.72a33.75,33.75,0,0,0,47.07-46.8A33.63,33.63,0,0,1,116,48Z"/></clipPath></defs><title/><g class="cls-2"><path class="cls-3" d="M116,48a39,39,0,1,0-77-12.09A20.62,20.62,0,0,1,23.55,52.71a30.75,30.75,0,1,0,22,57c7.61-4,17-2.68,22.64,3.84a33.75,33.75,0,0,0,53.41-41.09A33.63,33.63,0,0,1,116,48Z"/><g class="cls-4"><rect class="cls-5" height="10" width="126" x="1" y="118.02"/><rect class="cls-6" height="10" width="126" x="1" y="108.01"/><rect class="cls-7" height="20" width="126" x="1" y="88.01"/><rect class="cls-8" height="10" width="126" x="1" y="98.01"/><path class="cls-9" d="M26,96.13a3.12,3.12,0,0,1-2.21-.91,1.12,1.12,0,0,0-1.59,0,3.13,3.13,0,0,1-4.41,0,1.12,1.12,0,0,0-1.59,0,1,1,0,0,1-1.41-1.42,3.13,3.13,0,0,1,4.41,0,1.12,1.12,0,0,0,1.59,0,3.13,3.13,0,0,1,4.41,0,1.12,1.12,0,0,0,1.59,0,3.13,3.13,0,0,1,4.41,0,1,1,0,0,1-1.41,1.41,1.12,1.12,0,0,0-1.59,0A3.11,3.11,0,0,1,26,96.13Z"/><path class="cls-9" d="M67,96.13a3.12,3.12,0,0,1-2.21-.91,1.12,1.12,0,0,0-1.59,0,3.13,3.13,0,0,1-4.41,0,1.12,1.12,0,0,0-1.59,0,1,1,0,0,1-1.41-1.42,3.13,3.13,0,0,1,4.41,0,1.12,1.12,0,0,0,1.59,0,3.13,3.13,0,0,1,4.41,0,1.12,1.12,0,0,0,1.59,0,3.13,3.13,0,0,1,4.41,0,1,1,0,0,1-1.41,1.41,1.12,1.12,0,0,0-1.59,0A3.11,3.11,0,0,1,67,96.13Z"/><path class="cls-9" d="M16,103.13a3.11,3.11,0,0,1-2.21-.91,1.12,1.12,0,0,0-1.59,0,3.12,3.12,0,0,1-4.41,0,1,1,0,1,1,1.41-1.41,1.12,1.12,0,0,0,1.59,0,3.13,3.13,0,0,1,4.41,0,1.12,1.12,0,0,0,1.59,0,1,1,0,0,1,1.41,1.42A3.12,3.12,0,0,1,16,103.13Z"/><path class="cls-9" d="M115,96.13a3.11,3.11,0,0,1-2.21-.91,1.12,1.12,0,0,0-1.59,0,3.12,3.12,0,0,1-4.41,0,1,1,0,0,1,1.41-1.41,1.12,1.12,0,0,0,1.59,0,3.13,3.13,0,0,1,4.41,0,1.12,1.12,0,0,0,1.59,0,1,1,0,1,1,1.41,1.42A3.12,3.12,0,0,1,115,96.13Z"/><path class="cls-9" d="M87,104.13a3.11,3.11,0,0,1-2.21-.91,1.12,1.12,0,0,0-1.59,0,3.12,3.12,0,0,1-4.41,0,1,1,0,1,1,1.41-1.41,1.12,1.12,0,0,0,1.59,0,3.13,3.13,0,0,1,4.41,0,1.12,1.12,0,0,0,1.59,0,1,1,0,0,1,1.41,1.42A3.12,3.12,0,0,1,87,104.13Z"/><path class="cls-9" d="M117,104.13a3.12,3.12,0,0,1-2.21-.91,1.12,1.12,0,0,0-1.59,0,3.13,3.13,0,0,1-4.41,0,1.12,1.12,0,0,0-1.59,0,3.13,3.13,0,0,1-4.41,0,1.12,1.12,0,0,0-1.59,0,1,1,0,0,1-1.41-1.42,3.13,3.13,0,0,1,4.41,0,1.12,1.12,0,0,0,1.59,0,3.13,3.13,0,0,1,4.41,0,1.12,1.12,0,0,0,1.59,0,3.13,3.13,0,0,1,4.41,0,1.12,1.12,0,0,0,1.59,0,3.13,3.13,0,0,1,4.41,0,1,1,0,0,1-1.41,1.41,1.12,1.12,0,0,0-1.59,0A3.11,3.11,0,0,1,117,104.13Z"/><path class="cls-9" d="M47,104.13a3.12,3.12,0,0,1-2.21-.91,1.12,1.12,0,0,0-1.59,0,3.13,3.13,0,0,1-4.41,0,1.12,1.12,0,0,0-1.59,0,3.13,3.13,0,0,1-4.41,0,1.12,1.12,0,0,0-1.59,0,1,1,0,0,1-1.41-1.42,3.13,3.13,0,0,1,4.41,0,1.12,1.12,0,0,0,1.59,0,3.13,3.13,0,0,1,4.41,0,1.12,1.12,0,0,0,1.59,0,3.13,3.13,0,0,1,4.41,0,1.12,1.12,0,0,0,1.59,0,3.13,3.13,0,0,1,4.41,0,1,1,0,0,1-1.41,1.41,1.12,1.12,0,0,0-1.59,0A3.11,3.11,0,0,1,47,104.13Z"/><path class="cls-10" d="M127,89H1a1,1,0,0,1,0-2H127a1,1,0,0,1,0,2Z"/><path class="cls-10" d="M127,109H1a1,1,0,0,1,0-2H127a1,1,0,0,1,0,2Z"/><path class="cls-11" d="M97.72,26.06a3.44,3.44,0,0,0-1.12,3.41,6.09,6.09,0,0,0,1.12,3,3.44,3.44,0,0,0-1.12,3.41,6.09,6.09,0,0,0,1.12,3,3.44,3.44,0,0,0-1.12,3.41,6.09,6.09,0,0,0,1.12,3,3.44,3.44,0,0,0-1.12,3.41,6.09,6.09,0,0,0,1.12,3A3.44,3.44,0,0,0,96.6,55a6.09,6.09,0,0,0,1.12,3,3.44,3.44,0,0,0-1.12,3.41,6.09,6.09,0,0,0,1.12,3,3.44,3.44,0,0,0-1.12,3.41,6.09,6.09,0,0,0,1.12,3,3.44,3.44,0,0,0-1.12,3.41,6.09,6.09,0,0,0,1.12,3,3.44,3.44,0,0,0-1.12,3.41,6.09,6.09,0,0,0,1.12,3,3.12,3.12,0,0,0-1.17,2.57c0,.06,0,.11,0,.17a5.31,5.31,0,0,0,0,.55c0,.06,0,.11,0,.17a6.09,6.09,0,0,0,1.12,3,3.44,3.44,0,0,0-1.12,3.41,6.09,6.09,0,0,0,1.12,3,3.44,3.44,0,0,0-1.12,3.41,6.09,6.09,0,0,0,1.12,3,3.44,3.44,0,0,0-1.12,3.41,6.09,6.09,0,0,0,1.12,3,3.44,3.44,0,0,0-1.12,3.41,6.09,6.09,0,0,0,1.12,3,3.44,3.44,0,0,0-1.12,3.41,7.46,7.46,0,0,0,.6,2.11h5.69a7.46,7.46,0,0,0,.6-2.11,3.44,3.44,0,0,0-1.12-3.41,6.09,6.09,0,0,0,1.12-3,3.44,3.44,0,0,0-1.12-3.41,6.09,6.09,0,0,0,1.12-3,3.44,3.44,0,0,0-1.12-3.41,6.09,6.09,0,0,0,1.12-3,3.44,3.44,0,0,0-1.12-3.41,6.09,6.09,0,0,0,1.12-3A3.44,3.44,0,0,0,102.37,90a6.09,6.09,0,0,0,1.12-3c0-.06,0-.11,0-.17a5.31,5.31,0,0,0,0-.55c0-.06,0-.11,0-.17a3.12,3.12,0,0,0-1.17-2.57,6.09,6.09,0,0,0,1.12-3,3.44,3.44,0,0,0-1.12-3.41,6.09,6.09,0,0,0,1.12-3,3.44,3.44,0,0,0-1.12-3.41,6.09,6.09,0,0,0,1.12-3,3.44,3.44,0,0,0-1.12-3.41,6.09,6.09,0,0,0,1.12-3A3.44,3.44,0,0,0,102.37,58a6.09,6.09,0,0,0,1.12-3,3.44,3.44,0,0,0-1.12-3.41,6.09,6.09,0,0,0,1.12-3,3.44,3.44,0,0,0-1.12-3.41,6.09,6.09,0,0,0,1.12-3,3.44,3.44,0,0,0-1.12-3.41,6.09,6.09,0,0,0,1.12-3,3.44,3.44,0,0,0-1.12-3.41,6.09,6.09,0,0,0,1.12-3,3.44,3.44,0,0,0-1.12-3.41,6.09,6.09,0,0,0,1.12-3c.32-2.2-.68-4.06-3.42-4.06h0c-2.74,0-3.74,1.86-3.42,4.06A6.09,6.09,0,0,0,97.72,26.06Z"/><path class="cls-10" d="M102.89,122H97.2a1,1,0,0,1-.91-.58,8.54,8.54,0,0,1-.68-2.39,4.74,4.74,0,0,1,.82-3.69,8.17,8.17,0,0,1-.82-2.7,4.74,4.74,0,0,1,.82-3.69,8.15,8.15,0,0,1-.82-2.7,4.74,4.74,0,0,1,.82-3.69,8.17,8.17,0,0,1-.82-2.7,4.74,4.74,0,0,1,.82-3.69,8.16,8.16,0,0,1-.82-2.7,4.74,4.74,0,0,1,.82-3.69,8.17,8.17,0,0,1-.82-2.7s0-.16,0-.19c0-.22,0-.44,0-.65v-.2a4.38,4.38,0,0,1,.89-2.69,8.15,8.15,0,0,1-.83-2.7A4.74,4.74,0,0,1,96.44,77a8.16,8.16,0,0,1-.82-2.7,4.74,4.74,0,0,1,.82-3.69,8.17,8.17,0,0,1-.82-2.7,4.74,4.74,0,0,1,.82-3.69,8.17,8.17,0,0,1-.82-2.7,4.74,4.74,0,0,1,.82-3.69,8.16,8.16,0,0,1-.82-2.7,4.74,4.74,0,0,1,.82-3.69,8.17,8.17,0,0,1-.82-2.7,4.74,4.74,0,0,1,.82-3.69,8.16,8.16,0,0,1-.82-2.7,4.74,4.74,0,0,1,.82-3.69,8.16,8.16,0,0,1-.82-2.7,4.74,4.74,0,0,1,.83-3.69,8.15,8.15,0,0,1-.83-2.7,4.74,4.74,0,0,1,.82-3.69,8.16,8.16,0,0,1-.82-2.7,4.69,4.69,0,0,1,.92-3.81,5.12,5.12,0,0,1,7,0,4.69,4.69,0,0,1,.92,3.81,8.13,8.13,0,0,1-.82,2.7,4.74,4.74,0,0,1,.82,3.69,8.14,8.14,0,0,1-.82,2.7,4.74,4.74,0,0,1,.82,3.69,8.13,8.13,0,0,1-.82,2.7,4.74,4.74,0,0,1,.82,3.69,8.13,8.13,0,0,1-.82,2.7,4.74,4.74,0,0,1,.82,3.69,8.14,8.14,0,0,1-.82,2.7,4.74,4.74,0,0,1,.82,3.69,8.13,8.13,0,0,1-.82,2.7,4.74,4.74,0,0,1,.82,3.69,8.14,8.14,0,0,1-.82,2.7,4.74,4.74,0,0,1,.82,3.69,8.14,8.14,0,0,1-.82,2.7,4.74,4.74,0,0,1,.82,3.69,8.13,8.13,0,0,1-.82,2.7,4.74,4.74,0,0,1,.82,3.69,8.14,8.14,0,0,1-.82,2.7,4.39,4.39,0,0,1,.88,2.69v.14a6.3,6.3,0,0,1,0,.71,1.71,1.71,0,0,1,0,.18,8.18,8.18,0,0,1-.83,2.71,4.74,4.74,0,0,1,.82,3.69,8.13,8.13,0,0,1-.82,2.7,4.74,4.74,0,0,1,.82,3.69,8.14,8.14,0,0,1-.82,2.7,4.74,4.74,0,0,1,.82,3.69,8.14,8.14,0,0,1-.82,2.7,4.74,4.74,0,0,1,.82,3.69,8.14,8.14,0,0,1-.82,2.7,4.74,4.74,0,0,1,.82,3.69,8.54,8.54,0,0,1-.68,2.39A1,1,0,0,1,102.89,122Zm-5-2h4.33a7.45,7.45,0,0,0,.29-1.25,2.57,2.57,0,0,0-.72-2.46,1,1,0,0,1-.18-1.43,5.15,5.15,0,0,0,.91-2.49,2.57,2.57,0,0,0-.73-2.46,1,1,0,0,1-.18-1.43,5.16,5.16,0,0,0,.91-2.49,2.57,2.57,0,0,0-.72-2.46,1,1,0,0,1-.18-1.43,5.16,5.16,0,0,0,.91-2.49,2.57,2.57,0,0,0-.72-2.46,1,1,0,0,1-.18-1.43,5.16,5.16,0,0,0,.91-2.49,2.57,2.57,0,0,0-.72-2.46,1,1,0,0,1-.18-1.43,5.16,5.16,0,0,0,.91-2.49,1,1,0,0,1,0-.14,4.28,4.28,0,0,0,0-.45v-.13a2.2,2.2,0,0,0-.76-1.78,1,1,0,0,1-.18-1.43,5.16,5.16,0,0,0,.91-2.49,2.57,2.57,0,0,0-.72-2.46,1,1,0,0,1-.18-1.43A5.14,5.14,0,0,0,102.5,74a2.57,2.57,0,0,0-.72-2.46,1,1,0,0,1-.18-1.43,5.16,5.16,0,0,0,.91-2.49,2.57,2.57,0,0,0-.72-2.46,1,1,0,0,1-.18-1.43,5.16,5.16,0,0,0,.91-2.49,2.57,2.57,0,0,0-.72-2.46,1,1,0,0,1-.18-1.43,5.16,5.16,0,0,0,.91-2.49,2.57,2.57,0,0,0-.72-2.46,1,1,0,0,1-.18-1.43,5.16,5.16,0,0,0,.91-2.49,2.57,2.57,0,0,0-.72-2.46,1,1,0,0,1-.18-1.43,5.16,5.16,0,0,0,.91-2.49,2.57,2.57,0,0,0-.72-2.46,1,1,0,0,1-.18-1.43,5.15,5.15,0,0,0,.91-2.49,2.57,2.57,0,0,0-.72-2.46,1,1,0,0,1-.18-1.43,5.16,5.16,0,0,0,.91-2.49,2.57,2.57,0,0,0-.72-2.46,1,1,0,0,1-.18-1.43,5.16,5.16,0,0,0,.91-2.49,2.75,2.75,0,0,0-.45-2.21,2.5,2.5,0,0,0-2-.71H100a2.45,2.45,0,0,0-1.92.71,2.76,2.76,0,0,0-.45,2.21,5.16,5.16,0,0,0,.91,2.49,1,1,0,0,1-.18,1.43,2.57,2.57,0,0,0-.73,2.46,5.15,5.15,0,0,0,.91,2.49,1,1,0,0,1-.18,1.43,2.57,2.57,0,0,0-.73,2.46,5.16,5.16,0,0,0,.91,2.49,1,1,0,0,1-.18,1.43,2.57,2.57,0,0,0-.73,2.46,5.16,5.16,0,0,0,.91,2.49A1,1,0,0,1,98.32,46a2.57,2.57,0,0,0-.73,2.46A5.15,5.15,0,0,0,98.5,51a1,1,0,0,1-.18,1.43,2.57,2.57,0,0,0-.73,2.46,5.16,5.16,0,0,0,.91,2.49,1,1,0,0,1-.18,1.43,2.57,2.57,0,0,0-.73,2.46,5.15,5.15,0,0,0,.91,2.49,1,1,0,0,1-.18,1.43,2.57,2.57,0,0,0-.73,2.46,5.15,5.15,0,0,0,.91,2.49,1,1,0,0,1-.18,1.43A2.57,2.57,0,0,0,97.59,74a5.15,5.15,0,0,0,.91,2.49,1,1,0,0,1-.18,1.43,2.57,2.57,0,0,0-.73,2.46,5.15,5.15,0,0,0,.91,2.49,1,1,0,0,1-.18,1.43,2.2,2.2,0,0,0-.76,1.78v.13a4.1,4.1,0,0,0,0,.45s0,.13,0,.16a5.11,5.11,0,0,0,.9,2.48,1,1,0,0,1-.18,1.43,2.57,2.57,0,0,0-.72,2.46,5.16,5.16,0,0,0,.91,2.49,1,1,0,0,1-.18,1.43,2.57,2.57,0,0,0-.73,2.46,5.15,5.15,0,0,0,.91,2.49,1,1,0,0,1-.18,1.43,2.57,2.57,0,0,0-.73,2.46,5.16,5.16,0,0,0,.91,2.49,1,1,0,0,1-.18,1.43,2.57,2.57,0,0,0-.73,2.46,5.16,5.16,0,0,0,.91,2.49,1,1,0,0,1-.18,1.43,2.57,2.57,0,0,0-.73,2.46A7.43,7.43,0,0,0,97.88,120Z"/><path class="cls-10" d="M104.89,122H95.2a1,1,0,0,1,0-2h9.69a1,1,0,0,1,0,2Z"/><path class="cls-11" d="M25.72,58.06a3.44,3.44,0,0,0-1.12,3.41,6.09,6.09,0,0,0,1.12,3,3.44,3.44,0,0,0-1.12,3.41,6.09,6.09,0,0,0,1.12,3,3.44,3.44,0,0,0-1.12,3.41,6.09,6.09,0,0,0,1.12,3,3.44,3.44,0,0,0-1.12,3.41,6.09,6.09,0,0,0,1.12,3A3.44,3.44,0,0,0,24.6,87a6.09,6.09,0,0,0,1.12,3A3.44,3.44,0,0,0,24.6,93.4a6.09,6.09,0,0,0,1.12,3,3.44,3.44,0,0,0-1.12,3.41,6.09,6.09,0,0,0,1.12,3,3.44,3.44,0,0,0-1.12,3.41,6.09,6.09,0,0,0,1.12,3,3.44,3.44,0,0,0-1.12,3.41,6.91,6.91,0,0,0,.78,2.48H30.7a6.91,6.91,0,0,0,.78-2.48,3.44,3.44,0,0,0-1.12-3.41,6.09,6.09,0,0,0,1.12-3,3.44,3.44,0,0,0-1.12-3.41,6.09,6.09,0,0,0,1.12-3,3.44,3.44,0,0,0-1.12-3.41,6.09,6.09,0,0,0,1.12-3A3.44,3.44,0,0,0,30.36,90a6.09,6.09,0,0,0,1.12-3,3.44,3.44,0,0,0-1.12-3.41,6.09,6.09,0,0,0,1.12-3,3.44,3.44,0,0,0-1.12-3.41,6.09,6.09,0,0,0,1.12-3,3.44,3.44,0,0,0-1.12-3.41,6.09,6.09,0,0,0,1.12-3,3.44,3.44,0,0,0-1.12-3.41,6.09,6.09,0,0,0,1.12-3,3.44,3.44,0,0,0-1.12-3.41,6.09,6.09,0,0,0,1.12-3c.32-2.2-.68-4.06-3.42-4.06h0c-2.74,0-3.74,1.86-3.42,4.06A6.09,6.09,0,0,0,25.72,58.06Z"/><path class="cls-10" d="M30.7,116H25.38a1,1,0,0,1-.87-.5,7.92,7.92,0,0,1-.91-2.84,4.74,4.74,0,0,1,.82-3.69,8.13,8.13,0,0,1-.82-2.7,4.74,4.74,0,0,1,.82-3.69,8.14,8.14,0,0,1-.82-2.7,4.74,4.74,0,0,1,.82-3.69,8.12,8.12,0,0,1-.82-2.7,4.74,4.74,0,0,1,.82-3.69,8.14,8.14,0,0,1-.82-2.7,4.74,4.74,0,0,1,.82-3.69,8.14,8.14,0,0,1-.82-2.7,4.74,4.74,0,0,1,.82-3.69,8.13,8.13,0,0,1-.82-2.7,4.74,4.74,0,0,1,.82-3.69,8.14,8.14,0,0,1-.82-2.7,4.74,4.74,0,0,1,.82-3.69,8.14,8.14,0,0,1-.82-2.7,4.74,4.74,0,0,1,.82-3.69,8.13,8.13,0,0,1-.82-2.7,4.69,4.69,0,0,1,.92-3.81A4.38,4.38,0,0,1,28,50h0a4.38,4.38,0,0,1,3.49,1.4,4.69,4.69,0,0,1,.92,3.81,8.16,8.16,0,0,1-.82,2.7,4.74,4.74,0,0,1,.82,3.69,8.15,8.15,0,0,1-.83,2.7A4.74,4.74,0,0,1,32.47,68a8.17,8.17,0,0,1-.82,2.7,4.74,4.74,0,0,1,.82,3.69,8.16,8.16,0,0,1-.82,2.7,4.74,4.74,0,0,1,.82,3.69,8.17,8.17,0,0,1-.82,2.7,4.74,4.74,0,0,1,.82,3.69,8.17,8.17,0,0,1-.82,2.7,4.74,4.74,0,0,1,.82,3.69,8.16,8.16,0,0,1-.82,2.7,4.74,4.74,0,0,1,.82,3.69,8.17,8.17,0,0,1-.82,2.7,4.74,4.74,0,0,1,.82,3.69,8.16,8.16,0,0,1-.82,2.7,4.74,4.74,0,0,1,.82,3.69,7.92,7.92,0,0,1-.91,2.84A1,1,0,0,1,30.7,116ZM26,114h4.07a6.92,6.92,0,0,0,.42-1.62,2.57,2.57,0,0,0-.73-2.46,1,1,0,0,1-.18-1.43,5.16,5.16,0,0,0,.91-2.49,2.57,2.57,0,0,0-.73-2.46,1,1,0,0,1-.18-1.43,5.15,5.15,0,0,0,.91-2.49,2.57,2.57,0,0,0-.73-2.46,1,1,0,0,1-.18-1.43,5.16,5.16,0,0,0,.91-2.49,2.57,2.57,0,0,0-.73-2.46,1,1,0,0,1-.18-1.43,5.15,5.15,0,0,0,.91-2.49,2.57,2.57,0,0,0-.73-2.46A1,1,0,0,1,29.59,83a5.15,5.15,0,0,0,.91-2.49A2.57,2.57,0,0,0,29.77,78a1,1,0,0,1-.18-1.43,5.16,5.16,0,0,0,.91-2.49,2.57,2.57,0,0,0-.73-2.46,1,1,0,0,1-.18-1.43,5.16,5.16,0,0,0,.91-2.49,2.57,2.57,0,0,0-.73-2.46,1,1,0,0,1-.18-1.43,5.15,5.15,0,0,0,.91-2.49,2.57,2.57,0,0,0-.73-2.46,1,1,0,0,1-.18-1.43,5.16,5.16,0,0,0,.91-2.49A2.75,2.75,0,0,0,30,52.73,2.48,2.48,0,0,0,28.1,52H28a2.48,2.48,0,0,0-1.94.71,2.76,2.76,0,0,0-.45,2.21,5.15,5.15,0,0,0,.91,2.49,1,1,0,0,1-.18,1.43,2.57,2.57,0,0,0-.72,2.46,5.16,5.16,0,0,0,.91,2.49,1,1,0,0,1-.18,1.43,2.57,2.57,0,0,0-.72,2.46,5.15,5.15,0,0,0,.91,2.49,1,1,0,0,1-.18,1.43,2.57,2.57,0,0,0-.73,2.46,5.16,5.16,0,0,0,.91,2.49A1,1,0,0,1,26.31,78a2.57,2.57,0,0,0-.72,2.46A5.16,5.16,0,0,0,26.49,83a1,1,0,0,1-.18,1.43,2.57,2.57,0,0,0-.72,2.46,5.16,5.16,0,0,0,.91,2.49,1,1,0,0,1-.18,1.43,2.57,2.57,0,0,0-.72,2.46,5.16,5.16,0,0,0,.91,2.49,1,1,0,0,1-.18,1.43,2.57,2.57,0,0,0-.72,2.46,5.16,5.16,0,0,0,.91,2.49,1,1,0,0,1-.18,1.43,2.57,2.57,0,0,0-.72,2.46,5.15,5.15,0,0,0,.91,2.49,1,1,0,0,1-.18,1.43,2.57,2.57,0,0,0-.72,2.46A6.92,6.92,0,0,0,26,114Z"/><path class="cls-10" d="M32.7,116H23.38a1,1,0,1,1,0-2H32.7a1,1,0,1,1,0,2Z"/><path class="cls-9" d="M60,50a1,1,0,0,1-.71-.29A1,1,0,0,1,59,49a1,1,0,0,1,.3-.71.6.6,0,0,1,.15-.12.56.56,0,0,1,.17-.09.71.71,0,0,1,.19-.06,1,1,0,0,1,.9.27A1,1,0,0,1,61,49a1,1,0,0,1-1,1Z"/><path class="cls-9" d="M88,46H74a1,1,0,0,1,0-2H88a1,1,0,0,1,0,2Z"/><path class="cls-9" d="M79,50H64a1,1,0,0,1,0-2H79a1,1,0,0,1,0,2Z"/><path class="cls-9" d="M86,54H66a1,1,0,0,1,0-2H86a1,1,0,0,1,0,2Z"/><path class="cls-9" d="M78,58H70a1,1,0,0,1,0-2h8a1,1,0,0,1,0,2Z"/><path class="cls-9" d="M111,66a1,1,0,0,1-1-1,1,1,0,1,1,2,0,1,1,0,0,1-.29.71A1,1,0,0,1,111,66Z"/><path class="cls-9" d="M123,70h-6a1,1,0,0,1,0-2h6a1,1,0,0,1,0,2Z"/><path class="cls-9" d="M124,66h-9a1,1,0,0,1,0-2h9a1,1,0,0,1,0,2Z"/><path class="cls-9" d="M113,70h-4a1,1,0,0,1,0-2h4a1,1,0,0,1,0,2Z"/></g><path class="cls-12" d="M36.3,35.9a55.2,55.2,0,0,0-8.27.82,55.2,55.2,0,0,0-8.27-.82c-9.16-.25-16.65,1.53-16.73,4s7.29,4.61,16.45,4.86a54.77,54.77,0,0,0,8.55-.4,54.77,54.77,0,0,0,8.55.4C45.73,44.48,53.1,42.3,53,39.86S45.46,35.65,36.3,35.9Z"/><g class="cls-2"><path class="cls-13" d="M51.21,37.95c-2.72,1.49-8.24,2.6-14.64,2.77a54.77,54.77,0,0,1-8.55-.4,54.77,54.77,0,0,1-8.55.4c-6.4-.17-11.92-1.29-14.64-2.77C3.71,38.51,3,39.16,3,39.86c-.08,2.44,7.29,4.61,16.45,4.86a54.78,54.78,0,0,0,8.55-.4,54.78,54.78,0,0,0,8.55.4C45.73,44.48,53.1,42.3,53,39.86,53,39.16,52.34,38.51,51.21,37.95Z"/></g><path class="cls-10" d="M21.12,45.74l-1.67,0c-7.88-.21-14.56-1.83-16.63-4A2.58,2.58,0,0,1,2,39.83c.12-3.72,9.29-5.16,17.75-4.94a56.72,56.72,0,0,1,8.25.8,56.72,56.72,0,0,1,8.25-.8h0c8.46-.22,17.64,1.22,17.75,4.94a2.58,2.58,0,0,1-.79,1.87c-2.07,2.19-8.75,3.81-16.63,4A56.55,56.55,0,0,1,28,45.33,54.56,54.56,0,0,1,21.12,45.74Zm-3.06-8.87c-8.7,0-14,1.89-14,3a.75.75,0,0,0,.25.43c1.44,1.52,7.13,3.17,15.23,3.39a54,54,0,0,0,8.39-.39,1,1,0,0,1,.26,0,53.86,53.86,0,0,0,8.39.39c8.1-.22,13.8-1.87,15.23-3.39A.74.74,0,0,0,52,39.9c0-1.21-6-3.27-15.7-3h0a54.38,54.38,0,0,0-8.12.8,1,1,0,0,1-.36,0,54.38,54.38,0,0,0-8.12-.8Zm18.23-1h0Z"/><path class="cls-12" d="M43.69,44.4c-6.77-5.9-13.79-9-15.66-7h0c-1.88-2-8.89,1.13-15.66,7S1.61,56.71,3.49,58.73s8.89-1.13,15.66-7c4.48-3.91,7.73-8,8.87-11,1.14,2.93,4.39,7.06,8.87,11,6.77,5.9,13.79,9,15.66,7S50.46,50.3,43.69,44.4Z"/><g class="cls-2"><path class="cls-13" d="M36.89,47.7c-4.26-3.71-7.37-7.6-8.66-10.49a1.61,1.61,0,0,0-.21.16h0a1.61,1.61,0,0,0-.21-.16C26.52,40.1,23.41,44,19.15,47.7c-6.58,5.73-13.37,8.85-15.47,7.18-.78,1.73-.89,3.1-.19,3.85,1.88,2,8.89-1.13,15.66-7,4.48-3.91,7.73-8,8.87-11,1.14,2.93,4.39,7.06,8.87,11,6.77,5.9,13.79,9,15.66,7,.7-.75.58-2.12-.19-3.85C50.26,56.55,43.47,53.43,36.89,47.7Z"/></g><path class="cls-10" d="M50.8,60.33c-3.63,0-9.54-3.51-14.57-7.88A39.63,39.63,0,0,1,28,43a39.66,39.66,0,0,1-8.22,9.44c-6.46,5.62-14.38,9.82-17.05,7A3,3,0,0,1,2,57.14c.17-3.23,4-8.53,9.67-13.49,5.94-5.17,13.13-9.14,16.31-7.51,3.15-1.66,10.37,2.32,16.33,7.51h0c5.71,5,9.5,10.27,9.67,13.49a3,3,0,0,1-.73,2.27A3.24,3.24,0,0,1,50.8,60.33ZM28,39.74h0a1,1,0,0,1,.93.64c1.13,2.88,4.42,6.93,8.6,10.57,7,6.13,13.16,8.3,14.27,7.1a1.09,1.09,0,0,0,.19-.81c-.12-2.22-3.24-7.09-9-12.09C36,39,29.92,36.86,28.77,38l0,0a1,1,0,0,1-1.41,0l0,0c-1.21-1.16-7.28,1-14.27,7.1-5.75,5-8.87,9.87-9,12.09a1.08,1.08,0,0,0,.19.8c1.12,1.2,7.23-1,14.27-7.1,4.18-3.64,7.47-7.69,8.6-10.57A1,1,0,0,1,28,39.74Z"/><path class="cls-12" d="M37.16,49.2c-2.1-5.21-4.76-9.42-7-11.48-1.53-1.28-2.81-1.28-4.26,0-2.26,2.06-4.91,6.28-7,11.49-3.23,8.07-3.9,15.44-1.5,16.46s7-4.68,10.22-12.75c.15-.37.29-.74.42-1.11.14.37.28.74.43,1.11C31.69,61,36.27,66.68,38.68,65.65S40.41,57.26,37.16,49.2Z"/><g class="cls-2"><path class="cls-13" d="M38.68,61.65c-2.41,1-7-4.67-10.24-12.73-.15-.37-.29-.74-.43-1.11-.14.37-.28.74-.42,1.11C24.36,57,19.78,62.7,17.37,61.67a2.74,2.74,0,0,1-1.3-2.21c-.39,3.3,0,5.66,1.3,6.21,2.41,1,7-4.68,10.22-12.75.15-.37.29-.74.42-1.11.14.37.28.74.43,1.11C31.69,61,36.27,66.68,38.68,65.65c1.28-.55,1.68-2.9,1.29-6.19A2.72,2.72,0,0,1,38.68,61.65Z"/></g><path class="cls-10" d="M18,66.79a2.52,2.52,0,0,1-1-.2c-3.45-1.47-2.13-10,1-17.75C20,43.66,22.73,39.23,25.2,37c1.83-1.62,3.66-1.63,5.57,0,2.5,2.27,5.23,6.7,7.31,11.87h0c3.1,7.7,4.44,16.27,1,17.75a2.86,2.86,0,0,1-2.28-.07c-2.71-1.12-6.09-5.77-8.78-12-2.67,6.23-6,10.88-8.75,12A3.34,3.34,0,0,1,18,66.79Zm10-29a2.26,2.26,0,0,0-1.45.71c-2.21,2-4.8,6.28-6.74,11.12-3.61,9-3.24,14.65-2,15.17a1,1,0,0,0,.73-.09c2-.82,5.41-5.24,8.17-12.11.15-.37.28-.73.42-1.09a1,1,0,0,1,.93-.65h0a1,1,0,0,1,.93.65l.06.15c.12.31.24.62.36.94,2.77,6.87,6.21,11.28,8.19,12.1a1,1,0,0,0,.73.08c1.21-.52,1.56-6.18-2.06-15.17-1.95-4.84-4.54-9.09-6.77-11.11A2.4,2.4,0,0,0,28,37.75Z"/><path class="cls-14" d="M9.08,58.36a8.62,8.62,0,0,0-1-3.21m6.31.27A9.47,9.47,0,0,0,12.74,51m5.92-1.23a6.58,6.58,0,0,0-1.1-3.81m3.57,18A6.61,6.61,0,0,0,19,60.78m5.42-1.44A10.32,10.32,0,0,0,21.77,55m5.58-1.49A10.58,10.58,0,0,0,24.52,49m-16-8.91A4.82,4.82,0,0,0,7,42.88m6.86-2.8a8.22,8.22,0,0,0-1.7,4M48,55.15a8.62,8.62,0,0,0-1,3.21M43.3,51a9.47,9.47,0,0,0-1.6,4.45m-3.22-9.5a6.58,6.58,0,0,0-1.1,3.81M37,60.78a6.61,6.61,0,0,0-2.09,3.11M34.27,55a10.32,10.32,0,0,0-2.69,4.34M31.53,49a10.58,10.58,0,0,0-2.84,4.52M49,42.88a4.82,4.82,0,0,0-1.46-2.8m-3.7,4a8.22,8.22,0,0,0-1.7-4M28,44.09v7.73"/><path class="cls-15" d="M65.08,19.21C65.36,13.94,61.33,8.62,53,10.1A12.25,12.25,0,0,0,36.85,6.71,12.23,12.23,0,0,0,24.5,9.4c-8.05-2.77-13.27,2.37-13.67,7.69-.42,5.57,3.23,8.29,5.78,8.59a5,5,0,0,0,3.19-.52,4.47,4.47,0,0,0,5.74,1.93c2.83,3.44,9.69,3.95,13,1.29a6.58,6.58,0,0,0,7.59.22,7.49,7.49,0,0,0,2.55-1.26c2.1,1.91,7.4,2.06,9.14-1.64C61.91,27.09,64.84,23.66,65.08,19.21Z"/><path class="cls-9" d="M24.5,13.4a12.23,12.23,0,0,1,12.36-2.69A12.25,12.25,0,0,1,53,14.1c7-1.25,11,2.34,11.87,6.65a10.29,10.29,0,0,0,.2-1.54C65.36,13.94,61.33,8.62,53,10.1A12.25,12.25,0,0,0,36.85,6.71,12.23,12.23,0,0,0,24.5,9.4c-8.05-2.77-13.27,2.37-13.67,7.69A10.22,10.22,0,0,0,11,20C12,15.07,17,10.83,24.5,13.4Z"/><g class="cls-2"><path class="cls-16" d="M57.87,21.69c-1.74,3.7-7,3.55-9.14,1.64a7.49,7.49,0,0,1-2.55,1.26,6.58,6.58,0,0,1-7.59-.22c-3.36,2.65-10.22,2.15-13-1.29a4.47,4.47,0,0,1-5.74-1.93,5,5,0,0,1-3.19.52A7,7,0,0,1,11,16a9,9,0,0,0-.17,1.13c-.42,5.57,3.23,8.29,5.78,8.59a5,5,0,0,0,3.19-.52,4.47,4.47,0,0,0,5.74,1.93c2.83,3.44,9.69,3.95,13,1.29a6.58,6.58,0,0,0,7.59.22,7.49,7.49,0,0,0,2.55-1.26c2.1,1.91,7.4,2.06,9.14-1.64,4,1.4,7-2,7.22-6.47a9.5,9.5,0,0,0-.2-2.46C64.12,20.4,61.42,22.92,57.87,21.69Z"/></g><path class="cls-10" d="M33,31.08a11.16,11.16,0,0,1-7.74-2.84,5.57,5.57,0,0,1-5.81-1.79,6.92,6.92,0,0,1-2.94.21c-3-.35-7.12-3.58-6.66-9.66A10.2,10.2,0,0,1,14.35,9.3a11.58,11.58,0,0,1,9.91-1,13.3,13.3,0,0,1,9.91-3.15,13.17,13.17,0,0,1,2.57.51,13.15,13.15,0,0,1,7.58-1.55A13.31,13.31,0,0,1,53.44,9c4.82-.7,7.8.86,9.45,2.32a9.77,9.77,0,0,1,3.19,7.93h0a8.63,8.63,0,0,1-3.34,6.79,5.53,5.53,0,0,1-4.39.8,6.24,6.24,0,0,1-4.1,2.64,7.78,7.78,0,0,1-5.55-.93,8.9,8.9,0,0,1-2.08.93,7.68,7.68,0,0,1-8.06.11A10.53,10.53,0,0,1,33,31.08Zm-7.44-5a1,1,0,0,1,.77.37C28.72,29.38,34.93,30,38,27.59a1,1,0,0,1,1.29,0,5.64,5.64,0,0,0,6.33.15,1,1,0,0,1,.31-.15,6.48,6.48,0,0,0,2.21-1.08,1,1,0,0,1,1.29,0,5.51,5.51,0,0,0,4.46.95A4.17,4.17,0,0,0,57,25.26a1,1,0,0,1,1.23-.52,3.69,3.69,0,0,0,3.43-.34,6.65,6.65,0,0,0,2.46-5.24h0a7.78,7.78,0,0,0-2.51-6.32c-2-1.77-4.9-2.37-8.38-1.75a1,1,0,0,1-1-.4A11.24,11.24,0,0,0,37.36,7.57a1,1,0,0,1-.83.08,11.22,11.22,0,0,0-11.35,2.47,1,1,0,0,1-1,.22C20,8.89,17.1,9.88,15.45,11a8.19,8.19,0,0,0-3.63,6.19c-.36,4.75,2.65,7.26,4.9,7.52a3.87,3.87,0,0,0,2.49-.33,1,1,0,0,1,1.5.4,3.48,3.48,0,0,0,4.45,1.41A1,1,0,0,1,25.54,26.08Zm39.54-6.86h0Z"/><path class="cls-10" d="M34.68,10.47a1,1,0,0,1-.94-1.35,10,10,0,0,1,2.41-3.31A1,1,0,0,1,37.49,7.3a7.94,7.94,0,0,0-1.87,2.52A1,1,0,0,1,34.68,10.47Z"/><path class="cls-10" d="M22.36,13.31A1,1,0,0,1,21.42,12a10,10,0,0,1,2.41-3.31,1,1,0,0,1,1.34,1.49,8,8,0,0,0-1.87,2.52A1,1,0,0,1,22.36,13.31Z"/><path class="cls-10" d="M54.09,15H54a1,1,0,0,1-.88-1.11,5.86,5.86,0,0,0-.94-3.21,1,1,0,0,1,1.66-1.11,7.78,7.78,0,0,1,1.26,4.54A1,1,0,0,1,54.09,15Z"/><path class="cls-10" d="M57.48,27.38a1,1,0,0,1-.85-1.53c.56-.89,1.3-3,.11-4.59a1,1,0,0,1,1.6-1.2c1.84,2.46.86,5.46,0,6.85A1,1,0,0,1,57.48,27.38Z"/><path class="cls-10" d="M48.73,28.33a1,1,0,0,1-.65-1.76,2,2,0,0,0,.25-1.62,1,1,0,0,1,1.71-1,3.75,3.75,0,0,1-.65,4.17A1,1,0,0,1,48.73,28.33Z"/><path class="cls-10" d="M38.58,29.37a1,1,0,0,1-.65-1.76A3.1,3.1,0,0,0,39,25.45a1,1,0,0,1,1-1h0a1,1,0,0,1,1,1,5,5,0,0,1-1.8,3.64A1,1,0,0,1,38.58,29.37Z"/><path class="cls-10" d="M19.92,26.34a1,1,0,0,1-.87-.51A5.15,5.15,0,0,1,19,20.74a1,1,0,1,1,1.73,1,3.15,3.15,0,0,0,.07,3.1,1,1,0,0,1-.87,1.49Z"/><path class="cls-10" d="M25.58,28.06a1,1,0,0,1-.92-.58,1,1,0,0,1,.47-1.31l.05,0A5.06,5.06,0,0,0,27,24.9a1,1,0,0,1,1.55,1.27A6.84,6.84,0,0,1,26,28,1,1,0,0,1,25.58,28.06Z"/><path class="cls-12" d="M108.3,2.89a55.2,55.2,0,0,0-8.27.82,55.2,55.2,0,0,0-8.27-.82C82.6,2.65,75.11,4.42,75,6.86s7.29,4.61,16.45,4.86a54.77,54.77,0,0,0,8.55-.4,54.77,54.77,0,0,0,8.55.4c9.16-.25,16.53-2.42,16.45-4.86S117.47,2.65,108.3,2.89Z"/><g class="cls-2"><path class="cls-13" d="M123.22,4.94c-2.72,1.49-8.24,2.6-14.64,2.77a54.77,54.77,0,0,1-8.55-.4,54.77,54.77,0,0,1-8.55.4c-6.4-.17-11.92-1.29-14.64-2.77-1.13.56-1.79,1.21-1.81,1.92C75,9.3,82.32,11.47,91.48,11.72a54.78,54.78,0,0,0,8.55-.4,54.78,54.78,0,0,0,8.55.4c9.16-.25,16.53-2.42,16.45-4.86C125,6.15,124.35,5.51,123.22,4.94Z"/></g><path class="cls-10" d="M93.13,12.74l-1.67,0c-7.88-.21-14.56-1.83-16.63-4A2.58,2.58,0,0,1,74,6.83c.12-3.72,9.29-5.16,17.75-4.94a56.82,56.82,0,0,1,8.25.8,56.82,56.82,0,0,1,8.25-.8h0c8.45-.22,17.64,1.22,17.75,4.94a2.58,2.58,0,0,1-.79,1.87c-2.07,2.19-8.75,3.81-16.63,4a56.6,56.6,0,0,1-8.57-.4A54.51,54.51,0,0,1,93.13,12.74ZM90.07,3.87c-8.7,0-14,1.89-14,3a.74.74,0,0,0,.25.43c1.43,1.52,7.13,3.17,15.23,3.39a54,54,0,0,0,8.39-.4,1,1,0,0,1,.26,0,53.94,53.94,0,0,0,8.39.4c8.1-.22,13.8-1.87,15.23-3.39a.75.75,0,0,0,.25-.43c0-1.21-6-3.27-15.7-3h0a54.48,54.48,0,0,0-8.12.8,1,1,0,0,1-.36,0,54.48,54.48,0,0,0-8.12-.8Zm18.23-1h0Z"/><path class="cls-12" d="M115.7,11.4c-6.77-5.9-13.79-9-15.66-7h0c-1.88-2-8.89,1.13-15.66,7S73.62,23.71,75.5,25.73s8.89-1.13,15.66-7c4.48-3.91,7.73-8,8.87-11,1.14,2.93,4.39,7.06,8.87,11,6.77,5.9,13.79,9,15.66,7S122.47,17.29,115.7,11.4Z"/><g class="cls-2"><path class="cls-13" d="M108.9,14.7c-4.26-3.71-7.37-7.6-8.66-10.49a1.61,1.61,0,0,0-.21.16h0a1.61,1.61,0,0,0-.21-.16C98.53,7.1,95.42,11,91.16,14.7c-6.58,5.73-13.37,8.85-15.47,7.18-.78,1.73-.89,3.1-.19,3.85,1.88,2,8.89-1.13,15.66-7,4.48-3.91,7.73-8,8.87-11,1.14,2.93,4.39,7.06,8.87,11,6.77,5.9,13.79,9,15.66,7,.7-.75.58-2.12-.19-3.85C122.27,23.54,115.48,20.42,108.9,14.7Z"/></g><path class="cls-10" d="M122.81,27.33c-3.63,0-9.54-3.51-14.57-7.88A39.65,39.65,0,0,1,100,10a39.65,39.65,0,0,1-8.21,9.44c-6.46,5.62-14.39,9.82-17.05,7A3,3,0,0,1,74,24.14c.17-3.23,4-8.53,9.67-13.49C89.65,5.46,96.84,1.5,100,3.13c3.18-1.64,10.38,2.33,16.32,7.51,5.71,5,9.5,10.26,9.67,13.49a3,3,0,0,1-.73,2.27A3.25,3.25,0,0,1,122.81,27.33ZM100,6.73a1,1,0,0,1,.93.64c1.13,2.88,4.42,6.93,8.6,10.57,7,6.13,13.16,8.3,14.27,7.1a1.09,1.09,0,0,0,.19-.81c-.12-2.22-3.24-7.09-9-12.09h0C108,6,101.88,3.85,100.77,5l0,0a1,1,0,0,1-1.41,0l0,0c-1.11-1.2-7.23,1-14.27,7.1-5.75,5-8.87,9.87-9,12.09a1.08,1.08,0,0,0,.19.8c1.11,1.2,7.23-1,14.28-7.1C94.68,14.3,98,10.25,99.1,7.37A1,1,0,0,1,100,6.73Z"/><path class="cls-12" d="M109.17,16.19c-2.1-5.21-4.76-9.42-7-11.48-1.53-1.28-2.81-1.28-4.26,0C95.62,6.78,93,11,90.88,16.21c-3.23,8.07-3.9,15.44-1.5,16.46s7-4.68,10.22-12.75c.15-.37.29-.74.42-1.11.14.37.28.74.43,1.11,3.25,8.06,7.83,13.76,10.24,12.73S112.41,24.25,109.17,16.19Z"/><g class="cls-2"><path class="cls-13" d="M110.69,28.65c-2.41,1-7-4.67-10.24-12.73-.15-.37-.29-.74-.43-1.11-.14.37-.28.74-.42,1.11C96.36,24,91.79,29.69,89.38,28.67a2.74,2.74,0,0,1-1.3-2.21c-.39,3.3,0,5.66,1.3,6.21,2.41,1,7-4.68,10.22-12.75.15-.37.29-.74.42-1.11.14.37.28.74.43,1.11,3.25,8.06,7.83,13.76,10.24,12.73,1.28-.55,1.68-2.9,1.29-6.19A2.72,2.72,0,0,1,110.69,28.65Z"/></g><path class="cls-10" d="M90,33.79a2.52,2.52,0,0,1-1-.2c-3.45-1.47-2.13-10,1-17.75C92,10.66,94.74,6.22,97.21,4c1.83-1.62,3.65-1.63,5.57,0,2.5,2.27,5.23,6.7,7.31,11.87h0c3.1,7.7,4.44,16.27,1,17.75a2.86,2.86,0,0,1-2.28-.07c-2.71-1.12-6.09-5.77-8.77-12-2.67,6.23-6,10.88-8.75,12A3.34,3.34,0,0,1,90,33.79Zm10-29a2.26,2.26,0,0,0-1.45.71c-2.21,2-4.8,6.28-6.74,11.12-3.61,9-3.24,14.65-2,15.17a1,1,0,0,0,.73-.09c2-.82,5.41-5.24,8.17-12.11.14-.36.28-.73.42-1.09a1,1,0,0,1,.94-.65h0a1,1,0,0,1,.94.65l0,.12c.12.32.24.64.37,1,2.77,6.87,6.21,11.29,8.19,12.1a1,1,0,0,0,.73.08c1.21-.52,1.56-6.18-2.06-15.17-1.95-4.84-4.54-9.09-6.77-11.11A2.4,2.4,0,0,0,100,4.75Z"/><path class="cls-14" d="M81.09,25.36a8.62,8.62,0,0,0-1-3.21m6.31.27A9.47,9.47,0,0,0,84.75,18m5.92-1.23a6.58,6.58,0,0,0-1.1-3.81m3.57,18a6.61,6.61,0,0,0-2.09-3.11m5.42-1.44A10.32,10.32,0,0,0,93.78,22m5.58-1.49A10.58,10.58,0,0,0,96.52,16m-16-8.91A4.82,4.82,0,0,0,79,9.88m6.86-2.8a8.22,8.22,0,0,0-1.7,4M120,22.14a8.62,8.62,0,0,0-1,3.21M115.31,18a9.47,9.47,0,0,0-1.6,4.45m-3.22-9.5a6.58,6.58,0,0,0-1.1,3.81M109,27.78a6.61,6.61,0,0,0-2.09,3.11M106.28,22a10.32,10.32,0,0,0-2.69,4.34M103.54,16a10.58,10.58,0,0,0-2.84,4.52M121,9.88a4.82,4.82,0,0,0-1.46-2.8m-3.7,4a8.22,8.22,0,0,0-1.7-4m-14.13,4v7.73"/><path class="cls-10" d="M72,126H38a1,1,0,0,1,0-2H72a1,1,0,0,1,0,2Z"/><path class="cls-10" d="M106,126H75a1,1,0,0,1,0-2h31a1,1,0,0,1,0,2Z"/><path class="cls-10" d="M113,126h-4a1,1,0,0,1,0-2h4a1,1,0,0,1,0,2Z"/><path class="cls-10" d="M35,126H22a1,1,0,0,1,0-2H35a1,1,0,1,1,0,2Z"/><path class="cls-10" d="M19,126H14a1,1,0,0,1,0-2h5a1,1,0,0,1,0,2Z"/></g><polygon class="cls-17" points="53.01 117 25.01 117 29.01 107 49.01 107 53.01 117"/><path class="cls-10" d="M53,118H25a1,1,0,0,1-.93-1.37l4-10A1,1,0,0,1,29,106H49a1,1,0,0,1,.93.63l4,10A1,1,0,0,1,53,118Zm-26.52-2h25l-3.2-8H29.69Z"/><circle class="cls-18" cx="39.01" cy="115.01" r="10"/><path class="cls-10" d="M39,126a11,11,0,1,1,11-11A11,11,0,0,1,39,126Zm0-20a9,9,0,1,0,9,9A9,9,0,0,0,39,106Z"/><circle class="cls-15" cx="39.01" cy="115.01" r="5"/><path class="cls-10" d="M39,121a6,6,0,1,1,6-6A6,6,0,0,1,39,121Zm0-10a4,4,0,1,0,4,4A4,4,0,0,0,39,111Z"/><path class="cls-10" d="M39,121a1,1,0,0,1-1-1V110a1,1,0,0,1,2,0v10A1,1,0,0,1,39,121Z"/><path class="cls-10" d="M34.68,118.51a1,1,0,0,1-.5-1.87l8.66-5a1,1,0,0,1,1,1.73l-8.66,5A1,1,0,0,1,34.68,118.51Z"/><path class="cls-10" d="M43.34,118.51a1,1,0,0,1-.5-.13l-8.66-5a1,1,0,0,1,1-1.73l8.66,5a1,1,0,0,1-.5,1.87Z"/><path class="cls-10" d="M39,118a3,3,0,1,1,3-3A3,3,0,0,1,39,118Zm0-4a1,1,0,1,0,1,1A1,1,0,0,0,39,114Z"/><path class="cls-10" d="M39.46,107.25a1,1,0,0,1-.86-.48l-.45-.74a1,1,0,0,1,1.71-1l.45.74a1,1,0,0,1-.86,1.52Z"/><path class="cls-10" d="M39,125.51a1,1,0,0,1-.86-.48l-.45-.74a1,1,0,0,1,1.71-1l.45.74a1,1,0,0,1-.86,1.52Z"/><path class="cls-10" d="M47.77,116.45a1,1,0,0,1-.52-1.86l.74-.45a1,1,0,1,1,1,1.71l-.74.45A1,1,0,0,1,47.77,116.45Z"/><path class="cls-10" d="M29.51,116a1,1,0,0,1-.52-1.86l.74-.45a1,1,0,0,1,1,1.71l-.74.45A1,1,0,0,1,29.51,116Z"/><path class="cls-10" d="M45.52,110.13l-.24,0a1,1,0,0,1-.73-1.21l.21-.84a1,1,0,0,1,1.94.48l-.21.84A1,1,0,0,1,45.52,110.13Z"/><path class="cls-10" d="M32.29,122.72l-.24,0a1,1,0,0,1-.73-1.21l.21-.84a1,1,0,1,1,1.94.48l-.21.84A1,1,0,0,1,32.29,122.72Z"/><path class="cls-10" d="M45.73,122.72l-.24,0-.84-.21a1,1,0,1,1,.48-1.94l.84.21a1,1,0,0,1-.24,2Z"/><path class="cls-10" d="M33.13,109.5l-.24,0-.84-.21a1,1,0,1,1,.48-1.94l.84.21a1,1,0,0,1-.24,2Z"/><path class="cls-10" d="M42.77,108.09a1,1,0,0,1-1-.85l-.13-.86a1,1,0,1,1,2-.3l.13.86a1,1,0,0,1-.84,1.14Z"/><path class="cls-10" d="M35.37,124.78a1,1,0,0,1-1-.85l-.13-.86a1,1,0,1,1,2-.3l.13.86a1,1,0,0,1-.84,1.14Z"/><path class="cls-10" d="M46.93,119.77a1,1,0,0,1-.15-2l.86-.13a1,1,0,0,1,.3,2l-.86.13Z"/><path class="cls-10" d="M30.23,112.37a1,1,0,0,1-.15-2l.86-.13a1,1,0,1,1,.3,2l-.86.13Z"/><path class="cls-10" d="M36.07,107.74a1,1,0,0,1-.59-.19l-.7-.51A1,1,0,0,1,36,105.42l.7.51a1,1,0,0,1-.59,1.81Z"/><path class="cls-10" d="M42.64,124.78a1,1,0,0,1-.59-.2l-.7-.51a1,1,0,1,1,1.19-1.61l.7.51a1,1,0,0,1-.59,1.8Z"/><path class="cls-10" d="M47.27,113.07a1,1,0,0,1-.8-1.59l.51-.7A1,1,0,1,1,48.59,112l-.51.7A1,1,0,0,1,47.27,113.07Z"/><path class="cls-10" d="M30.23,119.64a1,1,0,0,1-.8-1.59l.51-.7a1,1,0,0,1,1.61,1.19l-.51.7A1,1,0,0,1,30.23,119.64Z"/><polygon class="cls-17" points="107.01 117 75.01 117 81.01 102 101.01 102 107.01 117"/><path class="cls-10" d="M107,118H75a1,1,0,0,1-.93-1.37l6-15A1,1,0,0,1,81,101h20a1,1,0,0,1,.93.63l6,15A1,1,0,0,1,107,118Zm-30.52-2h29l-5.2-13H81.69Z"/><circle class="cls-18" cx="91.01" cy="115.01" r="10"/><path class="cls-10" d="M91,126a11,11,0,1,1,11-11A11,11,0,0,1,91,126Zm0-20a9,9,0,1,0,9,9A9,9,0,0,0,91,106Z"/><circle class="cls-15" cx="91.01" cy="115.01" r="5"/><path class="cls-10" d="M91,121a6,6,0,1,1,6-6A6,6,0,0,1,91,121Zm0-10a4,4,0,1,0,4,4A4,4,0,0,0,91,111Z"/><path class="cls-10" d="M91,121a1,1,0,0,1-1-1V110a1,1,0,1,1,2,0v10A1,1,0,0,1,91,121Z"/><path class="cls-10" d="M86.68,118.51a1,1,0,0,1-.5-1.87l8.66-5a1,1,0,0,1,1,1.73l-8.66,5A1,1,0,0,1,86.68,118.51Z"/><path class="cls-10" d="M95.34,118.51a1,1,0,0,1-.5-.13l-8.66-5a1,1,0,0,1,1-1.73l8.66,5a1,1,0,0,1-.5,1.87Z"/><path class="cls-10" d="M91,118a3,3,0,1,1,3-3A3,3,0,0,1,91,118Zm0-4a1,1,0,1,0,1,1A1,1,0,0,0,91,114Z"/><path class="cls-10" d="M91.46,107.25a1,1,0,0,1-.86-.48l-.45-.74a1,1,0,0,1,1.71-1l.45.74a1,1,0,0,1-.86,1.52Z"/><path class="cls-10" d="M91,125.51a1,1,0,0,1-.86-.48l-.45-.74a1,1,0,0,1,1.71-1l.45.74a1,1,0,0,1-.86,1.52Z"/><path class="cls-10" d="M99.77,116.45a1,1,0,0,1-.52-1.86l.74-.45a1,1,0,1,1,1,1.71l-.74.45A1,1,0,0,1,99.77,116.45Z"/><path class="cls-10" d="M81.51,116a1,1,0,0,1-.52-1.86l.74-.45a1,1,0,0,1,1,1.71l-.74.45A1,1,0,0,1,81.51,116Z"/><path class="cls-10" d="M97.52,110.13l-.24,0a1,1,0,0,1-.73-1.21l.21-.84a1,1,0,0,1,1.94.48l-.21.84A1,1,0,0,1,97.52,110.13Z"/><path class="cls-10" d="M84.29,122.72l-.24,0a1,1,0,0,1-.73-1.21l.21-.84a1,1,0,1,1,1.94.48l-.21.84A1,1,0,0,1,84.29,122.72Z"/><path class="cls-10" d="M97.73,122.72l-.24,0-.84-.21a1,1,0,1,1,.48-1.94l.84.21a1,1,0,0,1-.24,2Z"/><path class="cls-10" d="M85.13,109.5l-.24,0-.84-.21a1,1,0,1,1,.48-1.94l.84.21a1,1,0,0,1-.24,2Z"/><path class="cls-10" d="M94.77,108.09a1,1,0,0,1-1-.85l-.13-.86a1,1,0,0,1,2-.3l.13.86a1,1,0,0,1-.84,1.14Z"/><path class="cls-10" d="M87.37,124.78a1,1,0,0,1-1-.85l-.13-.86a1,1,0,1,1,2-.3l.13.86a1,1,0,0,1-.84,1.14Z"/><path class="cls-10" d="M98.93,119.77a1,1,0,0,1-.15-2l.86-.13a1,1,0,1,1,.3,2l-.86.13Z"/><path class="cls-10" d="M82.23,112.37a1,1,0,0,1-.15-2l.86-.13a1,1,0,1,1,.3,2l-.86.13Z"/><path class="cls-10" d="M88.07,107.74a1,1,0,0,1-.59-.19l-.7-.51A1,1,0,0,1,88,105.42l.7.51a1,1,0,0,1-.59,1.81Z"/><path class="cls-10" d="M94.64,124.78a1,1,0,0,1-.59-.2l-.7-.51a1,1,0,1,1,1.19-1.61l.7.51a1,1,0,0,1-.59,1.8Z"/><path class="cls-10" d="M99.27,113.07a1,1,0,0,1-.8-1.59l.51-.7a1,1,0,1,1,1.61,1.19l-.51.7A1,1,0,0,1,99.27,113.07Z"/><path class="cls-10" d="M82.23,119.64a1,1,0,0,1-.8-1.59l.51-.7a1,1,0,1,1,1.61,1.19l-.51.7A1,1,0,0,1,82.23,119.64Z"/><path class="cls-19" d="M100.81,69H25.59a4,4,0,0,0-3.64,2.34L15.48,85.58A20,20,0,0,0,13.92,96.9l2.57,16.72a4,4,0,0,0,4,3.39H25l2-5a8,8,0,0,1,7.43-5h9.17A8,8,0,0,1,51,112l2,5H76l4-10a8,8,0,0,1,7.43-5h7.17a8,8,0,0,1,7.43,5l4,10h3.57a4,4,0,0,0,4-3.39l2.33-15.17A20,20,0,0,0,113,84.66l-8.78-13.8A4,4,0,0,0,100.81,69Z"/><g class="cls-2"><path class="cls-20" d="M14.55,101l1.94,12.62a4,4,0,0,0,4,3.39H25l2-5a8,8,0,0,1,7.43-5h9.17A8,8,0,0,1,51,112l2,5H76l4-10a8,8,0,0,1,7.43-5h7.17a8,8,0,0,1,7.43,5l4,10h3.57a4,4,0,0,0,4-3.39L115.47,101Z"/></g><path class="cls-15" d="M116,93a20,20,0,0,0-3-8.35l-8.78-13.8A4,4,0,0,0,100.81,69H25.59a4,4,0,0,0-3.64,2.34L15.48,85.58A20,20,0,0,0,13.71,93Z"/><g class="cls-2"><path class="cls-21" d="M16.48,113l.07.53a4,4,0,0,0,4,3.47H25l1.6-4Z"/><polygon class="cls-21" points="51.41 113 53.01 117.01 76.01 117.01 77.61 113 51.41 113"/><path class="cls-21" d="M104.41,113l1.6,4h3.5a4,4,0,0,0,4-3.47l.07-.53Z"/></g><path class="cls-10" d="M109.58,118H106a1,1,0,0,1-.93-.63l-4-10a7,7,0,0,0-6.5-4.4H87.42a7,7,0,0,0-6.5,4.4l-4,10A1,1,0,0,1,76,118H53a1,1,0,0,1-.93-.63l-2-5a7,7,0,0,0-6.5-4.4H34.43a7,7,0,0,0-6.5,4.4l-2,5A1,1,0,0,1,25,118H20.44a5,5,0,0,1-4.94-4.24L12.93,97a21,21,0,0,1,1.64-11.88L21,70.94A5,5,0,0,1,25.59,68h75.23A5,5,0,0,1,105,70.32l8.78,13.8a21,21,0,0,1,3,14.47l-2.33,15.17A5,5,0,0,1,109.58,118Zm-2.89-2h2.89a3,3,0,0,0,3-2.54l2.33-15.17a19,19,0,0,0-2.75-13.09l-8.78-13.8A3,3,0,0,0,100.81,70H25.59a3,3,0,0,0-2.73,1.76L16.39,86A19,19,0,0,0,14.9,96.75l2.57,16.72a3,3,0,0,0,3,2.54h3.89l1.74-4.34A9,9,0,0,1,34.43,106h9.17A9,9,0,0,1,52,111.66L53.69,116H75.33l3.74-9.34A9,9,0,0,1,87.42,101h7.17a9,9,0,0,1,8.36,5.66Z"/><path class="cls-7" d="M35.24,63.46c1.28-3.35,1.14-6-1-8.64,4.44.31,6.72.83,10.77,7.83"/><path class="cls-10" d="M35.24,64.46a1,1,0,0,1-.93-1.36c1.21-3.18,1-5.47-.82-7.65a1,1,0,0,1-.11-1.09,1,1,0,0,1,1-.54c5,.35,7.44,1.21,11.56,8.33a1,1,0,1,1-1.73,1C41,57.7,39.1,56.45,36.23,56c1.12,2.27,1.09,4.8-.05,7.8A1,1,0,0,1,35.24,64.46Z"/><path class="cls-10" d="M39,70a1,1,0,0,1-1-1V63.14a1,1,0,0,1,2,0V69A1,1,0,0,1,39,70Z"/><path class="cls-10" d="M11.92,84a1,1,0,0,1-.92-1.4l6.09-14a1,1,0,1,1,1.83.8l-6.09,14A1,1,0,0,1,11.92,84Z"/><path class="cls-10" d="M18.46,80H14.13a1,1,0,1,1,0-2h4.34a1,1,0,1,1,0,2Z"/><path class="cls-10" d="M20.28,76H15.68a1,1,0,1,1,0-2h4.61a1,1,0,0,1,0,2Z"/><path class="cls-10" d="M22.12,72H17.23a1,1,0,0,1,0-2h4.89a1,1,0,0,1,0,2Z"/><path class="cls-10" d="M87,70a1,1,0,0,1-1-1V63.12a1,1,0,0,1,2,0V69A1,1,0,0,1,87,70Z"/><path class="cls-10" d="M101,65.93h-.16a251.15,251.15,0,0,0-75.7-.11,1,1,0,1,1-.29-2,253.08,253.08,0,0,1,76.3.12,1,1,0,0,1-.16,2Z"/><path class="cls-10" d="M116,94H13.7a1,1,0,1,1,0-2H116a1,1,0,0,1,0,2Z"/><path class="cls-22" d="M115.51,117H109l1-5h5.5a2.5,2.5,0,0,1,2.5,2.5h0A2.5,2.5,0,0,1,115.51,117Z"/><path class="cls-10" d="M115.51,118H109a1,1,0,0,1-1-1.2l1-5a1,1,0,0,1,1-.8h5.5a3.5,3.5,0,0,1,0,7Zm-5.28-2h5.28a1.5,1.5,0,0,0,0-3h-4.68Z"/><path class="cls-22" d="M15.51,117H21l-1-5h-4.5a2.5,2.5,0,0,0-2.5,2.5h0A2.5,2.5,0,0,0,15.51,117Z"/><path class="cls-10" d="M21,118h-5.5a3.5,3.5,0,0,1,0-7H20a1,1,0,0,1,1,.8l1,5a1,1,0,0,1-1,1.2Zm-5.5-5a1.5,1.5,0,0,0,0,3h4.28l-.6-3Z"/><path class="cls-22" d="M118,95c0,2.21-.9,4-2,4s-4,0-4-4,2.9-4,4-4S118,92.8,118,95Z"/><path class="cls-9" d="M115,95c0,2.19.87,3.18,1.83,3.62a6.22,6.22,0,0,0,0-7.25C115.88,91.83,115,92.82,115,95Z"/><path class="cls-10" d="M116,100c-4.13,0-5-2.72-5-5s.87-5,5-5c1.71,0,3,2.15,3,5S117.72,100,116,100Zm0-8c-1.52,0-3,.23-3,3s1.48,3,3,3c.25,0,1-1.06,1-3S116.26,92,116,92Z"/><rect class="cls-18" height="20" rx="2" ry="2" width="8" x="7.01" y="83.01"/><path class="cls-10" d="M13,104H9a3,3,0,0,1-3-3V85a3,3,0,0,1,3-3h4a3,3,0,0,1,3,3v16A3,3,0,0,1,13,104ZM9,84a1,1,0,0,0-1,1v16a1,1,0,0,0,1,1h4a1,1,0,0,0,1-1V85a1,1,0,0,0-1-1Z"/><path class="cls-10" d="M7,87.51a1,1,0,0,1-.55-1.84l1.52-1a1,1,0,1,1,1.1,1.67l-1.52,1A1,1,0,0,1,7,87.51Z"/><path class="cls-10" d="M7,93.51a1,1,0,0,1-.55-1.84l1.52-1a1,1,0,1,1,1.1,1.67l-1.52,1A1,1,0,0,1,7,93.51Z"/><path class="cls-10" d="M7,99.51a1,1,0,0,1-.55-1.84l1.52-1a1,1,0,1,1,1.1,1.67l-1.52,1A1,1,0,0,1,7,99.51Z"/><path class="cls-10" d="M7,90.51a1,1,0,0,1-.55-1.84l1.52-1a1,1,0,1,1,1.1,1.67l-1.52,1A1,1,0,0,1,7,90.51Z"/><path class="cls-10" d="M7,96.51a1,1,0,0,1-.55-1.84l1.52-1a1,1,0,1,1,1.1,1.67l-1.52,1A1,1,0,0,1,7,96.51Z"/><path class="cls-10" d="M7.07,102.47a1,1,0,0,1-.55-1.84l1.46-1a1,1,0,1,1,1.1,1.67l-1.46,1A1,1,0,0,1,7.07,102.47Z"/><path class="cls-10" d="M15,87.51a1,1,0,0,1-.55-.16l-1.52-1a1,1,0,1,1,1.1-1.67l1.52,1A1,1,0,0,1,15,87.51Z"/><path class="cls-10" d="M15,93.51a1,1,0,0,1-.55-.16l-1.52-1a1,1,0,1,1,1.1-1.67l1.52,1A1,1,0,0,1,15,93.51Z"/><path class="cls-10" d="M15,99.51a1,1,0,0,1-.55-.16l-1.52-1a1,1,0,1,1,1.1-1.67l1.52,1A1,1,0,0,1,15,99.51Z"/><path class="cls-10" d="M15,90.51a1,1,0,0,1-.55-.16l-1.52-1a1,1,0,1,1,1.1-1.67l1.52,1A1,1,0,0,1,15,90.51Z"/><path class="cls-10" d="M15,96.51a1,1,0,0,1-.55-.16l-1.52-1a1,1,0,1,1,1.1-1.67l1.52,1A1,1,0,0,1,15,96.51Z"/><path class="cls-10" d="M15,102.46a1,1,0,0,1-.55-.16l-1.45-1a1,1,0,1,1,1.1-1.67l1.45,1a1,1,0,0,1-.55,1.84Z"/><polygon class="cls-7" points="49.01 73.01 25.76 73.01 20.14 85.01 49.01 85.01 49.01 73.01"/><polygon class="cls-7" points="79.01 73.01 79.01 85.01 108.08 85.01 100.62 73.01 79.01 73.01"/><polygon class="cls-8" points="49.01 81.95 49.01 78.95 35.54 85.01 42.21 85.01 49.01 81.95"/><polygon class="cls-8" points="20.14 85.01 28.88 85.01 49.01 75.95 49.01 73.01 25.76 73.01 20.14 85.01"/><g class="cls-2"><polygon class="cls-23" points="25.76 73.01 24.22 77.01 49.01 77.01 49.01 73.01 25.76 73.01"/></g><rect class="cls-7" height="12" width="22" x="53.01" y="73.01"/><path class="cls-10" d="M49,86H20.14a1,1,0,0,1-.91-1.42l5.62-12a1,1,0,0,1,.91-.58H49a1,1,0,0,1,1,1V85A1,1,0,0,1,49,86Zm-27.3-2H48V74H26.39Z"/><polygon class="cls-8" points="53.01 80.15 68.88 73.01 62.21 73.01 53.01 77.15 53.01 80.15"/><g class="cls-2"><rect class="cls-23" height="4" width="22" x="53.01" y="73.01"/></g><polygon class="cls-8" points="100.62 73.01 90.43 73.01 79.01 78.15 79.01 85.01 79.32 85.01 101.67 74.95 100.62 73.01"/><g class="cls-2"><polygon class="cls-23" points="100.62 73.01 79.01 73.01 79.01 77.01 102.77 77.01 100.62 73.01"/></g><polygon class="cls-8" points="75.01 79.95 63.77 85.01 75.01 85.01 75.01 79.95"/><path class="cls-10" d="M108.08,86H79a1,1,0,0,1-1-1V73a1,1,0,0,1,1-1h21.61a1,1,0,0,1,.85.47l7.46,12a1,1,0,0,1-.85,1.53ZM80,84h26.27l-6.22-10H80Z"/><path class="cls-10" d="M75,86H53a1,1,0,0,1-1-1V73a1,1,0,0,1,1-1H75a1,1,0,0,1,1,1V85A1,1,0,0,1,75,86ZM54,84H74V74H54Z"/><path class="cls-22" d="M101.73,82.42a1.76,1.76,0,0,0-1.13-2.21A11.67,11.67,0,0,0,97.2,79a1.43,1.43,0,0,0-1.74,1.15,6.73,6.73,0,0,0-.26,2.48,1.48,1.48,0,0,0,1.46,1.18c.86,0,2,.07,2.79.07a2.44,2.44,0,0,0,1.81-.63A3.83,3.83,0,0,0,101.73,82.42Z"/><path class="cls-10" d="M99.46,84.9c-.59,0-1.47,0-2.25-.06l-.57,0a2.47,2.47,0,0,1-2.42-2.06,7.72,7.72,0,0,1,.3-2.9A2.4,2.4,0,0,1,97.31,78,12.68,12.68,0,0,1,101,79.31a2.74,2.74,0,0,1,1.63,3.46h0a4.85,4.85,0,0,1-.6,1.09A3.38,3.38,0,0,1,99.46,84.9ZM96.87,80c-.26,0-.33.1-.45.47a5.73,5.73,0,0,0-.22,2,.52.52,0,0,0,.5.31l.57,0c.75,0,1.6.05,2.18.05a1.9,1.9,0,0,0,1-.25,3,3,0,0,0,.32-.59c.19-.5-.38-.84-.63-1A11.53,11.53,0,0,0,97.09,80Zm4.87,2.42h0Z"/><path class="cls-22" d="M96.86,83.83l-.25,2.4a2.4,2.4,0,0,0,3.81-.35l-.53-2-.42,0C98.77,83.9,97.69,83.86,96.86,83.83Z"/><path class="cls-10" d="M98.37,88a3.3,3.3,0,0,1-2.52-1.12,1,1,0,0,1-.24-.76l.25-2.4a1,1,0,0,1,1-.89h.31c.77,0,1.66.06,2.26.06l.3,0a1,1,0,0,1,1.08.74l.53,2a1,1,0,0,1,0,.65A3.06,3.06,0,0,1,98.94,88,3.72,3.72,0,0,1,98.37,88Zm-.71-2.18a1.51,1.51,0,0,0,1,.16,1.43,1.43,0,0,0,.69-.29l-.21-.79-1.36,0Z"/></svg>