<?xml version="1.0" ?><svg data-name="003" id="_003" viewBox="0 0 128 128" xmlns="http://www.w3.org/2000/svg" xmlns:xlink="http://www.w3.org/1999/xlink"><defs><style>.cls-1{fill:none;}.cls-2{opacity:0.3;}.cls-3{fill:#97c1ff;}.cls-4{fill:#939fc6;}.cls-5{opacity:0.5;}.cls-6{fill:#fff;}.cls-7{fill:#6d6daa;}.cls-8{fill:#ced8ee;}.cls-9{fill:#7690a8;}.cls-10{fill:#eef6ff;}.cls-11{clip-path:url(#clip-path);}.cls-12{fill:#d6b5b0;}.cls-13{fill:#96d7ff;}.cls-14{fill:#c7e9ff;}.cls-15{fill:#0070b8;}.cls-16{fill:#b1f1a8;}.cls-17{fill:#48bc33;}.cls-18{fill:#8d96b8;}.cls-19{fill:#c9c1f5;}.cls-20{fill:#7369d6;}.cls-21{fill:#4d5266;}</style><clipPath id="clip-path"><path class="cls-1" d="M111.3,104.77a30,30,0,0,0,8.59-33.26,19.69,19.69,0,0,1-.31-12.74A37,37,0,0,0,72.22,12.7a21,21,0,0,1-17.37-1.88c-13.79-8-33.73-3.81-42,16.68a16.6,16.6,0,0,0-.75,8A20.58,20.58,0,0,1,8.29,49.78,28.49,28.49,0,0,0,20.41,92.55,20.06,20.06,0,0,1,31.79,105,29,29,0,0,0,79.62,117.4,20.08,20.08,0,0,1,92.9,112,29.83,29.83,0,0,0,111.3,104.77Z"/></clipPath></defs><title/><g class="cls-2"><path class="cls-3" d="M111.3,104.77a30,30,0,0,0,8.59-33.26,19.69,19.69,0,0,1-.31-12.74A37,37,0,0,0,72.22,12.7a21,21,0,0,1-17.37-1.88c-13.79-8-33.73-3.81-42,16.68a16.6,16.6,0,0,0-.75,8A20.58,20.58,0,0,1,8.29,49.78,28.49,28.49,0,0,0,20.41,92.55,20.06,20.06,0,0,1,31.79,105,29,29,0,0,0,79.62,117.4,20.08,20.08,0,0,1,92.9,112,29.83,29.83,0,0,0,111.3,104.77Z"/><polyline class="cls-4" points="119 52.2 89.36 16.55 44.93 50.99"/><g class="cls-5"><polygon class="cls-6" points="89.36 20.55 115.42 51.62 119 52.2 89.36 16.55 44.93 50.99 49.23 51.68 89.36 20.55"/></g><path class="cls-7" d="M119,53.2a1,1,0,0,1-.77-.36l-29-34.9L45.54,51.78a1,1,0,0,1-1.22-1.58L88.74,15.76a1,1,0,0,1,1.38.15l29.64,35.64A1,1,0,0,1,119,53.2Z"/><polyline class="cls-4" points="7.92 54.2 40.57 17.55 71 43.99"/><g class="cls-5"><polygon class="cls-6" points="40.57 17.55 7.92 54.2 12.09 53.52 40.57 21.55 67.11 44.62 71 43.99 40.57 17.55"/></g><path class="cls-7" d="M7.92,55.2a1,1,0,0,1-.75-1.67L39.82,16.89a1,1,0,0,1,1.4-.09L71.65,43.23a1,1,0,0,1-1.31,1.51L40.66,19l-32,35.91A1,1,0,0,1,7.92,55.2Z"/><polygon class="cls-8" points="104.7 49.78 65.95 3.29 27.21 49.78 104.7 49.78"/><g class="cls-2"><polygon class="cls-9" points="58.9 23.16 66.15 28.99 66.55 29 73.28 23.28 85.26 25.4 82.72 22.34 72.61 20.28 66.47 25.11 59.9 20.16 50.5 21.83 47.77 25.11 58.9 23.16"/></g><polygon class="cls-10" points="66.4 2.75 82.72 22.34 72.61 20.28 66.47 25.11 59.9 20.16 50.5 21.83 66.4 2.75"/><polygon class="cls-6" points="66.4 6.75 78.7 21.52 82.72 22.34 66.4 2.75 50.5 21.83 54.42 21.13 66.4 6.75"/><path class="cls-7" d="M66.47,26.11a1,1,0,0,1-.6-.2l-6.22-4.69-9,1.59a1,1,0,0,1-1.18-1,1,1,0,0,1,.89-1l9.33-1.66a1,1,0,0,1,.78.19l6,4.49L72,19.5a1,1,0,0,1,.82-.19l10.11,2.06a1,1,0,0,1-.4,2l-9.66-2L67.08,25.9A1,1,0,0,1,66.47,26.11Z"/><path class="cls-7" d="M105.14,50.25a1,1,0,0,1-.77-.36L66.4,4.32l-38,45.57a1,1,0,1,1-1.54-1.28L65.63,2.11a1,1,0,0,1,1.54,0l38.75,46.49a1,1,0,0,1-.77,1.64Z"/><g class="cls-11"><rect class="cls-12" height="56" width="126" x="1" y="69.02"/><g class="cls-2"><rect class="cls-6" height="4" width="126" x="1" y="69.02"/></g><rect class="cls-13" height="20" width="126" x="1" y="49.01"/><rect class="cls-14" height="4" width="126" x="1" y="65.01"/><g class="cls-2"><rect class="cls-15" height="4" width="126" x="1" y="49.01"/></g><path class="cls-6" d="M31,57.13a3.11,3.11,0,0,1-2.21-.91,1.12,1.12,0,0,0-1.59,0,3.12,3.12,0,0,1-4.41,0,1.12,1.12,0,0,0-1.59,0,1,1,0,0,1-1.41-1.41,3.13,3.13,0,0,1,4.41,0,1.12,1.12,0,0,0,1.59,0,3.13,3.13,0,0,1,4.41,0,1.12,1.12,0,0,0,1.59,0,3.13,3.13,0,0,1,4.41,0,1,1,0,0,1-1.41,1.42,1.12,1.12,0,0,0-1.59,0A3.11,3.11,0,0,1,31,57.13Z"/><path class="cls-6" d="M67,57.13a3.11,3.11,0,0,1-2.21-.91,1.12,1.12,0,0,0-1.59,0,3.13,3.13,0,0,1-4.41,0,1.12,1.12,0,0,0-1.59,0,1,1,0,0,1-1.41-1.41,3.13,3.13,0,0,1,4.41,0,1.12,1.12,0,0,0,1.59,0,3.13,3.13,0,0,1,4.41,0,1.12,1.12,0,0,0,1.59,0,3.13,3.13,0,0,1,4.41,0,1,1,0,0,1-1.41,1.41,1.12,1.12,0,0,0-1.59,0A3.11,3.11,0,0,1,67,57.13Z"/><path class="cls-6" d="M14,63.14a3.11,3.11,0,0,1-2.21-.91,1.12,1.12,0,0,0-1.59,0,3.13,3.13,0,0,1-4.41,0A1,1,0,0,1,7.2,60.81a1.12,1.12,0,0,0,1.59,0,3.13,3.13,0,0,1,4.41,0,1.12,1.12,0,0,0,1.59,0,1,1,0,1,1,1.41,1.41A3.11,3.11,0,0,1,14,63.14Z"/><path class="cls-6" d="M99,57.13a3.11,3.11,0,0,1-2.21-.91,1.12,1.12,0,0,0-1.59,0,3.13,3.13,0,0,1-4.41,0,1,1,0,0,1,1.41-1.41,1.12,1.12,0,0,0,1.59,0,3.13,3.13,0,0,1,4.41,0,1.12,1.12,0,0,0,1.59,0,1,1,0,1,1,1.41,1.41A3.11,3.11,0,0,1,99,57.13Z"/><path class="cls-6" d="M79,64.13a3.12,3.12,0,0,1-2.21-.91,1,1,0,1,1,1.41-1.42,1.12,1.12,0,0,0,1.59,0,3.13,3.13,0,0,1,4.41,0,1.12,1.12,0,0,0,1.59,0,1,1,0,0,1,1.41,1.41,3.13,3.13,0,0,1-4.41,0,1.12,1.12,0,0,0-1.59,0A3.11,3.11,0,0,1,79,64.13Z"/><path class="cls-6" d="M117,64.14a3.11,3.11,0,0,1-2.21-.91,1.12,1.12,0,0,0-1.59,0,3.13,3.13,0,0,1-4.41,0,1.12,1.12,0,0,0-1.59,0,3.13,3.13,0,0,1-4.41,0,1.15,1.15,0,0,0-1.59,0,1,1,0,0,1-1.41-1.41,3.13,3.13,0,0,1,4.41,0,1.12,1.12,0,0,0,1.59,0,3.13,3.13,0,0,1,4.41,0,1.12,1.12,0,0,0,1.59,0,3.13,3.13,0,0,1,4.41,0,1.12,1.12,0,0,0,1.59,0,3.13,3.13,0,0,1,4.41,0,1,1,0,0,1-1.41,1.41,1.15,1.15,0,0,0-1.59,0A3.11,3.11,0,0,1,117,64.14Z"/><path class="cls-6" d="M53,64.13a3.11,3.11,0,0,1-2.21-.91,1.12,1.12,0,0,0-1.59,0,3.12,3.12,0,0,1-4.41,0,1.12,1.12,0,0,0-1.59,0,3.12,3.12,0,0,1-4.41,0,1.12,1.12,0,0,0-1.59,0,1,1,0,0,1-1.41-1.41,3.13,3.13,0,0,1,4.41,0,1.12,1.12,0,0,0,1.59,0,3.13,3.13,0,0,1,4.41,0,1.12,1.12,0,0,0,1.59,0,3.13,3.13,0,0,1,4.41,0,1.12,1.12,0,0,0,1.59,0,3.13,3.13,0,0,1,4.41,0,1,1,0,0,1-1.41,1.42,1.12,1.12,0,0,0-1.59,0A3.11,3.11,0,0,1,53,64.13Z"/><path class="cls-7" d="M127,50H1a1,1,0,0,1,0-2H127a1,1,0,0,1,0,2Z"/><path class="cls-7" d="M127,70H1a1,1,0,0,1,0-2H127a1,1,0,0,1,0,2Z"/></g><path class="cls-7" d="M110,126H17a1,1,0,1,1,0-2h93a1,1,0,0,1,0,2Z"/><path class="cls-7" d="M115,126h-2a1,1,0,0,1,0-2h2a1,1,0,0,1,0,2Z"/><path class="cls-7" d="M14,126H10a1,1,0,1,1,0-2h4a1,1,0,0,1,0,2Z"/><rect class="cls-12" height="7.24" width="5.79" x="33.11" y="87.75"/><path class="cls-7" d="M38.9,96H33.11a1,1,0,0,1-1-1V87.75a1,1,0,0,1,1-1H38.9a1,1,0,0,1,1,1V95A1,1,0,0,1,38.9,96Zm-4.79-2H37.9V88.75H34.11Z"/><path class="cls-16" d="M27.3,80.51,22.3,88a2.64,2.64,0,0,0,1.78,4.08l.34,0a2.9,2.9,0,0,0,2.9-2.9,2.9,2.9,0,0,0,5.79,0,2.9,2.9,0,1,0,5.79,0,2.9,2.9,0,0,0,5.79,0,2.9,2.9,0,0,0,2.9,2.9l.34,0A2.64,2.64,0,0,0,49.72,88l-5-7.49L36,73.27Z"/><g class="cls-2"><path class="cls-17" d="M30.21,82.22a3.89,3.89,0,0,0,5.79,0,3.89,3.89,0,0,0,5.79,0,3.89,3.89,0,0,0,2.9,1.29l.46,0a3.39,3.39,0,0,0,1.26-.43l-1.7-2.54L36,73.27,27.3,80.51l-1.7,2.54a3.4,3.4,0,0,0,1.26.43A4,4,0,0,0,30.21,82.22Z"/></g><g class="cls-2"><path class="cls-17" d="M49.69,88a2.41,2.41,0,0,1-1.76,1.11l-.34,0a2.9,2.9,0,0,1-2.9-2.9,2.9,2.9,0,0,1-5.79,0,2.9,2.9,0,0,1-5.79,0,2.9,2.9,0,0,1-5.79,0,2.9,2.9,0,0,1-2.9,2.9l-.34,0A2.41,2.41,0,0,1,22.32,88l0,0a2.64,2.64,0,0,0,1.78,4.08l.34,0a2.9,2.9,0,0,0,2.9-2.9,2.9,2.9,0,0,0,5.79,0,2.9,2.9,0,0,0,5.79,0,2.9,2.9,0,0,0,5.79,0,2.9,2.9,0,0,0,2.9,2.9l.34,0A2.64,2.64,0,0,0,49.72,88Z"/></g><path class="cls-7" d="M47.59,93.1a3.89,3.89,0,0,1-2.9-1.29,3.89,3.89,0,0,1-5.79,0,3.89,3.89,0,0,1-5.79,0,3.89,3.89,0,0,1-5.79,0A4,4,0,0,1,24,93.07a3.47,3.47,0,0,1-2.74-2,3.71,3.71,0,0,1,.23-3.62l5-7.5a1,1,0,0,1,.19-.21l8.71-7.24a1,1,0,0,1,1.28,0l8.71,7.24a1,1,0,0,1,.19.21l5,7.49a3.72,3.72,0,0,1,.24,3.63,3.47,3.47,0,0,1-2.74,2Zm-2.9-4.9a1,1,0,0,1,1,1,1.93,1.93,0,0,0,2.12,1.88A1.46,1.46,0,0,0,49,90.23a1.75,1.75,0,0,0-.1-1.68L44,81.19l-8-6.62-8,6.62-4.92,7.37A1.74,1.74,0,0,0,23,90.23a1.46,1.46,0,0,0,1.16.86h.22a1.9,1.9,0,0,0,1.9-1.9,1,1,0,0,1,2,0,1.9,1.9,0,0,0,3.79,0,1,1,0,0,1,2,0,1.9,1.9,0,0,0,3.79,0,1,1,0,0,1,2,0,1.9,1.9,0,0,0,3.79,0A1,1,0,0,1,44.7,88.2Z"/><path class="cls-16" d="M30.71,68.15l-5.53,8.27A2.65,2.65,0,0,0,27,80.49l.34,0a2.9,2.9,0,0,0,2.9-2.9,2.9,2.9,0,1,0,5.79,0,2.9,2.9,0,0,0,5.79,0,2.9,2.9,0,0,0,2.9,2.9l.34,0a2.65,2.65,0,0,0,1.79-4.07L41.3,68.15,36,60.91Z"/><g class="cls-2"><path class="cls-17" d="M46.8,76.38A2.42,2.42,0,0,1,45,77.49l-.34,0a2.9,2.9,0,0,1-2.9-2.9,2.9,2.9,0,1,1-5.79,0,2.9,2.9,0,1,1-5.79,0,2.9,2.9,0,0,1-2.9,2.9l-.34,0a2.42,2.42,0,0,1-1.76-1.12l0,0A2.65,2.65,0,0,0,27,80.49l.34,0a2.9,2.9,0,0,0,2.9-2.9,2.9,2.9,0,1,0,5.79,0,2.9,2.9,0,1,0,5.79,0,2.9,2.9,0,0,0,2.9,2.9l.34,0a2.65,2.65,0,0,0,1.79-4.07Z"/></g><g class="cls-2"><path class="cls-17" d="M41.3,68.15,36,60.91l-5.29,7.24-1.8,2.68a2.36,2.36,0,0,0,1,.35l.34,0a2.9,2.9,0,0,0,2.9-2.9,2.9,2.9,0,0,0,5.79,0,2.9,2.9,0,0,0,2.9,2.9l.34,0a2.36,2.36,0,0,0,1-.35Z"/></g><path class="cls-7" d="M44.7,81.51a3.89,3.89,0,0,1-2.9-1.29,3.89,3.89,0,0,1-5.79,0,3.89,3.89,0,0,1-5.79,0,4,4,0,0,1-3.35,1.27,3.48,3.48,0,0,1-2.74-2,3.72,3.72,0,0,1,.22-3.62l5.54-8.28,0,0,5.29-7.24a1,1,0,0,1,1.62,0l5.29,7.24,5.55,8.3a3.72,3.72,0,0,1,.23,3.63,3.47,3.47,0,0,1-2.74,2Zm-2.9-4.9a1,1,0,0,1,1,1,1.9,1.9,0,0,0,1.9,1.9h.23a1.47,1.47,0,0,0,1.16-.86A1.75,1.75,0,0,0,46,77l-5.52-8.25L36,62.6l-4.47,6.12L26,77a1.72,1.72,0,0,0-.09,1.66,1.47,1.47,0,0,0,1.16.86h.22a1.9,1.9,0,0,0,1.9-1.9,1,1,0,0,1,2,0,1.9,1.9,0,0,0,3.79,0,1,1,0,0,1,2,0,1.9,1.9,0,0,0,3.79,0A1,1,0,0,1,41.8,76.62Z"/><path class="cls-16" d="M33.11,65.31a2.9,2.9,0,0,1-2.9,2.9l-.34,0a2.63,2.63,0,0,1-1.75-4.09L34.8,53.64a1.45,1.45,0,0,1,2.41,0L43.89,64.1a2.63,2.63,0,0,1-1.75,4.09l-.34,0a2.9,2.9,0,0,1-2.9-2.9,2.9,2.9,0,1,1-5.79,0Z"/><path class="cls-16" d="M33.11,65.31a2.9,2.9,0,0,1-2.9,2.9l-.34,0a2.63,2.63,0,0,1-1.75-4.09L34.8,53.64a1.45,1.45,0,0,1,2.41,0L43.89,64.1a2.63,2.63,0,0,1-1.75,4.09l-.34,0a2.9,2.9,0,0,1-2.9-2.9,2.9,2.9,0,1,1-5.79,0Z"/><g class="cls-2"><path class="cls-17" d="M43.88,64.08a2.4,2.4,0,0,1-1.74,1.1l-.34,0a2.9,2.9,0,0,1-2.9-2.9,2.9,2.9,0,0,1-5.79,0,2.9,2.9,0,0,1-2.9,2.9l-.34,0a2.4,2.4,0,0,1-1.74-1.1h0a2.63,2.63,0,0,0,1.75,4.09l.34,0a2.9,2.9,0,0,0,2.9-2.9,2.9,2.9,0,0,0,5.79,0,2.9,2.9,0,0,0,2.9,2.9l.34,0a2.63,2.63,0,0,0,1.75-4.09Z"/></g><path class="cls-7" d="M41.8,69.2a3.89,3.89,0,0,1-2.9-1.29,3.89,3.89,0,0,1-5.79,0,4,4,0,0,1-3.36,1.27,3.45,3.45,0,0,1-2.73-2,3.74,3.74,0,0,1,.27-3.63L34,53.1a2.45,2.45,0,0,1,4.08,0l6.69,10.47A3.73,3.73,0,0,1,45,67.17a3.45,3.45,0,0,1-2.74,2Zm-1.9-3.9A1.92,1.92,0,0,0,42,67.19a1.45,1.45,0,0,0,1.16-.86,1.73,1.73,0,0,0-.12-1.68L36.37,54.18A.43.43,0,0,0,36,54a.44.44,0,0,0-.37.2L29,64.63a1.74,1.74,0,0,0-.13,1.69,1.45,1.45,0,0,0,1.16.86,1.87,1.87,0,0,0,2.12-1.88,1,1,0,0,1,2,0,1.9,1.9,0,1,0,3.79,0,1,1,0,0,1,2,0Z"/><rect class="cls-12" height="10" width="8" x="17.01" y="95"/><path class="cls-7" d="M25,106H17a1,1,0,0,1-1-1V95a1,1,0,0,1,1-1h8a1,1,0,0,1,1,1v10A1,1,0,0,1,25,106Zm-7-2h6V96H18Z"/><path class="cls-16" d="M9,85,2.08,95.34A3.65,3.65,0,0,0,4.54,101L5,101a4,4,0,0,0,4-4,4,4,0,1,0,8,0,4,4,0,1,0,8,0,4,4,0,1,0,8,0,4,4,0,0,0,4,4l.47,0a3.65,3.65,0,0,0,2.46-5.63L33,85,21,75Z"/><g class="cls-2"><path class="cls-17" d="M33,85,21,75,9,85,7.27,87.56A3.34,3.34,0,0,0,8.54,88L9,88a4,4,0,0,0,4-4,4,4,0,0,0,8,0,4,4,0,0,0,8,0,4,4,0,0,0,4,4l.47,0a3.34,3.34,0,0,0,1.26-.41Z"/></g><g class="cls-2"><path class="cls-17" d="M37.47,98,37,98a4,4,0,0,1-4-4,4,4,0,1,1-8,0,4,4,0,0,1-8,0,4,4,0,1,1-8,0,4,4,0,0,1-4,4l-.47,0a3.4,3.4,0,0,1-2.75-2.09A3.63,3.63,0,0,0,4.54,101L5,101a4,4,0,0,0,4-4,4,4,0,1,0,8,0,4,4,0,1,0,8,0,4,4,0,1,0,8,0,4,4,0,0,0,4,4l.47,0a3.63,3.63,0,0,0,2.75-5.09A3.4,3.4,0,0,1,37.47,98Z"/></g><path class="cls-7" d="M37,102a5,5,0,0,1-4-2,5,5,0,0,1-8,0,5,5,0,0,1-8,0,5,5,0,0,1-8,0,5,5,0,0,1-4,2,4.86,4.86,0,0,1-.59,0A4.41,4.41,0,0,1,.94,99.43a4.75,4.75,0,0,1,.29-4.63L8.15,84.44a1,1,0,0,1,.19-.21l12-10a1,1,0,0,1,1.28,0l12,10a1,1,0,0,1,.19.21l6.91,10.34a4.76,4.76,0,0,1,.3,4.64A4.41,4.41,0,0,1,37.59,102,4.9,4.9,0,0,1,37,102Zm-4-6a1,1,0,0,1,1,1,3,3,0,0,0,3,3l.35,0a2.39,2.39,0,0,0,1.91-1.4,2.8,2.8,0,0,0-.17-2.69L32.28,85.67,21,76.3,9.73,85.67,2.91,95.89a2.79,2.79,0,0,0-.16,2.68A2.39,2.39,0,0,0,4.65,100,3,3,0,0,0,8,97a1,1,0,0,1,2,0,3,3,0,0,0,6,0,1,1,0,0,1,2,0,3,3,0,0,0,6,0,1,1,0,0,1,2,0,3,3,0,1,0,6,0A1,1,0,0,1,33,96Z"/><path class="cls-16" d="M13.7,67.93,6.06,79.34A3.65,3.65,0,0,0,8.54,85L9,85a4,4,0,0,0,4-4,4,4,0,1,0,8,0,4,4,0,1,0,8,0,4,4,0,0,0,4,4l.47,0a3.65,3.65,0,0,0,2.47-5.62L28.31,67.93,21,57.93Z"/><g class="cls-2"><path class="cls-17" d="M33.48,82,33,82a4,4,0,0,1-4-4,4,4,0,0,1-8,0,4,4,0,0,1-8,0,4,4,0,0,1-4,4l-.47,0a3.41,3.41,0,0,1-2.75-2.09A3.63,3.63,0,0,0,8.54,85L9,85a4,4,0,0,0,4-4,4,4,0,0,0,8,0,4,4,0,0,0,8,0,4,4,0,0,0,4,4l.47,0a3.63,3.63,0,0,0,2.75-5.09A3.41,3.41,0,0,1,33.48,82Z"/></g><g class="cls-2"><path class="cls-17" d="M28.31,67.93,21,57.93l-7.31,10-1.91,2.86a3.35,3.35,0,0,0,.75.18L13,71a4,4,0,0,0,4-4,4,4,0,0,0,8,0,4,4,0,0,0,4,4l.47,0a3.35,3.35,0,0,0,.75-.18Z"/></g><path class="cls-7" d="M33,86a5,5,0,0,1-4-2,5,5,0,0,1-8,0,5,5,0,0,1-8,0,5,5,0,0,1-4,2,5.12,5.12,0,0,1-.59,0,4.42,4.42,0,0,1-3.48-2.53,4.75,4.75,0,0,1,.28-4.62l7.65-11.43,0,0,7.31-10a1,1,0,0,1,.81-.41h0a1,1,0,0,1,.81.41l7.31,10,7.66,11.45a4.76,4.76,0,0,1,.29,4.64A4.42,4.42,0,0,1,33.59,86,4.82,4.82,0,0,1,33,86Zm-4-6a1,1,0,0,1,1,1,3,3,0,0,0,3,3l.35,0a2.4,2.4,0,0,0,1.91-1.4,2.76,2.76,0,0,0-.16-2.69l-7.62-11.4L21,59.62,14.52,68.5,6.89,79.9a2.75,2.75,0,0,0-.15,2.67A2.4,2.4,0,0,0,8.65,84,3,3,0,0,0,12,81a1,1,0,0,1,2,0,3,3,0,0,0,6,0,1,1,0,0,1,2,0,3,3,0,0,0,6,0A1,1,0,0,1,29,80Z"/><path class="cls-16" d="M17,64a4,4,0,0,1-4,4l-.47,0a3.63,3.63,0,0,1-2.42-5.64l9.22-14.44a2,2,0,0,1,3.33,0l9.22,14.44A3.63,3.63,0,0,1,29.47,68L29,68a4,4,0,0,1-4-4,4,4,0,1,1-8,0Z"/><path class="cls-16" d="M17,64a4,4,0,0,1-4,4l-.47,0a3.63,3.63,0,0,1-2.42-5.64l9.22-14.44a2,2,0,0,1,3.33,0l9.22,14.44A3.63,3.63,0,0,1,29.47,68L29,68a4,4,0,0,1-4-4,4,4,0,1,1-8,0Z"/><g class="cls-2"><path class="cls-17" d="M29.47,65,29,65a4,4,0,0,1-4-4,4,4,0,0,1-8,0,4,4,0,0,1-4,4l-.47,0A3.38,3.38,0,0,1,9.81,62.9,3.6,3.6,0,0,0,12.54,68L13,68a4,4,0,0,0,4-4,4,4,0,0,0,8,0,4,4,0,0,0,4,4l.47,0A3.6,3.6,0,0,0,32.2,62.9,3.38,3.38,0,0,1,29.47,65Z"/></g><path class="cls-7" d="M29,69a5,5,0,0,1-4-2,5,5,0,0,1-8,0,5,5,0,0,1-4,2,4.86,4.86,0,0,1-.59,0,4.38,4.38,0,0,1-3.48-2.55,4.79,4.79,0,0,1,.35-4.64L18.5,47.35a3,3,0,0,1,5,0l9.23,14.45a4.77,4.77,0,0,1,.34,4.62A4.39,4.39,0,0,1,29.59,69,4.9,4.9,0,0,1,29,69Zm-3-5a3,3,0,0,0,3,3l.35,0a2.37,2.37,0,0,0,1.9-1.41,2.77,2.77,0,0,0-.2-2.69L21.83,48.42a1,1,0,0,0-1.65,0L11,62.86a2.78,2.78,0,0,0-.21,2.7A2.37,2.37,0,0,0,12.65,67,3,3,0,0,0,16,64a1,1,0,0,1,2,0,3,3,0,0,0,6,0,1,1,0,0,1,2,0Z"/><rect class="cls-12" height="7.24" width="5.79" x="109.11" y="87.75"/><path class="cls-7" d="M114.9,96h-5.79a1,1,0,0,1-1-1V87.75a1,1,0,0,1,1-1h5.79a1,1,0,0,1,1,1V95A1,1,0,0,1,114.9,96Zm-4.79-2h3.79V88.75h-3.79Z"/><path class="cls-16" d="M103.3,80.51,98.3,88a2.64,2.64,0,0,0,1.78,4.08l.34,0a2.9,2.9,0,0,0,2.9-2.9,2.9,2.9,0,0,0,5.79,0,2.9,2.9,0,1,0,5.79,0,2.9,2.9,0,0,0,5.79,0,2.9,2.9,0,0,0,2.9,2.9l.34,0A2.64,2.64,0,0,0,125.72,88l-5-7.49L112,73.27Z"/><g class="cls-2"><path class="cls-17" d="M106.21,82.22a3.89,3.89,0,0,0,5.79,0,3.89,3.89,0,0,0,5.79,0,3.89,3.89,0,0,0,2.9,1.29l.46,0a3.39,3.39,0,0,0,1.26-.43l-1.7-2.54L112,73.27l-8.71,7.24-1.7,2.54a3.4,3.4,0,0,0,1.26.43A4,4,0,0,0,106.21,82.22Z"/></g><g class="cls-2"><path class="cls-17" d="M125.69,88a2.41,2.41,0,0,1-1.76,1.11l-.34,0a2.9,2.9,0,0,1-2.9-2.9,2.9,2.9,0,1,1-5.79,0,2.9,2.9,0,0,1-5.79,0,2.9,2.9,0,1,1-5.79,0,2.9,2.9,0,0,1-2.9,2.9l-.34,0A2.41,2.41,0,0,1,98.32,88l0,0a2.64,2.64,0,0,0,1.78,4.08l.34,0a2.9,2.9,0,0,0,2.9-2.9,2.9,2.9,0,1,0,5.79,0,2.9,2.9,0,0,0,5.79,0,2.9,2.9,0,1,0,5.79,0,2.9,2.9,0,0,0,2.9,2.9l.34,0A2.64,2.64,0,0,0,125.72,88Z"/></g><path class="cls-7" d="M123.59,93.1a3.89,3.89,0,0,1-2.9-1.29,3.89,3.89,0,0,1-5.79,0,3.89,3.89,0,0,1-5.79,0,3.89,3.89,0,0,1-5.79,0A4,4,0,0,1,100,93.07a3.47,3.47,0,0,1-2.74-2,3.71,3.71,0,0,1,.23-3.62l5-7.5a1,1,0,0,1,.19-.21l8.71-7.24a1,1,0,0,1,1.28,0l8.71,7.24a1,1,0,0,1,.19.21l5,7.49a3.72,3.72,0,0,1,.24,3.63,3.47,3.47,0,0,1-2.74,2Zm-2.9-4.9a1,1,0,0,1,1,1,1.94,1.94,0,0,0,2.12,1.88,1.46,1.46,0,0,0,1.16-.86,1.75,1.75,0,0,0-.1-1.68L120,81.19l-8-6.62-8,6.62-4.92,7.37A1.74,1.74,0,0,0,99,90.23a1.46,1.46,0,0,0,1.16.86h.22a1.9,1.9,0,0,0,1.9-1.9,1,1,0,0,1,2,0,1.9,1.9,0,0,0,3.79,0,1,1,0,0,1,2,0,1.9,1.9,0,1,0,3.79,0,1,1,0,0,1,2,0,1.9,1.9,0,0,0,3.79,0A1,1,0,0,1,120.7,88.2Z"/><path class="cls-16" d="M106.71,68.15l-5.53,8.27A2.65,2.65,0,0,0,103,80.49l.34,0a2.9,2.9,0,0,0,2.9-2.9,2.9,2.9,0,1,0,5.79,0,2.9,2.9,0,0,0,5.79,0,2.9,2.9,0,0,0,2.9,2.9l.34,0a2.65,2.65,0,0,0,1.79-4.07l-5.53-8.27L112,60.91Z"/><g class="cls-2"><path class="cls-17" d="M122.8,76.38A2.42,2.42,0,0,1,121,77.49l-.34,0a2.9,2.9,0,0,1-2.9-2.9,2.9,2.9,0,1,1-5.79,0,2.9,2.9,0,1,1-5.79,0,2.9,2.9,0,0,1-2.9,2.9l-.34,0a2.42,2.42,0,0,1-1.76-1.12l0,0A2.65,2.65,0,0,0,103,80.49l.34,0a2.9,2.9,0,0,0,2.9-2.9,2.9,2.9,0,1,0,5.79,0,2.9,2.9,0,1,0,5.79,0,2.9,2.9,0,0,0,2.9,2.9l.34,0a2.65,2.65,0,0,0,1.79-4.07Z"/></g><g class="cls-2"><path class="cls-17" d="M117.3,68.15,112,60.91l-5.29,7.24-1.8,2.68a2.36,2.36,0,0,0,1,.35l.34,0a2.9,2.9,0,0,0,2.9-2.9,2.9,2.9,0,0,0,5.79,0,2.9,2.9,0,0,0,2.9,2.9l.34,0a2.36,2.36,0,0,0,1-.35Z"/></g><path class="cls-7" d="M120.7,81.51a3.89,3.89,0,0,1-2.9-1.29,3.89,3.89,0,0,1-5.79,0,3.89,3.89,0,0,1-5.79,0,4,4,0,0,1-3.35,1.27,3.48,3.48,0,0,1-2.74-2,3.72,3.72,0,0,1,.22-3.62l5.54-8.28,0,0,5.29-7.24a1,1,0,0,1,1.62,0l5.29,7.24,5.55,8.3a3.72,3.72,0,0,1,.23,3.63,3.47,3.47,0,0,1-2.74,2Zm-2.9-4.9a1,1,0,0,1,1,1,1.9,1.9,0,0,0,1.9,1.9h.23a1.47,1.47,0,0,0,1.16-.86A1.75,1.75,0,0,0,122,77l-5.52-8.25L112,62.6l-4.47,6.12L102,77a1.72,1.72,0,0,0-.09,1.66,1.47,1.47,0,0,0,1.16.86h.22a1.9,1.9,0,0,0,1.9-1.9,1,1,0,0,1,2,0,1.9,1.9,0,1,0,3.79,0,1,1,0,0,1,2,0,1.9,1.9,0,0,0,3.79,0A1,1,0,0,1,117.8,76.62Z"/><path class="cls-16" d="M109.11,65.31a2.9,2.9,0,0,1-2.9,2.9l-.34,0a2.63,2.63,0,0,1-1.75-4.09l6.68-10.46a1.45,1.45,0,0,1,2.41,0l6.68,10.46a2.63,2.63,0,0,1-1.75,4.09l-.34,0a2.9,2.9,0,0,1-2.9-2.9,2.9,2.9,0,1,1-5.79,0Z"/><path class="cls-16" d="M109.11,65.31a2.9,2.9,0,0,1-2.9,2.9l-.34,0a2.63,2.63,0,0,1-1.75-4.09l6.68-10.46a1.45,1.45,0,0,1,2.41,0l6.68,10.46a2.63,2.63,0,0,1-1.75,4.09l-.34,0a2.9,2.9,0,0,1-2.9-2.9,2.9,2.9,0,1,1-5.79,0Z"/><g class="cls-2"><path class="cls-17" d="M119.88,64.08a2.4,2.4,0,0,1-1.74,1.1l-.34,0a2.9,2.9,0,0,1-2.9-2.9,2.9,2.9,0,0,1-5.79,0,2.9,2.9,0,0,1-2.9,2.9l-.34,0a2.4,2.4,0,0,1-1.74-1.1h0a2.63,2.63,0,0,0,1.75,4.09l.34,0a2.9,2.9,0,0,0,2.9-2.9,2.9,2.9,0,0,0,5.79,0,2.9,2.9,0,0,0,2.9,2.9l.34,0a2.63,2.63,0,0,0,1.75-4.09Z"/></g><path class="cls-7" d="M117.8,69.2a3.89,3.89,0,0,1-2.9-1.29,3.89,3.89,0,0,1-5.79,0,4,4,0,0,1-3.36,1.27,3.45,3.45,0,0,1-2.73-2,3.74,3.74,0,0,1,.27-3.63L110,53.1a2.45,2.45,0,0,1,4.08,0l6.69,10.47a3.73,3.73,0,0,1,.26,3.61,3.45,3.45,0,0,1-2.74,2Zm-1.9-3.9A1.92,1.92,0,0,0,118,67.19a1.45,1.45,0,0,0,1.16-.86,1.73,1.73,0,0,0-.12-1.68l-6.69-10.47A.43.43,0,0,0,112,54a.44.44,0,0,0-.37.2L105,64.63a1.74,1.74,0,0,0-.13,1.69,1.45,1.45,0,0,0,1.16.86,1.87,1.87,0,0,0,2.12-1.88,1,1,0,0,1,2,0,1.9,1.9,0,1,0,3.79,0,1,1,0,0,1,2,0Z"/></g><polygon class="cls-18" points="53.01 117 25.01 117 29.01 107 49.01 107 53.01 117"/><path class="cls-7" d="M53,118H25a1,1,0,0,1-.93-1.37l4-10A1,1,0,0,1,29,106H49a1,1,0,0,1,.93.63l4,10A1,1,0,0,1,53,118Zm-26.52-2h25l-3.2-8H29.69Z"/><circle class="cls-4" cx="39.01" cy="115.01" r="10"/><path class="cls-7" d="M39,126a11,11,0,1,1,11-11A11,11,0,0,1,39,126Zm0-20a9,9,0,1,0,9,9A9,9,0,0,0,39,106Z"/><circle class="cls-10" cx="39.01" cy="115.01" r="5"/><path class="cls-7" d="M39,121a6,6,0,1,1,6-6A6,6,0,0,1,39,121Zm0-10a4,4,0,1,0,4,4A4,4,0,0,0,39,111Z"/><path class="cls-7" d="M39,121a1,1,0,0,1-1-1V110a1,1,0,0,1,2,0v10A1,1,0,0,1,39,121Z"/><path class="cls-7" d="M34.68,118.51a1,1,0,0,1-.5-1.87l8.66-5a1,1,0,0,1,1,1.73l-8.66,5A1,1,0,0,1,34.68,118.51Z"/><path class="cls-7" d="M43.34,118.51a1,1,0,0,1-.5-.13l-8.66-5a1,1,0,0,1,1-1.73l8.66,5a1,1,0,0,1-.5,1.87Z"/><path class="cls-7" d="M39,118a3,3,0,1,1,3-3A3,3,0,0,1,39,118Zm0-4a1,1,0,1,0,1,1A1,1,0,0,0,39,114Z"/><path class="cls-7" d="M39.46,107.25a1,1,0,0,1-.86-.48l-.45-.74a1,1,0,0,1,1.71-1l.45.74a1,1,0,0,1-.86,1.52Z"/><path class="cls-7" d="M39,125.51a1,1,0,0,1-.86-.48l-.45-.74a1,1,0,0,1,1.71-1l.45.74a1,1,0,0,1-.86,1.52Z"/><path class="cls-7" d="M47.77,116.45a1,1,0,0,1-.52-1.86l.74-.45a1,1,0,1,1,1,1.71l-.74.45A1,1,0,0,1,47.77,116.45Z"/><path class="cls-7" d="M29.51,116a1,1,0,0,1-.52-1.86l.74-.45a1,1,0,0,1,1,1.71l-.74.45A1,1,0,0,1,29.51,116Z"/><path class="cls-7" d="M45.52,110.13l-.24,0a1,1,0,0,1-.73-1.21l.21-.84a1,1,0,0,1,1.94.48l-.21.84A1,1,0,0,1,45.52,110.13Z"/><path class="cls-7" d="M32.29,122.72l-.24,0a1,1,0,0,1-.73-1.21l.21-.84a1,1,0,1,1,1.94.48l-.21.84A1,1,0,0,1,32.29,122.72Z"/><path class="cls-7" d="M45.73,122.72l-.24,0-.84-.21a1,1,0,1,1,.48-1.94l.84.21a1,1,0,0,1-.24,2Z"/><path class="cls-7" d="M33.13,109.5l-.24,0-.84-.21a1,1,0,1,1,.48-1.94l.84.21a1,1,0,0,1-.24,2Z"/><path class="cls-7" d="M42.77,108.09a1,1,0,0,1-1-.85l-.13-.86a1,1,0,1,1,2-.3l.13.86a1,1,0,0,1-.84,1.14Z"/><path class="cls-7" d="M35.37,124.78a1,1,0,0,1-1-.85l-.13-.86a1,1,0,1,1,2-.3l.13.86a1,1,0,0,1-.84,1.14Z"/><path class="cls-7" d="M46.93,119.77a1,1,0,0,1-.15-2l.86-.13a1,1,0,0,1,.3,2l-.86.13Z"/><path class="cls-7" d="M30.23,112.37a1,1,0,0,1-.15-2l.86-.13a1,1,0,1,1,.3,2l-.86.13Z"/><path class="cls-7" d="M36.07,107.74a1,1,0,0,1-.59-.19l-.7-.51A1,1,0,0,1,36,105.42l.7.51a1,1,0,0,1-.59,1.81Z"/><path class="cls-7" d="M42.64,124.78a1,1,0,0,1-.59-.2l-.7-.51a1,1,0,1,1,1.19-1.61l.7.51a1,1,0,0,1-.59,1.8Z"/><path class="cls-7" d="M47.27,113.07a1,1,0,0,1-.8-1.59l.51-.7A1,1,0,1,1,48.59,112l-.51.7A1,1,0,0,1,47.27,113.07Z"/><path class="cls-7" d="M30.23,119.64a1,1,0,0,1-.8-1.59l.51-.7a1,1,0,0,1,1.61,1.19l-.51.7A1,1,0,0,1,30.23,119.64Z"/><polygon class="cls-18" points="107.01 117 75.01 117 81.01 102 101.01 102 107.01 117"/><path class="cls-7" d="M107,118H75a1,1,0,0,1-.93-1.37l6-15A1,1,0,0,1,81,101h20a1,1,0,0,1,.93.63l6,15A1,1,0,0,1,107,118Zm-30.52-2h29l-5.2-13H81.69Z"/><circle class="cls-4" cx="91.01" cy="115.01" r="10"/><path class="cls-7" d="M91,126a11,11,0,1,1,11-11A11,11,0,0,1,91,126Zm0-20a9,9,0,1,0,9,9A9,9,0,0,0,91,106Z"/><circle class="cls-10" cx="91.01" cy="115.01" r="5"/><path class="cls-7" d="M91,121a6,6,0,1,1,6-6A6,6,0,0,1,91,121Zm0-10a4,4,0,1,0,4,4A4,4,0,0,0,91,111Z"/><path class="cls-7" d="M91,121a1,1,0,0,1-1-1V110a1,1,0,1,1,2,0v10A1,1,0,0,1,91,121Z"/><path class="cls-7" d="M86.68,118.51a1,1,0,0,1-.5-1.87l8.66-5a1,1,0,0,1,1,1.73l-8.66,5A1,1,0,0,1,86.68,118.51Z"/><path class="cls-7" d="M95.34,118.51a1,1,0,0,1-.5-.13l-8.66-5a1,1,0,0,1,1-1.73l8.66,5a1,1,0,0,1-.5,1.87Z"/><path class="cls-7" d="M91,118a3,3,0,1,1,3-3A3,3,0,0,1,91,118Zm0-4a1,1,0,1,0,1,1A1,1,0,0,0,91,114Z"/><path class="cls-7" d="M91.46,107.25a1,1,0,0,1-.86-.48l-.45-.74a1,1,0,0,1,1.71-1l.45.74a1,1,0,0,1-.86,1.52Z"/><path class="cls-7" d="M91,125.51a1,1,0,0,1-.86-.48l-.45-.74a1,1,0,0,1,1.71-1l.45.74a1,1,0,0,1-.86,1.52Z"/><path class="cls-7" d="M99.77,116.45a1,1,0,0,1-.52-1.86l.74-.45a1,1,0,1,1,1,1.71l-.74.45A1,1,0,0,1,99.77,116.45Z"/><path class="cls-7" d="M81.51,116a1,1,0,0,1-.52-1.86l.74-.45a1,1,0,0,1,1,1.71l-.74.45A1,1,0,0,1,81.51,116Z"/><path class="cls-7" d="M97.52,110.13l-.24,0a1,1,0,0,1-.73-1.21l.21-.84a1,1,0,0,1,1.94.48l-.21.84A1,1,0,0,1,97.52,110.13Z"/><path class="cls-7" d="M84.29,122.72l-.24,0a1,1,0,0,1-.73-1.21l.21-.84a1,1,0,1,1,1.94.48l-.21.84A1,1,0,0,1,84.29,122.72Z"/><path class="cls-7" d="M97.73,122.72l-.24,0-.84-.21a1,1,0,1,1,.48-1.94l.84.21a1,1,0,0,1-.24,2Z"/><path class="cls-7" d="M85.13,109.5l-.24,0-.84-.21a1,1,0,1,1,.48-1.94l.84.21a1,1,0,0,1-.24,2Z"/><path class="cls-7" d="M94.77,108.09a1,1,0,0,1-1-.85l-.13-.86a1,1,0,0,1,2-.3l.13.86a1,1,0,0,1-.84,1.14Z"/><path class="cls-7" d="M87.37,124.78a1,1,0,0,1-1-.85l-.13-.86a1,1,0,1,1,2-.3l.13.86a1,1,0,0,1-.84,1.14Z"/><path class="cls-7" d="M98.93,119.77a1,1,0,0,1-.15-2l.86-.13a1,1,0,1,1,.3,2l-.86.13Z"/><path class="cls-7" d="M82.23,112.37a1,1,0,0,1-.15-2l.86-.13a1,1,0,1,1,.3,2l-.86.13Z"/><path class="cls-7" d="M88.07,107.74a1,1,0,0,1-.59-.19l-.7-.51A1,1,0,0,1,88,105.42l.7.51a1,1,0,0,1-.59,1.81Z"/><path class="cls-7" d="M94.64,124.78a1,1,0,0,1-.59-.2l-.7-.51a1,1,0,1,1,1.19-1.61l.7.51a1,1,0,0,1-.59,1.8Z"/><path class="cls-7" d="M99.27,113.07a1,1,0,0,1-.8-1.59l.51-.7a1,1,0,1,1,1.61,1.19l-.51.7A1,1,0,0,1,99.27,113.07Z"/><path class="cls-7" d="M82.23,119.64a1,1,0,0,1-.8-1.59l.51-.7a1,1,0,1,1,1.61,1.19l-.51.7A1,1,0,0,1,82.23,119.64Z"/><path class="cls-19" d="M100.81,69H25.59a4,4,0,0,0-3.64,2.34L15.48,85.58A20,20,0,0,0,13.92,96.9l2.57,16.72a4,4,0,0,0,4,3.39H25l2-5a8,8,0,0,1,7.43-5h9.17A8,8,0,0,1,51,112l2,5H76l4-10a8,8,0,0,1,7.43-5h7.17a8,8,0,0,1,7.43,5l4,10h3.57a4,4,0,0,0,4-3.39l2.33-15.17A20,20,0,0,0,113,84.66l-8.78-13.8A4,4,0,0,0,100.81,69Z"/><g class="cls-2"><path class="cls-20" d="M14.55,101l1.94,12.62a4,4,0,0,0,4,3.39H25l2-5a8,8,0,0,1,7.43-5h9.17A8,8,0,0,1,51,112l2,5H76l4-10a8,8,0,0,1,7.43-5h7.17a8,8,0,0,1,7.43,5l4,10h3.57a4,4,0,0,0,4-3.39L115.47,101Z"/></g><path class="cls-10" d="M116,93a20,20,0,0,0-3-8.35l-8.78-13.8A4,4,0,0,0,100.81,69H25.59a4,4,0,0,0-3.64,2.34L15.48,85.58A20,20,0,0,0,13.71,93Z"/><g class="cls-2"><path class="cls-21" d="M16.48,113l.07.53a4,4,0,0,0,4,3.47H25l1.6-4Z"/><polygon class="cls-21" points="51.41 113 53.01 117.01 76.01 117.01 77.61 113 51.41 113"/><path class="cls-21" d="M104.41,113l1.6,4h3.5a4,4,0,0,0,4-3.47l.07-.53Z"/></g><path class="cls-7" d="M109.58,118H106a1,1,0,0,1-.93-.63l-4-10a7,7,0,0,0-6.5-4.4H87.42a7,7,0,0,0-6.5,4.4l-4,10A1,1,0,0,1,76,118H53a1,1,0,0,1-.93-.63l-2-5a7,7,0,0,0-6.5-4.4H34.43a7,7,0,0,0-6.5,4.4l-2,5A1,1,0,0,1,25,118H20.44a5,5,0,0,1-4.94-4.24L12.93,97a21,21,0,0,1,1.64-11.88L21,70.94A5,5,0,0,1,25.59,68h75.23A5,5,0,0,1,105,70.32l8.78,13.8a21,21,0,0,1,3,14.47l-2.33,15.17A5,5,0,0,1,109.58,118Zm-2.89-2h2.89a3,3,0,0,0,3-2.54l2.33-15.17a19,19,0,0,0-2.75-13.09l-8.78-13.8A3,3,0,0,0,100.81,70H25.59a3,3,0,0,0-2.73,1.76L16.39,86A19,19,0,0,0,14.9,96.75l2.57,16.72a3,3,0,0,0,3,2.54h3.89l1.74-4.34A9,9,0,0,1,34.43,106h9.17A9,9,0,0,1,52,111.66L53.69,116H75.33l3.74-9.34A9,9,0,0,1,87.42,101h7.17a9,9,0,0,1,8.36,5.66Z"/><path class="cls-13" d="M35.24,63.46c1.28-3.35,1.14-6-1-8.64,4.44.31,6.72.83,10.77,7.83"/><path class="cls-7" d="M35.24,64.46a1,1,0,0,1-.93-1.36c1.21-3.18,1-5.47-.82-7.65a1,1,0,0,1-.11-1.09,1,1,0,0,1,1-.54c5,.35,7.44,1.21,11.56,8.33a1,1,0,1,1-1.73,1C41,57.7,39.1,56.45,36.23,56c1.12,2.27,1.09,4.8-.05,7.8A1,1,0,0,1,35.24,64.46Z"/><path class="cls-7" d="M39,70a1,1,0,0,1-1-1V63.14a1,1,0,0,1,2,0V69A1,1,0,0,1,39,70Z"/><path class="cls-7" d="M11.92,84a1,1,0,0,1-.92-1.4l6.09-14a1,1,0,1,1,1.83.8l-6.09,14A1,1,0,0,1,11.92,84Z"/><path class="cls-7" d="M18.46,80H14.13a1,1,0,1,1,0-2h4.34a1,1,0,1,1,0,2Z"/><path class="cls-7" d="M20.28,76H15.68a1,1,0,1,1,0-2h4.61a1,1,0,0,1,0,2Z"/><path class="cls-7" d="M22.12,72H17.23a1,1,0,0,1,0-2h4.89a1,1,0,0,1,0,2Z"/><path class="cls-7" d="M87,70a1,1,0,0,1-1-1V63.12a1,1,0,0,1,2,0V69A1,1,0,0,1,87,70Z"/><path class="cls-7" d="M101,65.93h-.16a251.15,251.15,0,0,0-75.7-.11,1,1,0,1,1-.29-2,253.08,253.08,0,0,1,76.3.12,1,1,0,0,1-.16,2Z"/><path class="cls-7" d="M116,94H13.7a1,1,0,1,1,0-2H116a1,1,0,0,1,0,2Z"/><path class="cls-8" d="M115.51,117H109l1-5h5.5a2.5,2.5,0,0,1,2.5,2.5h0A2.5,2.5,0,0,1,115.51,117Z"/><path class="cls-7" d="M115.51,118H109a1,1,0,0,1-1-1.2l1-5a1,1,0,0,1,1-.8h5.5a3.5,3.5,0,0,1,0,7Zm-5.28-2h5.28a1.5,1.5,0,0,0,0-3h-4.68Z"/><path class="cls-8" d="M15.51,117H21l-1-5h-4.5a2.5,2.5,0,0,0-2.5,2.5h0A2.5,2.5,0,0,0,15.51,117Z"/><path class="cls-7" d="M21,118h-5.5a3.5,3.5,0,0,1,0-7H20a1,1,0,0,1,1,.8l1,5a1,1,0,0,1-1,1.2Zm-5.5-5a1.5,1.5,0,0,0,0,3h4.28l-.6-3Z"/><path class="cls-8" d="M118,95c0,2.21-.9,4-2,4s-4,0-4-4,2.9-4,4-4S118,92.8,118,95Z"/><path class="cls-6" d="M115,95c0,2.19.87,3.18,1.83,3.62a6.22,6.22,0,0,0,0-7.25C115.88,91.83,115,92.82,115,95Z"/><path class="cls-7" d="M116,100c-4.13,0-5-2.72-5-5s.87-5,5-5c1.71,0,3,2.15,3,5S117.72,100,116,100Zm0-8c-1.52,0-3,.23-3,3s1.48,3,3,3c.25,0,1-1.06,1-3S116.26,92,116,92Z"/><rect class="cls-4" height="20" rx="2" ry="2" width="8" x="7.01" y="83.01"/><path class="cls-7" d="M13,104H9a3,3,0,0,1-3-3V85a3,3,0,0,1,3-3h4a3,3,0,0,1,3,3v16A3,3,0,0,1,13,104ZM9,84a1,1,0,0,0-1,1v16a1,1,0,0,0,1,1h4a1,1,0,0,0,1-1V85a1,1,0,0,0-1-1Z"/><path class="cls-7" d="M7,87.51a1,1,0,0,1-.55-1.84l1.52-1a1,1,0,1,1,1.1,1.67l-1.52,1A1,1,0,0,1,7,87.51Z"/><path class="cls-7" d="M7,93.51a1,1,0,0,1-.55-1.84l1.52-1a1,1,0,1,1,1.1,1.67l-1.52,1A1,1,0,0,1,7,93.51Z"/><path class="cls-7" d="M7,99.51a1,1,0,0,1-.55-1.84l1.52-1a1,1,0,1,1,1.1,1.67l-1.52,1A1,1,0,0,1,7,99.51Z"/><path class="cls-7" d="M7,90.51a1,1,0,0,1-.55-1.84l1.52-1a1,1,0,1,1,1.1,1.67l-1.52,1A1,1,0,0,1,7,90.51Z"/><path class="cls-7" d="M7,96.51a1,1,0,0,1-.55-1.84l1.52-1a1,1,0,1,1,1.1,1.67l-1.52,1A1,1,0,0,1,7,96.51Z"/><path class="cls-7" d="M7.07,102.47a1,1,0,0,1-.55-1.84l1.46-1a1,1,0,1,1,1.1,1.67l-1.46,1A1,1,0,0,1,7.07,102.47Z"/><path class="cls-7" d="M15,87.51a1,1,0,0,1-.55-.16l-1.52-1a1,1,0,1,1,1.1-1.67l1.52,1A1,1,0,0,1,15,87.51Z"/><path class="cls-7" d="M15,93.51a1,1,0,0,1-.55-.16l-1.52-1a1,1,0,1,1,1.1-1.67l1.52,1A1,1,0,0,1,15,93.51Z"/><path class="cls-7" d="M15,99.51a1,1,0,0,1-.55-.16l-1.52-1a1,1,0,1,1,1.1-1.67l1.52,1A1,1,0,0,1,15,99.51Z"/><path class="cls-7" d="M15,90.51a1,1,0,0,1-.55-.16l-1.52-1a1,1,0,1,1,1.1-1.67l1.52,1A1,1,0,0,1,15,90.51Z"/><path class="cls-7" d="M15,96.51a1,1,0,0,1-.55-.16l-1.52-1a1,1,0,1,1,1.1-1.67l1.52,1A1,1,0,0,1,15,96.51Z"/><path class="cls-7" d="M15,102.46a1,1,0,0,1-.55-.16l-1.45-1a1,1,0,1,1,1.1-1.67l1.45,1a1,1,0,0,1-.55,1.84Z"/><polygon class="cls-13" points="49.01 73.01 25.76 73.01 20.14 85.01 49.01 85.01 49.01 73.01"/><polygon class="cls-13" points="79.01 73.01 79.01 85.01 108.08 85.01 100.62 73.01 79.01 73.01"/><polygon class="cls-14" points="49.01 81.95 49.01 78.95 35.54 85.01 42.21 85.01 49.01 81.95"/><polygon class="cls-14" points="20.14 85.01 28.88 85.01 49.01 75.95 49.01 73.01 25.76 73.01 20.14 85.01"/><g class="cls-2"><polygon class="cls-15" points="25.76 73.01 24.22 77.01 49.01 77.01 49.01 73.01 25.76 73.01"/></g><rect class="cls-13" height="12" width="22" x="53.01" y="73.01"/><path class="cls-7" d="M49,86H20.14a1,1,0,0,1-.91-1.42l5.62-12a1,1,0,0,1,.91-.58H49a1,1,0,0,1,1,1V85A1,1,0,0,1,49,86Zm-27.3-2H48V74H26.39Z"/><polygon class="cls-14" points="53.01 80.15 68.88 73.01 62.21 73.01 53.01 77.15 53.01 80.15"/><g class="cls-2"><rect class="cls-15" height="4" width="22" x="53.01" y="73.01"/></g><polygon class="cls-14" points="100.62 73.01 90.43 73.01 79.01 78.15 79.01 85.01 79.32 85.01 101.67 74.95 100.62 73.01"/><g class="cls-2"><polygon class="cls-15" points="100.62 73.01 79.01 73.01 79.01 77.01 102.77 77.01 100.62 73.01"/></g><polygon class="cls-14" points="75.01 79.95 63.77 85.01 75.01 85.01 75.01 79.95"/><path class="cls-7" d="M108.08,86H79a1,1,0,0,1-1-1V73a1,1,0,0,1,1-1h21.61a1,1,0,0,1,.85.47l7.46,12a1,1,0,0,1-.85,1.53ZM80,84h26.27l-6.22-10H80Z"/><path class="cls-7" d="M75,86H53a1,1,0,0,1-1-1V73a1,1,0,0,1,1-1H75a1,1,0,0,1,1,1V85A1,1,0,0,1,75,86ZM54,84H74V74H54Z"/><path class="cls-8" d="M101.73,82.42a1.76,1.76,0,0,0-1.13-2.21A11.67,11.67,0,0,0,97.2,79a1.43,1.43,0,0,0-1.74,1.15,6.73,6.73,0,0,0-.26,2.48,1.48,1.48,0,0,0,1.46,1.18c.86,0,2,.07,2.79.07a2.44,2.44,0,0,0,1.81-.63A3.83,3.83,0,0,0,101.73,82.42Z"/><path class="cls-7" d="M99.46,84.9c-.59,0-1.47,0-2.25-.06l-.57,0a2.47,2.47,0,0,1-2.42-2.06,7.72,7.72,0,0,1,.3-2.9A2.4,2.4,0,0,1,97.31,78,12.68,12.68,0,0,1,101,79.31a2.74,2.74,0,0,1,1.63,3.46h0a4.85,4.85,0,0,1-.6,1.09A3.38,3.38,0,0,1,99.46,84.9ZM96.87,80c-.26,0-.33.1-.45.47a5.73,5.73,0,0,0-.22,2,.52.52,0,0,0,.5.31l.57,0c.75,0,1.6.05,2.18.05a1.9,1.9,0,0,0,1-.25,3,3,0,0,0,.32-.59c.19-.5-.38-.84-.63-1A11.53,11.53,0,0,0,97.09,80Zm4.87,2.42h0Z"/><path class="cls-8" d="M96.86,83.83l-.25,2.4a2.4,2.4,0,0,0,3.81-.35l-.53-2-.42,0C98.77,83.9,97.69,83.86,96.86,83.83Z"/><path class="cls-7" d="M98.37,88a3.3,3.3,0,0,1-2.52-1.12,1,1,0,0,1-.24-.76l.25-2.4a1,1,0,0,1,1-.89h.31c.77,0,1.66.06,2.26.06l.3,0a1,1,0,0,1,1.08.74l.53,2a1,1,0,0,1,0,.65A3.06,3.06,0,0,1,98.94,88,3.72,3.72,0,0,1,98.37,88Zm-.71-2.18a1.51,1.51,0,0,0,1,.16,1.43,1.43,0,0,0,.69-.29l-.21-.79-1.36,0Z"/></svg>