<?xml version="1.0" ?><svg data-name="003" id="_003" viewBox="0 0 128 128" xmlns="http://www.w3.org/2000/svg" xmlns:xlink="http://www.w3.org/1999/xlink"><defs><style>.cls-1{fill:none;}.cls-2{opacity:0.3;}.cls-3{fill:#c9c1f5;}.cls-4{fill:#97c1ff;}.cls-5{fill:#6d6daa;}.cls-6{fill:#fff;}.cls-7{fill:#939fc6;}.cls-8{fill:#fff27d;}.cls-9{opacity:0.5;}.cls-10{fill:#f7a706;}.cls-11{fill:#fff2cc;}.cls-12{fill:#c1a29f;}.cls-13{fill:#d6b5b0;}.cls-14{fill:#eef6ff;}.cls-15{fill:#ff9797;}.cls-16{fill:#fff9e0;}.cls-17{fill:#96d7ff;}.cls-18{fill:#f9e2dc;}.cls-19{fill:#cc7e54;}.cls-20{fill:#ffd599;}.cls-21{fill:#1c64ba;}.cls-22{fill:#ffc661;}.cls-23{fill:#c4a8a5;}.cls-24{fill:#93765f;}.cls-25{fill:#ff99b1;}.cls-26{fill:#d63c74;}.cls-27{clip-path:url(#clip-path);}.cls-28{fill:#89dbba;}.cls-29{fill:#48bc33;}.cls-30{fill:#b1f1a8;}</style><clipPath id="clip-path"><rect class="cls-1" height="28" width="72" x="25" y="23"/></clipPath></defs><title/><g class="cls-2"><path class="cls-3" d="M68.65,10.64a37.45,37.45,0,1,0-49,56.67,19.8,19.8,0,0,1,5.85,21.06,29.53,29.53,0,1,0,57.63,11c.6-8.23,6.46-15.24,14.62-16.51a32.41,32.41,0,0,0-6.39-64.4A32.3,32.3,0,0,1,68.65,10.64Z"/><rect class="cls-4" height="33" rx="2" ry="2" width="48" x="11" y="52"/><path class="cls-5" d="M57,86H13a3,3,0,0,1-3-3V54a3,3,0,0,1,3-3H57a3,3,0,0,1,3,3V83A3,3,0,0,1,57,86ZM13,53a1,1,0,0,0-1,1V83a1,1,0,0,0,1,1H57a1,1,0,0,0,1-1V54a1,1,0,0,0-1-1Z"/><rect class="cls-6" height="6" width="36" x="17" y="71"/><path class="cls-5" d="M53,78H17a1,1,0,0,1-1-1V71a1,1,0,0,1,1-1H53a1,1,0,0,1,1,1v6A1,1,0,0,1,53,78ZM18,76H52V72H18Z"/><rect class="cls-7" height="7" width="48" x="11" y="58"/><path class="cls-5" d="M59,66H11a1,1,0,0,1-1-1V58a1,1,0,0,1,1-1H59a1,1,0,0,1,1,1v7A1,1,0,0,1,59,66ZM12,64H58V59H12Z"/><g class="cls-2"><path class="cls-5" d="M12,63a1,1,0,0,1-1-1,1,1,0,0,1,.08-.38,1.15,1.15,0,0,1,.21-.33,1,1,0,0,1,.9-.27.61.61,0,0,1,.19.06.76.76,0,0,1,.18.09l.15.12a1.15,1.15,0,0,1,.21.33A1,1,0,0,1,13,62a1.05,1.05,0,0,1-.29.71l-.15.12a.76.76,0,0,1-.18.09.62.62,0,0,1-.19.06Z"/><path class="cls-5" d="M14,61a1,1,0,0,1-.71-.29,1,1,0,0,1-.12-.16.54.54,0,0,1-.09-.17A.65.65,0,0,1,13,60.2a1.38,1.38,0,0,1,0-.2,1,1,0,1,1,1,1Z"/><path class="cls-5" d="M16,63a1,1,0,0,1-.71-.29A1,1,0,1,1,17,62a1.26,1.26,0,0,1,0,.2.62.62,0,0,1-.06.18.56.56,0,0,1-.09.17l-.12.16A1,1,0,0,1,16,63Z"/><path class="cls-5" d="M18,61a1,1,0,0,1-.38-.08A1,1,0,0,1,17,60a1,1,0,0,1,.29-.71,1,1,0,0,1,.33-.21,1,1,0,0,1,1.09.21A1,1,0,0,1,18,61Z"/><path class="cls-5" d="M20,63a1.05,1.05,0,0,1-.71-.29,1.15,1.15,0,0,1-.21-.33.94.94,0,0,1,0-.76,1.15,1.15,0,0,1,.21-.33,1,1,0,0,1,1.42,0,1.15,1.15,0,0,1,.21.33.94.94,0,0,1,0,.76,1.15,1.15,0,0,1-.21.33A1,1,0,0,1,20,63Z"/><path class="cls-5" d="M22,61l-.2,0-.18-.06a.76.76,0,0,1-.18-.09,1.53,1.53,0,0,1-.15-.12,1,1,0,0,1,0-1.42l.15-.12a.76.76,0,0,1,.18-.09A.63.63,0,0,1,21.8,59a.85.85,0,0,1,.39,0,.61.61,0,0,1,.19.06.76.76,0,0,1,.18.09l.15.12a1,1,0,0,1,0,1.42l-.15.12a.76.76,0,0,1-.18.09.62.62,0,0,1-.19.06Z"/><path class="cls-5" d="M24,63l-.2,0-.18-.06a.76.76,0,0,1-.18-.09l-.15-.12A1,1,0,0,1,23,62a.83.83,0,0,1,.08-.38,1.15,1.15,0,0,1,.21-.33,1,1,0,0,1,1.42,0,1.15,1.15,0,0,1,.21.33A.85.85,0,0,1,25,62a1,1,0,0,1-1,1Z"/><path class="cls-5" d="M26,61a1.05,1.05,0,0,1-.71-.29,1.2,1.2,0,0,1-.22-.33,1.38,1.38,0,0,1,0-.18.69.69,0,0,1,0-.2,1,1,0,0,1,.29-.71A1,1,0,0,1,27,60a1.26,1.26,0,0,1,0,.2.62.62,0,0,1-.06.18.78.78,0,0,1-.09.18l-.12.15A1.05,1.05,0,0,1,26,61Z"/><path class="cls-5" d="M28,63a1.05,1.05,0,0,1-.71-.29A1,1,0,0,1,27,62a1,1,0,0,1,.08-.38,1.15,1.15,0,0,1,.21-.33,1,1,0,0,1,.9-.27.61.61,0,0,1,.19.06.76.76,0,0,1,.18.09l.15.12a1.15,1.15,0,0,1,.21.33A1,1,0,0,1,29,62a1.26,1.26,0,0,1,0,.2.62.62,0,0,1-.06.18.78.78,0,0,1-.09.18l-.12.15-.15.12a.76.76,0,0,1-.18.09.62.62,0,0,1-.19.06Z"/><path class="cls-5" d="M30,61a1.05,1.05,0,0,1-.71-.29,1.15,1.15,0,0,1-.21-.33A.83.83,0,0,1,29,60a1,1,0,1,1,2,0,1,1,0,0,1-.08.38,1.15,1.15,0,0,1-.21.33A1.05,1.05,0,0,1,30,61Z"/><path class="cls-5" d="M32,63a1.05,1.05,0,0,1-.71-.29,1.68,1.68,0,0,1-.12-.15.74.74,0,0,1-.09-.18A.65.65,0,0,1,31,62.2a1.38,1.38,0,0,1,0-.2.83.83,0,0,1,.08-.38,1.15,1.15,0,0,1,.21-.33,1,1,0,0,1,1.42,0,1.15,1.15,0,0,1,.21.33A1,1,0,0,1,33,62a1.26,1.26,0,0,1,0,.2.62.62,0,0,1-.06.18.78.78,0,0,1-.09.18l-.12.15A1.05,1.05,0,0,1,32,63Z"/><path class="cls-5" d="M34,61a1.05,1.05,0,0,1-.71-.29,1.68,1.68,0,0,1-.12-.15.74.74,0,0,1-.09-.18A.65.65,0,0,1,33,60.2a1,1,0,0,1,0-.4.65.65,0,0,1,.06-.18.74.74,0,0,1,.09-.18,1.55,1.55,0,0,1,.12-.15,1,1,0,0,1,1.42,0l.12.15a.78.78,0,0,1,.09.18.62.62,0,0,1,.06.18,1,1,0,0,1,0,.4.62.62,0,0,1-.06.18.78.78,0,0,1-.09.18l-.12.15A1.05,1.05,0,0,1,34,61Z"/><path class="cls-5" d="M36,63l-.19,0a.61.61,0,0,1-.19-.06.76.76,0,0,1-.18-.09l-.15-.12a1.15,1.15,0,0,1-.21-.33A1,1,0,0,1,35,62a1,1,0,0,1,.29-.71,1.53,1.53,0,0,1,.15-.12.76.76,0,0,1,.18-.09.6.6,0,0,1,.19-.06,1,1,0,0,1,.9.27l.12.15a.78.78,0,0,1,.09.18.62.62,0,0,1,.06.18,1.26,1.26,0,0,1,0,.2,1,1,0,0,1-.08.38,1.15,1.15,0,0,1-.21.33A1.05,1.05,0,0,1,36,63Z"/><path class="cls-5" d="M38,61a1,1,0,0,1-.71-.29A1,1,0,1,1,38,61Z"/><path class="cls-5" d="M40,63a1,1,0,0,1-1-1,.83.83,0,0,1,.08-.38,1,1,0,0,1,1.84,0A1,1,0,0,1,41,62a1,1,0,0,1-1,1Z"/><path class="cls-5" d="M42,61a1.05,1.05,0,0,1-.71-.29,1.68,1.68,0,0,1-.12-.15.74.74,0,0,1-.09-.18A.65.65,0,0,1,41,60.2a1.38,1.38,0,0,1,0-.2,1,1,0,0,1,.29-.71,1,1,0,0,1,.33-.21,1,1,0,0,1,1.09.21A1.05,1.05,0,0,1,43,60a1.26,1.26,0,0,1,0,.2.62.62,0,0,1-.06.18.78.78,0,0,1-.09.18l-.12.15A1.05,1.05,0,0,1,42,61Z"/><path class="cls-5" d="M44,63a1,1,0,0,1-.38-.08,1,1,0,0,1-.33-.21,1,1,0,0,1-.12-.16.54.54,0,0,1-.09-.17A.65.65,0,0,1,43,62.2a1.53,1.53,0,0,1,0-.2,1,1,0,0,1,1.71-.71l.12.15a.78.78,0,0,1,.09.18.62.62,0,0,1,.06.18,1,1,0,0,1,0,.4.62.62,0,0,1-.06.18.56.56,0,0,1-.09.17l-.12.16A1.05,1.05,0,0,1,44,63Z"/><path class="cls-5" d="M46,61a1,1,0,0,1-.38-.08.9.9,0,0,1-.54-.54.94.94,0,0,1,0-.76,1,1,0,0,1,1.84,0,.94.94,0,0,1,0,.76,1,1,0,0,1-.21.33A1.05,1.05,0,0,1,46,61Z"/><path class="cls-5" d="M48,63l-.2,0-.18-.06a.76.76,0,0,1-.18-.09l-.15-.12a1.68,1.68,0,0,1-.12-.15.74.74,0,0,1-.09-.18A.65.65,0,0,1,47,62.2a1.53,1.53,0,0,1,0-.2,1,1,0,0,1,.29-.71l.15-.12a.76.76,0,0,1,.18-.09A.63.63,0,0,1,47.8,61a.85.85,0,0,1,.39,0,.61.61,0,0,1,.19.06.76.76,0,0,1,.18.09l.15.12A1.05,1.05,0,0,1,49,62a1.39,1.39,0,0,1,0,.2.62.62,0,0,1-.06.18.78.78,0,0,1-.09.18l-.12.15-.15.12a.76.76,0,0,1-.18.09.62.62,0,0,1-.19.06Z"/><path class="cls-5" d="M50,61l-.2,0-.18-.06a.76.76,0,0,1-.18-.09l-.15-.12a1,1,0,0,1,0-1.42l.15-.12a.76.76,0,0,1,.18-.09A.63.63,0,0,1,49.8,59a.85.85,0,0,1,.39,0,.61.61,0,0,1,.19.06.76.76,0,0,1,.18.09l.15.12a1,1,0,0,1,0,1.42l-.15.12a.76.76,0,0,1-.18.09.62.62,0,0,1-.19.06Z"/><path class="cls-5" d="M52,63a1.05,1.05,0,0,1-.71-.29,1.15,1.15,0,0,1-.21-.33.94.94,0,0,1,0-.76,1.15,1.15,0,0,1,.21-.33,1,1,0,0,1,.9-.27.61.61,0,0,1,.19.06.56.56,0,0,1,.17.09l.16.12a1,1,0,0,1,0,1.42l-.16.12a.56.56,0,0,1-.17.09.62.62,0,0,1-.19.06Z"/><path class="cls-5" d="M54,61a1,1,0,0,1-1-1,.83.83,0,0,1,.08-.38.93.93,0,0,1,.21-.33,1,1,0,0,1,.9-.27.61.61,0,0,1,.19.06.56.56,0,0,1,.17.09l.16.12a1,1,0,0,1,0,1.42l-.16.12a.56.56,0,0,1-.17.09.62.62,0,0,1-.19.06Z"/><path class="cls-5" d="M56,63a1,1,0,0,1-.38-.08,1,1,0,0,1-.33-.21A1,1,0,0,1,55,62a1.54,1.54,0,0,1,0-.2.65.65,0,0,1,.06-.18.74.74,0,0,1,.09-.18,1.55,1.55,0,0,1,.12-.15,1,1,0,0,1,.33-.21.93.93,0,0,1,.57-.06.61.61,0,0,1,.19.06.56.56,0,0,1,.17.09l.16.12.12.15a.78.78,0,0,1,.09.18.62.62,0,0,1,.06.18,1.39,1.39,0,0,1,0,.2,1.05,1.05,0,0,1-.29.71,1,1,0,0,1-.16.12.56.56,0,0,1-.17.09.62.62,0,0,1-.19.06Z"/><path class="cls-5" d="M58,61l-.2,0-.18-.06a.76.76,0,0,1-.18-.09,1.53,1.53,0,0,1-.15-.12A1,1,0,0,1,57,60a1.25,1.25,0,0,1,0-.19.62.62,0,0,1,.06-.19.74.74,0,0,1,.09-.18,1.55,1.55,0,0,1,.12-.15,1,1,0,0,1,1.09-.21.56.56,0,0,1,.17.09l.16.12.12.15a.78.78,0,0,1,.09.18.59.59,0,0,1,.06.19A1.14,1.14,0,0,1,59,60a1.05,1.05,0,0,1-.29.71,1,1,0,0,1-.33.21A1,1,0,0,1,58,61Z"/><path class="cls-5" d="M14,65a1,1,0,0,1-.71-.29,1,1,0,0,1-.12-.16.54.54,0,0,1-.09-.17A.65.65,0,0,1,13,64.2a1.38,1.38,0,0,1,0-.2,1,1,0,1,1,1,1Z"/><path class="cls-5" d="M18,65a1,1,0,0,1-.38-.08A1,1,0,0,1,17,64a1,1,0,0,1,.29-.71,1,1,0,0,1,.33-.21,1,1,0,0,1,1.09.21A1,1,0,0,1,18,65Z"/><path class="cls-5" d="M22,65l-.2,0-.18-.06a.76.76,0,0,1-.18-.09,1.53,1.53,0,0,1-.15-.12,1,1,0,0,1,0-1.42l.15-.12a.76.76,0,0,1,.18-.09A.63.63,0,0,1,21.8,63a1,1,0,0,1,.39,0,.61.61,0,0,1,.19.06.76.76,0,0,1,.18.09l.15.12a1,1,0,0,1,0,1.42l-.15.12a.76.76,0,0,1-.18.09.62.62,0,0,1-.19.06Z"/><path class="cls-5" d="M26,65a1.05,1.05,0,0,1-.71-.29,1,1,0,0,1,0-1.42A1,1,0,1,1,26,65Z"/><path class="cls-5" d="M30,65a1.05,1.05,0,0,1-.71-.29,1.15,1.15,0,0,1-.21-.33A.83.83,0,0,1,29,64a1.38,1.38,0,0,1,0-.2.65.65,0,0,1,.06-.18.74.74,0,0,1,.09-.18,1.55,1.55,0,0,1,.12-.15,1,1,0,0,1,1.42,0l.12.15a.78.78,0,0,1,.09.18.62.62,0,0,1,.06.18,1.26,1.26,0,0,1,0,.2,1,1,0,0,1-.08.38,1.15,1.15,0,0,1-.21.33A1.05,1.05,0,0,1,30,65Z"/><path class="cls-5" d="M34,65a1.05,1.05,0,0,1-.71-.29,1.15,1.15,0,0,1-.21-.33A.83.83,0,0,1,33,64a1.38,1.38,0,0,1,0-.2.65.65,0,0,1,.06-.18.74.74,0,0,1,.09-.18,1.55,1.55,0,0,1,.12-.15,1,1,0,0,1,1.42,0l.12.15a.78.78,0,0,1,.09.18.62.62,0,0,1,.06.18,1.26,1.26,0,0,1,0,.2,1,1,0,0,1-.08.38,1.15,1.15,0,0,1-.21.33A1.05,1.05,0,0,1,34,65Z"/><path class="cls-5" d="M38,65a1.05,1.05,0,0,1-.71-.29,1,1,0,0,1-.21-.33A1,1,0,0,1,37,64a1,1,0,1,1,2,0,1,1,0,0,1-.08.38,1,1,0,0,1-.21.33A1.05,1.05,0,0,1,38,65Z"/><path class="cls-5" d="M42,65a1,1,0,0,1-.38-.08.9.9,0,0,1-.54-.54A.83.83,0,0,1,41,64a1.38,1.38,0,0,1,0-.2.65.65,0,0,1,.06-.18.74.74,0,0,1,.09-.18,1.55,1.55,0,0,1,.12-.15,1,1,0,0,1,1.42,0l.12.15a.78.78,0,0,1,.09.18.62.62,0,0,1,.06.18,1.26,1.26,0,0,1,0,.2,1,1,0,0,1-.08.38,1,1,0,0,1-.21.33,1,1,0,0,1-.33.21A1,1,0,0,1,42,65Z"/><path class="cls-5" d="M46,65a1,1,0,0,1-.38-.08,1,1,0,0,1-.33-.21,1,1,0,0,1,0-1.42,1,1,0,0,1,.33-.21,1,1,0,0,1,1.09.21A1,1,0,0,1,46,65Z"/><path class="cls-5" d="M50,65l-.2,0-.18-.06a.76.76,0,0,1-.18-.09,1.53,1.53,0,0,1-.15-.12A1,1,0,0,1,49,64a.83.83,0,0,1,.08-.38,1,1,0,0,1,.21-.33,1.53,1.53,0,0,1,.15-.12.76.76,0,0,1,.18-.09A.63.63,0,0,1,49.8,63a.85.85,0,0,1,.39,0,.61.61,0,0,1,.19.06.76.76,0,0,1,.18.09l.15.12a1,1,0,0,1,.21.33A1,1,0,0,1,51,64a1.05,1.05,0,0,1-.29.71l-.15.12a.76.76,0,0,1-.18.09.62.62,0,0,1-.19.06Z"/><path class="cls-5" d="M54,65a.84.84,0,0,1-.38-.08,1,1,0,0,1-.33-.21,1,1,0,0,1,0-1.42,1,1,0,0,1,.33-.21.93.93,0,0,1,.57-.06.61.61,0,0,1,.19.06.56.56,0,0,1,.17.09l.16.12a1,1,0,0,1,0,1.42l-.16.12a.56.56,0,0,1-.17.09.62.62,0,0,1-.19.06Z"/><path class="cls-5" d="M58,65a1,1,0,0,1-.71-.29,1,1,0,0,1,0-1.42,1,1,0,0,1,1.09-.21.56.56,0,0,1,.17.09,1,1,0,0,1,.16.12,1,1,0,0,1,0,1.42l-.16.12a.56.56,0,0,1-.17.09A1,1,0,0,1,58,65Z"/></g><path class="cls-8" d="M21.79,9.89l-19,19a2.79,2.79,0,0,0,0,3.95L14.23,44.22a2.79,2.79,0,0,0,3.95,0l19-19V9.89Zm8.38,9.78A2.79,2.79,0,1,1,33,16.87,2.79,2.79,0,0,1,30.17,19.66Z"/><path class="cls-6" d="M21.79,9.89l-19,19a2.79,2.79,0,0,0-.38,3.47,2.8,2.8,0,0,1,.38-.47l20-20H37.15v-2Z"/><g class="cls-9"><path class="cls-10" d="M14.23,41.22,2.82,29.81a2.77,2.77,0,0,1-.63-1,2.79,2.79,0,0,0,.63,3L14.23,43.22a2.79,2.79,0,0,0,3.95,0l19-19v-2l-19,19A2.79,2.79,0,0,1,14.23,41.22Z"/></g><path class="cls-5" d="M16.2,46a3.78,3.78,0,0,1-2.68-1.11L2.11,33.52a3.79,3.79,0,0,1,0-5.36l19-19a1,1,0,0,1,.71-.29H37.15a1,1,0,0,1,1,1V25.25a1,1,0,0,1-.29.71l-19,19A3.78,3.78,0,0,1,16.2,46Zm6-35.15L3.53,29.57a1.79,1.79,0,0,0,0,2.54L14.94,43.51a1.8,1.8,0,0,0,2.54,0L36.15,24.83V10.89Zm8,9.77A3.79,3.79,0,1,1,34,16.87,3.8,3.8,0,0,1,30.17,20.66Zm0-5.59A1.79,1.79,0,1,0,32,16.87,1.8,1.8,0,0,0,30.17,15.08Z"/><path class="cls-5" d="M37.15,17.87a1,1,0,0,1,0-2,2.2,2.2,0,0,0,1.3-.42,1,1,0,1,1,1.15,1.64A4.19,4.19,0,0,1,37.15,17.87Zm-7,0h0a1,1,0,0,1-1-1c0-.71,0-1.41.09-2.09a1,1,0,1,1,2,.18c-.06.61-.08,1.25-.09,1.91A1,1,0,0,1,30.17,17.83Zm10.68-2.89A1,1,0,0,1,40,13.5a12.17,12.17,0,0,0,.67-1.72,1,1,0,1,1,1.91.59,14.39,14.39,0,0,1-.78,2A1,1,0,0,1,40.85,14.93ZM30.77,12.88a1,1,0,0,1-1-1.25,15.41,15.41,0,0,1,.68-2,1,1,0,1,1,1.85.77,13.76,13.76,0,0,0-.59,1.76A1,1,0,0,1,30.77,12.88Zm11.17-2.75a1,1,0,0,1-1-.84,3.74,3.74,0,0,0-.57-1.46,1,1,0,1,1,1.67-1.09A5.69,5.69,0,0,1,42.93,9a1,1,0,0,1-.83,1.14ZM32.87,8.38a1,1,0,0,1-.8-1.6,11.86,11.86,0,0,1,.81-1,6.18,6.18,0,0,1,.74-.68,1,1,0,0,1,1.22,1.58,4.27,4.27,0,0,0-.5.46,10,10,0,0,0-.67.8A1,1,0,0,1,32.87,8.38Zm6.09-2a1,1,0,0,1-.4-.08A3.94,3.94,0,0,0,37,6a1,1,0,0,1,0-2h0a5.86,5.86,0,0,1,2.34.49A1,1,0,0,1,39,6.37Z"/><path class="cls-5" d="M19.27,31.38a3.6,3.6,0,0,1-2.57-6.11,1,1,0,0,1,1.41,1.41,1.59,1.59,0,0,0,2.25,2.25c.86-.86-.05-2.56-.06-2.58-.63-1.12-1.27-3.42.27-5a3.51,3.51,0,0,1,2.53-1,3.62,3.62,0,0,1,3.59,3.58,3.52,3.52,0,0,1-1,2.53,1,1,0,0,1-1.41-1.41,1.53,1.53,0,0,0,.45-1.1,1.62,1.62,0,0,0-1.6-1.6,1.42,1.42,0,0,0-1.1.45c-.86.86.05,2.56.06,2.57.63,1.12,1.27,3.42-.27,5A3.53,3.53,0,0,1,19.27,31.38Z"/><path class="cls-5" d="M24.92,23.12a1,1,0,0,1-.71-1.71l1.06-1.06a1,1,0,0,1,1.41,1.41l-1.06,1.06A1,1,0,0,1,24.92,23.12Z"/><path class="cls-5" d="M16.2,31.83a1,1,0,0,1-.71-1.71l1.22-1.22a1,1,0,0,1,1.41,1.41l-1.22,1.22A1,1,0,0,1,16.2,31.83Z"/><path class="cls-5" d="M15.51,36a1,1,0,0,1-.71-.29l-3.49-3.49a1,1,0,1,1,1.41-1.41l3.49,3.49A1,1,0,0,1,15.51,36Z"/><path class="cls-5" d="M15.51,40.21a1,1,0,0,1-.71-.29L7.12,32.24a1,1,0,1,1,1.41-1.41l7.68,7.68a1,1,0,0,1-.71,1.71Z"/><polygon class="cls-6" points="119 124 119 116 127 116 119 124"/><polygon class="cls-11" points="119 124 93 124 93 90 127 90 127 116 119 116 119 124"/><g class="cls-2"><rect class="cls-12" height="5" width="34" x="93" y="90"/></g><path class="cls-5" d="M119,125a1,1,0,0,1-1-1v-8a1,1,0,0,1,1-1h8a1,1,0,0,1,.71,1.71l-8,8A1,1,0,0,1,119,125Zm1-8v4.59l4.59-4.59Z"/><path class="cls-5" d="M119,125H93a1,1,0,0,1-1-1V90a1,1,0,0,1,1-1h34a1,1,0,0,1,1,1v26a1,1,0,0,1-1,1h-7v7A1,1,0,0,1,119,125Zm-25-2h24v-7a1,1,0,0,1,1-1h7V91H94Z"/><polygon class="cls-13" points="63 118 56 115 63 112 65 115 63 118"/><path class="cls-5" d="M63,119a1,1,0,0,1-.39-.08l-7-3a1,1,0,0,1,0-1.84l7-3a1,1,0,0,1,1.23.36l2,3a1,1,0,0,1,0,1.11l-2,3A1,1,0,0,1,63,119Zm-4.46-4,4.09,1.75L63.8,115l-1.17-1.75Z"/><polygon class="cls-8" points="101 118 63 118 65 115 63 112 101 112 101 118"/><g class="cls-9"><polygon class="cls-10" points="101 115 65 115 64 116.5 65 118 101 118 101 115"/></g><path class="cls-5" d="M101,119H63a1,1,0,0,1-.83-1.55L63.8,115l-1.63-2.45A1,1,0,0,1,63,111h38a1,1,0,0,1,1,1v6A1,1,0,0,1,101,119Zm-36.13-2H100v-4H64.87l1,1.45a1,1,0,0,1,0,1.11Z"/><rect class="cls-14" height="6" width="4" x="101" y="112"/><path class="cls-5" d="M105,119h-4a1,1,0,0,1-1-1v-6a1,1,0,0,1,1-1h4a1,1,0,0,1,1,1v6A1,1,0,0,1,105,119Zm-3-2h2v-4h-2Z"/><path class="cls-15" d="M109,118h-4v-6h4a3,3,0,0,1,3,3h0A3,3,0,0,1,109,118Z"/><g class="cls-2"><path class="cls-16" d="M112,115a3,3,0,0,0-3-3h-3a3,3,0,0,1,0,6h3A3,3,0,0,0,112,115Z"/></g><path class="cls-5" d="M109,119h-4a1,1,0,0,1-1-1v-6a1,1,0,0,1,1-1h4a4,4,0,0,1,0,8Zm-3-2h3a2,2,0,0,0,0-4h-3Z"/><rect class="cls-14" height="33" rx="2" ry="2" width="45" x="3" y="91"/><path class="cls-6" d="M3,93v1H48V93a2,2,0,0,0-2-2H5A2,2,0,0,0,3,93Z"/><path class="cls-5" d="M46,125H5a3,3,0,0,1-3-3V93a3,3,0,0,1,3-3H46a3,3,0,0,1,3,3v29A3,3,0,0,1,46,125ZM5,92a1,1,0,0,0-1,1v29a1,1,0,0,0,1,1H46a1,1,0,0,0,1-1V93a1,1,0,0,0-1-1Z"/><rect class="cls-17" height="21" width="18" x="7" y="95"/><path class="cls-18" d="M16.53,112.78H15.47a2.31,2.31,0,0,1-1.63-.68l-1.41-1.41a2.31,2.31,0,0,1-.68-1.63V104.9a2.52,2.52,0,0,1,2.52-2.52h3.45a2.52,2.52,0,0,1,2.52,2.52v4.16a2.31,2.31,0,0,1-.68,1.63l-1.41,1.41A2.31,2.31,0,0,1,16.53,112.78Z"/><g class="cls-2"><path class="cls-19" d="M18.16,111.25a2.31,2.31,0,0,1-1.63.68H15.47a2.31,2.31,0,0,1-1.63-.68l-1.41-1.41a2.31,2.31,0,0,1-.68-1.63v.85a2.31,2.31,0,0,0,.68,1.63l1.41,1.41a2.31,2.31,0,0,0,1.63.68h1.06a2.31,2.31,0,0,0,1.63-.68l1.41-1.41a2.31,2.31,0,0,0,.68-1.63v-.85a2.31,2.31,0,0,1-.68,1.63Z"/></g><g class="cls-2"><path class="cls-19" d="M17.72,102.38H14.28a2.52,2.52,0,0,0-2.52,2.52v.66c0-1.27,2.12-2.33,3.82-2.33a1.91,1.91,0,0,0-.64,2.13c2.06-1.52,2.9-.13,4.59-.5.71-.15.71,1.33.71,1.33v-1.3A2.52,2.52,0,0,0,17.72,102.38Z"/></g><path class="cls-20" d="M18.24,100.4a4.1,4.1,0,0,1,2.5,5c-.11.38-.42,0-.5.21,0,0,0-1.48-.71-1.33-1.7.36-2.53-1-4.59.5a1.91,1.91,0,0,1,.64-2.13c-1.7,0-3.82,1.06-3.82,2.33,0,0-.59-.43-.64-.85-.21-1.91.81-2.85,2.48-3.58.32-.14.08-2,.43-1.68C15,99.74,17.48,100,18.24,100.4Z"/><g class="cls-2"><path class="cls-19" d="M15.58,102c-1.7,0-3.82,1.06-3.82,2.33,0,0-.59-.43-.64-.85,0-.05,0-.1,0-.15a4,4,0,0,0,0,.79c0,.42.64.85.64.85,0-1.14,1.71-2.11,3.28-2.3A2,2,0,0,1,15.58,102Z"/><path class="cls-19" d="M20.74,104.71c-.11.38-.42,0-.5.21,0,0,0-1.48-.71-1.33-1.7.36-2.53-1-4.59.5a.85.85,0,0,1-.09-.25,1.32,1.32,0,0,0,.09.89c2.06-1.52,2.9-.13,4.59-.5.71-.15.71,1.33.71,1.33.08-.16.38.16.5-.21a4,4,0,0,0,.17-1.53A4.29,4.29,0,0,1,20.74,104.71Z"/></g><path class="cls-18" d="M20.24,105.56h0a.85.85,0,0,1,.85.85v.42a.85.85,0,0,1-.85.85h0a0,0,0,0,1,0,0v-2.12A0,0,0,0,1,20.24,105.56Z"/><path class="cls-18" d="M10.91,105.56h0a.85.85,0,0,1,.85.85v.42a.85.85,0,0,1-.85.85h0a0,0,0,0,1,0,0v-2.12a0,0,0,0,1,0,0Z" transform="translate(22.67 213.25) rotate(-180)"/><path class="cls-5" d="M20.24,106.56l-.22,0a1,1,0,0,1-.78-1,2.38,2.38,0,0,0,0-.28,5.27,5.27,0,0,1-1.58-.16,2.07,2.07,0,0,0-2.11.41,1,1,0,0,1-1.45-.29,2.12,2.12,0,0,1-.26-1.24c-.63.3-1.06.69-1.06.92a1,1,0,0,1-1.59.81,2.49,2.49,0,0,1-1-1.55,4.13,4.13,0,0,1,2.66-4.41c0-.1,0-.21,0-.29,0-.64.07-1.36.76-1.63a1.08,1.08,0,0,1,1.15.24,7.43,7.43,0,0,0,2.6,1,8.51,8.51,0,0,1,1.34.41h0a5.09,5.09,0,0,1,3,6.15,1.21,1.21,0,0,1-1.23.9ZM16.83,103a5.66,5.66,0,0,1,1.24.17,2.76,2.76,0,0,0,1.25.09,1.51,1.51,0,0,1,.43,0,3.86,3.86,0,0,0-1.94-1.92h0a9,9,0,0,0-1-.29,16.1,16.1,0,0,1-2.1-.64,1.28,1.28,0,0,1-.72,1,3.83,3.83,0,0,0-1.56,1.06,6.45,6.45,0,0,1,3.14-.88,1,1,0,0,1,.91,1.42Z"/><path class="cls-5" d="M20.24,108.68a1,1,0,0,1-1-1v-2.12a1,1,0,0,1,1-1,1.85,1.85,0,0,1,1.85,1.85v.42A1.85,1.85,0,0,1,20.24,108.68Z"/><path class="cls-5" d="M11.76,108.68a1.85,1.85,0,0,1-1.85-1.85v-.42a1.85,1.85,0,0,1,1.85-1.85,1,1,0,0,1,1,1v2.12A1,1,0,0,1,11.76,108.68Z"/><path class="cls-6" d="M13.67,100.47a3,3,0,0,1-.42,1.27"/><path class="cls-5" d="M13.24,102.74a1,1,0,0,1-.89-1.44,2.6,2.6,0,0,0,.32-.83,1,1,0,1,1,2,0,3.82,3.82,0,0,1-.53,1.71A1,1,0,0,1,13.24,102.74Z"/><path class="cls-5" d="M16.53,113.78H15.47a3.29,3.29,0,0,1-2.34-1l-1.41-1.41a3.28,3.28,0,0,1-1-2.34V104.9a1,1,0,0,1,2,0v4.16a1.3,1.3,0,0,0,.38.92l1.41,1.41a1.3,1.3,0,0,0,.92.38h1.06a1.3,1.3,0,0,0,.92-.38L18.86,110a1.3,1.3,0,0,0,.38-.92v-3.5a1,1,0,0,1,2,0v3.5a3.28,3.28,0,0,1-1,2.34l-1.41,1.41A3.29,3.29,0,0,1,16.53,113.78Z"/><path class="cls-5" d="M14.5,108a1,1,0,1,1,1-1,1,1,0,0,1-.29.71A1.05,1.05,0,0,1,14.5,108Z"/><path class="cls-5" d="M17.5,108a1,1,0,0,1-.71-.29,1,1,0,0,1,0-1.42,1,1,0,0,1,.9-.27.61.61,0,0,1,.19.06.56.56,0,0,1,.17.09l.15.12a1,1,0,0,1,0,1.42A1,1,0,0,1,17.5,108Z"/><g class="cls-2"><rect class="cls-21" height="3" width="18" x="7" y="95"/></g><g class="cls-2"><polygon class="cls-6" points="25 100.48 7 108.95 7 111.95 25 103.48 25 100.48"/></g><g class="cls-2"><polygon class="cls-6" points="25 95 7 95 7 106.53 25 98.17 25 95"/></g><path class="cls-5" d="M25,117H7a1,1,0,0,1-1-1V95a1,1,0,0,1,1-1H25a1,1,0,0,1,1,1v21A1,1,0,0,1,25,117ZM8,115H24V96H8Z"/><g class="cls-9"><path class="cls-5" d="M36,98H29a1,1,0,0,1,0-2h7a1,1,0,0,1,0,2Z"/><path class="cls-5" d="M44,102H29a1,1,0,0,1,0-2H44a1,1,0,0,1,0,2Z"/><path class="cls-5" d="M44,109H29a1,1,0,0,1,0-2H44a1,1,0,0,1,0,2Z"/><path class="cls-5" d="M9,121H7a1,1,0,0,1,0-2H9a1,1,0,0,1,0,2Z"/><path class="cls-5" d="M14,121H12a1,1,0,0,1,0-2h2a1,1,0,0,1,0,2Z"/><path class="cls-5" d="M19,121H17a1,1,0,0,1,0-2h2a1,1,0,0,1,0,2Z"/><path class="cls-5" d="M24,121H22a1,1,0,0,1,0-2h2a1,1,0,0,1,0,2Z"/><path class="cls-5" d="M29,121H27a1,1,0,0,1,0-2h2a1,1,0,0,1,0,2Z"/><path class="cls-5" d="M34,121H32a1,1,0,0,1,0-2h2a1,1,0,0,1,0,2Z"/><path class="cls-5" d="M39,121H37a1,1,0,0,1,0-2h2a1,1,0,0,1,0,2Z"/><path class="cls-5" d="M44,121H42a1,1,0,0,1,0-2h2a1,1,0,0,1,0,2Z"/><path class="cls-5" d="M32,113H29a1,1,0,0,1,0-2h3a1,1,0,0,1,0,2Z"/><path class="cls-5" d="M44,113H35a1,1,0,0,1,0-2h9a1,1,0,0,1,0,2Z"/></g><circle class="cls-22" cx="59.01" cy="24" r="9"/><path class="cls-5" d="M59,34A10,10,0,1,1,69,24,10,10,0,0,1,59,34Zm0-18a8,8,0,1,0,8,8A8,8,0,0,0,59,16Z"/><circle class="cls-8" cx="59.01" cy="24" r="5"/><path class="cls-5" d="M59,30a6,6,0,1,1,6-6A6,6,0,0,1,59,30Zm0-10a4,4,0,1,0,4,4A4,4,0,0,0,59,20Z"/><circle class="cls-22" cx="81.01" cy="22" r="9"/><path class="cls-5" d="M81,32A10,10,0,1,1,91,22,10,10,0,0,1,81,32Zm0-18a8,8,0,1,0,8,8A8,8,0,0,0,81,14Z"/><circle class="cls-8" cx="81.01" cy="22" r="5"/><path class="cls-5" d="M81,28a6,6,0,1,1,6-6A6,6,0,0,1,81,28Zm0-10a4,4,0,1,0,4,4A4,4,0,0,0,81,18Z"/><circle class="cls-22" cx="71.01" cy="16" r="9"/><path class="cls-5" d="M71,26A10,10,0,1,1,81,16,10,10,0,0,1,71,26ZM71,8a8,8,0,1,0,8,8A8,8,0,0,0,71,8Z"/><circle class="cls-8" cx="71.01" cy="16" r="5"/><path class="cls-5" d="M71,22a6,6,0,1,1,6-6A6,6,0,0,1,71,22Zm0-10a4,4,0,1,0,4,4A4,4,0,0,0,71,12Z"/><circle class="cls-22" cx="113.01" cy="16" r="9"/><path class="cls-5" d="M113,26a10,10,0,1,1,10-10A10,10,0,0,1,113,26Zm0-18a8,8,0,1,0,8,8A8,8,0,0,0,113,8Z"/><circle class="cls-8" cx="113.01" cy="16" r="5"/><path class="cls-5" d="M113,22a6,6,0,1,1,6-6A6,6,0,0,1,113,22Zm0-10a4,4,0,1,0,4,4A4,4,0,0,0,113,12Z"/></g><path class="cls-23" d="M25,48h0a3,3,0,0,0,3,3h3V99H97a4,4,0,0,0,4-4V49a4,4,0,0,0-4-4H28A3,3,0,0,0,25,48Z"/><g class="cls-2"><path class="cls-24" d="M32,51a3,3,0,0,1,0-6H28a3,3,0,0,0,0,6h4Z"/></g><path class="cls-5" d="M97,100H31a1,1,0,0,1-1-1V52H28a4,4,0,0,1,0-8H97a5,5,0,0,1,5,5V95A5,5,0,0,1,97,100ZM32,98H97a3,3,0,0,0,3-3V49a3,3,0,0,0-3-3H28a2,2,0,0,0,0,4h3a1,1,0,0,1,1,1Z"/><path class="cls-25" d="M104,95h-3V85h3a1,1,0,0,1,1,1v8A1,1,0,0,1,104,95Z"/><g class="cls-2"><path class="cls-16" d="M101,85v3h4V86a1,1,0,0,0-1-1Z"/></g><g class="cls-2"><path class="cls-26" d="M101,95h3a1,1,0,0,0,1-1V92h-4Z"/></g><path class="cls-5" d="M104,96h-3a1,1,0,0,1-1-1V85a1,1,0,0,1,1-1h3a2,2,0,0,1,2,2v8A2,2,0,0,1,104,96Zm-2-2h2V86h-2Z"/><g class="cls-27"><rect class="cls-28" height="41.36" transform="translate(-27.13 36.07) rotate(-32.88)" width="79.26" x="7.93" y="43.33"/><g class="cls-2"><rect class="cls-29" height="20.67" transform="translate(-30.94 40.51) rotate(-32.88)" width="79.26" x="13.54" y="62.35"/></g><path class="cls-30" d="M82.11,54a5.17,5.17,0,0,0-1.54,7.15l-49.2,31.8a5.17,5.17,0,0,0-7.15-1.54L13,74a5.17,5.17,0,0,0,1.54-7.15l49.2-31.8a5.17,5.17,0,0,0,7.15,1.54Z"/><g class="cls-2"><path class="cls-29" d="M18.63,82.73l5.6,8.66a5.17,5.17,0,0,1,7.15,1.54l49.2-31.8A5.17,5.17,0,0,1,82.11,54l-5.6-8.66Z"/></g><path class="cls-5" d="M31.38,93.93a1,1,0,0,1-.84-.46,4.17,4.17,0,0,0-5.77-1.24,1,1,0,0,1-1.38-.3L12.17,74.57a1,1,0,0,1,.3-1.38,4.17,4.17,0,0,0,1.24-5.77A1,1,0,0,1,14,66l49.2-31.8a1,1,0,0,1,1.38.3,4.17,4.17,0,0,0,5.76,1.24,1,1,0,0,1,1.38.3L83,53.43a1,1,0,0,1-.3,1.38,4.17,4.17,0,0,0-1.24,5.77,1,1,0,0,1-.3,1.38l-49.2,31.8A1,1,0,0,1,31.38,93.93ZM27,89.57a6.18,6.18,0,0,1,4.58,2L79.26,60.78a6.19,6.19,0,0,1,1.51-7L70.55,37.93a6.17,6.17,0,0,1-7-1.51L15.86,67.22a6.19,6.19,0,0,1-1.51,7L24.57,90.08A6.13,6.13,0,0,1,27,89.57Z"/><ellipse class="cls-28" cx="48.5" cy="65.45" rx="11.03" ry="13.79" transform="translate(-27.76 36.81) rotate(-32.88)"/><path class="cls-5" d="M50.91,79.49a12.58,12.58,0,0,1-4-.67A16.6,16.6,0,0,1,38.39,72C34,65.13,34.9,56.63,40.47,53a11,11,0,0,1,9.6-1,16.61,16.61,0,0,1,8.53,6.84h0A16.6,16.6,0,0,1,61.33,69.5a11,11,0,0,1-4.81,8.36A10.24,10.24,0,0,1,50.91,79.49ZM46.09,53.41a8.27,8.27,0,0,0-4.54,1.3c-4.64,3-5.31,10.26-1.48,16.18a14.6,14.6,0,0,0,7.48,6A8.55,8.55,0,0,0,59.34,69.3,14.59,14.59,0,0,0,56.92,60h0a14.6,14.6,0,0,0-7.48-6A10.56,10.56,0,0,0,46.09,53.41Z"/><circle class="cls-28" cx="28.75" cy="76.16" r="2.58" transform="translate(-36.74 27.81) rotate(-32.88)"/><path class="cls-5" d="M28.75,79.75a3.58,3.58,0,1,1,3-5.53h0a3.58,3.58,0,0,1-3,5.53Zm0-5.17a1.58,1.58,0,1,0,1.33.72A1.57,1.57,0,0,0,28.74,74.58Z"/><circle class="cls-5" cx="10.2" cy="69.69" r="0.86" transform="translate(-36.2 16.7) rotate(-32.88)"/><path class="cls-5" d="M10.2,71.55a1.86,1.86,0,1,1,1.56-2.87h0a1.86,1.86,0,0,1-1.56,2.87Zm.11-1.94-.23.15a.14.14,0,0,0,.19,0,.14.14,0,0,0,.06-.09A.14.14,0,0,0,10.31,69.61Zm-.12-.06-.07,0a.14.14,0,0,0,0,.19l.23-.15A.14.14,0,0,0,10.2,69.55Z"/><circle class="cls-5" cx="27.04" cy="95.74" r="0.86" transform="matrix(0.84, -0.54, 0.54, 0.84, -47.64, 30.01)"/><path class="cls-5" d="M27,97.6a1.87,1.87,0,0,1-.39,0,1.86,1.86,0,1,1,2-2.83h0A1.86,1.86,0,0,1,27,97.6Zm-.12-1.79a.16.16,0,0,0,.19,0,.14.14,0,0,0,0-.19.16.16,0,0,0-.19,0,.14.14,0,0,0-.06.09A.14.14,0,0,0,26.92,95.81Zm0,0h0Z"/><circle class="cls-5" cx="68.09" cy="32.26" r="0.86" transform="translate(-6.61 42.13) rotate(-32.88)"/><path class="cls-5" d="M68.09,34.13a1.86,1.86,0,1,1,1.56-2.87h0a1.86,1.86,0,0,1-1.56,2.87Zm.11-1.94-.23.15a.14.14,0,0,0,.19,0A.16.16,0,0,0,68.21,32.19Zm-.12-.06-.08,0a.14.14,0,0,0,0,.19l.23-.15h0A.14.14,0,0,0,68.09,32.13Z"/><circle class="cls-5" cx="84.93" cy="58.32" r="0.86" transform="translate(-18.05 55.45) rotate(-32.88)"/><path class="cls-5" d="M84.93,60.18a1.89,1.89,0,0,1-.4,0,1.86,1.86,0,1,1,2-2.83h0a1.86,1.86,0,0,1-1.56,2.87ZM85,58.24l-.23.15a.14.14,0,0,0,.19,0A.16.16,0,0,0,85,58.24Zm-.12-.06-.08,0a.14.14,0,0,0,0,.19l.23-.15h0a.14.14,0,0,0-.09-.06Z"/><path class="cls-30" d="M56.43,69.36l-.6.22a.75.75,0,0,1-.95-.3c-.21-.36-.45-.73-.7-1.11-.57-.88-.2-2.62-.94-3.9a5.93,5.93,0,0,0-.75-2.38,1.24,1.24,0,0,0-.75-.61c-.21-.52-.45-1.05-.69-1.61-.94-2.25-2.58-3.25-4.76-2.73-.78.19-3.73,1.44-5.33,1.12-.58-.12.92,1.68.69,2a3.85,3.85,0,0,0,.52,5.32c.41.44.8.88,1.19,1.29a1.24,1.24,0,0,0,.25.93,5.93,5.93,0,0,0,1.86,1.66c.86,1.2,2.56,1.51,3.17,2.45.25.38.48.75.72,1.09a.75.75,0,0,1-.11,1l-.51.5a12.62,12.62,0,0,0-2.41,3.19,10.54,10.54,0,0,0,8.64.07A9.73,9.73,0,0,0,56,77h0L56,77a9.73,9.73,0,0,0,.86-.64,10.55,10.55,0,0,0,3.49-7.94A12,12,0,0,0,56.43,69.36Z"/><path class="cls-5" d="M50.91,79.48a12.89,12.89,0,0,1-5-1,1,1,0,0,1-.5-1.38A13.72,13.72,0,0,1,48,73.61l.38-.37c-.21-.3-.41-.62-.63-1a3.53,3.53,0,0,0-1.06-.75,6.34,6.34,0,0,1-2-1.49,6.72,6.72,0,0,1-2-1.87,2.54,2.54,0,0,1-.42-1.09l-.37-.4-.54-.59c-1.83-2-2.11-4-.85-6.19l-.25-.45c-.39-.68-.77-1.33-.32-2a1.1,1.1,0,0,1,1.13-.42c1,.19,2.92-.47,4-.82.41-.14.74-.25.94-.29,2.62-.62,4.77.59,5.91,3.32l.31.74.21.5a2.53,2.53,0,0,1,.82.83A6.71,6.71,0,0,1,54.21,64a6.74,6.74,0,0,1,.57,2.44A3.72,3.72,0,0,0,55,67.63c.21.33.42.65.61,1l.43-.16a13,13,0,0,1,4.27-1,1,1,0,0,1,.75.28,1,1,0,0,1,.3.74,11.49,11.49,0,0,1-3.84,8.68,10.76,10.76,0,0,1-1,.71l-.1.07a10.81,10.81,0,0,1-1.08.6A10.4,10.4,0,0,1,50.91,79.48ZM47.81,77a9.19,9.19,0,0,0,6.74-.31,8.54,8.54,0,0,0,.88-.49,9.79,9.79,0,0,0,.84-.62,9.18,9.18,0,0,0,3-6,11.74,11.74,0,0,0-2.49.75l0,0-.6.22A1.75,1.75,0,0,1,54,69.78c-.2-.34-.43-.7-.67-1.07a4.67,4.67,0,0,1-.55-2.12,4.67,4.67,0,0,0-.41-1.82,1,1,0,0,1-.13-.38,5,5,0,0,0-.6-2,.67.67,0,0,0-.16-.19.94.94,0,0,1-.68-.59c-.11-.27-.23-.56-.36-.84l-.32-.76c-.77-1.83-1.94-2.53-3.6-2.14-.16,0-.43.13-.76.24a19.05,19.05,0,0,1-3.36.9,1.51,1.51,0,0,1,.09,1.58c-1,1.56-.89,2.7.41,4.09l.56.6.63.68a1,1,0,0,1,.25.89h0s0,.07.11.19A5.05,5.05,0,0,0,46,68.44a1,1,0,0,1,.29.27,4.34,4.34,0,0,0,1.44,1.08,4.68,4.68,0,0,1,1.76,1.41c.24.37.47.73.7,1.05a1.76,1.76,0,0,1-.25,2.3l-.5.48A12.4,12.4,0,0,0,47.81,77Zm.75-3.88h0Zm7.87-3.75h0Zm-.69-.59h0Zm-.29-.12h0Z"/><path class="cls-28" d="M66.62,68.1l-5.79,3.75a12.87,12.87,0,0,0-6.72,2.29,12.87,12.87,0,0,0-4.85,5.19l-5.79,3.74,3.74,5.78,23.15-15Z"/><path class="cls-5" d="M47.21,89.85l-.21,0a1,1,0,0,1-.63-.43l-3.74-5.79a1,1,0,0,1,.3-1.38l5.54-3.58a14.17,14.17,0,0,1,5.09-5.35,14.18,14.18,0,0,1,7-2.45l5.55-3.59a1,1,0,0,1,1.38.3l3.74,5.78a1,1,0,0,1-.3,1.38l-23.15,15A1,1,0,0,1,47.21,89.85Zm-2.36-6.49,2.65,4.11L69,73.59l-2.65-4.1-5,3.2a1,1,0,0,1-.56.16h-.08A12.11,12.11,0,0,0,54.65,75a12,12,0,0,0-4.47,4.75,1,1,0,0,1-.37.44Z"/><line class="cls-28" x1="36.36" x2="27.68" y1="78.42" y2="84.03"/><path class="cls-5" d="M27.68,85a1,1,0,0,1-.54-1.84l8.68-5.61a1,1,0,1,1,1.09,1.68l-8.68,5.61A1,1,0,0,1,27.68,85Z"/><circle class="cls-28" cx="66.38" cy="51.84" r="2.58" transform="translate(-17.51 44.34) rotate(-32.88)"/><path class="cls-5" d="M66.38,55.42a3.62,3.62,0,0,1-.76-.08,3.58,3.58,0,1,1,3.76-5.45h0a3.59,3.59,0,0,1-3,5.53Zm0-5.17a1.59,1.59,0,1,0,1.33.73h0a1.57,1.57,0,0,0-1-.69A1.6,1.6,0,0,0,66.37,50.25Z"/><line class="cls-28" x1="73.99" x2="65.31" y1="54.1" y2="59.71"/><path class="cls-5" d="M65.31,60.71a1,1,0,0,1-.54-1.84l8.67-5.61a1,1,0,1,1,1.09,1.68l-8.67,5.61A1,1,0,0,1,65.31,60.71Z"/><line class="cls-28" x1="65.59" x2="48.23" y1="72.86" y2="84.08"/><path class="cls-5" d="M48.24,85.08a1,1,0,0,1-.54-1.84L65.05,72a1,1,0,1,1,1.09,1.68L48.78,84.92A1,1,0,0,1,48.24,85.08Z"/><path class="cls-5" d="M25.5,103.88a1,1,0,0,1-.84-.46L2.21,68.69a1,1,0,0,1,.3-1.38l66.57-43a1,1,0,0,1,1.38.3L92.91,59.31a1,1,0,0,1-.3,1.38L26,103.72A1,1,0,0,1,25.5,103.88ZM4.43,68.45,25.8,101.5,90.69,59.56,69.32,26.51Z"/><rect class="cls-28" height="41.36" transform="translate(-22.06 28.47) rotate(-25.52)" width="79.26" x="12.19" y="42.25"/><g class="cls-2"><rect class="cls-29" height="20.67" transform="translate(-25.64 31.3) rotate(-25.52)" width="79.26" x="16.64" y="61.92"/></g><path class="cls-30" d="M87.37,57.4a5.17,5.17,0,0,0-2.44,6.89L32.07,89.54a5.17,5.17,0,0,0-6.89-2.44L16.27,68.44a5.17,5.17,0,0,0,2.44-6.89L71.57,36.31a5.17,5.17,0,0,0,6.89,2.44Z"/><ellipse class="cls-28" cx="52.56" cy="64.48" rx="11.03" ry="13.79" transform="translate(-22.65 28.94) rotate(-25.52)"/><path class="cls-30" d="M59.93,69.37l-.63.14a.75.75,0,0,1-.9-.42c-.16-.38-.35-.78-.55-1.19-.45-.95.14-2.63-.43-4A5.93,5.93,0,0,0,57,61.46a1.24,1.24,0,0,0-.67-.7c-.14-.54-.31-1.1-.47-1.68-.64-2.35-2.14-3.55-4.37-3.32-.8.08-3.88,1-5.43.43-.56-.19.7,1.78.43,2.1a3.85,3.85,0,0,0-.17,5.34c.35.49.68,1,1,1.43a1.24,1.24,0,0,0,.13,1,5.93,5.93,0,0,0,1.63,1.89c.7,1.3,2.35,1.83,2.83,2.84.19.41.38.81.58,1.17a.75.75,0,0,1-.24,1l-.57.43a12.62,12.62,0,0,0-2.8,2.86,10.54,10.54,0,0,0,8.56,1.17,9.73,9.73,0,0,0,1.05-.42h0l.07,0a9.73,9.73,0,0,0,.93-.52A10.55,10.55,0,0,0,64,68.93,12,12,0,0,0,59.93,69.37Z"/><g class="cls-2"><path class="cls-29" d="M20.73,77.8l4.44,9.31a5.17,5.17,0,0,1,6.89,2.44L84.93,64.3a5.17,5.17,0,0,1,2.44-6.89L82.93,48.1Z"/></g><path class="cls-5" d="M54.56,78.8a12.09,12.09,0,0,1-5.27-1.27,17.32,17.32,0,0,1-8.94-18.72,11,11,0,0,1,5.84-7.68c6-2.86,13.71.8,17.23,8.16h0a16.6,16.6,0,0,1,1.36,10.85,11,11,0,0,1-5.84,7.68A10.1,10.1,0,0,1,54.56,78.8Zm-4-26.65a8.1,8.1,0,0,0-3.51.78,9,9,0,0,0-4.75,6.33,15.33,15.33,0,0,0,7.86,16.47,8.55,8.55,0,0,0,12.67-6,14.6,14.6,0,0,0-1.21-9.53C59.25,55.22,54.78,52.16,50.56,52.16Z"/><path class="cls-5" d="M32.07,90.54a1,1,0,0,1-.9-.57,4.18,4.18,0,0,0-5.56-2,1,1,0,0,1-1.33-.47L15.36,68.88a1,1,0,0,1,.47-1.33,4.18,4.18,0,0,0,2-5.56,1,1,0,0,1,.47-1.33L71.14,35.41a1,1,0,0,1,1.33.47,4.17,4.17,0,0,0,5.56,2,1,1,0,0,1,1.33.47L88.27,57a1,1,0,0,1-.47,1.33,4.17,4.17,0,0,0-2,5.56,1,1,0,0,1-.47,1.33L32.5,90.44A1,1,0,0,1,32.07,90.54ZM27.39,85.6a6.19,6.19,0,0,1,5.07,2.64L83.67,63.79A6.18,6.18,0,0,1,86.07,57L78,40a6.18,6.18,0,0,1-6.79-2.4L20,62.06a6.19,6.19,0,0,1-2.4,6.78l8.12,17A6.11,6.11,0,0,1,27.39,85.6Z"/><circle class="cls-28" cx="31.6" cy="72.58" r="2.58" transform="translate(-28.19 20.7) rotate(-25.52)"/><path class="cls-5" d="M31.61,76.16A3.59,3.59,0,1,1,34.84,71h0a3.59,3.59,0,0,1-3.23,5.13Zm0-5.17a1.58,1.58,0,1,0,1.43.9h0A1.59,1.59,0,0,0,31.6,71Z"/><circle class="cls-5" cx="14.03" cy="63.78" r="0.86" transform="translate(-26.11 12.27) rotate(-25.52)"/><path class="cls-5" d="M14,65.64a1.86,1.86,0,1,1,.8-.18A1.86,1.86,0,0,1,14,65.64Zm0-2H14a.14.14,0,1,0,.06,0Z"/><circle class="cls-5" cx="27.4" cy="91.77" r="0.86" transform="translate(-36.87 20.76) rotate(-25.52)"/><path class="cls-5" d="M27.4,93.63A1.86,1.86,0,1,1,29.08,91h0a1.86,1.86,0,0,1-1.68,2.66Zm-.13-1.8a.14.14,0,1,0,.25-.12.14.14,0,0,0-.18-.06.16.16,0,0,0-.07.18Z"/><circle class="cls-5" cx="76.24" cy="34.07" r="0.86" transform="translate(-7.24 36.18) rotate(-25.52)"/><path class="cls-5" d="M76.25,35.94a1.86,1.86,0,1,1,1.68-2.66h0a1.86,1.86,0,0,1-1.68,2.66Zm-.13-1.8a.14.14,0,0,0,.18.07.16.16,0,0,0,.07-.18.14.14,0,0,0-.18-.07.16.16,0,0,0-.07.18Z"/><path class="cls-5" d="M54.56,78.8A12.4,12.4,0,0,1,48.37,77a1,1,0,0,1-.32-1.44,13.7,13.7,0,0,1,3-3.09l.43-.32c-.17-.32-.33-.67-.5-1a3.53,3.53,0,0,0-1-.88,6.35,6.35,0,0,1-1.74-1.73,6.69,6.69,0,0,1-1.76-2.11,2.51,2.51,0,0,1-.27-1.13l-.33-.46-.45-.64C43.92,62,43.9,60,45.44,58c-.06-.15-.13-.34-.19-.47-.3-.73-.59-1.42-.06-2a1.1,1.1,0,0,1,1.17-.27c.94.31,3-.09,4-.3.42-.08.77-.15,1-.17,2.68-.28,4.66,1.2,5.44,4l.22.77.15.52a2.52,2.52,0,0,1,.71.93,6.72,6.72,0,0,1,.54,2.7,6.72,6.72,0,0,1,.26,2.5,3.74,3.74,0,0,0,.08,1.25c.17.35.33.7.48,1l.45-.1a13,13,0,0,1,4.37-.47A1,1,0,0,1,65,69.08,11.49,11.49,0,0,1,60,77.2a10.79,10.79,0,0,1-1,.58l-.13.06a10.44,10.44,0,0,1-1.13.45A10.2,10.2,0,0,1,54.56,78.8Zm-4.16-3a9.18,9.18,0,0,0,6.72.55,8.77,8.77,0,0,0,.93-.37,10,10,0,0,0,.91-.51,9.18,9.18,0,0,0,3.79-5.6,11.7,11.7,0,0,0-2.57.42h0l-.63.14a1.75,1.75,0,0,1-2-1c-.16-.37-.34-.75-.53-1.15a4.65,4.65,0,0,1-.27-2.17,4.67,4.67,0,0,0-.18-1.86,1,1,0,0,1-.08-.39,5,5,0,0,0-.34-2,.69.69,0,0,0-.13-.21.93.93,0,0,1-.6-.67c-.08-.29-.16-.58-.25-.88l-.22-.8c-.52-1.92-1.6-2.76-3.3-2.59-.17,0-.44.08-.79.14a19,19,0,0,1-3.45.46,1.51,1.51,0,0,1-.11,1.58C46,60.35,46,61.5,47.11,63.05l.46.66.54.76a1,1,0,0,1,.14.91h0s0,.07.08.2a5,5,0,0,0,1.36,1.54,1,1,0,0,1,.25.31,4.36,4.36,0,0,0,1.29,1.26,4.68,4.68,0,0,1,1.56,1.63c.19.4.37.78.56,1.14a1.76,1.76,0,0,1-.54,2.25l-.55.42A12.34,12.34,0,0,0,50.4,75.84Zm1.24-3.75h0Zm8.29-2.72h0Zm-.88-.82h0Z"/><circle class="cls-5" cx="89.61" cy="62.07" r="0.86" transform="translate(-18 44.67) rotate(-25.52)"/><path class="cls-5" d="M89.61,63.93a1.86,1.86,0,1,1,1.68-2.66h0a1.86,1.86,0,0,1-1.68,2.66ZM89.73,62l-.25.12a.14.14,0,0,0,.25-.12Zm-.12-.08h-.06a.14.14,0,0,0-.07.18l.25-.12h0A.14.14,0,0,0,89.61,61.93Z"/><path class="cls-28" d="M70.2,69.43,64,72.4a12.87,12.87,0,0,0-7,1.41,12.87,12.87,0,0,0-5.47,4.52l-6.22,3,3,6.22L73.17,75.64Z"/><path class="cls-5" d="M48.29,88.52a1,1,0,0,1-.9-.57l-3-6.22a1,1,0,0,1,.47-1.33l6-2.85a14.16,14.16,0,0,1,5.73-4.65,14.12,14.12,0,0,1,7.22-1.53l6-2.85A1,1,0,0,1,71.1,69l3,6.22a1,1,0,0,1-.47,1.33L48.72,88.42A1,1,0,0,1,48.29,88.52Zm-1.64-6.74,2.11,4.41,23.07-11-2.11-4.41L64.4,73.3a1,1,0,0,1-.57.09,12,12,0,0,0-6.38,1.32,12,12,0,0,0-5,4.13,1,1,0,0,1-.43.39Z"/><line class="cls-28" x1="38.86" x2="29.54" y1="75.79" y2="80.24"/><path class="cls-5" d="M29.54,81.24a1,1,0,0,1-.43-1.9l9.32-4.45a1,1,0,1,1,.86,1.8L30,81.15A1,1,0,0,1,29.54,81.24Z"/><circle class="cls-28" cx="72.04" cy="53.27" r="2.58" transform="translate(-15.92 36.24) rotate(-25.52)"/><path class="cls-5" d="M72,56.86a3.59,3.59,0,1,1,3.23-5.13h0A3.59,3.59,0,0,1,72,56.86Zm0-5.17a1.59,1.59,0,1,0,1.43.9h0a1.59,1.59,0,0,0-1.43-.9Z"/><line class="cls-28" x1="79.29" x2="69.97" y1="56.49" y2="60.94"/><path class="cls-5" d="M70,61.94a1,1,0,0,1-.43-1.9l9.32-4.45a1,1,0,0,1,.86,1.8L70.4,61.84A1,1,0,0,1,70,61.94Z"/><line class="cls-28" x1="68.57" x2="49.92" y1="74.02" y2="82.93"/><path class="cls-5" d="M49.92,83.93a1,1,0,0,1-.43-1.9l18.65-8.91a1,1,0,0,1,.86,1.8L50.35,83.83A1,1,0,0,1,49.92,83.93Z"/><path class="cls-5" d="M25,99.66a1,1,0,0,1-.9-.57L6.24,61.77a1,1,0,0,1,.47-1.33L78.24,26.28a1,1,0,0,1,1.33.47L97.4,64.07a1,1,0,0,1-.47,1.33L25.39,99.56A1,1,0,0,1,25,99.66ZM8.48,61.81l17,35.51L95.16,64l-17-35.51Z"/></g><rect class="cls-3" height="33" rx="2" ry="2" transform="translate(-14.19 43.24) rotate(-25.88)" width="48" x="63" y="36"/><path class="cls-5" d="M73.54,78.15a3,3,0,0,1-2.7-1.69L58.18,50.37a3,3,0,0,1,1.39-4l39.59-19.2a3,3,0,0,1,4,1.39l12.66,26.09a3,3,0,0,1-1.39,4h0L74.84,77.85A3,3,0,0,1,73.54,78.15Zm26.92-49.3a1,1,0,0,0-.43.1L60.44,48.16A1,1,0,0,0,60,49.49L72.63,75.58A1,1,0,0,0,74,76l39.59-19.2a1,1,0,0,0,.46-1.34L101.37,29.42A1,1,0,0,0,100.46,28.85ZM114,57.74h0Z"/><rect class="cls-6" height="6" transform="translate(-16.11 44.78) rotate(-25.88)" width="36" x="71.4" y="54.45"/><path class="cls-5" d="M74.51,69a1,1,0,0,1-.33-.06,1,1,0,0,1-.57-.51L71,63a1,1,0,0,1,.46-1.34L103.85,46a1,1,0,0,1,1.34.46l2.62,5.4a1,1,0,0,1-.46,1.34L75,68.9A1,1,0,0,1,74.51,69Zm-1.28-5.94L75,66.67l30.59-14.84-1.75-3.6Z"/><rect class="cls-7" height="7" transform="translate(-11.75 41.27) rotate(-25.88)" width="48" x="59.94" y="42.7"/><path class="cls-5" d="M63.88,60.83a1,1,0,0,1-.33-.06,1,1,0,0,1-.57-.51L59.92,54a1,1,0,0,1,.46-1.34l43.19-21a1,1,0,0,1,1.34.46l3.05,6.3a1,1,0,0,1-.46,1.34l-43.19,21A1,1,0,0,1,63.88,60.83ZM62.16,54l2.18,4.5,41.39-20.08-2.18-4.5Z"/><g class="cls-2"><path class="cls-5" d="M63.47,57.69a1.05,1.05,0,0,1-.71-.29,1,1,0,0,1-.29-.71,1,1,0,1,1,1.71.71l-.16.12a.55.55,0,0,1-.17.09l-.18.06Z"/><path class="cls-5" d="M64.4,55a1,1,0,0,1-1-1,1,1,0,0,1,.08-.38,1,1,0,0,1,.22-.33,1,1,0,0,1,1.41,0,1,1,0,0,1,.22.33A1,1,0,0,1,64.4,55Z"/><path class="cls-5" d="M67.07,55.94a1,1,0,0,1-.71-.29,1,1,0,0,1,0-1.41,1,1,0,0,1,1.42,0,1,1,0,0,1,0,1.41,1.21,1.21,0,0,1-.33.22A1,1,0,0,1,67.07,55.94Z"/><path class="cls-5" d="M68,53.27a1,1,0,0,1-.7-.29,1,1,0,0,1-.3-.71,1,1,0,0,1,.3-.7,1,1,0,0,1,1.41,0,1,1,0,0,1,.3.7,1,1,0,0,1-1,1Z"/><path class="cls-5" d="M70.67,54.2a1,1,0,0,1-1-1,1,1,0,0,1,.07-.38,1,1,0,0,1,.22-.33l.15-.12a1.11,1.11,0,0,1,.36-.15,1,1,0,0,1,.9.27,1,1,0,0,1-.7,1.71Z"/><path class="cls-5" d="M71.59,51.53l-.19,0a1,1,0,0,1-.19-.06L71,51.36a.64.64,0,0,1-.15-.13.88.88,0,0,1-.22-.32,1,1,0,0,1-.08-.38,1.05,1.05,0,0,1,.08-.39.88.88,0,0,1,.22-.32,1,1,0,0,1,1.41,0,1,1,0,0,1,.22.32,1,1,0,0,1,.07.39,1,1,0,0,1-.29.7A1,1,0,0,1,71.59,51.53Z"/><path class="cls-5" d="M74.27,52.45a1,1,0,0,1-.71-.29,1,1,0,0,1-.3-.71,1,1,0,0,1,.3-.7,1,1,0,0,1,1.41,0,1,1,0,0,1-.7,1.7Z"/><path class="cls-5" d="M75.19,49.78a1.05,1.05,0,0,1-.71-.29l-.12-.15a.78.78,0,0,1-.09-.18.65.65,0,0,1-.06-.18,1.4,1.4,0,0,1,0-.2,1,1,0,0,1,1.71-.71,1,1,0,0,1,0,1.42l-.15.12a.76.76,0,0,1-.18.09.61.61,0,0,1-.18.06Z"/><path class="cls-5" d="M77.87,50.71a1,1,0,0,1-1-1,1,1,0,0,1,.3-.71,1,1,0,0,1,1.41,0,1,1,0,0,1,.29.71,1,1,0,0,1-.29.7A1,1,0,0,1,77.87,50.71Z"/><path class="cls-5" d="M78.79,48a1,1,0,0,1-.38-.07,1.19,1.19,0,0,1-.33-.22,1,1,0,0,1-.29-.71,1,1,0,0,1,.29-.7A1.05,1.05,0,0,1,79,46l.18.06.18.09.15.13a1,1,0,0,1,.21.32.84.84,0,0,1,.08.38,1,1,0,0,1-1,1Z"/><path class="cls-5" d="M81.46,49a1,1,0,0,1-.7-.29,1,1,0,0,1-.3-.71,1,1,0,0,1,.3-.71,1,1,0,0,1,1.41,0,1,1,0,0,1,0,1.42A1,1,0,0,1,81.46,49Z"/><path class="cls-5" d="M82.39,46.29A1,1,0,1,1,83.1,46,1.05,1.05,0,0,1,82.39,46.29Z"/><path class="cls-5" d="M85.06,47.21a1,1,0,0,1-.71-1.7,1,1,0,0,1,1.42,0,1,1,0,0,1,0,1.41A1,1,0,0,1,85.06,47.21Z"/><path class="cls-5" d="M86,44.54a1,1,0,0,1-.71-.29,1.21,1.21,0,0,1-.22-.32,1.07,1.07,0,0,1-.07-.39,1,1,0,0,1,.07-.38,1.47,1.47,0,0,1,.22-.33,1.06,1.06,0,0,1,1.42,0,1.18,1.18,0,0,1,.21.33,1,1,0,0,1,.08.38,1.09,1.09,0,0,1-.08.39,1,1,0,0,1-.92.61Z"/><path class="cls-5" d="M88.66,45.47l-.19,0a.58.58,0,0,1-.19-.06.56.56,0,0,1-.17-.09L88,45.18a1,1,0,0,1-.3-.71,1,1,0,0,1,.3-.71A1,1,0,0,1,89,43.55a1,1,0,0,1,.33.21,1.68,1.68,0,0,1,.12.15.78.78,0,0,1,.09.18.65.65,0,0,1,.06.18,1.38,1.38,0,0,1,0,.2,1.05,1.05,0,0,1-.29.71,1.15,1.15,0,0,1-.33.21A1,1,0,0,1,88.66,45.47Z"/><path class="cls-5" d="M89.59,42.8a1,1,0,0,1-.71-.3,1,1,0,0,1-.22-.32,1,1,0,0,1,.22-1.09,1,1,0,0,1,1.41,0l.13.15a.68.68,0,0,1,.09.17.81.81,0,0,1,.06.19,1.27,1.27,0,0,1,0,.2,1,1,0,0,1-.08.38.88.88,0,0,1-.22.32A1,1,0,0,1,89.59,42.8Z"/><path class="cls-5" d="M92.26,43.72a1,1,0,0,1-.71-1.7A1,1,0,0,1,93,42a1,1,0,0,1,0,1.41l-.15.13-.18.09-.18,0A.68.68,0,0,1,92.26,43.72Z"/><path class="cls-5" d="M93.19,41a1,1,0,0,1-.71-.29,1,1,0,0,1-.22-.33,1,1,0,0,1-.07-.38,1,1,0,0,1,.29-.71,1,1,0,0,1,1.41,0,1,1,0,0,1,.3.71,1,1,0,0,1-.08.38.82.82,0,0,1-.22.33A1,1,0,0,1,93.19,41Z"/><path class="cls-5" d="M95.86,42a1,1,0,0,1-.38-.08.92.92,0,0,1-.33-.22.59.59,0,0,1-.12-.15.57.57,0,0,1-.09-.17.62.62,0,0,1-.06-.19,1.25,1.25,0,0,1,0-.19,1,1,0,0,1,.08-.38.94.94,0,0,1,.21-.33,1,1,0,0,1,.33-.22A1,1,0,0,1,96,40l.19,0a1,1,0,0,1,.17.1.6.6,0,0,1,.16.12.93.93,0,0,1,.21.33,1,1,0,0,1-.21,1.08l-.16.13a1,1,0,0,1-.17.09A.62.62,0,0,1,96,42Z"/><path class="cls-5" d="M96.79,39.3a1,1,0,0,1-.71-1.7,1,1,0,0,1,.9-.27l.19.05.17.09a.66.66,0,0,1,.15.13,1,1,0,0,1,0,1.41.64.64,0,0,1-.15.13l-.17.09-.19,0A.61.61,0,0,1,96.79,39.3Z"/><path class="cls-5" d="M99.46,40.23a1,1,0,0,1-.71-.29,1,1,0,0,1-.22-.33,1,1,0,0,1-.07-.38,1,1,0,0,1,.29-.71,1,1,0,0,1,1.09-.21.88.88,0,0,1,.17.09l.15.12a1,1,0,0,1,.3.71,1,1,0,0,1-.08.38.84.84,0,0,1-.22.33.45.45,0,0,1-.15.12,1,1,0,0,1-.17.1l-.19.05A.61.61,0,0,1,99.46,40.23Z"/><path class="cls-5" d="M100.38,37.56a1,1,0,0,1-.7-.29,1,1,0,0,1-.13-.16l-.09-.17-.06-.19a1.26,1.26,0,0,1,0-.19,1,1,0,0,1,.3-.71.61.61,0,0,1,.15-.12.55.55,0,0,1,.17-.09.71.71,0,0,1,.19-.06.86.86,0,0,1,.39,0,.71.71,0,0,1,.19.06.55.55,0,0,1,.17.09l.15.12.13.15.09.18a1.13,1.13,0,0,1,0,.18.68.68,0,0,1,0,.2.61.61,0,0,1,0,.19,1,1,0,0,1,0,.19l-.09.17a1,1,0,0,1-.13.16A1,1,0,0,1,100.38,37.56Z"/><path class="cls-5" d="M103.06,38.49l-.2,0-.19-.06-.17-.09-.15-.13a1.21,1.21,0,0,1-.22-.32,1,1,0,0,1-.07-.38,1.08,1.08,0,0,1,.07-.39,1.21,1.21,0,0,1,.22-.32l.15-.13.17-.09.19-.05a1,1,0,0,1,.9.27.88.88,0,0,1,.22.32,1,1,0,0,1,.08.39,1,1,0,0,1-.08.38.88.88,0,0,1-.22.32A1,1,0,0,1,103.06,38.49Z"/><path class="cls-5" d="M104,35.81a.61.61,0,0,1-.19,0l-.19-.05-.17-.09a.63.63,0,0,1-.15-.13,1,1,0,0,1-.22-1.09.87.87,0,0,1,.22-.32.63.63,0,0,1,.15-.13l.17-.09a1.09,1.09,0,0,1,.19-.06,1.3,1.3,0,0,1,.39,0l.18.06.18.09.15.13a1,1,0,0,1,.22.32,1,1,0,0,1,.07.38,1,1,0,0,1-.29.71l-.15.13-.18.09-.18.05A.68.68,0,0,1,104,35.81Z"/><path class="cls-5" d="M66.14,58.62a1,1,0,0,1-.38-.08.88.88,0,0,1-.32-.22,1,1,0,0,1-.3-.7,1.26,1.26,0,0,1,0-.2.68.68,0,0,1,.06-.19.71.71,0,0,1,.09-.17l.13-.15a1,1,0,0,1,1.08-.22,1,1,0,0,1,.33.22,1.62,1.62,0,0,1,.12.15.67.67,0,0,1,.09.17.72.72,0,0,1,.06.19.69.69,0,0,1,0,.2,1,1,0,0,1-.29.7.84.84,0,0,1-.33.22A1,1,0,0,1,66.14,58.62Z"/><path class="cls-5" d="M69.74,56.87l-.2,0a.64.64,0,0,1-.18-.06l-.18-.09a1.53,1.53,0,0,1-.15-.12,1,1,0,0,1,0-1.42,1,1,0,0,1,1.09-.21,1.17,1.17,0,0,1,.33.21,1,1,0,0,1-.71,1.71Z"/><path class="cls-5" d="M73.34,55.12a1,1,0,0,1-.71-.29,1,1,0,0,1,0-1.41,1,1,0,0,1,1.42,0,1,1,0,0,1-.71,1.7Z"/><path class="cls-5" d="M76.94,53.38a1.05,1.05,0,0,1-.71-.29.62.62,0,0,1-.12-.16,1,1,0,0,1-.1-.17,1.08,1.08,0,0,1,0-.19.6.6,0,0,1,0-.19.67.67,0,0,1,0-.2A1.23,1.23,0,0,1,76,52a1.65,1.65,0,0,1,.1-.18.81.81,0,0,1,.12-.15.93.93,0,0,1,.33-.21,1,1,0,0,1,1.09.21,1,1,0,0,1,0,1.42l-.16.12a.56.56,0,0,1-.17.09.61.61,0,0,1-.19.06Z"/><path class="cls-5" d="M80.54,51.63a1,1,0,0,1-.71-.29,1,1,0,0,1,0-1.41,1,1,0,0,1,.9-.28l.19.06.17.09a.66.66,0,0,1,.15.13,1,1,0,0,1-.7,1.7Z"/><path class="cls-5" d="M84.14,49.89a1,1,0,0,1-1-1,1,1,0,0,1,.3-.71.44.44,0,0,1,.15-.12.91.91,0,0,1,.17-.1l.19-.05a1,1,0,0,1,1.2,1,1,1,0,0,1-1,1Z"/><path class="cls-5" d="M87.73,48.14a1,1,0,0,1-.7-.29l-.13-.15-.09-.18-.06-.18a1.38,1.38,0,0,1,0-.2,1,1,0,0,1,.3-.71,1,1,0,0,1,1.41,0,1,1,0,0,1,.3.71,1.38,1.38,0,0,1,0,.2l-.06.18-.09.18-.13.15A1,1,0,0,1,87.73,48.14Z"/><path class="cls-5" d="M91.33,46.4a1,1,0,0,1-1-1,1,1,0,0,1,.08-.39.87.87,0,0,1,.22-.32.61.61,0,0,1,.15-.13l.17-.09.19,0a1,1,0,0,1,.9.27,1,1,0,0,1,.22.32,1.08,1.08,0,0,1,.07.39.6.6,0,0,1,0,.19,1.24,1.24,0,0,1,0,.19,1,1,0,0,1-.1.17.56.56,0,0,1-.12.15A1,1,0,0,1,91.33,46.4Z"/><path class="cls-5" d="M94.93,44.65a1,1,0,0,1-1-1,1,1,0,0,1,0-.19.58.58,0,0,1,.06-.19.57.57,0,0,1,.09-.17,1,1,0,0,1,1.54-.16,1.05,1.05,0,0,1,.29.71,1,1,0,0,1-.08.38,1,1,0,0,1-.92.62Z"/><path class="cls-5" d="M98.53,42.9a1,1,0,0,1-.7-.29.88.88,0,0,1-.22-.32,1.05,1.05,0,0,1-.08-.39,1,1,0,0,1,.3-.7,1,1,0,0,1,.9-.28l.18.06.18.09.15.13a1,1,0,0,1,.29.7,1,1,0,0,1-.07.39,1,1,0,0,1-.22.32l-.15.13-.18.09-.18.05A.67.67,0,0,1,98.53,42.9Z"/><path class="cls-5" d="M102.13,41.16l-.19,0a.59.59,0,0,1-.19-.06.54.54,0,0,1-.17-.09l-.16-.12-.12-.16a.55.55,0,0,1-.09-.17.62.62,0,0,1-.06-.19,1.25,1.25,0,0,1,0-.19,1,1,0,0,1,.08-.38.94.94,0,0,1,.21-.33,1,1,0,0,1,1.71.71.6.6,0,0,1,0,.19.59.59,0,0,1-.06.19.55.55,0,0,1-.09.17,1,1,0,0,1-.12.16l-.15.12a.74.74,0,0,1-.18.09.62.62,0,0,1-.18.06Z"/><path class="cls-5" d="M105.73,39.41a.67.67,0,0,1-.2,0l-.18,0-.18-.1a.77.77,0,0,1-.15-.12,1,1,0,0,1-.29-.71,1,1,0,0,1,.08-.38,1,1,0,0,1,.21-.32l.15-.13.18-.09.18-.06a1.27,1.27,0,0,1,.39,0l.19.06.17.09.16.13a1,1,0,0,1,.21.32,1,1,0,0,1,.08.38,1,1,0,0,1-.29.71.6.6,0,0,1-.16.12,1,1,0,0,1-.17.1l-.19,0A.62.62,0,0,1,105.73,39.41Z"/></g><path class="cls-13" d="M25,48v53a4,4,0,0,0,4,4H93a4,4,0,0,0,4-4V55a4,4,0,0,0-4-4H28A3,3,0,0,1,25,48Z"/><g class="cls-2"><path class="cls-24" d="M93,101H29a4,4,0,0,1-4-4v4a4,4,0,0,0,4,4H93a4,4,0,0,0,4-4V97A4,4,0,0,1,93,101Z"/></g><g class="cls-2"><path class="cls-16" d="M93,51H28a3,3,0,0,1-3-3v4a3,3,0,0,0,3,3H93a4,4,0,0,1,4,4V55A4,4,0,0,0,93,51Z"/></g><path class="cls-5" d="M93,106H29a5,5,0,0,1-5-5V48a1,1,0,0,1,2,0,2,2,0,0,0,2,2H93a5,5,0,0,1,5,5v46A5,5,0,0,1,93,106ZM26,51.46V101a3,3,0,0,0,3,3H93a3,3,0,0,0,3-3V55a3,3,0,0,0-3-3H28A4,4,0,0,1,26,51.46Z"/><g class="cls-9"><path class="cls-5" d="M25.25,101a1,1,0,0,1-.88-.52A3,3,0,0,1,24,99a1,1,0,0,1,2,0,1,1,0,0,0,.12.48,1,1,0,0,1-.87,1.48Z"/><path class="cls-5" d="M88.26,102h-2a1,1,0,0,1,0-2h2a1,1,0,0,1,0,2Zm-7,0h-2a1,1,0,0,1,0-2h2a1,1,0,0,1,0,2Zm-7,0h-2a1,1,0,0,1,0-2h2a1,1,0,0,1,0,2Zm-7,0h-2a1,1,0,0,1,0-2h2a1,1,0,0,1,0,2Zm-7,0h-2a1,1,0,1,1,0-2h2a1,1,0,0,1,0,2Zm-7,0H51a1,1,0,0,1,0-2h2a1,1,0,0,1,0,2Zm-7,0H44a1,1,0,0,1,0-2h2a1,1,0,1,1,0,2Zm-7,0h-2a1,1,0,0,1,0-2h2a1,1,0,0,1,0,2Zm-7,0h-2a1,1,0,0,1,0-2h2a1,1,0,0,1,0,2Zm60.91-1.17a1,1,0,0,1-.91-1.42A1,1,0,0,0,92,99V97.84a1,1,0,1,1,2,0V99a3,3,0,0,1-.27,1.24A1,1,0,0,1,92.82,100.83Zm.18-7a1,1,0,0,1-1-1v-2a1,1,0,0,1,2,0v2A1,1,0,0,1,93,93.81Zm0-7a1,1,0,0,1-1-1v-2a1,1,0,0,1,2,0v2A1,1,0,0,1,93,86.77Zm0-7a1,1,0,0,1-1-1v-2a1,1,0,0,1,2,0v2A1,1,0,0,1,93,79.72Zm0-7a1,1,0,0,1-1-1v-2a1,1,0,1,1,2,0v2A1,1,0,0,1,93,72.68Zm0-7a1,1,0,0,1-1-1v-2a1,1,0,1,1,2,0v2A1,1,0,0,1,93,65.64Zm0-7a1,1,0,0,1-1-1V57a1,1,0,0,0-.24-.65A1,1,0,1,1,93.28,55,3,3,0,0,1,94,57v.59A1,1,0,0,1,93,58.59ZM87.69,56h-2a1,1,0,0,1,0-2h2a1,1,0,0,1,0,2Zm-7,0h-2a1,1,0,0,1,0-2h2a1,1,0,0,1,0,2Zm-7,0h-2a1,1,0,0,1,0-2h2a1,1,0,0,1,0,2Zm-7,0h-2a1,1,0,0,1,0-2h2a1,1,0,0,1,0,2Zm-7,0h-2a1,1,0,0,1,0-2h2a1,1,0,0,1,0,2Zm-7,0h-2a1,1,0,1,1,0-2h2a1,1,0,0,1,0,2Zm-7,0h-2a1,1,0,0,1,0-2h2a1,1,0,0,1,0,2Zm-7,0h-2a1,1,0,0,1,0-2h2a1,1,0,1,1,0,2Zm-7,0h-2a1,1,0,1,1,0-2h2a1,1,0,1,1,0,2Z"/><path class="cls-5" d="M25.17,54a1,1,0,0,1-.94-.67A4,4,0,0,1,24,52a1,1,0,0,1,2,0,2,2,0,0,0,.11.65A1,1,0,0,1,25.17,54Z"/></g><path class="cls-13" d="M101,83H88a7,7,0,0,1-7-7h0a7,7,0,0,1,7-7h13a2,2,0,0,1,2,2V81A2,2,0,0,1,101,83Z"/><g class="cls-2"><path class="cls-16" d="M101,69H88a7,7,0,0,0-6.71,9A7,7,0,0,1,88,73h13a2,2,0,0,1,2,2V71A2,2,0,0,0,101,69Z"/></g><g class="cls-2"><path class="cls-24" d="M101,69H96V83h5a2,2,0,0,0,2-2V71A2,2,0,0,0,101,69Z"/></g><path class="cls-5" d="M101,84H88a8,8,0,0,1,0-16h13a3,3,0,0,1,3,3V81A3,3,0,0,1,101,84ZM88,70a6,6,0,0,0,0,12h13a1,1,0,0,0,1-1V71a1,1,0,0,0-1-1Z"/><circle class="cls-8" cx="88" cy="76" r="3"/><path class="cls-5" d="M88,80a4,4,0,1,1,4-4A4,4,0,0,1,88,80Zm0-6a2,2,0,1,0,2,2A2,2,0,0,0,88,74Z"/></svg>