<?xml version="1.0" ?><svg data-name="003" id="_003" viewBox="0 0 128 128" xmlns="http://www.w3.org/2000/svg"><defs><style>.cls-1{opacity:0.3;}.cls-2{fill:#c9c1f5;}.cls-3{fill:#89dbba;}.cls-4{fill:#48bc33;}.cls-5{fill:#6d6daa;}.cls-6{fill:#b1f1a8;}.cls-7{fill:#eef6ff;}.cls-8{fill:#80d880;}.cls-9{fill:#fff;}.cls-10{fill:#fff2cc;}.cls-11{fill:#c1a29f;}.cls-12{fill:#96d7ff;}.cls-13{fill:#f9e2dc;}.cls-14{fill:#cc7e54;}.cls-15{fill:#ffd599;}.cls-16{fill:#1c64ba;}.cls-17{opacity:0.5;}.cls-18{fill:#939fc6;}.cls-19{fill:#e0f3ff;}.cls-20{fill:#c7e9ff;}.cls-21{fill:#8593ba;}.cls-22{fill:#e6e6ff;}</style></defs><title/><g class="cls-1"><path class="cls-2" d="M110.3,101.77a30,30,0,0,0,8.59-33.26,19.69,19.69,0,0,1-.31-12.74A37,37,0,0,0,71.22,9.7,21,21,0,0,1,53.84,7.82C40.05-.21,20.12,4,11.88,24.5a16.6,16.6,0,0,0-.75,8A20.58,20.58,0,0,1,7.29,46.78,28.49,28.49,0,0,0,19.41,89.55,20.06,20.06,0,0,1,30.79,102,29,29,0,0,0,78.62,114.4,20.08,20.08,0,0,1,91.9,109,29.83,29.83,0,0,0,110.3,101.77Z"/><rect class="cls-3" height="92" transform="translate(5.89 81) rotate(-80.25)" width="48" x="27" y="-9"/><g class="cls-1"><rect class="cls-4" height="92" transform="translate(-7.45 88.82) rotate(-80.25)" width="24" x="36.97" y="2.83"/></g><path class="cls-5" d="M92.27,69.45H92.1L1.43,53.85a1,1,0,0,1-.82-1.15L8.75,5.39A1,1,0,0,1,9.9,4.57l90.67,15.59a1,1,0,0,1,.82,1.15l-8.13,47.3A1,1,0,0,1,92.27,69.45ZM2.76,52l88.7,15.25L99.24,22,10.55,6.71Z"/><path class="cls-6" d="M88.39,55.6a6,6,0,0,0-6.93,4.9L14.44,49a6,6,0,0,0-4.9-6.93L13.61,18.4a6,6,0,0,0,6.93-4.9L87.56,25A6,6,0,0,0,92.45,32Z"/><g class="cls-1"><path class="cls-4" d="M11.57,30.25l-2,11.8A6,6,0,0,1,14.44,49l67,11.52a6,6,0,0,1,6.93-4.9l2-11.8Z"/></g><path class="cls-5" d="M81.46,61.5h-.17L14.28,50a1,1,0,0,1-.82-1.15A5,5,0,0,0,9.38,43a1,1,0,0,1-.82-1.15l4.07-23.65a1,1,0,0,1,1.15-.82,5,5,0,0,0,5.78-4.08,1,1,0,0,1,1.15-.82L87.72,24a1,1,0,0,1,.82,1.15A5,5,0,0,0,92.62,31a1,1,0,0,1,.82,1.15L89.37,55.77a1,1,0,0,1-1.15.82,5,5,0,0,0-5.78,4.08A1,1,0,0,1,81.46,61.5ZM15.53,48.15l65.18,11.2a7,7,0,0,1,6.85-4.84L91.31,32.7a7,7,0,0,1-4.84-6.85L21.29,14.65a7,7,0,0,1-6.85,4.84L10.69,41.3A7,7,0,0,1,15.53,48.15Z"/><ellipse class="cls-3" cx="50.66" cy="38.97" rx="16" ry="12.8" transform="matrix(0.17, -0.99, 0.99, 0.17, 3.67, 82.3)"/><path class="cls-5" d="M49.7,55.89a11.27,11.27,0,0,1-1.92-.16c-7.5-1.29-12.31-9.85-10.72-19.09s9-15.7,16.48-14.42,12.31,9.85,10.72,19.09C62.81,49.76,56.5,55.89,49.7,55.89Zm1.92-31.84C45.77,24.05,40.32,29.5,39,37c-1.4,8.15,2.68,15.68,9.09,16.78S60.89,49.12,62.29,41h0c1.4-8.15-2.68-15.68-9.09-16.78A9.36,9.36,0,0,0,51.61,24.05Z"/><circle class="cls-3" cx="25.38" cy="32.6" r="3" transform="translate(-11.05 52.08) rotate(-80.25)"/><path class="cls-5" d="M25.38,36.6a4,4,0,0,1-4-4.68,4,4,0,1,1,7.88,1.35h0a4,4,0,0,1-3.93,3.32Zm0-6a2,2,0,1,0,2,2.34h0a2,2,0,0,0-1.63-2.31Z"/><circle class="cls-5" cx="14.63" cy="12.48" r="1" transform="translate(-0.15 24.78) rotate(-80.25)"/><path class="cls-5" d="M14.63,14.48a2,2,0,1,1,1.15-.37A2,2,0,0,1,14.63,14.48Zm0-2Z"/><circle class="cls-5" cx="8.53" cy="47.97" r="1" transform="translate(-40.19 48.24) rotate(-80.25)"/><path class="cls-5" d="M8.53,50l-.34,0a2,2,0,0,1-.82-3.6A2,2,0,0,1,8.87,46,2,2,0,0,1,10.5,48.3h0A2,2,0,0,1,8.53,50Zm1-1.83h0Z"/><circle class="cls-5" cx="93.48" cy="26.04" r="1" transform="translate(51.98 113.75) rotate(-80.25)"/><path class="cls-5" d="M93.48,28l-.34,0a2,2,0,1,1,.34,0Zm0-2Z"/><circle class="cls-5" cx="87.38" cy="61.52" r="1" transform="matrix(0.17, -0.99, 0.99, 0.17, 11.94, 137.21)"/><path class="cls-5" d="M87.38,63.52a2,2,0,0,1-.34,0,2,2,0,1,1,2.31-1.63h0A2,2,0,0,1,87.38,63.52Zm1-1.83h0Z"/><path class="cls-6" d="M54.36,48.55l-.69-.28a.87.87,0,0,1-.57-1c.1-.47.19-1,.28-1.49.21-1.2,1.9-2.39,2.26-4.06a6.88,6.88,0,0,0,1.23-2.62A1.44,1.44,0,0,0,56.71,38c.23-.61.44-1.25.68-1.91,1-2.66.35-4.8-1.91-6.07-.82-.46-4.32-1.7-5.44-3.24-.41-.55-.53,2.16-1,2.28-2.54.66-3.76,2.15-3.74,4.95,0,.7,0,1.38,0,2a1.44,1.44,0,0,0-.52,1,6.88,6.88,0,0,0,.28,2.88c-.21,1.7,1,3.3.78,4.59-.09.52-.18,1-.24,1.5a.87.87,0,0,1-.87.76l-.83,0a14.65,14.65,0,0,0-4.57.83,12.23,12.23,0,0,0,7.33,6.85,11.29,11.29,0,0,0,1.28.31H48a11.29,11.29,0,0,0,1.23.13,12.24,12.24,0,0,0,9.22-4A13.88,13.88,0,0,0,54.36,48.55Z"/><path class="cls-5" d="M49.71,55.89h-.47a12.45,12.45,0,0,1-1.35-.14h-.1a12.65,12.65,0,0,1-1.41-.34,13.17,13.17,0,0,1-8-7.39A1,1,0,0,1,39,46.64a15.78,15.78,0,0,1,4.88-.89l.75,0c.06-.46.14-.94.23-1.43a4.08,4.08,0,0,0-.32-1.55A7.21,7.21,0,0,1,44,40a7.65,7.65,0,0,1-.25-3.14,2.73,2.73,0,0,1,.5-1.23q0-.33,0-.68c0-.31,0-.62,0-.94,0-3.07,1.32-5,4.11-5.82.06-.2.12-.48.16-.67.2-.88.37-1.64,1.14-1.8a1.11,1.11,0,0,1,1.13.46c.7,1,2.91,1.94,4.09,2.47.45.2.82.37,1,.48,2.64,1.48,3.51,4.14,2.37,7.28l-.31.87-.23.66a2.73,2.73,0,0,1,.06,1.33,7.64,7.64,0,0,1-1.29,2.87,7.51,7.51,0,0,1-1.41,2.51,4.26,4.26,0,0,0-.79,1.3c-.08.49-.17,1-.26,1.43l.62.25a15,15,0,0,1,4.41,2.46,1,1,0,0,1,.08,1.47A13.3,13.3,0,0,1,49.71,55.89Zm-1.61-2.14h.11a10.38,10.38,0,0,0,1.12.12,11,11,0,0,0,7.62-2.94A13.66,13.66,0,0,0,54,49.49h0l-.69-.28A1.87,1.87,0,0,1,52.13,47c.1-.45.18-.94.27-1.45a5.32,5.32,0,0,1,1.17-2.17,5.51,5.51,0,0,0,1.11-1.94,1,1,0,0,1,.16-.37,5.92,5.92,0,0,0,1.06-2.21.73.73,0,0,0,0-.37,1,1,0,0,1-.12-.92c.12-.33.24-.67.36-1l.31-.89c.82-2.26.34-3.84-1.46-4.86-.17-.1-.48-.23-.86-.4a20.44,20.44,0,0,1-3.73-2c-.19.76-.44,1.36-1.11,1.53-2.17.56-3,1.67-3,4,0,.33,0,.65,0,1s0,.72,0,1.06a1,1,0,0,1-.42.83.74.74,0,0,0-.12.35A5.94,5.94,0,0,0,46,39.61a1,1,0,0,1,0,.4,5.23,5.23,0,0,0,.39,2.12,5.31,5.31,0,0,1,.38,2.51c-.09.51-.17,1-.23,1.46a1.89,1.89,0,0,1-1.86,1.63l-.81,0a14.44,14.44,0,0,0-3.17.44,10.87,10.87,0,0,0,6.19,5.29,10.42,10.42,0,0,0,1.16.28ZM54,47.32h0Zm-9.32-1.6h0Z"/><path class="cls-3" d="M64.05,55.48l-7.89-1.36a14.93,14.93,0,0,0-7.54-3.33,14.93,14.93,0,0,0-8.21.62l-7.89-1.36-1.35,7.88L62.7,63.36Z"/><path class="cls-5" d="M62.7,64.36h-.17L31,58.93a1,1,0,0,1-.82-1.15l1.35-7.88a1,1,0,0,1,1.15-.82l7.6,1.31a16.24,16.24,0,0,1,8.5-.57,16.23,16.23,0,0,1,7.82,3.38l7.6,1.31A1,1,0,0,1,65,55.65l-1.35,7.88A1,1,0,0,1,62.7,64.36ZM32.33,57.13l29.56,5.08,1-5.91L56,55.11a1,1,0,0,1-.52-.26,14.09,14.09,0,0,0-7-3.07,14.11,14.11,0,0,0-7.64.55,1,1,0,0,1-.57.07l-6.9-1.19Z"/><line class="cls-3" x1="30.1" x2="18.28" y1="40.51" y2="38.48"/><path class="cls-5" d="M30.1,41.51h-.17l-11.82-2a1,1,0,1,1,.34-2l11.82,2a1,1,0,0,1-.17,2Z"/><circle class="cls-3" cx="76.63" cy="41.41" r="3" transform="translate(22.84 109.91) rotate(-80.25)"/><path class="cls-5" d="M76.63,45.41a4,4,0,1,1,3.94-3.32h0A4,4,0,0,1,76.63,45.41Zm0-6a2,2,0,1,0,.34,0Zm3,2.51h0Z"/><line class="cls-3" x1="81.35" x2="69.53" y1="49.32" y2="47.29"/><path class="cls-5" d="M81.35,50.32h-.17l-11.82-2a1,1,0,1,1,.34-2l11.82,2a1,1,0,0,1-.17,2Z"/><line class="cls-3" x1="59.43" x2="35.79" y1="58.74" y2="54.68"/><path class="cls-5" d="M59.43,59.74h-.17L35.62,55.66a1,1,0,1,1,.34-2L59.6,57.76a1,1,0,0,1-.17,2Z"/><rect class="cls-3" height="48" width="92" x="5" y="13"/><g class="cls-1"><rect class="cls-4" height="24" width="92" x="5" y="37"/></g><path class="cls-5" d="M97,62H5a1,1,0,0,1-1-1V13a1,1,0,0,1,1-1H97a1,1,0,0,1,1,1V61A1,1,0,0,1,97,62ZM6,60H96V14H6Z"/><path class="cls-6" d="M91,49a6,6,0,0,0-6,6H17a6,6,0,0,0-6-6V25a6,6,0,0,0,6-6H85a6,6,0,0,0,6,6Z"/><g class="cls-1"><path class="cls-4" d="M11,37V49a6,6,0,0,1,6,6H85a6,6,0,0,1,6-6V37Z"/></g><path class="cls-5" d="M85,56H17a1,1,0,0,1-1-1,5,5,0,0,0-5-5,1,1,0,0,1-1-1V25a1,1,0,0,1,1-1,5,5,0,0,0,5-5,1,1,0,0,1,1-1H85a1,1,0,0,1,1,1,5,5,0,0,0,5,5,1,1,0,0,1,1,1V49a1,1,0,0,1-1,1,5,5,0,0,0-5,5A1,1,0,0,1,85,56ZM17.93,54H84.07A7,7,0,0,1,90,48.07V25.93A7,7,0,0,1,84.07,20H17.93A7,7,0,0,1,12,25.93V48.07A7,7,0,0,1,17.93,54Z"/><ellipse class="cls-3" cx="51" cy="39" rx="12.8" ry="16"/><path class="cls-5" d="M51,56c-7.61,0-13.8-7.63-13.8-17S43.39,22,51,22s13.8,7.63,13.8,17S58.61,56,51,56Zm0-32c-6.51,0-11.8,6.73-11.8,15S44.49,54,51,54s11.8-6.73,11.8-15S57.51,24,51,24Z"/><circle class="cls-3" cx="25" cy="37" r="3"/><path class="cls-5" d="M25,41a4,4,0,1,1,4-4A4,4,0,0,1,25,41Zm0-6a2,2,0,1,0,2,2A2,2,0,0,0,25,35Z"/><circle class="cls-5" cx="11" cy="19" r="1"/><path class="cls-5" d="M11,21a2,2,0,1,1,2-2A2,2,0,0,1,11,21Zm0-2h0Z"/><circle class="cls-5" cx="11" cy="55" r="1"/><path class="cls-5" d="M11,57a2,2,0,1,1,2-2A2,2,0,0,1,11,57Zm0-2h0Z"/><circle class="cls-5" cx="91.01" cy="19" r="1"/><path class="cls-5" d="M91,21a2,2,0,1,1,2-2A2,2,0,0,1,91,21Zm0-2h0Z"/><circle class="cls-5" cx="91.01" cy="55" r="1"/><path class="cls-5" d="M91,57a2,2,0,1,1,2-2A2,2,0,0,1,91,57Zm0-2h0Z"/><path class="cls-6" d="M56.27,47.81l-.73-.16a.87.87,0,0,1-.73-.89c0-.48,0-1,0-1.52,0-1.22,1.46-2.68,1.54-4.39a6.88,6.88,0,0,0,.77-2.79A1.44,1.44,0,0,0,56.79,37c.12-.64.22-1.31.35-2,.5-2.78-.47-4.79-2.92-5.66-.88-.31-4.54-.95-5.91-2.27-.49-.48-.16,2.21-.6,2.42-2.4,1.08-3.35,2.75-2.85,5.51.12.69.23,1.37.35,2a1.44,1.44,0,0,0-.35,1.07,6.88,6.88,0,0,0,.77,2.79c.08,1.71,1.54,3.09,1.54,4.39,0,.53,0,1,0,1.52a.87.87,0,0,1-.73.89l-.81.16a14.65,14.65,0,0,0-4.36,1.6,12.23,12.23,0,0,0,8.38,5.51A11.29,11.29,0,0,0,51,55h.12a11.29,11.29,0,0,0,1.24-.08,12.24,12.24,0,0,0,8.4-5.54A13.88,13.88,0,0,0,56.27,47.81Z"/><path class="cls-5" d="M51,56a12.64,12.64,0,0,1-1.45-.09A13.18,13.18,0,0,1,40.46,50a1,1,0,0,1,.33-1.44,15.79,15.79,0,0,1,4.66-1.71l.74-.15c0-.46,0-.95,0-1.45a4.07,4.07,0,0,0-.58-1.48,7.2,7.2,0,0,1-.95-2.65,7.64,7.64,0,0,1-.78-3.05,2.74,2.74,0,0,1,.29-1.3L44,36.09c-.05-.3-.1-.61-.16-.93-.54-3,.46-5.13,3.07-6.43,0-.21,0-.49,0-.69,0-.9.09-1.68.82-2a1.12,1.12,0,0,1,1.19.26c.86.83,3.2,1.42,4.46,1.74.48.12.87.22,1.09.3,2.86,1,4.16,3.49,3.57,6.78-.06.31-.11.62-.16.93l-.11.66a2.74,2.74,0,0,1,.29,1.3,7.63,7.63,0,0,1-.78,3.05,7.51,7.51,0,0,1-1,2.71,4.25,4.25,0,0,0-.56,1.42c0,.5,0,1,0,1.45l.65.14a15,15,0,0,1,4.76,1.68,1,1,0,0,1,.33,1.43,13.18,13.18,0,0,1-9.1,6A12.1,12.1,0,0,1,51.1,56Zm-8.2-6.24a10.88,10.88,0,0,0,7,4.16A10.32,10.32,0,0,0,51,54h.1a10.19,10.19,0,0,0,1.13-.07,10.88,10.88,0,0,0,7-4.19,13.67,13.67,0,0,0-3.13-.94h0l-.73-.16a1.87,1.87,0,0,1-1.51-1.91c0-.46,0-1,0-1.47a5.3,5.3,0,0,1,.78-2.34,5.51,5.51,0,0,0,.76-2.1,1,1,0,0,1,.1-.39,5.94,5.94,0,0,0,.67-2.36.71.71,0,0,0-.06-.36,1,1,0,0,1-.27-.89c.06-.34.12-.69.18-1s.11-.63.16-1c.42-2.36-.32-3.85-2.27-4.54-.19-.07-.51-.15-.91-.25a20.62,20.62,0,0,1-4-1.33c-.06.78-.21,1.42-.84,1.7-2,.92-2.68,2.16-2.27,4.42.06.32.11.64.16,1s.12.7.18,1a1,1,0,0,1-.27.89.73.73,0,0,0-.06.36,5.94,5.94,0,0,0,.67,2.36,1,1,0,0,1,.1.39,5.24,5.24,0,0,0,.74,2,5.31,5.31,0,0,1,.81,2.41c0,.52,0,1,0,1.48a1.88,1.88,0,0,1-1.56,1.92l-.79.16A14.41,14.41,0,0,0,42.8,49.76Zm3.47-3.09h0Zm9.45,0h0ZM47.3,28.56h0Zm.32-.79h0Z"/><path class="cls-3" d="M67,53H59a14.93,14.93,0,0,0-8-2,14.93,14.93,0,0,0-8,2H35v8H67Z"/><path class="cls-5" d="M67,62H35a1,1,0,0,1-1-1V53a1,1,0,0,1,1-1h7.71A16.23,16.23,0,0,1,51,50a16.23,16.23,0,0,1,8.28,2H67a1,1,0,0,1,1,1v8A1,1,0,0,1,67,62ZM36,60H66V54H59a1,1,0,0,1-.55-.17A14.09,14.09,0,0,0,51,52a14.09,14.09,0,0,0-7.44,1.84A1,1,0,0,1,43,54H36Z"/><path class="cls-5" d="M31,45H19a1,1,0,0,1,0-2H31a1,1,0,0,1,0,2Z"/><circle class="cls-3" cx="77.01" cy="37" r="3"/><path class="cls-5" d="M77,41a4,4,0,1,1,4-4A4,4,0,0,1,77,41Zm0-6a2,2,0,1,0,2,2A2,2,0,0,0,77,35Z"/><path class="cls-5" d="M83,45H71a1,1,0,0,1,0-2H83a1,1,0,0,1,0,2Z"/><path class="cls-5" d="M63,58H39a1,1,0,0,1,0-2H63a1,1,0,0,1,0,2Z"/><rect class="cls-3" height="48" width="92" x="8" y="16"/><g class="cls-1"><rect class="cls-4" height="24" width="92" x="8" y="40"/></g><path class="cls-5" d="M100,65H8a1,1,0,0,1-1-1V16a1,1,0,0,1,1-1h92a1,1,0,0,1,1,1V64A1,1,0,0,1,100,65ZM9,63H99V17H9Z"/><path class="cls-6" d="M94,52a6,6,0,0,0-6,6H20a6,6,0,0,0-6-6V28a6,6,0,0,0,6-6H88a6,6,0,0,0,6,6Z"/><g class="cls-1"><path class="cls-4" d="M14,40V52a6,6,0,0,1,6,6H88a6,6,0,0,1,6-6V40Z"/></g><path class="cls-5" d="M88,59H20a1,1,0,0,1-1-1,5,5,0,0,0-5-5,1,1,0,0,1-1-1V28a1,1,0,0,1,1-1,5,5,0,0,0,5-5,1,1,0,0,1,1-1H88a1,1,0,0,1,1,1,5,5,0,0,0,5,5,1,1,0,0,1,1,1V52a1,1,0,0,1-1,1,5,5,0,0,0-5,5A1,1,0,0,1,88,59ZM20.93,57H87.07A7,7,0,0,1,93,51.07V28.93A7,7,0,0,1,87.07,23H20.93A7,7,0,0,1,15,28.93V51.07A7,7,0,0,1,20.93,57Z"/><ellipse class="cls-3" cx="54" cy="42" rx="12.8" ry="16"/><path class="cls-5" d="M54,59c-7.61,0-13.8-7.63-13.8-17S46.39,25,54,25s13.8,7.63,13.8,17S61.61,59,54,59Zm0-32c-6.51,0-11.8,6.73-11.8,15S47.49,57,54,57s11.8-6.73,11.8-15S60.51,27,54,27Z"/><circle class="cls-3" cx="28" cy="40" r="3"/><path class="cls-5" d="M28,44a4,4,0,1,1,4-4A4,4,0,0,1,28,44Zm0-6a2,2,0,1,0,2,2A2,2,0,0,0,28,38Z"/><circle class="cls-5" cx="14" cy="22" r="1"/><path class="cls-5" d="M14,24a2,2,0,1,1,2-2A2,2,0,0,1,14,24Zm0-2h0Z"/><circle class="cls-5" cx="14" cy="58" r="1"/><path class="cls-5" d="M14,60a2,2,0,1,1,2-2A2,2,0,0,1,14,60Zm0-2h0Z"/><circle class="cls-5" cx="94.01" cy="22" r="1"/><path class="cls-5" d="M94,24a2,2,0,1,1,2-2A2,2,0,0,1,94,24Zm0-2h0Z"/><circle class="cls-5" cx="94.01" cy="58" r="1"/><path class="cls-5" d="M94,60a2,2,0,1,1,2-2A2,2,0,0,1,94,60Zm0-2h0Z"/><path class="cls-6" d="M59.27,50.81l-.73-.16a.87.87,0,0,1-.73-.89c0-.48,0-1,0-1.52,0-1.22,1.46-2.68,1.54-4.39a6.88,6.88,0,0,0,.77-2.79A1.44,1.44,0,0,0,59.79,40c.12-.64.22-1.31.35-2,.5-2.78-.47-4.79-2.92-5.66-.88-.31-4.54-.95-5.91-2.27-.49-.48-.16,2.21-.6,2.42-2.4,1.08-3.35,2.75-2.85,5.51.12.69.23,1.37.35,2a1.44,1.44,0,0,0-.35,1.07,6.88,6.88,0,0,0,.77,2.79c.08,1.71,1.54,3.09,1.54,4.39,0,.53,0,1,0,1.52a.87.87,0,0,1-.73.89l-.81.16a14.65,14.65,0,0,0-4.36,1.6,12.23,12.23,0,0,0,8.38,5.51A11.29,11.29,0,0,0,54,58h.12a11.29,11.29,0,0,0,1.24-.08,12.24,12.24,0,0,0,8.4-5.54A13.88,13.88,0,0,0,59.27,50.81Z"/><path class="cls-5" d="M54,59a12.64,12.64,0,0,1-1.45-.09A13.18,13.18,0,0,1,43.46,53a1,1,0,0,1,.33-1.44,15.79,15.79,0,0,1,4.66-1.71l.74-.15c0-.46,0-.95,0-1.45a4.07,4.07,0,0,0-.58-1.48,7.2,7.2,0,0,1-.95-2.65,7.64,7.64,0,0,1-.78-3.05,2.74,2.74,0,0,1,.29-1.3L47,39.09c-.05-.3-.1-.61-.16-.93-.54-3,.46-5.12,3.07-6.43,0-.21,0-.49,0-.69,0-.9.09-1.68.82-2a1.12,1.12,0,0,1,1.19.26c.86.83,3.2,1.42,4.46,1.74.48.12.87.22,1.09.3,2.86,1,4.16,3.49,3.57,6.78-.06.31-.11.62-.16.93l-.11.66a2.74,2.74,0,0,1,.29,1.3,7.63,7.63,0,0,1-.78,3.05,7.51,7.51,0,0,1-1,2.71,4.25,4.25,0,0,0-.56,1.42c0,.5,0,1,0,1.45l.65.14a15,15,0,0,1,4.76,1.68,1,1,0,0,1,.33,1.43,13.18,13.18,0,0,1-9.1,6A12.1,12.1,0,0,1,54.1,59Zm-8.2-6.24a10.88,10.88,0,0,0,7,4.16A10.32,10.32,0,0,0,54,57h.1a10.19,10.19,0,0,0,1.13-.07,10.88,10.88,0,0,0,7-4.19,13.67,13.67,0,0,0-3.13-.94h0l-.73-.16a1.87,1.87,0,0,1-1.51-1.91c0-.46,0-1,0-1.47a5.3,5.3,0,0,1,.78-2.34,5.51,5.51,0,0,0,.76-2.1,1,1,0,0,1,.1-.39,5.94,5.94,0,0,0,.67-2.36.71.71,0,0,0-.06-.36,1,1,0,0,1-.27-.89c.06-.34.12-.69.18-1s.11-.63.16-1c.42-2.36-.32-3.85-2.27-4.54-.19-.07-.51-.15-.91-.25a20.62,20.62,0,0,1-4-1.33c-.06.78-.21,1.42-.84,1.7-2,.92-2.68,2.16-2.27,4.42.06.32.11.64.16,1s.12.7.18,1a1,1,0,0,1-.27.89.73.73,0,0,0-.06.36,5.94,5.94,0,0,0,.67,2.36,1,1,0,0,1,.1.39,5.24,5.24,0,0,0,.74,2,5.31,5.31,0,0,1,.81,2.41c0,.52,0,1,0,1.48a1.88,1.88,0,0,1-1.56,1.92l-.79.16A14.41,14.41,0,0,0,45.8,52.76Zm3.47-3.09h0Zm9.45,0h0ZM50.3,31.56h0Zm.32-.79h0Z"/><path class="cls-3" d="M70,56H62a14.93,14.93,0,0,0-8-2,14.93,14.93,0,0,0-8,2H38v8H70Z"/><path class="cls-5" d="M70,65H38a1,1,0,0,1-1-1V56a1,1,0,0,1,1-1h7.71A16.23,16.23,0,0,1,54,53a16.23,16.23,0,0,1,8.28,2H70a1,1,0,0,1,1,1v8A1,1,0,0,1,70,65ZM39,63H69V57H62a1,1,0,0,1-.55-.17A14.09,14.09,0,0,0,54,55a14.09,14.09,0,0,0-7.44,1.84A1,1,0,0,1,46,57H39Z"/><path class="cls-5" d="M34,48H22a1,1,0,0,1,0-2H34a1,1,0,0,1,0,2Z"/><circle class="cls-3" cx="80.01" cy="40" r="3"/><path class="cls-5" d="M80,44a4,4,0,1,1,4-4A4,4,0,0,1,80,44Zm0-6a2,2,0,1,0,2,2A2,2,0,0,0,80,38Z"/><path class="cls-5" d="M86,48H74a1,1,0,0,1,0-2H86a1,1,0,0,1,0,2Z"/><path class="cls-5" d="M66,61H42a1,1,0,0,1,0-2H66a1,1,0,0,1,0,2Z"/><polygon class="cls-7" points="30 111 28 111 26 110 24 111 22 110 20 111 18 110 16 111 14 110 12 111 10 111 10 109 11 107 10 105 11 103 10 101 11 99 10 97 11 95 10 93 10 91 12 91 14 92 16 91 18 92 20 91 22 92 24 91 26 92 28 91 30 91 30 93 29 95 30 97 29 99 30 101 29 103 30 105 29 107 30 109 30 111"/><path class="cls-5" d="M30,112H28a1,1,0,0,1-.45-.11L26,111.12l-1.55.78a1,1,0,0,1-.89,0L22,111.12l-1.55.78a1,1,0,0,1-.89,0L18,111.12l-1.55.78a1,1,0,0,1-.89,0L14,111.12l-1.55.78A1,1,0,0,1,12,112H10a1,1,0,0,1-1-1v-2a1,1,0,0,1,.11-.45L9.88,107l-.78-1.55a1,1,0,0,1,0-.89L9.88,103l-.78-1.55a1,1,0,0,1,0-.89L9.88,99l-.78-1.55a1,1,0,0,1,0-.89L9.88,95l-.78-1.55A1,1,0,0,1,9,93V91a1,1,0,0,1,1-1h2a1,1,0,0,1,.45.11l1.55.78,1.55-.78a1,1,0,0,1,.89,0l1.55.78,1.55-.78a1,1,0,0,1,.89,0l1.55.78,1.55-.78a1,1,0,0,1,.89,0l1.55.78,1.55-.78A1,1,0,0,1,28,90h2a1,1,0,0,1,1,1v2a1,1,0,0,1-.11.45L30.12,95l.78,1.55a1,1,0,0,1,0,.89L30.12,99l.78,1.55a1,1,0,0,1,0,.89L30.12,103l.78,1.55a1,1,0,0,1,0,.89L30.12,107l.78,1.55A1,1,0,0,1,31,109v2A1,1,0,0,1,30,112Zm-1.76-2H29v-.76l-.89-1.79a1,1,0,0,1,0-.89l.78-1.55-.78-1.55a1,1,0,0,1,0-.89l.78-1.55-.78-1.55a1,1,0,0,1,0-.89L28.88,97l-.78-1.55a1,1,0,0,1,0-.89L29,92.76V92h-.76l-1.79.89a1,1,0,0,1-.89,0L24,92.12l-1.55.78a1,1,0,0,1-.89,0L20,92.12l-1.55.78a1,1,0,0,1-.89,0L16,92.12l-1.55.78a1,1,0,0,1-.89,0L11.76,92H11v.76l.89,1.79a1,1,0,0,1,0,.89L11.12,97l.78,1.55a1,1,0,0,1,0,.89L11.12,101l.78,1.55a1,1,0,0,1,0,.89L11.12,105l.78,1.55a1,1,0,0,1,0,.89L11,109.24V110h.76l1.79-.89a1,1,0,0,1,.89,0l1.55.78,1.55-.78a1,1,0,0,1,.89,0l1.55.78,1.55-.78a1,1,0,0,1,.89,0l1.55.78,1.55-.78a1,1,0,0,1,.89,0Z"/><rect class="cls-8" height="10" width="10" x="15" y="96"/><path class="cls-5" d="M25,107H15a1,1,0,0,1-1-1V96a1,1,0,0,1,1-1H25a1,1,0,0,1,1,1v10A1,1,0,0,1,25,107Zm-9-2h8V97H16Z"/><polygon class="cls-9" points="113 114 113 106 121 106 113 114"/><polygon class="cls-10" points="113 114 87 114 87 80 121 80 121 106 113 106 113 114"/><g class="cls-1"><rect class="cls-11" height="5" width="34" x="87" y="80"/></g><path class="cls-5" d="M113,115a1,1,0,0,1-1-1v-8a1,1,0,0,1,1-1h8a1,1,0,0,1,.71,1.71l-8,8A1,1,0,0,1,113,115Zm1-8v4.59l4.59-4.59Z"/><path class="cls-5" d="M113,115H87a1,1,0,0,1-1-1V80a1,1,0,0,1,1-1h34a1,1,0,0,1,1,1v26a1,1,0,0,1-1,1h-7v7A1,1,0,0,1,113,115Zm-25-2h24v-7a1,1,0,0,1,1-1h7V81H88Z"/><rect class="cls-7" height="33" rx="2" ry="2" width="45" x="77" y="26"/><path class="cls-9" d="M77,28v1h45V28a2,2,0,0,0-2-2H79A2,2,0,0,0,77,28Z"/><path class="cls-5" d="M120,60H79a3,3,0,0,1-3-3V28a3,3,0,0,1,3-3h41a3,3,0,0,1,3,3V57A3,3,0,0,1,120,60ZM79,27a1,1,0,0,0-1,1V57a1,1,0,0,0,1,1h41a1,1,0,0,0,1-1V28a1,1,0,0,0-1-1Z"/><rect class="cls-12" height="21" width="18" x="81" y="30"/><path class="cls-13" d="M90.53,47.78H89.47a2.31,2.31,0,0,1-1.63-.68l-1.41-1.41a2.31,2.31,0,0,1-.68-1.63V39.9a2.52,2.52,0,0,1,2.52-2.52h3.45a2.52,2.52,0,0,1,2.52,2.52v4.16a2.31,2.31,0,0,1-.68,1.63L92.16,47.1A2.31,2.31,0,0,1,90.53,47.78Z"/><g class="cls-1"><path class="cls-14" d="M92.16,46.25a2.31,2.31,0,0,1-1.63.68H89.47a2.31,2.31,0,0,1-1.63-.68l-1.41-1.41a2.31,2.31,0,0,1-.68-1.63v.85a2.31,2.31,0,0,0,.68,1.63l1.41,1.41a2.31,2.31,0,0,0,1.63.68h1.06a2.31,2.31,0,0,0,1.63-.68l1.41-1.41a2.31,2.31,0,0,0,.68-1.63v-.85a2.31,2.31,0,0,1-.68,1.63Z"/></g><g class="cls-1"><path class="cls-14" d="M91.72,37.38H88.28a2.52,2.52,0,0,0-2.52,2.52v.66c0-1.27,2.12-2.33,3.82-2.33a1.91,1.91,0,0,0-.64,2.13c2.06-1.52,2.9-.13,4.59-.5.71-.15.71,1.33.71,1.33V39.9A2.52,2.52,0,0,0,91.72,37.38Z"/></g><path class="cls-15" d="M92.24,35.4a4.1,4.1,0,0,1,2.5,5c-.11.38-.42,0-.5.21,0,0,0-1.48-.71-1.33-1.7.36-2.53-1-4.59.5a1.91,1.91,0,0,1,.64-2.13c-1.7,0-3.82,1.06-3.82,2.33,0,0-.59-.43-.64-.85-.21-1.91.81-2.85,2.48-3.58.32-.14.08-2,.43-1.68C89,34.74,91.48,35,92.24,35.4Z"/><g class="cls-1"><path class="cls-14" d="M89.58,37c-1.7,0-3.82,1.06-3.82,2.33,0,0-.59-.43-.64-.85,0-.05,0-.1,0-.15a4,4,0,0,0,0,.79c0,.42.64.85.64.85,0-1.14,1.71-2.11,3.28-2.3A2,2,0,0,1,89.58,37Z"/><path class="cls-14" d="M94.74,39.71c-.11.38-.42,0-.5.21,0,0,0-1.48-.71-1.33-1.7.36-2.53-1-4.59.5a.85.85,0,0,1-.09-.25,1.32,1.32,0,0,0,.09.89c2.06-1.52,2.9-.13,4.59-.5.71-.15.71,1.33.71,1.33.08-.16.38.16.5-.21a4,4,0,0,0,.17-1.53A4.29,4.29,0,0,1,94.74,39.71Z"/></g><path class="cls-13" d="M94.24,40.56h0a.85.85,0,0,1,.85.85v.42a.85.85,0,0,1-.85.85h0a0,0,0,0,1,0,0V40.56A0,0,0,0,1,94.24,40.56Z"/><path class="cls-13" d="M84.91,40.56h0a.85.85,0,0,1,.85.85v.42a.85.85,0,0,1-.85.85h0a0,0,0,0,1,0,0V40.56a0,0,0,0,1,0,0Z" transform="translate(170.67 83.25) rotate(-180)"/><path class="cls-5" d="M94.24,41.56l-.22,0a1,1,0,0,1-.78-1,2.38,2.38,0,0,0,0-.28,5.23,5.23,0,0,1-1.58-.16,2.07,2.07,0,0,0-2.11.41,1,1,0,0,1-1.45-.29A2.12,2.12,0,0,1,87.82,39c-.63.3-1.06.69-1.06.92a1,1,0,0,1-1.59.81,2.49,2.49,0,0,1-1-1.55,4.13,4.13,0,0,1,2.66-4.41c0-.1,0-.21,0-.29,0-.64.07-1.36.76-1.63a1.08,1.08,0,0,1,1.15.24,7.43,7.43,0,0,0,2.6,1,8.51,8.51,0,0,1,1.34.41h0a5.09,5.09,0,0,1,3,6.15,1.2,1.2,0,0,1-1.23.9ZM90.83,38a5.66,5.66,0,0,1,1.24.17,2.77,2.77,0,0,0,1.25.09,1.52,1.52,0,0,1,.43,0,3.86,3.86,0,0,0-1.94-1.92h0a9,9,0,0,0-1-.29,16.1,16.1,0,0,1-2.1-.64,1.28,1.28,0,0,1-.72,1,3.83,3.83,0,0,0-1.56,1.06,6.45,6.45,0,0,1,3.14-.88A1,1,0,0,1,90.48,38Z"/><path class="cls-5" d="M94.24,43.68a1,1,0,0,1-1-1V40.56a1,1,0,0,1,1-1,1.85,1.85,0,0,1,1.85,1.85v.42A1.85,1.85,0,0,1,94.24,43.68Z"/><path class="cls-5" d="M85.76,43.68a1.85,1.85,0,0,1-1.85-1.85v-.42a1.85,1.85,0,0,1,1.85-1.85,1,1,0,0,1,1,1v2.12A1,1,0,0,1,85.76,43.68Z"/><path class="cls-9" d="M87.67,35.47a3,3,0,0,1-.42,1.27"/><path class="cls-5" d="M87.24,37.74a1,1,0,0,1-.89-1.44,2.6,2.6,0,0,0,.32-.83,1,1,0,0,1,2,0,3.82,3.82,0,0,1-.53,1.71A1,1,0,0,1,87.24,37.74Z"/><path class="cls-5" d="M90.53,48.78H89.47a3.29,3.29,0,0,1-2.34-1L85.73,46.4a3.28,3.28,0,0,1-1-2.34V39.9a1,1,0,1,1,2,0v4.16a1.3,1.3,0,0,0,.38.92l1.41,1.41a1.3,1.3,0,0,0,.92.38h1.06a1.3,1.3,0,0,0,.92-.38L92.86,45a1.3,1.3,0,0,0,.38-.92v-3.5a1,1,0,0,1,2,0v3.5a3.28,3.28,0,0,1-1,2.34l-1.41,1.41A3.29,3.29,0,0,1,90.53,48.78Z"/><path class="cls-5" d="M88.5,43a1,1,0,0,1-.38-.08,1,1,0,0,1-.33-.21A1,1,0,0,1,87.5,42a1,1,0,0,1,.07-.38,1.48,1.48,0,0,1,.22-.33,1,1,0,0,1,.33-.21.93.93,0,0,1,.57-.06.61.61,0,0,1,.19.06.56.56,0,0,1,.17.09l.16.12a1,1,0,0,1,.21.33,1,1,0,0,1,.08.38,1,1,0,0,1-.29.71,1,1,0,0,1-.16.12.56.56,0,0,1-.17.09.62.62,0,0,1-.19.06Z"/><path class="cls-5" d="M91.5,43l-.2,0-.18-.06a.76.76,0,0,1-.18-.09,1.53,1.53,0,0,1-.15-.12,1,1,0,0,1-.21-.33.94.94,0,0,1,0-.76,1,1,0,0,1,.21-.33,1.53,1.53,0,0,1,.15-.12.76.76,0,0,1,.18-.09A.63.63,0,0,1,91.3,41a.85.85,0,0,1,.39,0,.61.61,0,0,1,.19.06.56.56,0,0,1,.17.09,1,1,0,0,1,.16.12,1,1,0,0,1,.21.33.94.94,0,0,1,0,.76,1,1,0,0,1-.21.33,1,1,0,0,1-.16.12.56.56,0,0,1-.17.09.62.62,0,0,1-.19.06Z"/><g class="cls-1"><rect class="cls-16" height="3" width="18" x="81" y="30"/></g><g class="cls-1"><polygon class="cls-9" points="99 35.48 81 43.95 81 46.95 99 38.48 99 35.48"/></g><g class="cls-1"><polygon class="cls-9" points="99 30 81 30 81 41.53 99 33.17 99 30"/></g><path class="cls-5" d="M99,52H81a1,1,0,0,1-1-1V30a1,1,0,0,1,1-1H99a1,1,0,0,1,1,1V51A1,1,0,0,1,99,52ZM82,50H98V31H82Z"/><g class="cls-17"><path class="cls-5" d="M110,33h-7a1,1,0,0,1,0-2h7a1,1,0,0,1,0,2Z"/><path class="cls-5" d="M118,37H103a1,1,0,0,1,0-2h15a1,1,0,0,1,0,2Z"/><path class="cls-5" d="M118,44H103a1,1,0,0,1,0-2h15a1,1,0,0,1,0,2Z"/><path class="cls-5" d="M83,56H81a1,1,0,0,1,0-2h2a1,1,0,0,1,0,2Z"/><path class="cls-5" d="M88,56H86a1,1,0,0,1,0-2h2a1,1,0,0,1,0,2Z"/><path class="cls-5" d="M93,56H91a1,1,0,0,1,0-2h2a1,1,0,0,1,0,2Z"/><path class="cls-5" d="M98,56H96a1,1,0,0,1,0-2h2a1,1,0,0,1,0,2Z"/><path class="cls-5" d="M103,56h-2a1,1,0,0,1,0-2h2a1,1,0,0,1,0,2Z"/><path class="cls-5" d="M108,56h-2a1,1,0,0,1,0-2h2a1,1,0,0,1,0,2Z"/><path class="cls-5" d="M113,56h-2a1,1,0,0,1,0-2h2a1,1,0,0,1,0,2Z"/><path class="cls-5" d="M118,56h-2a1,1,0,0,1,0-2h2a1,1,0,0,1,0,2Z"/><path class="cls-5" d="M106,48h-3a1,1,0,0,1,0-2h3a1,1,0,0,1,0,2Z"/><path class="cls-5" d="M118,48h-9a1,1,0,0,1,0-2h9a1,1,0,0,1,0,2Z"/></g></g><rect class="cls-18" height="92" rx="4" ry="4" width="50" x="21" y="29"/><path class="cls-5" d="M67,122H25a5,5,0,0,1-5-5V33a5,5,0,0,1,5-5H67a5,5,0,0,1,5,5v84A5,5,0,0,1,67,122ZM25,30a3,3,0,0,0-3,3v84a3,3,0,0,0,3,3H67a3,3,0,0,0,3-3V33a3,3,0,0,0-3-3Z"/><rect class="cls-19" height="72" width="50" x="21" y="37"/><polygon class="cls-20" points="21 83 71 53.37 71 37 21 37 21 83"/><polygon class="cls-20" points="21 89 71 59.37 71 56.37 21 86 21 89"/><g class="cls-1"><rect class="cls-16" height="4" width="50" x="21" y="37"/></g><path class="cls-5" d="M71,110H21a1,1,0,0,1-1-1V37a1,1,0,0,1,1-1H71a1,1,0,0,1,1,1v72A1,1,0,0,1,71,110Zm-49-2H70V38H22Z"/><path class="cls-5" d="M49,34H43a1,1,0,0,1,0-2h6a1,1,0,0,1,0,2Z"/><circle class="cls-21" cx="46" cy="115" r="3"/><path class="cls-5" d="M46,119a4,4,0,1,1,4-4A4,4,0,0,1,46,119Zm0-6a2,2,0,1,0,2,2A2,2,0,0,0,46,113Z"/><rect class="cls-2" height="46" rx="2" ry="2" width="72" x="43" y="51"/><g class="cls-1"><path class="cls-9" d="M113,51H45a2,2,0,0,0-2,2V86.79l72-34.18A2,2,0,0,0,113,51Z"/></g><g class="cls-1"><polygon class="cls-9" points="115 55.04 43 89.24 43 92.24 115 58.04 115 55.04"/></g><path class="cls-5" d="M113,98H45a3,3,0,0,1-3-3V53a3,3,0,0,1,3-3h68a3,3,0,0,1,3,3V95A3,3,0,0,1,113,98ZM45,52a1,1,0,0,0-1,1V95a1,1,0,0,0,1,1h68a1,1,0,0,0,1-1V53a1,1,0,0,0-1-1Z"/><rect class="cls-22" height="8" rx="1" ry="1" width="8" x="49" y="57"/><path class="cls-5" d="M56,66H50a2,2,0,0,1-2-2V58a2,2,0,0,1,2-2h6a2,2,0,0,1,2,2v6A2,2,0,0,1,56,66Zm-6-8v6h6V58Z"/><path class="cls-9" d="M53,86H49a1,1,0,0,1,0-2h4a1,1,0,0,1,0,2Z"/><path class="cls-9" d="M61,86H57a1,1,0,0,1,0-2h4a1,1,0,0,1,0,2Z"/><path class="cls-9" d="M71,90H49a1,1,0,0,1,0-2H71a1,1,0,0,1,0,2Z"/><path class="cls-9" d="M81,90H75a1,1,0,0,1,0-2h6a1,1,0,0,1,0,2Z"/><path class="cls-9" d="M49,78a1,1,0,0,1-1-1V75a1,1,0,0,1,2,0v2A1,1,0,0,1,49,78Z"/><path class="cls-9" d="M53,78a1,1,0,0,1-1-1V75a1,1,0,0,1,2,0v2A1,1,0,0,1,53,78Z"/><path class="cls-9" d="M57,78a1,1,0,0,1-1-1V75a1,1,0,0,1,2,0v2A1,1,0,0,1,57,78Z"/><path class="cls-9" d="M61,78a1,1,0,0,1-1-1V75a1,1,0,0,1,2,0v2A1,1,0,0,1,61,78Z"/><path class="cls-9" d="M65,78a1,1,0,0,1-1-1V75a1,1,0,0,1,2,0v2A1,1,0,0,1,65,78Z"/><path class="cls-9" d="M69,78a1,1,0,0,1-1-1V75a1,1,0,0,1,2,0v2A1,1,0,0,1,69,78Z"/><path class="cls-9" d="M73,78a1,1,0,0,1-1-1V75a1,1,0,0,1,2,0v2A1,1,0,0,1,73,78Z"/><path class="cls-9" d="M77,78a1,1,0,0,1-1-1V75a1,1,0,0,1,2,0v2A1,1,0,0,1,77,78Z"/><path class="cls-9" d="M81,78a1,1,0,0,1-1-1V75a1,1,0,0,1,2,0v2A1,1,0,0,1,81,78Z"/><path class="cls-9" d="M85,78a1,1,0,0,1-1-1V75a1,1,0,0,1,2,0v2A1,1,0,0,1,85,78Z"/><path class="cls-9" d="M89,78a1,1,0,0,1-1-1V75a1,1,0,0,1,2,0v2A1,1,0,0,1,89,78Z"/><path class="cls-9" d="M93,78a1,1,0,0,1-1-1V75a1,1,0,0,1,2,0v2A1,1,0,0,1,93,78Z"/><path class="cls-9" d="M97,78a1,1,0,0,1-1-1V75a1,1,0,0,1,2,0v2A1,1,0,0,1,97,78Z"/><path class="cls-9" d="M101,78a1,1,0,0,1-1-1V75a1,1,0,0,1,2,0v2A1,1,0,0,1,101,78Z"/><path class="cls-9" d="M105,78a1,1,0,0,1-1-1V75a1,1,0,0,1,2,0v2A1,1,0,0,1,105,78Z"/><path class="cls-9" d="M109,78a1,1,0,0,1-1-1V75a1,1,0,0,1,2,0v2A1,1,0,0,1,109,78Z"/><circle class="cls-22" cx="105.5" cy="87" r="4"/><circle class="cls-9" cx="99.5" cy="87" r="4"/><path class="cls-5" d="M105.5,92a5,5,0,0,1-3-1,5,5,0,1,1,0-8,5,5,0,1,1,3,9Zm-3-3.38a1,1,0,0,1,.75.34,3,3,0,0,0,2.25,1,3,3,0,0,0,0-6,3,3,0,0,0-2.25,1,1,1,0,0,1-1.51,0,3,3,0,0,0-2.25-1,3,3,0,0,0,0,6,3,3,0,0,0,2.25-1A1,1,0,0,1,102.5,88.62Z"/></svg>