<?xml version="1.0" ?><svg data-name="003" id="_003" viewBox="0 0 128 128" xmlns="http://www.w3.org/2000/svg"><defs><style>.cls-1{opacity:0.3;}.cls-2{fill:#97c1ff;}.cls-3{fill:#fff27d;}.cls-4{fill:#ff91a9;}.cls-5{fill:#b1f1a8;}.cls-6{fill:#96d7ff;}.cls-7{fill:#c9c1f5;}.cls-8{fill:#eef6ff;}.cls-9{fill:#5cbeff;}.cls-10{fill:#fff;}.cls-11{fill:#6d6daa;}.cls-12{fill:#48bc33;}.cls-13{opacity:0.5;}.cls-14{fill:#7690a8;}.cls-15{fill:#ced8ee;}.cls-16{fill:#fffad1;}.cls-17{fill:#ff99b1;}.cls-17,.cls-18,.cls-19{fill-rule:evenodd;}.cls-18{fill:#db4962;}.cls-19{fill:#fff9e0;}.cls-20{fill:#a09557;}</style></defs><title/><g class="cls-1"><path class="cls-2" d="M10.62,35.23a30,30,0,0,0-1.84,34.3A19.69,19.69,0,0,1,11.62,82c-.41,3.85-1.44,7.8-.85,11.89C14,116,32.72,124,50.81,122.75a37,37,0,0,0,16.34-5,20.4,20.4,0,0,1,17.16-1.68c15.15,5.31,34-2.74,38.08-24.57a16.6,16.6,0,0,0-.85-8,20.58,20.58,0,0,1,.93-14.76,28.49,28.49,0,0,0-20.34-39.53,20.06,20.06,0,0,1-13.62-10,29,29,0,0,0-49.44-2.5,19.68,19.68,0,0,1-11.83,7.79A29.83,29.83,0,0,0,10.62,35.23Z"/><path class="cls-3" d="M63,37a44,44,0,0,1,44,44h5a49,49,0,1,0-98,0h5A44,44,0,0,1,63,37Z"/><path class="cls-4" d="M63,32a49,49,0,0,1,49,49h5A54,54,0,1,0,9,81h5A49,49,0,0,1,63,32Z"/><path class="cls-5" d="M63,42a39,39,0,0,1,39,39h5a44,44,0,1,0-88,0h5A39,39,0,0,1,63,42Z"/><path class="cls-6" d="M63,47A34,34,0,0,1,97,81h5a39,39,0,1,0-78,0h5A34,34,0,0,1,63,47Z"/><path class="cls-7" d="M63,52A29,29,0,0,1,92,81h5a34,34,0,1,0-68,0h5A29,29,0,0,1,63,52Z"/><path class="cls-8" d="M120.58,78.5A11.29,11.29,0,0,0,98.79,73.3,6,6,0,0,0,89,78c0,.17,0,.34,0,.51A9,9,0,0,0,92,96h25.61a9,9,0,0,0,2.94-17.5Z"/><g class="cls-1"><path class="cls-9" d="M117.64,93H92a9,9,0,0,1-8.91-7.52A9,9,0,0,0,92,96h25.61a9,9,0,0,0,8.91-10.52A9,9,0,0,1,117.64,93Z"/></g><path class="cls-10" d="M89.05,81.51c0-.17,0-.34,0-.51a6,6,0,0,1,9.77-4.7,11.28,11.28,0,0,1,21.79,5.19,9,9,0,0,1,6,7,8.91,8.91,0,0,0-6-10A11.29,11.29,0,0,0,98.79,73.3,6,6,0,0,0,89,78c0,.17,0,.34,0,.51a8.9,8.9,0,0,0-5.92,10A9,9,0,0,1,89.05,81.51Z"/><path class="cls-11" d="M117.64,97H92a10,10,0,0,1-4-19.16,7,7,0,0,1,10.32-6,12.3,12.3,0,0,1,23.31,5.43c0,.19,0,.39,0,.58a10,10,0,0,1-4,19.17ZM95.05,73a5,5,0,0,0-5,5c0,.14,0,.29,0,.43a1,1,0,0,1-.67,1A8,8,0,0,0,92,95h25.61a8,8,0,0,0,2.62-15.56,1,1,0,0,1-.67-1.06,9.94,9.94,0,0,0,.07-1.14,10.3,10.3,0,0,0-19.93-3.59,1,1,0,0,1-1.56.43A5,5,0,0,0,95.05,73Z"/><path class="cls-8" d="M117.64,78a9.06,9.06,0,0,1,3,.5"/><path class="cls-11" d="M120.61,79.5a1,1,0,0,1-.33-.06,8.05,8.05,0,0,0-2.64-.44,1,1,0,0,1,0-2,10.05,10.05,0,0,1,3.29.55,1,1,0,0,1-.33,1.95Z"/><path class="cls-8" d="M89.05,78.5a9.06,9.06,0,0,1,3-.5"/><path class="cls-11" d="M89,79.5a1,1,0,0,1-.33-1.94A10.05,10.05,0,0,1,92,77a1,1,0,0,1,0,2,8.05,8.05,0,0,0-2.66.45A1,1,0,0,1,89,79.5Z"/><path class="cls-8" d="M98.75,73.27a6,6,0,0,1,1.64,2"/><path class="cls-11" d="M100.39,76.22a1,1,0,0,1-.89-.54,5.06,5.06,0,0,0-1.37-1.63,1,1,0,0,1,1.23-1.58,7.08,7.08,0,0,1,1.91,2.28,1,1,0,0,1-.88,1.46Z"/><path class="cls-8" d="M12,15.66a6,6,0,0,1,11.62-2.77,3.21,3.21,0,0,1,5.21,2.51c0,.09,0,.18,0,.27A4.79,4.79,0,0,1,27.18,25H13.52A4.8,4.8,0,0,1,12,15.66Z"/><path class="cls-10" d="M12,17.66a6,6,0,0,1,11.62-2.77,3.21,3.21,0,0,1,5.21,2.51c0,.09,0,.18,0,.27a4.81,4.81,0,0,1,3.11,3.54,4.76,4.76,0,0,0-3.11-5.54c0-.09,0-.18,0-.27a3.21,3.21,0,0,0-5.21-2.51A6,6,0,0,0,12,15.66a4.76,4.76,0,0,0-3.14,5.55A4.81,4.81,0,0,1,12,17.66Z"/><g class="cls-1"><path class="cls-9" d="M27.18,23H13.52a4.81,4.81,0,0,1-4.71-3.78,4.75,4.75,0,0,0-.11,1A4.81,4.81,0,0,0,13.52,25H27.18A4.81,4.81,0,0,0,32,20.2a4.75,4.75,0,0,0-.11-1A4.81,4.81,0,0,1,27.18,23Z"/></g><path class="cls-11" d="M27.18,26H13.52a5.79,5.79,0,0,1-2.61-11v0A7,7,0,0,1,24,11.5,4.22,4.22,0,0,1,29.77,15a5.79,5.79,0,0,1-2.59,11ZM17.94,10a5,5,0,0,0-5,5,5,5,0,0,0,0,.55,1,1,0,0,1-.67,1.06A3.8,3.8,0,0,0,13.52,24H27.18a3.79,3.79,0,0,0,1.26-7.38,1,1,0,0,1-.67-1c0-.06,0-.12,0-.19a2.21,2.21,0,0,0-3.59-1.72,1,1,0,0,1-1.56-.43A5,5,0,0,0,17.94,10Z"/><path class="cls-8" d="M13.52,15.4a4.83,4.83,0,0,0-1.58.26"/><path class="cls-11" d="M11.94,16.66a1,1,0,0,1-.33-1.95,5.83,5.83,0,0,1,1.91-.32,1,1,0,0,1,0,2,3.83,3.83,0,0,0-1.25.21A1,1,0,0,1,11.94,16.66Z"/><path class="cls-8" d="M28.77,15.67a4.83,4.83,0,0,0-1.59-.27"/><path class="cls-11" d="M28.77,16.67a1,1,0,0,1-.33-.06,3.84,3.84,0,0,0-1.26-.21,1,1,0,1,1,0-2,5.83,5.83,0,0,1,1.92.32,1,1,0,0,1-.33,1.94Z"/><path class="cls-8" d="M23.6,12.87a3.22,3.22,0,0,0-.87,1"/><path class="cls-11" d="M22.72,14.92a1,1,0,0,1-.88-1.47A4.22,4.22,0,0,1,23,12.08a1,1,0,1,1,1.22,1.58,2.22,2.22,0,0,0-.6.72A1,1,0,0,1,22.72,14.92Z"/><path class="cls-8" d="M7.27,73a8,8,0,0,1,11.88-8.85,10.49,10.49,0,0,1,18.8,5.25A7.5,7.5,0,0,1,35.5,84H7.5a5.5,5.5,0,0,1-.23-11Z"/><path class="cls-10" d="M7.27,76a7.62,7.62,0,0,1-.2-3,5.47,5.47,0,0,0-4.84,7A5.48,5.48,0,0,1,7.27,76Z"/><path class="cls-10" d="M15,66a8,8,0,0,1,4.14,1.16,10.49,10.49,0,0,1,18.8,5.25A7.5,7.5,0,0,1,42.84,78a7.49,7.49,0,0,0-4.9-8.62,10.49,10.49,0,0,0-18.8-5.25A8,8,0,0,0,7,71a7.72,7.72,0,0,0,.15,1.45A8,8,0,0,1,15,66Z"/><path class="cls-9" d="M7.27,70c0-.18-.08-.38-.11-.57,0,.2-.07.39-.09.59Z"/><g class="cls-1"><path class="cls-9" d="M35.5,81H7.5a5.5,5.5,0,0,1-5.28-4A5.44,5.44,0,0,0,2,78.5,5.5,5.5,0,0,0,7.5,84h28a7.43,7.43,0,0,0,7.34-9A7.5,7.5,0,0,1,35.5,81Z"/></g><path class="cls-11" d="M35.5,85H7.5A6.5,6.5,0,0,1,6.08,72.16,8.68,8.68,0,0,1,6,71a9,9,0,0,1,12.89-8.11,11.49,11.49,0,0,1,20,5.81A8.5,8.5,0,0,1,35.5,85ZM15,64a7,7,0,0,0-6.77,8.76A1,1,0,0,1,7.31,74a4.5,4.5,0,0,0,.19,9h28a6.5,6.5,0,0,0,2.12-12.64,1,1,0,0,1-.67-.84,9.49,9.49,0,0,0-17-4.75,1,1,0,0,1-1.32.25A7,7,0,0,0,15,64Z"/><path class="cls-11" d="M37.49,74.75a1,1,0,0,1-1-1.31A9.51,9.51,0,0,0,27.5,61a1,1,0,1,1,0-2A11.51,11.51,0,0,1,38.44,74.06,1,1,0,0,1,37.49,74.75Z"/><path class="cls-11" d="M11.12,75.36a1,1,0,0,1-.66-.25A4.49,4.49,0,0,0,7.5,74a1,1,0,0,1,0-2,6.49,6.49,0,0,1,4.28,1.61,1,1,0,0,1-.66,1.75Z"/><path class="cls-11" d="M21.51,67.34a1,1,0,0,1-.81-.42A7,7,0,0,0,15,64a1,1,0,0,1,0-2,9,9,0,0,1,7.32,3.76,1,1,0,0,1-.81,1.58Z"/><path class="cls-10" d="M120,101l-.2,0a.71.71,0,0,1-.19-.06.68.68,0,0,1-.17-.09l-.15-.12a1.19,1.19,0,0,1-.22-.33,1,1,0,0,1,.22-1.09,1.43,1.43,0,0,1,.15-.12l.17-.1.19,0a1,1,0,0,1,.58,0,1.2,1.2,0,0,1,.32.22A1,1,0,0,1,120,101Z"/><path class="cls-10" d="M118,105h-6a1,1,0,0,1,0-2h6a1,1,0,1,1,0,2Z"/><path class="cls-10" d="M116,101h-7a1,1,0,0,1,0-2h7a1,1,0,0,1,0,2Z"/><path class="cls-10" d="M108,105h-2a1,1,0,0,1,0-2h2a1,1,0,0,1,0,2Z"/><path class="cls-10" d="M116,109h-8a1,1,0,1,1,0-2h8a1,1,0,0,1,0,2Z"/><path class="cls-10" d="M14,56l-.2,0a.73.73,0,0,1-.19-.06.57.57,0,0,1-.17-.09l-.15-.12a1.21,1.21,0,0,1-.22-.33A1,1,0,0,1,13,55a.7.7,0,0,1,0-.2,1.38,1.38,0,0,1,0-.18l.09-.18.13-.15a.87.87,0,0,1,.15-.12.57.57,0,0,1,.17-.09A.71.71,0,0,1,13.8,54a1,1,0,0,1,.9.27l.13.15.09.18.06.18a1.26,1.26,0,0,1,0,.2,1,1,0,0,1-.3.71A1,1,0,0,1,14,56Z"/><path class="cls-10" d="M15,52H13a1,1,0,0,1,0-2h2a1,1,0,0,1,0,2Z"/><path class="cls-10" d="M18,48H8a1,1,0,0,1,0-2H18a1,1,0,0,1,0,2Z"/><path class="cls-10" d="M9,52H5a1,1,0,0,1,0-2H9a1,1,0,0,1,0,2Z"/><path class="cls-10" d="M10,56H2a1,1,0,0,1,0-2h8a1,1,0,0,1,0,2Z"/></g><path class="cls-7" d="M105.92,7.38a5.55,5.55,0,0,0,3.69,3.69q2.77.92,0,1.85a5.55,5.55,0,0,0-3.69,3.69q-.92,2.77-1.85,0a5.55,5.55,0,0,0-3.69-3.69q-2.77-.92,0-1.85a5.55,5.55,0,0,0,3.69-3.69Q105,4.62,105.92,7.38Z"/><path class="cls-7" d="M24.69,89.31a3.7,3.7,0,0,0,2.46,2.46q1.85.62,0,1.23a3.7,3.7,0,0,0-2.46,2.46q-.62,1.85-1.23,0A3.7,3.7,0,0,0,21,93q-1.85-.62,0-1.23a3.7,3.7,0,0,0,2.46-2.46Q24.08,87.46,24.69,89.31Z"/><path class="cls-6" d="M12.77,36.15a4.62,4.62,0,0,0,3.08,3.08q2.31.77,0,1.54a4.62,4.62,0,0,0-3.08,3.08q-.77,2.31-1.54,0a4.62,4.62,0,0,0-3.08-3.08q-2.31-.77,0-1.54a4.62,4.62,0,0,0,3.08-3.08Q12,33.85,12.77,36.15Z"/><path class="cls-7" d="M15.62,109.92a3.7,3.7,0,0,0,2.46,2.46q1.85.62,0,1.23a3.7,3.7,0,0,0-2.46,2.46q-.62,1.85-1.23,0a3.7,3.7,0,0,0-2.46-2.46q-1.85-.62,0-1.23a3.7,3.7,0,0,0,2.46-2.46Q15,108.08,15.62,109.92Z"/><path class="cls-6" d="M121.62,46.92a3.7,3.7,0,0,0,2.46,2.46q1.85.62,0,1.23a3.7,3.7,0,0,0-2.46,2.46q-.62,1.85-1.23,0a3.7,3.7,0,0,0-2.46-2.46q-1.85-.62,0-1.23a3.7,3.7,0,0,0,2.46-2.46Q121,45.08,121.62,46.92Z"/><path class="cls-7" d="M101.62,58.92a3.7,3.7,0,0,0,2.46,2.46q1.85.62,0,1.23a3.7,3.7,0,0,0-2.46,2.46q-.62,1.85-1.23,0a3.7,3.7,0,0,0-2.46-2.46q-1.85-.62,0-1.23a3.7,3.7,0,0,0,2.46-2.46Q101,57.08,101.62,58.92Z"/><path class="cls-5" d="M77.67,37.66C79.33,17.83,71.19,5,65,5S50.67,17.83,52.33,37.66h0c3.6-4.58,22.19-4.75,25.35,0h0Z"/><g class="cls-1"><path class="cls-12" d="M77.85,30.47c0,1-.09,2.1-.18,3.19h0c-3.16-4.75-21.75-4.58-25.35,0h0c-.09-1.08-.15-2.14-.18-3.19a60.48,60.48,0,0,0,.18,7.19h0c3.6-4.58,22.19-4.75,25.35,0h0A60.48,60.48,0,0,0,77.85,30.47Z"/></g><g class="cls-13"><path class="cls-10" d="M65,15.75c5.4,0,12.3,3,12.85,18.72C78.44,16.47,70.85,5,65,5S51.56,16.47,52.15,34.47C52.7,18.79,59.6,15.75,65,15.75Z"/></g><path class="cls-8" d="M34.32,41h.07a18.69,18.69,0,0,1,17.94-3.3C50.67,17.83,58.81,5,65,5,49.39,5,31.86,18.06,34.32,41Z"/><path class="cls-8" d="M34.32,41v0h0Z"/><g class="cls-1"><path class="cls-14" d="M34.38,37h-.07v0l0-.05h0c-.08-.76-.14-1.51-.18-2.25A38.77,38.77,0,0,0,34.32,41h.07a18.69,18.69,0,0,1,17.94-3.3c-.12-1.39-.18-2.74-.2-4.06A18.66,18.66,0,0,0,34.38,37Z"/></g><path class="cls-10" d="M54.5,16.38C58.25,8.25,62.74,5,65,5,49.91,5,33,17.21,34.14,38.71,35,22.81,42.62,19.25,54.5,16.38Z"/><path class="cls-5" d="M34.32,41C31.83,18.08,49.38,5,65,5A42,42,0,0,0,23.05,44.87c2.87-3,6.69-4.32,11.44-3.92C34.56,41,34.38,41,34.32,41Z"/><g class="cls-1"><path class="cls-12" d="M23.52,40.44a42.12,42.12,0,0,0-.46,4.43c2.83-2.94,6.59-4.28,11.26-3.92a39.9,39.9,0,0,1-.23-4A13.41,13.41,0,0,0,23.52,40.44Z"/></g><g class="cls-13"><path class="cls-10" d="M37.83,21.33C45,8.5,56.32,5,65,5A42,42,0,0,0,23.05,44.87c.15-.15.31-.28.46-.43C25.32,32.94,28.69,27.74,37.83,21.33Z"/></g><path class="cls-5" d="M95.68,41C98.17,18.08,80.62,5,65,5a42,42,0,0,1,41.95,39.87c-2.87-3-6.69-4.32-11.44-3.92C95.44,41,95.62,41,95.68,41Z"/><g class="cls-1"><path class="cls-12" d="M95.91,36.94a39.9,39.9,0,0,1-.23,4c4.67-.36,8.43,1,11.26,3.92a42.12,42.12,0,0,0-.46-4.43A13.41,13.41,0,0,0,95.91,36.94Z"/></g><g class="cls-13"><path class="cls-10" d="M91.83,20.33c9.14,6.41,12.85,12.61,14.65,24.11.15.15.31.28.46.43A42,42,0,0,0,65,5C73.68,5,85.67,9.33,91.83,20.33Z"/></g><path class="cls-10" d="M95.68,41h-.07a18.69,18.69,0,0,0-17.94-3.3C79.33,17.83,71.19,5,65,5,80.61,5,98.14,18.06,95.68,41Z"/><path class="cls-10" d="M95.68,41v0h0Z"/><path class="cls-8" d="M95.68,41h-.07a18.69,18.69,0,0,0-17.94-3.3C79.33,17.83,71.19,5,65,5,80.61,5,98.14,18.06,95.68,41Z"/><path class="cls-8" d="M95.68,41v0h0Z"/><g class="cls-1"><path class="cls-14" d="M95.68,37h0l0,.05v0h-.07A18.66,18.66,0,0,0,77.88,33.6c0,1.32-.09,2.67-.2,4.06A18.69,18.69,0,0,1,95.62,41h.07a38.77,38.77,0,0,0,.18-6.25C95.82,35.44,95.77,36.19,95.68,37Z"/></g><path class="cls-10" d="M75.25,16C87.13,18.88,95,22.81,95.86,38.71,97,17.21,80.09,5,65,5,67.26,5,72.13,8.25,75.25,16Z"/><path class="cls-15" d="M106.95,44.87c-2.83,2.94-6.57,4.27-11.22,3.92,0,0-.14,0-.11,0a18.69,18.69,0,0,1-17.94,3.3h0c-3.16,4.75-21.75,4.58-25.35,0h0a18.69,18.69,0,0,1-17.94-3.3s-.09,0-.11,0c-4.65.35-8.4-1-11.22-3.92,2.83-2.94,6.57-4.27,11.22-3.92l0,.05c.06,0,.24,0,.18,0h-.11a18.69,18.69,0,0,1,17.94-3.3h0c3.6-4.58,22.19-4.75,25.35,0h0A18.69,18.69,0,0,1,95.62,41H95.5c-.06,0,.12,0,.18,0l0-.05C100.38,40.6,104.12,41.94,106.95,44.87Z"/><g class="cls-1"><path class="cls-14" d="M52.32,44.09h0c3.6,4.58,22.19,4.75,25.35,0h0a18.68,18.68,0,0,0,17.83-3.22,18.68,18.68,0,0,0-17.83-3.22h0c-3.16-4.75-21.75-4.58-25.35,0h0a18.68,18.68,0,0,0-17.83,3.22A18.68,18.68,0,0,0,52.32,44.09Z"/></g><path class="cls-11" d="M65.3,56.58c-5.19,0-10.83-1-13.29-3.36a19.57,19.57,0,0,1-17.95-3.41,14.33,14.33,0,0,1-11.73-4.25,1,1,0,0,1,0-1.39,14.32,14.32,0,0,1,11.73-4.25A19.56,19.56,0,0,1,52,36.53c2.72-2.59,9.26-3.55,14.86-3.33,2.61.1,8.64.64,11.16,3.32a19.57,19.57,0,0,1,17.9,3.42,14.32,14.32,0,0,1,11.73,4.25,1,1,0,0,1,0,1.39,14.3,14.3,0,0,1-11.73,4.25A19.56,19.56,0,0,1,78,53.24c-2.52,2.68-8.55,3.21-11.16,3.32C66.36,56.57,65.83,56.58,65.3,56.58Zm-13-5.5a1,1,0,0,1,.79.38c1.58,2,7.47,3.33,13.68,3.09,5-.2,9-1.39,10-3a1,1,0,0,1,.83-.45h0a1,1,0,0,1,.36.07A17.76,17.76,0,0,0,95,48a1.14,1.14,0,0,1,.82-.22,12.66,12.66,0,0,0,9.7-2.93A12.59,12.59,0,0,0,96,41.93a1,1,0,0,1-.57,0,1.18,1.18,0,0,1-.75-.48A17.73,17.73,0,0,0,78,38.6a1,1,0,0,1-.34.06h0a1,1,0,0,1-.83-.44c-1.09-1.64-5-2.82-10-3-6.22-.24-12.1,1.08-13.68,3.09a1,1,0,0,1-.83.38,1,1,0,0,1-.32-.07,17.73,17.73,0,0,0-16.63,2.89,1.17,1.17,0,0,1-.75.48,1.29,1.29,0,0,1-.54,0,12.6,12.6,0,0,0-9.54,2.94,12.61,12.61,0,0,0,9.62,2.93,1.2,1.2,0,0,1,.71.08,1,1,0,0,1,.26.18A17.76,17.76,0,0,0,52,51.15a1,1,0,0,1,.32-.06Z"/><path class="cls-11" d="M52.33,38.66a1,1,0,0,1-1-1c-1.23-15,3-25.49,7.4-30.27C60.75,5.16,62.92,4,65,4s4.25,1.16,6.28,3.36c4.39,4.78,8.64,15.24,7.4,30.29a1,1,0,1,1-2-.08C77.89,23.11,73.73,13,69.8,8.72,68.19,7,66.49,6,65,6s-3.19,1-4.8,2.72C56.27,13,52.11,23.11,53.32,37.58a1,1,0,0,1,0,.32,1,1,0,0,1-1,.77Z"/><path class="cls-11" d="M34.38,42h-.09a1.07,1.07,0,0,1-1-.89c-1.39-13,3.51-21.47,7.87-26.33A32.54,32.54,0,0,1,65,4a1,1,0,0,1,0,2A30.51,30.51,0,0,0,42.68,16.07c-4.06,4.52-8.63,12.45-7.4,24.55a.93.93,0,0,1,.06.42A1,1,0,0,1,34.38,42Z"/><path class="cls-11" d="M34.29,42a1,1,0,0,1-.71-.31l-.06-.07a1,1,0,0,1-.13-1.11,1,1,0,0,1,1-.55,1,1,0,0,1,.35,1.94A1.07,1.07,0,0,1,34.29,42Z"/><path class="cls-11" d="M23.05,45.87H23a1,1,0,0,1-.95-1A43,43,0,0,1,65,4a1,1,0,0,1,0,2A41,41,0,0,0,24.05,44.92,1,1,0,0,1,23.05,45.87Z"/><path class="cls-11" d="M106.95,45.87a1,1,0,0,1-1-1A40.91,40.91,0,0,0,85.18,11.29a31.79,31.79,0,0,1,3.64,3.46c4.36,4.86,9.26,13.38,7.85,26.36a1,1,0,0,1-2-.22C96,28.64,91.42,20.64,87.33,16.08A30.52,30.52,0,0,0,65,6a1,1,0,0,1,0-2,43,43,0,0,1,42.95,40.82,1,1,0,0,1-.95,1Z"/><path class="cls-11" d="M65,88a1,1,0,0,1-.71-.29L22.35,45.58a1,1,0,1,1,1.42-1.41l41.95,42.1A1,1,0,0,1,65,88Z"/><path class="cls-11" d="M65,88a1,1,0,0,1-.83-.45l-30.5-46a1,1,0,1,1,1.67-1.11l30.5,46A1,1,0,0,1,65,88Z"/><path class="cls-11" d="M65,88a1,1,0,0,1-.83-1.56l30.68-46a1,1,0,0,1,1.66,1.11l-30.68,46A1,1,0,0,1,65,88Z"/><path class="cls-11" d="M65,88a1,1,0,0,1-1-.75L51.36,37.91a1,1,0,0,1,1.94-.5L66,86.73a1,1,0,0,1-.72,1.22A1,1,0,0,1,65,88Z"/><path class="cls-11" d="M65,88a1,1,0,0,1-.25,0A1,1,0,0,1,64,86.73L76.71,37.41a1,1,0,0,1,1.94.5L66,87.23A1,1,0,0,1,65,88Z"/><path class="cls-11" d="M65,88a1,1,0,0,1-.71-1.71l41.95-42.1a1,1,0,1,1,1.42,1.41L65.71,87.68A1,1,0,0,1,65,88Z"/><path class="cls-16" d="M62.6,84c1.89,1.89,2.4,7,2.4,7s-5.15-.51-7-2.4A3.28,3.28,0,0,1,62.6,84Z"/><path class="cls-11" d="M65,92h-.1c-.56-.06-5.57-.61-7.65-2.69a4.28,4.28,0,0,1,6.06-6.05h0c2.08,2.08,2.63,7.08,2.69,7.65A1,1,0,0,1,65,92Zm-4.72-8a2.28,2.28,0,0,0-1.61,3.89c1,1,3.47,1.64,5.16,1.93-.29-1.69-.91-4.13-1.93-5.16A2.28,2.28,0,0,0,60.28,84Z"/><path class="cls-16" d="M67.4,84c-1.89,1.89-2.4,7-2.4,7s5.15-.51,7-2.4A3.28,3.28,0,0,0,67.4,84Z"/><path class="cls-11" d="M65,92a1,1,0,0,1-1-1.1c.06-.56.61-5.57,2.69-7.65h0a4.28,4.28,0,1,1,6.06,6.05c-2.08,2.08-7.08,2.63-7.65,2.69Zm3.1-7.33c-1,1-1.64,3.47-1.93,5.16,1.69-.29,4.13-.91,5.16-1.93a2.28,2.28,0,0,0-3.23-3.23Z"/><path class="cls-17" d="M80,121H50a2,2,0,0,1-2-2V99H82v20A2,2,0,0,1,80,121Z"/><g class="cls-1"><path class="cls-18" d="M80,118H50a2,2,0,0,1-2-2v3a2,2,0,0,0,2,2H80a2,2,0,0,0,2-2v-3A2,2,0,0,1,80,118Z"/></g><path class="cls-11" d="M80,122H50a3,3,0,0,1-3-3V99a1,1,0,0,1,1-1H82a1,1,0,0,1,1,1v20A3,3,0,0,1,80,122ZM49,100v19a1,1,0,0,0,1,1H80a1,1,0,0,0,1-1V100Z"/><path class="cls-17" d="M83,99H47V93a2,2,0,0,1,2-2H81a2,2,0,0,1,2,2Z"/><g class="cls-1"><path class="cls-19" d="M81,91H49a2,2,0,0,0-2,2v3a2,2,0,0,1,2-2H81a2,2,0,0,1,2,2V93A2,2,0,0,0,81,91Z"/></g><path class="cls-11" d="M83,100H47a1,1,0,0,1-1-1V93a3,3,0,0,1,3-3H81a3,3,0,0,1,3,3v6A1,1,0,0,1,83,100ZM48,98H82V93a1,1,0,0,0-1-1H49a1,1,0,0,0-1,1Z"/><rect class="cls-16" height="30" width="8" x="61" y="91"/><rect class="cls-10" height="3" width="8" x="61" y="91"/><g class="cls-1"><rect class="cls-20" height="3" width="8" x="61" y="118"/></g><path class="cls-11" d="M69,122H61a1,1,0,0,1-1-1V91a1,1,0,0,1,1-1h8a1,1,0,0,1,1,1v30A1,1,0,0,1,69,122Zm-7-2h6V92H62Z"/><g class="cls-13"><path class="cls-11" d="M69,100H61a1,1,0,0,1,0-2h8a1,1,0,0,1,0,2Z"/></g></svg>