<?xml version="1.0" ?><svg data-name="003" id="_003" viewBox="0 0 128 128" xmlns="http://www.w3.org/2000/svg"><defs><style>.cls-1{opacity:0.3;}.cls-2{fill:#97c1ff;}.cls-3{fill:#eef6ff;}.cls-4{fill:#5cbeff;}.cls-5{fill:#fff;}.cls-6{fill:#6d6daa;}.cls-7{fill:#c9c1f5;}.cls-8{fill:#96d7ff;}.cls-9{opacity:0.5;}.cls-10{fill:#939fc6;}</style></defs><title/><g class="cls-1"><path class="cls-2" d="M126.69,49.66a30,30,0,0,0-23.51-25,19.69,19.69,0,0,1-10.93-6.55A37,37,0,0,0,28,33.44,21,21,0,0,1,17.11,47.11C2.94,54.47-4.15,73.57,8.76,91.5a16.6,16.6,0,0,0,6.35,4.91,20.58,20.58,0,0,1,10,10.88,28.49,28.49,0,0,0,42.62,12.64A20.06,20.06,0,0,1,84.38,117a29,29,0,0,0,36-33.79,20.08,20.08,0,0,1,2.51-14.13A29.83,29.83,0,0,0,126.69,49.66Z"/><path class="cls-3" d="M50.12,19a9,9,0,0,0-17.43-4.16,4.82,4.82,0,0,0-7.81,3.76c0,.14,0,.28,0,.41a7.19,7.19,0,0,0,2.39,14H47.77a7.19,7.19,0,0,0,2.35-14Z"/><g class="cls-1"><path class="cls-4" d="M47.77,30.6H27.29a7.22,7.22,0,0,1-7.12-6A7.19,7.19,0,0,0,27.29,33H47.77a7.19,7.19,0,0,0,7.12-8.42A7.22,7.22,0,0,1,47.77,30.6Z"/></g><path class="cls-5" d="M24.9,21.41c0-.14,0-.27,0-.41a4.82,4.82,0,0,1,7.81-3.76A9,9,0,0,1,50.12,21.4,7.22,7.22,0,0,1,54.89,27a7.13,7.13,0,0,0-4.77-8,9,9,0,0,0-17.43-4.16,4.82,4.82,0,0,0-7.81,3.76c0,.14,0,.28,0,.41a7.12,7.12,0,0,0-4.74,8A7.21,7.21,0,0,1,24.9,21.41Z"/><path class="cls-6" d="M47.77,34H27.29a8.19,8.19,0,0,1-3.4-15.66,5.82,5.82,0,0,1,8.37-5A10,10,0,0,1,51.18,18q0,.17,0,.34A8.19,8.19,0,0,1,47.77,34ZM29.7,14.8a3.81,3.81,0,0,0-3.82,3.8c0,.11,0,.22,0,.33a1,1,0,0,1-.67,1,6.19,6.19,0,0,0,2.06,12H47.77a6.19,6.19,0,0,0,2-12.06,1,1,0,0,1-.67-1.06,7.78,7.78,0,0,0,.05-.88,8,8,0,0,0-15.56-2.81,1,1,0,0,1-1.56.43A3.79,3.79,0,0,0,29.7,14.8Z"/><path class="cls-3" d="M47.77,18.6a7.25,7.25,0,0,1,2.37.4"/><path class="cls-6" d="M50.14,20a1,1,0,0,1-.33-.05,6.25,6.25,0,0,0-2-.34,1,1,0,0,1,0-2,8.23,8.23,0,0,1,2.7.45A1,1,0,0,1,50.14,20Z"/><path class="cls-3" d="M24.89,19a7.25,7.25,0,0,1,2.39-.4"/><path class="cls-6" d="M24.89,20a1,1,0,0,1-.33-1.94,8.25,8.25,0,0,1,2.72-.46,1,1,0,0,1,0,2,6.26,6.26,0,0,0-2.06.35A1,1,0,0,1,24.89,20Z"/><path class="cls-3" d="M32.66,14.81A4.83,4.83,0,0,1,34,16.38"/><path class="cls-6" d="M34,17.38a1,1,0,0,1-.89-.53,3.81,3.81,0,0,0-1-1.24A1,1,0,1,1,33.27,14a5.79,5.79,0,0,1,1.58,1.89A1,1,0,0,1,34,17.38Z"/><path class="cls-3" d="M9.1,81.5A11.29,11.29,0,0,1,30.89,76.3,6,6,0,0,1,40.66,81c0,.17,0,.34,0,.51a9,9,0,0,1-3,17.49H12A9,9,0,0,1,9.1,81.5Z"/><g class="cls-1"><path class="cls-4" d="M12,96H37.64a9,9,0,0,0,8.91-7.52A9,9,0,0,1,37.64,99H12A9,9,0,0,1,3.13,88.48,9,9,0,0,0,12,96Z"/></g><path class="cls-5" d="M40.63,84.51c0-.17,0-.34,0-.51a6,6,0,0,0-9.77-4.7A11.28,11.28,0,0,0,9.1,84.5a9,9,0,0,0-6,7,8.91,8.91,0,0,1,6-10A11.29,11.29,0,0,1,30.89,76.3,6,6,0,0,1,40.66,81c0,.17,0,.34,0,.51a8.9,8.9,0,0,1,5.92,10A9,9,0,0,0,40.63,84.51Z"/><path class="cls-6" d="M37.64,100H12A10,10,0,0,1,8,80.83q0-.3,0-.58a12.3,12.3,0,0,1,23.31-5.43,7,7,0,0,1,3.3-.82,7,7,0,0,1,7,6.84,10,10,0,0,1-4,19.16ZM20.32,70A10.28,10.28,0,0,0,10,80.25a9.93,9.93,0,0,0,.07,1.13,1,1,0,0,1-.67,1.06A8,8,0,0,0,12,98H37.64A8,8,0,0,0,40.3,82.46a1,1,0,0,1-.67-1c0-.14,0-.28,0-.43a5,5,0,0,0-8.15-3.91A1,1,0,0,1,30,76.65,10.34,10.34,0,0,0,20.32,70Z"/><path class="cls-3" d="M12,81a9.06,9.06,0,0,0-3,.5"/><path class="cls-6" d="M9.07,82.5a1,1,0,0,1-.33-1.95A10.07,10.07,0,0,1,12,80a1,1,0,1,1,0,2,8,8,0,0,0-2.64.44A1,1,0,0,1,9.07,82.5Z"/><path class="cls-3" d="M40.63,81.5a9.06,9.06,0,0,0-3-.5"/><path class="cls-6" d="M40.63,82.5a1,1,0,0,1-.33-.06A8.06,8.06,0,0,0,37.64,82a1,1,0,0,1,0-2,10,10,0,0,1,3.32.56,1,1,0,0,1-.33,1.94Z"/><path class="cls-3" d="M30.93,76.27a6,6,0,0,0-1.64,2"/><path class="cls-6" d="M29.29,79.22a1,1,0,0,1-.88-1.46,7.07,7.07,0,0,1,1.91-2.28,1,1,0,0,1,1.23,1.58,5.05,5.05,0,0,0-1.37,1.63A1,1,0,0,1,29.29,79.22Z"/><path class="cls-3" d="M95.73,23.34a6,6,0,0,1,11.62-2.77,3.21,3.21,0,0,1,5.21,2.51c0,.09,0,.18,0,.27A4.79,4.79,0,0,1,111,32.67H97.3a4.8,4.8,0,0,1-1.57-9.34Z"/><path class="cls-5" d="M95.73,25.34a6,6,0,0,1,11.62-2.77,3.21,3.21,0,0,1,5.21,2.51c0,.09,0,.18,0,.27a4.81,4.81,0,0,1,3.11,3.54,4.76,4.76,0,0,0-3.11-5.54c0-.09,0-.18,0-.27a3.21,3.21,0,0,0-5.21-2.51,6,6,0,0,0-11.62,2.77,4.76,4.76,0,0,0-3.14,5.55A4.81,4.81,0,0,1,95.73,25.34Z"/><g class="cls-1"><path class="cls-4" d="M111,30.67H97.3a4.81,4.81,0,0,1-4.71-3.78,4.75,4.75,0,0,0-.11,1,4.81,4.81,0,0,0,4.82,4.8H111a4.81,4.81,0,0,0,4.82-4.8,4.75,4.75,0,0,0-.11-1A4.81,4.81,0,0,1,111,30.67Z"/></g><path class="cls-6" d="M111,33.67H97.3a5.79,5.79,0,0,1-2.61-11v0a7,7,0,0,1,13.1-3.5,4.22,4.22,0,0,1,5.75,3.51,5.79,5.79,0,0,1-2.59,11Zm-9.24-16a5,5,0,0,0-5,5,4.93,4.93,0,0,0,0,.55,1,1,0,0,1-.67,1.06,3.79,3.79,0,0,0,1.24,7.39H111a3.79,3.79,0,0,0,1.26-7.38,1,1,0,0,1-.67-1c0-.06,0-.12,0-.19A2.21,2.21,0,0,0,108,21.35a1,1,0,0,1-1.56-.43A5,5,0,0,0,101.71,17.67Z"/><path class="cls-3" d="M97.3,23.07a4.83,4.83,0,0,0-1.58.26"/><path class="cls-6" d="M95.72,24.34a1,1,0,0,1-.33-1.95,5.83,5.83,0,0,1,1.91-.32,1,1,0,0,1,0,2,3.83,3.83,0,0,0-1.25.21A1,1,0,0,1,95.72,24.34Z"/><path class="cls-3" d="M112.55,23.34a4.83,4.83,0,0,0-1.59-.27"/><path class="cls-6" d="M112.55,24.34a1,1,0,0,1-.33-.06,3.83,3.83,0,0,0-1.26-.21,1,1,0,0,1,0-2,5.84,5.84,0,0,1,1.92.32,1,1,0,0,1-.33,1.94Z"/><path class="cls-3" d="M107.37,20.55a3.22,3.22,0,0,0-.87,1"/><path class="cls-6" d="M106.5,22.59a1,1,0,0,1-.88-1.47,4.26,4.26,0,0,1,1.14-1.37A1,1,0,1,1,108,21.34a2.25,2.25,0,0,0-.6.72A1,1,0,0,1,106.5,22.59Z"/><path class="cls-5" d="M122.51,69a1,1,0,0,1-.38-.08,1,1,0,0,1-.33-.21,1,1,0,0,1-.29-.71,1,1,0,0,1,.29-.71,1,1,0,0,1,1.41,0,1,1,0,0,1,.3.71,1,1,0,0,1-.3.71A1,1,0,0,1,122.51,69Z"/><path class="cls-5" d="M120.51,73h-6a1,1,0,0,1,0-2h6a1,1,0,0,1,0,2Z"/><path class="cls-5" d="M118.51,69h-7a1,1,0,0,1,0-2h7a1,1,0,0,1,0,2Z"/><path class="cls-5" d="M110.51,73h-2a1,1,0,0,1,0-2h2a1,1,0,0,1,0,2Z"/><path class="cls-5" d="M118.51,77h-8a1,1,0,0,1,0-2h8a1,1,0,0,1,0,2Z"/><path class="cls-5" d="M13,64a1,1,0,0,1-.7-.29,1,1,0,0,1-.22-.33.94.94,0,0,1,0-.76.84.84,0,0,1,.22-.33,1,1,0,0,1,1.41,0,1,1,0,0,1,.22.33,1.06,1.06,0,0,1,0,.76,1.2,1.2,0,0,1-.22.33,1,1,0,0,1-.32.21A1,1,0,0,1,13,64Z"/><path class="cls-5" d="M14,60H12a1,1,0,1,1,0-2h2a1,1,0,0,1,0,2Z"/><path class="cls-5" d="M17,56H7a1,1,0,0,1,0-2H17a1,1,0,0,1,0,2Z"/><path class="cls-5" d="M8,60H4a1,1,0,1,1,0-2H8a1,1,0,1,1,0,2Z"/><path class="cls-5" d="M9,64H1a1,1,0,0,1,0-2H9a1,1,0,0,1,0,2Z"/><path class="cls-3" d="M82.77,98a8,8,0,0,1,11.88-8.85,10.49,10.49,0,0,1,18.8,5.25A7.5,7.5,0,0,1,111,109H83a5.5,5.5,0,0,1-.23-11Z"/><path class="cls-5" d="M82.77,101a7.62,7.62,0,0,1-.2-3,5.47,5.47,0,0,0-4.84,7A5.48,5.48,0,0,1,82.77,101Z"/><path class="cls-5" d="M90.51,91a8,8,0,0,1,4.14,1.16,10.49,10.49,0,0,1,18.8,5.25,7.5,7.5,0,0,1,4.9,5.62,7.49,7.49,0,0,0-4.9-8.62,10.49,10.49,0,0,0-18.8-5.25A8,8,0,0,0,82.51,96a7.72,7.72,0,0,0,.15,1.45A8,8,0,0,1,90.51,91Z"/><path class="cls-4" d="M82.77,95c0-.18-.08-.38-.11-.57,0,.2-.07.39-.09.59Z"/><g class="cls-1"><path class="cls-4" d="M111,106H83a5.5,5.5,0,0,1-5.28-4,5.44,5.44,0,0,0-.22,1.46A5.5,5.5,0,0,0,83,109h28a7.43,7.43,0,0,0,7.34-9A7.5,7.5,0,0,1,111,106Z"/></g><path class="cls-6" d="M83,110a6.5,6.5,0,0,1-1.42-12.84A8.54,8.54,0,0,1,81.51,96,9,9,0,0,1,94.4,87.9a11.49,11.49,0,0,1,20,5.8A8.5,8.5,0,0,1,111,110Zm7.5-21a7,7,0,0,0-6.77,8.76A1,1,0,0,1,82.81,99a4.5,4.5,0,0,0,.19,9h28a6.5,6.5,0,0,0,2.12-12.64,1,1,0,0,1-.67-.84,9.49,9.49,0,0,0-17-4.75,1,1,0,0,1-1.32.25A7,7,0,0,0,90.51,89Z"/><path class="cls-6" d="M113,99.75a1,1,0,0,1-1-1.31A9.51,9.51,0,0,0,103,86a1,1,0,0,1,0-2,11.51,11.51,0,0,1,10.94,15.06A1,1,0,0,1,113,99.75Z"/><path class="cls-6" d="M86.63,100.36a1,1,0,0,1-.66-.25A4.5,4.5,0,0,0,83,99a1,1,0,0,1,0-2,6.49,6.49,0,0,1,4.28,1.61,1,1,0,0,1-.66,1.75Z"/><path class="cls-6" d="M97,92.34a1,1,0,0,1-.81-.42A7,7,0,0,0,90.51,89a1,1,0,0,1,0-2,9,9,0,0,1,7.32,3.76A1,1,0,0,1,97,92.34Z"/></g><path class="cls-7" d="M86.54,8.46a5.55,5.55,0,0,0,3.69,3.69q2.77.92,0,1.85a5.55,5.55,0,0,0-3.69,3.69q-.92,2.77-1.85,0A5.55,5.55,0,0,0,81,14q-2.77-.92,0-1.85a5.55,5.55,0,0,0,3.69-3.69Q85.62,5.69,86.54,8.46Z"/><path class="cls-8" d="M117.62,41.92a3.7,3.7,0,0,0,2.46,2.46q1.85.62,0,1.23a3.7,3.7,0,0,0-2.46,2.46q-.62,1.85-1.23,0a3.7,3.7,0,0,0-2.46-2.46q-1.85-.62,0-1.23a3.7,3.7,0,0,0,2.46-2.46Q117,40.08,117.62,41.92Z"/><path class="cls-8" d="M16.77,9.15a4.62,4.62,0,0,0,3.08,3.08q2.31.77,0,1.54a4.62,4.62,0,0,0-3.08,3.08q-.77,2.31-1.54,0a4.62,4.62,0,0,0-3.08-3.08q-2.31-.77,0-1.54a4.62,4.62,0,0,0,3.08-3.08Q16,6.85,16.77,9.15Z"/><path class="cls-7" d="M14.62,39.92a3.7,3.7,0,0,0,2.46,2.46q1.85.62,0,1.23a3.7,3.7,0,0,0-2.46,2.46q-.62,1.85-1.23,0a3.7,3.7,0,0,0-2.46-2.46q-1.85-.62,0-1.23a3.7,3.7,0,0,0,2.46-2.46Q14,38.08,14.62,39.92Z"/><path class="cls-7" d="M113,112.57a3.7,3.7,0,0,0,2.46,2.46q1.85.62,0,1.23a3.7,3.7,0,0,0-2.46,2.46q-.62,1.85-1.23,0a3.7,3.7,0,0,0-2.46-2.46q-1.85-.62,0-1.23a3.7,3.7,0,0,0,2.46-2.46Q112.4,110.73,113,112.57Z"/><path class="cls-8" d="M20,107.57A3.7,3.7,0,0,0,22.48,110q1.85.62,0,1.23A3.7,3.7,0,0,0,20,113.73q-.62,1.85-1.23,0a3.7,3.7,0,0,0-2.46-2.46q-1.85-.62,0-1.23a3.7,3.7,0,0,0,2.46-2.46Q19.41,105.73,20,107.57Z"/><circle class="cls-3" cx="66" cy="64" r="42"/><circle class="cls-3" cx="66" cy="64" r="35"/><path class="cls-5" d="M66,29A35,35,0,0,0,34.23,78.69l63.23-30A35,35,0,0,0,66,29Z"/><path class="cls-5" d="M36.61,83,99.3,53.23q-.42-1.3-.94-2.56l-63.15,30C35.65,81.47,36.12,82.24,36.61,83Z"/><path class="cls-5" d="M66,95A35,35,0,0,1,31.06,62c0,.66-.06,1.33-.06,2a35,35,0,0,0,70,0c0-.67,0-1.34-.06-2A35,35,0,0,1,66,95Z"/><g class="cls-1"><path class="cls-4" d="M66,33a35,35,0,0,1,34.94,33c0-.66.06-1.33.06-2a35,35,0,1,0-70,0c0,.67,0,1.34.06,2A35,35,0,0,1,66,33Z"/></g><path class="cls-5" d="M66,26a42,42,0,0,1,41.95,40c0-.66.05-1.33.05-2a42,42,0,1,0-84,0c0,.67,0,1.34.05,2A42,42,0,0,1,66,26Z"/><g class="cls-1"><path class="cls-4" d="M66,102A42,42,0,0,1,24.05,62c0,.66-.05,1.33-.05,2a42,42,0,1,0,84,0c0-.67,0-1.34-.05-2A42,42,0,0,1,66,102Z"/></g><path class="cls-6" d="M66,107a43,43,0,1,1,43-43A43,43,0,0,1,66,107Zm0-84a41,41,0,1,0,41,41A41,41,0,0,0,66,23Z"/><rect class="cls-5" height="12" rx="1" ry="1" width="12" x="74" y="58"/><path class="cls-6" d="M85,71H75a2,2,0,0,1-2-2V59a2,2,0,0,1,2-2H85a2,2,0,0,1,2,2V69A2,2,0,0,1,85,71ZM75,59V69H85V59Z"/><path class="cls-6" d="M78,68a1,1,0,0,1-1-1V61a1,1,0,0,1,2,0v6A1,1,0,0,1,78,68Z"/><path class="cls-6" d="M78,62H77a1,1,0,0,1,0-2h1a1,1,0,0,1,0,2Z"/><path class="cls-6" d="M83,65a1,1,0,0,1-1-1V61a1,1,0,0,1,2,0v3A1,1,0,0,1,83,65Z"/><path class="cls-6" d="M81,68a1,1,0,0,1-1-1V64a1,1,0,0,1,2,0v3A1,1,0,0,1,81,68Z"/><path class="cls-6" d="M83,62H81a1,1,0,0,1,0-2h2a1,1,0,0,1,0,2Z"/><path class="cls-6" d="M83,68H81a1,1,0,0,1,0-2h2a1,1,0,0,1,0,2Z"/><path class="cls-6" d="M83,65H81a1,1,0,0,1,0-2h2a1,1,0,0,1,0,2Z"/><path class="cls-6" d="M66,41a1,1,0,0,1-1-1V35a1,1,0,0,1,2,0v5A1,1,0,0,1,66,41Z"/><path class="cls-6" d="M66,94a1,1,0,0,1-1-1V88a1,1,0,0,1,2,0v5A1,1,0,0,1,66,94Z"/><path class="cls-6" d="M95,65H90a1,1,0,0,1,0-2h5a1,1,0,0,1,0,2Z"/><path class="cls-6" d="M42,65H37a1,1,0,0,1,0-2h5a1,1,0,0,1,0,2Z"/><path class="cls-6" d="M53,42.48a1,1,0,0,1-.87-.5l-1.5-2.6a1,1,0,1,1,1.73-1l1.5,2.6a1,1,0,0,1-.87,1.5Z"/><path class="cls-6" d="M80.5,90.11a1,1,0,0,1-.87-.5L78.13,87a1,1,0,0,1,1.73-1l1.5,2.6a1,1,0,0,1-.87,1.5Z"/><path class="cls-6" d="M88.52,52a1,1,0,0,1-.5-1.87l2.6-1.5a1,1,0,0,1,1,1.73L89,51.87A1,1,0,0,1,88.52,52Z"/><path class="cls-6" d="M40.89,79.5a1,1,0,0,1-.5-1.87l2.6-1.5a1,1,0,1,1,1,1.73l-2.6,1.5A1,1,0,0,1,40.89,79.5Z"/><path class="cls-6" d="M43.48,52a1,1,0,0,1-.5-.13l-2.6-1.5a1,1,0,1,1,1-1.73l2.6,1.5a1,1,0,0,1-.5,1.87Z"/><path class="cls-6" d="M91.11,79.5a1,1,0,0,1-.5-.13L88,77.87a1,1,0,1,1,1-1.73l2.6,1.5a1,1,0,0,1-.5,1.87Z"/><path class="cls-6" d="M79,42.48a1,1,0,0,1-.87-1.5l1.5-2.6a1,1,0,1,1,1.73,1L79.87,42A1,1,0,0,1,79,42.48Z"/><path class="cls-6" d="M51.5,90.11a1,1,0,0,1-.87-1.5l1.5-2.6a1,1,0,1,1,1.73,1l-1.5,2.6A1,1,0,0,1,51.5,90.11Z"/><g class="cls-9"><path class="cls-6" d="M61,36.44a1,1,0,0,1-.7-.29A1,1,0,0,1,60,35.06a1,1,0,0,1,.22-.33l.15-.12a.56.56,0,0,1,.17-.09.61.61,0,0,1,.19-.06,1,1,0,0,1,.9.27,1.2,1.2,0,0,1,.22.33A1,1,0,0,1,61,36.44Z"/><path class="cls-6" d="M71,93.56a1,1,0,0,1-.71-.29,1,1,0,0,1-.22-.33,1.08,1.08,0,0,1,0-.76,1.09,1.09,0,0,1,.22-.33,1,1,0,0,1,.32-.21.69.69,0,0,1,.19-.06,1,1,0,0,1,.9.27,1.07,1.07,0,0,1,.22.33,1.06,1.06,0,0,1,0,.76,1,1,0,0,1-.22.33A1,1,0,0,1,71,93.56Z"/><path class="cls-6" d="M94.56,60a1,1,0,0,1-.92-.61.86.86,0,0,1-.08-.39.84.84,0,0,1,.08-.38,1,1,0,0,1,.21-.32l.15-.13a1.4,1.4,0,0,1,.18-.09l.18-.06a1,1,0,0,1,.58.06,1,1,0,0,1,.33.22,1,1,0,0,1,0,1.41,1,1,0,0,1-.33.22A1,1,0,0,1,94.56,60Z"/><path class="cls-6" d="M37.44,70a1,1,0,0,1-1-1,1,1,0,0,1,.29-.71,1,1,0,0,1,1.42,0,1,1,0,0,1,.29.71,1,1,0,0,1-.29.7,1,1,0,0,1-.33.22A1,1,0,0,1,37.44,70Z"/><path class="cls-6" d="M56.08,37.75a1,1,0,0,1-.71-.3,1,1,0,0,1-.29-.7,1,1,0,0,1,.08-.38,1,1,0,0,1,.21-.33,1,1,0,0,1,.91-.27l.18,0,.18.1.15.12a.93.93,0,0,1,.21.33,1,1,0,0,1,.08.38,1,1,0,0,1-.29.7A1,1,0,0,1,56.08,37.75Z"/><path class="cls-6" d="M75.92,92.25a1.08,1.08,0,0,1-.39-.07,1,1,0,0,1-.32-.22,1,1,0,0,1-.29-.71,1.05,1.05,0,0,1,.29-.71l.15-.12a.74.74,0,0,1,.18-.09.65.65,0,0,1,.18-.06,1,1,0,0,1,.91.27,1.05,1.05,0,0,1,.29.71,1,1,0,0,1-.29.71,1.18,1.18,0,0,1-.33.22A1,1,0,0,1,75.92,92.25Z"/><path class="cls-6" d="M93.25,55.08a1,1,0,0,1-.38-.07,1.18,1.18,0,0,1-.33-.22,1,1,0,0,1-.29-.71,1,1,0,0,1,1.38-.92.93.93,0,0,1,.33.21,1,1,0,0,1,.29.71,1,1,0,0,1-.29.71,1.2,1.2,0,0,1-.33.22A1,1,0,0,1,93.25,55.08Z"/><path class="cls-6" d="M38.75,74.92a1,1,0,0,1-.71-.3,1,1,0,0,1-.22-.32A1,1,0,0,1,38,73.21a1,1,0,0,1,1.41,0,.84.84,0,0,1,.22.33,1,1,0,0,1,.08.38,1,1,0,0,1-1,1Z"/><path class="cls-6" d="M47.36,42.79a1,1,0,0,1-.71-.3,1,1,0,0,1-.22-.32,1,1,0,0,1-.07-.38,1,1,0,0,1,1.7-.71,1,1,0,0,1,.3.71,1,1,0,0,1-.08.38.89.89,0,0,1-.22.32A1,1,0,0,1,47.36,42.79Z"/><path class="cls-6" d="M84.64,87.21a1,1,0,0,1-.92-.61,1,1,0,0,1-.08-.39,1,1,0,0,1,.08-.38,1,1,0,0,1,.21-.32,1,1,0,0,1,1.42,0,1,1,0,0,1,.21.32,1,1,0,0,1,.08.38,1,1,0,0,1-.08.39,1,1,0,0,1-.21.32.91.91,0,0,1-.33.22A1,1,0,0,1,84.64,87.21Z"/><path class="cls-6" d="M88.22,46.36a1,1,0,0,1-.71-.3.88.88,0,0,1-.22-.32.94.94,0,0,1,0-.76.92.92,0,0,1,.22-.33,1,1,0,0,1,1.41,0,1.07,1.07,0,0,1,.22.33,1.06,1.06,0,0,1,0,.76,1.07,1.07,0,0,1-.54.54A1,1,0,0,1,88.22,46.36Z"/><path class="cls-6" d="M43.78,83.64a1,1,0,0,1-.7-.29,1,1,0,0,1-.22-1.09,1,1,0,0,1,.22-.33,1,1,0,0,1,1.41,0,1.2,1.2,0,0,1,.22.33,1,1,0,0,1-.22,1.09A1,1,0,0,1,43.78,83.64Z"/><path class="cls-6" d="M43.78,46.36a1,1,0,0,1-.7-.3.88.88,0,0,1-.22-.32,1,1,0,0,1,0-.76.84.84,0,0,1,.22-.33,1,1,0,0,1,1.41,0,1,1,0,0,1,.22.33,1,1,0,0,1,.07.38,1,1,0,0,1-1,1Z"/><path class="cls-6" d="M88.22,83.64a1,1,0,0,1-.71-.29,1,1,0,0,1-.22-1.09,1,1,0,0,1,.22-.33,1,1,0,0,1,1.41,0,1,1,0,0,1,.29.71,1,1,0,0,1-1,1Z"/><path class="cls-6" d="M84.64,42.78a1,1,0,0,1-1-1,1,1,0,0,1,.08-.38,1,1,0,0,1,.21-.32,1,1,0,0,1,.33-.22,1,1,0,0,1,.76,0,.91.91,0,0,1,.33.22,1,1,0,0,1,.21.32,1,1,0,0,1,.08.38,1,1,0,0,1-1,1Z"/><path class="cls-6" d="M47.36,87.21a1,1,0,0,1-1-1,.84.84,0,0,1,.08-.38,1,1,0,0,1,.21-.32,1,1,0,0,1,1.41,0,.88.88,0,0,1,.22.32,1,1,0,0,1,.08.38,1,1,0,0,1-1,1Z"/><path class="cls-6" d="M38.75,55.08a1,1,0,0,1-.93-1.38,1.48,1.48,0,0,1,.22-.33.93.93,0,0,1,.33-.21,1,1,0,0,1,1.08.21,1,1,0,0,1,0,1.42,1.22,1.22,0,0,1-.32.22A1,1,0,0,1,38.75,55.08Z"/><path class="cls-6" d="M93.25,74.92a1,1,0,0,1-.71-.3,1,1,0,0,1-.29-.7,1,1,0,0,1,.29-.71.94.94,0,0,1,.16-.12.88.88,0,0,1,.17-.1l.19-.05a1,1,0,0,1,1.19,1,1,1,0,0,1-.29.7,1,1,0,0,1-.33.22A1,1,0,0,1,93.25,74.92Z"/><path class="cls-6" d="M75.92,37.75a1,1,0,0,1-.71-.29,1,1,0,0,1-.29-.71,1,1,0,0,1,.29-.71l.15-.12.18-.1.18,0a1,1,0,0,1,.91.27,1.05,1.05,0,0,1,.29.71,1,1,0,0,1-.08.38,1.16,1.16,0,0,1-.21.33A1,1,0,0,1,75.92,37.75Z"/><path class="cls-6" d="M56.08,92.25a1,1,0,0,1-.71-.29,1.16,1.16,0,0,1-.21-.33.94.94,0,0,1,0-.76,1.15,1.15,0,0,1,.21-.33,1,1,0,0,1,1.42,0,1.15,1.15,0,0,1,.21.33.94.94,0,0,1,0,.76,1.16,1.16,0,0,1-.21.33A1,1,0,0,1,56.08,92.25Z"/><path class="cls-6" d="M37.44,60a1,1,0,0,1-.92-.61,1,1,0,0,1-.08-.39,1,1,0,0,1,.08-.38,1,1,0,0,1,.21-.32,1,1,0,0,1,1.42,0,1,1,0,0,1,.21.32,1,1,0,0,1,.08.38,1,1,0,0,1-.08.39,1,1,0,0,1-.21.32,1,1,0,0,1-.33.22A1,1,0,0,1,37.44,60Z"/><path class="cls-6" d="M94.56,70a1,1,0,0,1-.38-.08,1,1,0,0,1-.33-.22,1,1,0,0,1-.29-.71,1,1,0,0,1,.29-.7L94,68.2l.18-.09.18,0a1,1,0,0,1,.58,0,1.21,1.21,0,0,1,.33.22,1,1,0,0,1,.29.7,1,1,0,0,1-.29.71,1,1,0,0,1-.71.3Z"/><path class="cls-6" d="M71,36.44a1,1,0,0,1-.39-.08,1,1,0,0,1-.32-.21,1,1,0,0,1-.22-1.09,1.22,1.22,0,0,1,.22-.33,1,1,0,0,1,.9-.27.62.62,0,0,1,.19.06.57.57,0,0,1,.17.09l.15.12a1.2,1.2,0,0,1,.22.33,1,1,0,0,1-.22,1.09A1,1,0,0,1,71,36.44Z"/><path class="cls-6" d="M61,93.56a1,1,0,0,1-.7-.29,1,1,0,0,1,0-1.42l.15-.12a.56.56,0,0,1,.17-.09.59.59,0,0,1,.19-.06,1,1,0,1,1,.19,2Z"/></g><path class="cls-10" d="M65,47.09,63,64h6L67,47.09A1,1,0,0,0,65,47.09Z"/><path class="cls-6" d="M69,65H63a1,1,0,0,1-1-1.12L64,47h0a2,2,0,0,1,4,0l2,16.92A1,1,0,0,1,69,65Zm-4.87-2h3.75L66,47.2l-1-.12,1,.12Z"/><path class="cls-10" d="M50.74,80.68,67.83,65.83l-3.66-3.66L49.32,79.26A1,1,0,0,0,50.74,80.68Z"/><path class="cls-6" d="M50.08,81.94a2,2,0,0,1-1.41-.6,2,2,0,0,1-.09-2.73L63.42,61.52a1,1,0,0,1,.72-.34.93.93,0,0,1,.74.29l3.66,3.66a1,1,0,0,1-.05,1.46L51.39,81.43A2,2,0,0,1,50.08,81.94Zm14.15-18.3L50.08,79.92,66.36,65.78Z"/><circle class="cls-3" cx="66" cy="64" r="4" transform="translate(-25.92 65.41) rotate(-45)"/><path class="cls-6" d="M66,69a5,5,0,1,1,3.54-1.46h0A5,5,0,0,1,66,69Zm0-8a3,3,0,0,0-2.12,5.12,3.07,3.07,0,0,0,4.24,0h0A3,3,0,0,0,66,61Z"/><g class="cls-9"><path class="cls-6" d="M69,79H63a1,1,0,0,1,0-2h6a1,1,0,0,1,0,2Z"/></g><g class="cls-1"><path class="cls-5" d="M66,29A35,35,0,0,0,34.23,78.69l63.23-30A35,35,0,0,0,66,29Z"/></g><g class="cls-1"><path class="cls-5" d="M36.61,83,99.3,53.23q-.42-1.3-.94-2.56l-63.15,30C35.65,81.47,36.12,82.24,36.61,83Z"/></g><path class="cls-6" d="M66,100a36,36,0,1,1,36-36A36,36,0,0,1,66,100Zm0-70a34,34,0,1,0,34,34A34,34,0,0,0,66,30Z"/></svg>