<?xml version="1.0" ?><svg data-name="003" id="_003" viewBox="0 0 128 128" xmlns="http://www.w3.org/2000/svg"><defs><style>.cls-1{opacity:0.3;}.cls-2{fill:#97c1ff;}.cls-3{fill:#96d7ff;}.cls-4{fill:#ced8ee;}.cls-5{fill:#6d6daa;}.cls-6{fill:#eef6ff;}.cls-7{fill:#8d96b8;}.cls-8{fill:#dfd6de;}.cls-9{fill:#fff;}.cls-10{fill:#c9c1f5;}.cls-11{fill:#3f89e0;}.cls-12{fill:#9eb2cc;}.cls-13{fill:#4d5266;}.cls-14{fill:#ff99b1;}.cls-15{fill:#db4962;}.cls-16{fill:#fff9e0;}.cls-17{fill:#5cbeff;}.cls-18{fill:#c7e9ff;}.cls-19{fill:#1c64ba;}.cls-20{fill:#ff9797;}.cls-21{fill:#fffad1;}.cls-22{fill:#939fc6;}.cls-23{opacity:0.5;}</style></defs><title/><g class="cls-1"><path class="cls-2" d="M126.19,46.69a30,30,0,0,0-23.51-25A19.69,19.69,0,0,1,91.74,15.1,37,37,0,0,0,27.42,30.78,19.57,19.57,0,0,1,17,43.95,28,28,0,1,0,54.66,81.29,9.41,9.41,0,0,1,63.17,76H64a12.39,12.39,0,0,1,12,9.74,20,20,0,0,0,26.06,14.14A20,20,0,0,0,115.47,82,21.38,21.38,0,0,1,120,69.65,29.91,29.91,0,0,0,126.19,46.69Z"/><path class="cls-3" d="M93,22a1,1,0,0,1-1-1,1.05,1.05,0,0,1,.29-.71l.15-.12a.74.74,0,0,1,.18-.09.66.66,0,0,1,.18-.06,1,1,0,0,1,.91.27A1.05,1.05,0,0,1,94,21a1,1,0,0,1-.29.71,1.15,1.15,0,0,1-.33.21A1,1,0,0,1,93,22Z"/><path class="cls-3" d="M115,12h-8a1,1,0,0,1,0-2h8a1,1,0,0,1,0,2Z"/><path class="cls-3" d="M117,16H97a1,1,0,0,1,0-2h20a1,1,0,0,1,0,2Z"/><path class="cls-3" d="M113,20H103a1,1,0,0,1,0-2h10a1,1,0,0,1,0,2Z"/><rect class="cls-4" height="65.99" width="43" x="76" y="49"/><path class="cls-5" d="M119,116H76a1,1,0,0,1-1-1V49a1,1,0,0,1,1-1h43a1,1,0,0,1,1,1v66A1,1,0,0,1,119,116Zm-42-2h41V50H77Z"/><path class="cls-6" d="M121,49H76V38h38.07a3,3,0,0,1,2.73,1.76Z"/><path class="cls-5" d="M121,50H76a1,1,0,0,1-1-1V38a1,1,0,0,1,1-1h38.07a4,4,0,0,1,3.64,2.34l4.2,9.24A1,1,0,0,1,121,50ZM77,48h42.45l-3.56-7.83A2,2,0,0,0,114.07,39H77Z"/><path class="cls-7" d="M91.5,44h0A2.5,2.5,0,0,1,94,46.5V49a0,0,0,0,1,0,0H89a0,0,0,0,1,0,0V46.5A2.5,2.5,0,0,1,91.5,44Z"/><path class="cls-5" d="M94,50H89a1,1,0,0,1-1-1V46.5a3.5,3.5,0,1,1,7,0V49A1,1,0,0,1,94,50Zm-4-2h3V46.5a1.5,1.5,0,1,0-3,0Z"/><path class="cls-7" d="M101.5,44h0a2.5,2.5,0,0,1,2.5,2.5V49a0,0,0,0,1,0,0H99a0,0,0,0,1,0,0V46.5A2.5,2.5,0,0,1,101.5,44Z"/><path class="cls-5" d="M104,50H99a1,1,0,0,1-1-1V46.5a3.5,3.5,0,1,1,7,0V49A1,1,0,0,1,104,50Zm-4-2h3V46.5a1.5,1.5,0,0,0-3,0Z"/><path class="cls-7" d="M111.5,44h0a2.5,2.5,0,0,1,2.5,2.5V49a0,0,0,0,1,0,0h-5a0,0,0,0,1,0,0V46.5A2.5,2.5,0,0,1,111.5,44Z"/><path class="cls-5" d="M114,50h-5a1,1,0,0,1-1-1V46.5a3.5,3.5,0,0,1,7,0V49A1,1,0,0,1,114,50Zm-4-2h3V46.5a1.5,1.5,0,0,0-3,0Z"/><path class="cls-5" d="M94,69a1,1,0,0,1-1-1V66a1,1,0,0,1,2,0v2A1,1,0,0,1,94,69Z"/><path class="cls-5" d="M109,69a1,1,0,0,1-1-1V66a1,1,0,0,1,2,0v2A1,1,0,0,1,109,69Z"/><path class="cls-5" d="M104,69a1,1,0,0,1-1-1V66a1,1,0,0,1,2,0v2A1,1,0,0,1,104,69Z"/><path class="cls-5" d="M99,69a1,1,0,0,1-1-1V66a1,1,0,1,1,2,0v2A1,1,0,0,1,99,69Z"/><path class="cls-5" d="M114,69a1,1,0,0,1-1-1V66a1,1,0,0,1,2,0v2A1,1,0,0,1,114,69Z"/><path class="cls-5" d="M94,57a1,1,0,0,1-1-1V54a1,1,0,1,1,2,0v2A1,1,0,0,1,94,57Z"/><path class="cls-5" d="M109,57a1,1,0,0,1-1-1V54a1,1,0,0,1,2,0v2A1,1,0,0,1,109,57Z"/><path class="cls-5" d="M104,57a1,1,0,0,1-1-1V54a1,1,0,0,1,2,0v2A1,1,0,0,1,104,57Z"/><path class="cls-5" d="M99,57a1,1,0,0,1-1-1V54a1,1,0,1,1,2,0v2A1,1,0,0,1,99,57Z"/><path class="cls-5" d="M114,57a1,1,0,0,1-1-1V54a1,1,0,0,1,2,0v2A1,1,0,0,1,114,57Z"/><path class="cls-5" d="M94,81a1,1,0,0,1-1-1V78a1,1,0,0,1,2,0v2A1,1,0,0,1,94,81Z"/><path class="cls-5" d="M109,81a1,1,0,0,1-1-1V78a1,1,0,0,1,2,0v2A1,1,0,0,1,109,81Z"/><path class="cls-5" d="M104,81a1,1,0,0,1-1-1V78a1,1,0,0,1,2,0v2A1,1,0,0,1,104,81Z"/><path class="cls-5" d="M99,81a1,1,0,0,1-1-1V78a1,1,0,1,1,2,0v2A1,1,0,0,1,99,81Z"/><path class="cls-5" d="M114,81a1,1,0,0,1-1-1V78a1,1,0,0,1,2,0v2A1,1,0,0,1,114,81Z"/><path class="cls-5" d="M94,93a1,1,0,0,1-1-1V90a1,1,0,0,1,2,0v2A1,1,0,0,1,94,93Z"/><path class="cls-5" d="M109,93a1,1,0,0,1-1-1V90a1,1,0,0,1,2,0v2A1,1,0,0,1,109,93Z"/><path class="cls-5" d="M104,93a1,1,0,0,1-1-1V90a1,1,0,0,1,2,0v2A1,1,0,0,1,104,93Z"/><path class="cls-5" d="M99,93a1,1,0,0,1-1-1V90a1,1,0,1,1,2,0v2A1,1,0,0,1,99,93Z"/><path class="cls-5" d="M114,93a1,1,0,0,1-1-1V90a1,1,0,0,1,2,0v2A1,1,0,0,1,114,93Z"/><path class="cls-5" d="M119,74H76a1,1,0,1,1,0-2h43a1,1,0,1,1,0,2Z"/><path class="cls-5" d="M119,62H76a1,1,0,1,1,0-2h43a1,1,0,1,1,0,2Z"/><path class="cls-5" d="M119,86H76a1,1,0,0,1,0-2h43a1,1,0,0,1,0,2Z"/><path class="cls-5" d="M119,98H76a1,1,0,1,1,0-2h43a1,1,0,1,1,0,2Z"/><path class="cls-7" d="M109,115H99v-9a5,5,0,0,1,5-5h0a5,5,0,0,1,5,5Z"/><path class="cls-5" d="M109,116H99a1,1,0,0,1-1-1v-9a6,6,0,0,1,12,0v9A1,1,0,0,1,109,116Zm-9-2h8v-8a4,4,0,0,0-8,0Z"/><polygon class="cls-8" points="91.03 33.18 91.03 115.01 64.68 115.01 64.68 33.18 77.85 24.95 91.03 33.18"/><polygon class="cls-7" points="91.03 28.24 91.03 33.18 77.85 24.95 64.68 33.18 64.68 28.24 77.85 20 91.03 28.24"/><path class="cls-5" d="M64.68,34.18a1,1,0,0,1-1-1V28.24a1,1,0,0,1,.47-.85l13.17-8.24a1,1,0,0,1,1.06,0l13.18,8.24a1,1,0,0,1,.47.85v4.94A1,1,0,0,1,90.5,34l-12.65-7.9L65.21,34A1,1,0,0,1,64.68,34.18ZM77.85,23.95a1,1,0,0,1,.53.15L90,31.37V28.79L77.85,21.18,65.68,28.79v2.58L77.32,24.1A1,1,0,0,1,77.85,23.95Z"/><polygon class="cls-6" points="91.03 38.18 91.03 115.01 64.68 115.01 64.68 38.18 64.68 33.24 77.85 25 91.03 33.24 91.03 38.18"/><path class="cls-5" d="M91,116H64.68a1,1,0,0,1-1-1V33.24a1,1,0,0,1,.47-.85l13.17-8.24a1,1,0,0,1,1.06,0l13.18,8.24a1,1,0,0,1,.47.85V115A1,1,0,0,1,91,116Zm-25.35-2H90V33.79L77.85,26.18,65.68,33.79Z"/><circle class="cls-7" cx="77.85" cy="34.82" r="2.5"/><path class="cls-5" d="M77.85,38.32a3.5,3.5,0,1,1,3.5-3.5A3.5,3.5,0,0,1,77.85,38.32Zm0-5a1.5,1.5,0,1,0,1.5,1.5A1.5,1.5,0,0,0,77.85,33.32Z"/><path class="cls-5" d="M85,54a1,1,0,0,1-1-1V51a1,1,0,0,1,2,0v2A1,1,0,0,1,85,54Z"/><path class="cls-5" d="M79,54a1,1,0,0,1-1-1V51a1,1,0,0,1,2,0v2A1,1,0,0,1,79,54Z"/><path class="cls-5" d="M73,54a1,1,0,0,1-1-1V51a1,1,0,0,1,2,0v2A1,1,0,0,1,73,54Z"/><path class="cls-5" d="M85,47a1,1,0,0,1-1-1V44a1,1,0,0,1,2,0v2A1,1,0,0,1,85,47Z"/><path class="cls-5" d="M79,47a1,1,0,0,1-1-1V44a1,1,0,0,1,2,0v2A1,1,0,0,1,79,47Z"/><path class="cls-5" d="M73,47a1,1,0,0,1-1-1V44a1,1,0,0,1,2,0v2A1,1,0,0,1,73,47Z"/><path class="cls-5" d="M85,61a1,1,0,0,1-1-1V58a1,1,0,0,1,2,0v2A1,1,0,0,1,85,61Z"/><path class="cls-5" d="M79,61a1,1,0,0,1-1-1V58a1,1,0,0,1,2,0v2A1,1,0,0,1,79,61Z"/><path class="cls-5" d="M73,61a1,1,0,0,1-1-1V58a1,1,0,0,1,2,0v2A1,1,0,0,1,73,61Z"/><path class="cls-5" d="M85,76a1,1,0,0,1-1-1V73a1,1,0,0,1,2,0v2A1,1,0,0,1,85,76Z"/><path class="cls-5" d="M79,76a1,1,0,0,1-1-1V73a1,1,0,0,1,2,0v2A1,1,0,0,1,79,76Z"/><path class="cls-5" d="M73,76a1,1,0,0,1-1-1V73a1,1,0,0,1,2,0v2A1,1,0,0,1,73,76Z"/><path class="cls-5" d="M85,69a1,1,0,0,1-1-1V66a1,1,0,0,1,2,0v2A1,1,0,0,1,85,69Z"/><path class="cls-5" d="M79,69a1,1,0,0,1-1-1V66a1,1,0,0,1,2,0v2A1,1,0,0,1,79,69Z"/><path class="cls-5" d="M73,69a1,1,0,0,1-1-1V66a1,1,0,0,1,2,0v2A1,1,0,0,1,73,69Z"/><path class="cls-5" d="M85,83a1,1,0,0,1-1-1V80a1,1,0,0,1,2,0v2A1,1,0,0,1,85,83Z"/><path class="cls-5" d="M79,83a1,1,0,0,1-1-1V80a1,1,0,0,1,2,0v2A1,1,0,0,1,79,83Z"/><path class="cls-5" d="M73,83a1,1,0,0,1-1-1V80a1,1,0,0,1,2,0v2A1,1,0,0,1,73,83Z"/><path class="cls-5" d="M85,91a1,1,0,0,1-1-1V88a1,1,0,0,1,2,0v2A1,1,0,0,1,85,91Z"/><path class="cls-5" d="M79,91a1,1,0,0,1-1-1V88a1,1,0,0,1,2,0v2A1,1,0,0,1,79,91Z"/><path class="cls-5" d="M73,91a1,1,0,0,1-1-1V88a1,1,0,0,1,2,0v2A1,1,0,0,1,73,91Z"/><path class="cls-5" d="M85,98a1,1,0,0,1-1-1V95a1,1,0,0,1,2,0v2A1,1,0,0,1,85,98Z"/><path class="cls-5" d="M79,98a1,1,0,0,1-1-1V95a1,1,0,0,1,2,0v2A1,1,0,0,1,79,98Z"/><path class="cls-5" d="M73,98a1,1,0,0,1-1-1V95a1,1,0,0,1,2,0v2A1,1,0,0,1,73,98Z"/><path class="cls-5" d="M83.85,36H80.42a1,1,0,0,1,0-2h3.43a1,1,0,0,1,0,2Z"/><path class="cls-5" d="M75.28,36H71.85a1,1,0,0,1,0-2h3.43a1,1,0,0,1,0,2Z"/><rect class="cls-9" height="8" width="22" x="69.03" y="106.99"/><path class="cls-5" d="M91,116H69a1,1,0,0,1-1-1v-8a1,1,0,0,1,1-1H91a1,1,0,0,1,1,1v8A1,1,0,0,1,91,116Zm-21-2H90v-6H70Z"/><rect class="cls-7" height="8" width="6" x="75.03" y="106.99"/><path class="cls-5" d="M81,116H75a1,1,0,0,1-1-1v-8a1,1,0,0,1,1-1h6a1,1,0,0,1,1,1v8A1,1,0,0,1,81,116Zm-5-2h4v-6H76Z"/><rect class="cls-6" height="71.02" width="40" x="12.03" y="43.99"/><path class="cls-5" d="M52,116H12a1,1,0,0,1-1-1V44a1,1,0,0,1,1-1H52a1,1,0,0,1,1,1v71A1,1,0,0,1,52,116Zm-39-2H51V45H13Z"/><rect class="cls-9" height="8" width="30" x="12.03" y="98.99"/><path class="cls-5" d="M42,108H12a1,1,0,0,1-1-1V99a1,1,0,0,1,1-1H42a1,1,0,0,1,1,1v8A1,1,0,0,1,42,108Zm-29-2H41v-6H13Z"/><path class="cls-5" d="M52,66a1,1,0,0,1-1-1V45H13V60a1,1,0,0,1-2,0V44a1,1,0,0,1,1-1H52a1,1,0,0,1,1,1V65A1,1,0,0,1,52,66Z"/><rect class="cls-6" height="5" width="42" x="10.03" y="38.99"/><path class="cls-5" d="M52,45H10a1,1,0,0,1-1-1V39a1,1,0,0,1,1-1H52a1,1,0,0,1,1,1v5A1,1,0,0,1,52,45ZM11,43H51V40H11Z"/><path class="cls-5" d="M42,49H12a1,1,0,0,1,0-2H42a1,1,0,0,1,0,2Z"/><path class="cls-5" d="M17,49a1,1,0,0,1-1-1V45a1,1,0,0,1,2,0v3A1,1,0,0,1,17,49Z"/><path class="cls-5" d="M22,49a1,1,0,0,1-1-1V45a1,1,0,0,1,2,0v3A1,1,0,0,1,22,49Z"/><path class="cls-5" d="M27,49a1,1,0,0,1-1-1V45a1,1,0,0,1,2,0v3A1,1,0,0,1,27,49Z"/><path class="cls-5" d="M32,49a1,1,0,0,1-1-1V45a1,1,0,0,1,2,0v3A1,1,0,0,1,32,49Z"/><polygon class="cls-6" points="48.03 38.99 12.03 38.99 15.03 33.99 48.03 33.99 48.03 38.99"/><path class="cls-5" d="M48,40H12a1,1,0,0,1-.86-1.51l3-5A1,1,0,0,1,15,33H48a1,1,0,0,1,1,1v5A1,1,0,0,1,48,40ZM13.8,38H47V35H15.6Z"/><polygon class="cls-6" points="43.03 33.99 19.03 33.99 22.03 28.99 43.03 28.99 43.03 33.99"/><path class="cls-5" d="M43,35H19a1,1,0,0,1-.86-1.51l3-5A1,1,0,0,1,22,28H43a1,1,0,0,1,1,1v5A1,1,0,0,1,43,35ZM20.8,33H42V30H22.6Z"/><path class="cls-5" d="M18,57a1,1,0,0,1-1-1V54a1,1,0,0,1,2,0v2A1,1,0,0,1,18,57Z"/><path class="cls-5" d="M24,57a1,1,0,0,1-1-1V54a1,1,0,0,1,2,0v2A1,1,0,0,1,24,57Z"/><path class="cls-5" d="M30,57a1,1,0,0,1-1-1V54a1,1,0,0,1,2,0v2A1,1,0,0,1,30,57Z"/><path class="cls-5" d="M36,57a1,1,0,0,1-1-1V54a1,1,0,0,1,2,0v2A1,1,0,0,1,36,57Z"/><path class="cls-5" d="M18,65a1,1,0,0,1-1-1V62a1,1,0,0,1,2,0v2A1,1,0,0,1,18,65Z"/><path class="cls-5" d="M24,65a1,1,0,0,1-1-1V62a1,1,0,0,1,2,0v2A1,1,0,0,1,24,65Z"/><path class="cls-5" d="M30,65a1,1,0,0,1-1-1V62a1,1,0,0,1,2,0v2A1,1,0,0,1,30,65Z"/><path class="cls-5" d="M36,65a1,1,0,0,1-1-1V62a1,1,0,0,1,2,0v2A1,1,0,0,1,36,65Z"/><path class="cls-5" d="M18,73a1,1,0,0,1-1-1V70a1,1,0,0,1,2,0v2A1,1,0,0,1,18,73Z"/><path class="cls-5" d="M24,73a1,1,0,0,1-1-1V70a1,1,0,0,1,2,0v2A1,1,0,0,1,24,73Z"/><path class="cls-5" d="M30,73a1,1,0,0,1-1-1V70a1,1,0,0,1,2,0v2A1,1,0,0,1,30,73Z"/><path class="cls-5" d="M36,73a1,1,0,0,1-1-1V70a1,1,0,0,1,2,0v2A1,1,0,0,1,36,73Z"/><path class="cls-5" d="M18,81a1,1,0,0,1-1-1V78a1,1,0,0,1,2,0v2A1,1,0,0,1,18,81Z"/><path class="cls-5" d="M24,81a1,1,0,0,1-1-1V78a1,1,0,0,1,2,0v2A1,1,0,0,1,24,81Z"/><path class="cls-5" d="M30,81a1,1,0,0,1-1-1V78a1,1,0,0,1,2,0v2A1,1,0,0,1,30,81Z"/><path class="cls-5" d="M36,81a1,1,0,0,1-1-1V78a1,1,0,0,1,2,0v2A1,1,0,0,1,36,81Z"/><path class="cls-5" d="M18,89a1,1,0,0,1-1-1V86a1,1,0,0,1,2,0v2A1,1,0,0,1,18,89Z"/><path class="cls-5" d="M24,89a1,1,0,0,1-1-1V86a1,1,0,0,1,2,0v2A1,1,0,0,1,24,89Z"/><path class="cls-5" d="M30,89a1,1,0,0,1-1-1V86a1,1,0,0,1,2,0v2A1,1,0,0,1,30,89Z"/><path class="cls-5" d="M36,89a1,1,0,0,1-1-1V86a1,1,0,0,1,2,0v2A1,1,0,0,1,36,89Z"/><path class="cls-5" d="M18,97a1,1,0,0,1-1-1V94a1,1,0,0,1,2,0v2A1,1,0,0,1,18,97Z"/><path class="cls-5" d="M24,97a1,1,0,0,1-1-1V94a1,1,0,0,1,2,0v2A1,1,0,0,1,24,97Z"/><path class="cls-5" d="M30,97a1,1,0,0,1-1-1V94a1,1,0,0,1,2,0v2A1,1,0,0,1,30,97Z"/><path class="cls-5" d="M36,97a1,1,0,0,1-1-1V94a1,1,0,0,1,2,0v2A1,1,0,0,1,36,97Z"/><path class="cls-5" d="M37,49a1,1,0,0,1-1-1V45a1,1,0,0,1,2,0v3A1,1,0,0,1,37,49Z"/><path class="cls-5" d="M39,35a1,1,0,0,1-1-1V29a1,1,0,0,1,2,0v5A1,1,0,0,1,39,35Z"/><path class="cls-5" d="M54,7a1,1,0,0,1-1-1V2a1,1,0,0,1,2,0V6A1,1,0,0,1,54,7Z"/><rect class="cls-10" height="105" width="30" x="39.03" y="10"/><path class="cls-5" d="M69,116H39a1,1,0,0,1-1-1V10a1,1,0,0,1,1-1H69a1,1,0,0,1,1,1V115A1,1,0,0,1,69,116Zm-29-2H68V11H40Z"/><rect class="cls-6" height="3.99" width="32" x="38.03" y="5.99"/><path class="cls-5" d="M70,11H38a1,1,0,0,1-1-1V6a1,1,0,0,1,1-1H70a1,1,0,0,1,1,1v4A1,1,0,0,1,70,11ZM39,9H69V7H39Z"/><path class="cls-5" d="M71,11H37a1,1,0,1,1,0-2H71a1,1,0,1,1,0,2Z"/><path class="cls-5" d="M45,19a1,1,0,0,1-1-1V16a1,1,0,0,1,2,0v2A1,1,0,0,1,45,19Z"/><path class="cls-5" d="M51,19a1,1,0,0,1-1-1V16a1,1,0,0,1,2,0v2A1,1,0,0,1,51,19Z"/><path class="cls-5" d="M57,19a1,1,0,0,1-1-1V16a1,1,0,0,1,2,0v2A1,1,0,0,1,57,19Z"/><path class="cls-5" d="M63,19a1,1,0,0,1-1-1V16a1,1,0,0,1,2,0v2A1,1,0,0,1,63,19Z"/><path class="cls-5" d="M45,27a1,1,0,0,1-1-1V24a1,1,0,0,1,2,0v2A1,1,0,0,1,45,27Z"/><path class="cls-5" d="M51,27a1,1,0,0,1-1-1V24a1,1,0,0,1,2,0v2A1,1,0,0,1,51,27Z"/><path class="cls-5" d="M57,27a1,1,0,0,1-1-1V24a1,1,0,0,1,2,0v2A1,1,0,0,1,57,27Z"/><path class="cls-5" d="M63,27a1,1,0,0,1-1-1V24a1,1,0,0,1,2,0v2A1,1,0,0,1,63,27Z"/><path class="cls-5" d="M45,35a1,1,0,0,1-1-1V32a1,1,0,0,1,2,0v2A1,1,0,0,1,45,35Z"/><path class="cls-5" d="M51,35a1,1,0,0,1-1-1V32a1,1,0,0,1,2,0v2A1,1,0,0,1,51,35Z"/><path class="cls-5" d="M57,35a1,1,0,0,1-1-1V32a1,1,0,0,1,2,0v2A1,1,0,0,1,57,35Z"/><path class="cls-5" d="M63,35a1,1,0,0,1-1-1V32a1,1,0,0,1,2,0v2A1,1,0,0,1,63,35Z"/><path class="cls-5" d="M45,43a1,1,0,0,1-1-1V40a1,1,0,0,1,2,0v2A1,1,0,0,1,45,43Z"/><path class="cls-5" d="M51,43a1,1,0,0,1-1-1V40a1,1,0,0,1,2,0v2A1,1,0,0,1,51,43Z"/><path class="cls-5" d="M57,43a1,1,0,0,1-1-1V40a1,1,0,0,1,2,0v2A1,1,0,0,1,57,43Z"/><path class="cls-5" d="M63,43a1,1,0,0,1-1-1V40a1,1,0,0,1,2,0v2A1,1,0,0,1,63,43Z"/><path class="cls-5" d="M45,51a1,1,0,0,1-1-1V48a1,1,0,0,1,2,0v2A1,1,0,0,1,45,51Z"/><path class="cls-5" d="M51,51a1,1,0,0,1-1-1V48a1,1,0,0,1,2,0v2A1,1,0,0,1,51,51Z"/><path class="cls-5" d="M57,51a1,1,0,0,1-1-1V48a1,1,0,0,1,2,0v2A1,1,0,0,1,57,51Z"/><path class="cls-5" d="M63,51a1,1,0,0,1-1-1V48a1,1,0,0,1,2,0v2A1,1,0,0,1,63,51Z"/><path class="cls-5" d="M45,59a1,1,0,0,1-1-1V56a1,1,0,0,1,2,0v2A1,1,0,0,1,45,59Z"/><path class="cls-5" d="M51,59a1,1,0,0,1-1-1V56a1,1,0,0,1,2,0v2A1,1,0,0,1,51,59Z"/><path class="cls-5" d="M57,59a1,1,0,0,1-1-1V56a1,1,0,0,1,2,0v2A1,1,0,0,1,57,59Z"/><path class="cls-5" d="M63,59a1,1,0,0,1-1-1V56a1,1,0,0,1,2,0v2A1,1,0,0,1,63,59Z"/><path class="cls-5" d="M45,67a1,1,0,0,1-1-1V64a1,1,0,0,1,2,0v2A1,1,0,0,1,45,67Z"/><path class="cls-5" d="M51,67a1,1,0,0,1-1-1V64a1,1,0,0,1,2,0v2A1,1,0,0,1,51,67Z"/><path class="cls-5" d="M57,67a1,1,0,0,1-1-1V64a1,1,0,0,1,2,0v2A1,1,0,0,1,57,67Z"/><path class="cls-5" d="M63,67a1,1,0,0,1-1-1V64a1,1,0,0,1,2,0v2A1,1,0,0,1,63,67Z"/><path class="cls-5" d="M45,75a1,1,0,0,1-1-1V72a1,1,0,0,1,2,0v2A1,1,0,0,1,45,75Z"/><path class="cls-5" d="M51,75a1,1,0,0,1-1-1V72a1,1,0,0,1,2,0v2A1,1,0,0,1,51,75Z"/><path class="cls-5" d="M57,75a1,1,0,0,1-1-1V72a1,1,0,0,1,2,0v2A1,1,0,0,1,57,75Z"/><path class="cls-5" d="M63,75a1,1,0,0,1-1-1V72a1,1,0,0,1,2,0v2A1,1,0,0,1,63,75Z"/><path class="cls-5" d="M45,83a1,1,0,0,1-1-1V80a1,1,0,0,1,2,0v2A1,1,0,0,1,45,83Z"/><path class="cls-5" d="M51,83a1,1,0,0,1-1-1V80a1,1,0,0,1,2,0v2A1,1,0,0,1,51,83Z"/><path class="cls-5" d="M57,83a1,1,0,0,1-1-1V80a1,1,0,0,1,2,0v2A1,1,0,0,1,57,83Z"/><path class="cls-5" d="M63,83a1,1,0,0,1-1-1V80a1,1,0,0,1,2,0v2A1,1,0,0,1,63,83Z"/><path class="cls-5" d="M45,91a1,1,0,0,1-1-1V88a1,1,0,0,1,2,0v2A1,1,0,0,1,45,91Z"/><path class="cls-5" d="M51,91a1,1,0,0,1-1-1V88a1,1,0,0,1,2,0v2A1,1,0,0,1,51,91Z"/><path class="cls-5" d="M57,91a1,1,0,0,1-1-1V88a1,1,0,0,1,2,0v2A1,1,0,0,1,57,91Z"/><path class="cls-5" d="M63,91a1,1,0,0,1-1-1V88a1,1,0,0,1,2,0v2A1,1,0,0,1,63,91Z"/><path class="cls-5" d="M45,99a1,1,0,0,1-1-1V96a1,1,0,0,1,2,0v2A1,1,0,0,1,45,99Z"/><path class="cls-5" d="M51,99a1,1,0,0,1-1-1V96a1,1,0,0,1,2,0v2A1,1,0,0,1,51,99Z"/><path class="cls-5" d="M57,99a1,1,0,0,1-1-1V96a1,1,0,0,1,2,0v2A1,1,0,0,1,57,99Z"/><path class="cls-5" d="M63,99a1,1,0,0,1-1-1V96a1,1,0,0,1,2,0v2A1,1,0,0,1,63,99Z"/><rect class="cls-9" height="8" width="30" x="39.03" y="106.99"/><path class="cls-5" d="M69,116H39a1,1,0,0,1-1-1v-8a1,1,0,0,1,1-1H69a1,1,0,0,1,1,1v8A1,1,0,0,1,69,116Zm-29-2H68v-6H40Z"/><rect class="cls-7" height="12" width="14" x="47.03" y="102.99"/><path class="cls-5" d="M61,116H47a1,1,0,0,1-1-1V103a1,1,0,0,1,1-1H61a1,1,0,0,1,1,1v12A1,1,0,0,1,61,116Zm-13-2H60V104H48Z"/><path class="cls-5" d="M122,116H27a1,1,0,1,1,0-2h95a1,1,0,0,1,0,2Z"/><path class="cls-5" d="M127,116h-2a1,1,0,1,1,0-2h2a1,1,0,1,1,0,2Z"/><path class="cls-5" d="M6,116H5a1,1,0,1,1,0-2H6a1,1,0,0,1,0,2Z"/><path class="cls-5" d="M24,116H9a1,1,0,0,1,0-2H24a1,1,0,0,1,0,2Z"/><path class="cls-5" d="M116,126H84a1,1,0,0,1,0-2h32a1,1,0,1,1,0,2Z"/><path class="cls-5" d="M75,126H28a1,1,0,0,1,0-2H75a1,1,0,1,1,0,2Z"/><path class="cls-5" d="M21,126H18a1,1,0,1,1,0-2h3a1,1,0,0,1,0,2Z"/></g><path class="cls-5" d="M16,95H7a1,1,0,0,1,0-2h9a1,1,0,0,1,0,2Z"/><path class="cls-5" d="M16,101H10a1,1,0,0,1,0-2h6a1,1,0,0,1,0,2Z"/><path class="cls-5" d="M16,89H14a1,1,0,1,1,0-2h2a1,1,0,0,1,0,2Z"/><path class="cls-5" d="M12,77H3a1,1,0,0,1,0-2h9a1,1,0,0,1,0,2Z"/><path class="cls-5" d="M16,83H6a1,1,0,0,1,0-2H16a1,1,0,0,1,0,2Z"/><path class="cls-5" d="M16,65H13a1,1,0,1,1,0-2h3a1,1,0,0,1,0,2Z"/><path class="cls-5" d="M11,89H10a1,1,0,0,1,0-2h1a1,1,0,0,1,0,2Z"/><path class="cls-5" d="M16,71H11a1,1,0,1,1,0-2h5a1,1,0,0,1,0,2Z"/><path class="cls-5" d="M7,71H6a1,1,0,1,1,0-2H7a1,1,0,0,1,0,2Z"/><path class="cls-5" d="M16,77a1,1,0,0,1-.71-.3A1,1,0,0,1,15,76a1,1,0,0,1,1.38-.93,1.14,1.14,0,0,1,.33.22A1,1,0,0,1,17,76a1,1,0,0,1-.07.38,1,1,0,0,1-.22.32A1,1,0,0,1,16,77Z"/><path class="cls-6" d="M120,115a3,3,0,0,0,3-3V90a3,3,0,0,0-3-3h-1l-6-13.6a4,4,0,0,0-3.66-2.4H86v44Z"/><polyline class="cls-11" points="114 81.02 90 81.02 90 75.02"/><polyline class="cls-11" points="115 81.02 90 81.02 90 75.02"/><path class="cls-12" d="M25,105H86a0,0,0,0,1,0,0v10a0,0,0,0,1,0,0H28a3,3,0,0,1-3-3v-7A0,0,0,0,1,25,105Z"/><g class="cls-1"><rect class="cls-13" height="4" width="61" x="25" y="105"/></g><path class="cls-5" d="M86,116H28a4,4,0,0,1-4-4v-7a1,1,0,0,1,1-1H86a1,1,0,0,1,1,1v10A1,1,0,0,1,86,116ZM26,106v6a2,2,0,0,0,2,2H85v-8Z"/><path class="cls-14" d="M18,57H84a2,2,0,0,1,2,2V97a0,0,0,0,1,0,0H16a0,0,0,0,1,0,0V59A2,2,0,0,1,18,57Z"/><g class="cls-1"><rect class="cls-15" height="4" width="70" x="16" y="91"/></g><g class="cls-1"><path class="cls-16" d="M84,57H18a2,2,0,0,0-2,2v4a2,2,0,0,1,2-2H84a2,2,0,0,1,2,2V59A2,2,0,0,0,84,57Z"/></g><path class="cls-5" d="M86,98H16a1,1,0,0,1-1-1V59a3,3,0,0,1,3-3H84a3,3,0,0,1,3,3V97A1,1,0,0,1,86,98ZM17,96H85V59a1,1,0,0,0-1-1H18a1,1,0,0,0-1,1Z"/><path class="cls-6" d="M86,105H19a3,3,0,0,1-3-3V95H86Z"/><g class="cls-1"><rect class="cls-17" height="3" width="68" x="17" y="101"/></g><path class="cls-5" d="M86,106H19a4,4,0,0,1-4-4V95a1,1,0,0,1,1-1H86a1,1,0,0,1,1,1v10A1,1,0,0,1,86,106ZM17,96v6a2,2,0,0,0,2,2H85V96Z"/><polyline class="cls-3" points="112.6 75 90 75 90 87 118 87"/><polygon class="cls-18" points="106.25 75 90 75 90 80.2 106.25 75"/><polygon class="cls-18" points="90 85.96 113.74 77.53 112.62 75.03 90 82.96 90 85.96"/><g class="cls-1"><polygon class="cls-19" points="90 76 114.19 76 115.94 80 90 80 90 76"/></g><path class="cls-4" d="M111,81h0a2,2,0,0,1-2-2V75h4v4A2,2,0,0,1,111,81Z"/><path class="cls-5" d="M111,82a3,3,0,0,1-3-3V75a1,1,0,0,1,1-1h4a1,1,0,0,1,1,1v4A3,3,0,0,1,111,82Zm-1-6v3a1,1,0,0,0,2,0V76Z"/><path class="cls-5" d="M120,116H86a1,1,0,0,1-1-1V71a1,1,0,0,1,1-1h23.38A5,5,0,0,1,114,73l5.69,13H120a4,4,0,0,1,4,4v22A4,4,0,0,1,120,116Zm-33-2h33a2,2,0,0,0,2-2V90a2,2,0,0,0-2-2h-1a1,1,0,0,1-.92-.6l-6-13.6a3,3,0,0,0-2.75-1.8H87Z"/><path class="cls-5" d="M102,88a1,1,0,0,1-1-1V76a1,1,0,0,1,2,0V87A1,1,0,0,1,102,88Z"/><g class="cls-1"><rect class="cls-17" height="17" width="35" x="87" y="97"/></g><rect class="cls-4" height="11" width="19" x="86" y="104"/><path class="cls-5" d="M105,116H86a1,1,0,0,1-1-1V104a1,1,0,0,1,1-1h19a1,1,0,0,1,1,1v11A1,1,0,0,1,105,116Zm-18-2h17v-9H87Z"/><path class="cls-5" d="M120,88H92a3,3,0,0,1-3-3V77a3,3,0,0,1,3-3h22v2H92a1,1,0,0,0-1,1v8a1,1,0,0,0,1,1h28Z"/><path class="cls-5" d="M102,108a1,1,0,0,1-1-1V87a1,1,0,0,1,2,0v20A1,1,0,0,1,102,108Z"/><path class="cls-20" d="M123,94h-3a2,2,0,0,1-2-2h0a2,2,0,0,1,2-2h3Z"/><path class="cls-5" d="M123,95h-3a3,3,0,0,1,0-6h3a1,1,0,0,1,1,1v4A1,1,0,0,1,123,95Zm-3-4a1,1,0,0,0,0,2h2V91Z"/><rect class="cls-4" height="4" rx="2" ry="2" width="7" x="118" y="111"/><path class="cls-5" d="M123,116h-3a3,3,0,1,1,0-6h3a3,3,0,0,1,0,6Zm-3-4a1,1,0,1,0,0,2h3a1,1,0,0,0,0-2Z"/><rect class="cls-4" height="4" rx="2" ry="2" width="7" x="22" y="111"/><path class="cls-5" d="M27,116H24a3,3,0,0,1,0-6h3a3,3,0,1,1,0,6Zm-3-4a1,1,0,0,0,0,2h3a1,1,0,1,0,0-2Z"/><path class="cls-5" d="M95,92a1,1,0,0,1-1-1V90a1,1,0,0,1,2,0v1A1,1,0,0,1,95,92Z"/><path class="cls-21" d="M48.31,49.07C50.43,51.2,51,57,51,57s-5.8-.58-7.93-2.7a3.7,3.7,0,1,1,5.23-5.23Z"/><path class="cls-5" d="M51,58h-.1c-.63-.06-6.22-.68-8.53-3A4.69,4.69,0,0,1,49,48.37h0c2.31,2.31,2.93,7.9,3,8.53A1,1,0,0,1,51,58ZM45.7,49a2.69,2.69,0,0,0-1.91,4.6c1.21,1.21,4.13,1.92,6,2.24-.32-1.92-1-4.84-2.24-6h0A2.68,2.68,0,0,0,45.7,49Z"/><path class="cls-21" d="M53.71,49.07C51.59,51.2,51,57,51,57s5.8-.58,7.93-2.7a3.7,3.7,0,0,0-5.23-5.23Z"/><path class="cls-5" d="M51,58a1,1,0,0,1-1-1.1c.06-.63.68-6.23,3-8.53h0A4.7,4.7,0,1,1,59.64,55c-2.31,2.31-7.9,2.93-8.53,3Zm5.31-9a2.68,2.68,0,0,0-1.91.79h0c-1.21,1.21-1.92,4.13-2.24,6,1.92-.32,4.84-1,6-2.24A2.69,2.69,0,0,0,56.32,49Zm-2.61.08h0Z"/><path class="cls-5" d="M26,98a1,1,0,0,1-1-1V93a1,1,0,0,1,2,0v4A1,1,0,0,1,26,98Z"/><path class="cls-5" d="M51,98a1,1,0,0,1-1-1V93a1,1,0,0,1,2,0v4A1,1,0,0,1,51,98Z"/><path class="cls-5" d="M66,98a1,1,0,0,1-1-1V93a1,1,0,0,1,2,0v4A1,1,0,0,1,66,98Z"/><path class="cls-5" d="M21,98a1,1,0,0,1-1-1V93a1,1,0,0,1,2,0v4A1,1,0,0,1,21,98Z"/><path class="cls-5" d="M46,98a1,1,0,0,1-1-1V93a1,1,0,0,1,2,0v4A1,1,0,0,1,46,98Z"/><path class="cls-5" d="M41,98a1,1,0,0,1-1-1V93a1,1,0,0,1,2,0v4A1,1,0,0,1,41,98Z"/><path class="cls-5" d="M36,98a1,1,0,0,1-1-1V93a1,1,0,0,1,2,0v4A1,1,0,0,1,36,98Z"/><path class="cls-5" d="M31,98a1,1,0,0,1-1-1V93a1,1,0,0,1,2,0v4A1,1,0,0,1,31,98Z"/><path class="cls-5" d="M71,98a1,1,0,0,1-1-1V93a1,1,0,0,1,2,0v4A1,1,0,0,1,71,98Z"/><path class="cls-5" d="M76,98a1,1,0,0,1-1-1V93a1,1,0,0,1,2,0v4A1,1,0,0,1,76,98Z"/><path class="cls-5" d="M81,98a1,1,0,0,1-1-1V93a1,1,0,0,1,2,0v4A1,1,0,0,1,81,98Z"/><path class="cls-5" d="M56,98a1,1,0,0,1-1-1V93a1,1,0,0,1,2,0v4A1,1,0,0,1,56,98Z"/><path class="cls-5" d="M61,98a1,1,0,0,1-1-1V93a1,1,0,0,1,2,0v4A1,1,0,0,1,61,98Z"/><rect class="cls-21" height="38" width="10" x="46.02" y="57"/><path class="cls-5" d="M56,96H46a1,1,0,0,1-1-1V57a1,1,0,0,1,1-1H56a1,1,0,0,1,1,1V95A1,1,0,0,1,56,96Zm-9-2h8V58H47Z"/><path class="cls-4" d="M91,115a14,14,0,0,1,28,0Z"/><path class="cls-5" d="M119,116H91a1,1,0,0,1-1-1,15,15,0,1,1,30,0A1,1,0,0,1,119,116Zm-27-2H118A13,13,0,0,0,92,114Z"/><circle class="cls-22" cx="105" cy="115" r="10"/><path class="cls-5" d="M105,126a11,11,0,1,1,11-11A11,11,0,0,1,105,126Zm0-20a9,9,0,1,0,9,9A9,9,0,0,0,105,106Z"/><circle class="cls-6" cx="105" cy="115" r="5"/><path class="cls-5" d="M105,121a6,6,0,1,1,6-6A6,6,0,0,1,105,121Zm0-10a4,4,0,1,0,4,4A4,4,0,0,0,105,111Z"/><path class="cls-5" d="M105,121a1,1,0,0,1-1-1V110a1,1,0,0,1,2,0v10A1,1,0,0,1,105,121Z"/><path class="cls-5" d="M100.67,118.5a1,1,0,0,1-.5-1.87l8.66-5a1,1,0,1,1,1,1.73l-8.66,5A1,1,0,0,1,100.67,118.5Z"/><path class="cls-5" d="M109.33,118.5a1,1,0,0,1-.5-.13l-8.66-5a1,1,0,1,1,1-1.73l8.66,5a1,1,0,0,1-.5,1.87Z"/><path class="cls-5" d="M105,118a3,3,0,1,1,3-3A3,3,0,0,1,105,118Zm0-4a1,1,0,1,0,1,1A1,1,0,0,0,105,114Z"/><path class="cls-5" d="M105.45,107.24a1,1,0,0,1-.86-.48l-.45-.74a1,1,0,0,1,1.71-1l.45.74a1,1,0,0,1-.86,1.52Z"/><path class="cls-5" d="M105,125.5a1,1,0,0,1-.86-.48l-.45-.74a1,1,0,0,1,1.71-1l.45.74a1,1,0,0,1-.86,1.52Z"/><path class="cls-5" d="M113.76,116.45a1,1,0,0,1-.52-1.86l.74-.45a1,1,0,0,1,1,1.71l-.74.45A1,1,0,0,1,113.76,116.45Z"/><path class="cls-5" d="M95.5,116a1,1,0,0,1-.52-1.86l.74-.45a1,1,0,0,1,1,1.71l-.74.45A1,1,0,0,1,95.5,116Z"/><path class="cls-5" d="M111.51,110.12l-.24,0a1,1,0,0,1-.73-1.21l.21-.84a1,1,0,1,1,1.94.48l-.21.84A1,1,0,0,1,111.51,110.12Z"/><path class="cls-5" d="M98.29,122.72l-.24,0a1,1,0,0,1-.73-1.21l.21-.84a1,1,0,0,1,1.94.48l-.21.84A1,1,0,0,1,98.29,122.72Z"/><path class="cls-5" d="M111.72,122.72l-.24,0-.84-.21a1,1,0,1,1,.48-1.94l.84.21a1,1,0,0,1-.24,2Z"/><path class="cls-5" d="M99.13,109.49l-.24,0-.84-.21a1,1,0,0,1,.48-1.94l.84.21a1,1,0,0,1-.24,2Z"/><path class="cls-5" d="M108.77,108.08a1,1,0,0,1-1-.85l-.13-.86a1,1,0,1,1,2-.3l.13.86a1,1,0,0,1-.84,1.14Z"/><path class="cls-5" d="M101.36,124.78a1,1,0,0,1-1-.85l-.13-.86a1,1,0,0,1,2-.3l.13.86a1,1,0,0,1-.84,1.14Z"/><path class="cls-5" d="M112.92,119.77a1,1,0,0,1-.15-2l.86-.13a1,1,0,1,1,.3,2l-.86.13Z"/><path class="cls-5" d="M96.22,112.36a1,1,0,0,1-.15-2l.86-.13a1,1,0,1,1,.3,2l-.86.13Z"/><path class="cls-5" d="M102.06,107.74a1,1,0,0,1-.59-.19l-.7-.51a1,1,0,0,1,1.19-1.61l.7.51a1,1,0,0,1-.59,1.81Z"/><path class="cls-5" d="M108.64,124.78a1,1,0,0,1-.59-.2l-.7-.51a1,1,0,1,1,1.19-1.61l.7.51a1,1,0,0,1-.59,1.8Z"/><path class="cls-5" d="M113.26,113.06a1,1,0,0,1-.8-1.59l.51-.7a1,1,0,1,1,1.61,1.19l-.51.7A1,1,0,0,1,113.26,113.06Z"/><path class="cls-5" d="M96.22,119.64a1,1,0,0,1-.8-1.59l.51-.7a1,1,0,0,1,1.61,1.19l-.51.7A1,1,0,0,1,96.22,119.64Z"/><circle class="cls-22" cx="43" cy="115" r="10"/><path class="cls-5" d="M43,126a11,11,0,1,1,11-11A11,11,0,0,1,43,126Zm0-20a9,9,0,1,0,9,9A9,9,0,0,0,43,106Z"/><circle class="cls-6" cx="43" cy="115" r="5"/><path class="cls-5" d="M43,121a6,6,0,1,1,6-6A6,6,0,0,1,43,121Zm0-10a4,4,0,1,0,4,4A4,4,0,0,0,43,111Z"/><path class="cls-5" d="M43,121a1,1,0,0,1-1-1V110a1,1,0,0,1,2,0v10A1,1,0,0,1,43,121Z"/><path class="cls-5" d="M38.67,118.5a1,1,0,0,1-.5-1.87l8.66-5a1,1,0,1,1,1,1.73l-8.66,5A1,1,0,0,1,38.67,118.5Z"/><path class="cls-5" d="M47.33,118.5a1,1,0,0,1-.5-.13l-8.66-5a1,1,0,1,1,1-1.73l8.66,5a1,1,0,0,1-.5,1.87Z"/><path class="cls-5" d="M43,118a3,3,0,1,1,3-3A3,3,0,0,1,43,118Zm0-4a1,1,0,1,0,1,1A1,1,0,0,0,43,114Z"/><path class="cls-5" d="M43.45,107.24a1,1,0,0,1-.86-.48l-.45-.74a1,1,0,0,1,1.71-1l.45.74a1,1,0,0,1-.86,1.52Z"/><path class="cls-5" d="M43,125.5a1,1,0,0,1-.86-.48l-.45-.74a1,1,0,0,1,1.71-1l.45.74A1,1,0,0,1,43,125.5Z"/><path class="cls-5" d="M51.76,116.45a1,1,0,0,1-.52-1.86l.74-.45a1,1,0,0,1,1,1.71l-.74.45A1,1,0,0,1,51.76,116.45Z"/><path class="cls-5" d="M33.5,116a1,1,0,0,1-.52-1.86l.74-.45a1,1,0,0,1,1,1.71l-.74.45A1,1,0,0,1,33.5,116Z"/><path class="cls-5" d="M49.51,110.12l-.24,0a1,1,0,0,1-.73-1.21l.21-.84a1,1,0,1,1,1.94.48l-.21.84A1,1,0,0,1,49.51,110.12Z"/><path class="cls-5" d="M36.29,122.72l-.24,0a1,1,0,0,1-.73-1.21l.21-.84a1,1,0,0,1,1.94.48l-.21.84A1,1,0,0,1,36.29,122.72Z"/><path class="cls-5" d="M49.72,122.72l-.24,0-.84-.21a1,1,0,1,1,.48-1.94l.84.21a1,1,0,0,1-.24,2Z"/><path class="cls-5" d="M37.13,109.49l-.24,0-.84-.21a1,1,0,0,1,.48-1.94l.84.21a1,1,0,0,1-.24,2Z"/><path class="cls-5" d="M46.77,108.08a1,1,0,0,1-1-.85l-.13-.86a1,1,0,1,1,2-.3l.13.86a1,1,0,0,1-.84,1.14Z"/><path class="cls-5" d="M39.36,124.78a1,1,0,0,1-1-.85l-.13-.86a1,1,0,0,1,2-.3l.13.86a1,1,0,0,1-.84,1.14Z"/><path class="cls-5" d="M50.92,119.77a1,1,0,0,1-.15-2l.86-.13a1,1,0,1,1,.3,2l-.86.13Z"/><path class="cls-5" d="M34.22,112.36a1,1,0,0,1-.15-2l.86-.13a1,1,0,1,1,.3,2l-.86.13Z"/><path class="cls-5" d="M40.06,107.74a1,1,0,0,1-.59-.19l-.7-.51A1,1,0,0,1,40,105.42l.7.51a1,1,0,0,1-.59,1.81Z"/><path class="cls-5" d="M46.64,124.78a1,1,0,0,1-.59-.2l-.7-.51a1,1,0,1,1,1.19-1.61l.7.51a1,1,0,0,1-.59,1.8Z"/><path class="cls-5" d="M51.26,113.06a1,1,0,0,1-.8-1.59l.51-.7A1,1,0,1,1,52.58,112l-.51.7A1,1,0,0,1,51.26,113.06Z"/><path class="cls-5" d="M34.22,119.64a1,1,0,0,1-.8-1.59l.51-.7a1,1,0,0,1,1.61,1.19l-.51.7A1,1,0,0,1,34.22,119.64Z"/><g class="cls-23"><rect class="cls-9" height="3" width="8" x="47" y="58"/></g></svg>