<?xml version="1.0" ?><svg data-name="003" id="_003" viewBox="0 0 128 128" xmlns="http://www.w3.org/2000/svg"><defs><style>.cls-1{opacity:0.3;}.cls-2{fill:#c9c1f5;}.cls-3{fill:#eef6ff;}.cls-4{fill:#7595b5;}.cls-5{fill:#fff;}.cls-6{fill:#6d6daa;}.cls-7{fill:#d6b5b0;}.cls-8{fill:#fff9e0;}.cls-9{fill:#93765f;}.cls-10{opacity:0.5;}.cls-11{fill:#fffad1;}.cls-12{fill:#b1f1a8;}.cls-13{fill:#a3e298;}.cls-14{fill:#97c1ff;}.cls-15{fill:#939fc6;}.cls-16{fill:#fff27d;}.cls-17{fill:#f7a706;}.cls-18{fill:#7690a8;}.cls-19{fill:#ff9797;}.cls-20{fill:#ffc661;}.cls-21{fill:#48bc33;}.cls-22{fill:#96d7ff;}</style></defs><title/><g class="cls-1"><path class="cls-2" d="M124.7,47.65a30,30,0,0,0-23.51-25,19.69,19.69,0,0,1-10.93-6.55A37,37,0,0,0,26,31.43,21,21,0,0,1,15.12,45.1C1,52.46-6.14,71.56,6.77,89.48a16.6,16.6,0,0,0,6.35,4.91,20.58,20.58,0,0,1,10,10.88,28.49,28.49,0,0,0,42.62,12.64A20.06,20.06,0,0,1,82.39,115a29,29,0,0,0,36-33.79A20.08,20.08,0,0,1,120.94,67,29.83,29.83,0,0,0,124.7,47.65Z"/><circle class="cls-3" cx="106" cy="97" r="18"/><g class="cls-1"><path class="cls-4" d="M106,111.14a18,18,0,0,0,17.89-16.07,18,18,0,1,1-35.79,0A18,18,0,0,0,106,111.14Z"/></g><path class="cls-5" d="M106,82.86A18,18,0,0,0,88.11,98.93a18,18,0,1,1,35.79,0A18,18,0,0,0,106,82.86Z"/><path class="cls-6" d="M106,116a19,19,0,1,1,19-19A19,19,0,0,1,106,116Zm0-36a17,17,0,1,0,17,17A17,17,0,0,0,106,80Z"/><path class="cls-6" d="M106,110.85a1,1,0,0,1-.38-.07,1,1,0,0,1-.33-.22,1,1,0,0,1-.21-.32.85.85,0,0,1-.08-.38,1.31,1.31,0,0,1,0-.2.64.64,0,0,1,.06-.18.61.61,0,0,1,.09-.18,1.67,1.67,0,0,1,.12-.15,1.05,1.05,0,0,1,.33-.22,1,1,0,0,1,.76,0,1.19,1.19,0,0,1,.33.22l.12.15a.61.61,0,0,1,.09.18.65.65,0,0,1,.06.18,1.38,1.38,0,0,1,0,.2,1,1,0,0,1-.62.92A1,1,0,0,1,106,110.85Z"/><path class="cls-6" d="M93.14,98a.84.84,0,0,1-.38-.08,1,1,0,0,1-.32-.21,1,1,0,0,1-.22-.33,1,1,0,0,1-.08-.38,1,1,0,0,1,.3-.71.61.61,0,0,1,.15-.12.54.54,0,0,1,.17-.09.62.62,0,0,1,.19-.06.88.88,0,0,1,.39,0,.65.65,0,0,1,.18.06.6.6,0,0,1,.18.09,1.55,1.55,0,0,1,.15.12,1,1,0,0,1,.29.71,1,1,0,0,1-.07.38,1.19,1.19,0,0,1-.22.33.93.93,0,0,1-.33.21A.82.82,0,0,1,93.14,98Z"/><path class="cls-6" d="M119.14,98a.84.84,0,0,1-.38-.08,1,1,0,0,1-.32-.21,1,1,0,0,1-.22-.33,1,1,0,0,1-.08-.38,1,1,0,0,1,.3-.71.61.61,0,0,1,.15-.12.54.54,0,0,1,.17-.09.62.62,0,0,1,.19-.06.88.88,0,0,1,.39,0,.65.65,0,0,1,.18.06.6.6,0,0,1,.18.09,1.55,1.55,0,0,1,.15.12,1,1,0,0,1,.29.71,1,1,0,0,1-.07.38,1.19,1.19,0,0,1-.22.33.93.93,0,0,1-.33.21A.82.82,0,0,1,119.14,98Z"/><path class="cls-6" d="M106,85a1,1,0,0,1-.38-.08.9.9,0,0,1-.54-.54A.84.84,0,0,1,105,84a1.05,1.05,0,0,1,.29-.71,1,1,0,0,1,.91-.27.65.65,0,0,1,.18.06.54.54,0,0,1,.17.09,1,1,0,0,1,.16.12A1.05,1.05,0,0,1,107,84a1,1,0,0,1-.08.38,1.17,1.17,0,0,1-.21.33A1,1,0,0,1,106,85Z"/><path class="cls-6" d="M106,100.57A3.57,3.57,0,1,1,109.57,97,3.58,3.58,0,0,1,106,100.57Zm0-5.14A1.57,1.57,0,1,0,107.57,97,1.57,1.57,0,0,0,106,95.43Z"/><path class="cls-6" d="M106,95.43a1,1,0,0,1-1-1V87.14a1,1,0,0,1,2,0v7.29A1,1,0,0,1,106,95.43Z"/><path class="cls-6" d="M115.86,98h-7.29a1,1,0,0,1,0-2h7.29a1,1,0,0,1,0,2Z"/><rect class="cls-7" height="24" width="26" x="8" y="35"/><g class="cls-1"><rect class="cls-8" height="3" width="26" x="8" y="35"/></g><g class="cls-1"><rect class="cls-9" height="3" width="26" x="8" y="56"/></g><path class="cls-6" d="M34,60H8a1,1,0,0,1-1-1V35a1,1,0,0,1,1-1H34a1,1,0,0,1,1,1V59A1,1,0,0,1,34,60ZM9,58H33V36H9Z"/><rect class="cls-5" height="6" width="8" x="12" y="49"/><path class="cls-6" d="M20,56H12a1,1,0,0,1-1-1V49a1,1,0,0,1,1-1h8a1,1,0,0,1,1,1v6A1,1,0,0,1,20,56Zm-7-2h6V50H13Z"/><g class="cls-10"><path class="cls-6" d="M17,53H15a1,1,0,0,1,0-2h2a1,1,0,0,1,0,2Z"/></g><polygon class="cls-11" points="25 35 17 35 17 42 19 43 21 42 23 43 25 42 25 35"/><path class="cls-6" d="M23,44a1,1,0,0,1-.45-.11L21,43.12l-1.55.78a1,1,0,0,1-.89,0l-2-1A1,1,0,0,1,16,42V35a1,1,0,0,1,1-1h8a1,1,0,0,1,1,1v7a1,1,0,0,1-.55.89l-2,1A1,1,0,0,1,23,44Zm-2-3a1,1,0,0,1,.45.11l1.55.78,1-.5V36H18v5.38l1,.5,1.55-.78A1,1,0,0,1,21,41Z"/><path class="cls-6" d="M21,36a1,1,0,0,1-1-1V30a1,1,0,0,1,2,0v5A1,1,0,0,1,21,36Z"/><path class="cls-6" d="M21,31a1,1,0,0,1-.42-.09L.71,21.78A1,1,0,1,1,1.55,20l19.87,9.11A1,1,0,0,1,21,31Z"/><path class="cls-6" d="M21,31a1,1,0,0,1-.81-.41l-6.62-9.11a1,1,0,1,1,1.62-1.18l6.62,9.11A1,1,0,0,1,21,31Z"/><path class="cls-6" d="M21,31a1,1,0,0,1-.81-1.59l6.62-9.11a1,1,0,1,1,1.62,1.18l-6.62,9.11A1,1,0,0,1,21,31Z"/><path class="cls-6" d="M21,31a1,1,0,0,1-.42-1.91L40.45,20a1,1,0,1,1,.83,1.82L21.42,30.88A1,1,0,0,1,21,31Z"/><path class="cls-12" d="M27.62,20.87c0-2,3-3.68,6.63-3.68s6.62,1.65,6.62,3.68a19.87,19.87,0,1,0-39.74,0c0-2,3-3.68,6.62-3.68s6.63,1.65,6.63,3.68c0-2,3-3.68,6.62-3.68S27.62,18.84,27.62,20.87Z"/><path class="cls-13" d="M21,1c3.66,0,6.62,8.9,6.62,19.87,0-2-3-3.68-6.62-3.68s-6.62,1.65-6.62,3.68C14.38,9.9,17.34,1,21,1Z"/><g class="cls-10"><path class="cls-5" d="M21,4A19.87,19.87,0,0,1,40.36,19.46a2.34,2.34,0,0,1,.51,1.41,19.87,19.87,0,1,0-39.74,0,2.34,2.34,0,0,1,.51-1.41A19.87,19.87,0,0,1,21,4Z"/></g><path class="cls-6" d="M40.87,21.87a1,1,0,0,1-1-1c0-1.26-2.4-2.68-5.62-2.68s-5.63,1.42-5.63,2.68a1,1,0,0,1-2,0c0-1.26-2.4-2.68-5.62-2.68s-5.62,1.42-5.62,2.68a1,1,0,0,1-2,0c0-1.26-2.41-2.68-5.63-2.68s-5.62,1.42-5.62,2.68a1,1,0,1,1-2,0,20.87,20.87,0,1,1,41.74,0A1,1,0,0,1,40.87,21.87ZM7.75,16.19c2.87,0,5.33.93,6.63,2.33A9.15,9.15,0,0,1,21,16.19a9.16,9.16,0,0,1,6.62,2.33,9.18,9.18,0,0,1,6.63-2.33,10.57,10.57,0,0,1,5.32,1.3,18.87,18.87,0,0,0-37.13,0A10.57,10.57,0,0,1,7.75,16.19Z"/><path class="cls-6" d="M27.62,21.87a1,1,0,0,1-1-1c0-1.26-2.4-2.68-5.62-2.68s-5.62,1.42-5.62,2.68a1,1,0,0,1-2,0C13.38,10.75,16.05,0,21,0s7.62,10.75,7.62,20.87A1,1,0,0,1,27.62,21.87ZM21,16.19a10.38,10.38,0,0,1,5.53,1.43C26,8.49,23.38,2,21,2s-5,6.49-5.53,15.62A10.38,10.38,0,0,1,21,16.19Z"/><path class="cls-6" d="M111,126H19a1,1,0,1,1,0-2h92a1,1,0,0,1,0,2Z"/><path class="cls-6" d="M119,126h-5a1,1,0,0,1,0-2h5a1,1,0,0,1,0,2Z"/><path class="cls-6" d="M16,126H8a1,1,0,0,1,0-2h8a1,1,0,1,1,0,2Z"/><rect class="cls-7" height="16" width="22" x="13" y="109"/><g class="cls-1"><rect class="cls-8" height="3" width="22" x="13" y="109"/></g><g class="cls-1"><rect class="cls-9" height="3" width="22" x="13" y="122"/></g><path class="cls-6" d="M35,126H13a1,1,0,0,1-1-1V109a1,1,0,0,1,1-1H35a1,1,0,0,1,1,1v16A1,1,0,0,1,35,126Zm-21-2H34V110H14Z"/><polygon class="cls-11" points="28 109 20 109 20 116 22 117 24 116 26 117 28 116 28 109"/><path class="cls-6" d="M26,118a1,1,0,0,1-.45-.11L24,117.12l-1.55.78a1,1,0,0,1-.89,0l-2-1A1,1,0,0,1,19,116v-7a1,1,0,0,1,1-1h8a1,1,0,0,1,1,1v7a1,1,0,0,1-.55.89l-2,1A1,1,0,0,1,26,118Zm-2-3a1,1,0,0,1,.45.11l1.55.78,1-.5V110H21v5.38l1,.5,1.55-.78A1,1,0,0,1,24,115Z"/><rect class="cls-7" height="16" width="22" x="19" y="93"/><g class="cls-1"><rect class="cls-8" height="3" width="22" x="19" y="93"/></g><g class="cls-1"><rect class="cls-9" height="3" width="22" x="19" y="106"/></g><path class="cls-6" d="M41,110H19a1,1,0,0,1-1-1V93a1,1,0,0,1,1-1H41a1,1,0,0,1,1,1v16A1,1,0,0,1,41,110Zm-21-2H40V94H20Z"/><polygon class="cls-11" points="34 93 26 93 26 100 28 101 30 100 32 101 34 100 34 93"/><path class="cls-6" d="M32,102a1,1,0,0,1-.45-.11L30,101.12l-1.55.78a1,1,0,0,1-.89,0l-2-1A1,1,0,0,1,25,100V93a1,1,0,0,1,1-1h8a1,1,0,0,1,1,1v7a1,1,0,0,1-.55.89l-2,1A1,1,0,0,1,32,102Zm-2-3a1,1,0,0,1,.45.11l1.55.78,1-.5V94H27v5.38l1,.5,1.55-.78A1,1,0,0,1,30,99Z"/><rect class="cls-14" height="33" rx="2" ry="2" width="48" x="75" y="31"/><path class="cls-6" d="M121,65H77a3,3,0,0,1-3-3V33a3,3,0,0,1,3-3h44a3,3,0,0,1,3,3V62A3,3,0,0,1,121,65ZM77,32a1,1,0,0,0-1,1V62a1,1,0,0,0,1,1h44a1,1,0,0,0,1-1V33a1,1,0,0,0-1-1Z"/><rect class="cls-5" height="6" width="36" x="81" y="50"/><path class="cls-6" d="M117,57H81a1,1,0,0,1-1-1V50a1,1,0,0,1,1-1h36a1,1,0,0,1,1,1v6A1,1,0,0,1,117,57ZM82,55h34V51H82Z"/><rect class="cls-15" height="7" width="48" x="75" y="37"/><path class="cls-6" d="M123,45H75a1,1,0,0,1-1-1V37a1,1,0,0,1,1-1h48a1,1,0,0,1,1,1v7A1,1,0,0,1,123,45ZM76,43h46V38H76Z"/><g class="cls-1"><path class="cls-6" d="M76,42a1,1,0,0,1-.71-.29A1,1,0,0,1,75,41a1.05,1.05,0,0,1,.29-.71,1,1,0,0,1,.33-.21,1,1,0,0,1,1.09.21A1.05,1.05,0,0,1,77,41a1,1,0,0,1-.29.71,1.15,1.15,0,0,1-.33.21A1,1,0,0,1,76,42Z"/><path class="cls-6" d="M78,40a1,1,0,0,1-.92-1.38,1.15,1.15,0,0,1,.21-.33,1.55,1.55,0,0,1,.15-.12.74.74,0,0,1,.18-.09A.65.65,0,0,1,77.8,38a1,1,0,0,1,.58.06,1.15,1.15,0,0,1,.33.21,1,1,0,0,1,.21.33A1,1,0,0,1,78,40Z"/><path class="cls-6" d="M80,42a1,1,0,0,1-.38-.08.9.9,0,0,1-.54-.54A.84.84,0,0,1,79,41a1,1,0,0,1,1.71-.71A1,1,0,0,1,81,41a1,1,0,0,1-.29.71,1.15,1.15,0,0,1-.33.21A1,1,0,0,1,80,42Z"/><path class="cls-6" d="M82,40a1,1,0,0,1-.38-.08,1.15,1.15,0,0,1-.33-.21,1,1,0,0,1-.21-1.09.9.9,0,0,1,.54-.54,1,1,0,0,1,1.09.21,1,1,0,0,1,.21.33A1,1,0,0,1,82,40Z"/><path class="cls-6" d="M84,42a1,1,0,0,1-.38-.08,1.15,1.15,0,0,1-.33-.21A1,1,0,0,1,83,41a1,1,0,0,1,.29-.71,1,1,0,0,1,.9-.27.62.62,0,0,1,.19.06.74.74,0,0,1,.18.09l.15.12A1.05,1.05,0,0,1,85,41a1,1,0,0,1-.29.71,1.15,1.15,0,0,1-.33.21A1,1,0,0,1,84,42Z"/><path class="cls-6" d="M86,40a1,1,0,0,1-.38-.08.9.9,0,0,1-.54-.54.95.95,0,0,1,0-.76,1.15,1.15,0,0,1,.21-.33,1,1,0,0,1,.33-.21,1,1,0,0,1,1.09.21A1.05,1.05,0,0,1,87,39a1,1,0,0,1-.29.71,1.15,1.15,0,0,1-.33.21A1,1,0,0,1,86,40Z"/><path class="cls-6" d="M88,42a1,1,0,0,1-.71-.29A1,1,0,0,1,87,41a1.05,1.05,0,0,1,.29-.71,1,1,0,0,1,.33-.21,1,1,0,0,1,1.09.21l.12.15a.76.76,0,0,1,.09.18.65.65,0,0,1,.06.18,1.54,1.54,0,0,1,0,.2,1,1,0,0,1-.08.38,1.17,1.17,0,0,1-.21.33,1.15,1.15,0,0,1-.33.21A1,1,0,0,1,88,42Z"/><path class="cls-6" d="M90,40a1,1,0,0,1-1-1,.84.84,0,0,1,.08-.38,1,1,0,0,1,.21-.33,1,1,0,0,1,1.09-.21.9.9,0,0,1,.54.54A1,1,0,0,1,90,40Z"/><path class="cls-6" d="M92,42a1,1,0,0,1-.38-.08,1.15,1.15,0,0,1-.33-.21A1,1,0,0,1,91,41a1.05,1.05,0,0,1,.29-.71,1.55,1.55,0,0,1,.15-.12.74.74,0,0,1,.18-.09A.65.65,0,0,1,91.8,40a1,1,0,0,1,.58.06,1.15,1.15,0,0,1,.33.21A1.05,1.05,0,0,1,93,41a1,1,0,0,1-.29.71,1.15,1.15,0,0,1-.33.21A1,1,0,0,1,92,42Z"/><path class="cls-6" d="M94,40a1,1,0,0,1-.38-.08,1.15,1.15,0,0,1-.33-.21A1,1,0,0,1,93,39a.84.84,0,0,1,.08-.38.9.9,0,0,1,.54-.54.93.93,0,0,1,.57-.06.62.62,0,0,1,.19.06.74.74,0,0,1,.18.09l.15.12a1,1,0,0,1,.21.33,1,1,0,0,1-.21,1.09,1.15,1.15,0,0,1-.33.21A1,1,0,0,1,94,40Z"/><path class="cls-6" d="M96,42a1,1,0,0,1-.38-.08,1.15,1.15,0,0,1-.33-.21A1,1,0,0,1,95,41a1.05,1.05,0,0,1,.29-.71,1,1,0,0,1,.9-.27.62.62,0,0,1,.19.06.54.54,0,0,1,.17.09,1,1,0,0,1,.16.12A1.05,1.05,0,0,1,97,41a1,1,0,0,1-.29.71,1.15,1.15,0,0,1-.33.21A1,1,0,0,1,96,42Z"/><path class="cls-6" d="M98,40a1,1,0,0,1-.92-1.38,1.15,1.15,0,0,1,.21-.33,1.55,1.55,0,0,1,.15-.12.74.74,0,0,1,.18-.09A.65.65,0,0,1,97.8,38a1,1,0,0,1,.58.06.9.9,0,0,1,.54.54A1,1,0,0,1,98,40Z"/><path class="cls-6" d="M100,42a1,1,0,0,1-.38-.08.9.9,0,0,1-.54-.54A1,1,0,0,1,99,41a1.05,1.05,0,0,1,.29-.71.93.93,0,0,1,.33-.21,1,1,0,0,1,1.09.21l.12.15a.76.76,0,0,1,.09.18.65.65,0,0,1,.06.18,1.54,1.54,0,0,1,0,.2,1,1,0,0,1-.29.71,1.15,1.15,0,0,1-.33.21A1,1,0,0,1,100,42Z"/><path class="cls-6" d="M102,40a1,1,0,0,1-.92-1.38,1.15,1.15,0,0,1,.21-.33,1.55,1.55,0,0,1,.15-.12.74.74,0,0,1,.18-.09.65.65,0,0,1,.18-.06,1,1,0,0,1,.91.27,1,1,0,0,1,.21.33A1,1,0,0,1,102,40Z"/><path class="cls-6" d="M104,42a1,1,0,0,1-.38-.08,1.15,1.15,0,0,1-.33-.21A1,1,0,0,1,103,41a1.05,1.05,0,0,1,.29-.71,1.15,1.15,0,0,1,.33-.21,1,1,0,0,1,.76,0,1.15,1.15,0,0,1,.33.21A1.05,1.05,0,0,1,105,41a1,1,0,0,1-.29.71,1.15,1.15,0,0,1-.33.21A1,1,0,0,1,104,42Z"/><path class="cls-6" d="M106,40a1,1,0,0,1-.38-.08,1.15,1.15,0,0,1-.33-.21,1,1,0,0,1-.21-1.09,1.15,1.15,0,0,1,.21-.33,1,1,0,0,1,.33-.21,1,1,0,0,1,1.09.21A1.05,1.05,0,0,1,107,39a1,1,0,0,1-.29.71,1.15,1.15,0,0,1-.33.21A1,1,0,0,1,106,40Z"/><path class="cls-6" d="M108,42a1,1,0,0,1-.38-.08,1,1,0,0,1-.33-.21A1,1,0,0,1,107,41a1.05,1.05,0,0,1,.29-.71,1,1,0,0,1,1.09-.21,1.15,1.15,0,0,1,.33.21A1.05,1.05,0,0,1,109,41a1,1,0,0,1-.08.38,1.17,1.17,0,0,1-.21.33,1.15,1.15,0,0,1-.33.21A1,1,0,0,1,108,42Z"/><path class="cls-6" d="M110,40a1,1,0,0,1-.38-.08.9.9,0,0,1-.54-.54.95.95,0,0,1,0-.76.9.9,0,0,1,.54-.54,1,1,0,0,1,1.09.21,1.16,1.16,0,0,1,.21.33,1,1,0,0,1-.21,1.09,1.15,1.15,0,0,1-.33.21A1,1,0,0,1,110,40Z"/><path class="cls-6" d="M112,42a1,1,0,0,1-.38-.08,1.15,1.15,0,0,1-.33-.21A1,1,0,0,1,111,41a1.05,1.05,0,0,1,.29-.71,1.55,1.55,0,0,1,.15-.12.74.74,0,0,1,.18-.09.65.65,0,0,1,.18-.06,1,1,0,0,1,.91.27l.12.15a.76.76,0,0,1,.09.18.65.65,0,0,1,.06.18,1.54,1.54,0,0,1,0,.2,1,1,0,0,1-.29.71,1.15,1.15,0,0,1-.33.21A1,1,0,0,1,112,42Z"/><path class="cls-6" d="M114,40a1,1,0,0,1-1-1,.84.84,0,0,1,.08-.38,1,1,0,0,1,.21-.33,1,1,0,0,1,.9-.27.62.62,0,0,1,.19.06.74.74,0,0,1,.18.09l.15.12a1.16,1.16,0,0,1,.21.33A1,1,0,0,1,114,40Z"/><path class="cls-6" d="M116,42a1,1,0,0,1-.38-.08,1.15,1.15,0,0,1-.33-.21,1.46,1.46,0,0,1-.22-.33A1,1,0,0,1,115,41a1.05,1.05,0,0,1,.29-.71,1.06,1.06,0,0,1,.9-.27.62.62,0,0,1,.19.06.74.74,0,0,1,.18.09l.15.12A1.05,1.05,0,0,1,117,41a1,1,0,0,1-.29.71,1.15,1.15,0,0,1-.33.21A1,1,0,0,1,116,42Z"/><path class="cls-6" d="M118,40a1,1,0,0,1-.92-1.38,1.15,1.15,0,0,1,.21-.33,1.55,1.55,0,0,1,.15-.12.74.74,0,0,1,.18-.09.65.65,0,0,1,.18-.06.88.88,0,0,1,.39,0,.62.62,0,0,1,.19.06.74.74,0,0,1,.18.09l.15.12a1.16,1.16,0,0,1,.21.33A1,1,0,0,1,118,40Z"/><path class="cls-6" d="M120,42a1,1,0,0,1-.71-.29,1.16,1.16,0,0,1-.21-.33A1,1,0,0,1,119,41a1.05,1.05,0,0,1,.29-.71,1,1,0,0,1,.33-.21,1,1,0,0,1,1.09.21A1.05,1.05,0,0,1,121,41a1,1,0,0,1-.29.71,1.15,1.15,0,0,1-.33.21A1,1,0,0,1,120,42Z"/><path class="cls-6" d="M122,40a1,1,0,0,1-.92-1.38,1,1,0,0,1,.21-.33,1.55,1.55,0,0,1,.15-.12.74.74,0,0,1,.18-.09.65.65,0,0,1,.18-.06,1,1,0,0,1,.58.06,1.15,1.15,0,0,1,.33.21,1,1,0,0,1,.21.33A1,1,0,0,1,122,40Z"/><path class="cls-6" d="M78,44a1,1,0,0,1-.92-1.38,1,1,0,0,1,.21-.33,1,1,0,0,1,1.63.33,1,1,0,0,1-.21,1.09,1.45,1.45,0,0,1-.33.22A1,1,0,0,1,78,44Z"/><path class="cls-6" d="M82,44a1,1,0,0,1-.92-1.38,1,1,0,0,1,.21-.33,1,1,0,0,1,1.63.33,1,1,0,0,1-.21,1.09,1.45,1.45,0,0,1-.33.22A1,1,0,0,1,82,44Z"/><path class="cls-6" d="M86,44a1,1,0,0,1-1-1,.84.84,0,0,1,.08-.38,1,1,0,0,1,.21-.33,1,1,0,0,1,1.09-.21,1.15,1.15,0,0,1,.33.21,1,1,0,0,1,.21.33,1,1,0,0,1-.21,1.09,1.45,1.45,0,0,1-.33.22A1,1,0,0,1,86,44Z"/><path class="cls-6" d="M90,44a1,1,0,0,1-.38-.07,1.45,1.45,0,0,1-.33-.22A1,1,0,0,1,89,43a.84.84,0,0,1,.08-.38,1,1,0,0,1,.21-.33,1.15,1.15,0,0,1,.33-.21,1,1,0,0,1,1.09.21,1,1,0,0,1,.21.33A1,1,0,0,1,90,44Z"/><path class="cls-6" d="M94,44a1,1,0,0,1-.38-.07,1.45,1.45,0,0,1-.33-.22,1,1,0,0,1-.21-1.09,1,1,0,0,1,.21-.33A1,1,0,0,1,95,43a1,1,0,0,1-1,1Z"/><path class="cls-6" d="M98,44a1,1,0,0,1-.38-.07,1.45,1.45,0,0,1-.33-.22,1,1,0,0,1-.21-1.09,1,1,0,0,1,.21-.33A1,1,0,0,1,99,43a1,1,0,0,1-1,1Z"/><path class="cls-6" d="M102,44a1,1,0,0,1-.38-.07,1.45,1.45,0,0,1-.33-.22A1,1,0,0,1,101,43a1.05,1.05,0,0,1,.29-.71.93.93,0,0,1,.33-.21,1,1,0,0,1,1.09.21,1,1,0,0,1,.21.33,1,1,0,0,1-.21,1.09,1.45,1.45,0,0,1-.33.22A1,1,0,0,1,102,44Z"/><path class="cls-6" d="M106,44a1,1,0,0,1-.38-.07,1.45,1.45,0,0,1-.33-.22,1,1,0,0,1-.21-1.09,1,1,0,0,1,.21-.33.93.93,0,0,1,.33-.21,1,1,0,0,1,1.09.21,1,1,0,0,1,.21.33,1,1,0,0,1-.21,1.09,1.45,1.45,0,0,1-.33.22A1,1,0,0,1,106,44Z"/><path class="cls-6" d="M110,44a1,1,0,0,1-.38-.07,1.45,1.45,0,0,1-.33-.22,1,1,0,0,1-.21-1.09.9.9,0,0,1,.54-.54,1,1,0,0,1,1.09.21,1,1,0,0,1,.21.33A1,1,0,0,1,110,44Z"/><path class="cls-6" d="M114,44a1,1,0,0,1-.38-.07,1.45,1.45,0,0,1-.33-.22,1,1,0,0,1-.21-1.09,1,1,0,0,1,.21-.33,1,1,0,0,1,1.09-.21.9.9,0,0,1,.54.54,1,1,0,0,1-.21,1.09,1.45,1.45,0,0,1-.33.22A1,1,0,0,1,114,44Z"/><path class="cls-6" d="M118,44a1,1,0,0,1-.92-1.38,1,1,0,0,1,.21-.33,1,1,0,0,1,1.63.33,1,1,0,0,1-.21,1.09,1.45,1.45,0,0,1-.33.22A1,1,0,0,1,118,44Z"/><path class="cls-6" d="M122,44a1,1,0,0,1-.92-1.38,1,1,0,0,1,.21-.33,1,1,0,0,1,1.63.33,1,1,0,0,1-.21,1.09,1.45,1.45,0,0,1-.33.22A1,1,0,0,1,122,44Z"/></g><path class="cls-16" d="M58.79,11.89l-19,19a2.79,2.79,0,0,0,0,3.95L51.23,46.22a2.79,2.79,0,0,0,3.95,0l19-19V11.89Zm8.38,9.78A2.79,2.79,0,1,1,70,18.87,2.79,2.79,0,0,1,67.17,21.66Z"/><path class="cls-5" d="M58.79,11.89l-19,19a2.79,2.79,0,0,0-.38,3.47,2.8,2.8,0,0,1,.38-.47l20-20H74.15v-2Z"/><g class="cls-10"><path class="cls-17" d="M51.23,43.22,39.82,31.81a2.77,2.77,0,0,1-.63-1,2.79,2.79,0,0,0,.63,3L51.23,45.22a2.79,2.79,0,0,0,3.95,0l19-19v-2l-19,19A2.79,2.79,0,0,1,51.23,43.22Z"/></g><path class="cls-6" d="M53.2,48a3.78,3.78,0,0,1-2.68-1.11L39.11,35.52a3.8,3.8,0,0,1,0-5.36l19-19a1,1,0,0,1,.71-.29H74.15a1,1,0,0,1,1,1V27.25a1,1,0,0,1-.29.71l-19,19A3.78,3.78,0,0,1,53.2,48Zm6-35.15L40.52,31.57a1.79,1.79,0,0,0,0,2.54L51.94,45.51a1.84,1.84,0,0,0,2.54,0L73.15,26.83V12.89Zm8,9.78A3.79,3.79,0,1,1,71,18.87,3.8,3.8,0,0,1,67.17,22.66Zm0-5.59A1.79,1.79,0,1,0,69,18.87,1.8,1.8,0,0,0,67.17,17.08Z"/><path class="cls-6" d="M74.15,19.87a1,1,0,0,1,0-2,2.2,2.2,0,0,0,1.3-.42,1,1,0,1,1,1.15,1.64A4.19,4.19,0,0,1,74.15,19.87Zm-7,0h0a1,1,0,0,1-1-1c0-.71,0-1.41.09-2.09a1,1,0,1,1,2,.18c-.06.61-.08,1.25-.09,1.91A1,1,0,0,1,67.17,19.82Zm10.68-2.89A1,1,0,0,1,77,15.5a12.25,12.25,0,0,0,.67-1.72,1,1,0,1,1,1.91.59,14.25,14.25,0,0,1-.78,2A1,1,0,0,1,77.85,16.94ZM67.77,14.88a1,1,0,0,1-1-1.25,15.55,15.55,0,0,1,.68-2,1,1,0,1,1,1.85.77,13.65,13.65,0,0,0-.59,1.76A1,1,0,0,1,67.77,14.88Zm11.17-2.75a1,1,0,0,1-1-.84,3.71,3.71,0,0,0-.56-1.46,1,1,0,1,1,1.67-1.09A5.7,5.7,0,0,1,79.93,11a1,1,0,0,1-.83,1.14Zm-9.07-1.75a1,1,0,0,1-.8-1.6,12,12,0,0,1,.81-1,6.23,6.23,0,0,1,.74-.68,1,1,0,1,1,1.23,1.58,4.31,4.31,0,0,0-.5.46,9.46,9.46,0,0,0-.67.8A1,1,0,0,1,69.87,10.38Zm6.09-2a1,1,0,0,1-.4-.08A3.94,3.94,0,0,0,74,8a1,1,0,0,1,0-2h0a5.87,5.87,0,0,1,2.34.5A1,1,0,0,1,76,8.37Z"/><path class="cls-6" d="M56.27,33.38h0a3.62,3.62,0,0,1-3.58-3.59,3.52,3.52,0,0,1,1-2.53,1,1,0,0,1,1.41,1.41,1.53,1.53,0,0,0-.45,1.1,1.62,1.62,0,0,0,1.6,1.6h0a1.53,1.53,0,0,0,1.09-.45c.86-.86-.05-2.56-.06-2.58-.63-1.12-1.27-3.42.27-5a3.6,3.6,0,0,1,6.11,2.55,3.51,3.51,0,0,1-1,2.53,1,1,0,1,1-1.41-1.41,1.53,1.53,0,0,0,.45-1.1,1.6,1.6,0,0,0-.47-1.12,1.58,1.58,0,0,0-2.23,0c-.86.86.05,2.56.06,2.57.63,1.12,1.27,3.42-.27,5A3.52,3.52,0,0,1,56.27,33.38Z"/><path class="cls-6" d="M61.92,25.12a1,1,0,0,1-.71-1.71l1.06-1.06a1,1,0,0,1,1.41,1.41l-1.06,1.06A1,1,0,0,1,61.92,25.12Z"/><path class="cls-6" d="M53.2,33.83a1,1,0,0,1-.71-1.71l1.22-1.22a1,1,0,0,1,1.41,1.41l-1.22,1.22A1,1,0,0,1,53.2,33.83Z"/><path class="cls-6" d="M52.51,38a1,1,0,0,1-.71-.29l-3.49-3.49a1,1,0,0,1,1.41-1.41l3.49,3.49A1,1,0,0,1,52.51,38Z"/><path class="cls-6" d="M52.51,42.21a1,1,0,0,1-.71-.29l-7.68-7.68a1,1,0,0,1,1.41-1.41l7.68,7.68a1,1,0,0,1-.71,1.71Z"/></g><rect class="cls-5" height="72" width="76" x="26" y="53"/><g class="cls-1"><path class="cls-18" d="M102,55H26V72.57A5.07,5.07,0,0,0,28,71a5,5,0,0,0,8,0,5,5,0,0,0,8,0,5,5,0,0,0,8,0,5,5,0,0,0,8,0,5,5,0,0,0,8,0,5,5,0,0,0,8,0,5,5,0,0,0,8,0,5,5,0,0,0,8,0,5,5,0,0,0,8,0,5.07,5.07,0,0,0,2,1.6Z"/></g><path class="cls-3" d="M102,45v8H26V45a4,4,0,0,1,4-4H98A4,4,0,0,1,102,45Z"/><path class="cls-5" d="M98,41H30a4,4,0,0,0-4,4v3a4,4,0,0,1,4-4H98a4,4,0,0,1,4,4V45A4,4,0,0,0,98,41Z"/><path class="cls-6" d="M102,126H26a1,1,0,0,1-1-1V45a5,5,0,0,1,5-5H98a5,5,0,0,1,5,5v80A1,1,0,0,1,102,126Zm-75-2h74V45a3,3,0,0,0-3-3H30a3,3,0,0,0-3,3Z"/><rect class="cls-5" height="4" rx="2" ry="2" width="44" x="54" y="45"/><path class="cls-6" d="M96,50H56a3,3,0,0,1,0-6H96a3,3,0,0,1,0,6ZM56,46a1,1,0,0,0,0,2H96a1,1,0,0,0,0-2Z"/><circle class="cls-19" cx="32" cy="47" r="2"/><path class="cls-6" d="M32,50a3,3,0,1,1,3-3A3,3,0,0,1,32,50Zm0-4a1,1,0,1,0,1,1A1,1,0,0,0,32,46Z"/><circle class="cls-20" cx="40" cy="47" r="2"/><path class="cls-6" d="M40,50a3,3,0,1,1,3-3A3,3,0,0,1,40,50Zm0-4a1,1,0,1,0,1,1A1,1,0,0,0,40,46Z"/><circle class="cls-12" cx="48" cy="47" r="2"/><path class="cls-6" d="M48,50a3,3,0,1,1,3-3A3,3,0,0,1,48,50Zm0-4a1,1,0,1,0,1,1A1,1,0,0,0,48,46Z"/><path class="cls-2" d="M24,69h0a4,4,0,0,1-4-4V63h8v2A4,4,0,0,1,24,69Z"/><path class="cls-6" d="M24,70a5,5,0,0,1-5-5V63a1,1,0,0,1,1-1h8a1,1,0,0,1,1,1v2A5,5,0,0,1,24,70Zm-3-6v1a3,3,0,0,0,6,0V64Z"/><path class="cls-5" d="M32,69h0a4,4,0,0,1-4-4V63h8v2A4,4,0,0,1,32,69Z"/><path class="cls-6" d="M32,70a5,5,0,0,1-5-5V63a1,1,0,0,1,1-1h8a1,1,0,0,1,1,1v2A5,5,0,0,1,32,70Zm-3-6v1a3,3,0,0,0,6,0V64Z"/><path class="cls-2" d="M40,69h0a4,4,0,0,1-4-4V63h8v2A4,4,0,0,1,40,69Z"/><path class="cls-6" d="M40,70a5,5,0,0,1-5-5V63a1,1,0,0,1,1-1h8a1,1,0,0,1,1,1v2A5,5,0,0,1,40,70Zm-3-6v1a3,3,0,0,0,6,0V64Z"/><path class="cls-5" d="M48,69h0a4,4,0,0,1-4-4V63h8v2A4,4,0,0,1,48,69Z"/><path class="cls-6" d="M48,70a5,5,0,0,1-5-5V63a1,1,0,0,1,1-1h8a1,1,0,0,1,1,1v2A5,5,0,0,1,48,70Zm-3-6v1a3,3,0,0,0,6,0V64Z"/><path class="cls-2" d="M56,69h0a4,4,0,0,1-4-4V63h8v2A4,4,0,0,1,56,69Z"/><path class="cls-6" d="M56,70a5,5,0,0,1-5-5V63a1,1,0,0,1,1-1h8a1,1,0,0,1,1,1v2A5,5,0,0,1,56,70Zm-3-6v1a3,3,0,0,0,6,0V64Z"/><path class="cls-2" d="M72,69h0a4,4,0,0,1-4-4V63h8v2A4,4,0,0,1,72,69Z"/><path class="cls-6" d="M72,70a5,5,0,0,1-5-5V63a1,1,0,0,1,1-1h8a1,1,0,0,1,1,1v2A5,5,0,0,1,72,70Zm-3-6v1a3,3,0,0,0,6,0V64Z"/><path class="cls-5" d="M80,69h0a4,4,0,0,1-4-4V63h8v2A4,4,0,0,1,80,69Z"/><path class="cls-6" d="M80,70a5,5,0,0,1-5-5V63a1,1,0,0,1,1-1h8a1,1,0,0,1,1,1v2A5,5,0,0,1,80,70Zm-3-6v1a3,3,0,0,0,6,0V64Z"/><path class="cls-2" d="M88,69h0a4,4,0,0,1-4-4V63h8v2A4,4,0,0,1,88,69Z"/><path class="cls-6" d="M88,70a5,5,0,0,1-5-5V63a1,1,0,0,1,1-1h8a1,1,0,0,1,1,1v2A5,5,0,0,1,88,70Zm-3-6v1a3,3,0,0,0,6,0V64Z"/><path class="cls-5" d="M96,69h0a4,4,0,0,1-4-4V63h8v2A4,4,0,0,1,96,69Z"/><path class="cls-6" d="M96,70a5,5,0,0,1-5-5V63a1,1,0,0,1,1-1h8a1,1,0,0,1,1,1v2A5,5,0,0,1,96,70Zm-3-6v1a3,3,0,0,0,6,0V64Z"/><path class="cls-2" d="M104,69h0a4,4,0,0,1-4-4V63h8v2A4,4,0,0,1,104,69Z"/><path class="cls-6" d="M104,70a5,5,0,0,1-5-5V63a1,1,0,0,1,1-1h8a1,1,0,0,1,1,1v2A5,5,0,0,1,104,70Zm-3-6v1a3,3,0,0,0,6,0V64Z"/><polygon class="cls-2" points="28 63 20 63 26 53 32 53 28 63"/><path class="cls-6" d="M28,64H20a1,1,0,0,1-.86-1.51l6-10A1,1,0,0,1,26,52h6a1,1,0,0,1,.93,1.37l-4,10A1,1,0,0,1,28,64Zm-6.23-2h5.56l3.2-8h-4Z"/><polygon class="cls-5" points="36 63 28 63 32 53 39 53 36 63"/><path class="cls-6" d="M36,64H28a1,1,0,0,1-.93-1.37l4-10A1,1,0,0,1,32,52h7a1,1,0,0,1,1,1.29l-3,10A1,1,0,0,1,36,64Zm-6.52-2h5.78l2.4-8h-5Z"/><polygon class="cls-2" points="44 63 36 63 39 53 46 53 44 63"/><path class="cls-6" d="M44,64H36a1,1,0,0,1-1-1.29l3-10A1,1,0,0,1,39,52h7a1,1,0,0,1,1,1.2l-2,10A1,1,0,0,1,44,64Zm-6.66-2h5.84l1.6-8h-5Z"/><polygon class="cls-5" points="52 63 44 63 46 53 53 53 52 63"/><path class="cls-6" d="M52,64H44a1,1,0,0,1-1-1.2l2-10a1,1,0,0,1,1-.8h7a1,1,0,0,1,1,1.1l-1,10A1,1,0,0,1,52,64Zm-6.78-2h5.88l.8-8H46.82Z"/><polygon class="cls-2" points="60 63 52 63 53 53 60 53 60 63"/><path class="cls-6" d="M60,64H52a1,1,0,0,1-1-1.1l1-10a1,1,0,0,1,1-.9h7a1,1,0,0,1,1,1V63A1,1,0,0,1,60,64Zm-6.9-2H59V54H53.9Z"/><path class="cls-5" d="M64,69h0a4,4,0,0,1-4-4V63h8v2A4,4,0,0,1,64,69Z"/><path class="cls-6" d="M64,70a5,5,0,0,1-5-5V63a1,1,0,0,1,1-1h8a1,1,0,0,1,1,1v2A5,5,0,0,1,64,70Zm-3-6v1a3,3,0,0,0,6,0V64Z"/><rect class="cls-5" height="10" width="8" x="60" y="53"/><path class="cls-6" d="M68,64H60a1,1,0,0,1-1-1V53a1,1,0,0,1,1-1h8a1,1,0,0,1,1,1V63A1,1,0,0,1,68,64Zm-7-2h6V54H61Z"/><polygon class="cls-2" points="76 63 68 63 68 53 75 53 76 63"/><path class="cls-6" d="M76,64H68a1,1,0,0,1-1-1V53a1,1,0,0,1,1-1h7a1,1,0,0,1,1,.9l1,10A1,1,0,0,1,76,64Zm-7-2h5.9l-.8-8H69Z"/><polygon class="cls-5" points="84 63 76 63 75 53 82 53 84 63"/><path class="cls-6" d="M84,64H76a1,1,0,0,1-1-.9l-1-10A1,1,0,0,1,75,52h7a1,1,0,0,1,1,.8l2,10A1,1,0,0,1,84,64Zm-7.1-2h5.88l-1.6-8H76.1Z"/><polygon class="cls-2" points="92 63 84 63 82 53 89 53 92 63"/><path class="cls-6" d="M92,64H84a1,1,0,0,1-1-.8l-2-10A1,1,0,0,1,82,52h7a1,1,0,0,1,1,.71l3,10A1,1,0,0,1,92,64Zm-7.18-2h5.84l-2.4-8h-5Z"/><polygon class="cls-5" points="100 63 92 63 89 53 96 53 100 63"/><path class="cls-6" d="M100,64H92a1,1,0,0,1-1-.71l-3-10A1,1,0,0,1,89,52h7a1,1,0,0,1,.93.63l4,10A1,1,0,0,1,100,64Zm-7.26-2h5.78l-3.2-8h-5Z"/><polygon class="cls-2" points="108 63 100 63 96 53 102 53 108 63"/><path class="cls-6" d="M108,64h-8a1,1,0,0,1-.93-.63l-4-10A1,1,0,0,1,96,52h6a1,1,0,0,1,.86.49l6,10A1,1,0,0,1,108,64Zm-7.32-2h5.56l-4.8-8h-4Z"/><circle class="cls-12" cx="65" cy="97" r="20"/><g class="cls-1"><path class="cls-21" d="M65,114A20,20,0,0,1,45.08,95.5c0,.5-.08,1-.08,1.5a20,20,0,0,0,40,0c0-.51,0-1-.08-1.5A20,20,0,0,1,65,114Z"/></g><g class="cls-10"><path class="cls-5" d="M65,80A20,20,0,0,1,84.92,98.5c0-.5.08-1,.08-1.5a20,20,0,0,0-40,0c0,.51,0,1,.08,1.5A20,20,0,0,1,65,80Z"/></g><path class="cls-6" d="M65,118A21,21,0,1,1,86,97,21,21,0,0,1,65,118Zm0-40A19,19,0,1,0,84,97,19,19,0,0,0,65,78Z"/><g class="cls-1"><path class="cls-21" d="M76.47,91.2a2.46,2.46,0,0,0-4.3-1.25l-9,8.38-3.9-1.06a2.45,2.45,0,0,0-3.83,2,2.37,2.37,0,0,0,.66,1.66l5.58,6.25a2.79,2.79,0,0,0,2,.79h.16a2.8,2.8,0,0,0,2-1.12L76,93A2.43,2.43,0,0,0,76.47,91.2Z"/></g><path class="cls-5" d="M75.39,89.16a1.34,1.34,0,0,0-.54-.89h0a1.37,1.37,0,0,0-1.88.25l-9.52,9-4.59-1.43c-.89-.42-1.35-.43-1.86.08a1.35,1.35,0,0,0-.4,1A1.32,1.32,0,0,0,57,98l5.53,6.2a1.68,1.68,0,0,0,1.18.48h.12A1.69,1.69,0,0,0,65,104L75.13,90.16A1.34,1.34,0,0,0,75.39,89.16Z"/><path class="cls-6" d="M63.73,105.71a2.69,2.69,0,0,1-1.92-.76L56.23,98.7a2.28,2.28,0,0,1-.63-1.59,2.34,2.34,0,0,1,3.62-2l4,1.23,9.05-8.54a2.36,2.36,0,0,1,3.2-.36A2.34,2.34,0,0,1,76.38,89h0a2.33,2.33,0,0,1-.45,1.75L65.85,104.62a2.7,2.7,0,0,1-2,1.08h-.16Zm-5.92-9-.1.09a.35.35,0,0,0-.11.26.33.33,0,0,0,.08.22l5.58,6.25a.67.67,0,0,0,.43.15h.08a.67.67,0,0,0,.47-.27L74.32,89.58a.35.35,0,0,0,.08-.27h0a.35.35,0,0,0-.14-.23.37.37,0,0,0-.5.07l-.09.1-9.52,9a1,1,0,0,1-1,.23L58.56,97,58.43,97A1.74,1.74,0,0,0,57.81,96.75Z"/><path class="cls-2" d="M93.32,11A5.55,5.55,0,0,0,97,14.72q2.77.92,0,1.85a5.55,5.55,0,0,0-3.69,3.69q-.92,2.77-1.85,0a5.55,5.55,0,0,0-3.69-3.69q-2.77-.92,0-1.85A5.55,5.55,0,0,0,91.48,11Q92.4,8.26,93.32,11Z"/><path class="cls-2" d="M12,95.57A3.7,3.7,0,0,0,14.48,98q1.85.62,0,1.23A3.7,3.7,0,0,0,12,101.72q-.62,1.85-1.23,0a3.7,3.7,0,0,0-2.46-2.46q-1.85-.62,0-1.23a3.7,3.7,0,0,0,2.46-2.46Q11.4,93.72,12,95.57Z"/><path class="cls-22" d="M8.17,72.81a4.62,4.62,0,0,0,3.08,3.08q2.31.77,0,1.54A4.62,4.62,0,0,0,8.17,80.5q-.77,2.31-1.54,0a4.62,4.62,0,0,0-3.08-3.08q-2.31-.77,0-1.54a4.62,4.62,0,0,0,3.08-3.08Q7.4,70.5,8.17,72.81Z"/><path class="cls-2" d="M50,5.57A3.7,3.7,0,0,0,52.47,8q1.85.62,0,1.23A3.7,3.7,0,0,0,50,11.73q-.62,1.85-1.23,0a3.7,3.7,0,0,0-2.46-2.46q-1.85-.62,0-1.23a3.7,3.7,0,0,0,2.46-2.46Q49.4,3.73,50,5.57Z"/><path class="cls-22" d="M118,69.57A3.7,3.7,0,0,0,120.48,72q1.85.62,0,1.23A3.7,3.7,0,0,0,118,75.73q-.62,1.85-1.23,0a3.7,3.7,0,0,0-2.46-2.46q-1.85-.62,0-1.23a3.7,3.7,0,0,0,2.46-2.46Q117.41,67.73,118,69.57Z"/></svg>