<?xml version="1.0" ?><svg data-name="003" id="_003" viewBox="0 0 128 128" xmlns="http://www.w3.org/2000/svg"><defs><style>.cls-1{opacity:0.3;}.cls-2{fill:#97c1ff;}.cls-3{fill:#eef6ff;}.cls-4{fill:#ced8ee;}.cls-5{fill:#7690a8;}.cls-6{fill:#6d6daa;}.cls-7{fill:#fff;}.cls-8{fill:#c7e9ff;}.cls-9{fill:#1c64ba;}.cls-10{fill:#fff27d;}.cls-11{opacity:0.8;}.cls-12{opacity:0.5;}.cls-13{fill:#f7a706;}.cls-14{fill:#939fc6;}.cls-15{fill:#5cbeff;}</style></defs><title/><g class="cls-1"><path class="cls-2" d="M116,49a39,39,0,1,0-77-12.09A20.62,20.62,0,0,1,23.54,53.71a30.75,30.75,0,1,0,22,57c7.61-4,17-2.68,22.64,3.84A33.75,33.75,0,0,0,121.6,73.44,33.63,33.63,0,0,1,116,49Z"/><path class="cls-3" d="M46,88.76V83.24l-4.74-1.58a15.77,15.77,0,0,0-1.4-3.38l2.24-4.47-3.9-3.9-4.47,2.24a15.76,15.76,0,0,0-3.38-1.4L28.76,66H23.24l-1.58,4.74a15.76,15.76,0,0,0-3.38,1.4l-4.47-2.24-3.9,3.9,2.24,4.47a15.76,15.76,0,0,0-1.4,3.38L6,83.24v5.52l4.74,1.58a15.76,15.76,0,0,0,1.4,3.38L9.91,98.19l3.9,3.9,4.47-2.24a15.76,15.76,0,0,0,3.38,1.4L23.24,106h5.52l1.58-4.74a15.75,15.75,0,0,0,3.38-1.4l4.47,2.24,3.9-3.9-2.24-4.47a15.77,15.77,0,0,0,1.4-3.38ZM26,90a4,4,0,1,1,4-4A4,4,0,0,1,26,90Z"/><path class="cls-4" d="M26,76A10,10,0,1,0,36,86,10,10,0,0,0,26,76Zm0,14a4,4,0,1,1,4-4A4,4,0,0,1,26,90Z"/><g class="cls-1"><path class="cls-5" d="M26,79a10,10,0,0,1,9.88,8.5,10,10,0,1,0-19.75,0A10,10,0,0,1,26,79Z"/></g><path class="cls-6" d="M28.76,107H23.24a1,1,0,0,1-.95-.68l-1.42-4.25A16.81,16.81,0,0,1,18.26,101l-4,2a1,1,0,0,1-1.15-.19L9.2,98.9A1,1,0,0,1,9,97.74l2-4a16.81,16.81,0,0,1-1.08-2.61L5.68,89.71A1,1,0,0,1,5,88.76V83.24a1,1,0,0,1,.68-.95l4.25-1.42A16.81,16.81,0,0,1,11,78.26l-2-4A1,1,0,0,1,9.2,73.1l3.9-3.9A1,1,0,0,1,14.26,69l4,2a16.81,16.81,0,0,1,2.61-1.08l1.42-4.25a1,1,0,0,1,.95-.68h5.52a1,1,0,0,1,.95.68l1.42,4.25A16.81,16.81,0,0,1,33.74,71l4-2a1,1,0,0,1,1.15.19l3.9,3.9A1,1,0,0,1,43,74.26l-2,4a16.81,16.81,0,0,1,1.08,2.61l4.25,1.42a1,1,0,0,1,.68.95v5.52a1,1,0,0,1-.68.95l-4.25,1.42A16.81,16.81,0,0,1,41,93.74l2,4a1,1,0,0,1-.19,1.15l-3.9,3.9a1,1,0,0,1-1.15.19l-4-2a16.81,16.81,0,0,1-2.61,1.08l-1.42,4.25A1,1,0,0,1,28.76,107ZM24,105H28l1.35-4.06a1,1,0,0,1,.67-.65A14.81,14.81,0,0,0,33.23,99a1,1,0,0,1,.93,0L38,100.88,40.88,98,39,94.17a1,1,0,0,1,0-.93,14.81,14.81,0,0,0,1.31-3.17,1,1,0,0,1,.65-.67L45,88V84l-4.06-1.35a1,1,0,0,1-.65-.67A14.81,14.81,0,0,0,39,78.77a1,1,0,0,1,0-.93L40.88,74,38,71.12,34.17,73a1,1,0,0,1-.93,0,14.81,14.81,0,0,0-3.17-1.31,1,1,0,0,1-.67-.65L28,67H24l-1.35,4.06a1,1,0,0,1-.67.65A14.81,14.81,0,0,0,18.77,73a1,1,0,0,1-.93,0L14,71.12,11.12,74,13,77.83a1,1,0,0,1,0,.93,14.81,14.81,0,0,0-1.31,3.17,1,1,0,0,1-.65.67L7,84V88l4.06,1.35a1,1,0,0,1,.65.67A14.81,14.81,0,0,0,13,93.23a1,1,0,0,1,0,.93L11.12,98,14,100.88,17.83,99a1,1,0,0,1,.93,0,14.81,14.81,0,0,0,3.17,1.31,1,1,0,0,1,.67.65ZM46,88.76h0ZM26,91a5,5,0,1,1,5-5A5,5,0,0,1,26,91Zm0-8a3,3,0,1,0,3,3A3,3,0,0,0,26,83Z"/><path class="cls-6" d="M26,97A11,11,0,1,1,37,86,11,11,0,0,1,26,97Zm0-20a9,9,0,1,0,9,9A9,9,0,0,0,26,77Z"/><path class="cls-4" d="M121.75,91.79l-2.91-.48a22.88,22.88,0,0,0-.71-3.56l2.5-1.56a1.5,1.5,0,0,0,.59-1.85L120.67,83a1.5,1.5,0,0,0-1.72-.89l-2.87.66a23,23,0,0,0-2-3l1.72-2.4a1.5,1.5,0,0,0-.16-1.93l-1-1a1.5,1.5,0,0,0-1.93-.16l-2.4,1.72a23,23,0,0,0-3-2l.66-2.87a1.5,1.5,0,0,0-.89-1.72l-1.35-.56a1.5,1.5,0,0,0-1.85.59l-1.56,2.5a22.88,22.88,0,0,0-3.56-.71l-.48-2.91A1.5,1.5,0,0,0,96.73,67H95.27a1.5,1.5,0,0,0-1.48,1.25l-.48,2.91a22.88,22.88,0,0,0-3.56.71l-1.56-2.5a1.5,1.5,0,0,0-1.85-.59L85,69.33a1.5,1.5,0,0,0-.89,1.72l.66,2.87a23,23,0,0,0-3,2l-2.4-1.72a1.5,1.5,0,0,0-1.93.16l-1,1a1.5,1.5,0,0,0-.16,1.93l1.72,2.4a23,23,0,0,0-2,3l-2.87-.66a1.5,1.5,0,0,0-1.72.89l-.56,1.35a1.5,1.5,0,0,0,.59,1.85l2.5,1.56a22.87,22.87,0,0,0-.71,3.56l-2.91.48A1.5,1.5,0,0,0,69,93.27v1.46a1.5,1.5,0,0,0,1.25,1.48l2.91.48a22.86,22.86,0,0,0,.71,3.56l-2.5,1.56a1.5,1.5,0,0,0-.59,1.85l.56,1.35a1.5,1.5,0,0,0,1.72.89l2.87-.66a23,23,0,0,0,2,3l-1.72,2.4a1.5,1.5,0,0,0,.16,1.93l1,1a1.5,1.5,0,0,0,1.93.16l2.4-1.71a23,23,0,0,0,3,2l-.66,2.87a1.5,1.5,0,0,0,.89,1.72l1.35.56a1.5,1.5,0,0,0,1.85-.59l1.56-2.5a22.88,22.88,0,0,0,3.56.71l.48,2.91A1.5,1.5,0,0,0,95.27,121h1.46a1.5,1.5,0,0,0,1.48-1.25l.48-2.91a22.88,22.88,0,0,0,3.56-.71l1.56,2.5a1.5,1.5,0,0,0,1.85.59l1.35-.56a1.5,1.5,0,0,0,.89-1.72l-.66-2.87a23,23,0,0,0,3-2l2.4,1.71a1.5,1.5,0,0,0,1.93-.16l1-1a1.5,1.5,0,0,0,.16-1.93l-1.72-2.4a23,23,0,0,0,2-3l2.87.66a1.5,1.5,0,0,0,1.72-.89l.56-1.35a1.5,1.5,0,0,0-.59-1.85l-2.5-1.56a22.88,22.88,0,0,0,.71-3.56l2.91-.48A1.5,1.5,0,0,0,123,94.73V93.27A1.5,1.5,0,0,0,121.75,91.79ZM96,97a3,3,0,1,1,3-3A3,3,0,0,1,96,97Z"/><path class="cls-3" d="M96,112A18,18,0,1,0,78,94,18,18,0,0,0,96,112Zm0-21a3,3,0,1,1-3,3A3,3,0,0,1,96,91Z"/><path class="cls-4" d="M96,83a11,11,0,1,0,11,11A11,11,0,0,0,96,83Zm0,14a3,3,0,1,1,3-3A3,3,0,0,1,96,97Z"/><g class="cls-1"><path class="cls-5" d="M96,86a11,11,0,0,1,10.89,9.5,11,11,0,1,0-21.77,0A11,11,0,0,1,96,86Z"/></g><path class="cls-6" d="M96.73,122H95.27a2.49,2.49,0,0,1-2.47-2.09l-.36-2.18c-.75-.11-1.5-.26-2.24-.44L89,119.16a2.49,2.49,0,0,1-3.08,1l-1.35-.56a2.5,2.5,0,0,1-1.48-2.87l.5-2.15q-1-.59-1.89-1.27l-1.8,1.29a2.49,2.49,0,0,1-3.22-.27l-1-1a2.49,2.49,0,0,1-.27-3.22l1.29-1.8c-.45-.61-.88-1.25-1.27-1.89l-2.15.5a2.49,2.49,0,0,1-2.87-1.48L69.85,104a2.49,2.49,0,0,1,1-3.08l1.87-1.17c-.18-.74-.33-1.48-.44-2.24l-2.18-.36A2.49,2.49,0,0,1,68,94.73V93.27a2.49,2.49,0,0,1,2.09-2.47l2.18-.36c.11-.75.26-1.5.44-2.24L70.84,87a2.49,2.49,0,0,1-1-3.08l.56-1.35a2.49,2.49,0,0,1,2.87-1.48l2.15.5c.39-.65.81-1.28,1.27-1.89l-1.29-1.8a2.49,2.49,0,0,1,.27-3.22l1-1a2.49,2.49,0,0,1,3.22-.27l1.8,1.29q.92-.68,1.89-1.27l-.5-2.15a2.5,2.5,0,0,1,1.48-2.87L86,67.85a2.48,2.48,0,0,1,3.08,1l1.17,1.87c.74-.18,1.48-.33,2.24-.44l.36-2.18A2.49,2.49,0,0,1,95.27,66h1.46a2.49,2.49,0,0,1,2.47,2.09l.36,2.18c.75.11,1.5.26,2.24.44L103,68.84a2.49,2.49,0,0,1,3.08-1l1.35.56a2.5,2.5,0,0,1,1.48,2.87l-.5,2.15q1,.59,1.89,1.27l1.8-1.29a2.49,2.49,0,0,1,3.22.27l1,1a2.49,2.49,0,0,1,.27,3.22l-1.29,1.8c.45.61.88,1.25,1.27,1.89l2.15-.5a2.49,2.49,0,0,1,2.87,1.48l.56,1.35a2.49,2.49,0,0,1-1,3.08l-1.87,1.17c.18.74.33,1.48.44,2.24l2.18.36h0A2.49,2.49,0,0,1,124,93.27v1.46a2.49,2.49,0,0,1-2.09,2.47l-2.18.36c-.11.75-.26,1.5-.44,2.24l1.87,1.17a2.49,2.49,0,0,1,1,3.08l-.56,1.35a2.49,2.49,0,0,1-2.87,1.48l-2.15-.5c-.39.65-.81,1.28-1.27,1.89l1.29,1.8a2.49,2.49,0,0,1-.27,3.22l-1,1a2.49,2.49,0,0,1-3.22.27l-1.8-1.29q-.92.68-1.89,1.27l.5,2.15a2.5,2.5,0,0,1-1.48,2.87l-1.35.56a2.49,2.49,0,0,1-3.08-1l-1.17-1.87c-.74.18-1.49.33-2.24.44l-.36,2.18A2.49,2.49,0,0,1,96.73,122Zm-7-6.87a1,1,0,0,1,.27,0,22.06,22.06,0,0,0,3.41.67,1,1,0,0,1,.87.83l.48,2.91a.5.5,0,0,0,.49.42h1.46a.5.5,0,0,0,.49-.42l.48-2.91a1,1,0,0,1,.87-.83,22.06,22.06,0,0,0,3.41-.67,1,1,0,0,1,1.12.43l1.56,2.5a.5.5,0,0,0,.61.2l1.35-.56a.5.5,0,0,0,.3-.58l-.67-2.87a1,1,0,0,1,.49-1.1,22.09,22.09,0,0,0,2.88-1.93,1,1,0,0,1,1.2,0l2.4,1.71a.5.5,0,0,0,.64-.05l1-1a.5.5,0,0,0,.05-.64l-1.71-2.4a1,1,0,0,1,0-1.2,21.88,21.88,0,0,0,1.93-2.88,1,1,0,0,1,1.1-.49l2.87.67a.5.5,0,0,0,.58-.3l.56-1.35a.5.5,0,0,0-.2-.61l-2.5-1.56a1,1,0,0,1-.43-1.12,22,22,0,0,0,.67-3.4,1,1,0,0,1,.83-.87l2.91-.48a.5.5,0,0,0,.42-.49V93.27a.5.5,0,0,0-.42-.49l-2.91-.48a1,1,0,0,1-.83-.87,22,22,0,0,0-.67-3.4,1,1,0,0,1,.43-1.12l2.5-1.56a.5.5,0,0,0,.2-.61l-.56-1.35a.5.5,0,0,0-.58-.3l-2.87.67a1,1,0,0,1-1.1-.49,21.88,21.88,0,0,0-1.93-2.88,1,1,0,0,1,0-1.2l1.71-2.4a.5.5,0,0,0-.05-.64l-1-1a.5.5,0,0,0-.64-.05l-2.4,1.71a1,1,0,0,1-1.2,0,22.09,22.09,0,0,0-2.88-1.93,1,1,0,0,1-.49-1.1l.67-2.87a.5.5,0,0,0-.3-.58l-1.35-.56a.49.49,0,0,0-.61.2l-1.56,2.5a1,1,0,0,1-1.12.43,22,22,0,0,0-3.4-.67,1,1,0,0,1-.87-.83l-.48-2.91a.5.5,0,0,0-.49-.42H95.27a.5.5,0,0,0-.49.42l-.48,2.91a1,1,0,0,1-.87.83,22,22,0,0,0-3.4.67,1,1,0,0,1-1.12-.43l-1.56-2.5a.49.49,0,0,0-.61-.2l-1.35.56a.5.5,0,0,0-.3.58l.67,2.87a1,1,0,0,1-.49,1.1,22.09,22.09,0,0,0-2.88,1.93,1,1,0,0,1-1.2,0L78.78,75a.5.5,0,0,0-.64.05l-1,1a.5.5,0,0,0-.05.64l1.71,2.4a1,1,0,0,1,0,1.2,21.88,21.88,0,0,0-1.93,2.88,1,1,0,0,1-1.1.49l-2.87-.67a.5.5,0,0,0-.58.3l-.56,1.35a.5.5,0,0,0,.2.61l2.5,1.56A1,1,0,0,1,74.83,88a22,22,0,0,0-.67,3.4,1,1,0,0,1-.83.87l-2.91.48a.5.5,0,0,0-.42.49v1.46a.5.5,0,0,0,.42.49l2.91.48a1,1,0,0,1,.83.87,22,22,0,0,0,.67,3.4,1,1,0,0,1-.43,1.12l-2.5,1.56a.5.5,0,0,0-.2.61l.56,1.35a.5.5,0,0,0,.58.3l2.87-.67a1,1,0,0,1,1.1.49,21.88,21.88,0,0,0,1.93,2.88,1,1,0,0,1,0,1.2L77,111.22a.5.5,0,0,0,.05.64l1,1a.5.5,0,0,0,.64.05l2.4-1.71a1,1,0,0,1,1.2,0,22.09,22.09,0,0,0,2.88,1.93,1,1,0,0,1,.49,1.1l-.67,2.87a.5.5,0,0,0,.3.58l1.35.56a.5.5,0,0,0,.61-.2l1.56-2.5A1,1,0,0,1,89.75,115.13ZM96,98a4,4,0,1,1,4-4A4,4,0,0,1,96,98Zm0-6a2,2,0,1,0,2,2A2,2,0,0,0,96,92Z"/><path class="cls-6" d="M96,106a12,12,0,1,1,12-12A12,12,0,0,1,96,106Zm0-22a10,10,0,1,0,10,10A10,10,0,0,0,96,84Z"/><path class="cls-7" d="M96,109A18,18,0,0,1,78.08,92.5c0,.5-.08,1-.08,1.5a18,18,0,0,0,36,0c0-.51,0-1-.08-1.5A18,18,0,0,1,96,109Z"/><path class="cls-3" d="M127,28.73V27.27a1.5,1.5,0,0,0-1.25-1.48l-2.91-.48a22.87,22.87,0,0,0-.71-3.56l2.5-1.56a1.5,1.5,0,0,0,.59-1.85L124.67,17a1.5,1.5,0,0,0-1.72-.89l-2.87.66a23,23,0,0,0-2-3l1.72-2.4a1.5,1.5,0,0,0-.16-1.93l-1-1a1.5,1.5,0,0,0-1.93-.16l-2.4,1.72a23,23,0,0,0-3-2l.66-2.87A1.5,1.5,0,0,0,111,3.33l-1.35-.56a1.5,1.5,0,0,0-1.85.59l-1.56,2.5a22.87,22.87,0,0,0-3.56-.71l-.48-2.91A1.5,1.5,0,0,0,100.73,1H99.27a1.5,1.5,0,0,0-1.48,1.25l-.48,2.91a22.87,22.87,0,0,0-3.56.71l-1.56-2.5a1.5,1.5,0,0,0-1.85-.59L89,3.33a1.5,1.5,0,0,0-.89,1.72l.66,2.87a23,23,0,0,0-3,2l-2.4-1.71a1.5,1.5,0,0,0-1.93.16l-1,1a1.5,1.5,0,0,0-.16,1.93l1.71,2.4a23,23,0,0,0-2,3l-2.87-.66a1.5,1.5,0,0,0-1.72.89l-.56,1.35a1.5,1.5,0,0,0,.59,1.85l2.5,1.56a22.87,22.87,0,0,0-.71,3.56l-2.91.48A1.5,1.5,0,0,0,73,27.27v1.46a1.5,1.5,0,0,0,1.25,1.48l2.91.48a22.87,22.87,0,0,0,.71,3.56l-2.5,1.56a1.5,1.5,0,0,0-.59,1.85L75.33,39a1.5,1.5,0,0,0,1.72.89l2.87-.66a23,23,0,0,0,2,3l-1.71,2.4a1.5,1.5,0,0,0,.16,1.93l1,1a1.5,1.5,0,0,0,1.93.16l2.4-1.71a23,23,0,0,0,3,2l-.66,2.87A1.5,1.5,0,0,0,89,52.67l1.35.56a1.5,1.5,0,0,0,1.85-.59l1.56-2.5a22.87,22.87,0,0,0,3.56.71l.48,2.91A1.5,1.5,0,0,0,99.27,55h1.46a1.5,1.5,0,0,0,1.48-1.25l.48-2.91a22.87,22.87,0,0,0,3.56-.71l1.56,2.5a1.5,1.5,0,0,0,1.85.59l1.35-.56a1.5,1.5,0,0,0,.89-1.72l-.66-2.87a23,23,0,0,0,3-2l2.4,1.71a1.5,1.5,0,0,0,1.93-.16l1-1a1.5,1.5,0,0,0,.16-1.93l-1.72-2.4a23,23,0,0,0,2-3l2.87.66a1.5,1.5,0,0,0,1.72-.89l.56-1.35a1.5,1.5,0,0,0-.59-1.85l-2.5-1.56a22.87,22.87,0,0,0,.71-3.56l2.91-.48A1.5,1.5,0,0,0,127,28.73Z"/><g class="cls-1"><path class="cls-5" d="M104,5.37c-.43-.08-.87-.15-1.31-.21l-.48-2.91A1.5,1.5,0,0,0,100.73,1H100V55h.73a1.5,1.5,0,0,0,1.48-1.25l.48-2.91c.44-.05.87-.13,1.31-.21Z"/></g><circle class="cls-4" cx="100" cy="28" r="18"/><g class="cls-1"><path class="cls-5" d="M104,45.54V10.46a18,18,0,0,0-4-.46V46A18,18,0,0,0,104,45.54Z"/></g><g class="cls-1"><path class="cls-5" d="M100,13a18,18,0,0,1,17.92,16.5c0-.5.08-1,.08-1.5a18,18,0,0,0-36,0c0,.51,0,1,.08,1.5A18,18,0,0,1,100,13Z"/></g><path class="cls-3" d="M114,29.66V26.34l-2.85-.95a9.45,9.45,0,0,0-.84-2l1.34-2.68-2.34-2.34-2.68,1.34a9.46,9.46,0,0,0-2-.84L103.66,16h-3.31l-.95,2.85a9.46,9.46,0,0,0-2,.84l-2.68-1.34-2.34,2.34,1.34,2.68a9.46,9.46,0,0,0-.84,2L90,26.34v3.31l2.85.95a9.46,9.46,0,0,0,.84,2l-1.34,2.68,2.34,2.34,2.68-1.34a9.46,9.46,0,0,0,2,.84l.95,2.85h3.31l.95-2.85a9.46,9.46,0,0,0,2-.84l2.68,1.34,2.34-2.34-1.34-2.68a9.45,9.45,0,0,0,.84-2Z"/><g class="cls-1"><polygon class="cls-5" points="100 17.03 100 38.97 100.34 40 103.66 40 104 38.97 104 17.03 103.66 16 100.34 16 100 17.03"/></g><circle class="cls-4" cx="100" cy="28" r="6"/><g class="cls-1"><path class="cls-5" d="M104,32.46V23.54A6,6,0,0,0,100,22V34A6,6,0,0,0,104,32.46Z"/></g><g class="cls-1"><path class="cls-5" d="M100,25a6,6,0,0,1,5.8,4.5,6,6,0,1,0-11.61,0A6,6,0,0,1,100,25Z"/></g><path class="cls-6" d="M100.73,56H99.27a2.49,2.49,0,0,1-2.47-2.09l-.36-2.18c-.75-.11-1.5-.26-2.24-.44L93,53.16a2.49,2.49,0,0,1-3.08,1l-1.35-.56a2.5,2.5,0,0,1-1.48-2.87l.5-2.15c-.65-.39-1.28-.81-1.89-1.27l-1.8,1.29a2.49,2.49,0,0,1-3.22-.27l-1-1a2.49,2.49,0,0,1-.27-3.22l1.29-1.8q-.68-.92-1.27-1.89l-2.15.5a2.49,2.49,0,0,1-2.87-1.48L73.85,38a2.49,2.49,0,0,1,1-3.08l1.87-1.17c-.18-.74-.33-1.48-.44-2.24l-2.18-.36A2.49,2.49,0,0,1,72,28.73V27.27a2.49,2.49,0,0,1,2.09-2.47l2.18-.36c.11-.75.26-1.5.44-2.24L74.84,21a2.49,2.49,0,0,1-1-3.08l.56-1.35a2.49,2.49,0,0,1,2.87-1.48l2.15.5c.39-.65.81-1.28,1.27-1.89l-1.29-1.8a2.49,2.49,0,0,1,.27-3.22l1-1a2.5,2.5,0,0,1,3.22-.27l1.8,1.29c.61-.45,1.25-.88,1.89-1.27l-.5-2.15a2.5,2.5,0,0,1,1.48-2.87L90,1.85a2.49,2.49,0,0,1,3.08,1l1.17,1.87c.74-.18,1.48-.33,2.24-.44l.36-2.18A2.49,2.49,0,0,1,99.27,0h1.46a2.49,2.49,0,0,1,2.47,2.09l.36,2.18c.75.11,1.5.26,2.24.44L107,2.84a2.49,2.49,0,0,1,3.08-1l1.35.56a2.5,2.5,0,0,1,1.48,2.87l-.5,2.15c.65.39,1.28.81,1.89,1.27l1.8-1.29a2.49,2.49,0,0,1,3.22.27l1,1a2.49,2.49,0,0,1,.27,3.22l-1.29,1.8c.45.61.88,1.25,1.27,1.89l2.15-.5a2.49,2.49,0,0,1,2.87,1.48l.56,1.35a2.49,2.49,0,0,1-1,3.08l-1.87,1.17c.18.74.33,1.48.44,2.24l2.18.36A2.49,2.49,0,0,1,128,27.27v1.46a2.49,2.49,0,0,1-2.09,2.47l-2.18.36c-.11.75-.26,1.5-.44,2.24L125.16,35a2.49,2.49,0,0,1,1,3.08l-.56,1.35a2.49,2.49,0,0,1-2.87,1.48l-2.15-.5q-.59,1-1.27,1.89l1.29,1.8a2.49,2.49,0,0,1-.27,3.22l-1,1a2.49,2.49,0,0,1-3.22.27l-1.8-1.29c-.61.45-1.25.88-1.89,1.27l.5,2.15a2.5,2.5,0,0,1-1.48,2.87l-1.35.56a2.49,2.49,0,0,1-3.08-1l-1.17-1.87c-.74.18-1.48.33-2.24.44l-.36,2.18A2.49,2.49,0,0,1,100.73,56Zm-7-6.87a1,1,0,0,1,.27,0,21.92,21.92,0,0,0,3.4.67,1,1,0,0,1,.87.83l.48,2.91a.5.5,0,0,0,.49.42h1.46a.5.5,0,0,0,.49-.42l.48-2.91a1,1,0,0,1,.87-.83,22,22,0,0,0,3.4-.67,1,1,0,0,1,1.12.43l1.56,2.5a.5.5,0,0,0,.61.2l1.35-.56a.5.5,0,0,0,.3-.58l-.67-2.87a1,1,0,0,1,.49-1.1,21.88,21.88,0,0,0,2.88-1.93,1,1,0,0,1,1.2,0l2.4,1.71a.5.5,0,0,0,.64-.05l1-1a.5.5,0,0,0,.05-.64l-1.71-2.4a1,1,0,0,1,0-1.2,22.06,22.06,0,0,0,1.93-2.88,1,1,0,0,1,1.1-.49l2.87.67a.5.5,0,0,0,.58-.3l.56-1.35a.5.5,0,0,0-.2-.62l-2.5-1.56a1,1,0,0,1-.43-1.12,21.92,21.92,0,0,0,.67-3.4,1,1,0,0,1,.83-.87l2.91-.48a.5.5,0,0,0,.42-.49V27.27a.5.5,0,0,0-.42-.49l-2.91-.48a1,1,0,0,1-.83-.87,21.92,21.92,0,0,0-.67-3.4,1,1,0,0,1,.43-1.12l2.5-1.56a.5.5,0,0,0,.2-.62l-.56-1.35a.5.5,0,0,0-.58-.3l-2.87.67a1,1,0,0,1-1.1-.49,21.88,21.88,0,0,0-1.93-2.88,1,1,0,0,1,0-1.2l1.71-2.4a.5.5,0,0,0-.05-.64l-1-1a.5.5,0,0,0-.64-.05l-2.4,1.71a1,1,0,0,1-1.2,0,21.88,21.88,0,0,0-2.88-1.93,1,1,0,0,1-.49-1.1l.67-2.87a.5.5,0,0,0-.3-.58l-1.35-.56a.5.5,0,0,0-.62.2L107.1,6.4a1,1,0,0,1-1.12.43,22,22,0,0,0-3.4-.67,1,1,0,0,1-.87-.83l-.48-2.91a.5.5,0,0,0-.49-.42H99.27a.5.5,0,0,0-.49.42l-.48,2.91a1,1,0,0,1-.87.83,21.92,21.92,0,0,0-3.4.67A1,1,0,0,1,92.9,6.4L91.34,3.9a.5.5,0,0,0-.62-.2l-1.35.56a.5.5,0,0,0-.3.58l.67,2.87a1,1,0,0,1-.49,1.1,21.88,21.88,0,0,0-2.88,1.93,1,1,0,0,1-1.2,0L82.78,9a.5.5,0,0,0-.64.05l-1,1a.5.5,0,0,0-.05.64l1.71,2.4a1,1,0,0,1,0,1.2,21.88,21.88,0,0,0-1.93,2.88,1,1,0,0,1-1.1.49l-2.87-.67a.5.5,0,0,0-.58.3l-.56,1.35a.5.5,0,0,0,.2.62l2.5,1.56A1,1,0,0,1,78.83,22a21.92,21.92,0,0,0-.67,3.4,1,1,0,0,1-.83.87l-2.91.48a.5.5,0,0,0-.42.49v1.46a.5.5,0,0,0,.42.49l2.91.48a1,1,0,0,1,.83.87,21.92,21.92,0,0,0,.67,3.4,1,1,0,0,1-.43,1.12l-2.5,1.56a.5.5,0,0,0-.2.62l.56,1.35a.5.5,0,0,0,.58.3l2.87-.67a1,1,0,0,1,1.1.49,22.06,22.06,0,0,0,1.93,2.88,1,1,0,0,1,0,1.2L81,45.22a.5.5,0,0,0,.05.64l1,1a.5.5,0,0,0,.64.05l2.4-1.71a1,1,0,0,1,1.2,0,21.88,21.88,0,0,0,2.88,1.93,1,1,0,0,1,.49,1.1l-.67,2.87a.5.5,0,0,0,.3.58l1.35.56a.5.5,0,0,0,.62-.2l1.56-2.5A1,1,0,0,1,93.75,49.13Z"/><path class="cls-6" d="M100,47a19,19,0,1,1,19-19A19,19,0,0,1,100,47Zm0-36a17,17,0,1,0,17,17A17,17,0,0,0,100,11Z"/><path class="cls-6" d="M103.66,41h-3.31a1,1,0,0,1-.95-.68L98.61,38a10.36,10.36,0,0,1-1.25-.52l-2.22,1.11A1,1,0,0,1,94,38.36L91.64,36a1,1,0,0,1-.19-1.15l1.11-2.22A10.36,10.36,0,0,1,92,31.39l-2.36-.79a1,1,0,0,1-.68-.95V26.34a1,1,0,0,1,.68-.95L92,24.61a10.36,10.36,0,0,1,.52-1.25l-1.11-2.22A1,1,0,0,1,91.64,20L94,17.64a1,1,0,0,1,1.15-.19l2.22,1.11A10.36,10.36,0,0,1,98.61,18l.79-2.36a1,1,0,0,1,.95-.68h3.31a1,1,0,0,1,.95.68l.79,2.36a10.36,10.36,0,0,1,1.25.52l2.22-1.11a1,1,0,0,1,1.15.19L112.36,20a1,1,0,0,1,.19,1.15l-1.11,2.22a10.36,10.36,0,0,1,.52,1.25l2.36.79a1,1,0,0,1,.68.95v3.31a1,1,0,0,1-.68.95l-2.36.79a10.36,10.36,0,0,1-.52,1.25l1.11,2.22a1,1,0,0,1-.19,1.15L110,38.36a1,1,0,0,1-1.15.19l-2.22-1.11a10.36,10.36,0,0,1-1.25.52l-.79,2.36A1,1,0,0,1,103.66,41Zm-2.59-2h1.87l.72-2.16a1,1,0,0,1,.68-.65,8.46,8.46,0,0,0,1.81-.75,1,1,0,0,1,.93,0l2,1,1.32-1.32-1-2a1,1,0,0,1,0-.93,8.46,8.46,0,0,0,.75-1.81,1,1,0,0,1,.65-.68l2.16-.72V27.07l-2.16-.72a1,1,0,0,1-.65-.68,8.46,8.46,0,0,0-.75-1.81,1,1,0,0,1,0-.93l1-2-1.32-1.32-2,1a1,1,0,0,1-.93,0,8.46,8.46,0,0,0-1.81-.75,1,1,0,0,1-.68-.65L102.93,17h-1.87l-.72,2.16a1,1,0,0,1-.68.65,8.46,8.46,0,0,0-1.81.75,1,1,0,0,1-.93,0l-2-1-1.32,1.32,1,2a1,1,0,0,1,0,.93,8.46,8.46,0,0,0-.75,1.81,1,1,0,0,1-.65.68L91,27.07v1.87l2.16.72a1,1,0,0,1,.65.68,8.46,8.46,0,0,0,.75,1.81,1,1,0,0,1,0,.93l-1,2,1.32,1.32,2-1a1,1,0,0,1,.93,0,8.46,8.46,0,0,0,1.81.75,1,1,0,0,1,.68.65ZM114,29.66h0Z"/><path class="cls-6" d="M100,35a7,7,0,1,1,7-7A7,7,0,0,1,100,35Zm0-12a5,5,0,1,0,5,5A5,5,0,0,0,100,23Z"/><path class="cls-8" d="M100,55a27,27,0,0,1,0-54Z"/><g class="cls-1"><path class="cls-9" d="M73.08,26c0,.66-.08,1.33-.08,2a27,27,0,0,0,27,27V51A27,27,0,0,1,73.08,26Z"/></g><g class="cls-1"><path class="cls-7" d="M73,28c0,.67,0,1.34.08,2A27,27,0,0,1,100,5V1A27,27,0,0,0,73,28Z"/></g><g class="cls-1"><path class="cls-6" d="M100,56c-5.24,0-19-8.61-19-28S94.76,0,100,0a1,1,0,0,1,0,2C95.89,2,83,9.82,83,28c0,17.15,11.94,26,17,26a1,1,0,0,1,0,2Z"/><path class="cls-6" d="M100,56c-4.27,0-10-13.84-10-28A54.46,54.46,0,0,1,93.54,8.46C94.32,6.48,97.08,0,100,0a1,1,0,0,1,0,2c-1.55.07-8,10.59-8,26,0,14.92,6.13,26,8,26a1,1,0,0,1,0,2Z"/><path class="cls-6" d="M100,29H73a1,1,0,0,1,0-2h27a1,1,0,0,1,0,2Z"/><path class="cls-6" d="M94.32,17.28c-7.59,0-14-.89-17.72-2.51a1,1,0,1,1,.8-1.83c4.3,1.87,12.95,2.71,22.55,2.19a1,1,0,0,1,1.05.94,1,1,0,0,1-.94,1.05C98.09,17.23,96.17,17.28,94.32,17.28Z"/><path class="cls-6" d="M77,43.15a1,1,0,0,1-.4-1.92c4.64-2,13.41-2.9,23.45-2.35a1,1,0,0,1,.94,1.05,1,1,0,0,1-1.05.94c-9.6-.52-18.24.32-22.55,2.19A1,1,0,0,1,77,43.15Z"/></g><path class="cls-6" d="M100,56a28,28,0,0,1,0-56,1,1,0,0,1,1,1V55A1,1,0,0,1,100,56ZM99,2a26,26,0,0,0,0,52Z"/><path class="cls-10" d="M39,19a13,13,0,1,0-23.78,7.26A20.79,20.79,0,0,1,19,37.88V40H33V37.95a20.29,20.29,0,0,1,3.69-11.56A12.9,12.9,0,0,0,39,19Z"/><g class="cls-11"><path class="cls-7" d="M23.37,26.26a19.62,19.62,0,0,1-1.29-9C22.5,12,24.9,7.72,28,6.42a5.09,5.09,0,0,0-2.92-.34c-3.59.66-6.52,5.32-7,11.14a19.62,19.62,0,0,0,1.29,9,30.41,30.41,0,0,1,2.33,11.62V40h4V37.88A30.41,30.41,0,0,0,23.37,26.26Z"/></g><g class="cls-12"><path class="cls-13" d="M19,34c0,.29,0,.58,0,.88V37H33V34.95c0-.32,0-.63,0-.95Z"/></g><g class="cls-12"><path class="cls-6" d="M28,26H24a1,1,0,0,1,0-2h4a1,1,0,0,1,0,2Z"/><path class="cls-6" d="M28,38a1,1,0,0,1-1-1V25a1,1,0,0,1,2,0V37A1,1,0,0,1,28,38Z"/><path class="cls-6" d="M24,38a1,1,0,0,1-1-1V25a1,1,0,0,1,2,0V37A1,1,0,0,1,24,38Z"/><path class="cls-6" d="M24,26H22a3,3,0,1,1,3-3v2A1,1,0,0,1,24,26Zm-2-4a1,1,0,0,0,0,2h1V23A1,1,0,0,0,22,22Z"/><path class="cls-6" d="M30,26H28a1,1,0,0,1-1-1V23a3,3,0,1,1,3,3Zm-1-2h1a1,1,0,1,0-1-1Z"/></g><path class="cls-6" d="M33,41H19a1,1,0,0,1-1-1V37.88a19.83,19.83,0,0,0-3.61-11.06A14,14,0,1,1,40,19a13.88,13.88,0,0,1-2.49,8A19.24,19.24,0,0,0,34,38v2A1,1,0,0,1,33,41ZM20,39H32V38a21.22,21.22,0,0,1,3.87-12.13A11.9,11.9,0,0,0,38,19a12,12,0,0,0-4-9,11.89,11.89,0,0,0-9.39-3A12,12,0,0,0,16,25.7a21.82,21.82,0,0,1,4,12.18Z"/><rect class="cls-3" height="3" width="14" x="19" y="40"/><path class="cls-6" d="M33,44H19a1,1,0,0,1-1-1V40a1,1,0,0,1,1-1H33a1,1,0,0,1,1,1v3A1,1,0,0,1,33,44ZM20,42H32V41H20Z"/><rect class="cls-3" height="3" width="14" x="19" y="37"/><path class="cls-6" d="M33,41H19a1,1,0,0,1-1-1V37a1,1,0,0,1,1-1H33a1,1,0,0,1,1,1v3A1,1,0,0,1,33,41ZM20,39H32V38H20Z"/><polygon class="cls-3" points="30 46 22 46 19 43 33 43 30 46"/><path class="cls-6" d="M30,47H22a1,1,0,0,1-.71-.29l-3-3A1,1,0,0,1,19,42H33a1,1,0,0,1,.71,1.71l-3,3A1,1,0,0,1,30,47Zm-7.59-2h7.17l1-1H21.41Z"/><path class="cls-14" d="M28,49H24a2,2,0,0,1-2-2V46h8v1A2,2,0,0,1,28,49Z"/><path class="cls-6" d="M28,50H24a3,3,0,0,1-3-3V46a1,1,0,0,1,1-1h8a1,1,0,0,1,1,1v1A3,3,0,0,1,28,50Zm-5-3a1,1,0,0,0,1,1h4a1,1,0,0,0,1-1Z"/><path class="cls-10" d="M44,114.31l2.18-8.55a.66.66,0,0,0-1.23-.4l-8.46,11.19a.76.76,0,0,0,.56,1.16h6.18L41,126.24a.66.66,0,0,0,1.23.4l9.31-11.21a.76.76,0,0,0-.56-1.16Z"/><path class="cls-6" d="M41.65,128a1.62,1.62,0,0,1-.41-.05A1.72,1.72,0,0,1,40,126.24a1,1,0,0,1,0-.25l1.92-7.29H37.05a1.64,1.64,0,0,1-1.42-.83,1.84,1.84,0,0,1,0-1.82l.08-.12,8.43-11.14a1.61,1.61,0,0,1,1.79-.74,1.72,1.72,0,0,1,1.27,1.71,1,1,0,0,1,0,.25l-1.86,7.3,5.66,0a1.64,1.64,0,0,1,1.42.83,1.84,1.84,0,0,1,0,1.82l-.1.15L43,127.23A1.63,1.63,0,0,1,41.65,128Zm1.58-11.31a1,1,0,0,1,1,1.25l-1.83,6.93,8-9.6-6.34,0h0a1,1,0,0,1-1-1.25l1.73-6.8-7.14,9.44h5.61Z"/></g><circle class="cls-3" cx="66" cy="64" r="42"/><circle class="cls-3" cx="66" cy="64" r="35"/><path class="cls-7" d="M66,29A35,35,0,0,0,34.23,78.69l63.23-30A35,35,0,0,0,66,29Z"/><path class="cls-7" d="M36.61,83,99.3,53.23q-.42-1.3-.94-2.56l-63.15,30C35.65,81.47,36.12,82.24,36.61,83Z"/><path class="cls-7" d="M66,95A35,35,0,0,1,31.06,62c0,.66-.06,1.33-.06,2a35,35,0,0,0,70,0c0-.67,0-1.34-.06-2A35,35,0,0,1,66,95Z"/><g class="cls-1"><path class="cls-15" d="M66,33a35,35,0,0,1,34.94,33c0-.66.06-1.33.06-2a35,35,0,0,0-70,0c0,.67,0,1.34.06,2A35,35,0,0,1,66,33Z"/></g><path class="cls-7" d="M66,26a42,42,0,0,1,41.95,40c0-.66.05-1.33.05-2a42,42,0,0,0-84,0c0,.67,0,1.34.05,2A42,42,0,0,1,66,26Z"/><g class="cls-1"><path class="cls-15" d="M66,102A42,42,0,0,1,24.05,62c0,.66-.05,1.33-.05,2a42,42,0,0,0,84,0c0-.67,0-1.34-.05-2A42,42,0,0,1,66,102Z"/></g><path class="cls-6" d="M66,107a43,43,0,1,1,43-43A43,43,0,0,1,66,107Zm0-84a41,41,0,1,0,41,41A41,41,0,0,0,66,23Z"/><rect class="cls-7" height="12" rx="1" ry="1" width="12" x="74" y="58"/><path class="cls-6" d="M85,71H75a2,2,0,0,1-2-2V59a2,2,0,0,1,2-2H85a2,2,0,0,1,2,2V69A2,2,0,0,1,85,71ZM75,59V69H85V59Z"/><path class="cls-6" d="M78,68a1,1,0,0,1-1-1V61a1,1,0,0,1,2,0v6A1,1,0,0,1,78,68Z"/><path class="cls-6" d="M78,62H77a1,1,0,0,1,0-2h1a1,1,0,0,1,0,2Z"/><path class="cls-6" d="M83,65a1,1,0,0,1-1-1V61a1,1,0,0,1,2,0v3A1,1,0,0,1,83,65Z"/><path class="cls-6" d="M81,68a1,1,0,0,1-1-1V64a1,1,0,0,1,2,0v3A1,1,0,0,1,81,68Z"/><path class="cls-6" d="M83,62H81a1,1,0,0,1,0-2h2a1,1,0,0,1,0,2Z"/><path class="cls-6" d="M83,68H81a1,1,0,0,1,0-2h2a1,1,0,0,1,0,2Z"/><path class="cls-6" d="M83,65H81a1,1,0,0,1,0-2h2a1,1,0,0,1,0,2Z"/><path class="cls-6" d="M66,41a1,1,0,0,1-1-1V35a1,1,0,0,1,2,0v5A1,1,0,0,1,66,41Z"/><path class="cls-6" d="M66,94a1,1,0,0,1-1-1V88a1,1,0,0,1,2,0v5A1,1,0,0,1,66,94Z"/><path class="cls-6" d="M95,65H90a1,1,0,0,1,0-2h5a1,1,0,0,1,0,2Z"/><path class="cls-6" d="M42,65H37a1,1,0,0,1,0-2h5a1,1,0,0,1,0,2Z"/><path class="cls-6" d="M53,42.48a1,1,0,0,1-.87-.5l-1.5-2.6a1,1,0,1,1,1.73-1l1.5,2.6a1,1,0,0,1-.87,1.5Z"/><path class="cls-6" d="M80.5,90.11a1,1,0,0,1-.87-.5L78.13,87a1,1,0,0,1,1.73-1l1.5,2.6a1,1,0,0,1-.87,1.5Z"/><path class="cls-6" d="M88.52,52a1,1,0,0,1-.5-1.87l2.6-1.5a1,1,0,0,1,1,1.73L89,51.87A1,1,0,0,1,88.52,52Z"/><path class="cls-6" d="M40.89,79.5a1,1,0,0,1-.5-1.87l2.6-1.5a1,1,0,1,1,1,1.73l-2.6,1.5A1,1,0,0,1,40.89,79.5Z"/><path class="cls-6" d="M43.48,52a1,1,0,0,1-.5-.13l-2.6-1.5a1,1,0,1,1,1-1.73l2.6,1.5a1,1,0,0,1-.5,1.87Z"/><path class="cls-6" d="M91.11,79.5a1,1,0,0,1-.5-.13L88,77.87a1,1,0,1,1,1-1.73l2.6,1.5a1,1,0,0,1-.5,1.87Z"/><path class="cls-6" d="M79,42.48a1,1,0,0,1-.87-1.5l1.5-2.6a1,1,0,1,1,1.73,1L79.87,42A1,1,0,0,1,79,42.48Z"/><path class="cls-6" d="M51.5,90.11a1,1,0,0,1-.87-1.5l1.5-2.6a1,1,0,1,1,1.73,1l-1.5,2.6A1,1,0,0,1,51.5,90.11Z"/><g class="cls-12"><path class="cls-6" d="M61,36.44a1,1,0,0,1-.38-.08,1,1,0,0,1-.32-.21,1,1,0,0,1-.3-.71,1,1,0,0,1,.08-.38,1,1,0,0,1,.22-.33,1,1,0,0,1,.32-.21,1,1,0,0,1,1.09.21,1.2,1.2,0,0,1,.22.33A1,1,0,0,1,61,36.44Z"/><path class="cls-6" d="M71,93.56a1,1,0,0,1-.71-.29,1,1,0,0,1-.22-1.09,1.22,1.22,0,0,1,.22-.33,1,1,0,0,1,1.41,0,1,1,0,0,1,.22.33A1,1,0,0,1,71,93.56Z"/><path class="cls-6" d="M94.56,60a1,1,0,0,1-.38-.07,1.2,1.2,0,0,1-.33-.22,1,1,0,0,1-.21-.32,1,1,0,0,1-.08-.39,1,1,0,0,1,.08-.38,1,1,0,0,1,.21-.32,1,1,0,0,1,1.42,0,1,1,0,0,1-.71,1.7Z"/><path class="cls-6" d="M37.44,70a1,1,0,0,1-1-1,1,1,0,0,1,.29-.71,1,1,0,0,1,1.42,0,1,1,0,0,1,.29.71,1,1,0,0,1-1,1Z"/><path class="cls-6" d="M56.08,37.75a1,1,0,0,1-.38-.08,1.15,1.15,0,0,1-.33-.21,1,1,0,0,1-.29-.71,1,1,0,0,1,.29-.71,1,1,0,0,1,1.42,0,1,1,0,0,1,.29.71,1,1,0,0,1-.29.71A1,1,0,0,1,56.08,37.75Z"/><path class="cls-6" d="M75.92,92.25a1,1,0,0,1-.71-.29,1.2,1.2,0,0,1-.22-.33,1,1,0,0,1-.07-.38.83.83,0,0,1,.08-.38,1.15,1.15,0,0,1,.21-.33l.15-.12a.74.74,0,0,1,.18-.09.65.65,0,0,1,.18-.06.87.87,0,0,1,.39,0,.61.61,0,0,1,.19.06.55.55,0,0,1,.17.09l.15.12a1,1,0,0,1,0,1.42A1,1,0,0,1,75.92,92.25Z"/><path class="cls-6" d="M93.25,55.08a1,1,0,0,1-.38-.07,1.18,1.18,0,0,1-.33-.22,1.16,1.16,0,0,1-.21-.33,1,1,0,0,1-.08-.38,1,1,0,1,1,2,0,.84.84,0,0,1-.08.38,1.16,1.16,0,0,1-.21.33,1.2,1.2,0,0,1-.33.22A1,1,0,0,1,93.25,55.08Z"/><path class="cls-6" d="M38.75,74.92a1,1,0,0,1-.71-.29,1.21,1.21,0,0,1-.22-.33,1,1,0,0,1-.07-.38,1,1,0,0,1,.29-.71,1,1,0,0,1,1.42,0,1,1,0,0,1,.29.71,1,1,0,0,1-.08.38,1.15,1.15,0,0,1-.21.33A1,1,0,0,1,38.75,74.92Z"/><path class="cls-6" d="M47.36,42.78a1,1,0,0,1-.71-.29,1,1,0,0,1-.22-.32,1,1,0,0,1-.07-.38,1,1,0,0,1,.29-.71,1,1,0,0,1,1.09-.22,1,1,0,0,1,.62.93,1,1,0,0,1-.29.7A1,1,0,0,1,47.36,42.78Z"/><path class="cls-6" d="M84.64,87.21a1,1,0,0,1-1-1,1,1,0,0,1,.08-.39,1,1,0,0,1,.21-.32A1,1,0,0,1,85,85.29a.91.91,0,0,1,.33.22,1,1,0,0,1,.21.32,1,1,0,0,1,.08.39,1,1,0,0,1-.08.38,1,1,0,0,1-.21.32,1,1,0,0,1-.33.22A1,1,0,0,1,84.64,87.21Z"/><path class="cls-6" d="M88.22,46.36a1,1,0,0,1-.71-.29,1,1,0,0,1,0-1.42,1,1,0,0,1,1.41,0,1,1,0,0,1,0,1.42,1,1,0,0,1-.32.21A1,1,0,0,1,88.22,46.36Z"/><path class="cls-6" d="M43.78,83.64a1,1,0,0,1-.7-.29,1,1,0,0,1-.3-.71,1,1,0,0,1,.3-.71,1,1,0,0,1,1.41,0,1,1,0,0,1,.22.33,1,1,0,0,1-.93,1.38Z"/><path class="cls-6" d="M43.78,46.36a1,1,0,0,1-1-1,1,1,0,0,1,.3-.71,1,1,0,0,1,1.41,0,1,1,0,0,1,.22.33,1,1,0,0,1,.07.38,1,1,0,0,1-1,1Z"/><path class="cls-6" d="M88.22,83.64a1,1,0,0,1-.71-.29,1,1,0,0,1-.3-.71,1.39,1.39,0,0,1,0-.2l.06-.18.09-.17a1,1,0,0,1,.13-.16,1,1,0,0,1,1.09-.21,1,1,0,0,1,.32.21,1,1,0,0,1,.13.16l.09.17a1.12,1.12,0,0,1,0,.18.67.67,0,0,1,0,.2,1,1,0,0,1-.29.71.85.85,0,0,1-.32.21A1,1,0,0,1,88.22,83.64Z"/><path class="cls-6" d="M84.64,42.78a1,1,0,0,1-1-1,1,1,0,0,1,.08-.39,1,1,0,0,1,.21-.32A1,1,0,0,1,85,40.86a.91.91,0,0,1,.33.22,1,1,0,0,1,.21.32,1,1,0,0,1,.08.39,1,1,0,0,1-.29.7,1.18,1.18,0,0,1-.33.22A1,1,0,0,1,84.64,42.78Z"/><path class="cls-6" d="M47.36,87.21a1,1,0,0,1-.71-.29,1,1,0,0,1-.22-.32,1,1,0,0,1-.07-.38,1,1,0,0,1,.29-.71,1,1,0,0,1,1.09-.22,1,1,0,0,1,.62.93,1,1,0,0,1-.29.7A1,1,0,0,1,47.36,87.21Z"/><path class="cls-6" d="M38.75,55.08a1,1,0,0,1-.39-.07,1,1,0,0,1-.32-.22,1,1,0,0,1,0-1.41.84.84,0,0,1,.33-.22,1,1,0,0,1,.76,0,1,1,0,0,1,.33.22,1,1,0,0,1,.21.32,1,1,0,0,1-.21,1.09,1.2,1.2,0,0,1-.33.22A1,1,0,0,1,38.75,55.08Z"/><path class="cls-6" d="M93.25,74.92a1,1,0,0,1-.38-.08,1.15,1.15,0,0,1-.33-.21,1,1,0,0,1-.21-1.09.93.93,0,0,1,.21-.33l.15-.12a.74.74,0,0,1,.18-.09.62.62,0,0,1,.19-.06.88.88,0,0,1,.39,0l.18.06a.74.74,0,0,1,.18.09.81.81,0,0,1,.15.12.93.93,0,0,1,.21.33.84.84,0,0,1,.08.38,1,1,0,0,1-.29.71,1.16,1.16,0,0,1-.33.21A1,1,0,0,1,93.25,74.92Z"/><path class="cls-6" d="M75.92,37.75a1,1,0,0,1-.38-.08.91.91,0,0,1-.33-.22,1,1,0,0,1-.29-.7.83.83,0,0,1,.08-.38.93.93,0,0,1,.21-.33,1,1,0,0,1,1.41,0,.84.84,0,0,1,.22.33,1,1,0,0,1,.08.38,1,1,0,0,1-.3.7.88.88,0,0,1-.32.22A1,1,0,0,1,75.92,37.75Z"/><path class="cls-6" d="M56.08,92.25a1,1,0,0,1-.71-.29,1.16,1.16,0,0,1-.21-.33,1,1,0,0,1-.08-.38,1,1,0,1,1,2,0,1,1,0,0,1-.07.38,1.46,1.46,0,0,1-.22.33A1,1,0,0,1,56.08,92.25Z"/><path class="cls-6" d="M37.44,60a1,1,0,0,1-.92-.61,1,1,0,0,1,.21-1.09,1,1,0,0,1,1.42,0,1,1,0,0,1,.29.7,1,1,0,0,1-.08.39,1,1,0,0,1-.21.32A1,1,0,0,1,37.44,60Z"/><path class="cls-6" d="M94.56,70a1,1,0,0,1-.38-.08,1,1,0,0,1-.33-.22,1,1,0,0,1-.29-.7,1.05,1.05,0,0,1,.08-.39,1,1,0,0,1,.21-.32,1,1,0,0,1,.33-.22,1,1,0,0,1,1.09.22,1,1,0,0,1,.21.32,1.08,1.08,0,0,1,.08.39,1,1,0,0,1-.08.38,1,1,0,0,1-.92.62Z"/><path class="cls-6" d="M71,36.44a1,1,0,0,1-1-1,1,1,0,0,1,.08-.38,1.22,1.22,0,0,1,.22-.33,1,1,0,0,1,1.41,0,1,1,0,0,1,.22.33,1,1,0,0,1-.22,1.09A1,1,0,0,1,71,36.44Z"/><path class="cls-6" d="M61,93.56a1,1,0,0,1-.7-.29,1,1,0,0,1-.3-.71,1,1,0,0,1,.3-.71,1,1,0,0,1,.9-.27.68.68,0,0,1,.19.06.7.7,0,0,1,.17.09l.15.12a1,1,0,0,1,.29.71,1,1,0,0,1-.07.38,1.18,1.18,0,0,1-.22.33A1,1,0,0,1,61,93.56Z"/></g><path class="cls-14" d="M65,47.09,63,64h6L67,47.09A1,1,0,0,0,65,47.09Z"/><path class="cls-6" d="M69,65H63a1,1,0,0,1-1-1.12L64,47h0a2,2,0,0,1,4,0l2,16.92A1,1,0,0,1,69,65Zm-4.87-2h3.75L66,47.2l-1-.12,1,.12Z"/><path class="cls-14" d="M50.74,80.68,67.83,65.83l-3.66-3.66L49.32,79.26A1,1,0,0,0,50.74,80.68Z"/><path class="cls-6" d="M50.08,81.94a2,2,0,0,1-1.41-.6,2,2,0,0,1-.09-2.73L63.42,61.52a1,1,0,0,1,.72-.34.93.93,0,0,1,.74.29l3.66,3.66a1,1,0,0,1-.05,1.46L51.39,81.43A2,2,0,0,1,50.08,81.94Zm14.15-18.3L50.08,79.92,66.36,65.78Z"/><circle class="cls-3" cx="66" cy="64" r="4" transform="translate(-25.92 65.41) rotate(-45)"/><path class="cls-6" d="M66,69a5,5,0,1,1,3.54-1.46h0A5,5,0,0,1,66,69Zm0-8a3,3,0,0,0-2.12,5.12,3.07,3.07,0,0,0,4.24,0h0A3,3,0,0,0,66,61Z"/><g class="cls-1"><path class="cls-7" d="M66,29A35,35,0,0,0,34.23,78.69l63.23-30A35,35,0,0,0,66,29Z"/></g><g class="cls-1"><path class="cls-7" d="M36.61,83,99.3,53.23q-.42-1.3-.94-2.56l-63.15,30C35.65,81.47,36.12,82.24,36.61,83Z"/></g><g class="cls-12"><path class="cls-6" d="M69,79H63a1,1,0,0,1,0-2h6a1,1,0,0,1,0,2Z"/></g><path class="cls-6" d="M66,100a36,36,0,1,1,36-36A36,36,0,0,1,66,100Zm0-70a34,34,0,1,0,34,34A34,34,0,0,0,66,30Z"/></svg>