<?xml version="1.0" ?><svg data-name="003" id="_003" viewBox="0 0 128 128" xmlns="http://www.w3.org/2000/svg"><defs><style>.cls-1{opacity:0.3;}.cls-2{fill:#c9c1f5;}.cls-3{fill:#f5dbb8;}.cls-4{fill:#875499;}.cls-5{opacity:0.5;}.cls-6{fill:#fff;}.cls-7{fill:#6d6daa;}.cls-8{fill:#fffad1;}.cls-9{fill:#d6b5b0;}.cls-10{fill:#b6b6d4;}.cls-11{fill:#96d7ff;}</style></defs><title/><g class="cls-1"><path class="cls-2" d="M125.7,48.66a30,30,0,0,0-23.51-25,19.69,19.69,0,0,1-10.93-6.55A37,37,0,0,0,27,32.44,21,21,0,0,1,16.12,46.11C2,53.47-5.14,72.57,7.77,90.5a16.6,16.6,0,0,0,6.35,4.91,20.58,20.58,0,0,1,10,10.88,28.49,28.49,0,0,0,42.62,12.64A20.06,20.06,0,0,1,83.39,116a29,29,0,0,0,36-33.79,20.08,20.08,0,0,1,2.51-14.13A29.83,29.83,0,0,0,125.7,48.66Z"/></g><path class="cls-3" d="M64,102h44.82a1.1,1.1,0,0,0,1.18-1V30a1,1,0,0,0-1-1H64Z"/><g class="cls-1"><path class="cls-4" d="M108.82,98H64v4h44.82a1.1,1.1,0,0,0,1.18-1V97A1.1,1.1,0,0,1,108.82,98Z"/></g><g class="cls-5"><path class="cls-6" d="M109,29a1,1,0,0,1,1,1v4a1,1,0,0,0-1-1H64V29Z"/></g><path class="cls-7" d="M108.82,103H64a1,1,0,0,1-1-1V29a1,1,0,0,1,1-1h45a2,2,0,0,1,2,2v71A2.1,2.1,0,0,1,108.82,103ZM65,101h43.82a.27.27,0,0,0,.2-.06L109,30H65Z"/><path class="cls-8" d="M19.18,102H64V29H19a1,1,0,0,0-1,1v71A1.1,1.1,0,0,0,19.18,102Z"/><rect class="cls-9" height="16" width="12" x="35" y="29"/><g class="cls-5"><path class="cls-6" d="M19,29a1,1,0,0,0-1,1v4a1,1,0,0,1,1-1H64V29Z"/></g><g class="cls-1"><path class="cls-4" d="M18,97v4a1.1,1.1,0,0,0,1.18,1H64V98H19.18A1.1,1.1,0,0,1,18,97Z"/></g><path class="cls-7" d="M64,103H19.18A2.1,2.1,0,0,1,17,101V30a2,2,0,0,1,2-2H64a1,1,0,0,1,1,1v73A1,1,0,0,1,64,103Zm-45-2a1.14,1.14,0,0,0,.16,0H63V30H19v71Zm0,0h0Z"/><rect class="cls-6" height="14" width="30.13" x="25.87" y="77"/><path class="cls-7" d="M56,92H25.87a1,1,0,0,1-1-1V77a1,1,0,0,1,1-1H56a1,1,0,0,1,1,1V91A1,1,0,0,1,56,92ZM26.87,90H55V78H26.87Z"/><rect class="cls-10" height="2" width="5" x="29" y="80"/><rect class="cls-10" height="2" width="3" x="29" y="87"/><rect class="cls-10" height="2" width="3" x="34" y="87"/><rect class="cls-10" height="2" width="3" x="39" y="87"/><rect class="cls-10" height="2" width="5" x="36" y="80"/><rect class="cls-10" height="2" width="7" x="43" y="80"/><rect class="cls-10" height="2" width="11" x="29" y="83"/><rect class="cls-10" height="2" width="10" x="42" y="83"/><g class="cls-5"><path class="cls-4" d="M71,74v5a6,6,0,0,0,5,5.91V90H73v2h8V90H78V84.91A6,6,0,0,0,83,79V74Z"/><rect class="cls-4" height="15" width="3" x="89" y="77"/><polygon class="cls-4" points="90.5 74.06 86 79 95 79 90.5 74.06"/><rect class="cls-4" height="15" width="3" x="98" y="77"/><polygon class="cls-4" points="99.5 74.06 95 79 104 79 99.5 74.06"/></g><path class="cls-7" d="M47,46H35a1,1,0,0,1-1-1V29a1,1,0,0,1,1-1H47a1,1,0,0,1,1,1V45A1,1,0,0,1,47,46ZM36,44H46V30H36Z"/><path class="cls-11" d="M120.92,72.38a5.55,5.55,0,0,0,3.69,3.69q2.77.92,0,1.85a5.55,5.55,0,0,0-3.69,3.69q-.92,2.77-1.85,0a5.55,5.55,0,0,0-3.69-3.69q-2.77-.92,0-1.85a5.55,5.55,0,0,0,3.69-3.69Q120,69.62,120.92,72.38Z"/><path class="cls-11" d="M86.92,14.38a5.55,5.55,0,0,0,3.69,3.69q2.77.92,0,1.85a5.55,5.55,0,0,0-3.69,3.69q-.92,2.77-1.85,0a5.55,5.55,0,0,0-3.69-3.69q-2.77-.92,0-1.85a5.55,5.55,0,0,0,3.69-3.69Q86,11.62,86.92,14.38Z"/><path class="cls-2" d="M120.62,29.92a3.7,3.7,0,0,0,2.46,2.46q1.85.62,0,1.23a3.7,3.7,0,0,0-2.46,2.46q-.62,1.85-1.23,0a3.7,3.7,0,0,0-2.46-2.46q-1.85-.62,0-1.23a3.7,3.7,0,0,0,2.46-2.46Q120,28.08,120.62,29.92Z"/><path class="cls-2" d="M36.54,12.31A3.7,3.7,0,0,0,39,14.77q1.85.62,0,1.23a3.7,3.7,0,0,0-2.46,2.46q-.62,1.85-1.23,0A3.7,3.7,0,0,0,32.85,16q-1.85-.62,0-1.23a3.7,3.7,0,0,0,2.46-2.46Q35.92,10.46,36.54,12.31Z"/><path class="cls-11" d="M10.62,57.92a3.7,3.7,0,0,0,2.46,2.46q1.85.62,0,1.23a3.7,3.7,0,0,0-2.46,2.46q-.62,1.85-1.23,0a3.7,3.7,0,0,0-2.46-2.46q-1.85-.62,0-1.23a3.7,3.7,0,0,0,2.46-2.46Q10,56.08,10.62,57.92Z"/><path class="cls-11" d="M22.62,112.92a3.7,3.7,0,0,0,2.46,2.46q1.85.62,0,1.23a3.7,3.7,0,0,0-2.46,2.46q-.62,1.85-1.23,0a3.7,3.7,0,0,0-2.46-2.46q-1.85-.62,0-1.23a3.7,3.7,0,0,0,2.46-2.46Q22,111.08,22.62,112.92Z"/><path class="cls-2" d="M94.62,108.92a3.7,3.7,0,0,0,2.46,2.46q1.85.62,0,1.23a3.7,3.7,0,0,0-2.46,2.46q-.62,1.85-1.23,0a3.7,3.7,0,0,0-2.46-2.46q-1.85-.62,0-1.23a3.7,3.7,0,0,0,2.46-2.46Q94,107.08,94.62,108.92Z"/></svg>