<?xml version="1.0" ?><svg data-name="003" id="_003" viewBox="0 0 128 128" xmlns="http://www.w3.org/2000/svg" xmlns:xlink="http://www.w3.org/1999/xlink"><defs><style>.cls-1{fill:none;}.cls-2{opacity:0.3;}.cls-3{fill:#97c1ff;}.cls-4{clip-path:url(#clip-path);}.cls-5{fill:#fff27d;}.cls-6{fill:#fffad1;}.cls-7{fill:#96d7ff;}.cls-8{fill:#c7e9ff;}.cls-9{fill:#fff;}.cls-10{fill:#6d6daa;}.cls-11,.cls-18{fill:#d6b5b0;}.cls-11,.cls-12,.cls-13,.cls-14{fill-rule:evenodd;}.cls-12,.cls-23{fill:#b1f1a8;}.cls-13{fill:#48bc33;}.cls-14{fill:#585889;stroke:#6d6daa;stroke-linecap:round;stroke-linejoin:round;stroke-width:2px;}.cls-15{fill:#eef6ff;}.cls-16{fill:#5cbeff;}.cls-17{fill:#ab918d;}.cls-19{fill:#93765f;}.cls-20{opacity:0.5;}.cls-21{fill:#ffc661;}.cls-22{fill:#89dbba;}.cls-24{fill:#ffd599;}.cls-25{fill:#ced8ee;}.cls-26{fill:#ff8acc;}.cls-27{fill:#ffd1e3;}</style><clipPath id="clip-path"><path class="cls-1" d="M116,48a39,39,0,1,0-77-12.09A20.62,20.62,0,0,1,23.54,52.71a30.75,30.75,0,0,0,14.29,59.81c12.7-2.8,26-.68,36.71,6.72a33.75,33.75,0,0,0,47.07-46.8A33.63,33.63,0,0,1,116,48Z"/></clipPath></defs><title/><g class="cls-2"><path class="cls-3" d="M116,48a39,39,0,1,0-77-12.09A20.62,20.62,0,0,1,23.54,52.71a30.75,30.75,0,1,0,22,57c7.61-4,17-2.68,22.64,3.84A33.75,33.75,0,0,0,121.6,72.44,33.63,33.63,0,0,1,116,48Z"/><g class="cls-4"><rect class="cls-5" height="10" width="126" x="1" y="118.02"/><rect class="cls-6" height="10" width="126" x="1" y="108.01"/><rect class="cls-7" height="20" width="126" x="1" y="88.01"/><rect class="cls-8" height="10" width="126" x="1" y="98.01"/><path class="cls-9" d="M26,96.14a3.1,3.1,0,0,1-2.21-.91,1.12,1.12,0,0,0-1.59,0,3.2,3.2,0,0,1-4.41,0,1.12,1.12,0,0,0-1.59,0,1,1,0,0,1-1.41-1.41,3.13,3.13,0,0,1,4.41,0,1.15,1.15,0,0,0,1.59,0,3.13,3.13,0,0,1,4.41,0,1.15,1.15,0,0,0,1.59,0,3.13,3.13,0,0,1,4.41,0,1,1,0,1,1-1.41,1.42,1.12,1.12,0,0,0-1.59,0A3.1,3.1,0,0,1,26,96.14Z"/><path class="cls-9" d="M67,96.14a3.1,3.1,0,0,1-2.21-.91,1.12,1.12,0,0,0-1.59,0,3.2,3.2,0,0,1-4.41,0,1.12,1.12,0,0,0-1.59,0,1,1,0,0,1-1.41-1.41,3.13,3.13,0,0,1,4.41,0,1.15,1.15,0,0,0,1.59,0,3.13,3.13,0,0,1,4.41,0,1.15,1.15,0,0,0,1.59,0,3.13,3.13,0,0,1,4.41,0,1,1,0,0,1-1.41,1.41,1.12,1.12,0,0,0-1.59,0A3.1,3.1,0,0,1,67,96.14Z"/><path class="cls-9" d="M16,103.14a3.11,3.11,0,0,1-2.21-.91,1.15,1.15,0,0,0-1.59,0,3.12,3.12,0,0,1-4.41,0,1,1,0,1,1,1.41-1.41,1.12,1.12,0,0,0,1.59,0,3.2,3.2,0,0,1,4.41,0,1.12,1.12,0,0,0,1.59,0,1,1,0,0,1,1.41,1.41A3.11,3.11,0,0,1,16,103.14Z"/><path class="cls-9" d="M115,96.14a3.1,3.1,0,0,1-2.21-.91,1.12,1.12,0,0,0-1.59,0,3.2,3.2,0,0,1-4.41,0,1,1,0,1,1,1.41-1.41,1.15,1.15,0,0,0,1.59,0,3.13,3.13,0,0,1,4.41,0,1.15,1.15,0,0,0,1.59,0,1,1,0,1,1,1.41,1.41A3.1,3.1,0,0,1,115,96.14Z"/><path class="cls-9" d="M87,104.14a3.1,3.1,0,0,1-2.21-.91,1.15,1.15,0,0,0-1.59,0,3.2,3.2,0,0,1-4.41,0,1,1,0,0,1,1.41-1.42,1.15,1.15,0,0,0,1.59,0,3.2,3.2,0,0,1,4.41,0,1.15,1.15,0,0,0,1.59,0,1,1,0,1,1,1.41,1.41A3.1,3.1,0,0,1,87,104.14Z"/><path class="cls-9" d="M117,104.14a3.1,3.1,0,0,1-2.21-.91,1.15,1.15,0,0,0-1.59,0,3.2,3.2,0,0,1-4.41,0,1.15,1.15,0,0,0-1.59,0,3.2,3.2,0,0,1-4.41,0,1.15,1.15,0,0,0-1.59,0,1,1,0,1,1-1.41-1.41,3.2,3.2,0,0,1,4.41,0,1.15,1.15,0,0,0,1.59,0,3.2,3.2,0,0,1,4.41,0,1.15,1.15,0,0,0,1.59,0,3.2,3.2,0,0,1,4.41,0,1.15,1.15,0,0,0,1.59,0,3.2,3.2,0,0,1,4.41,0,1,1,0,1,1-1.41,1.41,1.15,1.15,0,0,0-1.59,0A3.1,3.1,0,0,1,117,104.14Z"/><path class="cls-9" d="M47,104.14a3.1,3.1,0,0,1-2.21-.91,1.15,1.15,0,0,0-1.59,0,3.2,3.2,0,0,1-4.41,0,1.15,1.15,0,0,0-1.59,0,3.2,3.2,0,0,1-4.41,0,1.15,1.15,0,0,0-1.59,0,1,1,0,1,1-1.41-1.41,3.2,3.2,0,0,1,4.41,0,1.15,1.15,0,0,0,1.59,0,3.2,3.2,0,0,1,4.41,0,1.15,1.15,0,0,0,1.59,0,3.2,3.2,0,0,1,4.41,0,1.15,1.15,0,0,0,1.59,0,3.2,3.2,0,0,1,4.41,0,1,1,0,0,1-1.41,1.42,1.15,1.15,0,0,0-1.59,0A3.1,3.1,0,0,1,47,104.14Z"/><path class="cls-10" d="M127,89H1a1,1,0,0,1,0-2H127a1,1,0,0,1,0,2Z"/><path class="cls-10" d="M127,109H1a1,1,0,0,1,0-2H127a1,1,0,0,1,0,2Z"/><path class="cls-11" d="M97.72,26.06a3.44,3.44,0,0,0-1.12,3.41,6.09,6.09,0,0,0,1.12,3,3.44,3.44,0,0,0-1.12,3.41,6.09,6.09,0,0,0,1.12,3,3.44,3.44,0,0,0-1.12,3.41,6.09,6.09,0,0,0,1.12,3,3.44,3.44,0,0,0-1.12,3.41,6.09,6.09,0,0,0,1.12,3A3.44,3.44,0,0,0,96.6,55a6.09,6.09,0,0,0,1.12,3,3.44,3.44,0,0,0-1.12,3.41,6.09,6.09,0,0,0,1.12,3,3.44,3.44,0,0,0-1.12,3.41,6.09,6.09,0,0,0,1.12,3,3.44,3.44,0,0,0-1.12,3.41,6.09,6.09,0,0,0,1.12,3,3.44,3.44,0,0,0-1.12,3.41,6.09,6.09,0,0,0,1.12,3,3.12,3.12,0,0,0-1.17,2.57c0,.06,0,.11,0,.17a5.31,5.31,0,0,0,0,.55c0,.06,0,.11,0,.17a6.09,6.09,0,0,0,1.12,3,3.44,3.44,0,0,0-1.12,3.41,6.09,6.09,0,0,0,1.12,3,3.44,3.44,0,0,0-1.12,3.41,6.09,6.09,0,0,0,1.12,3,3.44,3.44,0,0,0-1.12,3.41,6.09,6.09,0,0,0,1.12,3,3.44,3.44,0,0,0-1.12,3.41,6.09,6.09,0,0,0,1.12,3,3.44,3.44,0,0,0-1.12,3.41,7.46,7.46,0,0,0,.6,2.11h5.69a7.46,7.46,0,0,0,.6-2.11,3.44,3.44,0,0,0-1.12-3.41,6.09,6.09,0,0,0,1.12-3,3.44,3.44,0,0,0-1.12-3.41,6.09,6.09,0,0,0,1.12-3,3.44,3.44,0,0,0-1.12-3.41,6.09,6.09,0,0,0,1.12-3,3.44,3.44,0,0,0-1.12-3.41,6.09,6.09,0,0,0,1.12-3A3.44,3.44,0,0,0,102.37,90a6.09,6.09,0,0,0,1.12-3c0-.06,0-.11,0-.17a5.31,5.31,0,0,0,0-.55c0-.06,0-.11,0-.17a3.12,3.12,0,0,0-1.17-2.57,6.09,6.09,0,0,0,1.12-3,3.44,3.44,0,0,0-1.12-3.41,6.09,6.09,0,0,0,1.12-3,3.44,3.44,0,0,0-1.12-3.41,6.09,6.09,0,0,0,1.12-3,3.44,3.44,0,0,0-1.12-3.41,6.09,6.09,0,0,0,1.12-3A3.44,3.44,0,0,0,102.37,58a6.09,6.09,0,0,0,1.12-3,3.44,3.44,0,0,0-1.12-3.41,6.09,6.09,0,0,0,1.12-3,3.44,3.44,0,0,0-1.12-3.41,6.09,6.09,0,0,0,1.12-3,3.44,3.44,0,0,0-1.12-3.41,6.09,6.09,0,0,0,1.12-3,3.44,3.44,0,0,0-1.12-3.41,6.09,6.09,0,0,0,1.12-3,3.44,3.44,0,0,0-1.12-3.41,6.09,6.09,0,0,0,1.12-3c.32-2.2-.68-4.06-3.42-4.06h0c-2.74,0-3.74,1.86-3.42,4.06A6.09,6.09,0,0,0,97.72,26.06Z"/><path class="cls-10" d="M102.89,122H97.2a1,1,0,0,1-.91-.58,8.49,8.49,0,0,1-.68-2.39,4.74,4.74,0,0,1,.83-3.69,8.14,8.14,0,0,1-.82-2.7,4.74,4.74,0,0,1,.82-3.69,8.13,8.13,0,0,1-.82-2.7,4.74,4.74,0,0,1,.82-3.69,8.13,8.13,0,0,1-.82-2.7,4.74,4.74,0,0,1,.82-3.69,8.14,8.14,0,0,1-.82-2.7,4.74,4.74,0,0,1,.82-3.69,8.13,8.13,0,0,1-.82-2.7s0-.17,0-.2c0-.2,0-.42,0-.63v-.21a4.39,4.39,0,0,1,.89-2.69,8.13,8.13,0,0,1-.82-2.7A4.74,4.74,0,0,1,96.44,77a8.13,8.13,0,0,1-.82-2.7,4.74,4.74,0,0,1,.82-3.69,8.13,8.13,0,0,1-.82-2.7,4.74,4.74,0,0,1,.82-3.69,8.13,8.13,0,0,1-.82-2.7,4.74,4.74,0,0,1,.82-3.69,8.14,8.14,0,0,1-.82-2.7,4.74,4.74,0,0,1,.82-3.69,8.14,8.14,0,0,1-.82-2.7,4.74,4.74,0,0,1,.82-3.69,8.13,8.13,0,0,1-.82-2.7,4.74,4.74,0,0,1,.82-3.69,8.13,8.13,0,0,1-.82-2.7,4.74,4.74,0,0,1,.82-3.69,8.14,8.14,0,0,1-.82-2.7,4.74,4.74,0,0,1,.82-3.69,8.13,8.13,0,0,1-.82-2.7,4.69,4.69,0,0,1,.92-3.81A4.38,4.38,0,0,1,100,18h0a4.38,4.38,0,0,1,3.49,1.4,4.69,4.69,0,0,1,.92,3.81,8.15,8.15,0,0,1-.82,2.7,4.74,4.74,0,0,1,.82,3.69,8.15,8.15,0,0,1-.82,2.7,4.75,4.75,0,0,1,.82,3.69,8.15,8.15,0,0,1-.82,2.7,4.75,4.75,0,0,1,.82,3.69,8.15,8.15,0,0,1-.82,2.7,4.74,4.74,0,0,1,.82,3.69,8.12,8.12,0,0,1-.82,2.7,4.74,4.74,0,0,1,.82,3.69,8.15,8.15,0,0,1-.82,2.7,4.75,4.75,0,0,1,.82,3.69,8.13,8.13,0,0,1-.82,2.7,4.74,4.74,0,0,1,.82,3.69,8.15,8.15,0,0,1-.82,2.7,4.74,4.74,0,0,1,.82,3.69,8.15,8.15,0,0,1-.82,2.7,4.75,4.75,0,0,1,.82,3.69,8.13,8.13,0,0,1-.82,2.7,4.39,4.39,0,0,1,.89,2.69v.2a6.06,6.06,0,0,1,0,.65,1.36,1.36,0,0,1,0,.19,8.12,8.12,0,0,1-.82,2.69,4.74,4.74,0,0,1,.82,3.69,8.15,8.15,0,0,1-.82,2.7,4.75,4.75,0,0,1,.82,3.69,8.15,8.15,0,0,1-.82,2.7,4.75,4.75,0,0,1,.82,3.69,8.12,8.12,0,0,1-.82,2.7,4.74,4.74,0,0,1,.82,3.69,8.12,8.12,0,0,1-.82,2.7,4.74,4.74,0,0,1,.82,3.69,8.46,8.46,0,0,1-.68,2.39A1,1,0,0,1,102.89,122Zm-5-2h4.33a7.13,7.13,0,0,0,.29-1.25,2.57,2.57,0,0,0-.72-2.46,1,1,0,0,1-.18-1.43,5.15,5.15,0,0,0,.91-2.49,2.57,2.57,0,0,0-.72-2.46,1,1,0,0,1-.18-1.43,5.15,5.15,0,0,0,.91-2.49,2.57,2.57,0,0,0-.73-2.46,1,1,0,0,1-.18-1.43,5.15,5.15,0,0,0,.91-2.49,2.57,2.57,0,0,0-.72-2.46,1,1,0,0,1-.18-1.43,5.15,5.15,0,0,0,.91-2.49,2.57,2.57,0,0,0-.72-2.46,1,1,0,0,1-.18-1.43,5.15,5.15,0,0,0,.91-2.49v-.13a4.07,4.07,0,0,0,0-.46v-.13a2.2,2.2,0,0,0-.77-1.79,1,1,0,0,1-.18-1.43,5.15,5.15,0,0,0,.91-2.49,2.57,2.57,0,0,0-.72-2.46,1,1,0,0,1-.18-1.43A5.15,5.15,0,0,0,102.5,74a2.57,2.57,0,0,0-.72-2.46,1,1,0,0,1-.18-1.43,5.15,5.15,0,0,0,.91-2.49,2.57,2.57,0,0,0-.72-2.46,1,1,0,0,1-.18-1.43,5.15,5.15,0,0,0,.91-2.49,2.57,2.57,0,0,0-.72-2.46,1,1,0,0,1-.18-1.43,5.15,5.15,0,0,0,.91-2.49,2.57,2.57,0,0,0-.73-2.46,1,1,0,0,1-.18-1.43,5.15,5.15,0,0,0,.91-2.49,2.57,2.57,0,0,0-.72-2.46,1,1,0,0,1-.18-1.43,5.15,5.15,0,0,0,.91-2.49,2.57,2.57,0,0,0-.73-2.46,1,1,0,0,1-.18-1.43,5.15,5.15,0,0,0,.91-2.49,2.57,2.57,0,0,0-.72-2.46,1,1,0,0,1-.18-1.43,5.15,5.15,0,0,0,.91-2.49,2.57,2.57,0,0,0-.72-2.46,1,1,0,0,1-.18-1.43,5.15,5.15,0,0,0,.91-2.49,2.76,2.76,0,0,0-.45-2.21A2.48,2.48,0,0,0,100.1,20H100a2.48,2.48,0,0,0-1.94.71,2.75,2.75,0,0,0-.45,2.21,5.15,5.15,0,0,0,.91,2.49,1,1,0,0,1-.18,1.43,2.57,2.57,0,0,0-.72,2.46,5.16,5.16,0,0,0,.91,2.49,1,1,0,0,1-.18,1.43,2.57,2.57,0,0,0-.72,2.46,5.16,5.16,0,0,0,.91,2.49,1,1,0,0,1-.18,1.43,2.57,2.57,0,0,0-.73,2.46,5.16,5.16,0,0,0,.91,2.49A1,1,0,0,1,98.32,46a2.57,2.57,0,0,0-.72,2.46A5.15,5.15,0,0,0,98.5,51a1,1,0,0,1-.18,1.43,2.57,2.57,0,0,0-.73,2.46,5.16,5.16,0,0,0,.91,2.49,1,1,0,0,1-.18,1.43,2.57,2.57,0,0,0-.72,2.46,5.16,5.16,0,0,0,.91,2.49,1,1,0,0,1-.18,1.43,2.57,2.57,0,0,0-.72,2.46,5.15,5.15,0,0,0,.91,2.49,1,1,0,0,1-.18,1.43A2.57,2.57,0,0,0,97.59,74a5.16,5.16,0,0,0,.91,2.49,1,1,0,0,1-.18,1.43,2.57,2.57,0,0,0-.72,2.46,5.16,5.16,0,0,0,.91,2.49,1,1,0,0,1-.18,1.43,2.2,2.2,0,0,0-.77,1.78v.13a4.06,4.06,0,0,0,0,.44s0,.13,0,.16a5.13,5.13,0,0,0,.9,2.48,1,1,0,0,1-.18,1.43,2.57,2.57,0,0,0-.72,2.46,5.16,5.16,0,0,0,.91,2.49,1,1,0,0,1-.18,1.43,2.57,2.57,0,0,0-.72,2.46,5.16,5.16,0,0,0,.91,2.49,1,1,0,0,1-.18,1.43,2.57,2.57,0,0,0-.73,2.46,5.16,5.16,0,0,0,.91,2.49,1,1,0,0,1-.18,1.43,2.57,2.57,0,0,0-.72,2.46,5.15,5.15,0,0,0,.91,2.49,1,1,0,0,1-.18,1.43,2.57,2.57,0,0,0-.73,2.46A7.22,7.22,0,0,0,97.88,120Z"/><path class="cls-10" d="M104.89,122H95.2a1,1,0,0,1,0-2h9.69a1,1,0,0,1,0,2Z"/><path class="cls-11" d="M25.71,58.06a3.44,3.44,0,0,0-1.12,3.41,6.09,6.09,0,0,0,1.12,3,3.44,3.44,0,0,0-1.12,3.41,6.09,6.09,0,0,0,1.12,3,3.44,3.44,0,0,0-1.12,3.41,6.09,6.09,0,0,0,1.12,3,3.44,3.44,0,0,0-1.12,3.41,6.09,6.09,0,0,0,1.12,3A3.44,3.44,0,0,0,24.6,87a6.09,6.09,0,0,0,1.12,3A3.44,3.44,0,0,0,24.6,93.4a6.09,6.09,0,0,0,1.12,3,3.44,3.44,0,0,0-1.12,3.41,6.09,6.09,0,0,0,1.12,3,3.44,3.44,0,0,0-1.12,3.41,6.09,6.09,0,0,0,1.12,3,3.44,3.44,0,0,0-1.12,3.41,6.91,6.91,0,0,0,.78,2.48H30.7a6.91,6.91,0,0,0,.78-2.48,3.44,3.44,0,0,0-1.12-3.41,6.09,6.09,0,0,0,1.12-3,3.44,3.44,0,0,0-1.12-3.41,6.09,6.09,0,0,0,1.12-3,3.44,3.44,0,0,0-1.12-3.41,6.09,6.09,0,0,0,1.12-3A3.44,3.44,0,0,0,30.36,90a6.09,6.09,0,0,0,1.12-3,3.44,3.44,0,0,0-1.12-3.41,6.09,6.09,0,0,0,1.12-3,3.44,3.44,0,0,0-1.12-3.41,6.09,6.09,0,0,0,1.12-3,3.44,3.44,0,0,0-1.12-3.41,6.09,6.09,0,0,0,1.12-3,3.44,3.44,0,0,0-1.12-3.41,6.09,6.09,0,0,0,1.12-3,3.44,3.44,0,0,0-1.12-3.41,6.09,6.09,0,0,0,1.12-3c.32-2.2-.68-4.06-3.42-4.06h0c-2.74,0-3.74,1.86-3.42,4.06A6.09,6.09,0,0,0,25.71,58.06Z"/><path class="cls-10" d="M30.7,116H25.38a1,1,0,0,1-.87-.5,7.92,7.92,0,0,1-.91-2.84,4.74,4.74,0,0,1,.82-3.69,8.16,8.16,0,0,1-.82-2.7,4.74,4.74,0,0,1,.82-3.69,8.16,8.16,0,0,1-.82-2.7,4.74,4.74,0,0,1,.82-3.69,8.16,8.16,0,0,1-.82-2.7,4.74,4.74,0,0,1,.82-3.69,8.17,8.17,0,0,1-.82-2.7,4.74,4.74,0,0,1,.82-3.69,8.17,8.17,0,0,1-.82-2.7,4.74,4.74,0,0,1,.82-3.69,8.16,8.16,0,0,1-.82-2.7,4.74,4.74,0,0,1,.82-3.69,8.16,8.16,0,0,1-.82-2.7,4.74,4.74,0,0,1,.82-3.69,8.17,8.17,0,0,1-.82-2.7,4.74,4.74,0,0,1,.82-3.69,8.16,8.16,0,0,1-.82-2.7,4.69,4.69,0,0,1,.92-3.81A4.39,4.39,0,0,1,28,50h0a4.38,4.38,0,0,1,3.49,1.4,4.69,4.69,0,0,1,.92,3.81,8.13,8.13,0,0,1-.82,2.7,4.74,4.74,0,0,1,.82,3.69,8.13,8.13,0,0,1-.82,2.7A4.74,4.74,0,0,1,32.47,68a8.13,8.13,0,0,1-.82,2.7,4.74,4.74,0,0,1,.82,3.69,8.13,8.13,0,0,1-.82,2.7,4.74,4.74,0,0,1,.82,3.69,8.14,8.14,0,0,1-.82,2.7,4.74,4.74,0,0,1,.82,3.69,8.13,8.13,0,0,1-.82,2.7,4.74,4.74,0,0,1,.82,3.69,8.13,8.13,0,0,1-.82,2.7,4.74,4.74,0,0,1,.82,3.69,8.13,8.13,0,0,1-.82,2.7,4.74,4.74,0,0,1,.82,3.69,8.13,8.13,0,0,1-.82,2.7,4.74,4.74,0,0,1,.82,3.69,7.92,7.92,0,0,1-.91,2.84A1,1,0,0,1,30.7,116ZM26,114h4.07a6.92,6.92,0,0,0,.42-1.62,2.57,2.57,0,0,0-.72-2.46,1,1,0,0,1-.18-1.43,5.15,5.15,0,0,0,.91-2.49,2.57,2.57,0,0,0-.72-2.46,1,1,0,0,1-.18-1.43,5.16,5.16,0,0,0,.91-2.49,2.57,2.57,0,0,0-.72-2.46,1,1,0,0,1-.18-1.43,5.15,5.15,0,0,0,.91-2.49,2.57,2.57,0,0,0-.72-2.46,1,1,0,0,1-.18-1.43,5.16,5.16,0,0,0,.91-2.49,2.57,2.57,0,0,0-.72-2.46A1,1,0,0,1,29.59,83a5.16,5.16,0,0,0,.91-2.49A2.57,2.57,0,0,0,29.77,78a1,1,0,0,1-.18-1.43,5.16,5.16,0,0,0,.91-2.49,2.57,2.57,0,0,0-.72-2.46,1,1,0,0,1-.18-1.43,5.15,5.15,0,0,0,.91-2.49,2.57,2.57,0,0,0-.72-2.46,1,1,0,0,1-.18-1.43,5.15,5.15,0,0,0,.91-2.49,2.57,2.57,0,0,0-.72-2.46,1,1,0,0,1-.18-1.43,5.16,5.16,0,0,0,.91-2.49A2.75,2.75,0,0,0,30,52.73a2.5,2.5,0,0,0-2-.71h-.14a2.44,2.44,0,0,0-1.89.71,2.76,2.76,0,0,0-.45,2.21,5.16,5.16,0,0,0,.91,2.49,1,1,0,0,1-.18,1.43,2.57,2.57,0,0,0-.73,2.46,5.15,5.15,0,0,0,.91,2.49,1,1,0,0,1-.18,1.43,2.57,2.57,0,0,0-.73,2.46,5.16,5.16,0,0,0,.91,2.49,1,1,0,0,1-.18,1.43,2.57,2.57,0,0,0-.73,2.46,5.16,5.16,0,0,0,.91,2.49A1,1,0,0,1,26.31,78a2.57,2.57,0,0,0-.73,2.46A5.15,5.15,0,0,0,26.49,83a1,1,0,0,1-.18,1.43,2.57,2.57,0,0,0-.73,2.46,5.16,5.16,0,0,0,.91,2.49,1,1,0,0,1-.18,1.43,2.57,2.57,0,0,0-.73,2.46,5.16,5.16,0,0,0,.91,2.49,1,1,0,0,1-.18,1.43,2.57,2.57,0,0,0-.73,2.46,5.16,5.16,0,0,0,.91,2.49,1,1,0,0,1-.18,1.43,2.57,2.57,0,0,0-.73,2.46,5.15,5.15,0,0,0,.91,2.49,1,1,0,0,1-.18,1.43,2.57,2.57,0,0,0-.73,2.46A6.92,6.92,0,0,0,26,114Z"/><path class="cls-10" d="M32.7,116H23.38a1,1,0,1,1,0-2H32.7a1,1,0,1,1,0,2Z"/><path class="cls-9" d="M60,50a1,1,0,0,1-1-1,1,1,0,0,1,.3-.71,1,1,0,0,1,.32-.21.94.94,0,0,1,.77,0,1,1,0,0,1,.32.21,1,1,0,0,1,0,1.42A1,1,0,0,1,60,50Z"/><path class="cls-9" d="M88,46H74a1,1,0,0,1,0-2H88a1,1,0,0,1,0,2Z"/><path class="cls-9" d="M79,50H64a1,1,0,0,1,0-2H79a1,1,0,0,1,0,2Z"/><path class="cls-9" d="M86,54H66a1,1,0,0,1,0-2H86a1,1,0,0,1,0,2Z"/><path class="cls-9" d="M78,58H70a1,1,0,0,1,0-2h8a1,1,0,0,1,0,2Z"/><path class="cls-9" d="M111,66a1,1,0,0,1-.71-.29,1,1,0,0,1-.22-.33A1,1,0,0,1,110,65a.6.6,0,0,1,0-.19,1,1,0,0,1,0-.19.9.9,0,0,1,.1-.17.62.62,0,0,1,.12-.16.93.93,0,0,1,.33-.21,1,1,0,0,1,.76,0,1,1,0,0,1,.32.21,1,1,0,0,1,.13.16.86.86,0,0,1,.09.17.62.62,0,0,1,.06.19,1.25,1.25,0,0,1,0,.19,1,1,0,0,1-.3.71A1,1,0,0,1,111,66Z"/><path class="cls-9" d="M123,70h-6a1,1,0,0,1,0-2h6a1,1,0,0,1,0,2Z"/><path class="cls-9" d="M124,66h-9a1,1,0,0,1,0-2h9a1,1,0,0,1,0,2Z"/><path class="cls-9" d="M113,70h-4a1,1,0,0,1,0-2h4a1,1,0,0,1,0,2Z"/></g><path class="cls-12" d="M36.29,35.9a55.2,55.2,0,0,0-8.27.82,55.2,55.2,0,0,0-8.27-.82c-9.16-.25-16.65,1.53-16.73,4s7.29,4.61,16.45,4.86a54.77,54.77,0,0,0,8.55-.4,54.77,54.77,0,0,0,8.55.4C45.73,44.48,53.1,42.3,53,39.86S45.46,35.65,36.29,35.9Z"/><g class="cls-2"><path class="cls-13" d="M51.21,37.95c-2.72,1.49-8.24,2.6-14.64,2.77a54.77,54.77,0,0,1-8.55-.4,54.77,54.77,0,0,1-8.55.4c-6.4-.17-11.92-1.29-14.64-2.77C3.7,38.51,3,39.16,3,39.86c-.08,2.44,7.29,4.61,16.45,4.86a54.78,54.78,0,0,0,8.55-.4,54.78,54.78,0,0,0,8.55.4C45.73,44.48,53.1,42.3,53,39.86,53,39.16,52.34,38.51,51.21,37.95Z"/></g><path class="cls-10" d="M34.92,45.74a54.45,54.45,0,0,1-6.9-.42,55.88,55.88,0,0,1-8.57.39c-7.88-.21-14.56-1.83-16.63-4A2.58,2.58,0,0,1,2,39.83c.12-3.72,9.29-5.16,17.75-4.94a56.92,56.92,0,0,1,8.25.8,56.92,56.92,0,0,1,8.25-.8h0c8.45-.23,17.64,1.22,17.75,4.94a2.58,2.58,0,0,1-.79,1.87c-2.07,2.19-8.75,3.81-16.63,4ZM28,43.32h.13a53.94,53.94,0,0,0,8.39.4c8.1-.22,13.8-1.87,15.23-3.39A.74.74,0,0,0,52,39.9c0-1.2-6-3.26-15.7-3l0-1,0,1a54.59,54.59,0,0,0-8.12.8,1,1,0,0,1-.36,0,54.59,54.59,0,0,0-8.12-.8C10,36.64,4.06,38.69,4,39.9a.74.74,0,0,0,.25.44c1.44,1.52,7.13,3.17,15.23,3.39a53.79,53.79,0,0,0,8.39-.4Z"/><path class="cls-12" d="M43.69,44.4c-6.77-5.9-13.79-9-15.66-7h0c-1.88-2-8.89,1.13-15.66,7S1.61,56.71,3.49,58.73s8.89-1.13,15.66-7c4.48-3.91,7.73-8,8.87-11,1.14,2.93,4.39,7.06,8.87,11,6.77,5.9,13.79,9,15.66,7S50.46,50.3,43.69,44.4Z"/><g class="cls-2"><path class="cls-13" d="M36.89,47.7c-4.26-3.71-7.37-7.6-8.66-10.49a1.61,1.61,0,0,0-.21.16h0a1.61,1.61,0,0,0-.21-.16C26.52,40.1,23.41,44,19.15,47.7c-6.58,5.73-13.37,8.85-15.47,7.18-.78,1.73-.89,3.1-.19,3.85,1.88,2,8.89-1.13,15.66-7,4.48-3.91,7.73-8,8.87-11,1.14,2.93,4.39,7.06,8.87,11,6.77,5.9,13.79,9,15.66,7,.7-.75.58-2.12-.19-3.85C50.26,56.55,43.47,53.43,36.89,47.7Z"/></g><path class="cls-10" d="M50.8,60.34c-3.63,0-9.54-3.51-14.57-7.88A39.65,39.65,0,0,1,28,43a39.64,39.64,0,0,1-8.21,9.44c-6.46,5.62-14.39,9.82-17.05,7A3,3,0,0,1,2,57.14c.17-3.23,4-8.53,9.67-13.49C17.65,38.47,24.84,34.5,28,36.14c3.18-1.64,10.38,2.33,16.32,7.51,5.71,5,9.5,10.27,9.67,13.49a3,3,0,0,1-.73,2.27A3.25,3.25,0,0,1,50.8,60.34ZM28,39.74a1,1,0,0,1,.93.64c1.13,2.88,4.42,6.94,8.6,10.57,7,6.13,13.16,8.3,14.27,7.1a1.09,1.09,0,0,0,.19-.81c-.12-2.22-3.24-7.09-9-12.09C36,39,29.9,36.86,28.76,38a1,1,0,0,1-1.48,0h0c-1.11-1.2-7.23,1-14.27,7.1-5.75,5-8.87,9.87-9,12.09a1.09,1.09,0,0,0,.19.81c1.11,1.2,7.23-1,14.28-7.1,4.18-3.64,7.47-7.69,8.6-10.57A1,1,0,0,1,28,39.74Z"/><path class="cls-12" d="M37.16,49.2c-2.1-5.21-4.76-9.42-7-11.48-1.53-1.28-2.81-1.28-4.26,0-2.26,2.06-4.91,6.28-7,11.49-3.23,8.07-3.9,15.44-1.5,16.46s7-4.68,10.22-12.75c.15-.37.29-.74.42-1.11.14.37.28.74.43,1.11C31.69,61,36.27,66.68,38.68,65.65S40.4,57.26,37.16,49.2Z"/><g class="cls-2"><path class="cls-13" d="M38.68,61.65c-2.41,1-7-4.67-10.24-12.73-.15-.37-.29-.74-.43-1.11-.14.37-.28.74-.42,1.11C24.35,57,19.78,62.7,17.37,61.67a2.74,2.74,0,0,1-1.3-2.21c-.39,3.3,0,5.66,1.3,6.21,2.41,1,7-4.68,10.22-12.75.15-.37.29-.74.42-1.11.14.37.28.74.43,1.11C31.69,61,36.27,66.68,38.68,65.65c1.28-.55,1.68-2.9,1.29-6.19A2.72,2.72,0,0,1,38.68,61.65Z"/></g><path class="cls-10" d="M18,66.79a2.52,2.52,0,0,1-1-.2c-3.46-1.47-2.13-10,1-17.75C20,43.66,22.73,39.23,25.2,37c1.83-1.62,3.65-1.63,5.57,0,2.5,2.27,5.23,6.7,7.31,11.87,3.1,7.7,4.44,16.27,1,17.75a2.88,2.88,0,0,1-2.28-.07c-2.71-1.12-6.09-5.77-8.77-12-2.67,6.23-6,10.88-8.75,12A3.35,3.35,0,0,1,18,66.79Zm10-29a2.26,2.26,0,0,0-1.45.71c-2.21,2-4.8,6.28-6.74,11.12-3.61,9-3.24,14.65-2,15.17a1,1,0,0,0,.73-.09c2-.82,5.41-5.24,8.17-12.11.14-.36.28-.73.42-1.09a1,1,0,0,1,.94-.65h0a1,1,0,0,1,.94.65c.14.38.28.73.42,1.09,2.77,6.87,6.21,11.28,8.18,12.1a1,1,0,0,0,.73.08c1.21-.52,1.56-6.18-2.06-15.16-1.95-4.84-4.54-9.09-6.77-11.11A2.4,2.4,0,0,0,28,37.75Z"/><path class="cls-14" d="M9.08,58.36a8.62,8.62,0,0,0-1-3.21m6.31.27A9.47,9.47,0,0,0,12.74,51m5.92-1.23a6.58,6.58,0,0,0-1.1-3.81m3.57,18A6.61,6.61,0,0,0,19,60.78m5.42-1.44A10.32,10.32,0,0,0,21.77,55m5.58-1.49A10.58,10.58,0,0,0,24.52,49m-16-8.91A4.82,4.82,0,0,0,7,42.88m6.86-2.8a8.22,8.22,0,0,0-1.7,4M48,55.15a8.62,8.62,0,0,0-1,3.21M43.3,51a9.47,9.47,0,0,0-1.6,4.45m-3.22-9.5a6.58,6.58,0,0,0-1.1,3.81M37,60.78a6.61,6.61,0,0,0-2.09,3.11M34.27,55a10.32,10.32,0,0,0-2.69,4.34M31.53,49a10.58,10.58,0,0,0-2.84,4.52M49,42.88a4.82,4.82,0,0,0-1.46-2.8m-3.7,4a8.22,8.22,0,0,0-1.7-4M28,44.09v7.73"/><path class="cls-15" d="M65.08,19.21C65.36,13.94,61.33,8.62,53,10.1A12.25,12.25,0,0,0,36.85,6.71,12.23,12.23,0,0,0,24.5,9.4c-8.05-2.77-13.27,2.37-13.67,7.69-.42,5.57,3.23,8.29,5.78,8.59a5,5,0,0,0,3.19-.52,4.47,4.47,0,0,0,5.74,1.93c2.83,3.44,9.69,3.95,13,1.29a6.58,6.58,0,0,0,7.59.22,7.49,7.49,0,0,0,2.55-1.26c2.1,1.91,7.4,2.06,9.14-1.64C61.9,27.09,64.84,23.66,65.08,19.21Z"/><path class="cls-9" d="M24.5,13.4a12.23,12.23,0,0,1,12.36-2.69A12.25,12.25,0,0,1,53,14.1c7-1.25,11,2.34,11.87,6.65a10.29,10.29,0,0,0,.2-1.54C65.36,13.94,61.33,8.62,53,10.1A12.25,12.25,0,0,0,36.85,6.71,12.23,12.23,0,0,0,24.5,9.4c-8.05-2.77-13.27,2.37-13.67,7.69A10.22,10.22,0,0,0,11,20C12,15.07,17,10.83,24.5,13.4Z"/><g class="cls-2"><path class="cls-16" d="M57.86,21.69c-1.74,3.7-7,3.55-9.14,1.64a7.49,7.49,0,0,1-2.55,1.26,6.58,6.58,0,0,1-7.59-.22c-3.36,2.65-10.22,2.15-13-1.29a4.47,4.47,0,0,1-5.74-1.93,5,5,0,0,1-3.19.52A7,7,0,0,1,11,16a9,9,0,0,0-.17,1.13c-.42,5.57,3.23,8.29,5.78,8.59a5,5,0,0,0,3.19-.52,4.47,4.47,0,0,0,5.74,1.93c2.83,3.44,9.69,3.95,13,1.29a6.58,6.58,0,0,0,7.59.22,7.49,7.49,0,0,0,2.55-1.26c2.1,1.91,7.4,2.06,9.14-1.64,4,1.4,7-2,7.22-6.47a9.5,9.5,0,0,0-.2-2.46C64.12,20.4,61.42,22.92,57.86,21.69Z"/></g><path class="cls-10" d="M33,31.08a11.17,11.17,0,0,1-7.74-2.84,5.57,5.57,0,0,1-5.81-1.79,7,7,0,0,1-2.94.22c-3-.35-7.12-3.58-6.66-9.66A10.2,10.2,0,0,1,14.35,9.3a11.58,11.58,0,0,1,9.91-1A13.22,13.22,0,0,1,36.74,5.62,13.24,13.24,0,0,1,53.44,9c4.83-.7,7.8.86,9.45,2.32a9.77,9.77,0,0,1,3.18,7.92h0a8.63,8.63,0,0,1-3.34,6.79,5.52,5.52,0,0,1-4.38.8,6.23,6.23,0,0,1-4.1,2.64,7.78,7.78,0,0,1-5.55-.93,8.94,8.94,0,0,1-2.09.93,7.68,7.68,0,0,1-8.05.11A10.53,10.53,0,0,1,33,31.08Zm-7.44-5a1,1,0,0,1,.77.36C28.72,29.37,34.93,30,38,27.59a1,1,0,0,1,1.29,0,5.63,5.63,0,0,0,6.33.15,1,1,0,0,1,.31-.15,6.47,6.47,0,0,0,2.21-1.08,1,1,0,0,1,1.29,0,5.54,5.54,0,0,0,4.46.95A4.17,4.17,0,0,0,57,25.26a1,1,0,0,1,1.23-.52,3.69,3.69,0,0,0,3.43-.34,6.65,6.65,0,0,0,2.46-5.24h0a7.78,7.78,0,0,0-2.51-6.32c-2-1.77-4.9-2.37-8.39-1.75a1,1,0,0,1-1-.4,11.31,11.31,0,0,0-8.07-4.63,11.19,11.19,0,0,0-6.77,1.51,1,1,0,0,1-.83.09,11.23,11.23,0,0,0-11.35,2.47,1,1,0,0,1-1,.22C20,8.89,17.1,9.88,15.45,11a8.19,8.19,0,0,0-3.63,6.19c-.36,4.75,2.65,7.26,4.9,7.52a3.87,3.87,0,0,0,2.49-.33,1,1,0,0,1,1.5.4,3.48,3.48,0,0,0,4.45,1.41A1,1,0,0,1,25.54,26.08Z"/><path class="cls-10" d="M34.68,10.47a1,1,0,0,1-.94-1.35,10,10,0,0,1,2.41-3.31A1,1,0,0,1,37.49,7.3a7.94,7.94,0,0,0-1.87,2.52A1,1,0,0,1,34.68,10.47Z"/><path class="cls-10" d="M22.36,13.31A1,1,0,0,1,21.42,12a10,10,0,0,1,2.41-3.31,1,1,0,0,1,1.34,1.49,8,8,0,0,0-1.87,2.52A1,1,0,0,1,22.36,13.31Z"/><path class="cls-10" d="M54.09,15H54a1,1,0,0,1-.88-1.11,5.86,5.86,0,0,0-.94-3.21,1,1,0,1,1,1.66-1.11,7.79,7.79,0,0,1,1.26,4.54A1,1,0,0,1,54.09,15Z"/><path class="cls-10" d="M57.47,27.38a1,1,0,0,1-.85-1.53c.56-.89,1.3-3,.11-4.59a1,1,0,0,1,1.6-1.2c1.84,2.46.86,5.46,0,6.85A1,1,0,0,1,57.47,27.38Z"/><path class="cls-10" d="M48.72,28.33a1,1,0,0,1-.65-1.76,2,2,0,0,0,.25-1.62,1,1,0,1,1,1.71-1,3.75,3.75,0,0,1-.65,4.17A1,1,0,0,1,48.72,28.33Z"/><path class="cls-10" d="M38.58,29.37a1,1,0,0,1-.65-1.76A3.09,3.09,0,0,0,39,25.46a1,1,0,0,1,1-1h0a1,1,0,0,1,1,1,5,5,0,0,1-1.8,3.64A1,1,0,0,1,38.58,29.37Z"/><path class="cls-10" d="M19.92,26.34a1,1,0,0,1-.87-.51A5.14,5.14,0,0,1,19,20.74a1,1,0,1,1,1.73,1,3.15,3.15,0,0,0,.07,3.1,1,1,0,0,1-.87,1.49Z"/><path class="cls-10" d="M25.57,28.06a1,1,0,0,1-.92-.58,1,1,0,0,1,.48-1.31l0,0A5.07,5.07,0,0,0,27,24.9a1,1,0,1,1,1.55,1.27A6.84,6.84,0,0,1,26,28,1,1,0,0,1,25.57,28.06Z"/><path class="cls-12" d="M108.3,2.89a55.2,55.2,0,0,0-8.27.82,55.2,55.2,0,0,0-8.27-.82c-9.16-.25-16.65,1.53-16.73,4s7.29,4.61,16.45,4.86a54.77,54.77,0,0,0,8.55-.4,54.77,54.77,0,0,0,8.55.4c9.16-.25,16.53-2.42,16.45-4.86S117.46,2.65,108.3,2.89Z"/><g class="cls-2"><path class="cls-13" d="M123.22,4.94c-2.72,1.49-8.24,2.6-14.64,2.77a54.77,54.77,0,0,1-8.55-.4,54.77,54.77,0,0,1-8.55.4c-6.4-.17-11.92-1.29-14.64-2.77-1.13.56-1.79,1.21-1.81,1.92C75,9.3,82.32,11.47,91.48,11.72a54.78,54.78,0,0,0,8.55-.4,54.78,54.78,0,0,0,8.55.4c9.16-.25,16.53-2.42,16.45-4.86C125,6.15,124.35,5.51,123.22,4.94Z"/></g><path class="cls-10" d="M106.93,12.74a54.5,54.5,0,0,1-6.9-.42,56.2,56.2,0,0,1-8.57.4c-7.88-.21-14.56-1.83-16.63-4A2.58,2.58,0,0,1,74,6.83c.12-3.72,9.29-5.17,17.75-4.94a56.88,56.88,0,0,1,8.25.8,56.86,56.86,0,0,1,8.25-.8c8.47-.23,17.64,1.22,17.75,4.94a2.58,2.58,0,0,1-.79,1.87c-2.07,2.19-8.75,3.81-16.63,4ZM100,10.31h.13a54.15,54.15,0,0,0,8.39.4c8.1-.22,13.8-1.87,15.23-3.39a.74.74,0,0,0,.25-.44c0-1.21-6-3.26-15.7-3h0a54.45,54.45,0,0,0-8.12.8,1,1,0,0,1-.36,0,54.49,54.49,0,0,0-8.12-.8c-9.67-.26-15.66,1.79-15.7,3a.75.75,0,0,0,.25.43c1.44,1.52,7.13,3.17,15.23,3.39a54.21,54.21,0,0,0,8.39-.4Zm8.27-7.42h0Z"/><path class="cls-12" d="M115.7,11.4c-6.77-5.9-13.79-9-15.66-7h0c-1.88-2-8.89,1.13-15.66,7S73.62,23.71,75.49,25.73s8.89-1.13,15.66-7c4.48-3.91,7.73-8,8.87-11,1.14,2.93,4.39,7.06,8.87,11,6.77,5.9,13.79,9,15.66,7S122.47,17.29,115.7,11.4Z"/><g class="cls-2"><path class="cls-13" d="M108.9,14.7c-4.26-3.71-7.37-7.6-8.66-10.49a1.61,1.61,0,0,0-.21.16h0a1.61,1.61,0,0,0-.21-.16C98.53,7.1,95.41,11,91.16,14.7c-6.58,5.73-13.37,8.85-15.47,7.18-.78,1.73-.89,3.1-.19,3.85,1.88,2,8.89-1.13,15.66-7,4.48-3.91,7.73-8,8.87-11,1.14,2.93,4.39,7.06,8.87,11,6.77,5.9,13.79,9,15.66,7,.7-.75.58-2.12-.19-3.85C122.27,23.54,115.48,20.42,108.9,14.7Z"/></g><path class="cls-10" d="M122.81,27.33c-3.63,0-9.54-3.51-14.57-7.88A39.64,39.64,0,0,1,100,10a39.65,39.65,0,0,1-8.22,9.44c-6.46,5.62-14.39,9.82-17.05,7A3,3,0,0,1,74,24.13c.17-3.23,4-8.53,9.67-13.49C89.65,5.47,96.83,1.51,100,3.13c3.15-1.66,10.37,2.32,16.33,7.51,5.71,5,9.5,10.26,9.67,13.49a3,3,0,0,1-.73,2.27A3.24,3.24,0,0,1,122.81,27.33ZM100,6.73h0a1,1,0,0,1,.93.64c1.13,2.88,4.42,6.93,8.6,10.57,7,6.13,13.16,8.3,14.27,7.1a1.09,1.09,0,0,0,.19-.81c-.12-2.22-3.24-7.09-9-12.09h0C108,6,101.93,3.86,100.78,5l0,0a1,1,0,0,1-1.15.19,1,1,0,0,1-.3-.23C98.14,3.86,92,6,85,12.15c-5.75,5-8.87,9.87-9,12.09a1.09,1.09,0,0,0,.19.81c1.11,1.2,7.23-1,14.27-7.1,4.18-3.64,7.47-7.69,8.6-10.57A1,1,0,0,1,100,6.73Z"/><path class="cls-12" d="M109.16,16.19c-2.1-5.21-4.76-9.42-7-11.48-1.53-1.28-2.81-1.28-4.26,0C95.62,6.78,93,11,90.87,16.21c-3.23,8.07-3.9,15.44-1.5,16.46s7-4.68,10.22-12.75c.15-.37.29-.74.42-1.11.14.37.28.74.43,1.11,3.25,8.06,7.83,13.76,10.24,12.73S112.41,24.25,109.16,16.19Z"/><g class="cls-2"><path class="cls-13" d="M110.69,28.65c-2.41,1-7-4.67-10.24-12.73-.15-.37-.29-.74-.43-1.11-.14.37-.28.74-.42,1.11C96.36,24,91.79,29.69,89.38,28.67a2.74,2.74,0,0,1-1.3-2.21c-.39,3.3,0,5.66,1.3,6.21,2.41,1,7-4.68,10.22-12.75.15-.37.29-.74.42-1.11.14.37.28.74.43,1.11,3.25,8.06,7.83,13.76,10.24,12.73,1.28-.55,1.68-2.9,1.29-6.19A2.72,2.72,0,0,1,110.69,28.65Z"/></g><path class="cls-10" d="M90,33.79a2.52,2.52,0,0,1-1-.2c-3.46-1.47-2.13-10,1-17.75C92,10.66,94.74,6.22,97.21,4c1.84-1.62,3.66-1.63,5.57,0,2.5,2.27,5.23,6.7,7.31,11.87h0c3.1,7.7,4.44,16.27,1,17.75a2.87,2.87,0,0,1-2.28-.07c-2.71-1.12-6.09-5.77-8.77-12-2.67,6.23-6,10.88-8.75,12A3.35,3.35,0,0,1,90,33.79Zm10-29a2.26,2.26,0,0,0-1.45.72c-2.21,2-4.8,6.27-6.74,11.11-3.61,9-3.24,14.65-2,15.17a1,1,0,0,0,.73-.09c2-.82,5.41-5.24,8.17-12.11.14-.36.28-.71.41-1.07a1,1,0,0,1,.94-.66h0a1,1,0,0,1,.94.64c.14.36.27.72.42,1.09,2.77,6.87,6.21,11.28,8.18,12.1a1,1,0,0,0,.73.08c1.21-.52,1.56-6.18-2.06-15.17-2-4.84-4.54-9.1-6.77-11.11A2.4,2.4,0,0,0,100,4.75Z"/><path class="cls-14" d="M81.08,25.36a8.62,8.62,0,0,0-1-3.21m6.31.27A9.47,9.47,0,0,0,84.75,18m5.92-1.23a6.58,6.58,0,0,0-1.1-3.81m3.57,18a6.61,6.61,0,0,0-2.09-3.11m5.42-1.44A10.32,10.32,0,0,0,93.78,22m5.58-1.49A10.58,10.58,0,0,0,96.52,16m-16-8.91A4.82,4.82,0,0,0,79,9.88m6.86-2.8a8.22,8.22,0,0,0-1.7,4M120,22.14a8.62,8.62,0,0,0-1,3.21M115.31,18a9.47,9.47,0,0,0-1.6,4.45m-3.22-9.5a6.58,6.58,0,0,0-1.1,3.81M109,27.78a6.61,6.61,0,0,0-2.09,3.11M106.28,22a10.32,10.32,0,0,0-2.69,4.34M103.54,16a10.58,10.58,0,0,0-2.84,4.52M121,9.88a4.82,4.82,0,0,0-1.46-2.8m-3.7,4a8.22,8.22,0,0,0-1.7-4m-14.13,4v7.73"/><path class="cls-10" d="M14,126H13a1,1,0,0,1,0-2h1a1,1,0,0,1,0,2Z"/><path class="cls-10" d="M111,126H17a1,1,0,0,1,0-2h94a1,1,0,0,1,0,2Z"/></g><path class="cls-17" d="M108,78H21V64a3,3,0,0,1,3-3h81a3,3,0,0,1,3,3Z"/><path class="cls-18" d="M105,61H24a3,3,0,0,0-3,3V77h5V66h77V77h5V64A3,3,0,0,0,105,61Z"/><g class="cls-2"><rect class="cls-19" height="3" width="87" x="21" y="74"/></g><path class="cls-10" d="M103,78a1,1,0,0,1-1-1V67H27V77a1,1,0,0,1-2,0V66a1,1,0,0,1,1-1h77a1,1,0,0,1,1,1V77A1,1,0,0,1,103,78Z"/><path class="cls-10" d="M108,78a1,1,0,0,1-1-1V64a2,2,0,0,0-2-2H24a2,2,0,0,0-2,2V77a1,1,0,0,1-2,0V64a4,4,0,0,1,4-4h81a4,4,0,0,1,4,4V77A1,1,0,0,1,108,78Z"/><path class="cls-5" d="M47,83.65v5.1C47,91.1,50.81,93,55.5,93S64,91.1,64,88.75v-5.1Z"/><g class="cls-20"><path class="cls-9" d="M55.5,83.65H47v5.1C47,91.1,50.81,93,55.5,93Z"/></g><path class="cls-10" d="M55.5,94c-5.42,0-9.5-2.26-9.5-5.25v-5.1a1,1,0,0,1,1-1H64a1,1,0,0,1,1,1v5.1C65,91.74,60.92,94,55.5,94ZM48,84.65v4.1C48,90.28,51.21,92,55.5,92S63,90.28,63,88.75v-4.1Z"/><path class="cls-21" d="M47,78.55v5.1c0,2.35,3.81,4.25,8.5,4.25S64,86,64,83.65v-5.1Z"/><path class="cls-10" d="M55.5,88.9c-5.42,0-9.5-2.26-9.5-5.25v-5.1a1,1,0,0,1,1-1H64a1,1,0,0,1,1,1v5.1C65,86.64,60.92,88.9,55.5,88.9ZM48,79.55v4.1c0,1.53,3.21,3.25,7.5,3.25S63,85.18,63,83.65v-4.1Z"/><path class="cls-21" d="M47,78.55v5.1c0,2.35,3.81,4.25,8.5,4.25S64,86,64,83.65v-5.1Z"/><path class="cls-5" d="M55.5,78.55H47v5.1c0,2.35,3.81,4.25,8.5,4.25Z"/><path class="cls-10" d="M55.5,88.9c-5.42,0-9.5-2.26-9.5-5.25v-5.1a1,1,0,0,1,1-1H64a1,1,0,0,1,1,1v5.1C65,86.64,60.92,88.9,55.5,88.9ZM48,79.55v4.1c0,1.53,3.21,3.25,7.5,3.25S63,85.18,63,83.65v-4.1Z"/><path class="cls-5" d="M47,73.45v5.1c0,2.35,3.81,4.25,8.5,4.25S64,80.9,64,78.55v-5.1Z"/><g class="cls-20"><path class="cls-9" d="M55.5,73.45H47v5.1c0,2.35,3.81,4.25,8.5,4.25Z"/></g><path class="cls-10" d="M55.5,83.8c-5.42,0-9.5-2.26-9.5-5.25v-5.1a1,1,0,0,1,1-1H64a1,1,0,0,1,1,1v5.1C65,81.54,60.92,83.8,55.5,83.8ZM48,74.45v4.1c0,1.53,3.21,3.25,7.5,3.25S63,80.08,63,78.55v-4.1Z"/><path class="cls-21" d="M47,68.35v5.1c0,2.35,3.81,4.25,8.5,4.25S64,75.8,64,73.45v-5.1Z"/><path class="cls-10" d="M55.5,78.7c-5.42,0-9.5-2.26-9.5-5.25v-5.1a1,1,0,0,1,1-1H64a1,1,0,0,1,1,1v5.1C65,76.44,60.92,78.7,55.5,78.7ZM48,69.35v4.1c0,1.53,3.21,3.25,7.5,3.25S63,75,63,73.45v-4.1Z"/><path class="cls-21" d="M47,68.35v5.1c0,2.35,3.81,4.25,8.5,4.25S64,75.8,64,73.45v-5.1Z"/><path class="cls-5" d="M55.5,68.35H47v5.1c0,2.35,3.81,4.25,8.5,4.25Z"/><path class="cls-10" d="M55.5,78.7c-5.42,0-9.5-2.26-9.5-5.25v-5.1a1,1,0,0,1,1-1H64a1,1,0,0,1,1,1v5.1C65,76.44,60.92,78.7,55.5,78.7ZM48,69.35v4.1c0,1.53,3.21,3.25,7.5,3.25S63,75,63,73.45v-4.1Z"/><path class="cls-5" d="M47,63.25v5.1c0,2.35,3.81,4.25,8.5,4.25S64,70.7,64,68.35v-5.1Z"/><g class="cls-20"><path class="cls-9" d="M55.5,63.25H47v5.1c0,2.35,3.81,4.25,8.5,4.25Z"/></g><path class="cls-10" d="M55.5,73.6c-5.42,0-9.5-2.26-9.5-5.25v-5.1a1,1,0,0,1,1-1H64a1,1,0,0,1,1,1v5.1C65,71.34,60.92,73.6,55.5,73.6ZM48,64.25v4.1c0,1.53,3.21,3.25,7.5,3.25S63,69.88,63,68.35v-4.1Z"/><path class="cls-21" d="M47,58.15v5.1c0,2.35,3.81,4.25,8.5,4.25S64,65.6,64,63.25v-5.1Z"/><path class="cls-10" d="M55.5,68.5c-5.42,0-9.5-2.26-9.5-5.25v-5.1a1,1,0,0,1,1-1H64a1,1,0,0,1,1,1v5.1C65,66.24,60.92,68.5,55.5,68.5ZM48,59.15v4.1c0,1.53,3.21,3.25,7.5,3.25S63,64.78,63,63.25v-4.1Z"/><path class="cls-21" d="M47,58.15v5.1c0,2.35,3.81,4.25,8.5,4.25S64,65.6,64,63.25v-5.1Z"/><path class="cls-5" d="M55.5,58.15H47v5.1c0,2.35,3.81,4.25,8.5,4.25Z"/><path class="cls-10" d="M55.5,68.5c-5.42,0-9.5-2.26-9.5-5.25v-5.1a1,1,0,0,1,1-1H64a1,1,0,0,1,1,1v5.1C65,66.24,60.92,68.5,55.5,68.5ZM48,59.15v4.1c0,1.53,3.21,3.25,7.5,3.25S63,64.78,63,63.25v-4.1Z"/><path class="cls-5" d="M47,53v5.1c0,2.35,3.81,4.25,8.5,4.25s8.5-1.9,8.5-4.25V53Z"/><g class="cls-20"><path class="cls-9" d="M55.5,53H47v5.1c0,2.35,3.81,4.25,8.5,4.25Z"/></g><path class="cls-10" d="M55.5,63.4c-5.42,0-9.5-2.26-9.5-5.25V53a1,1,0,0,1,1-1H64a1,1,0,0,1,1,1v5.1C65,61.14,60.92,63.4,55.5,63.4ZM48,54v4.1c0,1.53,3.21,3.25,7.5,3.25S63,59.68,63,58.15V54Z"/><path class="cls-21" d="M47,47.94V53c0,2.35,3.81,4.25,8.5,4.25S64,55.39,64,53v-5.1Z"/><path class="cls-10" d="M55.5,58.3C50.08,58.3,46,56,46,53v-5.1a1,1,0,0,1,1-1H64a1,1,0,0,1,1,1V53C65,56,60.92,58.3,55.5,58.3ZM48,48.94V53c0,1.53,3.21,3.25,7.5,3.25S63,54.58,63,53v-4.1Z"/><path class="cls-21" d="M47,47.94V53c0,2.35,3.81,4.25,8.5,4.25S64,55.39,64,53v-5.1Z"/><path class="cls-5" d="M55.5,47.94H47V53c0,2.35,3.81,4.25,8.5,4.25Z"/><path class="cls-10" d="M55.5,58.3C50.08,58.3,46,56,46,53v-5.1a1,1,0,0,1,1-1H64a1,1,0,0,1,1,1V53C65,56,60.92,58.3,55.5,58.3ZM48,48.94V53c0,1.53,3.21,3.25,7.5,3.25S63,54.58,63,53v-4.1Z"/><ellipse class="cls-21" cx="55.5" cy="47.94" rx="8.5" ry="4.25"/><path class="cls-10" d="M55.5,53.19c-5.42,0-9.5-2.26-9.5-5.25s4.08-5.25,9.5-5.25S65,45,65,47.94,60.92,53.19,55.5,53.19Zm0-8.5c-4.29,0-7.5,1.72-7.5,3.25s3.21,3.25,7.5,3.25S63,49.48,63,47.94,59.79,44.69,55.5,44.69Z"/><ellipse class="cls-5" cx="55.5" cy="47.94" rx="5.1" ry="1.7"/><path class="cls-5" d="M70,73v5.1c0,2.35,3.81,4.25,8.5,4.25S87,80.4,87,78.06V73Z"/><g class="cls-20"><path class="cls-9" d="M78.5,73H70v5.1c0,2.35,3.81,4.25,8.5,4.25Z"/></g><path class="cls-10" d="M78.5,83.31c-5.42,0-9.5-2.26-9.5-5.25V73a1,1,0,0,1,1-1H87a1,1,0,0,1,1,1v5.1C88,81,83.92,83.31,78.5,83.31ZM71,74v4.1c0,1.53,3.21,3.25,7.5,3.25S86,79.59,86,78.06V74Z"/><path class="cls-21" d="M70,67.85V73c0,2.35,3.81,4.25,8.5,4.25S87,75.3,87,73v-5.1Z"/><path class="cls-10" d="M78.5,78.21c-5.42,0-9.5-2.26-9.5-5.25v-5.1a1,1,0,0,1,1-1H87a1,1,0,0,1,1,1V73C88,75.95,83.92,78.21,78.5,78.21ZM71,68.85V73c0,1.53,3.21,3.25,7.5,3.25S86,74.49,86,73v-4.1Z"/><path class="cls-21" d="M70,67.85V73c0,2.35,3.81,4.25,8.5,4.25S87,75.3,87,73v-5.1Z"/><path class="cls-5" d="M78.5,67.85H70V73c0,2.35,3.81,4.25,8.5,4.25Z"/><path class="cls-10" d="M78.5,78.21c-5.42,0-9.5-2.26-9.5-5.25v-5.1a1,1,0,0,1,1-1H87a1,1,0,0,1,1,1V73C88,75.95,83.92,78.21,78.5,78.21ZM71,68.85V73c0,1.53,3.21,3.25,7.5,3.25S86,74.49,86,73v-4.1Z"/><path class="cls-5" d="M70,62.75v5.1c0,2.35,3.81,4.25,8.5,4.25S87,70.2,87,67.85v-5.1Z"/><g class="cls-20"><path class="cls-9" d="M78.5,62.75H70v5.1c0,2.35,3.81,4.25,8.5,4.25Z"/></g><path class="cls-10" d="M78.5,73.1c-5.42,0-9.5-2.26-9.5-5.25v-5.1a1,1,0,0,1,1-1H87a1,1,0,0,1,1,1v5.1C88,70.85,83.92,73.1,78.5,73.1ZM71,63.75v4.1c0,1.53,3.21,3.25,7.5,3.25S86,69.39,86,67.85v-4.1Z"/><path class="cls-21" d="M70,57.65v5.1C70,65.1,73.81,67,78.5,67S87,65.1,87,62.75v-5.1Z"/><path class="cls-10" d="M78.5,68c-5.42,0-9.5-2.26-9.5-5.25v-5.1a1,1,0,0,1,1-1H87a1,1,0,0,1,1,1v5.1C88,65.75,83.92,68,78.5,68ZM71,58.65v4.1C71,64.29,74.21,66,78.5,66S86,64.29,86,62.75v-4.1Z"/><path class="cls-21" d="M70,57.65v5.1C70,65.1,73.81,67,78.5,67S87,65.1,87,62.75v-5.1Z"/><path class="cls-5" d="M78.5,57.65H70v5.1C70,65.1,73.81,67,78.5,67Z"/><path class="cls-10" d="M78.5,68c-5.42,0-9.5-2.26-9.5-5.25v-5.1a1,1,0,0,1,1-1H87a1,1,0,0,1,1,1v5.1C88,65.75,83.92,68,78.5,68ZM71,58.65v4.1C71,64.29,74.21,66,78.5,66S86,64.29,86,62.75v-4.1Z"/><path class="cls-5" d="M70,52.55v5.1c0,2.35,3.81,4.25,8.5,4.25S87,60,87,57.65v-5.1Z"/><g class="cls-20"><path class="cls-9" d="M78.5,52.55H70v5.1c0,2.35,3.81,4.25,8.5,4.25Z"/></g><path class="cls-10" d="M78.5,62.9c-5.42,0-9.5-2.26-9.5-5.25v-5.1a1,1,0,0,1,1-1H87a1,1,0,0,1,1,1v5.1C88,60.65,83.92,62.9,78.5,62.9ZM71,53.55v4.1c0,1.53,3.21,3.25,7.5,3.25S86,59.19,86,57.65v-4.1Z"/><path class="cls-21" d="M70,47.45v5.1c0,2.35,3.81,4.25,8.5,4.25S87,54.9,87,52.55v-5.1Z"/><path class="cls-10" d="M78.5,57.8c-5.42,0-9.5-2.26-9.5-5.25v-5.1a1,1,0,0,1,1-1H87a1,1,0,0,1,1,1v5.1C88,55.55,83.92,57.8,78.5,57.8ZM71,48.45v4.1c0,1.53,3.21,3.25,7.5,3.25S86,54.09,86,52.55v-4.1Z"/><path class="cls-21" d="M70,47.45v5.1c0,2.35,3.81,4.25,8.5,4.25S87,54.9,87,52.55v-5.1Z"/><path class="cls-5" d="M78.5,47.45H70v5.1c0,2.35,3.81,4.25,8.5,4.25Z"/><path class="cls-10" d="M78.5,57.8c-5.42,0-9.5-2.26-9.5-5.25v-5.1a1,1,0,0,1,1-1H87a1,1,0,0,1,1,1v5.1C88,55.55,83.92,57.8,78.5,57.8ZM71,48.45v4.1c0,1.53,3.21,3.25,7.5,3.25S86,54.09,86,52.55v-4.1Z"/><path class="cls-5" d="M70,42.35v5.1c0,2.35,3.81,4.25,8.5,4.25S87,49.8,87,47.45v-5.1Z"/><g class="cls-20"><path class="cls-9" d="M78.5,42.35H70v5.1c0,2.35,3.81,4.25,8.5,4.25Z"/></g><path class="cls-10" d="M78.5,52.7c-5.42,0-9.5-2.26-9.5-5.25v-5.1a1,1,0,0,1,1-1H87a1,1,0,0,1,1,1v5.1C88,50.44,83.92,52.7,78.5,52.7ZM71,43.35v4.1c0,1.53,3.21,3.25,7.5,3.25S86,49,86,47.45v-4.1Z"/><path class="cls-21" d="M70,37.25v5.1c0,2.35,3.81,4.25,8.5,4.25S87,44.7,87,42.35v-5.1Z"/><path class="cls-10" d="M78.5,47.6c-5.42,0-9.5-2.26-9.5-5.25v-5.1a1,1,0,0,1,1-1H87a1,1,0,0,1,1,1v5.1C88,45.34,83.92,47.6,78.5,47.6ZM71,38.25v4.1c0,1.53,3.21,3.25,7.5,3.25S86,43.88,86,42.35v-4.1Z"/><path class="cls-21" d="M70,37.25v5.1c0,2.35,3.81,4.25,8.5,4.25S87,44.7,87,42.35v-5.1Z"/><path class="cls-5" d="M78.5,37.25H70v5.1c0,2.35,3.81,4.25,8.5,4.25Z"/><path class="cls-10" d="M78.5,47.6c-5.42,0-9.5-2.26-9.5-5.25v-5.1a1,1,0,0,1,1-1H87a1,1,0,0,1,1,1v5.1C88,45.34,83.92,47.6,78.5,47.6ZM71,38.25v4.1c0,1.53,3.21,3.25,7.5,3.25S86,43.88,86,42.35v-4.1Z"/><ellipse class="cls-21" cx="78.5" cy="37.25" rx="8.5" ry="4.25"/><path class="cls-10" d="M78.5,42.5c-5.42,0-9.5-2.26-9.5-5.25S73.08,32,78.5,32,88,34.26,88,37.25,83.92,42.5,78.5,42.5Zm0-8.5c-4.29,0-7.5,1.72-7.5,3.25s3.21,3.25,7.5,3.25S86,38.78,86,37.25,82.79,34,78.5,34Z"/><ellipse class="cls-5" cx="78.5" cy="37.25" rx="5.1" ry="1.7"/><polygon class="cls-7" points="32.46 69.13 49.07 78.07 26 75.59 32.46 69.13"/><polygon class="cls-7" points="26 65.65 32.46 69.13 26 75.59 26 65.65"/><polygon class="cls-7" points="31.32 60.32 32.74 68.84 32.46 69.13 26 65.65 31.32 60.32"/><polygon class="cls-9" points="31.32 60.32 39.84 61.74 32.74 68.84 31.32 60.32"/><polygon class="cls-7" points="36.65 55 40.13 61.46 39.84 61.74 31.32 60.32 36.65 55"/><polygon class="cls-8" points="39.84 61.74 40.13 61.46 49.07 78.07 32.46 69.13 32.74 68.84 39.84 61.74"/><polygon class="cls-7" points="46.59 55 49.07 78.07 40.13 61.46 46.59 55"/><polygon class="cls-7" points="46.59 55 40.13 61.46 36.65 55 46.59 55"/><path class="cls-10" d="M26,76.59a1,1,0,0,1-1-1V65.65a1,1,0,0,1,.29-.71L35.94,54.29a1,1,0,0,1,.71-.29h9.94a1,1,0,0,1,.71,1.71L26.71,76.29A1,1,0,0,1,26,76.59Zm1-10.52v7.11L44.17,56H37.06Z"/><path class="cls-10" d="M49.07,79.07A1,1,0,0,1,48.6,79L25.53,66.53a1,1,0,1,1,.95-1.76L49.54,77.19a1,1,0,0,1-.47,1.88Z"/><path class="cls-10" d="M32.74,69.84a1,1,0,0,1-1-.84l-1.42-8.52a1,1,0,0,1,2-.33l1.42,8.52a1,1,0,0,1-.82,1.15Z"/><path class="cls-10" d="M39.84,62.74h-.17l-8.52-1.42a1,1,0,1,1,.33-2L40,60.76a1,1,0,0,1-.16,2Z"/><path class="cls-10" d="M49.07,79.07a1,1,0,0,1-.88-.53L35.77,55.47a1,1,0,0,1,1.76-.95L50,77.6a1,1,0,0,1-.88,1.47Z"/><path class="cls-10" d="M49.07,79.07H49L25.89,76.58a1,1,0,0,1-.89-1.1,1,1,0,0,1,1.1-.89l21.84,2.35L45.59,55.11a1,1,0,0,1,.89-1.1,1,1,0,0,1,1.1.89L50.07,78a1,1,0,0,1-1,1.11Z"/><path class="cls-5" d="M59,93v5.1c0,2.35,3.81,4.25,8.5,4.25s8.5-1.9,8.5-4.25V93Z"/><g class="cls-20"><path class="cls-9" d="M67.5,93H59v5.1c0,2.35,3.81,4.25,8.5,4.25Z"/></g><path class="cls-10" d="M67.5,103.31c-5.42,0-9.5-2.26-9.5-5.25V93a1,1,0,0,1,1-1H76a1,1,0,0,1,1,1v5.1C77,101,72.92,103.31,67.5,103.31ZM60,94v4.1c0,1.53,3.21,3.25,7.5,3.25S75,99.59,75,98.06V94Z"/><path class="cls-21" d="M59,87.85V93c0,2.35,3.81,4.25,8.5,4.25S76,95.3,76,93v-5.1Z"/><path class="cls-10" d="M67.5,98.21c-5.42,0-9.5-2.26-9.5-5.25v-5.1a1,1,0,0,1,1-1H76a1,1,0,0,1,1,1V93C77,95.95,72.92,98.21,67.5,98.21ZM60,88.85V93c0,1.53,3.21,3.25,7.5,3.25S75,94.49,75,93v-4.1Z"/><path class="cls-21" d="M59,87.85V93c0,2.35,3.81,4.25,8.5,4.25S76,95.3,76,93v-5.1Z"/><path class="cls-5" d="M67.5,87.85H59V93c0,2.35,3.81,4.25,8.5,4.25Z"/><path class="cls-10" d="M67.5,98.21c-5.42,0-9.5-2.26-9.5-5.25v-5.1a1,1,0,0,1,1-1H76a1,1,0,0,1,1,1V93C77,95.95,72.92,98.21,67.5,98.21ZM60,88.85V93c0,1.53,3.21,3.25,7.5,3.25S75,94.49,75,93v-4.1Z"/><path class="cls-5" d="M59,82.75v5.1c0,2.35,3.81,4.25,8.5,4.25S76,90.2,76,87.85v-5.1Z"/><g class="cls-20"><path class="cls-9" d="M67.5,82.75H59v5.1c0,2.35,3.81,4.25,8.5,4.25Z"/></g><path class="cls-10" d="M67.5,93.1c-5.42,0-9.5-2.26-9.5-5.25v-5.1a1,1,0,0,1,1-1H76a1,1,0,0,1,1,1v5.1C77,90.85,72.92,93.1,67.5,93.1ZM60,83.75v4.1c0,1.53,3.21,3.25,7.5,3.25S75,89.39,75,87.85v-4.1Z"/><path class="cls-21" d="M59,77.65v5.1C59,85.1,62.81,87,67.5,87S76,85.1,76,82.75v-5.1Z"/><path class="cls-10" d="M67.5,88c-5.42,0-9.5-2.26-9.5-5.25v-5.1a1,1,0,0,1,1-1H76a1,1,0,0,1,1,1v5.1C77,85.75,72.92,88,67.5,88ZM60,78.65v4.1C60,84.29,63.21,86,67.5,86S75,84.29,75,82.75v-4.1Z"/><path class="cls-21" d="M59,77.65v5.1C59,85.1,62.81,87,67.5,87S76,85.1,76,82.75v-5.1Z"/><path class="cls-5" d="M67.5,77.65H59v5.1C59,85.1,62.81,87,67.5,87Z"/><path class="cls-10" d="M67.5,88c-5.42,0-9.5-2.26-9.5-5.25v-5.1a1,1,0,0,1,1-1H76a1,1,0,0,1,1,1v5.1C77,85.75,72.92,88,67.5,88ZM60,78.65v4.1C60,84.29,63.21,86,67.5,86S75,84.29,75,82.75v-4.1Z"/><path class="cls-5" d="M59,72.55v5.1c0,2.35,3.81,4.25,8.5,4.25S76,80,76,77.65v-5.1Z"/><g class="cls-20"><path class="cls-9" d="M67.5,72.55H59v5.1c0,2.35,3.81,4.25,8.5,4.25Z"/></g><path class="cls-10" d="M67.5,82.9c-5.42,0-9.5-2.26-9.5-5.25v-5.1a1,1,0,0,1,1-1H76a1,1,0,0,1,1,1v5.1C77,80.65,72.92,82.9,67.5,82.9ZM60,73.55v4.1c0,1.53,3.21,3.25,7.5,3.25S75,79.19,75,77.65v-4.1Z"/><path class="cls-21" d="M59,67.45v5.1c0,2.35,3.81,4.25,8.5,4.25S76,74.9,76,72.55v-5.1Z"/><path class="cls-10" d="M67.5,77.8c-5.42,0-9.5-2.26-9.5-5.25v-5.1a1,1,0,0,1,1-1H76a1,1,0,0,1,1,1v5.1C77,75.55,72.92,77.8,67.5,77.8ZM60,68.45v4.1c0,1.53,3.21,3.25,7.5,3.25S75,74.09,75,72.55v-4.1Z"/><path class="cls-21" d="M59,67.45v5.1c0,2.35,3.81,4.25,8.5,4.25S76,74.9,76,72.55v-5.1Z"/><path class="cls-5" d="M67.5,67.45H59v5.1c0,2.35,3.81,4.25,8.5,4.25Z"/><path class="cls-10" d="M67.5,77.8c-5.42,0-9.5-2.26-9.5-5.25v-5.1a1,1,0,0,1,1-1H76a1,1,0,0,1,1,1v5.1C77,75.55,72.92,77.8,67.5,77.8ZM60,68.45v4.1c0,1.53,3.21,3.25,7.5,3.25S75,74.09,75,72.55v-4.1Z"/><path class="cls-5" d="M59,62.35v5.1c0,2.35,3.81,4.25,8.5,4.25S76,69.8,76,67.45v-5.1Z"/><g class="cls-20"><path class="cls-9" d="M67.5,62.35H59v5.1c0,2.35,3.81,4.25,8.5,4.25Z"/></g><path class="cls-10" d="M67.5,72.7c-5.42,0-9.5-2.26-9.5-5.25v-5.1a1,1,0,0,1,1-1H76a1,1,0,0,1,1,1v5.1C77,70.44,72.92,72.7,67.5,72.7ZM60,63.35v4.1c0,1.53,3.21,3.25,7.5,3.25S75,69,75,67.45v-4.1Z"/><path class="cls-21" d="M59,57.25v5.1c0,2.35,3.81,4.25,8.5,4.25S76,64.7,76,62.35v-5.1Z"/><path class="cls-10" d="M67.5,67.6c-5.42,0-9.5-2.26-9.5-5.25v-5.1a1,1,0,0,1,1-1H76a1,1,0,0,1,1,1v5.1C77,65.34,72.92,67.6,67.5,67.6ZM60,58.25v4.1c0,1.53,3.21,3.25,7.5,3.25S75,63.88,75,62.35v-4.1Z"/><path class="cls-21" d="M59,57.25v5.1c0,2.35,3.81,4.25,8.5,4.25S76,64.7,76,62.35v-5.1Z"/><path class="cls-5" d="M67.5,57.25H59v5.1c0,2.35,3.81,4.25,8.5,4.25Z"/><path class="cls-10" d="M67.5,67.6c-5.42,0-9.5-2.26-9.5-5.25v-5.1a1,1,0,0,1,1-1H76a1,1,0,0,1,1,1v5.1C77,65.34,72.92,67.6,67.5,67.6ZM60,58.25v4.1c0,1.53,3.21,3.25,7.5,3.25S75,63.88,75,62.35v-4.1Z"/><ellipse class="cls-21" cx="67.5" cy="57.25" rx="8.5" ry="4.25"/><path class="cls-10" d="M67.5,62.5c-5.42,0-9.5-2.26-9.5-5.25S62.08,52,67.5,52,77,54.26,77,57.25,72.92,62.5,67.5,62.5Zm0-8.5c-4.29,0-7.5,1.72-7.5,3.25s3.21,3.25,7.5,3.25S75,58.78,75,57.25,71.79,54,67.5,54Z"/><ellipse class="cls-5" cx="67.5" cy="57.25" rx="5.1" ry="1.7"/><path class="cls-10" d="M97.23,69.75a1,1,0,0,1-.71-.29l-3-3a1,1,0,0,1-.21-1.1l2.45-5.72a1,1,0,0,1,1.63-.31l6.28,6.28a1,1,0,0,1-.31,1.63l-5.72,2.45A1,1,0,0,1,97.23,69.75ZM95.4,65.5l2.06,2.06L101.2,66,97,61.77Z"/><polygon class="cls-22" points="102.95 66.3 102.95 75.72 97.23 73.27 97.23 68.75 102.95 66.3"/><polygon class="cls-22" points="102.95 75.72 96.67 82 94.22 76.28 97.23 73.27 102.95 75.72"/><polygon class="cls-22" points="94.22 76.28 96.67 82 87.25 82 89.7 76.28 94.22 76.28"/><polygon class="cls-22" points="89.74 76.27 87.29 81.98 81.01 75.7 86.72 73.25 89.74 76.27"/><polygon class="cls-22" points="86.68 68.73 86.68 73.25 80.97 75.7 80.97 66.28 86.68 68.73"/><polygon class="cls-22" points="87.25 60.02 89.7 65.73 86.68 68.75 80.97 66.3 87.25 60.02"/><polygon class="cls-22" points="103 66.3 97.28 68.75 94.27 65.73 96.72 60.02 103 66.3"/><polygon class="cls-9" points="96.67 60.02 94.22 65.73 89.7 65.73 87.25 60.02 96.67 60.02"/><polygon class="cls-23" points="97.23 68.75 97.23 73.27 94.22 76.28 89.7 76.28 86.68 73.27 86.68 68.75 89.7 65.73 94.22 65.73 97.23 68.75"/><path class="cls-10" d="M96.67,83H87.25a1,1,0,0,1-.71-.29l-6.28-6.28a1,1,0,0,1-.29-.71V66.3a1,1,0,0,1,.29-.71l6.28-6.28a1,1,0,0,1,.71-.29h9.42a1,1,0,0,1,.71.29l6.28,6.28a1,1,0,0,1,.29.71v9.42a1,1,0,0,1-.29.71l-6.28,6.28A1,1,0,0,1,96.67,83Zm-9-2h8.59l5.7-5.7V66.71L96.25,61H87.66L82,66.71V75.3Z"/><path class="cls-10" d="M94.22,77.28H89.7A1,1,0,0,1,89,77l-3-3a1,1,0,0,1-.29-.71V68.75A1,1,0,0,1,86,68l3-3a1,1,0,0,1,.71-.29h4.52a1,1,0,0,1,.71.29l3,3a1,1,0,0,1,.29.71v4.52a1,1,0,0,1-.29.71l-3,3A1,1,0,0,1,94.22,77.28Zm-4.11-2H93.8l2.43-2.43V69.16L93.8,66.73H90.11l-2.43,2.43v3.69Z"/><path class="cls-10" d="M89.7,66.73a1,1,0,0,1-.92-.61l-2.45-5.72a1,1,0,0,1,1.84-.79l2.45,5.72a1,1,0,0,1-.92,1.39Z"/><path class="cls-10" d="M94.22,66.73a1,1,0,0,1-.92-1.39l2.45-5.72a1,1,0,0,1,1.84.79l-2.45,5.72A1,1,0,0,1,94.22,66.73Z"/><path class="cls-10" d="M86.68,69.75a1,1,0,0,1-.39-.08l-5.72-2.45a1,1,0,1,1,.79-1.84l5.72,2.45a1,1,0,0,1-.39,1.92Z"/><path class="cls-10" d="M81,76.72a1,1,0,0,1-.39-1.92l5.72-2.45a1,1,0,1,1,.79,1.84l-5.72,2.45A1,1,0,0,1,81,76.72Z"/><path class="cls-10" d="M97.23,69.75a1,1,0,0,1-.39-1.92l5.72-2.45a1,1,0,1,1,.79,1.84l-5.72,2.45A1,1,0,0,1,97.23,69.75Z"/><path class="cls-10" d="M102.95,76.72a1,1,0,0,1-.39-.08l-5.72-2.45a1,1,0,1,1,.79-1.84l5.72,2.45a1,1,0,0,1-.39,1.92Z"/><path class="cls-10" d="M96.67,83a1,1,0,0,1-.92-.61L93.3,76.68a1,1,0,0,1,1.84-.79l2.45,5.72A1,1,0,0,1,96.67,83Z"/><path class="cls-10" d="M87.25,83a1,1,0,0,1-.92-1.39l2.45-5.72a1,1,0,0,1,1.84.79l-2.45,5.72A1,1,0,0,1,87.25,83Z"/><path class="cls-18" d="M106,125H23a2,2,0,0,1-2-2V77h87v46A2,2,0,0,1,106,125Z"/><polyline class="cls-24" points="57 86 29 86 29 116 100 116 100 86 72 86"/><g class="cls-2"><rect class="cls-9" height="3" width="87" x="21" y="77"/></g><g class="cls-2"><path class="cls-19" d="M21,122h87a0,0,0,0,1,0,0v1a2,2,0,0,1-2,2H23a2,2,0,0,1-2-2v-1a0,0,0,0,1,0,0Z"/></g><g class="cls-2"><rect class="cls-19" height="2" width="71" x="29" y="100"/></g><g class="cls-2"><rect class="cls-19" height="2" width="71" x="29" y="95"/></g><g class="cls-2"><rect class="cls-19" height="2" width="71" x="29" y="90"/></g><g class="cls-2"><rect class="cls-19" height="2" width="71" x="29" y="105"/></g><g class="cls-2"><rect class="cls-19" height="2" width="71" x="29" y="110"/></g><g class="cls-2"><rect class="cls-19" height="3" width="71" x="29" y="86"/></g><g class="cls-2"><path class="cls-9" d="M100,119H29a1,1,0,0,1-1-1v-2h73v2A1,1,0,0,1,100,119Z"/></g><path class="cls-10" d="M100,117H29a1,1,0,0,1-1-1V86a1,1,0,0,1,1-1H57a1,1,0,1,1,0,2H30v28H99V87H72a1,1,0,0,1,0-2h28a1,1,0,0,1,1,1v30A1,1,0,0,1,100,117Z"/><path class="cls-25" d="M72,77V87.5A7.5,7.5,0,0,1,64.5,95h0A7.5,7.5,0,0,1,57,87.5V77Z"/><rect class="cls-15" height="3" width="15" x="57" y="77"/><path class="cls-10" d="M64.5,96A8.51,8.51,0,0,1,56,87.5V77a1,1,0,0,1,1-1H72a1,1,0,0,1,1,1V87.5A8.51,8.51,0,0,1,64.5,96ZM58,78v9.5a6.5,6.5,0,1,0,13,0V78Z"/><g class="cls-20"><path class="cls-10" d="M51,97H42a1,1,0,0,1,0-2h9a1,1,0,1,1,0,2Z"/><path class="cls-10" d="M39,102H30a1,1,0,0,1,0-2h9a1,1,0,0,1,0,2Z"/><path class="cls-10" d="M69,102H53a1,1,0,0,1,0-2H69a1,1,0,0,1,0,2Z"/><path class="cls-10" d="M36,97a1,1,0,0,1-.71-.29.94.94,0,0,1-.21-.33A1,1,0,0,1,35,96a1,1,0,0,1,.29-.71,1,1,0,0,1,1.41,0A1,1,0,0,1,37,96a1,1,0,0,1-.08.38.92.92,0,0,1-.22.33A1,1,0,0,1,36,97Z"/><path class="cls-10" d="M46,92a1,1,0,0,1-.71-1.71,1,1,0,0,1,.9-.27.61.61,0,0,1,.19.06.76.76,0,0,1,.18.09l.15.12a1.15,1.15,0,0,1,.21.33A1,1,0,0,1,47,91a1.05,1.05,0,0,1-.29.71l-.15.12a.76.76,0,0,1-.18.09.62.62,0,0,1-.19.06Z"/><path class="cls-10" d="M100,97H87a1,1,0,0,1,0-2h13a1,1,0,0,1,0,2Z"/><path class="cls-10" d="M95,112H82a1,1,0,0,1,0-2H95a1,1,0,0,1,0,2Z"/><path class="cls-10" d="M67,112H40a1,1,0,0,1,0-2H67a1,1,0,0,1,0,2Z"/><path class="cls-10" d="M82,97H76a1,1,0,0,1,0-2h6a1,1,0,0,1,0,2Z"/><path class="cls-10" d="M89,92H76a1,1,0,0,1,0-2H89a1,1,0,0,1,0,2Z"/><path class="cls-10" d="M94.5,92h-1a1,1,0,0,1,0-2h1a1,1,0,0,1,0,2Z"/><path class="cls-10" d="M53,92H50a1,1,0,0,1,0-2h3a1,1,0,1,1,0,2Z"/><path class="cls-10" d="M41,92H32a1,1,0,0,1,0-2h9a1,1,0,1,1,0,2Z"/><path class="cls-10" d="M99,102H92a1,1,0,0,1,0-2h7a1,1,0,0,1,0,2Z"/><path class="cls-10" d="M85,102H84a1,1,0,0,1,0-2h1a1,1,0,0,1,0,2Z"/><path class="cls-10" d="M46,102a1.05,1.05,0,0,1-.71-.29,1.68,1.68,0,0,1-.12-.15.74.74,0,0,1-.09-.18.65.65,0,0,1-.06-.18,1.38,1.38,0,0,1,0-.2,1,1,0,0,1,.29-.71,1,1,0,0,1,.9-.27.61.61,0,0,1,.19.06.76.76,0,0,1,.18.09l.15.12A1.05,1.05,0,0,1,47,101a1.26,1.26,0,0,1,0,.2.62.62,0,0,1-.06.18.78.78,0,0,1-.09.18l-.12.15-.15.12a.76.76,0,0,1-.18.09.62.62,0,0,1-.19.06Z"/><path class="cls-10" d="M77,102H74a1,1,0,0,1,0-2h3a1,1,0,0,1,0,2Z"/><path class="cls-10" d="M81,107H69a1,1,0,0,1,0-2H81a1,1,0,0,1,0,2Z"/><path class="cls-10" d="M76,112l-.2,0-.18-.06a.76.76,0,0,1-.18-.09,1.53,1.53,0,0,1-.15-.12A1,1,0,0,1,75,111a1.38,1.38,0,0,1,0-.2.65.65,0,0,1,.06-.18.55.55,0,0,1,.09-.17l.12-.16.15-.12a.76.76,0,0,1,.18-.09.63.63,0,0,1,.18-.06,1,1,0,0,1,.91.27l.12.16a.57.57,0,0,1,.09.17.62.62,0,0,1,.06.18,1.26,1.26,0,0,1,0,.2,1,1,0,0,1-1,1Z"/><path class="cls-10" d="M33,112a1.05,1.05,0,0,1-.71-.29A1,1,0,0,1,32,111a1,1,0,0,1,.08-.38,1.15,1.15,0,0,1,.21-.33l.15-.12a.76.76,0,0,1,.18-.09.6.6,0,0,1,.19-.06,1,1,0,0,1,.9.27,1.15,1.15,0,0,1,.21.33A1,1,0,0,1,34,111a1.39,1.39,0,0,1,0,.2.62.62,0,0,1-.06.18.78.78,0,0,1-.09.18l-.12.15A1.05,1.05,0,0,1,33,112Z"/><path class="cls-10" d="M57,107H49a1,1,0,0,1,0-2h8a1,1,0,0,1,0,2Z"/><path class="cls-10" d="M95,107H89a1,1,0,0,1,0-2h6a1,1,0,0,1,0,2Z"/><path class="cls-10" d="M42,107H29a1,1,0,0,1,0-2H42a1,1,0,0,1,0,2Z"/><path class="cls-10" d="M63,107a1,1,0,0,1-.38-.08,1.16,1.16,0,0,1-.33-.21.94.94,0,0,1-.21-.33A1,1,0,0,1,62,106a1,1,0,0,1,.29-.71,1.15,1.15,0,0,1,.33-.21,1,1,0,0,1,1.09.21A1,1,0,0,1,63,107Z"/></g><path class="cls-10" d="M64.5,90a1,1,0,0,1-1-1V84.5a1,1,0,0,1,2,0V89A1,1,0,0,1,64.5,90Z"/><path class="cls-10" d="M64.5,87A2.5,2.5,0,1,1,67,84.5,2.5,2.5,0,0,1,64.5,87Zm0-3a.5.5,0,1,0,.5.5A.5.5,0,0,0,64.5,84Z"/><path class="cls-10" d="M106,126H23a3,3,0,0,1-3-3V77a1,1,0,0,1,1-1h87a1,1,0,0,1,1,1v46A3,3,0,0,1,106,126ZM22,78v45a1,1,0,0,0,1,1h83a1,1,0,0,0,1-1V78Z"/><path class="cls-25" d="M21,118h0v5a2,2,0,0,0,2,2h5A7,7,0,0,0,21,118Z"/><path class="cls-10" d="M23,126a3,3,0,0,1-3-3v-5a1,1,0,0,1,1-1,8,8,0,0,1,8,8,1,1,0,0,1-1,1Zm-1-6.92V123a1,1,0,0,0,1,1h3.92A6,6,0,0,0,22,119.08Z"/><path class="cls-25" d="M108,118h0v5a2,2,0,0,1-2,2h-5A7,7,0,0,1,108,118Z"/><path class="cls-10" d="M106,126h-5a1,1,0,0,1-1-1,8,8,0,0,1,8-8,1,1,0,0,1,1,1v5A3,3,0,0,1,106,126Zm-3.92-2H106a1,1,0,0,0,1-1v-3.92A6,6,0,0,0,102.08,124Z"/><path class="cls-5" d="M19.92,76.38a5.55,5.55,0,0,0,3.69,3.69q2.77.92,0,1.85a5.55,5.55,0,0,0-3.69,3.69q-.92,2.77-1.85,0a5.55,5.55,0,0,0-3.69-3.69q-2.77-.92,0-1.85a5.55,5.55,0,0,0,3.69-3.69Q19,73.62,19.92,76.38Z"/><path class="cls-9" d="M58.62,31.92a3.7,3.7,0,0,0,2.46,2.46q1.85.62,0,1.23a3.7,3.7,0,0,0-2.46,2.46q-.62,1.85-1.23,0a3.7,3.7,0,0,0-2.46-2.46q-1.85-.62,0-1.23a3.7,3.7,0,0,0,2.46-2.46Q58,30.08,58.62,31.92Z"/><path class="cls-9" d="M96.62,74.92a3.7,3.7,0,0,0,2.46,2.46q1.85.62,0,1.23a3.7,3.7,0,0,0-2.46,2.46q-.62,1.85-1.23,0a3.7,3.7,0,0,0-2.46-2.46q-1.85-.62,0-1.23a3.7,3.7,0,0,0,2.46-2.46Q96,73.08,96.62,74.92Z"/><polygon class="cls-26" points="80.35 109.35 69.82 125 74.56 102.28 80.35 109.35"/><polygon class="cls-26" points="84.45 103.26 80.35 109.35 74.56 102.28 84.45 103.26"/><polygon class="cls-26" points="89.22 109.08 80.61 109.66 80.35 109.35 84.45 103.26 89.22 109.08"/><polygon class="cls-9" points="89.22 109.08 86.97 117.42 80.61 109.66 89.22 109.08"/><polygon class="cls-26" points="94 114.9 87.23 117.73 86.97 117.42 89.22 109.08 94 114.9"/><polygon class="cls-27" points="86.97 117.42 87.23 117.73 69.82 125 80.35 109.35 80.61 109.66 86.97 117.42"/><polygon class="cls-26" points="93.02 124.79 69.82 125 87.23 117.73 93.02 124.79"/><polygon class="cls-26" points="93.02 124.79 87.23 117.73 94 114.9 93.02 124.79"/><path class="cls-10" d="M93,125.79a1,1,0,0,1-.77-.37L73.79,102.92a1,1,0,0,1-.11-1.11,1,1,0,0,1,1-.52l9.89,1a1,1,0,0,1,.67.36l9.55,11.64A1,1,0,0,1,95,115l-1,9.89a1,1,0,0,1-1,.9ZM76.86,103.52l15.4,18.78.7-7.08-9-11Z"/><path class="cls-10" d="M69.82,126a1,1,0,0,1-.83-1.56L83.62,102.7a1,1,0,0,1,1.66,1.12L70.65,125.56A1,1,0,0,1,69.82,126Z"/><path class="cls-10" d="M80.61,110.66a1,1,0,0,1-.07-2l8.62-.58a1,1,0,1,1,.13,2l-8.62.58Z"/><path class="cls-10" d="M87,118.42a1,1,0,0,1-.26,0,1,1,0,0,1-.71-1.23l2.25-8.34a1,1,0,0,1,1.93.52l-2.25,8.34A1,1,0,0,1,87,118.42Z"/><path class="cls-10" d="M69.82,126a1,1,0,0,1-.39-1.92L93.61,114a1,1,0,0,1,.77,1.85l-24.18,10.1A1,1,0,0,1,69.82,126Z"/><path class="cls-10" d="M69.82,126a1,1,0,0,1-1-1.2l4.74-22.72a1,1,0,1,1,2,.41L71.05,124l22-.2h0a1,1,0,0,1,0,2l-23.2.21Z"/><path class="cls-9" d="M92.81,103.94a4.89,4.89,0,0,0,3.25,3.25q2.44.81,0,1.63a4.89,4.89,0,0,0-3.25,3.25q-.81,2.44-1.63,0a4.89,4.89,0,0,0-3.25-3.25q-2.44-.81,0-1.63a4.89,4.89,0,0,0,3.25-3.25Q92,101.5,92.81,103.94Z"/></svg>