<?xml version="1.0" ?><svg data-name="003" id="_003" viewBox="0 0 128 128" xmlns="http://www.w3.org/2000/svg" xmlns:xlink="http://www.w3.org/1999/xlink"><defs><style>.cls-1{fill:none;}.cls-2{opacity:0.3;}.cls-3{fill:#97c1ff;}.cls-4{clip-path:url(#clip-path);}.cls-5{fill:#fff27d;}.cls-6{fill:#fffad1;}.cls-7{fill:#96d7ff;}.cls-8{fill:#c7e9ff;}.cls-9{fill:#fff;}.cls-10{fill:#6d6daa;}.cls-11{fill:#d6b5b0;}.cls-11,.cls-12,.cls-13,.cls-14{fill-rule:evenodd;}.cls-12{fill:#b1f1a8;}.cls-13{fill:#48bc33;}.cls-14{fill:#585889;stroke:#6d6daa;stroke-linecap:round;stroke-linejoin:round;stroke-width:2px;}.cls-15{fill:#eef6ff;}.cls-16{fill:#5cbeff;}.cls-17{fill:#7690a8;}.cls-18{fill:#939fc6;}.cls-19{fill:#c9c1f5;}.cls-20{fill:#5b58bc;}.cls-21{opacity:0.5;}.cls-22{fill:#554dad;}.cls-23{fill:#ced8ee;}</style><clipPath id="clip-path"><path class="cls-1" d="M116,48a39,39,0,1,0-77-12.09A20.62,20.62,0,0,1,23.54,52.71a30.75,30.75,0,0,0,14.29,59.81c12.7-2.8,26-.68,36.71,6.72a33.75,33.75,0,0,0,47.07-46.8A33.63,33.63,0,0,1,116,48Z"/></clipPath></defs><title/><g class="cls-2"><path class="cls-3" d="M116,48a39,39,0,1,0-77-12.09A20.62,20.62,0,0,1,23.54,52.71a30.75,30.75,0,1,0,22,57c7.61-4,17-2.68,22.64,3.84A33.75,33.75,0,0,0,121.6,72.44,33.63,33.63,0,0,1,116,48Z"/><g class="cls-4"><rect class="cls-5" height="10" width="126" x="1" y="118.02"/><rect class="cls-6" height="10" width="126" x="1" y="108.01"/><rect class="cls-7" height="20" width="126" x="1" y="88.01"/><rect class="cls-8" height="10" width="126" x="1" y="98.01"/><path class="cls-9" d="M26,96.14a3.1,3.1,0,0,1-2.21-.91,1.12,1.12,0,0,0-1.59,0,3.2,3.2,0,0,1-4.41,0,1.12,1.12,0,0,0-1.59,0,1,1,0,0,1-1.41-1.42,3.13,3.13,0,0,1,4.41,0,1.15,1.15,0,0,0,1.59,0,3.13,3.13,0,0,1,4.41,0,1.15,1.15,0,0,0,1.59,0,3.13,3.13,0,0,1,4.41,0,1,1,0,0,1-1.41,1.41,1.12,1.12,0,0,0-1.59,0A3.1,3.1,0,0,1,26,96.14Z"/><path class="cls-9" d="M67,96.14a3.1,3.1,0,0,1-2.21-.91,1.12,1.12,0,0,0-1.59,0,3.19,3.19,0,0,1-4.41,0,1.12,1.12,0,0,0-1.59,0,1,1,0,0,1-1.41-1.41,3.13,3.13,0,0,1,4.41,0,1.15,1.15,0,0,0,1.59,0,3.13,3.13,0,0,1,4.41,0,1.15,1.15,0,0,0,1.59,0,3.13,3.13,0,0,1,4.41,0,1,1,0,1,1-1.41,1.42,1.12,1.12,0,0,0-1.59,0A3.1,3.1,0,0,1,67,96.14Z"/><path class="cls-9" d="M16,103.14a3.11,3.11,0,0,1-2.21-.91,1.15,1.15,0,0,0-1.59,0,3.13,3.13,0,0,1-4.41,0,1,1,0,1,1,1.41-1.41,1.12,1.12,0,0,0,1.59,0,3.2,3.2,0,0,1,4.41,0,1.12,1.12,0,0,0,1.59,0,1,1,0,0,1,1.41,1.42A3.11,3.11,0,0,1,16,103.14Z"/><path class="cls-9" d="M109,96.13a3.11,3.11,0,0,1-2.21-.91,1,1,0,0,1,1.41-1.41,1.15,1.15,0,0,0,1.59,0,3.13,3.13,0,0,1,4.41,0,1.15,1.15,0,0,0,1.59,0,1,1,0,0,1,1.41,1.41,3.13,3.13,0,0,1-4.41,0,1.12,1.12,0,0,0-1.59,0A3.12,3.12,0,0,1,109,96.13Z"/><path class="cls-9" d="M87,104.14a3.1,3.1,0,0,1-2.21-.91,1.15,1.15,0,0,0-1.59,0,3.2,3.2,0,0,1-4.41,0,1,1,0,1,1,1.41-1.41,1.15,1.15,0,0,0,1.59,0,3.2,3.2,0,0,1,4.42,0,1.15,1.15,0,0,0,1.58,0,1,1,0,1,1,1.42,1.41A3.1,3.1,0,0,1,87,104.14Z"/><path class="cls-9" d="M117,104.14a3.1,3.1,0,0,1-2.21-.91,1.15,1.15,0,0,0-1.58,0,3.2,3.2,0,0,1-4.42,0,1.15,1.15,0,0,0-1.58,0,3.2,3.2,0,0,1-4.42,0,1.15,1.15,0,0,0-1.58,0,1,1,0,1,1-1.42-1.41,3.19,3.19,0,0,1,4.41,0,1.15,1.15,0,0,0,1.59,0,3.19,3.19,0,0,1,4.41,0,1.15,1.15,0,0,0,1.59,0,3.19,3.19,0,0,1,4.41,0,1.15,1.15,0,0,0,1.59,0,3.19,3.19,0,0,1,4.41,0,1,1,0,0,1-1.41,1.41,1.15,1.15,0,0,0-1.59,0A3.1,3.1,0,0,1,117,104.14Z"/><path class="cls-9" d="M47,104.14a3.1,3.1,0,0,1-2.21-.91,1.15,1.15,0,0,0-1.59,0,3.2,3.2,0,0,1-4.41,0,1.15,1.15,0,0,0-1.59,0,3.2,3.2,0,0,1-4.41,0,1.15,1.15,0,0,0-1.59,0,1,1,0,0,1-1.41-1.41,3.2,3.2,0,0,1,4.41,0,1.15,1.15,0,0,0,1.58,0,3.2,3.2,0,0,1,4.42,0,1.15,1.15,0,0,0,1.58,0,3.2,3.2,0,0,1,4.42,0,1.15,1.15,0,0,0,1.58,0,3.2,3.2,0,0,1,4.42,0,1,1,0,1,1-1.42,1.41,1.15,1.15,0,0,0-1.59,0A3.1,3.1,0,0,1,47,104.14Z"/><path class="cls-10" d="M127,89H1a1,1,0,0,1,0-2H127a1,1,0,0,1,0,2Z"/><path class="cls-10" d="M127,109H1a1,1,0,0,1,0-2H127a1,1,0,0,1,0,2Z"/><path class="cls-11" d="M97.72,26.06a3.44,3.44,0,0,0-1.12,3.41,6.09,6.09,0,0,0,1.12,3,3.44,3.44,0,0,0-1.12,3.41,6.09,6.09,0,0,0,1.12,3,3.44,3.44,0,0,0-1.12,3.41,6.09,6.09,0,0,0,1.12,3,3.44,3.44,0,0,0-1.12,3.41,6.09,6.09,0,0,0,1.12,3A3.44,3.44,0,0,0,96.6,55a6.09,6.09,0,0,0,1.12,3,3.44,3.44,0,0,0-1.12,3.41,6.09,6.09,0,0,0,1.12,3,3.44,3.44,0,0,0-1.12,3.41,6.09,6.09,0,0,0,1.12,3,3.44,3.44,0,0,0-1.12,3.41,6.09,6.09,0,0,0,1.12,3,3.44,3.44,0,0,0-1.12,3.41,6.09,6.09,0,0,0,1.12,3,3.12,3.12,0,0,0-1.17,2.57c0,.06,0,.11,0,.17a5.31,5.31,0,0,0,0,.55c0,.06,0,.11,0,.17a6.09,6.09,0,0,0,1.12,3,3.44,3.44,0,0,0-1.12,3.41,6.09,6.09,0,0,0,1.12,3,3.44,3.44,0,0,0-1.12,3.41,6.09,6.09,0,0,0,1.12,3,3.44,3.44,0,0,0-1.12,3.41,6.09,6.09,0,0,0,1.12,3,3.44,3.44,0,0,0-1.12,3.41,6.09,6.09,0,0,0,1.12,3,3.44,3.44,0,0,0-1.12,3.41,7.46,7.46,0,0,0,.6,2.11h5.69a7.46,7.46,0,0,0,.6-2.11,3.44,3.44,0,0,0-1.12-3.41,6.09,6.09,0,0,0,1.12-3,3.44,3.44,0,0,0-1.12-3.41,6.09,6.09,0,0,0,1.12-3,3.44,3.44,0,0,0-1.12-3.41,6.09,6.09,0,0,0,1.12-3,3.44,3.44,0,0,0-1.12-3.41,6.09,6.09,0,0,0,1.12-3A3.44,3.44,0,0,0,102.37,90a6.09,6.09,0,0,0,1.12-3c0-.06,0-.11,0-.17a5.31,5.31,0,0,0,0-.55c0-.06,0-.11,0-.17a3.12,3.12,0,0,0-1.17-2.57,6.09,6.09,0,0,0,1.12-3,3.44,3.44,0,0,0-1.12-3.41,6.09,6.09,0,0,0,1.12-3,3.44,3.44,0,0,0-1.12-3.41,6.09,6.09,0,0,0,1.12-3,3.44,3.44,0,0,0-1.12-3.41,6.09,6.09,0,0,0,1.12-3A3.44,3.44,0,0,0,102.37,58a6.09,6.09,0,0,0,1.12-3,3.44,3.44,0,0,0-1.12-3.41,6.09,6.09,0,0,0,1.12-3,3.44,3.44,0,0,0-1.12-3.41,6.09,6.09,0,0,0,1.12-3,3.44,3.44,0,0,0-1.12-3.41,6.09,6.09,0,0,0,1.12-3,3.44,3.44,0,0,0-1.12-3.41,6.09,6.09,0,0,0,1.12-3,3.44,3.44,0,0,0-1.12-3.41,6.09,6.09,0,0,0,1.12-3c.32-2.2-.68-4.06-3.42-4.06h0c-2.74,0-3.74,1.86-3.42,4.06A6.09,6.09,0,0,0,97.72,26.06Z"/><path class="cls-10" d="M102.89,122H97.2a1,1,0,0,1-.91-.58,8.51,8.51,0,0,1-.68-2.39,4.74,4.74,0,0,1,.82-3.69,8.13,8.13,0,0,1-.82-2.7,4.74,4.74,0,0,1,.82-3.69,8.14,8.14,0,0,1-.82-2.7,4.74,4.74,0,0,1,.82-3.69,8.14,8.14,0,0,1-.82-2.7,4.74,4.74,0,0,1,.82-3.69,8.14,8.14,0,0,1-.82-2.7,4.74,4.74,0,0,1,.82-3.69,8.14,8.14,0,0,1-.82-2.7s0-.16,0-.19c0-.22,0-.43,0-.65v-.21a4.37,4.37,0,0,1,.88-2.68,8.15,8.15,0,0,1-.82-2.7A4.74,4.74,0,0,1,96.44,77a8.13,8.13,0,0,1-.82-2.7,4.74,4.74,0,0,1,.82-3.69,8.13,8.13,0,0,1-.82-2.7,4.74,4.74,0,0,1,.82-3.69,8.14,8.14,0,0,1-.82-2.7,4.74,4.74,0,0,1,.82-3.69,8.14,8.14,0,0,1-.82-2.7,4.74,4.74,0,0,1,.82-3.69,8.13,8.13,0,0,1-.82-2.7,4.74,4.74,0,0,1,.82-3.69,8.14,8.14,0,0,1-.82-2.7,4.74,4.74,0,0,1,.82-3.69,8.14,8.14,0,0,1-.82-2.7,4.74,4.74,0,0,1,.82-3.69,8.14,8.14,0,0,1-.82-2.7,4.74,4.74,0,0,1,.82-3.69,8.13,8.13,0,0,1-.82-2.7,4.69,4.69,0,0,1,.92-3.81A4.38,4.38,0,0,1,100,18h0a4.38,4.38,0,0,1,3.49,1.4,4.69,4.69,0,0,1,.92,3.81,8.14,8.14,0,0,1-.82,2.7,4.74,4.74,0,0,1,.82,3.69,8.15,8.15,0,0,1-.82,2.7,4.74,4.74,0,0,1,.82,3.69,8.15,8.15,0,0,1-.82,2.7,4.74,4.74,0,0,1,.82,3.69,8.15,8.15,0,0,1-.82,2.7,4.74,4.74,0,0,1,.82,3.69,8.15,8.15,0,0,1-.82,2.7,4.74,4.74,0,0,1,.82,3.69,8.16,8.16,0,0,1-.82,2.7,4.74,4.74,0,0,1,.82,3.69,8.15,8.15,0,0,1-.82,2.7,4.74,4.74,0,0,1,.82,3.69,8.14,8.14,0,0,1-.82,2.7,4.74,4.74,0,0,1,.82,3.69,8.13,8.13,0,0,1-.82,2.7,4.74,4.74,0,0,1,.82,3.69,8.15,8.15,0,0,1-.83,2.7,4.4,4.4,0,0,1,.89,2.69v.2a6.48,6.48,0,0,1,0,.65,1.49,1.49,0,0,1,0,.19,8.14,8.14,0,0,1-.82,2.7,4.74,4.74,0,0,1,.82,3.69,8.15,8.15,0,0,1-.82,2.7,4.74,4.74,0,0,1,.82,3.69,8.15,8.15,0,0,1-.82,2.7,4.74,4.74,0,0,1,.82,3.69,8.15,8.15,0,0,1-.82,2.7,4.74,4.74,0,0,1,.82,3.69,8.15,8.15,0,0,1-.82,2.7,4.74,4.74,0,0,1,.82,3.69,8.52,8.52,0,0,1-.68,2.39A1,1,0,0,1,102.89,122Zm-5-2h4.33a7.32,7.32,0,0,0,.29-1.25,2.57,2.57,0,0,0-.73-2.46,1,1,0,0,1-.18-1.43,5.14,5.14,0,0,0,.91-2.49,2.57,2.57,0,0,0-.72-2.46,1,1,0,0,1-.18-1.43,5.15,5.15,0,0,0,.91-2.49,2.57,2.57,0,0,0-.73-2.46,1,1,0,0,1-.18-1.43,5.15,5.15,0,0,0,.91-2.49,2.57,2.57,0,0,0-.72-2.46,1,1,0,0,1-.18-1.43,5.16,5.16,0,0,0,.91-2.49,2.57,2.57,0,0,0-.72-2.46,1,1,0,0,1-.18-1.43,5.15,5.15,0,0,0,.91-2.49,1.1,1.1,0,0,1,0-.14,4.23,4.23,0,0,0,0-.45v-.13a2.2,2.2,0,0,0-.77-1.79,1,1,0,0,1-.18-1.43,5.15,5.15,0,0,0,.91-2.49,2.57,2.57,0,0,0-.72-2.46,1,1,0,0,1-.18-1.43A5.15,5.15,0,0,0,102.5,74a2.57,2.57,0,0,0-.72-2.46,1,1,0,0,1-.18-1.43,5.14,5.14,0,0,0,.91-2.49,2.57,2.57,0,0,0-.72-2.46,1,1,0,0,1-.18-1.43,5.15,5.15,0,0,0,.91-2.49,2.57,2.57,0,0,0-.72-2.46,1,1,0,0,1-.18-1.43,5.16,5.16,0,0,0,.91-2.49,2.57,2.57,0,0,0-.73-2.46,1,1,0,0,1-.18-1.43,5.14,5.14,0,0,0,.91-2.49,2.57,2.57,0,0,0-.72-2.46,1,1,0,0,1-.18-1.43,5.15,5.15,0,0,0,.91-2.49,2.57,2.57,0,0,0-.73-2.46,1,1,0,0,1-.18-1.43,5.15,5.15,0,0,0,.91-2.49,2.57,2.57,0,0,0-.72-2.46,1,1,0,0,1-.18-1.43,5.16,5.16,0,0,0,.91-2.49,2.57,2.57,0,0,0-.72-2.46,1,1,0,0,1-.18-1.43,5.14,5.14,0,0,0,.91-2.49,2.76,2.76,0,0,0-.45-2.21A2.48,2.48,0,0,0,100.1,20H100a2.48,2.48,0,0,0-1.94.71,2.75,2.75,0,0,0-.45,2.21,5.14,5.14,0,0,0,.91,2.49,1,1,0,0,1-.18,1.43,2.57,2.57,0,0,0-.72,2.46,5.15,5.15,0,0,0,.91,2.49,1,1,0,0,1-.18,1.43,2.57,2.57,0,0,0-.72,2.46,5.14,5.14,0,0,0,.91,2.49,1,1,0,0,1-.18,1.43,2.57,2.57,0,0,0-.72,2.46,5.14,5.14,0,0,0,.91,2.49A1,1,0,0,1,98.32,46a2.57,2.57,0,0,0-.72,2.46A5.14,5.14,0,0,0,98.5,51a1,1,0,0,1-.18,1.43,2.57,2.57,0,0,0-.72,2.46,5.15,5.15,0,0,0,.91,2.49,1,1,0,0,1-.18,1.43,2.57,2.57,0,0,0-.72,2.46,5.14,5.14,0,0,0,.91,2.49,1,1,0,0,1-.18,1.43,2.57,2.57,0,0,0-.72,2.46,5.14,5.14,0,0,0,.91,2.49,1,1,0,0,1-.18,1.43A2.57,2.57,0,0,0,97.59,74a5.14,5.14,0,0,0,.91,2.49,1,1,0,0,1-.18,1.43,2.57,2.57,0,0,0-.72,2.46,5.14,5.14,0,0,0,.91,2.49,1,1,0,0,1-.18,1.43,2.2,2.2,0,0,0-.77,1.78v.14a4.07,4.07,0,0,0,0,.43s0,.13,0,.16a5.11,5.11,0,0,0,.9,2.48,1,1,0,0,1-.18,1.43,2.57,2.57,0,0,0-.72,2.46,5.15,5.15,0,0,0,.91,2.49,1,1,0,0,1-.18,1.43,2.57,2.57,0,0,0-.72,2.46,5.14,5.14,0,0,0,.91,2.49,1,1,0,0,1-.18,1.43,2.57,2.57,0,0,0-.72,2.46,5.14,5.14,0,0,0,.91,2.49,1,1,0,0,1-.18,1.43,2.57,2.57,0,0,0-.72,2.46,5.14,5.14,0,0,0,.91,2.49,1,1,0,0,1-.18,1.43,2.57,2.57,0,0,0-.72,2.46A7.29,7.29,0,0,0,97.88,120Z"/><path class="cls-10" d="M104.89,122H95.2a1,1,0,0,1,0-2h9.69a1,1,0,0,1,0,2Z"/><path class="cls-11" d="M25.71,58.06a3.44,3.44,0,0,0-1.12,3.41,6.09,6.09,0,0,0,1.12,3,3.44,3.44,0,0,0-1.12,3.41,6.09,6.09,0,0,0,1.12,3,3.44,3.44,0,0,0-1.12,3.41,6.09,6.09,0,0,0,1.12,3,3.44,3.44,0,0,0-1.12,3.41,6.09,6.09,0,0,0,1.12,3A3.44,3.44,0,0,0,24.6,87a6.09,6.09,0,0,0,1.12,3A3.44,3.44,0,0,0,24.6,93.4a6.09,6.09,0,0,0,1.12,3,3.44,3.44,0,0,0-1.12,3.41,6.09,6.09,0,0,0,1.12,3,3.44,3.44,0,0,0-1.12,3.41,6.09,6.09,0,0,0,1.12,3,3.44,3.44,0,0,0-1.12,3.41,6.91,6.91,0,0,0,.78,2.48H30.7a6.91,6.91,0,0,0,.78-2.48,3.44,3.44,0,0,0-1.12-3.41,6.09,6.09,0,0,0,1.12-3,3.44,3.44,0,0,0-1.12-3.41,6.09,6.09,0,0,0,1.12-3,3.44,3.44,0,0,0-1.12-3.41,6.09,6.09,0,0,0,1.12-3A3.44,3.44,0,0,0,30.36,90a6.09,6.09,0,0,0,1.12-3,3.44,3.44,0,0,0-1.12-3.41,6.09,6.09,0,0,0,1.12-3,3.44,3.44,0,0,0-1.12-3.41,6.09,6.09,0,0,0,1.12-3,3.44,3.44,0,0,0-1.12-3.41,6.09,6.09,0,0,0,1.12-3,3.44,3.44,0,0,0-1.12-3.41,6.09,6.09,0,0,0,1.12-3,3.44,3.44,0,0,0-1.12-3.41,6.09,6.09,0,0,0,1.12-3c.32-2.2-.68-4.06-3.42-4.06h0c-2.74,0-3.74,1.86-3.42,4.06A6.09,6.09,0,0,0,25.71,58.06Z"/><path class="cls-10" d="M30.7,116H25.38a1,1,0,0,1-.87-.5,7.92,7.92,0,0,1-.91-2.84,4.75,4.75,0,0,1,.82-3.69,8.15,8.15,0,0,1-.82-2.7,4.74,4.74,0,0,1,.82-3.69,8.15,8.15,0,0,1-.82-2.7,4.75,4.75,0,0,1,.82-3.69,8.15,8.15,0,0,1-.82-2.7,4.75,4.75,0,0,1,.82-3.69,8.15,8.15,0,0,1-.82-2.7,4.75,4.75,0,0,1,.82-3.69,8.15,8.15,0,0,1-.82-2.7,4.75,4.75,0,0,1,.82-3.69,8.15,8.15,0,0,1-.82-2.7,4.74,4.74,0,0,1,.82-3.69,8.15,8.15,0,0,1-.82-2.7,4.75,4.75,0,0,1,.82-3.69,8.15,8.15,0,0,1-.82-2.7,4.74,4.74,0,0,1,.82-3.69,8.16,8.16,0,0,1-.82-2.7,4.69,4.69,0,0,1,.92-3.81A4.38,4.38,0,0,1,28,50h0a4.38,4.38,0,0,1,3.49,1.4,4.69,4.69,0,0,1,.92,3.81,8.14,8.14,0,0,1-.82,2.7,4.74,4.74,0,0,1,.82,3.69,8.14,8.14,0,0,1-.82,2.7A4.74,4.74,0,0,1,32.47,68a8.14,8.14,0,0,1-.82,2.7,4.74,4.74,0,0,1,.82,3.69,8.14,8.14,0,0,1-.82,2.7,4.74,4.74,0,0,1,.82,3.69,8.14,8.14,0,0,1-.82,2.7,4.74,4.74,0,0,1,.82,3.69,8.14,8.14,0,0,1-.82,2.7,4.74,4.74,0,0,1,.82,3.69,8.14,8.14,0,0,1-.82,2.7,4.74,4.74,0,0,1,.82,3.69,8.14,8.14,0,0,1-.82,2.7,4.74,4.74,0,0,1,.82,3.69,8.14,8.14,0,0,1-.82,2.7,4.74,4.74,0,0,1,.82,3.69,7.89,7.89,0,0,1-.91,2.84A1,1,0,0,1,30.7,116ZM26,114h4.07a6.89,6.89,0,0,0,.42-1.62,2.57,2.57,0,0,0-.72-2.46,1,1,0,0,1-.18-1.43,5.15,5.15,0,0,0,.91-2.49,2.57,2.57,0,0,0-.72-2.46,1,1,0,0,1-.18-1.43,5.15,5.15,0,0,0,.91-2.49,2.57,2.57,0,0,0-.72-2.46,1,1,0,0,1-.18-1.43,5.15,5.15,0,0,0,.91-2.49,2.57,2.57,0,0,0-.72-2.46,1,1,0,0,1-.18-1.43,5.15,5.15,0,0,0,.91-2.49,2.57,2.57,0,0,0-.72-2.46A1,1,0,0,1,29.59,83a5.16,5.16,0,0,0,.91-2.49A2.57,2.57,0,0,0,29.77,78a1,1,0,0,1-.18-1.43,5.15,5.15,0,0,0,.91-2.49,2.57,2.57,0,0,0-.72-2.46,1,1,0,0,1-.18-1.43,5.15,5.15,0,0,0,.91-2.49,2.57,2.57,0,0,0-.72-2.46,1,1,0,0,1-.18-1.43,5.15,5.15,0,0,0,.91-2.49,2.57,2.57,0,0,0-.72-2.46,1,1,0,0,1-.18-1.43,5.15,5.15,0,0,0,.91-2.49A2.75,2.75,0,0,0,30,52.73a2.5,2.5,0,0,0-2-.71h-.14a2.44,2.44,0,0,0-1.89.71,2.75,2.75,0,0,0-.45,2.21,5.14,5.14,0,0,0,.91,2.49,1,1,0,0,1-.18,1.43,2.57,2.57,0,0,0-.72,2.46,5.14,5.14,0,0,0,.91,2.49,1,1,0,0,1-.18,1.43,2.57,2.57,0,0,0-.72,2.46,5.14,5.14,0,0,0,.91,2.49,1,1,0,0,1-.18,1.43,2.57,2.57,0,0,0-.72,2.46,5.15,5.15,0,0,0,.91,2.49A1,1,0,0,1,26.31,78a2.57,2.57,0,0,0-.72,2.46A5.15,5.15,0,0,0,26.49,83a1,1,0,0,1-.18,1.43,2.57,2.57,0,0,0-.72,2.46,5.14,5.14,0,0,0,.91,2.49,1,1,0,0,1-.18,1.43,2.57,2.57,0,0,0-.72,2.46,5.14,5.14,0,0,0,.91,2.49,1,1,0,0,1-.18,1.43,2.57,2.57,0,0,0-.72,2.46,5.14,5.14,0,0,0,.91,2.49,1,1,0,0,1-.18,1.43,2.57,2.57,0,0,0-.72,2.46,5.14,5.14,0,0,0,.91,2.49,1,1,0,0,1-.18,1.43,2.57,2.57,0,0,0-.72,2.46A6.88,6.88,0,0,0,26,114Z"/><path class="cls-10" d="M32.7,116H23.38a1,1,0,1,1,0-2H32.7a1,1,0,0,1,0,2Z"/><path class="cls-9" d="M60,50a1,1,0,0,1-.92-.62A1,1,0,0,1,59,49a1,1,0,0,1,.3-.71,1,1,0,0,1,1.41,0A1,1,0,0,1,61,49a1,1,0,0,1-.07.38,1.19,1.19,0,0,1-.22.33A1,1,0,0,1,60,50Z"/><path class="cls-9" d="M88,46H74a1,1,0,0,1,0-2H88a1,1,0,0,1,0,2Z"/><path class="cls-9" d="M79,50H64a1,1,0,0,1,0-2H79a1,1,0,0,1,0,2Z"/><path class="cls-9" d="M86,54H66a1,1,0,0,1,0-2H86a1,1,0,0,1,0,2Z"/><path class="cls-9" d="M78,58H70a1,1,0,0,1,0-2h8a1,1,0,0,1,0,2Z"/><path class="cls-9" d="M111,66a.84.84,0,0,1-.38-.08.93.93,0,0,1-.33-.21,1,1,0,0,1,0-1.42.93.93,0,0,1,.33-.21,1,1,0,0,1,1.09.21A1,1,0,0,1,111,66Z"/><path class="cls-9" d="M123,70h-6a1,1,0,0,1,0-2h6a1,1,0,0,1,0,2Z"/><path class="cls-9" d="M124,66h-9a1,1,0,0,1,0-2h9a1,1,0,0,1,0,2Z"/><path class="cls-9" d="M113,70h-4a1,1,0,0,1,0-2h4a1,1,0,0,1,0,2Z"/></g><path class="cls-12" d="M36.29,35.9a55.2,55.2,0,0,0-8.27.82,55.2,55.2,0,0,0-8.27-.82c-9.16-.25-16.65,1.53-16.73,4s7.29,4.61,16.45,4.86a54.77,54.77,0,0,0,8.55-.4,54.77,54.77,0,0,0,8.55.4C45.73,44.48,53.1,42.3,53,39.86S45.46,35.65,36.29,35.9Z"/><g class="cls-2"><path class="cls-13" d="M51.21,37.95c-2.72,1.49-8.24,2.6-14.64,2.77a54.77,54.77,0,0,1-8.55-.4,54.77,54.77,0,0,1-8.55.4c-6.4-.17-11.92-1.29-14.64-2.77C3.7,38.51,3,39.16,3,39.86c-.08,2.44,7.29,4.61,16.45,4.86a54.78,54.78,0,0,0,8.55-.4,54.78,54.78,0,0,0,8.55.4C45.73,44.48,53.1,42.3,53,39.86,53,39.16,52.34,38.51,51.21,37.95Z"/></g><path class="cls-10" d="M21.12,45.74l-1.68,0c-7.88-.21-14.56-1.83-16.63-4A2.58,2.58,0,0,1,2,39.83c.11-3.72,9.29-5.16,17.75-4.94a56.91,56.91,0,0,1,8.25.8,56.93,56.93,0,0,1,8.25-.8l0,1,0-1c8.46-.23,17.64,1.22,17.75,4.94a2.58,2.58,0,0,1-.79,1.87c-2.07,2.19-8.75,3.81-16.63,4A56.23,56.23,0,0,1,28,45.33,54.44,54.44,0,0,1,21.12,45.74ZM28,43.32h.13a54,54,0,0,0,8.39.4c8.1-.22,13.8-1.87,15.23-3.39A.75.75,0,0,0,52,39.9c0-1.21-6-3.26-15.7-3h0a54.59,54.59,0,0,0-8.12.8,1,1,0,0,1-.36,0,54.57,54.57,0,0,0-8.12-.8c-9.67-.26-15.66,1.8-15.7,3a.75.75,0,0,0,.25.44c1.44,1.52,7.13,3.17,15.23,3.39a54.09,54.09,0,0,0,8.39-.4Z"/><path class="cls-12" d="M43.69,44.4c-6.77-5.9-13.79-9-15.66-7h0c-1.88-2-8.89,1.13-15.66,7S1.61,56.71,3.49,58.73s8.89-1.13,15.66-7c4.48-3.91,7.73-8,8.87-11,1.14,2.93,4.39,7.06,8.87,11,6.77,5.9,13.79,9,15.66,7S50.46,50.3,43.69,44.4Z"/><g class="cls-2"><path class="cls-13" d="M36.89,47.7c-4.26-3.71-7.37-7.6-8.66-10.49a1.61,1.61,0,0,0-.21.16h0a1.61,1.61,0,0,0-.21-.16C26.52,40.1,23.41,44,19.15,47.7c-6.58,5.73-13.37,8.85-15.47,7.18-.78,1.73-.89,3.1-.19,3.85,1.88,2,8.89-1.13,15.66-7,4.48-3.91,7.73-8,8.87-11,1.14,2.93,4.39,7.06,8.87,11,6.77,5.9,13.79,9,15.66,7,.7-.75.58-2.12-.19-3.85C50.26,56.55,43.47,53.43,36.89,47.7Z"/></g><path class="cls-10" d="M50.8,60.34c-3.63,0-9.54-3.51-14.57-7.88A39.63,39.63,0,0,1,28,43a39.65,39.65,0,0,1-8.21,9.44c-6.46,5.62-14.39,9.82-17.05,7A3,3,0,0,1,2,57.14c.17-3.23,4-8.53,9.67-13.49C17.65,38.47,24.84,34.5,28,36.14c3.18-1.64,10.38,2.33,16.32,7.51h0c5.71,5,9.5,10.26,9.67,13.49a3,3,0,0,1-.73,2.27A3.25,3.25,0,0,1,50.8,60.34ZM28,39.74a1,1,0,0,1,.93.64c1.13,2.88,4.42,6.93,8.6,10.57,7,6.13,13.16,8.3,14.27,7.1a1.09,1.09,0,0,0,.19-.81c-.12-2.22-3.24-7.09-9-12.09-7-6.13-13.16-8.3-14.27-7.1l0,0a1,1,0,0,1-1.45,0C26.13,36.86,20,39,13,45.15c-5.75,5-8.87,9.87-9,12.09a1.09,1.09,0,0,0,.19.81c1.12,1.2,7.23-1,14.27-7.1,4.18-3.64,7.47-7.69,8.6-10.57A1,1,0,0,1,28,39.74Z"/><path class="cls-12" d="M37.16,49.2c-2.1-5.21-4.76-9.42-7-11.48-1.53-1.28-2.81-1.28-4.26,0-2.26,2.06-4.91,6.28-7,11.49-3.23,8.07-3.9,15.44-1.5,16.46s7-4.68,10.22-12.75c.15-.37.29-.74.42-1.11.14.37.28.74.43,1.11C31.69,61,36.27,66.68,38.68,65.65S40.4,57.26,37.16,49.2Z"/><g class="cls-2"><path class="cls-13" d="M38.68,61.65c-2.41,1-7-4.67-10.24-12.73-.15-.37-.29-.74-.43-1.11-.14.37-.28.74-.42,1.11C24.35,57,19.78,62.7,17.37,61.67a2.74,2.74,0,0,1-1.3-2.21c-.39,3.3,0,5.66,1.3,6.21,2.41,1,7-4.68,10.22-12.75.15-.37.29-.74.42-1.11.14.37.28.74.43,1.11C31.69,61,36.27,66.68,38.68,65.65c1.28-.55,1.68-2.9,1.29-6.19A2.72,2.72,0,0,1,38.68,61.65Z"/></g><path class="cls-10" d="M18,66.79a2.53,2.53,0,0,1-1-.2c-3.46-1.47-2.13-10,1-17.75C20,43.66,22.73,39.23,25.2,37c1.83-1.62,3.65-1.63,5.57,0,2.5,2.27,5.23,6.7,7.31,11.87h0c3.1,7.7,4.44,16.27,1,17.75a2.87,2.87,0,0,1-2.28-.08c-2.71-1.12-6.09-5.77-8.77-12-2.67,6.23-6,10.88-8.75,12A3.34,3.34,0,0,1,18,66.79Zm10-29a2.26,2.26,0,0,0-1.45.72c-2.21,2-4.8,6.28-6.74,11.11-3.61,9-3.24,14.65-2,15.17a1.05,1.05,0,0,0,.73-.09c2-.82,5.41-5.24,8.17-12.11.14-.34.26-.67.39-1a1.06,1.06,0,0,1,1-.69h0a1,1,0,0,1,1,.61c.15.41.28.75.42,1.09,2.77,6.87,6.21,11.28,8.19,12.1a1,1,0,0,0,.73.08c1.21-.52,1.56-6.18-2.06-15.16-1.95-4.84-4.54-9.09-6.77-11.11A2.4,2.4,0,0,0,28,37.75Z"/><path class="cls-14" d="M9.08,58.36a8.62,8.62,0,0,0-1-3.21m6.31.27A9.47,9.47,0,0,0,12.74,51m5.92-1.23a6.58,6.58,0,0,0-1.1-3.81m3.57,18A6.61,6.61,0,0,0,19,60.78m5.42-1.44A10.32,10.32,0,0,0,21.77,55m5.58-1.49A10.58,10.58,0,0,0,24.52,49m-16-8.91A4.82,4.82,0,0,0,7,42.88m6.86-2.8a8.22,8.22,0,0,0-1.7,4M48,55.15a8.62,8.62,0,0,0-1,3.21M43.3,51a9.47,9.47,0,0,0-1.6,4.45m-3.22-9.5a6.58,6.58,0,0,0-1.1,3.81M37,60.78a6.61,6.61,0,0,0-2.09,3.11M34.27,55a10.32,10.32,0,0,0-2.69,4.34M31.53,49a10.58,10.58,0,0,0-2.84,4.52M49,42.88a4.82,4.82,0,0,0-1.46-2.8m-3.7,4a8.22,8.22,0,0,0-1.7-4M28,44.09v7.73"/><path class="cls-15" d="M65.08,19.21C65.36,13.94,61.33,8.62,53,10.1A12.25,12.25,0,0,0,36.85,6.71,12.23,12.23,0,0,0,24.5,9.4c-8.05-2.77-13.27,2.37-13.67,7.69-.42,5.57,3.23,8.29,5.78,8.59a5,5,0,0,0,3.19-.52,4.47,4.47,0,0,0,5.74,1.93c2.83,3.44,9.69,3.95,13,1.29a6.58,6.58,0,0,0,7.59.22,7.49,7.49,0,0,0,2.55-1.26c2.1,1.91,7.4,2.06,9.14-1.64C61.9,27.09,64.84,23.66,65.08,19.21Z"/><path class="cls-9" d="M24.5,13.4a12.23,12.23,0,0,1,12.36-2.69A12.25,12.25,0,0,1,53,14.1c7-1.25,11,2.34,11.87,6.65a10.29,10.29,0,0,0,.2-1.54C65.36,13.94,61.33,8.62,53,10.1A12.25,12.25,0,0,0,36.85,6.71,12.23,12.23,0,0,0,24.5,9.4c-8.05-2.77-13.27,2.37-13.67,7.69A10.22,10.22,0,0,0,11,20C12,15.07,17,10.83,24.5,13.4Z"/><g class="cls-2"><path class="cls-16" d="M57.86,21.69c-1.74,3.7-7,3.55-9.14,1.64a7.49,7.49,0,0,1-2.55,1.26,6.58,6.58,0,0,1-7.59-.22c-3.36,2.65-10.22,2.15-13-1.29a4.47,4.47,0,0,1-5.74-1.93,5,5,0,0,1-3.19.52A7,7,0,0,1,11,16a9,9,0,0,0-.17,1.13c-.42,5.57,3.23,8.29,5.78,8.59a5,5,0,0,0,3.19-.52,4.47,4.47,0,0,0,5.74,1.93c2.83,3.44,9.69,3.95,13,1.29a6.58,6.58,0,0,0,7.59.22,7.49,7.49,0,0,0,2.55-1.26c2.1,1.91,7.4,2.06,9.14-1.64,4,1.4,7-2,7.22-6.47a9.5,9.5,0,0,0-.2-2.46C64.12,20.4,61.42,22.92,57.86,21.69Z"/></g><path class="cls-10" d="M33,31.08a11.17,11.17,0,0,1-7.74-2.84,5.57,5.57,0,0,1-5.81-1.79,7,7,0,0,1-2.94.22c-3-.35-7.12-3.58-6.66-9.66A10.2,10.2,0,0,1,14.35,9.3a11.57,11.57,0,0,1,9.91-1A13.22,13.22,0,0,1,36.74,5.62a13.17,13.17,0,0,1,7.58-1.55A13.3,13.3,0,0,1,53.44,9c4.83-.7,7.8.86,9.45,2.32a9.77,9.77,0,0,1,3.19,7.92h0a8.63,8.63,0,0,1-3.35,6.79,5.53,5.53,0,0,1-4.38.8,6.24,6.24,0,0,1-4.1,2.64,7.8,7.8,0,0,1-5.55-.93,8.9,8.9,0,0,1-2.09.93,7.68,7.68,0,0,1-8.06.11A10.53,10.53,0,0,1,33,31.08Zm-7.44-5a1,1,0,0,1,.77.36C28.72,29.38,34.93,30,38,27.59a1,1,0,0,1,1.29,0,5.63,5.63,0,0,0,6.33.15,1,1,0,0,1,.31-.15,6.47,6.47,0,0,0,2.21-1.08,1,1,0,0,1,1.29,0,5.53,5.53,0,0,0,4.46.95A4.17,4.17,0,0,0,57,25.26a1,1,0,0,1,1.23-.52,3.69,3.69,0,0,0,3.43-.34,6.65,6.65,0,0,0,2.46-5.24h0a7.78,7.78,0,0,0-2.51-6.32c-2-1.77-4.9-2.37-8.39-1.75a1,1,0,0,1-1-.4,11.31,11.31,0,0,0-8.07-4.63,11.19,11.19,0,0,0-6.77,1.51,1,1,0,0,1-.83.08,11.23,11.23,0,0,0-11.35,2.47,1,1,0,0,1-1,.22C20,8.89,17.1,9.88,15.45,11a8.19,8.19,0,0,0-3.63,6.19c-.36,4.75,2.65,7.26,4.9,7.52a3.85,3.85,0,0,0,2.49-.33,1,1,0,0,1,1.5.4,3.48,3.48,0,0,0,4.45,1.41A1,1,0,0,1,25.54,26.08Zm39.54-6.86h0Z"/><path class="cls-10" d="M34.68,10.47a1,1,0,0,1-.94-1.35,10,10,0,0,1,2.41-3.31A1,1,0,0,1,37.49,7.3a8,8,0,0,0-1.87,2.52A1,1,0,0,1,34.68,10.47Z"/><path class="cls-10" d="M22.36,13.31A1,1,0,0,1,21.42,12a10,10,0,0,1,2.41-3.31,1,1,0,0,1,1.34,1.49,8,8,0,0,0-1.87,2.52A1,1,0,0,1,22.36,13.31Z"/><path class="cls-10" d="M54.09,15H54a1,1,0,0,1-.88-1.11,5.86,5.86,0,0,0-.94-3.21,1,1,0,1,1,1.66-1.11,7.79,7.79,0,0,1,1.26,4.54A1,1,0,0,1,54.09,15Z"/><path class="cls-10" d="M57.47,27.38a1,1,0,0,1-.85-1.53c.56-.89,1.3-3,.11-4.59a1,1,0,0,1,1.6-1.2c1.84,2.46.86,5.46,0,6.85A1,1,0,0,1,57.47,27.38Z"/><path class="cls-10" d="M48.73,28.33a1,1,0,0,1-.65-1.76,2,2,0,0,0,.25-1.62,1,1,0,1,1,1.71-1,3.75,3.75,0,0,1-.65,4.17A1,1,0,0,1,48.73,28.33Z"/><path class="cls-10" d="M38.58,29.37a1,1,0,0,1-.65-1.76A3.1,3.1,0,0,0,39,25.46a1,1,0,0,1,1-1,1,1,0,0,1,1,1,5,5,0,0,1-1.8,3.64A1,1,0,0,1,38.58,29.37Z"/><path class="cls-10" d="M19.92,26.34a1,1,0,0,1-.87-.51A5.14,5.14,0,0,1,19,20.74a1,1,0,0,1,1.73,1,3.15,3.15,0,0,0,.07,3.1,1,1,0,0,1-.87,1.49Z"/><path class="cls-10" d="M25.57,28.06a1,1,0,0,1-.92-.58,1,1,0,0,1,.48-1.31l0,0A5.07,5.07,0,0,0,27,24.9a1,1,0,0,1,1.55,1.27A6.84,6.84,0,0,1,26,28,1,1,0,0,1,25.57,28.06Z"/><path class="cls-12" d="M108.3,2.89a55.2,55.2,0,0,0-8.27.82,55.2,55.2,0,0,0-8.27-.82c-9.16-.25-16.65,1.53-16.73,4s7.29,4.61,16.45,4.86a54.77,54.77,0,0,0,8.55-.4,54.77,54.77,0,0,0,8.55.4c9.16-.25,16.53-2.42,16.45-4.86S117.46,2.65,108.3,2.89Z"/><g class="cls-2"><path class="cls-13" d="M123.22,4.94c-2.72,1.49-8.24,2.6-14.64,2.77a54.77,54.77,0,0,1-8.55-.4,54.77,54.77,0,0,1-8.55.4c-6.4-.17-11.92-1.29-14.64-2.77-1.13.56-1.79,1.21-1.81,1.92C75,9.3,82.32,11.47,91.48,11.72a54.78,54.78,0,0,0,8.55-.4,54.78,54.78,0,0,0,8.55.4c9.16-.25,16.53-2.42,16.45-4.86C125,6.15,124.35,5.51,123.22,4.94Z"/></g><path class="cls-10" d="M93.13,12.74l-1.67,0c-7.88-.21-14.56-1.83-16.63-4A2.58,2.58,0,0,1,74,6.83c.12-3.72,9.28-5.17,17.75-4.94a56.88,56.88,0,0,1,8.25.8,56.88,56.88,0,0,1,8.25-.8c8.48-.23,17.64,1.22,17.75,4.94a2.58,2.58,0,0,1-.79,1.87c-2.07,2.19-8.75,3.81-16.63,4a56.28,56.28,0,0,1-8.57-.4A54.52,54.52,0,0,1,93.13,12.74ZM90.07,3.87c-8.7,0-14,1.89-14,3a.75.75,0,0,0,.25.43c1.44,1.52,7.13,3.17,15.23,3.39a53.9,53.9,0,0,0,8.39-.4,1,1,0,0,1,.26,0,53.92,53.92,0,0,0,8.39.4c8.1-.22,13.8-1.87,15.23-3.39a.75.75,0,0,0,.25-.43c0-1.21-6-3.26-15.7-3h0a54.48,54.48,0,0,0-8.12.8,1,1,0,0,1-.36,0,54.48,54.48,0,0,0-8.12-.8Zm18.23-1h0Z"/><path class="cls-12" d="M115.7,11.4c-6.77-5.9-13.79-9-15.66-7h0c-1.88-2-8.89,1.13-15.66,7S73.62,23.71,75.49,25.73s8.89-1.13,15.66-7c4.48-3.91,7.73-8,8.87-11,1.14,2.93,4.39,7.06,8.87,11,6.77,5.9,13.79,9,15.66,7S122.47,17.29,115.7,11.4Z"/><g class="cls-2"><path class="cls-13" d="M108.9,14.7c-4.26-3.71-7.37-7.6-8.66-10.49a1.61,1.61,0,0,0-.21.16h0a1.61,1.61,0,0,0-.21-.16C98.53,7.1,95.41,11,91.16,14.7c-6.58,5.73-13.37,8.85-15.47,7.18-.78,1.73-.89,3.1-.19,3.85,1.88,2,8.89-1.13,15.66-7,4.48-3.91,7.73-8,8.87-11,1.14,2.93,4.39,7.06,8.87,11,6.77,5.9,13.79,9,15.66,7,.7-.75.58-2.12-.19-3.85C122.27,23.54,115.48,20.42,108.9,14.7Z"/></g><path class="cls-10" d="M122.81,27.33c-3.63,0-9.54-3.51-14.57-7.88A39.65,39.65,0,0,1,100,10a39.66,39.66,0,0,1-8.21,9.44c-6.46,5.62-14.39,9.82-17.05,7A3,3,0,0,1,74,24.14c.17-3.23,4-8.53,9.67-13.49C89.65,5.47,96.83,1.51,100,3.13c3.15-1.66,10.37,2.32,16.33,7.51,5.71,5,9.5,10.26,9.67,13.49a3,3,0,0,1-.73,2.27A3.25,3.25,0,0,1,122.81,27.33ZM98.26,4.74C96,4.74,90.81,7.11,85,12.15S76.15,22,76,24.24a1.09,1.09,0,0,0,.19.81c1.12,1.2,7.23-1,14.28-7.1,4.18-3.64,7.47-7.69,8.6-10.57a1,1,0,0,1,1.86,0c1.13,2.88,4.42,6.93,8.6,10.57,7,6.13,13.16,8.3,14.27,7.1a1.09,1.09,0,0,0,.19-.81c-.12-2.22-3.24-7.09-9-12.09h0C108,6,101.92,3.87,100.78,5l0,0a1,1,0,0,1-1.41,0l0,0A1.48,1.48,0,0,0,98.26,4.74Z"/><path class="cls-12" d="M109.16,16.19c-2.1-5.21-4.76-9.42-7-11.48-1.53-1.28-2.81-1.28-4.26,0C95.62,6.78,93,11,90.87,16.21c-3.23,8.07-3.9,15.44-1.5,16.46s7-4.68,10.22-12.75c.15-.37.29-.74.42-1.11.14.37.28.74.43,1.11,3.25,8.06,7.83,13.76,10.24,12.73S112.41,24.25,109.16,16.19Z"/><g class="cls-2"><path class="cls-13" d="M110.69,28.65c-2.41,1-7-4.67-10.24-12.73-.15-.37-.29-.74-.43-1.11-.14.37-.28.74-.42,1.11C96.36,24,91.79,29.69,89.38,28.67a2.74,2.74,0,0,1-1.3-2.21c-.39,3.3,0,5.66,1.3,6.21,2.41,1,7-4.68,10.22-12.75.15-.37.29-.74.42-1.11.14.37.28.74.43,1.11,3.25,8.06,7.83,13.76,10.24,12.73,1.28-.55,1.68-2.9,1.29-6.19A2.72,2.72,0,0,1,110.69,28.65Z"/></g><path class="cls-10" d="M90,33.79a2.53,2.53,0,0,1-1-.2c-3.45-1.47-2.13-10,1-17.75C92,10.66,94.74,6.22,97.21,4c1.84-1.62,3.65-1.63,5.57,0,2.5,2.27,5.23,6.7,7.31,11.87h0c3.1,7.7,4.44,16.27,1,17.75a2.87,2.87,0,0,1-2.28-.07c-2.71-1.12-6.09-5.77-8.77-12-2.67,6.23-6,10.88-8.75,12A3.34,3.34,0,0,1,90,33.79Zm10-29a2.26,2.26,0,0,0-1.45.72c-2.21,2-4.8,6.28-6.74,11.11-3.61,9-3.24,14.65-2,15.17a1,1,0,0,0,.73-.09c2-.82,5.41-5.24,8.17-12.11.14-.36.28-.71.41-1.07a1,1,0,0,1,.94-.66h0a1,1,0,0,1,.94.64c.16.42.28.75.42,1.09,2.77,6.87,6.21,11.28,8.19,12.1a1,1,0,0,0,.73.08c1.21-.52,1.56-6.18-2.06-15.17-1.95-4.84-4.54-9.09-6.77-11.11A2.4,2.4,0,0,0,100,4.75Z"/><path class="cls-14" d="M81.08,25.36a8.62,8.62,0,0,0-1-3.21m6.31.27A9.47,9.47,0,0,0,84.75,18m5.92-1.23a6.58,6.58,0,0,0-1.1-3.81m3.57,18a6.61,6.61,0,0,0-2.09-3.11m5.42-1.44A10.32,10.32,0,0,0,93.78,22m5.58-1.49A10.58,10.58,0,0,0,96.52,16m-16-8.91A4.82,4.82,0,0,0,79,9.88m6.86-2.8a8.22,8.22,0,0,0-1.7,4M120,22.14a8.62,8.62,0,0,0-1,3.21M115.31,18a9.47,9.47,0,0,0-1.6,4.45m-3.22-9.5a6.58,6.58,0,0,0-1.1,3.81M109,27.78a6.61,6.61,0,0,0-2.09,3.11M106.28,22a10.32,10.32,0,0,0-2.69,4.34M103.54,16a10.58,10.58,0,0,0-2.84,4.52M121,9.88a4.82,4.82,0,0,0-1.46-2.8m-3.7,4a8.22,8.22,0,0,0-1.7-4m-14.13,4v7.73"/><path class="cls-10" d="M108,126H38a1,1,0,0,1,0-2h70a1,1,0,0,1,0,2Z"/><path class="cls-10" d="M113,126h-2a1,1,0,0,1,0-2h2a1,1,0,0,1,0,2Z"/><path class="cls-10" d="M35,126H22a1,1,0,0,1,0-2H35a1,1,0,1,1,0,2Z"/><path class="cls-10" d="M19,126H14a1,1,0,1,1,0-2h5a1,1,0,0,1,0,2Z"/></g><rect class="cls-15" height="68" rx="4" ry="4" width="88" x="20" y="51"/><g class="cls-2"><path class="cls-17" d="M104,116H24a4,4,0,0,1-4-4v3a4,4,0,0,0,4,4h80a4,4,0,0,0,4-4v-3A4,4,0,0,1,104,116Z"/></g><path class="cls-9" d="M104,51H24a4,4,0,0,0-4,4v3a4,4,0,0,1,4-4h80a4,4,0,0,1,4,4V55A4,4,0,0,0,104,51Z"/><polygon class="cls-18" points="38 125.03 32 125.03 30 119.04 40 119.04 38 125.03"/><path class="cls-10" d="M38,126H32a1,1,0,0,1-.95-.68l-2-6A1,1,0,0,1,30,118H40a1,1,0,0,1,.95,1.32l-2,6A1,1,0,0,1,38,126Zm-5.28-2h4.56l1.33-4H31.39Z"/><polygon class="cls-18" points="96.01 125.03 90.01 125.03 88.01 119.04 98.01 119.04 96.01 125.03"/><path class="cls-10" d="M96,126H90a1,1,0,0,1-.95-.68l-2-6A1,1,0,0,1,88,118H98a1,1,0,0,1,.95,1.32l-2,6A1,1,0,0,1,96,126Zm-5.28-2h4.56l1.33-4H89.4Z"/><path class="cls-10" d="M104,120H24a5,5,0,0,1-5-5V55a5,5,0,0,1,5-5h80a5,5,0,0,1,5,5v60A5,5,0,0,1,104,120ZM24,52a3,3,0,0,0-3,3v60a3,3,0,0,0,3,3h80a3,3,0,0,0,3-3V55a3,3,0,0,0-3-3Z"/><rect class="cls-19" height="56" rx="1" ry="1" width="76" x="26" y="57.01"/><path class="cls-10" d="M101,114H27a2,2,0,0,1-2-2V58a2,2,0,0,1,2-2h74a2,2,0,0,1,2,2v54A2,2,0,0,1,101,114ZM27,58v54h74V58Z"/><g class="cls-2"><path class="cls-20" d="M26.51,57.51,32,63h70V57H26.72A.3.3,0,0,0,26.51,57.51Z"/></g><path class="cls-10" d="M96,108H32a1,1,0,0,1-1-1V63a1,1,0,0,1,1-1H96a1,1,0,0,1,1,1v44A1,1,0,0,1,96,108Zm-63-2H95V64H33Z"/><path class="cls-10" d="M32,64a1,1,0,0,1-.71-.29L25.59,58A1,1,0,0,1,27,56.59l5.71,5.71A1,1,0,0,1,32,64Z"/><path class="cls-10" d="M26.29,113.71a1,1,0,0,1-.71-1.71l5.71-5.71a1,1,0,0,1,1.41,1.41L27,113.42A1,1,0,0,1,26.29,113.71Z"/><path class="cls-5" d="M34.77,110.43l1.8-6A2,2,0,0,1,38.49,103h11a2,2,0,0,1,1.92,1.43l1.8,6A2,2,0,0,1,51.31,113H36.69A2,2,0,0,1,34.77,110.43Z"/><g class="cls-21"><path class="cls-9" d="M34.77,110.43s0,.06,0,.1l15.41-7.41a2,2,0,0,0-.66-.12h-11a2,2,0,0,0-1.92,1.43Z"/></g><g class="cls-21"><path class="cls-9" d="M51.79,105.62l-.22-.72-16.05,7.71a2,2,0,0,0,1.17.39h4.25l11.41-5.48Z"/></g><path class="cls-10" d="M51.31,114H36.69a3,3,0,0,1-2.87-3.86h0l1.8-6A3,3,0,0,1,38.49,102h11a3,3,0,0,1,2.87,2.14l1.8,6A3,3,0,0,1,51.31,114Zm-15.58-3.29a1,1,0,0,0,1,1.29H51.31a1,1,0,0,0,1-1.29l-1.8-6a1,1,0,0,0-1-.71h-11a1,1,0,0,0-1,.71l-1.8,6Z"/><path class="cls-5" d="M54.77,110.43l1.8-6A2,2,0,0,1,58.49,103h11a2,2,0,0,1,1.92,1.43l1.8,6A2,2,0,0,1,71.31,113H56.69A2,2,0,0,1,54.77,110.43Z"/><g class="cls-21"><path class="cls-9" d="M54.77,110.43s0,.06,0,.1l15.41-7.41a2,2,0,0,0-.66-.12h-11a2,2,0,0,0-1.92,1.43Z"/></g><g class="cls-21"><path class="cls-9" d="M71.79,105.62l-.22-.72-16.05,7.71a2,2,0,0,0,1.17.39h4.25l11.41-5.48Z"/></g><path class="cls-10" d="M71.31,114H56.69a3,3,0,0,1-2.87-3.86h0l1.8-6A3,3,0,0,1,58.49,102h11a3,3,0,0,1,2.87,2.14l1.8,6A3,3,0,0,1,71.31,114Zm-15.58-3.29a1,1,0,0,0,1,1.29H71.31a1,1,0,0,0,1-1.29l-1.8-6a1,1,0,0,0-1-.71h-11a1,1,0,0,0-1,.71l-1.8,6Z"/><path class="cls-5" d="M74.77,110.43l1.8-6A2,2,0,0,1,78.49,103h11a2,2,0,0,1,1.92,1.43l1.8,6A2,2,0,0,1,91.31,113H76.69A2,2,0,0,1,74.77,110.43Z"/><g class="cls-21"><path class="cls-9" d="M74.77,110.43s0,.06,0,.1l15.41-7.41a2,2,0,0,0-.66-.12h-11a2,2,0,0,0-1.92,1.43Z"/></g><g class="cls-21"><path class="cls-9" d="M91.79,105.62l-.22-.72-16.05,7.71a2,2,0,0,0,1.17.39h4.25l11.41-5.48Z"/></g><path class="cls-10" d="M91.31,114H76.69a3,3,0,0,1-2.87-3.86h0l1.8-6A3,3,0,0,1,78.49,102h11a3,3,0,0,1,2.87,2.14l1.8,6A3,3,0,0,1,91.31,114Zm-15.58-3.29a1,1,0,0,0,1,1.29H91.31a1,1,0,0,0,1-1.29l-1.8-6a1,1,0,0,0-1-.71h-11a1,1,0,0,0-1,.71l-1.8,6Z"/><path class="cls-5" d="M64.77,100.43l1.8-6A2,2,0,0,1,68.49,93h11a2,2,0,0,1,1.92,1.43l1.8,6A2,2,0,0,1,81.31,103H66.69A2,2,0,0,1,64.77,100.43Z"/><g class="cls-21"><path class="cls-9" d="M64.77,100.43s0,.06,0,.1l15.41-7.41a2,2,0,0,0-.66-.12h-11a2,2,0,0,0-1.92,1.43Z"/></g><g class="cls-21"><path class="cls-9" d="M81.79,95.62l-.22-.72-16.05,7.71a2,2,0,0,0,1.17.39h4.25l11.41-5.48Z"/></g><path class="cls-10" d="M81.31,104H66.69a3,3,0,0,1-2.87-3.86h0l1.8-6A3,3,0,0,1,68.49,92h11a3,3,0,0,1,2.87,2.14l1.8,6A3,3,0,0,1,81.31,104Zm-15.58-3.29a1,1,0,0,0,1,1.29H81.31a1,1,0,0,0,1-1.29l-1.8-6a1,1,0,0,0-1-.71h-11a1,1,0,0,0-1,.71l-1.8,6Z"/><path class="cls-5" d="M44.77,100.43l1.8-6A2,2,0,0,1,48.49,93h11a2,2,0,0,1,1.92,1.43l1.8,6A2,2,0,0,1,61.31,103H46.69A2,2,0,0,1,44.77,100.43Z"/><g class="cls-21"><path class="cls-9" d="M44.77,100.43s0,.06,0,.1l15.41-7.41a2,2,0,0,0-.66-.12h-11a2,2,0,0,0-1.92,1.43Z"/></g><g class="cls-21"><path class="cls-9" d="M61.79,95.62l-.22-.72-16.05,7.71a2,2,0,0,0,1.17.39h4.25l11.41-5.48Z"/></g><path class="cls-10" d="M61.31,104H46.69a3,3,0,0,1-2.87-3.86h0l1.8-6A3,3,0,0,1,48.49,92h11a3,3,0,0,1,2.87,2.14l1.8,6A3,3,0,0,1,61.31,104Zm-15.58-3.29a1,1,0,0,0,1,1.29H61.31a1,1,0,0,0,1-1.29l-1.8-6a1,1,0,0,0-1-.71h-11a1,1,0,0,0-1,.71l-1.8,6Z"/><path class="cls-5" d="M54.77,90.43l1.8-6A2,2,0,0,1,58.49,83h11a2,2,0,0,1,1.92,1.43l1.8,6A2,2,0,0,1,71.31,93H56.69A2,2,0,0,1,54.77,90.43Z"/><g class="cls-21"><path class="cls-9" d="M54.77,90.43s0,.06,0,.1l15.41-7.41a2,2,0,0,0-.66-.12h-11a2,2,0,0,0-1.92,1.43Z"/></g><g class="cls-21"><path class="cls-9" d="M71.79,85.62l-.22-.72L55.52,92.61a2,2,0,0,0,1.17.39h4.25l11.41-5.48Z"/></g><path class="cls-10" d="M71.31,94H56.69a3,3,0,0,1-2.87-3.86h0l1.8-6A3,3,0,0,1,58.49,82h11a3,3,0,0,1,2.87,2.14l1.8,6A3,3,0,0,1,71.31,94ZM55.73,90.71a1,1,0,0,0,1,1.29H71.31a1,1,0,0,0,1-1.29l-1.8-6a1,1,0,0,0-1-.71h-11a1,1,0,0,0-1,.71l-1.8,6Z"/><path class="cls-5" d="M41.76,78.15a4.62,4.62,0,0,0,3.08,3.08q2.31.77,0,1.54a4.62,4.62,0,0,0-3.08,3.08q-.77,2.31-1.54,0a4.62,4.62,0,0,0-3.08-3.08q-2.31-.77,0-1.54a4.62,4.62,0,0,0,3.08-3.08Q41,75.85,41.76,78.15Z"/><path class="cls-9" d="M52,89.57A3.7,3.7,0,0,0,54.48,92q1.85.62,0,1.23A3.7,3.7,0,0,0,52,95.73q-.62,1.85-1.23,0a3.7,3.7,0,0,0-2.46-2.46q-1.85-.62,0-1.23a3.7,3.7,0,0,0,2.46-2.46Q51.4,87.73,52,89.57Z"/><path class="cls-9" d="M59,66.57A3.7,3.7,0,0,0,61.48,69q1.85.62,0,1.23A3.7,3.7,0,0,0,59,72.72q-.62,1.85-1.23,0a3.7,3.7,0,0,0-2.46-2.46q-1.85-.62,0-1.23a3.7,3.7,0,0,0,2.46-2.46Q58.4,64.72,59,66.57Z"/><path class="cls-19" d="M83,125H80a2,2,0,0,1-2-2V47a2,2,0,0,1,2-2h3a1,1,0,0,1,1,1v78A1,1,0,0,1,83,125Z"/><g class="cls-2"><path class="cls-22" d="M78,119v4a2,2,0,0,0,2,2h3a1,1,0,0,0,1-1v-3H80A2,2,0,0,1,78,119Z"/></g><g class="cls-2"><path class="cls-9" d="M83,45H80a2,2,0,0,0-2,2v4a2,2,0,0,1,2-2h4V46A1,1,0,0,0,83,45Z"/></g><path class="cls-15" d="M100.33,116.23,85.59,123.9a1,1,0,0,1-1.58-.81V47a1,1,0,0,1,1.58-.81l14.74,7.67A4,4,0,0,1,102,57.09V113A4,4,0,0,1,100.33,116.23Z"/><g class="cls-2"><path class="cls-17" d="M100.33,112.23,85.59,119.9a1,1,0,0,1-1.58-.81v4a1,1,0,0,0,1.58.81l14.74-7.67A4,4,0,0,0,102,113v-4A4,4,0,0,1,100.33,112.23Z"/></g><path class="cls-9" d="M100.33,53.83,85.59,46.16A1,1,0,0,0,84,47v4a1,1,0,0,1,1.58-.81l14.74,7.67A4,4,0,0,1,102,61.09v-4A4,4,0,0,0,100.33,53.83Z"/><path class="cls-15" d="M78,115l-8.33-.69a4,4,0,0,1-3.67-4V59.71a4,4,0,0,1,3.67-4L78,55Z"/><g class="cls-2"><path class="cls-17" d="M71,66H67a4,4,0,0,0-1,.14v7.72A4,4,0,0,0,67,74h4a4,4,0,0,0,0-8Z"/></g><g class="cls-2"><path class="cls-17" d="M71,83H67a4,4,0,0,0-1,.14v7.72A4,4,0,0,0,67,91h4a4,4,0,0,0,0-8Z"/></g><g class="cls-2"><path class="cls-17" d="M71,100H67a4,4,0,0,0-1,.14v7.72a4,4,0,0,0,1,.14h4a4,4,0,0,0,0-8Z"/></g><g class="cls-2"><path class="cls-17" d="M66,106.35v4a4,4,0,0,0,3.67,4L78,115v-4l-8.33-.69A4,4,0,0,1,66,106.35Z"/></g><path class="cls-9" d="M69.67,55.72a4,4,0,0,0-3.67,4v4a4,4,0,0,1,3.67-4L78,59V55Z"/><path class="cls-10" d="M78,116h-.08l-8.33-.69a5,5,0,0,1-4.58-5V59.71a5,5,0,0,1,4.58-5L77.92,54A1,1,0,0,1,79,55v60a1,1,0,0,1-1,1ZM77,56.12l-7.25.6a3,3,0,0,0-2.75,3v50.64a3,3,0,0,0,2.75,3l7.25.6Z"/><path class="cls-10" d="M82.73,126H80a3,3,0,0,1-3-3V47a3,3,0,0,1,3-3h2.72a5,5,0,0,1,2.85.89l15.23,8,.11.07A5,5,0,0,1,103,57.09V113a5,5,0,0,1-2.09,4.07l-.11.07-15.23,8A5,5,0,0,1,82.73,126ZM80,46a1,1,0,0,0-1,1v76a1,1,0,0,0,1,1h2.72a3,3,0,0,0,1.74-.56l.11-.07,15.22-8A3,3,0,0,0,101,113V57.09a3,3,0,0,0-1.21-2.4l-15.22-8-.11-.07A3,3,0,0,0,82.73,46H80Z"/><path class="cls-23" d="M71,105H67V99h4a3,3,0,0,1,3,3h0A3,3,0,0,1,71,105Z"/><path class="cls-10" d="M71,106H67a1,1,0,0,1-1-1V99a1,1,0,0,1,1-1h4a4,4,0,0,1,0,8Zm-3-2h3a2,2,0,0,0,0-4H68Z"/><circle class="cls-9" cx="67" cy="102.01" r="3"/><path class="cls-10" d="M67,106a4,4,0,1,1,4-4A4,4,0,0,1,67,106Zm0-6a2,2,0,1,0,2,2A2,2,0,0,0,67,100Z"/><path class="cls-23" d="M71,88H67V82h4a3,3,0,0,1,3,3h0A3,3,0,0,1,71,88Z"/><path class="cls-10" d="M71,89H67a1,1,0,0,1-1-1V82a1,1,0,0,1,1-1h4a4,4,0,0,1,0,8Zm-3-2h3a2,2,0,0,0,0-4H68Z"/><circle class="cls-9" cx="67" cy="85.01" r="3"/><path class="cls-10" d="M67,89a4,4,0,1,1,4-4A4,4,0,0,1,67,89Zm0-6a2,2,0,1,0,2,2A2,2,0,0,0,67,83Z"/><path class="cls-23" d="M71,71H67V65h4a3,3,0,0,1,3,3h0A3,3,0,0,1,71,71Z"/><path class="cls-10" d="M71,72H67a1,1,0,0,1-1-1V65a1,1,0,0,1,1-1h4a4,4,0,0,1,0,8Zm-3-2h3a2,2,0,0,0,0-4H68Z"/><circle class="cls-9" cx="67" cy="68" r="3"/><path class="cls-10" d="M67,72a4,4,0,1,1,4-4A4,4,0,0,1,67,72Zm0-6a2,2,0,1,0,2,2A2,2,0,0,0,67,66Z"/><path class="cls-10" d="M99,58a1,1,0,0,1-.71-.29,1,1,0,0,1,0-1.41,1,1,0,0,1,1.42,0,1,1,0,0,1,.29.7,1,1,0,0,1-.29.71A1,1,0,0,1,99,58Z"/><path class="cls-10" d="M99,114a1.05,1.05,0,0,1-.71-.29,1.2,1.2,0,0,1-.22-.33A1,1,0,0,1,98,113a1,1,0,0,1,.29-.71A1,1,0,1,1,99,114Z"/><path class="cls-10" d="M87,52a1,1,0,0,1-.93-1.38,1.2,1.2,0,0,1,.22-.33,1,1,0,0,1,1.09-.21,1,1,0,0,1,.32.21,1,1,0,0,1-.32,1.64A1,1,0,0,1,87,52Z"/><path class="cls-10" d="M87,120a1,1,0,0,1-.71-.29A1,1,0,0,1,86,119a1,1,0,0,1,.07-.38,1.07,1.07,0,0,1,.22-.33,1,1,0,0,1,1.09-.21,1,1,0,0,1,.32.21,1,1,0,0,1,0,1.42,1,1,0,0,1-.7.29Z"/><path class="cls-23" d="M90,69v4h2V97H90v4h2a4,4,0,0,0,4-4V73a4,4,0,0,0-4-4Z"/><path class="cls-10" d="M92,102H90a1,1,0,0,1-1-1V97a1,1,0,0,1,1-1h1V74H90a1,1,0,0,1-1-1V69a1,1,0,0,1,1-1h2a5,5,0,0,1,5,5V97A5,5,0,0,1,92,102Zm-1-2h1a3,3,0,0,0,3-3V73a3,3,0,0,0-3-3H91v2h1a1,1,0,0,1,1,1V97a1,1,0,0,1-1,1H91Z"/><path class="cls-10" d="M84,125.82a1,1,0,0,1-1-1V45.24a1,1,0,0,1,2,0v79.58A1,1,0,0,1,84,125.82Z"/><path class="cls-23" d="M104,69v6a2,2,0,0,1-2,2h0a2,2,0,0,1-2-2V69a2,2,0,0,1,2-2h0A2,2,0,0,1,104,69Z"/><path class="cls-10" d="M102,78a3,3,0,0,1-3-3V69a3,3,0,0,1,6,0v6A3,3,0,0,1,102,78Zm0-10a1,1,0,0,0-1,1v6a1,1,0,0,0,2,0V69A1,1,0,0,0,102,68Z"/><path class="cls-23" d="M104,95v6a2,2,0,0,1-2,2h0a2,2,0,0,1-2-2V95a2,2,0,0,1,2-2h0A2,2,0,0,1,104,95Z"/><path class="cls-10" d="M102,104a3,3,0,0,1-3-3V95a3,3,0,0,1,6,0v6A3,3,0,0,1,102,104Zm0-10a1,1,0,0,0-1,1v6a1,1,0,0,0,2,0V95A1,1,0,0,0,102,94Z"/><path class="cls-10" d="M104,99h-4a1,1,0,0,1,0-2h4a1,1,0,0,1,0,2Z"/><path class="cls-10" d="M104,73h-4a1,1,0,0,1,0-2h4a1,1,0,0,1,0,2Z"/></svg>