<?xml version="1.0" ?><svg data-name="003" id="_003" viewBox="0 0 128 128" xmlns="http://www.w3.org/2000/svg"><defs><style>.cls-1{opacity:0.3;}.cls-2{fill:#c9c1f5;}.cls-3{fill:#89dbba;}.cls-4{fill:#48bc33;}.cls-5{fill:#6d6daa;}.cls-6{fill:#b1f1a8;}.cls-7{fill:#eef6ff;}.cls-8{fill:#fff;}.cls-9{fill:#939fc6;}.cls-10{fill:#97c1ff;}.cls-11{fill:#d4edff;}</style></defs><title/><g class="cls-1"><path class="cls-2" d="M125.7,50.65a30,30,0,0,0-23.51-25,19.69,19.69,0,0,1-10.93-6.55A37,37,0,0,0,27,34.43,21,21,0,0,1,16.12,48.1C2,55.46-5.14,74.56,7.77,92.48a16.6,16.6,0,0,0,6.35,4.91,20.58,20.58,0,0,1,10,10.88,28.49,28.49,0,0,0,42.62,12.64A20.06,20.06,0,0,1,83.39,118a29,29,0,0,0,36-33.79A20.08,20.08,0,0,1,121.94,70,29.83,29.83,0,0,0,125.7,50.65Z"/><rect class="cls-3" height="92" transform="translate(9.22 84.94) rotate(-80.25)" width="48" x="31" y="-9"/><g class="cls-1"><rect class="cls-4" height="92" transform="translate(-4.13 92.76) rotate(-80.25)" width="24" x="40.97" y="2.83"/></g><path class="cls-5" d="M96.27,69.45H96.1L5.43,53.85a1,1,0,0,1-.82-1.15l8.13-47.3a1,1,0,0,1,1.15-.82l90.67,15.59a1,1,0,0,1,.82,1.15l-8.13,47.3a1,1,0,0,1-1,.83ZM6.75,52l88.7,15.25L103.24,22,14.55,6.71Z"/><path class="cls-6" d="M92.39,55.6a6,6,0,0,0-6.93,4.9L18.44,49a6,6,0,0,0-4.9-6.93L17.61,18.4a6,6,0,0,0,6.93-4.9L91.56,25A6,6,0,0,0,96.45,32Z"/><g class="cls-1"><path class="cls-4" d="M15.57,30.25l-2,11.8A6,6,0,0,1,18.44,49l67,11.52a6,6,0,0,1,6.93-4.9l2-11.8Z"/></g><path class="cls-5" d="M85.46,61.5h-.17L18.27,50a1,1,0,0,1-.82-1.15A5,5,0,0,0,13.38,43a1,1,0,0,1-.82-1.15l4.07-23.65a1,1,0,0,1,1.15-.82,5,5,0,0,0,5.77-4.08,1,1,0,0,1,1.15-.82L91.73,24a1,1,0,0,1,.82,1.15A5,5,0,0,0,96.62,31a1,1,0,0,1,.82,1.15L93.37,55.77a1,1,0,0,1-1.15.82,5,5,0,0,0-5.77,4.08A1,1,0,0,1,85.46,61.5ZM19.53,48.15l65.18,11.2a7,7,0,0,1,6.85-4.84L95.31,32.7a7,7,0,0,1-4.84-6.85L25.29,14.65a7,7,0,0,1-6.85,4.84L14.69,41.3A7,7,0,0,1,19.53,48.15Z"/><ellipse class="cls-3" cx="54.66" cy="38.97" rx="16" ry="12.8" transform="matrix(0.17, -0.99, 0.99, 0.17, 6.99, 86.24)"/><path class="cls-5" d="M53.7,55.89a11.28,11.28,0,0,1-1.92-.16c-7.5-1.29-12.31-9.85-10.72-19.09A19.1,19.1,0,0,1,47,25.54a12.57,12.57,0,0,1,10.55-3.32c7.5,1.29,12.31,9.85,10.72,19.09C66.81,49.76,60.5,55.89,53.7,55.89Zm1.91-31.84a11,11,0,0,0-7.29,3A17.11,17.11,0,0,0,43,37c-1.4,8.15,2.68,15.68,9.09,16.78S64.89,49.12,66.29,41h0c1.4-8.15-2.68-15.68-9.09-16.78A9.45,9.45,0,0,0,55.61,24.05Z"/><circle class="cls-3" cx="29.38" cy="32.6" r="3" transform="translate(-7.73 56.03) rotate(-80.25)"/><path class="cls-5" d="M29.38,36.6a4,4,0,0,1-4-4.68,4,4,0,1,1,7.88,1.35h0a4,4,0,0,1-3.93,3.32Zm0-6a2,2,0,1,0,2,2.34h0a2,2,0,0,0-1.63-2.31Z"/><circle class="cls-5" cx="18.63" cy="12.48" r="1" transform="translate(3.17 28.73) rotate(-80.25)"/><path class="cls-5" d="M18.63,14.48a2,2,0,1,1,1.15-.37A2,2,0,0,1,18.63,14.48Zm0-2Z"/><circle class="cls-5" cx="12.53" cy="47.97" r="1" transform="translate(-36.87 52.19) rotate(-80.25)"/><path class="cls-5" d="M12.53,50l-.34,0a2,2,0,1,1,.34,0Zm0-2Z"/><circle class="cls-5" cx="97.48" cy="26.04" r="1" transform="translate(55.3 117.7) rotate(-80.25)"/><path class="cls-5" d="M97.48,28l-.34,0a2,2,0,0,1-.82-3.6,2,2,0,0,1,3.13,2h0A2,2,0,0,1,97.48,28Zm1-1.83h0Z"/><circle class="cls-5" cx="91.38" cy="61.52" r="1" transform="matrix(0.17, -0.99, 0.99, 0.17, 15.27, 141.16)"/><path class="cls-5" d="M91.38,63.52a2,2,0,1,1,1.15-.37A2,2,0,0,1,91.38,63.52Zm0-2Z"/><path class="cls-6" d="M58.36,48.55l-.69-.28a.87.87,0,0,1-.57-1c.1-.47.19-1,.28-1.49.21-1.2,1.9-2.39,2.26-4.06a6.88,6.88,0,0,0,1.23-2.62A1.44,1.44,0,0,0,60.71,38c.23-.61.44-1.25.68-1.91,1-2.66.35-4.8-1.91-6.07-.82-.46-4.32-1.7-5.44-3.24-.41-.55-.53,2.16-1,2.28-2.54.66-3.76,2.15-3.74,4.95,0,.7,0,1.38,0,2a1.44,1.44,0,0,0-.52,1,6.88,6.88,0,0,0,.28,2.88c-.21,1.7,1,3.3.78,4.59-.09.52-.18,1-.24,1.5a.87.87,0,0,1-.87.76l-.83,0a14.65,14.65,0,0,0-4.57.83,12.23,12.23,0,0,0,7.33,6.85,11.29,11.29,0,0,0,1.28.31H52a11.29,11.29,0,0,0,1.23.13,12.24,12.24,0,0,0,9.22-4A13.88,13.88,0,0,0,58.36,48.55Z"/><path class="cls-5" d="M53.71,55.89h-.47a12.27,12.27,0,0,1-1.35-.14h-.1l.16-1-.26,1a11.46,11.46,0,0,1-1.32-.32,13.18,13.18,0,0,1-8-7.39A1,1,0,0,1,43,46.64a15.78,15.78,0,0,1,4.88-.89l.75,0c.06-.46.14-.94.23-1.43a4.06,4.06,0,0,0-.32-1.55A7.21,7.21,0,0,1,48,40a7.66,7.66,0,0,1-.25-3.14,2.74,2.74,0,0,1,.5-1.23c0-.23,0-.46,0-.69s0-.61,0-.92c0-3.06,1.32-5,4.11-5.82.06-.2.12-.48.16-.67.2-.88.37-1.64,1.15-1.8a1.12,1.12,0,0,1,1.13.46c.7,1,2.91,1.94,4.09,2.47.45.2.82.37,1,.48,2.64,1.48,3.51,4.14,2.36,7.28l-.31.88-.23.65a2.74,2.74,0,0,1,.06,1.33,7.66,7.66,0,0,1-1.29,2.88,7.5,7.5,0,0,1-1.41,2.51,4.25,4.25,0,0,0-.79,1.3c-.08.49-.16,1-.26,1.43l.62.25a15,15,0,0,1,4.41,2.46,1,1,0,0,1,.08,1.47A13.3,13.3,0,0,1,53.71,55.89Zm-1.59-2.14h.09a10.41,10.41,0,0,0,1.12.12,10.92,10.92,0,0,0,7.62-2.94A13.63,13.63,0,0,0,58,49.49h0l-.69-.28A1.87,1.87,0,0,1,56.13,47c.1-.46.18-.94.27-1.45a5.3,5.3,0,0,1,1.17-2.17,5.52,5.52,0,0,0,1.1-1.94,1,1,0,0,1,.16-.36,6,6,0,0,0,1.06-2.21.72.72,0,0,0,0-.37,1,1,0,0,1-.12-.92c.12-.33.24-.66.36-1l.32-.9c.82-2.26.34-3.84-1.46-4.86-.17-.1-.48-.23-.86-.4a20.38,20.38,0,0,1-3.73-2c-.19.76-.44,1.36-1.11,1.54-2.17.56-3,1.67-3,4,0,.32,0,.64,0,.95s0,.73,0,1.08a1,1,0,0,1-.42.83.75.75,0,0,0-.12.35A5.94,5.94,0,0,0,50,39.61a1,1,0,0,1,0,.4,5.24,5.24,0,0,0,.39,2.12,5.32,5.32,0,0,1,.39,2.51c-.09.51-.17,1-.23,1.46a1.88,1.88,0,0,1-1.86,1.63l-.81,0a14.44,14.44,0,0,0-3.17.44,10.88,10.88,0,0,0,6.19,5.29,10.4,10.4,0,0,0,1.16.28ZM58,47.32h0Zm-9.32-1.6h0Z"/><path class="cls-3" d="M68.05,55.48l-7.89-1.36a14.93,14.93,0,0,0-7.54-3.33,14.93,14.93,0,0,0-8.21.62l-7.89-1.36-1.35,7.88L66.7,63.36Z"/><path class="cls-5" d="M66.7,64.36h-.17L35,58.93a1,1,0,0,1-.82-1.15l1.35-7.88a1,1,0,0,1,1.15-.82l7.6,1.31a16.22,16.22,0,0,1,8.5-.57,16.23,16.23,0,0,1,7.82,3.38l7.6,1.31A1,1,0,0,1,69,55.65l-1.35,7.88A1,1,0,0,1,66.7,64.36ZM36.32,57.13l29.56,5.08,1-5.91L60,55.11a1,1,0,0,1-.52-.26,14.09,14.09,0,0,0-7-3.07,14.11,14.11,0,0,0-7.64.55,1,1,0,0,1-.57.07l-6.9-1.19Z"/><line class="cls-3" x1="34.1" x2="22.28" y1="40.51" y2="38.48"/><path class="cls-5" d="M34.1,41.51h-.17l-11.82-2a1,1,0,1,1,.34-2l11.82,2a1,1,0,0,1-.17,2Z"/><circle class="cls-3" cx="80.63" cy="41.41" r="3" transform="translate(26.16 113.86) rotate(-80.25)"/><path class="cls-5" d="M80.64,45.41a4,4,0,1,1,3.93-3.32h0a4,4,0,0,1-3.93,3.32Zm0-6a2,2,0,1,0,2,2.34h0A2,2,0,0,0,81,39.44Z"/><line class="cls-3" x1="85.35" x2="73.53" y1="49.32" y2="47.29"/><path class="cls-5" d="M85.35,50.32h-.17l-11.82-2a1,1,0,0,1,.34-2l11.82,2a1,1,0,0,1-.17,2Z"/><line class="cls-3" x1="63.43" x2="39.79" y1="58.74" y2="54.68"/><path class="cls-5" d="M63.44,59.74h-.17L39.62,55.66a1,1,0,1,1,.34-2L63.6,57.76a1,1,0,0,1-.17,2Z"/><rect class="cls-3" height="48" width="92" x="9" y="13"/><g class="cls-1"><rect class="cls-4" height="24" width="92" x="9" y="37"/></g><path class="cls-5" d="M101,62H9a1,1,0,0,1-1-1V13a1,1,0,0,1,1-1h92a1,1,0,0,1,1,1V61A1,1,0,0,1,101,62ZM10,60h90V14H10Z"/><path class="cls-6" d="M95,49a6,6,0,0,0-6,6H21a6,6,0,0,0-6-6V25a6,6,0,0,0,6-6H89a6,6,0,0,0,6,6Z"/><g class="cls-1"><path class="cls-4" d="M15,37V49a6,6,0,0,1,6,6H89a6,6,0,0,1,6-6V37Z"/></g><path class="cls-5" d="M89,56H21a1,1,0,0,1-1-1,5,5,0,0,0-5-5,1,1,0,0,1-1-1V25a1,1,0,0,1,1-1,5,5,0,0,0,5-5,1,1,0,0,1,1-1H89a1,1,0,0,1,1,1,5,5,0,0,0,5,5,1,1,0,0,1,1,1V49a1,1,0,0,1-1,1,5,5,0,0,0-5,5A1,1,0,0,1,89,56ZM21.93,54H88.07A7,7,0,0,1,94,48.07V25.93A7,7,0,0,1,88.07,20H21.93A7,7,0,0,1,16,25.93V48.07A7,7,0,0,1,21.93,54Z"/><ellipse class="cls-3" cx="55" cy="39" rx="12.8" ry="16"/><path class="cls-5" d="M55,56c-7.61,0-13.8-7.63-13.8-17S47.39,22,55,22s13.8,7.63,13.8,17S62.61,56,55,56Zm0-32c-6.51,0-11.8,6.73-11.8,15S48.49,54,55,54s11.8-6.73,11.8-15S61.51,24,55,24Z"/><circle class="cls-3" cx="29" cy="37" r="3"/><path class="cls-5" d="M29,41a4,4,0,1,1,4-4A4,4,0,0,1,29,41Zm0-6a2,2,0,1,0,2,2A2,2,0,0,0,29,35Z"/><circle class="cls-5" cx="15" cy="19" r="1"/><path class="cls-5" d="M15,21a2,2,0,1,1,2-2A2,2,0,0,1,15,21Zm0-2h0Zm0,0h0Zm0,0h0Zm0,0h0Zm0,0h0Zm0,0h0Zm0,0h0Zm0,0h0Z"/><circle class="cls-5" cx="15" cy="55" r="1"/><path class="cls-5" d="M15,57a2,2,0,1,1,2-2A2,2,0,0,1,15,57Zm0-2h0Zm0,0h0Zm0,0h0Zm0,0h0Zm0,0h0Zm0,0h0Zm0,0h0Zm0,0h0Z"/><circle class="cls-5" cx="95.01" cy="19" r="1"/><path class="cls-5" d="M95,21a2,2,0,1,1,2-2A2,2,0,0,1,95,21Zm0-2h0Zm0,0h0Zm0,0h0Zm0,0h0Zm0,0h0Zm0,0h0Zm0,0h0Zm0,0h0Z"/><circle class="cls-5" cx="95.01" cy="55" r="1"/><path class="cls-5" d="M95,57a2,2,0,1,1,2-2A2,2,0,0,1,95,57Zm0-2h0Zm0,0h0Zm0,0h0Zm0,0h0Zm0,0h0Zm0,0h0Zm0,0h0Zm0,0h0Z"/><path class="cls-6" d="M60.27,47.81l-.73-.16a.87.87,0,0,1-.73-.89c0-.48,0-1,0-1.52,0-1.22,1.46-2.68,1.54-4.39a6.88,6.88,0,0,0,.77-2.79A1.44,1.44,0,0,0,60.79,37c.12-.64.22-1.31.35-2,.5-2.78-.47-4.79-2.92-5.66-.88-.31-4.54-.95-5.91-2.27-.49-.48-.16,2.21-.6,2.42-2.4,1.08-3.35,2.75-2.85,5.51.12.69.23,1.37.35,2a1.44,1.44,0,0,0-.35,1.07,6.88,6.88,0,0,0,.77,2.79c.08,1.71,1.54,3.09,1.54,4.39,0,.53,0,1,0,1.52a.87.87,0,0,1-.73.89l-.81.16a14.65,14.65,0,0,0-4.36,1.6,12.23,12.23,0,0,0,8.38,5.51A11.29,11.29,0,0,0,55,55h.12a11.29,11.29,0,0,0,1.24-.08,12.24,12.24,0,0,0,8.4-5.54A13.88,13.88,0,0,0,60.27,47.81Z"/><path class="cls-5" d="M55,56a12.6,12.6,0,0,1-1.45-.09A13.18,13.18,0,0,1,44.46,50a1,1,0,0,1,.33-1.44,15.78,15.78,0,0,1,4.65-1.71l.74-.15c0-.46,0-.95,0-1.45a4.06,4.06,0,0,0-.58-1.48,7.21,7.21,0,0,1-.95-2.65,7.65,7.65,0,0,1-.78-3.05,2.74,2.74,0,0,1,.29-1.3L48,36.08c0-.3-.1-.6-.16-.91-.54-3,.46-5.12,3.07-6.43,0-.21,0-.49,0-.69,0-.9.09-1.68.82-2a1.11,1.11,0,0,1,1.19.26c.85.83,3.2,1.42,4.46,1.74.48.12.87.22,1.09.3,2.86,1,4.16,3.49,3.57,6.78-.06.31-.11.61-.16.91l-.12.68a2.74,2.74,0,0,1,.29,1.3,7.64,7.64,0,0,1-.78,3.05,7.51,7.51,0,0,1-1,2.71,4.25,4.25,0,0,0-.56,1.42c0,.5,0,1,0,1.45l.65.14a15,15,0,0,1,4.76,1.68,1,1,0,0,1,.33,1.43,13.18,13.18,0,0,1-9.1,6A12.14,12.14,0,0,1,55.1,56Zm-8.2-6.24a10.88,10.88,0,0,0,7,4.16A10.28,10.28,0,0,0,55,54h.1a10.21,10.21,0,0,0,1.13-.07,10.87,10.87,0,0,0,7-4.19,13.65,13.65,0,0,0-3.13-.94h0l-.73-.16a1.87,1.87,0,0,1-1.51-1.91c0-.46,0-1,0-1.47a5.31,5.31,0,0,1,.78-2.34,5.52,5.52,0,0,0,.76-2.1,1,1,0,0,1,.1-.39,5.94,5.94,0,0,0,.67-2.36.74.74,0,0,0-.06-.36,1,1,0,0,1-.27-.89c.06-.34.12-.7.18-1.06s.1-.62.16-.94c.43-2.36-.32-3.85-2.27-4.54-.19-.07-.51-.15-.91-.25a20.62,20.62,0,0,1-4-1.33c-.06.78-.21,1.42-.84,1.7-2,.92-2.68,2.16-2.27,4.42.06.32.11.63.16.94s.12.71.18,1.06a1,1,0,0,1-.27.89.75.75,0,0,0-.06.36,5.94,5.94,0,0,0,.67,2.36,1,1,0,0,1,.1.39,5.23,5.23,0,0,0,.74,2,5.32,5.32,0,0,1,.81,2.41c0,.52,0,1,0,1.48a1.88,1.88,0,0,1-1.56,1.92l-.79.16A14.42,14.42,0,0,0,46.8,49.76Zm3.47-3.09h0Zm9.45,0h0ZM51.3,28.56h0Z"/><path class="cls-3" d="M71,53H63a14.93,14.93,0,0,0-8-2,14.93,14.93,0,0,0-8,2H39v8H71Z"/><path class="cls-5" d="M71,62H39a1,1,0,0,1-1-1V53a1,1,0,0,1,1-1h7.71A16.23,16.23,0,0,1,55,50a16.23,16.23,0,0,1,8.28,2H71a1,1,0,0,1,1,1v8A1,1,0,0,1,71,62ZM40,60H70V54H63a1,1,0,0,1-.55-.17A14.09,14.09,0,0,0,55,52a14.09,14.09,0,0,0-7.44,1.84A1,1,0,0,1,47,54H40Z"/><path class="cls-5" d="M35,45H23a1,1,0,0,1,0-2H35a1,1,0,0,1,0,2Z"/><circle class="cls-3" cx="81.01" cy="37" r="3"/><path class="cls-5" d="M81,41a4,4,0,1,1,4-4A4,4,0,0,1,81,41Zm0-6a2,2,0,1,0,2,2A2,2,0,0,0,81,35Z"/><path class="cls-5" d="M87,45H75a1,1,0,0,1,0-2H87a1,1,0,0,1,0,2Z"/><path class="cls-5" d="M67,58H43a1,1,0,0,1,0-2H67a1,1,0,0,1,0,2Z"/><rect class="cls-3" height="48" width="92" x="17" y="59"/><g class="cls-1"><rect class="cls-4" height="24" width="92" x="17" y="83"/></g><path class="cls-5" d="M109,108H17a1,1,0,0,1-1-1V59a1,1,0,0,1,1-1h92a1,1,0,0,1,1,1v48A1,1,0,0,1,109,108Zm-91-2h90V60H18Z"/><path class="cls-6" d="M103,95a6,6,0,0,0-6,6H29a6,6,0,0,0-6-6V71a6,6,0,0,0,6-6H97a6,6,0,0,0,6,6Z"/><g class="cls-1"><path class="cls-4" d="M23,83V95a6,6,0,0,1,6,6H97a6,6,0,0,1,6-6V83Z"/></g><path class="cls-5" d="M97,102H29a1,1,0,0,1-1-1,5,5,0,0,0-5-5,1,1,0,0,1-1-1V71a1,1,0,0,1,1-1,5,5,0,0,0,5-5,1,1,0,0,1,1-1H97a1,1,0,0,1,1,1,5,5,0,0,0,5,5,1,1,0,0,1,1,1V95a1,1,0,0,1-1,1,5,5,0,0,0-5,5A1,1,0,0,1,97,102Zm-67.07-2H96.07A7,7,0,0,1,102,94.07V71.93A7,7,0,0,1,96.07,66H29.93A7,7,0,0,1,24,71.93V94.07A7,7,0,0,1,29.93,100Z"/><ellipse class="cls-3" cx="63" cy="85" rx="12.8" ry="16"/><path class="cls-5" d="M63,102c-7.61,0-13.8-7.63-13.8-17S55.39,68,63,68s13.8,7.63,13.8,17S70.61,102,63,102Zm0-32c-6.51,0-11.8,6.73-11.8,15s5.29,15,11.8,15,11.8-6.73,11.8-15S69.51,70,63,70Z"/><circle class="cls-3" cx="37" cy="83" r="3"/><path class="cls-5" d="M37,87a4,4,0,1,1,4-4A4,4,0,0,1,37,87Zm0-6a2,2,0,1,0,2,2A2,2,0,0,0,37,81Z"/><circle class="cls-5" cx="23" cy="65" r="1"/><path class="cls-5" d="M23,67a2,2,0,1,1,2-2A2,2,0,0,1,23,67Zm0-2h0Zm0,0h0Zm0,0h0Zm0,0h0Zm0,0h0Zm0,0h0Zm0,0h0Zm0,0h0Z"/><circle class="cls-5" cx="23" cy="101" r="1"/><path class="cls-5" d="M23,103a2,2,0,1,1,2-2A2,2,0,0,1,23,103Zm0-2h0Zm0,0h0Zm0,0h0Zm0,0h0Zm0,0h0Zm0,0h0Zm0,0h0Zm0,0h0Z"/><circle class="cls-5" cx="103.01" cy="65" r="1"/><path class="cls-5" d="M103,67a2,2,0,1,1,2-2A2,2,0,0,1,103,67Zm0-2h0Zm0,0h0Zm0,0h0Zm0,0h0Zm0,0h0Zm0,0h0Zm0,0h0Zm0,0h0Z"/><circle class="cls-5" cx="103.01" cy="101" r="1"/><path class="cls-5" d="M103,103a2,2,0,1,1,2-2A2,2,0,0,1,103,103Zm0-2h0Zm0,0h0Zm0,0h0Zm0,0h0Zm0,0h0Zm0,0h0Zm0,0h0Zm0,0h0Z"/><path class="cls-6" d="M68.27,93.81l-.73-.16a.87.87,0,0,1-.73-.89c0-.48,0-1,0-1.52,0-1.22,1.46-2.68,1.54-4.39a6.88,6.88,0,0,0,.77-2.79A1.44,1.44,0,0,0,68.79,83c.12-.64.22-1.31.35-2,.5-2.78-.47-4.79-2.92-5.66-.88-.31-4.54-.95-5.91-2.27-.49-.48-.16,2.21-.6,2.42-2.4,1.08-3.35,2.75-2.85,5.51.12.69.23,1.37.35,2a1.44,1.44,0,0,0-.35,1.07,6.88,6.88,0,0,0,.77,2.79c.08,1.71,1.54,3.09,1.54,4.39,0,.53,0,1,0,1.52a.87.87,0,0,1-.73.89l-.81.16a14.65,14.65,0,0,0-4.36,1.6,12.23,12.23,0,0,0,8.38,5.51A11.29,11.29,0,0,0,63,101h.12a11.29,11.29,0,0,0,1.24-.08,12.24,12.24,0,0,0,8.4-5.54A13.88,13.88,0,0,0,68.27,93.81Z"/><path class="cls-5" d="M63,102a12.6,12.6,0,0,1-1.45-.09A13.18,13.18,0,0,1,52.46,96a1,1,0,0,1,.33-1.44,15.78,15.78,0,0,1,4.65-1.71l.74-.15c0-.46,0-.95,0-1.45a4.06,4.06,0,0,0-.58-1.48,7.21,7.21,0,0,1-.95-2.65,7.65,7.65,0,0,1-.78-3.05,2.74,2.74,0,0,1,.29-1.3L56,82.08c0-.3-.1-.6-.16-.91-.54-3,.46-5.12,3.07-6.43,0-.21,0-.49,0-.69,0-.9.09-1.68.82-2a1.11,1.11,0,0,1,1.19.26c.85.83,3.2,1.42,4.46,1.74.48.12.87.22,1.09.3,2.86,1,4.16,3.49,3.57,6.78-.06.31-.11.61-.16.91l-.12.68a2.74,2.74,0,0,1,.29,1.3,7.64,7.64,0,0,1-.78,3.05,7.51,7.51,0,0,1-1,2.71,4.25,4.25,0,0,0-.56,1.42c0,.5,0,1,0,1.45l.65.14a15,15,0,0,1,4.76,1.68,1,1,0,0,1,.33,1.43,13.18,13.18,0,0,1-9.1,6,12.14,12.14,0,0,1-1.36.09Zm-8.2-6.24a10.88,10.88,0,0,0,7,4.16A10.28,10.28,0,0,0,63,100h.1a10.21,10.21,0,0,0,1.13-.07,10.87,10.87,0,0,0,7-4.19,13.65,13.65,0,0,0-3.13-.94h0l-.73-.16a1.87,1.87,0,0,1-1.51-1.91c0-.46,0-1,0-1.47a5.31,5.31,0,0,1,.78-2.34,5.52,5.52,0,0,0,.76-2.1,1,1,0,0,1,.1-.39,5.94,5.94,0,0,0,.67-2.36.74.74,0,0,0-.06-.36,1,1,0,0,1-.27-.89c.06-.34.12-.7.18-1.06s.1-.62.16-.94c.43-2.36-.32-3.85-2.27-4.54-.19-.07-.51-.15-.91-.25a20.62,20.62,0,0,1-4-1.33c-.06.78-.21,1.42-.84,1.7-2,.92-2.68,2.16-2.27,4.42.06.32.11.63.16.94s.12.71.18,1.06a1,1,0,0,1-.27.89.75.75,0,0,0-.06.36,5.94,5.94,0,0,0,.67,2.36,1,1,0,0,1,.1.39,5.23,5.23,0,0,0,.74,2,5.32,5.32,0,0,1,.81,2.41c0,.52,0,1,0,1.48a1.88,1.88,0,0,1-1.56,1.92l-.79.16A14.42,14.42,0,0,0,54.8,95.76Zm3.47-3.09h0Zm9.45,0h0ZM59.3,74.56h0Z"/><path class="cls-3" d="M79,99H71a14.93,14.93,0,0,0-8-2,14.93,14.93,0,0,0-8,2H47v8H79Z"/><path class="cls-5" d="M79,108H47a1,1,0,0,1-1-1V99a1,1,0,0,1,1-1h7.71A16.23,16.23,0,0,1,63,96a16.23,16.23,0,0,1,8.28,2H79a1,1,0,0,1,1,1v8A1,1,0,0,1,79,108Zm-31-2H78v-6H71a1,1,0,0,1-.55-.17A14.09,14.09,0,0,0,63,98a14.09,14.09,0,0,0-7.44,1.84A1,1,0,0,1,55,100H48Z"/><path class="cls-5" d="M43,91H31a1,1,0,0,1,0-2H43a1,1,0,0,1,0,2Z"/><circle class="cls-3" cx="89.01" cy="83" r="3"/><path class="cls-5" d="M89,87a4,4,0,1,1,4-4A4,4,0,0,1,89,87Zm0-6a2,2,0,1,0,2,2A2,2,0,0,0,89,81Z"/><path class="cls-5" d="M95,91H83a1,1,0,0,1,0-2H95a1,1,0,0,1,0,2Z"/><path class="cls-5" d="M75,104H51a1,1,0,1,1,0-2H75a1,1,0,0,1,0,2Z"/></g><rect class="cls-7" height="54" rx="2" ry="2" width="82" x="35" y="39"/><rect class="cls-8" height="10" width="62" x="45" y="65"/><path class="cls-5" d="M107,76H45a1,1,0,0,1-1-1V65a1,1,0,0,1,1-1h62a1,1,0,0,1,1,1V75A1,1,0,0,1,107,76ZM46,74h60V66H46Z"/><rect class="cls-9" height="10" width="82" x="35" y="47"/><path class="cls-5" d="M117,58H35a1,1,0,0,1-1-1V47a1,1,0,0,1,1-1h82a1,1,0,0,1,1,1V57A1,1,0,0,1,117,58ZM36,56h80V48H36Z"/><g class="cls-1"><path class="cls-5" d="M36,49a1,1,0,1,1,.71-.29A1.05,1.05,0,0,1,36,49Z"/><path class="cls-5" d="M36,53a1.05,1.05,0,0,1-.71-.29A1,1,0,0,1,35,52a1,1,0,1,1,1,1Z"/><path class="cls-5" d="M38,51l-.2,0-.18-.06-.18-.09-.15-.12a1,1,0,1,1,1.42,0l-.16.12a.55.55,0,0,1-.17.09L38.2,51Z"/><path class="cls-5" d="M40,53a1,1,0,1,1,.71-.29A1.05,1.05,0,0,1,40,53Z"/><path class="cls-5" d="M40,49a.84.84,0,0,1-.38-.08,1.16,1.16,0,0,1-.33-.21l-.12-.15a.76.76,0,0,1-.09-.18A.63.63,0,0,1,39,48.2a1.32,1.32,0,0,1,0-.2,1.05,1.05,0,0,1,.29-.71,1.15,1.15,0,0,1,.33-.21,1,1,0,0,1,1.09.21A1,1,0,0,1,40,49Z"/><path class="cls-5" d="M42,51a1,1,0,1,1,.71-.29l-.16.12a.55.55,0,0,1-.17.09L42.2,51Z"/><path class="cls-5" d="M44,53a1,1,0,0,1-.38-.08,1.16,1.16,0,0,1-.33-.21,1,1,0,0,1,0-1.42,1.15,1.15,0,0,1,.33-.21,1,1,0,0,1,.76,0,1.16,1.16,0,0,1,.33.21,1,1,0,0,1,0,1.42,1.16,1.16,0,0,1-.33.21A1,1,0,0,1,44,53Z"/><path class="cls-5" d="M44,49a1,1,0,1,1,.71-.29A1.05,1.05,0,0,1,44,49Z"/><path class="cls-5" d="M46,51a1.05,1.05,0,0,1-.71-.29,1,1,0,0,1,0-1.42,1,1,0,0,1,1.42,1.42l-.15.12a.76.76,0,0,1-.18.09L46.2,51Z"/><path class="cls-5" d="M48,53a1.05,1.05,0,0,1-.71-.29A1,1,0,0,1,47,52a1.05,1.05,0,0,1,.29-.71A1,1,0,0,1,48.2,51a.63.63,0,0,1,.18.06.76.76,0,0,1,.18.09l.15.12a1,1,0,0,1,0,1.42l-.15.12a.76.76,0,0,1-.18.09L48.2,53Z"/><path class="cls-5" d="M48,49a1,1,0,1,1,1-1,1.38,1.38,0,0,1,0,.2.65.65,0,0,1-.06.18.76.76,0,0,1-.09.18,1.59,1.59,0,0,1-.12.15A1.05,1.05,0,0,1,48,49Z"/><path class="cls-5" d="M50,51l-.2,0-.18-.06a.56.56,0,0,1-.17-.09l-.16-.12A1,1,0,1,1,50,51Z"/><path class="cls-5" d="M52,53a1,1,0,1,1,.71-.29A1.05,1.05,0,0,1,52,53Z"/><path class="cls-5" d="M52,49a.84.84,0,0,1-.38-.08,1.16,1.16,0,0,1-.33-.21,1.6,1.6,0,0,1-.12-.15.76.76,0,0,1-.09-.18A.63.63,0,0,1,51,48.2a1.32,1.32,0,0,1,0-.2,1.05,1.05,0,0,1,.29-.71,1.15,1.15,0,0,1,.33-.21,1,1,0,0,1,1.09.21A1,1,0,0,1,52,49Z"/><path class="cls-5" d="M54,51a.84.84,0,0,1-.38-.08,1.16,1.16,0,0,1-.33-.21,1,1,0,0,1,0-1.42,1,1,0,0,1,.33-.21,1,1,0,0,1,1.09.21,1,1,0,0,1,0,1.42l-.15.12a.76.76,0,0,1-.18.09L54.2,51Z"/><path class="cls-5" d="M56,53a1,1,0,0,1-.38-.08,1,1,0,0,1-.33-.21,1,1,0,0,1,0-1.42,1,1,0,0,1,.33-.21,1,1,0,0,1,.76,0,1.16,1.16,0,0,1,.33.21,1,1,0,0,1,0,1.42,1.16,1.16,0,0,1-.33.21A1,1,0,0,1,56,53Z"/><path class="cls-5" d="M56,49a1,1,0,1,1,.71-.29A1.05,1.05,0,0,1,56,49Z"/><path class="cls-5" d="M58,51a1,1,0,0,1-.71-1.71,1,1,0,0,1,.33-.21,1,1,0,0,1,.76,0,1,1,0,0,1,.33.21,1,1,0,0,1,0,1.42,1.16,1.16,0,0,1-.33.21A.84.84,0,0,1,58,51Z"/><path class="cls-5" d="M60,53a1,1,0,1,1,.71-.29A1.05,1.05,0,0,1,60,53Z"/><path class="cls-5" d="M60,49a1.05,1.05,0,0,1-.71-.29l-.12-.15a.76.76,0,0,1-.09-.18A.63.63,0,0,1,59,48.2a1.32,1.32,0,0,1,0-.2,1.05,1.05,0,0,1,.29-.71,1,1,0,0,1,1.09-.21,1,1,0,0,1,.33.21A1.05,1.05,0,0,1,61,48a1.38,1.38,0,0,1,0,.2.65.65,0,0,1-.06.18.76.76,0,0,1-.09.18,1.59,1.59,0,0,1-.12.15,1,1,0,0,1-.33.21A.84.84,0,0,1,60,49Z"/><path class="cls-5" d="M62,51a1,1,0,0,1-.71-1.71,1,1,0,0,1,1.09-.21,1,1,0,0,1,.33.21A1,1,0,0,1,62,51Z"/><path class="cls-5" d="M64,53a1,1,0,0,1-.71-1.71,1,1,0,0,1,1.09-.21,1.16,1.16,0,0,1,.33.21,1,1,0,0,1,0,1.42,1.16,1.16,0,0,1-.33.21A1,1,0,0,1,64,53Z"/><path class="cls-5" d="M64,49a.84.84,0,0,1-.38-.08,1.16,1.16,0,0,1-.33-.21,1.6,1.6,0,0,1-.12-.15.76.76,0,0,1-.09-.18A.63.63,0,0,1,63,48.2a1.32,1.32,0,0,1,0-.2,1.05,1.05,0,0,1,.29-.71,1.15,1.15,0,0,1,.33-.21,1,1,0,0,1,1.09.21A1.05,1.05,0,0,1,65,48a1.38,1.38,0,0,1,0,.2.65.65,0,0,1-.06.18.76.76,0,0,1-.09.18l-.12.15A1.05,1.05,0,0,1,64,49Z"/><path class="cls-5" d="M66,51l-.2,0-.18-.06-.18-.09-.15-.12a1,1,0,1,1,1.42,0l-.16.12a.55.55,0,0,1-.17.09L66.2,51Z"/><path class="cls-5" d="M68,53a1,1,0,0,1-.38-.08,1.16,1.16,0,0,1-.33-.21,1,1,0,0,1,0-1.42,1.15,1.15,0,0,1,.33-.21,1,1,0,0,1,1.09.21A1,1,0,0,1,68,53Z"/><path class="cls-5" d="M68,49a1,1,0,1,1,.71-.29A1.05,1.05,0,0,1,68,49Z"/><path class="cls-5" d="M70,51a1.05,1.05,0,0,1-.71-.29A1,1,0,0,1,69,50a1,1,0,1,1,1.71.71l-.15.12a.76.76,0,0,1-.18.09L70.2,51Z"/><path class="cls-5" d="M72,53a1,1,0,1,1,.71-.29A1.05,1.05,0,0,1,72,53Z"/><path class="cls-5" d="M72,49a1.05,1.05,0,0,1-.71-.29l-.12-.15a.76.76,0,0,1-.09-.18A.63.63,0,0,1,71,48.2a1.32,1.32,0,0,1,0-.2,1.05,1.05,0,0,1,.29-.71,1,1,0,0,1,1.09-.21,1.16,1.16,0,0,1,.33.21,1,1,0,0,1,0,1.42,1.16,1.16,0,0,1-.33.21A.84.84,0,0,1,72,49Z"/><path class="cls-5" d="M74,51l-.2,0-.18-.06a.56.56,0,0,1-.17-.09l-.16-.12a1,1,0,0,1,0-1.42,1,1,0,0,1,1.42,1.42l-.15.12a.76.76,0,0,1-.18.09L74.2,51Z"/><path class="cls-5" d="M76,53a1,1,0,0,1-.38-.08,1.16,1.16,0,0,1-.33-.21,1,1,0,0,1,0-1.42,1.15,1.15,0,0,1,.33-.21,1,1,0,0,1,.76,0,1,1,0,0,1,.33.21,1,1,0,0,1-.33,1.63A1,1,0,0,1,76,53Z"/><path class="cls-5" d="M76,49a.84.84,0,0,1-.38-.08,1.16,1.16,0,0,1-.33-.21,1,1,0,0,1,0-1.42,1.15,1.15,0,0,1,.33-.21,1,1,0,0,1,1.09.21A1.05,1.05,0,0,1,77,48a1.38,1.38,0,0,1,0,.2.65.65,0,0,1-.06.18.76.76,0,0,1-.09.18l-.12.15A1.05,1.05,0,0,1,76,49Z"/><path class="cls-5" d="M78,51a.84.84,0,0,1-.38-.08,1.16,1.16,0,0,1-.33-.21,1,1,0,0,1,0-1.42.93.93,0,0,1,.33-.21,1,1,0,0,1,1.09.21A1,1,0,0,1,78,51Z"/><path class="cls-5" d="M80,53a1.05,1.05,0,0,1-.71-.29A1,1,0,0,1,79,52a1,1,0,1,1,1,1Z"/><path class="cls-5" d="M80,49a1.05,1.05,0,0,1-.71-.29A1,1,0,0,1,79,48a1,1,0,1,1,1,1Z"/><path class="cls-5" d="M82,51a.84.84,0,0,1-.38-.08,1.16,1.16,0,0,1-.33-.21,1,1,0,0,1,0-1.42,1,1,0,0,1,.33-.21,1,1,0,0,1,.76,0,1,1,0,0,1,.33.21A1,1,0,0,1,82,51Z"/><path class="cls-5" d="M84,53a1,1,0,0,1-.71-1.71A1,1,0,0,1,84.2,51a.63.63,0,0,1,.18.06.76.76,0,0,1,.18.09l.15.12a1,1,0,0,1,0,1.42l-.15.12a.76.76,0,0,1-.18.09L84.2,53Z"/><path class="cls-5" d="M84,49a1.05,1.05,0,0,1-.71-.29l-.12-.15a.76.76,0,0,1-.09-.18A.63.63,0,0,1,83,48.2a1.32,1.32,0,0,1,0-.2,1.05,1.05,0,0,1,.29-.71,1,1,0,0,1,1.09-.21,1.16,1.16,0,0,1,.33.21,1,1,0,0,1,0,1.42,1.16,1.16,0,0,1-.33.21A.84.84,0,0,1,84,49Z"/><path class="cls-5" d="M86,51a.84.84,0,0,1-.38-.08,1.16,1.16,0,0,1-.33-.21,1,1,0,0,1,0-1.42,1.15,1.15,0,0,1,.33-.21,1,1,0,0,1,.76,0,1,1,0,0,1,.33.21,1,1,0,0,1,0,1.42,1.16,1.16,0,0,1-.33.21A.84.84,0,0,1,86,51Z"/><path class="cls-5" d="M88,53a1,1,0,0,1-.38-.08,1.16,1.16,0,0,1-.33-.21,1,1,0,0,1,0-1.42,1.15,1.15,0,0,1,.33-.21,1,1,0,0,1,.76,0,1.16,1.16,0,0,1,.33.21,1,1,0,0,1,0,1.42,1.16,1.16,0,0,1-.33.21A1,1,0,0,1,88,53Z"/><path class="cls-5" d="M88,49a.84.84,0,0,1-.38-.08,1.16,1.16,0,0,1-.33-.21,1,1,0,0,1,0-1.42,1.15,1.15,0,0,1,.33-.21,1,1,0,0,1,1.09.21A1.05,1.05,0,0,1,89,48a1.38,1.38,0,0,1,0,.2.65.65,0,0,1-.06.18.76.76,0,0,1-.09.18l-.12.15A1.05,1.05,0,0,1,88,49Z"/><path class="cls-5" d="M90,51a1,1,0,1,1,.71-.29l-.16.12a.55.55,0,0,1-.17.09L90.2,51Z"/><path class="cls-5" d="M92,53a1.05,1.05,0,0,1-.71-.29A1,1,0,0,1,91,52a1,1,0,1,1,1,1Z"/><path class="cls-5" d="M92,49a1.05,1.05,0,0,1-.71-.29A1,1,0,0,1,91,48a1.05,1.05,0,0,1,.29-.71A1,1,0,0,1,92.2,47a.63.63,0,0,1,.18.06.55.55,0,0,1,.17.09l.16.12a1,1,0,0,1,0,1.42l-.16.12a.55.55,0,0,1-.17.09L92.2,49Z"/><path class="cls-5" d="M94,51a1,1,0,1,1,.71-.29l-.16.12a.55.55,0,0,1-.17.09L94.2,51Z"/><path class="cls-5" d="M96,53a1,1,0,1,1,.71-.29A1.05,1.05,0,0,1,96,53Z"/><path class="cls-5" d="M96,49a1.05,1.05,0,0,1-.71-.29l-.12-.15a.76.76,0,0,1-.09-.18A.63.63,0,0,1,95,48.2a1.32,1.32,0,0,1,0-.2,1.05,1.05,0,0,1,.29-.71,1,1,0,0,1,1.09-.21,1.16,1.16,0,0,1,.33.21A1.05,1.05,0,0,1,97,48a1.38,1.38,0,0,1,0,.2.65.65,0,0,1-.06.18.76.76,0,0,1-.09.18,1.59,1.59,0,0,1-.12.15,1.16,1.16,0,0,1-.33.21A.84.84,0,0,1,96,49Z"/><path class="cls-5" d="M98,51l-.19,0a.62.62,0,0,1-.19-.06.56.56,0,0,1-.17-.09l-.16-.12a1,1,0,0,1,0-1.42,1,1,0,0,1,1.42,0l.12.16a.56.56,0,0,1,.09.17.62.62,0,0,1,.06.19A1.25,1.25,0,0,1,99,50a1.38,1.38,0,0,1,0,.2.65.65,0,0,1-.06.18.76.76,0,0,1-.09.18l-.12.15-.15.12a.76.76,0,0,1-.18.09L98.2,51Z"/><path class="cls-5" d="M100,53a1,1,0,0,1-.38-.08,1.16,1.16,0,0,1-.33-.21,1,1,0,0,1,0-1.42,1.15,1.15,0,0,1,.33-.21,1,1,0,0,1,.76,0,1.16,1.16,0,0,1,.33.21,1,1,0,0,1,0,1.42,1.16,1.16,0,0,1-.33.21A1,1,0,0,1,100,53Z"/><path class="cls-5" d="M100,49a.84.84,0,0,1-.38-.08,1.16,1.16,0,0,1-.33-.21,1.6,1.6,0,0,1-.12-.15.76.76,0,0,1-.09-.18A.63.63,0,0,1,99,48.2a1.32,1.32,0,0,1,0-.2,1.05,1.05,0,0,1,.29-.71,1.15,1.15,0,0,1,.33-.21,1,1,0,0,1,1.09.21A1.05,1.05,0,0,1,101,48a1.38,1.38,0,0,1,0,.2.65.65,0,0,1-.06.18.76.76,0,0,1-.09.18l-.12.15A1.05,1.05,0,0,1,100,49Z"/><path class="cls-5" d="M102,51l-.2,0-.18-.06a.56.56,0,0,1-.17-.09l-.16-.12a1,1,0,1,1,1.42,0l-.15.12a.76.76,0,0,1-.18.09l-.18.06Z"/><path class="cls-5" d="M104,53a1.05,1.05,0,0,1-.71-.29A1,1,0,0,1,103,52a1,1,0,0,1,1.2-1,.63.63,0,0,1,.18.06.76.76,0,0,1,.18.09l.15.12a1,1,0,0,1,0,1.42l-.15.12a.76.76,0,0,1-.18.09l-.18.06Z"/><path class="cls-5" d="M104,49a1.05,1.05,0,0,1-.71-.29A1,1,0,0,1,103,48a1,1,0,1,1,1,1Z"/><path class="cls-5" d="M106,51a.84.84,0,0,1-.38-.08,1.16,1.16,0,0,1-.33-.21,1,1,0,0,1,0-1.42,1,1,0,0,1,1.42,0A1,1,0,0,1,106,51Z"/><path class="cls-5" d="M108,53a1,1,0,1,1,.71-.29A1.05,1.05,0,0,1,108,53Z"/><path class="cls-5" d="M108,49a1,1,0,0,1-.71-1.71,1,1,0,0,1,1.09-.21,1.16,1.16,0,0,1,.33.21A1.05,1.05,0,0,1,109,48a1.38,1.38,0,0,1,0,.2.65.65,0,0,1-.06.18.76.76,0,0,1-.09.18,1.59,1.59,0,0,1-.12.15,1.16,1.16,0,0,1-.33.21A.84.84,0,0,1,108,49Z"/><path class="cls-5" d="M110,51a.84.84,0,0,1-.38-.08,1.16,1.16,0,0,1-.33-.21,1,1,0,0,1,0-1.42,1,1,0,0,1,.33-.21,1,1,0,0,1,.76,0,1,1,0,0,1,.33.21,1,1,0,0,1,0,1.42,1.16,1.16,0,0,1-.33.21A.84.84,0,0,1,110,51Z"/><path class="cls-5" d="M112,53a1,1,0,0,1-.38-.08,1.16,1.16,0,0,1-.33-.21,1,1,0,0,1,0-1.42,1.15,1.15,0,0,1,.33-.21,1,1,0,0,1,.76,0,1.16,1.16,0,0,1,.33.21,1,1,0,0,1,0,1.42,1.16,1.16,0,0,1-.33.21A1,1,0,0,1,112,53Z"/><path class="cls-5" d="M36,57a1,1,0,0,1-.38-.08,1.16,1.16,0,0,1-.33-.21,1.6,1.6,0,0,1-.12-.15.76.76,0,0,1-.09-.18A.63.63,0,0,1,35,56.2a1.32,1.32,0,0,1,0-.2,1.05,1.05,0,0,1,.29-.71,1.15,1.15,0,0,1,.33-.21,1,1,0,0,1,1.09.21A1,1,0,0,1,36,57Z"/><path class="cls-5" d="M38,55a1,1,0,0,1-.38-.08,1.16,1.16,0,0,1-.33-.21l-.12-.15a.76.76,0,0,1-.09-.18A.63.63,0,0,1,37,54.2a1.32,1.32,0,0,1,0-.2,1.05,1.05,0,0,1,.29-.71,1.15,1.15,0,0,1,.33-.21,1,1,0,0,1,1.09.21A1.05,1.05,0,0,1,39,54a1.38,1.38,0,0,1,0,.2.65.65,0,0,1-.06.18.76.76,0,0,1-.09.18l-.12.15A1.05,1.05,0,0,1,38,55Z"/><path class="cls-5" d="M40,57l-.2,0-.18-.06-.18-.09-.15-.12-.12-.15a.76.76,0,0,1-.09-.18A.63.63,0,0,1,39,56.2a1.32,1.32,0,0,1,0-.2,1.05,1.05,0,0,1,.29-.71l.15-.12.18-.09A.63.63,0,0,1,39.8,55a1,1,0,0,1,.58.06,1.16,1.16,0,0,1,.33.21A1.05,1.05,0,0,1,41,56a1.38,1.38,0,0,1,0,.2.65.65,0,0,1-.06.18.76.76,0,0,1-.09.18,1.59,1.59,0,0,1-.12.15,1.16,1.16,0,0,1-.33.21A1,1,0,0,1,40,57Z"/><path class="cls-5" d="M42,55a1.05,1.05,0,0,1-.71-.29l-.12-.15a.76.76,0,0,1-.09-.18A.63.63,0,0,1,41,54.2a1.32,1.32,0,0,1,0-.2,1.05,1.05,0,0,1,.29-.71A1,1,0,0,1,42.2,53a.63.63,0,0,1,.18.06.76.76,0,0,1,.18.09l.15.12A1.05,1.05,0,0,1,43,54a1.38,1.38,0,0,1,0,.2.65.65,0,0,1-.06.18.76.76,0,0,1-.09.18l-.12.15-.15.12a.76.76,0,0,1-.18.09L42.2,55Z"/><path class="cls-5" d="M44,57a1.05,1.05,0,0,1-.71-.29l-.12-.15a.76.76,0,0,1-.09-.18A.63.63,0,0,1,43,56.2a1.32,1.32,0,0,1,0-.2,1,1,0,1,1,2,0,1.38,1.38,0,0,1,0,.2.65.65,0,0,1-.06.18.76.76,0,0,1-.09.18l-.12.15A1.05,1.05,0,0,1,44,57Z"/><path class="cls-5" d="M46,55a1.05,1.05,0,0,1-.71-.29l-.12-.15a.76.76,0,0,1-.09-.18A.63.63,0,0,1,45,54.2a1.32,1.32,0,0,1,0-.2,1,1,0,1,1,2,0,1.38,1.38,0,0,1,0,.2.65.65,0,0,1-.06.18.76.76,0,0,1-.09.18l-.12.15A1.05,1.05,0,0,1,46,55Z"/><path class="cls-5" d="M48,57a1,1,0,0,1-.38-.08,1.16,1.16,0,0,1-.33-.21,1,1,0,0,1,0-1.42,1.15,1.15,0,0,1,.33-.21,1,1,0,0,1,.76,0,1.16,1.16,0,0,1,.33.21,1,1,0,0,1,0,1.42,1.16,1.16,0,0,1-.33.21A1,1,0,0,1,48,57Z"/><path class="cls-5" d="M50,55l-.2,0-.18-.06-.18-.09-.15-.12-.12-.15a.76.76,0,0,1-.09-.18A.63.63,0,0,1,49,54.2a1.32,1.32,0,0,1,0-.2,1.05,1.05,0,0,1,.29-.71l.15-.12.18-.09A.63.63,0,0,1,49.8,53a1,1,0,0,1,.91.27A1.05,1.05,0,0,1,51,54a1.38,1.38,0,0,1,0,.2.65.65,0,0,1-.06.18.76.76,0,0,1-.09.18l-.12.15A1.05,1.05,0,0,1,50,55Z"/><path class="cls-5" d="M52,57l-.2,0-.18-.06-.18-.09-.15-.12-.12-.15a.76.76,0,0,1-.09-.18A.63.63,0,0,1,51,56.2a1.32,1.32,0,0,1,0-.2,1.05,1.05,0,0,1,.29-.71l.15-.12.18-.09A.63.63,0,0,1,51.8,55a1,1,0,0,1,.91.27A1.05,1.05,0,0,1,53,56a1.38,1.38,0,0,1,0,.2.65.65,0,0,1-.06.18.76.76,0,0,1-.09.18l-.12.15A1.05,1.05,0,0,1,52,57Z"/><path class="cls-5" d="M54,55a1.05,1.05,0,0,1-.71-.29,1,1,0,0,1,0-1.42A1,1,0,0,1,55,54a1.38,1.38,0,0,1,0,.2.65.65,0,0,1-.06.18.76.76,0,0,1-.09.18l-.12.15A1.05,1.05,0,0,1,54,55Z"/><path class="cls-5" d="M56,57a1.05,1.05,0,0,1-.71-.29,1.6,1.6,0,0,1-.12-.15.76.76,0,0,1-.09-.18A.63.63,0,0,1,55,56.2a1.32,1.32,0,0,1,0-.2,1.05,1.05,0,0,1,.29-.71A1,1,0,0,1,56.2,55a.63.63,0,0,1,.18.06.76.76,0,0,1,.18.09l.15.12A1.05,1.05,0,0,1,57,56a1.38,1.38,0,0,1,0,.2.65.65,0,0,1-.06.18.76.76,0,0,1-.09.18l-.12.15-.15.12a.76.76,0,0,1-.18.09L56.2,57Z"/><path class="cls-5" d="M58,55a1,1,0,0,1-.38-.08,1.16,1.16,0,0,1-.33-.21l-.12-.15a.76.76,0,0,1-.09-.18A.63.63,0,0,1,57,54.2a1.32,1.32,0,0,1,0-.2,1.05,1.05,0,0,1,.29-.71,1.15,1.15,0,0,1,.33-.21,1,1,0,0,1,.76,0,1.16,1.16,0,0,1,.33.21A1.05,1.05,0,0,1,59,54a1.38,1.38,0,0,1,0,.2.65.65,0,0,1-.06.18.76.76,0,0,1-.09.18,1.59,1.59,0,0,1-.12.15,1.16,1.16,0,0,1-.33.21A1,1,0,0,1,58,55Z"/><path class="cls-5" d="M60,57a1,1,0,0,1-.38-.08,1.16,1.16,0,0,1-.33-.21,1,1,0,0,1,0-1.42,1.15,1.15,0,0,1,.33-.21,1,1,0,0,1,.76,0,1.16,1.16,0,0,1,.33.21A1.05,1.05,0,0,1,61,56a1.38,1.38,0,0,1,0,.2.65.65,0,0,1-.06.18.76.76,0,0,1-.09.18,1.59,1.59,0,0,1-.12.15,1.16,1.16,0,0,1-.33.21A1,1,0,0,1,60,57Z"/><path class="cls-5" d="M62,55a1,1,0,0,1-.38-.08,1.16,1.16,0,0,1-.33-.21,1.6,1.6,0,0,1-.12-.15.76.76,0,0,1-.09-.18A.63.63,0,0,1,61,54.2a1.32,1.32,0,0,1,0-.2,1.05,1.05,0,0,1,.29-.71,1.15,1.15,0,0,1,.33-.21,1,1,0,0,1,1.09.21A1.05,1.05,0,0,1,63,54a1.38,1.38,0,0,1,0,.2.65.65,0,0,1-.06.18.76.76,0,0,1-.09.18l-.12.15A1.05,1.05,0,0,1,62,55Z"/><path class="cls-5" d="M64,57a1.05,1.05,0,0,1-.71-.29l-.12-.15a.76.76,0,0,1-.09-.18A.63.63,0,0,1,63,56.2a1.32,1.32,0,0,1,0-.2,1.05,1.05,0,0,1,.29-.71A1,1,0,0,1,64.2,55a.63.63,0,0,1,.18.06.76.76,0,0,1,.18.09l.15.12A1.05,1.05,0,0,1,65,56a1.38,1.38,0,0,1,0,.2.65.65,0,0,1-.06.18.76.76,0,0,1-.09.18l-.12.15-.15.12a.76.76,0,0,1-.18.09L64.2,57Z"/><path class="cls-5" d="M66,55a1,1,0,0,1-.38-.08,1.16,1.16,0,0,1-.33-.21,1.6,1.6,0,0,1-.12-.15.76.76,0,0,1-.09-.18A.63.63,0,0,1,65,54.2a1.32,1.32,0,0,1,0-.2,1.05,1.05,0,0,1,.29-.71,1.15,1.15,0,0,1,.33-.21,1,1,0,0,1,1.09.21A1.05,1.05,0,0,1,67,54a1.38,1.38,0,0,1,0,.2.65.65,0,0,1-.06.18.76.76,0,0,1-.09.18l-.12.15A1.05,1.05,0,0,1,66,55Z"/><path class="cls-5" d="M68,57a1,1,0,0,1-.38-.08,1.16,1.16,0,0,1-.33-.21,1.6,1.6,0,0,1-.12-.15.76.76,0,0,1-.09-.18A.63.63,0,0,1,67,56.2a1.32,1.32,0,0,1,0-.2,1.05,1.05,0,0,1,.29-.71,1.15,1.15,0,0,1,.33-.21,1,1,0,0,1,1.09.21A1,1,0,0,1,68,57Z"/><path class="cls-5" d="M70,55a1.05,1.05,0,0,1-.71-.29l-.12-.15a.76.76,0,0,1-.09-.18A.63.63,0,0,1,69,54.2a1.32,1.32,0,0,1,0-.2,1.05,1.05,0,0,1,.29-.71A1,1,0,0,1,70.2,53a.63.63,0,0,1,.18.06.76.76,0,0,1,.18.09l.15.12.12.15a.77.77,0,0,1,.09.18.65.65,0,0,1,.06.18,1.54,1.54,0,0,1,0,.2,1.38,1.38,0,0,1,0,.2.65.65,0,0,1-.06.18.76.76,0,0,1-.09.18l-.12.15-.15.12a.76.76,0,0,1-.18.09L70.2,55Z"/><path class="cls-5" d="M72,57a1.05,1.05,0,0,1-.71-.29,1,1,0,0,1,0-1.42,1,1,0,0,1,1.09-.21,1.16,1.16,0,0,1,.33.21A1.05,1.05,0,0,1,73,56a1.38,1.38,0,0,1,0,.2.65.65,0,0,1-.06.18.76.76,0,0,1-.09.18,1.59,1.59,0,0,1-.12.15,1.16,1.16,0,0,1-.33.21A1,1,0,0,1,72,57Z"/><path class="cls-5" d="M74,55a1.05,1.05,0,0,1-.71-.29l-.12-.15a.76.76,0,0,1-.09-.18A.63.63,0,0,1,73,54.2a1.32,1.32,0,0,1,0-.2,1,1,0,1,1,2,0,1.38,1.38,0,0,1,0,.2.65.65,0,0,1-.06.18.76.76,0,0,1-.09.18l-.12.15A1.05,1.05,0,0,1,74,55Z"/><path class="cls-5" d="M76,57a1.05,1.05,0,0,1-.71-.29l-.12-.15a.76.76,0,0,1-.09-.18A.63.63,0,0,1,75,56.2a1.32,1.32,0,0,1,0-.2,1.05,1.05,0,0,1,.29-.71A1,1,0,0,1,76.2,55a.63.63,0,0,1,.18.06.76.76,0,0,1,.18.09l.15.12A1.05,1.05,0,0,1,77,56a1.38,1.38,0,0,1,0,.2.65.65,0,0,1-.06.18.76.76,0,0,1-.09.18l-.12.15-.15.12a.76.76,0,0,1-.18.09L76.2,57Z"/><path class="cls-5" d="M78,55a1.05,1.05,0,0,1-.71-.29l-.12-.15a.76.76,0,0,1-.09-.18A.63.63,0,0,1,77,54.2a1.32,1.32,0,0,1,0-.2,1.05,1.05,0,0,1,.29-.71A1,1,0,0,1,78.2,53a.63.63,0,0,1,.18.06.76.76,0,0,1,.18.09l.15.12A1.05,1.05,0,0,1,79,54a1.38,1.38,0,0,1,0,.2.65.65,0,0,1-.06.18.76.76,0,0,1-.09.18l-.12.15-.15.12a.76.76,0,0,1-.18.09L78.2,55Z"/><path class="cls-5" d="M80,57a1,1,0,0,1-.38-.08,1.16,1.16,0,0,1-.33-.21,1.6,1.6,0,0,1-.12-.15.76.76,0,0,1-.09-.18A.63.63,0,0,1,79,56.2a1.32,1.32,0,0,1,0-.2,1.05,1.05,0,0,1,.29-.71,1.15,1.15,0,0,1,.33-.21,1,1,0,0,1,.76,0,1.16,1.16,0,0,1,.33.21,1,1,0,0,1,0,1.42,1.16,1.16,0,0,1-.33.21A1,1,0,0,1,80,57Z"/><path class="cls-5" d="M82,55a1.05,1.05,0,0,1-.71-.29,1,1,0,0,1,0-1.42A1,1,0,0,1,83,54a1.38,1.38,0,0,1,0,.2.65.65,0,0,1-.06.18.76.76,0,0,1-.09.18l-.12.15A1.05,1.05,0,0,1,82,55Z"/><path class="cls-5" d="M84,57l-.2,0-.18-.06-.18-.09-.15-.12-.12-.15a.76.76,0,0,1-.09-.18A.63.63,0,0,1,83,56.2a1.32,1.32,0,0,1,0-.2,1.05,1.05,0,0,1,.29-.71l.15-.12.18-.09A.63.63,0,0,1,83.8,55a1,1,0,0,1,.58.06,1.16,1.16,0,0,1,.33.21A1.05,1.05,0,0,1,85,56a1.38,1.38,0,0,1,0,.2.65.65,0,0,1-.06.18.76.76,0,0,1-.09.18,1.59,1.59,0,0,1-.12.15,1.16,1.16,0,0,1-.33.21A1,1,0,0,1,84,57Z"/><path class="cls-5" d="M86,55a1.05,1.05,0,0,1-.71-.29,1,1,0,0,1,0-1.42,1,1,0,0,1,1.09-.21,1.16,1.16,0,0,1,.33.21A1.05,1.05,0,0,1,87,54a1.38,1.38,0,0,1,0,.2.65.65,0,0,1-.06.18.76.76,0,0,1-.09.18,1.59,1.59,0,0,1-.12.15,1.16,1.16,0,0,1-.33.21A1,1,0,0,1,86,55Z"/><path class="cls-5" d="M88,57a1.05,1.05,0,0,1-.71-.29l-.12-.15a.76.76,0,0,1-.09-.18A.63.63,0,0,1,87,56.2a1.32,1.32,0,0,1,0-.2,1.05,1.05,0,0,1,.29-.71A1,1,0,0,1,88.2,55a.63.63,0,0,1,.18.06.76.76,0,0,1,.18.09l.15.12A1.05,1.05,0,0,1,89,56a1.38,1.38,0,0,1,0,.2.65.65,0,0,1-.06.18.76.76,0,0,1-.09.18l-.12.15-.15.12a.76.76,0,0,1-.18.09L88.2,57Z"/><path class="cls-5" d="M90,55a1,1,0,0,1-.38-.08,1.16,1.16,0,0,1-.33-.21,1.6,1.6,0,0,1-.12-.15.76.76,0,0,1-.09-.18A.63.63,0,0,1,89,54.2a1.32,1.32,0,0,1,0-.2,1.05,1.05,0,0,1,.29-.71,1.15,1.15,0,0,1,.33-.21,1,1,0,0,1,.76,0,1.16,1.16,0,0,1,.33.21A1.05,1.05,0,0,1,91,54a1.38,1.38,0,0,1,0,.2.65.65,0,0,1-.06.18.76.76,0,0,1-.09.18,1.59,1.59,0,0,1-.12.15,1.16,1.16,0,0,1-.33.21A1,1,0,0,1,90,55Z"/><path class="cls-5" d="M92,57a1,1,0,0,1-.38-.08,1.16,1.16,0,0,1-.33-.21,1,1,0,0,1,0-1.42,1.15,1.15,0,0,1,.33-.21,1,1,0,0,1,.76,0,1.16,1.16,0,0,1,.33.21,1,1,0,0,1,0,1.42,1.16,1.16,0,0,1-.33.21A1,1,0,0,1,92,57Z"/><path class="cls-5" d="M94,55a1,1,0,0,1-.38-.08,1.16,1.16,0,0,1-.33-.21,1.6,1.6,0,0,1-.12-.15.76.76,0,0,1-.09-.18A.63.63,0,0,1,93,54.2a1.32,1.32,0,0,1,0-.2,1.05,1.05,0,0,1,.29-.71,1.15,1.15,0,0,1,.33-.21,1,1,0,0,1,.76,0,1.16,1.16,0,0,1,.33.21A1.05,1.05,0,0,1,95,54a1.38,1.38,0,0,1,0,.2.65.65,0,0,1-.06.18.76.76,0,0,1-.09.18l-.12.15a1.16,1.16,0,0,1-.33.21A1,1,0,0,1,94,55Z"/><path class="cls-5" d="M96,57a1.05,1.05,0,0,1-.71-.29l-.12-.15a.76.76,0,0,1-.09-.18A.63.63,0,0,1,95,56.2a1.32,1.32,0,0,1,0-.2,1,1,0,0,1,1.2-1,.63.63,0,0,1,.18.06.76.76,0,0,1,.18.09l.15.12A1.05,1.05,0,0,1,97,56a1.38,1.38,0,0,1,0,.2.65.65,0,0,1-.06.18.76.76,0,0,1-.09.18l-.12.15-.15.12a.76.76,0,0,1-.18.09L96.2,57Z"/><path class="cls-5" d="M98,55a1.05,1.05,0,0,1-.71-.29l-.12-.15a.76.76,0,0,1-.09-.18A.63.63,0,0,1,97,54.2a1.32,1.32,0,0,1,0-.2,1.05,1.05,0,0,1,.29-.71A1,1,0,0,1,98.2,53a.63.63,0,0,1,.18.06.55.55,0,0,1,.17.09l.16.12A1.05,1.05,0,0,1,99,54a1.38,1.38,0,0,1,0,.2.65.65,0,0,1-.06.18.76.76,0,0,1-.09.18l-.12.15-.16.12a.55.55,0,0,1-.17.09L98.2,55Z"/><path class="cls-5" d="M100,57a1,1,0,0,1-.38-.08,1.16,1.16,0,0,1-.33-.21,1.6,1.6,0,0,1-.12-.15.76.76,0,0,1-.09-.18A.63.63,0,0,1,99,56.2a1.32,1.32,0,0,1,0-.2,1.05,1.05,0,0,1,.29-.71,1.15,1.15,0,0,1,.33-.21,1,1,0,0,1,.58-.06.63.63,0,0,1,.18.06.76.76,0,0,1,.18.09l.15.12A1.05,1.05,0,0,1,101,56a1.38,1.38,0,0,1,0,.2.65.65,0,0,1-.06.18.76.76,0,0,1-.09.18l-.12.15-.15.12a.76.76,0,0,1-.18.09l-.18.06Z"/><path class="cls-5" d="M102,55a1.05,1.05,0,0,1-.71-.29l-.12-.15a.76.76,0,0,1-.09-.18.63.63,0,0,1-.06-.18,1.32,1.32,0,0,1,0-.2,1,1,0,1,1,2,0,1.38,1.38,0,0,1,0,.2.65.65,0,0,1-.06.18.76.76,0,0,1-.09.18l-.12.15A1.05,1.05,0,0,1,102,55Z"/><path class="cls-5" d="M104,57l-.2,0-.18-.06a.56.56,0,0,1-.17-.09l-.16-.12a1,1,0,0,1,0-1.42l.16-.12a.56.56,0,0,1,.17-.09.63.63,0,0,1,.18-.06,1,1,0,0,1,.58.06,1.16,1.16,0,0,1,.33.21A1.05,1.05,0,0,1,105,56a1.38,1.38,0,0,1,0,.2.65.65,0,0,1-.06.18.76.76,0,0,1-.09.18,1.59,1.59,0,0,1-.12.15,1.16,1.16,0,0,1-.33.21A1,1,0,0,1,104,57Z"/><path class="cls-5" d="M106,55a1.05,1.05,0,0,1-.71-.29l-.12-.15a.76.76,0,0,1-.09-.18.63.63,0,0,1-.06-.18,1.32,1.32,0,0,1,0-.2,1.05,1.05,0,0,1,.29-.71,1,1,0,0,1,.91-.27.63.63,0,0,1,.18.06.76.76,0,0,1,.18.09l.15.12A1.05,1.05,0,0,1,107,54a1.38,1.38,0,0,1,0,.2.65.65,0,0,1-.06.18.76.76,0,0,1-.09.18l-.12.15-.15.12a.76.76,0,0,1-.18.09l-.18.06Z"/><path class="cls-5" d="M108,57a1.05,1.05,0,0,1-.71-.29l-.12-.15a.76.76,0,0,1-.09-.18.63.63,0,0,1-.06-.18,1.32,1.32,0,0,1,0-.2,1.05,1.05,0,0,1,.29-.71,1,1,0,0,1,.91-.27.63.63,0,0,1,.18.06.76.76,0,0,1,.18.09l.15.12A1.05,1.05,0,0,1,109,56a1.38,1.38,0,0,1,0,.2.65.65,0,0,1-.06.18.76.76,0,0,1-.09.18l-.12.15-.15.12a.76.76,0,0,1-.18.09l-.18.06Z"/><path class="cls-5" d="M110,55l-.2,0-.18-.06-.18-.09-.15-.12a1,1,0,0,1,0-1.42l.15-.12.18-.09a.63.63,0,0,1,.18-.06,1,1,0,0,1,.91.27A1.05,1.05,0,0,1,111,54a1.38,1.38,0,0,1,0,.2.65.65,0,0,1-.06.18.76.76,0,0,1-.09.18l-.12.15A1.05,1.05,0,0,1,110,55Z"/><path class="cls-5" d="M112,57a1,1,0,0,1-.38-.08,1.16,1.16,0,0,1-.33-.21,1.6,1.6,0,0,1-.12-.15.76.76,0,0,1-.09-.18.63.63,0,0,1-.06-.18,1.32,1.32,0,0,1,0-.2,1.05,1.05,0,0,1,.29-.71,1.15,1.15,0,0,1,.33-.21,1,1,0,0,1,1.09.21A1,1,0,0,1,112,57Z"/><path class="cls-5" d="M112,49a1.05,1.05,0,0,1-.71-.29,1.6,1.6,0,0,1-.12-.15.76.76,0,0,1-.09-.18.63.63,0,0,1-.06-.18,1.32,1.32,0,0,1,0-.2,1,1,0,1,1,2,0,1.38,1.38,0,0,1,0,.2.65.65,0,0,1-.06.18.76.76,0,0,1-.09.18l-.12.15A1.05,1.05,0,0,1,112,49Z"/><path class="cls-5" d="M114,51a1,1,0,0,1-.71-1.71,1,1,0,0,1,1.09-.21,1,1,0,0,1,.33.21,1,1,0,0,1,0,1.42,1.16,1.16,0,0,1-.33.21A.84.84,0,0,1,114,51Z"/><path class="cls-5" d="M116,53a1,1,0,1,1,.71-.29A1.05,1.05,0,0,1,116,53Z"/><path class="cls-5" d="M114,55a1.05,1.05,0,0,1-.71-.29,1,1,0,0,1,0-1.42,1,1,0,0,1,1.09-.21,1.16,1.16,0,0,1,.33.21A1.05,1.05,0,0,1,115,54a1.38,1.38,0,0,1,0,.2.65.65,0,0,1-.06.18.76.76,0,0,1-.09.18,1.59,1.59,0,0,1-.12.15,1.16,1.16,0,0,1-.33.21A1,1,0,0,1,114,55Z"/><path class="cls-5" d="M116,57l-.2,0-.18-.06-.18-.09-.15-.12-.12-.15a.76.76,0,0,1-.09-.18.63.63,0,0,1-.06-.18,1.32,1.32,0,0,1,0-.2,1.05,1.05,0,0,1,.29-.71l.15-.12.18-.09a.63.63,0,0,1,.18-.06,1,1,0,0,1,.58.06,1.16,1.16,0,0,1,.33.21A1.05,1.05,0,0,1,117,56a1.38,1.38,0,0,1,0,.2.65.65,0,0,1-.06.18.76.76,0,0,1-.09.18,1.59,1.59,0,0,1-.12.15,1.16,1.16,0,0,1-.33.21A1,1,0,0,1,116,57Z"/><path class="cls-5" d="M116,49a1.05,1.05,0,0,1-.71-.29A1,1,0,0,1,115,48a1,1,0,1,1,1,1Z"/></g><path class="cls-5" d="M115,94H37a3,3,0,0,1-3-3V41a3,3,0,0,1,3-3h78a3,3,0,0,1,3,3V91A3,3,0,0,1,115,94ZM37,40a1,1,0,0,0-1,1V91a1,1,0,0,0,1,1h78a1,1,0,0,0,1-1V41a1,1,0,0,0-1-1Z"/><rect class="cls-10" height="54" rx="2" ry="2" width="82" x="13" y="61"/><g class="cls-1"><path class="cls-8" d="M93,61H15a2,2,0,0,0-2,2v39.79L95,63.84V63A2,2,0,0,0,93,61Z"/></g><g class="cls-1"><polygon class="cls-8" points="13 108.24 95 69.29 95 66.29 13 105.24 13 108.24"/></g><path class="cls-5" d="M93,116H15a3,3,0,0,1-3-3V63a3,3,0,0,1,3-3H93a3,3,0,0,1,3,3v50A3,3,0,0,1,93,116ZM15,62a1,1,0,0,0-1,1v50a1,1,0,0,0,1,1H93a1,1,0,0,0,1-1V63a1,1,0,0,0-1-1Z"/><rect class="cls-11" height="10" rx="2" ry="2" width="10" x="21" y="69"/><path class="cls-5" d="M29,80H23a3,3,0,0,1-3-3V71a3,3,0,0,1,3-3h6a3,3,0,0,1,3,3v6A3,3,0,0,1,29,80ZM23,70a1,1,0,0,0-1,1v6a1,1,0,0,0,1,1h6a1,1,0,0,0,1-1V71a1,1,0,0,0-1-1Z"/><path class="cls-8" d="M25,100H21a1,1,0,0,1,0-2h4a1,1,0,0,1,0,2Z"/><path class="cls-8" d="M33,100H29a1,1,0,0,1,0-2h4a1,1,0,0,1,0,2Z"/><path class="cls-8" d="M43,104H21a1,1,0,0,1,0-2H43a1,1,0,0,1,0,2Z"/><path class="cls-8" d="M53,104H47a1,1,0,0,1,0-2h6a1,1,0,0,1,0,2Z"/><path class="cls-8" d="M21,92a1,1,0,0,1-1-1V89a1,1,0,0,1,2,0v2A1,1,0,0,1,21,92Z"/><path class="cls-8" d="M25,92a1,1,0,0,1-1-1V89a1,1,0,0,1,2,0v2A1,1,0,0,1,25,92Z"/><path class="cls-8" d="M29,92a1,1,0,0,1-1-1V89a1,1,0,0,1,2,0v2A1,1,0,0,1,29,92Z"/><path class="cls-8" d="M33,92a1,1,0,0,1-1-1V89a1,1,0,0,1,2,0v2A1,1,0,0,1,33,92Z"/><path class="cls-8" d="M39,92a1,1,0,0,1-1-1V89a1,1,0,0,1,2,0v2A1,1,0,0,1,39,92Z"/><path class="cls-8" d="M43,92a1,1,0,0,1-1-1V89a1,1,0,0,1,2,0v2A1,1,0,0,1,43,92Z"/><path class="cls-8" d="M47,92a1,1,0,0,1-1-1V89a1,1,0,0,1,2,0v2A1,1,0,0,1,47,92Z"/><path class="cls-8" d="M51,92a1,1,0,0,1-1-1V89a1,1,0,0,1,2,0v2A1,1,0,0,1,51,92Z"/><path class="cls-8" d="M57,92a1,1,0,0,1-1-1V89a1,1,0,0,1,2,0v2A1,1,0,0,1,57,92Z"/><path class="cls-8" d="M61,92a1,1,0,0,1-1-1V89a1,1,0,0,1,2,0v2A1,1,0,0,1,61,92Z"/><path class="cls-8" d="M65,92a1,1,0,0,1-1-1V89a1,1,0,0,1,2,0v2A1,1,0,0,1,65,92Z"/><path class="cls-8" d="M69,92a1,1,0,0,1-1-1V89a1,1,0,0,1,2,0v2A1,1,0,0,1,69,92Z"/><path class="cls-8" d="M75,92a1,1,0,0,1-1-1V89a1,1,0,0,1,2,0v2A1,1,0,0,1,75,92Z"/><path class="cls-8" d="M79,92a1,1,0,0,1-1-1V89a1,1,0,0,1,2,0v2A1,1,0,0,1,79,92Z"/><path class="cls-8" d="M83,92a1,1,0,0,1-1-1V89a1,1,0,0,1,2,0v2A1,1,0,0,1,83,92Z"/><path class="cls-8" d="M87,92a1,1,0,0,1-1-1V89a1,1,0,0,1,2,0v2A1,1,0,0,1,87,92Z"/><circle class="cls-11" cx="81" cy="101" r="6"/><circle class="cls-8" cx="72" cy="101" r="6"/><path class="cls-5" d="M81,108a7,7,0,0,1-4.5-1.67,7,7,0,1,1,0-10.66A7,7,0,1,1,81,108Zm-4.5-4.07a1,1,0,0,1,.75.34,5,5,0,1,0,0-6.54,1,1,0,0,1-1.51,0,5,5,0,1,0,0,6.54A1,1,0,0,1,76.5,103.93Z"/></svg>