<?xml version="1.0" ?><svg data-name="003" id="_003" viewBox="0 0 128 128" xmlns="http://www.w3.org/2000/svg"><defs><style>.cls-1{opacity:0.3;}.cls-2{fill:#c9c1f5;}.cls-3{fill:#eef6ff;}.cls-4{fill:#7595b5;}.cls-5{fill:#fff;}.cls-6{fill:#6d6daa;}.cls-7{fill:#d6b5b0;}.cls-8{fill:#fff9e0;}.cls-9{fill:#93765f;}.cls-10{opacity:0.5;}.cls-11{fill:#fffad1;}.cls-12{fill:#b1f1a8;}.cls-13{fill:#a3e298;}.cls-14{fill:#97c1ff;}.cls-15{fill:#939fc6;}.cls-16{fill:#fff27d;}.cls-17{fill:#f7a706;}.cls-18{fill:#f5dbb8;}.cls-19{fill:#875499;}.cls-20{fill:#b6b6d4;}</style></defs><title/><g class="cls-1"><path class="cls-2" d="M125.69,49.65a30,30,0,0,0-23.51-25,19.69,19.69,0,0,1-10.93-6.55A37,37,0,0,0,27,33.43,21,21,0,0,1,16.1,47.1C1.94,54.46-5.15,73.56,7.75,91.48a16.6,16.6,0,0,0,6.35,4.91,20.58,20.58,0,0,1,10,10.88,28.49,28.49,0,0,0,42.62,12.64A20.06,20.06,0,0,1,83.37,117a29,29,0,0,0,36-33.79A20.08,20.08,0,0,1,121.92,69,29.83,29.83,0,0,0,125.69,49.65Z"/><circle class="cls-3" cx="18.99" cy="105" r="18"/><g class="cls-1"><path class="cls-4" d="M19,119.14A18,18,0,0,1,1.09,103.07,18,18,0,1,0,37,105a18.18,18.18,0,0,0-.11-1.93A18,18,0,0,1,19,119.14Z"/></g><path class="cls-5" d="M19,90.86a18,18,0,0,1,17.89,16.07A18,18,0,1,0,1,105a18.18,18.18,0,0,0,.11,1.93A18,18,0,0,1,19,90.86Z"/><path class="cls-6" d="M19,124a19,19,0,1,1,19-19A19,19,0,0,1,19,124Zm0-36a17,17,0,1,0,17,17A17,17,0,0,0,19,88Z"/><path class="cls-6" d="M19,118.86a1,1,0,0,1-.39-.08.88.88,0,0,1-.32-.22,1,1,0,0,1-.29-.7,1.3,1.3,0,0,1,0-.2l.06-.18.09-.18.13-.15a1,1,0,0,1,1.41,0l.13.15.09.18.06.18a1.31,1.31,0,0,1,0,.2,1,1,0,0,1-.3.7.88.88,0,0,1-.32.22A1,1,0,0,1,19,118.86Z"/><path class="cls-6" d="M31.84,106a1,1,0,0,1-.7-.29,1,1,0,0,1-.22-.33.94.94,0,0,1,0-.76.91.91,0,0,1,.22-.33,1,1,0,0,1,.32-.21A1,1,0,0,1,32,104a.72.72,0,0,1,.19.06.68.68,0,0,1,.17.09l.15.12a1.07,1.07,0,0,1,.22.33,1.07,1.07,0,0,1,0,.76,1,1,0,0,1-.54.55A1,1,0,0,1,31.84,106Z"/><path class="cls-6" d="M5.84,106a1,1,0,0,1-.38-.07,1.45,1.45,0,0,1-.33-.22,1,1,0,0,1-.29-.71,1,1,0,0,1,.08-.38,1,1,0,0,1,.21-.33,1,1,0,0,1,.16-.12.54.54,0,0,1,.17-.09.61.61,0,0,1,.19-.06,1,1,0,0,1,.58.06,1,1,0,0,1,.32.21,1.27,1.27,0,0,1,.22.33,1,1,0,0,1-.22,1.09,1.21,1.21,0,0,1-.32.22A1,1,0,0,1,5.84,106Z"/><path class="cls-6" d="M19,93a1,1,0,0,1-.71-.29,1,1,0,0,1-.22-.33,1.06,1.06,0,0,1,0-.76,1.06,1.06,0,0,1,.22-.33,1,1,0,0,1,1.41,0,.9.9,0,0,1,.22.33A1,1,0,0,1,20,92a1,1,0,0,1-.3.71A1,1,0,0,1,19,93Z"/><path class="cls-6" d="M19,108.57A3.57,3.57,0,1,1,22.56,105,3.58,3.58,0,0,1,19,108.57Zm0-5.14A1.57,1.57,0,1,0,20.56,105,1.57,1.57,0,0,0,19,103.43Z"/><path class="cls-6" d="M19,103.43a1,1,0,0,1-1-1V95.14a1,1,0,0,1,2,0v7.29A1,1,0,0,1,19,103.43Z"/><path class="cls-6" d="M16.41,106H9.13a1,1,0,1,1,0-2h7.29a1,1,0,0,1,0,2Z"/><rect class="cls-7" height="24" width="26" x="8.99" y="37"/><g class="cls-1"><rect class="cls-8" height="3" width="26" x="8.99" y="37"/></g><g class="cls-1"><rect class="cls-9" height="3" width="26" x="8.99" y="58"/></g><path class="cls-6" d="M35,62H9a1,1,0,0,1-1-1V37a1,1,0,0,1,1-1H35a1,1,0,0,1,1,1V61A1,1,0,0,1,35,62ZM10,60H34V38H10Z"/><rect class="cls-5" height="6" width="8" x="12.99" y="51"/><path class="cls-6" d="M21,58H13a1,1,0,0,1-1-1V51a1,1,0,0,1,1-1h8a1,1,0,0,1,1,1v6A1,1,0,0,1,21,58Zm-7-2h6V52H14Z"/><g class="cls-10"><path class="cls-6" d="M18,55H16a1,1,0,1,1,0-2h2a1,1,0,0,1,0,2Z"/></g><polygon class="cls-11" points="25.98 37 17.98 37 17.98 44 19.98 45 21.98 44 23.98 45 25.98 44 25.98 37"/><path class="cls-6" d="M24,46a1,1,0,0,1-.45-.11L22,45.12l-1.55.78a1,1,0,0,1-.89,0l-2-1A1,1,0,0,1,17,44V37a1,1,0,0,1,1-1h8a1,1,0,0,1,1,1v7a1,1,0,0,1-.55.89l-2,1A1,1,0,0,1,24,46Zm-2-3a1,1,0,0,1,.45.11l1.55.78,1-.5V38H19v5.38l1,.5,1.55-.78A1,1,0,0,1,22,43Z"/><path class="cls-6" d="M22,38a1,1,0,0,1-1-1V32a1,1,0,0,1,2,0v5A1,1,0,0,1,22,38Z"/><path class="cls-6" d="M22,33a1,1,0,0,1-.42-.09L1.7,23.78A1,1,0,0,1,2.53,22L22.4,31.07A1,1,0,0,1,22,33Z"/><path class="cls-6" d="M22,33a1,1,0,0,1-.81-.41l-6.62-9.11a1,1,0,1,1,1.62-1.18l6.62,9.11A1,1,0,0,1,22,33Z"/><path class="cls-6" d="M22,33a1,1,0,0,1-.81-1.59l6.62-9.11a1,1,0,0,1,1.62,1.18l-6.62,9.11A1,1,0,0,1,22,33Z"/><path class="cls-6" d="M22,33a1,1,0,0,1-.42-1.91L41.44,22a1,1,0,1,1,.83,1.82L22.4,32.89A1,1,0,0,1,22,33Z"/><path class="cls-12" d="M28.61,22.87c0-2,3-3.68,6.63-3.68s6.62,1.65,6.62,3.68a19.87,19.87,0,1,0-39.74,0c0-2,3-3.68,6.62-3.68s6.63,1.65,6.63,3.68c0-2,3-3.68,6.62-3.68S28.61,20.84,28.61,22.87Z"/><path class="cls-13" d="M22,3c3.66,0,6.62,8.9,6.62,19.87,0-2-3-3.68-6.62-3.68s-6.62,1.65-6.62,3.68C15.37,11.9,18.33,3,22,3Z"/><g class="cls-10"><path class="cls-5" d="M22,6A19.87,19.87,0,0,1,41.35,21.46a2.34,2.34,0,0,1,.51,1.41,19.87,19.87,0,0,0-39.74,0,2.34,2.34,0,0,1,.51-1.41A19.87,19.87,0,0,1,22,6Z"/></g><path class="cls-6" d="M41.86,23.87a1,1,0,0,1-1-1c0-1.27-2.4-2.68-5.62-2.68s-5.63,1.42-5.63,2.68a1,1,0,0,1-2,0c0-1.27-2.4-2.68-5.62-2.68s-5.62,1.42-5.62,2.68a1,1,0,0,1-2,0c0-1.27-2.41-2.68-5.63-2.68s-5.62,1.42-5.62,2.68a1,1,0,0,1-2,0,20.87,20.87,0,1,1,41.74,0A1,1,0,0,1,41.86,23.87ZM8.74,18.19a9.18,9.18,0,0,1,6.63,2.33A9.16,9.16,0,0,1,22,18.19a9.16,9.16,0,0,1,6.62,2.33,9.18,9.18,0,0,1,6.63-2.33,10.56,10.56,0,0,1,5.32,1.3,18.87,18.87,0,0,0-37.13,0A10.57,10.57,0,0,1,8.74,18.19Z"/><path class="cls-6" d="M28.61,23.87a1,1,0,0,1-1-1c0-1.27-2.4-2.68-5.62-2.68s-5.62,1.42-5.62,2.68a1,1,0,0,1-2,0C14.37,12.75,17,2,22,2s7.62,10.75,7.62,20.87A1,1,0,0,1,28.61,23.87ZM22,18.19a10.38,10.38,0,0,1,5.53,1.43C27,10.49,24.36,4,22,4s-5,6.49-5.53,15.62A10.38,10.38,0,0,1,22,18.19Z"/><rect class="cls-7" height="16" width="22" x="95.99" y="110"/><g class="cls-1"><rect class="cls-8" height="3" width="22" x="95.99" y="110"/></g><g class="cls-1"><rect class="cls-9" height="3" width="22" x="95.99" y="123"/></g><path class="cls-6" d="M118,127H96a1,1,0,0,1-1-1V110a1,1,0,0,1,1-1h22a1,1,0,0,1,1,1v16A1,1,0,0,1,118,127Zm-21-2h20V111H97Z"/><polygon class="cls-11" points="110.98 110 102.98 110 102.98 117 104.98 118 106.98 117 108.98 118 110.98 117 110.98 110"/><path class="cls-6" d="M109,119a1,1,0,0,1-.45-.11l-1.55-.78-1.55.78a1,1,0,0,1-.89,0l-2-1A1,1,0,0,1,102,117v-7a1,1,0,0,1,1-1h8a1,1,0,0,1,1,1v7a1,1,0,0,1-.55.89l-2,1A1,1,0,0,1,109,119Zm-2-3a1,1,0,0,1,.45.11l1.55.78,1-.5V111h-6v5.38l1,.5,1.55-.78A1,1,0,0,1,107,116Z"/><rect class="cls-7" height="16" width="22" x="91.99" y="94"/><g class="cls-1"><rect class="cls-8" height="3" width="22" x="91.99" y="94"/></g><g class="cls-1"><rect class="cls-9" height="3" width="22" x="91.99" y="107"/></g><path class="cls-6" d="M114,111H92a1,1,0,0,1-1-1V94a1,1,0,0,1,1-1h22a1,1,0,0,1,1,1v16A1,1,0,0,1,114,111Zm-21-2h20V95H93Z"/><polygon class="cls-11" points="106.98 94 98.98 94 98.98 101 100.98 102 102.98 101 104.98 102 106.98 101 106.98 94"/><path class="cls-6" d="M105,103a1,1,0,0,1-.45-.11l-1.55-.78-1.55.78a1,1,0,0,1-.89,0l-2-1A1,1,0,0,1,98,101V94a1,1,0,0,1,1-1h8a1,1,0,0,1,1,1v7a1,1,0,0,1-.55.89l-2,1A1,1,0,0,1,105,103Zm-2-3a1,1,0,0,1,.45.11l1.55.78,1-.5V95h-6v5.38l1,.5,1.55-.78A1,1,0,0,1,103,100Z"/><rect class="cls-14" height="33" rx="2" ry="2" width="48" x="75" y="21"/><path class="cls-6" d="M121,55H77a3,3,0,0,1-3-3V23a3,3,0,0,1,3-3h44a3,3,0,0,1,3,3V52A3,3,0,0,1,121,55ZM77,22a1,1,0,0,0-1,1V52a1,1,0,0,0,1,1h44a1,1,0,0,0,1-1V23a1,1,0,0,0-1-1Z"/><rect class="cls-5" height="6" width="36" x="81" y="40"/><path class="cls-6" d="M117,47H81a1,1,0,0,1-1-1V40a1,1,0,0,1,1-1h36a1,1,0,0,1,1,1v6A1,1,0,0,1,117,47ZM82,45h34V41H82Z"/><rect class="cls-15" height="7" width="48" x="75" y="27"/><path class="cls-6" d="M123,35H75a1,1,0,0,1-1-1V27a1,1,0,0,1,1-1h48a1,1,0,0,1,1,1v7A1,1,0,0,1,123,35ZM76,33h46V28H76Z"/><g class="cls-1"><path class="cls-6" d="M76,32a.84.84,0,0,1-.38-.08,1.16,1.16,0,0,1-.33-.21,1,1,0,0,1,0-1.42,1.15,1.15,0,0,1,.33-.21.92.92,0,0,1,.76,0,1.16,1.16,0,0,1,.33.21A1.05,1.05,0,0,1,77,31a1.38,1.38,0,0,1,0,.2.65.65,0,0,1-.06.18.76.76,0,0,1-.09.18l-.12.15a1.16,1.16,0,0,1-.33.21A.84.84,0,0,1,76,32Z"/><path class="cls-6" d="M78,30a1.05,1.05,0,0,1-.71-.29,1.16,1.16,0,0,1-.21-.33.95.95,0,0,1,0-.76,1.15,1.15,0,0,1,.21-.33A1,1,0,0,1,78.2,28a.63.63,0,0,1,.18.06.55.55,0,0,1,.17.09l.16.12a1.16,1.16,0,0,1,.21.33.94.94,0,0,1,0,.76,1.16,1.16,0,0,1-.21.33A1.05,1.05,0,0,1,78,30Z"/><path class="cls-6" d="M80,32a1.05,1.05,0,0,1-.71-.29l-.12-.15a.76.76,0,0,1-.09-.18A.63.63,0,0,1,79,31.2a1.32,1.32,0,0,1,0-.2,1,1,0,1,1,2,0,1.38,1.38,0,0,1,0,.2.65.65,0,0,1-.06.18.76.76,0,0,1-.09.18,1.59,1.59,0,0,1-.12.15l-.15.12a.76.76,0,0,1-.18.09L80.2,32Z"/><path class="cls-6" d="M82,30a1.05,1.05,0,0,1-.71-.29,1.16,1.16,0,0,1-.21-.33.95.95,0,0,1,0-.76,1.15,1.15,0,0,1,.21-.33,1,1,0,0,1,1.42,0,1.16,1.16,0,0,1,.21.33.94.94,0,0,1,0,.76,1.16,1.16,0,0,1-.21.33A1.05,1.05,0,0,1,82,30Z"/><path class="cls-6" d="M84,32a.84.84,0,0,1-.38-.08,1.16,1.16,0,0,1-.33-.21l-.12-.15a.76.76,0,0,1-.09-.18A.63.63,0,0,1,83,31.2a1.32,1.32,0,0,1,0-.2,1.05,1.05,0,0,1,.29-.71,1.15,1.15,0,0,1,.33-.21.92.92,0,0,1,.76,0,1.16,1.16,0,0,1,.33.21A1.05,1.05,0,0,1,85,31a1.38,1.38,0,0,1,0,.2.65.65,0,0,1-.06.18.76.76,0,0,1-.09.18l-.12.15a1.16,1.16,0,0,1-.33.21A.84.84,0,0,1,84,32Z"/><path class="cls-6" d="M86,30a1.05,1.05,0,0,1-.71-.29,1.16,1.16,0,0,1-.21-.33.95.95,0,0,1,0-.76,1.15,1.15,0,0,1,.21-.33,1,1,0,0,1,1.42,0,1.16,1.16,0,0,1,.21.33.94.94,0,0,1,0,.76,1.16,1.16,0,0,1-.21.33A1.05,1.05,0,0,1,86,30Z"/><path class="cls-6" d="M88,32a1.05,1.05,0,0,1-.71-.29,1.6,1.6,0,0,1-.12-.15.76.76,0,0,1-.09-.18A.63.63,0,0,1,87,31.2a1.32,1.32,0,0,1,0-.2,1,1,0,0,1,1.71-.71l.12.15a.77.77,0,0,1,.09.18.62.62,0,0,1,.06.19A1.25,1.25,0,0,1,89,31a1.38,1.38,0,0,1,0,.2.65.65,0,0,1-.06.18.76.76,0,0,1-.09.18l-.12.15-.15.12a.76.76,0,0,1-.18.09L88.2,32Z"/><path class="cls-6" d="M90,30a1.05,1.05,0,0,1-.71-.29,1.16,1.16,0,0,1-.21-.33.95.95,0,0,1,0-.76,1.15,1.15,0,0,1,.21-.33,1,1,0,0,1,1.42,0,1.16,1.16,0,0,1,.21.33.94.94,0,0,1,0,.76,1.16,1.16,0,0,1-.21.33A1.05,1.05,0,0,1,90,30Z"/><path class="cls-6" d="M92,32a.84.84,0,0,1-.38-.08,1.16,1.16,0,0,1-.33-.21l-.12-.15a.76.76,0,0,1-.09-.18A.63.63,0,0,1,91,31.2a1.32,1.32,0,0,1,0-.2,1.05,1.05,0,0,1,.29-.71,1.15,1.15,0,0,1,.33-.21.92.92,0,0,1,.76,0,1.16,1.16,0,0,1,.33.21,1,1,0,0,1,0,1.42,1.16,1.16,0,0,1-.33.21A.84.84,0,0,1,92,32Z"/><path class="cls-6" d="M94,30a1.05,1.05,0,0,1-.71-.29,1.16,1.16,0,0,1-.21-.33.95.95,0,0,1,0-.76,1.15,1.15,0,0,1,.21-.33A1,1,0,0,1,94.2,28a.63.63,0,0,1,.18.06.76.76,0,0,1,.18.09l.15.12a1.16,1.16,0,0,1,.21.33.94.94,0,0,1,0,.76,1.16,1.16,0,0,1-.21.33A1.05,1.05,0,0,1,94,30Z"/><path class="cls-6" d="M96,32l-.19,0a.62.62,0,0,1-.19-.06l-.18-.09a1.47,1.47,0,0,1-.15-.12A1,1,0,1,1,97,31a1.38,1.38,0,0,1,0,.2.65.65,0,0,1-.06.18.76.76,0,0,1-.09.18,1.59,1.59,0,0,1-.12.15l-.15.12a.76.76,0,0,1-.18.09L96.2,32Z"/><path class="cls-6" d="M98,30a1.05,1.05,0,0,1-.71-.29,1.16,1.16,0,0,1-.21-.33.95.95,0,0,1,0-.76,1.15,1.15,0,0,1,.21-.33,1,1,0,0,1,1.42,0,1.16,1.16,0,0,1,.21.33.94.94,0,0,1,0,.76,1.16,1.16,0,0,1-.21.33A1.05,1.05,0,0,1,98,30Z"/><path class="cls-6" d="M100,32a1,1,0,0,1-.71-1.71,1.15,1.15,0,0,1,.33-.21.92.92,0,0,1,.76,0,1,1,0,0,1,.33.21,1,1,0,0,1,0,1.42,1.16,1.16,0,0,1-.33.21A.84.84,0,0,1,100,32Z"/><path class="cls-6" d="M102,30a1.05,1.05,0,0,1-.71-.29,1.16,1.16,0,0,1-.21-.33.95.95,0,0,1,0-.76,1.15,1.15,0,0,1,.21-.33,1,1,0,0,1,1.42,0,1.16,1.16,0,0,1,.21.33.94.94,0,0,1,0,.76,1.16,1.16,0,0,1-.21.33A1.05,1.05,0,0,1,102,30Z"/><path class="cls-6" d="M104,32l-.2,0-.18-.06-.18-.09a1.47,1.47,0,0,1-.15-.12A1,1,0,1,1,105,31a1.38,1.38,0,0,1,0,.2.65.65,0,0,1-.06.18.76.76,0,0,1-.09.18,1.59,1.59,0,0,1-.12.15A1.05,1.05,0,0,1,104,32Z"/><path class="cls-6" d="M106,30a1.05,1.05,0,0,1-.71-.29,1.16,1.16,0,0,1-.21-.33.95.95,0,0,1,0-.76,1.15,1.15,0,0,1,.21-.33,1,1,0,0,1,1.42,0,1.16,1.16,0,0,1,.21.33.94.94,0,0,1,0,.76,1.16,1.16,0,0,1-.21.33A1.05,1.05,0,0,1,106,30Z"/><path class="cls-6" d="M108,32l-.2,0-.18-.06-.18-.09a1.47,1.47,0,0,1-.15-.12A1,1,0,1,1,109,31a1.38,1.38,0,0,1,0,.2.65.65,0,0,1-.06.18.76.76,0,0,1-.09.18,1.59,1.59,0,0,1-.12.15l-.15.12a.76.76,0,0,1-.18.09l-.18.06Z"/><path class="cls-6" d="M110,30a1.05,1.05,0,0,1-.71-.29,1.16,1.16,0,0,1-.21-.33.95.95,0,0,1,0-.76,1.15,1.15,0,0,1,.21-.33,1,1,0,0,1,1.42,0,1.16,1.16,0,0,1,.21.33.94.94,0,0,1,0,.76,1.16,1.16,0,0,1-.21.33A1.05,1.05,0,0,1,110,30Z"/><path class="cls-6" d="M112,32l-.2,0-.18-.06-.18-.09a1.47,1.47,0,0,1-.15-.12A1,1,0,1,1,113,31a1.38,1.38,0,0,1,0,.2.65.65,0,0,1-.06.18.76.76,0,0,1-.09.18l-.12.15-.15.12a.76.76,0,0,1-.18.09l-.18.06Z"/><path class="cls-6" d="M114,30a1.05,1.05,0,0,1-.71-.29,1.16,1.16,0,0,1-.21-.33.95.95,0,0,1,0-.76,1.15,1.15,0,0,1,.21-.33,1,1,0,0,1,1.42,0,1.16,1.16,0,0,1,.21.33.94.94,0,0,1,0,.76,1.16,1.16,0,0,1-.21.33A1.05,1.05,0,0,1,114,30Z"/><path class="cls-6" d="M116,32l-.2,0-.18-.06-.18-.09a1.47,1.47,0,0,1-.15-.12l-.12-.15a.76.76,0,0,1-.09-.18.63.63,0,0,1-.06-.18,1.32,1.32,0,0,1,0-.2,1,1,0,1,1,2,0,1.38,1.38,0,0,1,0,.2.65.65,0,0,1-.06.18.76.76,0,0,1-.09.18,1.59,1.59,0,0,1-.12.15l-.15.12a.76.76,0,0,1-.18.09l-.18.06Z"/><path class="cls-6" d="M118,30a1.05,1.05,0,0,1-.71-.29,1.16,1.16,0,0,1-.21-.33.95.95,0,0,1,0-.76,1.15,1.15,0,0,1,.21-.33,1,1,0,0,1,1.42,0,1.16,1.16,0,0,1,.21.33.94.94,0,0,1,0,.76,1.16,1.16,0,0,1-.21.33A1.05,1.05,0,0,1,118,30Z"/><path class="cls-6" d="M120,32l-.2,0-.18-.06-.18-.09a1.47,1.47,0,0,1-.15-.12,1.6,1.6,0,0,1-.12-.15.76.76,0,0,1-.09-.18.63.63,0,0,1-.06-.18,1.32,1.32,0,0,1,0-.2,1,1,0,1,1,2,0,1.38,1.38,0,0,1,0,.2.65.65,0,0,1-.06.18.76.76,0,0,1-.09.18l-.12.15-.15.12a.76.76,0,0,1-.18.09l-.18.06Z"/><path class="cls-6" d="M122,30a1.05,1.05,0,0,1-.71-.29,1.16,1.16,0,0,1-.21-.33.95.95,0,0,1,0-.76,1.15,1.15,0,0,1,.21-.33,1,1,0,0,1,1.42,0,1.16,1.16,0,0,1,.21.33.94.94,0,0,1,0,.76,1.16,1.16,0,0,1-.21.33A1.05,1.05,0,0,1,122,30Z"/><path class="cls-6" d="M78,34a1,1,0,0,1-.71-1.71,1.15,1.15,0,0,1,.33-.21,1,1,0,0,1,.76,0,1.16,1.16,0,0,1,.33.21,1,1,0,0,1,0,1.42,1.16,1.16,0,0,1-.33.21A.84.84,0,0,1,78,34Z"/><path class="cls-6" d="M82,34a.84.84,0,0,1-.38-.08,1.16,1.16,0,0,1-.33-.21,1,1,0,0,1,0-1.42,1.15,1.15,0,0,1,.33-.21,1,1,0,0,1,.76,0,1.16,1.16,0,0,1,.33.21,1,1,0,0,1,0,1.42,1.16,1.16,0,0,1-.33.21A.84.84,0,0,1,82,34Z"/><path class="cls-6" d="M86,34a.84.84,0,0,1-.38-.08,1.16,1.16,0,0,1-.33-.21,1,1,0,0,1,0-1.42,1.15,1.15,0,0,1,.33-.21,1,1,0,0,1,.76,0,1.16,1.16,0,0,1,.33.21,1,1,0,0,1,0,1.42,1.16,1.16,0,0,1-.33.21A.84.84,0,0,1,86,34Z"/><path class="cls-6" d="M90,34a.84.84,0,0,1-.38-.08,1.16,1.16,0,0,1-.33-.21,1,1,0,0,1,0-1.42,1.15,1.15,0,0,1,.33-.21,1,1,0,0,1,.76,0,1.16,1.16,0,0,1,.33.21,1,1,0,0,1,0,1.42,1.16,1.16,0,0,1-.33.21A.84.84,0,0,1,90,34Z"/><path class="cls-6" d="M94,34a.84.84,0,0,1-.38-.08,1.16,1.16,0,0,1-.33-.21,1,1,0,0,1,0-1.42,1.15,1.15,0,0,1,.33-.21,1,1,0,0,1,.76,0,1.16,1.16,0,0,1,.33.21,1,1,0,0,1,0,1.42,1.16,1.16,0,0,1-.33.21A.84.84,0,0,1,94,34Z"/><path class="cls-6" d="M98,34a.84.84,0,0,1-.38-.08,1.16,1.16,0,0,1-.33-.21,1,1,0,0,1,0-1.42,1.15,1.15,0,0,1,.33-.21,1,1,0,0,1,.76,0,1.16,1.16,0,0,1,.33.21A1,1,0,0,1,98,34Z"/><path class="cls-6" d="M102,34a.84.84,0,0,1-.38-.08,1.16,1.16,0,0,1-.33-.21,1,1,0,0,1,0-1.42,1.15,1.15,0,0,1,.33-.21,1,1,0,0,1,.76,0,1.16,1.16,0,0,1,.33.21A1,1,0,0,1,102,34Z"/><path class="cls-6" d="M106,34a.84.84,0,0,1-.38-.08,1.16,1.16,0,0,1-.33-.21,1,1,0,0,1,0-1.42,1.15,1.15,0,0,1,.33-.21,1,1,0,0,1,.76,0,1.16,1.16,0,0,1,.33.21A1,1,0,0,1,106,34Z"/><path class="cls-6" d="M110,34a.84.84,0,0,1-.38-.08,1.16,1.16,0,0,1-.33-.21,1,1,0,0,1,0-1.42,1.15,1.15,0,0,1,.33-.21,1,1,0,0,1,.76,0,1.16,1.16,0,0,1,.33.21A1,1,0,0,1,110,34Z"/><path class="cls-6" d="M114,34a.84.84,0,0,1-.38-.08,1.16,1.16,0,0,1-.33-.21,1,1,0,0,1,0-1.42,1.15,1.15,0,0,1,.33-.21,1,1,0,0,1,.76,0,1.16,1.16,0,0,1,.33.21A1,1,0,0,1,114,34Z"/><path class="cls-6" d="M118,34a.84.84,0,0,1-.38-.08,1.16,1.16,0,0,1-.33-.21,1,1,0,0,1,0-1.42,1.15,1.15,0,0,1,.33-.21,1,1,0,0,1,.76,0,1.16,1.16,0,0,1,.33.21A1,1,0,0,1,118,34Z"/><path class="cls-6" d="M122,34a.84.84,0,0,1-.38-.08,1.16,1.16,0,0,1-.33-.21,1,1,0,0,1,0-1.42,1.15,1.15,0,0,1,.33-.21,1,1,0,0,1,.76,0,1.16,1.16,0,0,1,.33.21A1,1,0,0,1,122,34Z"/></g><path class="cls-16" d="M59.78,13.89l-19,19a2.79,2.79,0,0,0,0,3.95L52.21,48.22a2.79,2.79,0,0,0,3.95,0l19-19V13.89Zm8.38,9.78a2.79,2.79,0,1,1,2.79-2.79A2.79,2.79,0,0,1,68.15,23.66Z"/><path class="cls-5" d="M59.78,13.89l-19,19a2.79,2.79,0,0,0-.38,3.47,2.8,2.8,0,0,1,.38-.47l20-20H75.14v-2Z"/><g class="cls-10"><path class="cls-17" d="M52.21,45.22,40.8,33.81a2.77,2.77,0,0,1-.63-1,2.79,2.79,0,0,0,.63,3L52.21,47.22a2.79,2.79,0,0,0,3.95,0l19-19v-2l-19,19A2.79,2.79,0,0,1,52.21,45.22Z"/></g><path class="cls-6" d="M54.19,50a3.78,3.78,0,0,1-2.68-1.11L40.1,37.52a3.79,3.79,0,0,1,0-5.36l19-19a1,1,0,0,1,.71-.29H75.14a1,1,0,0,1,1,1V29.25a1,1,0,0,1-.29.71l-19,19A3.78,3.78,0,0,1,54.19,50Zm6-35.15L41.51,33.57a1.79,1.79,0,0,0,0,2.54L52.92,47.51a1.84,1.84,0,0,0,2.54,0L74.14,28.83V14.89Zm8,9.78a3.79,3.79,0,1,1,3.79-3.79A3.8,3.8,0,0,1,68.15,24.66Zm0-5.59a1.79,1.79,0,1,0,1.79,1.79A1.79,1.79,0,0,0,68.15,19.08Z"/><path class="cls-6" d="M75.14,21.87a1,1,0,0,1,0-2,2.2,2.2,0,0,0,1.3-.42,1,1,0,0,1,1.15,1.64A4.19,4.19,0,0,1,75.14,21.87Zm-7,0h0a1,1,0,0,1-1-1c0-.71,0-1.41.09-2.09a1,1,0,0,1,2,.18c-.06.61-.08,1.25-.09,1.91A1,1,0,0,1,68.15,21.83Zm10.68-2.89a1,1,0,0,1-.9-1.44,12.33,12.33,0,0,0,.67-1.72,1,1,0,0,1,1.91.59,14.24,14.24,0,0,1-.78,2A1,1,0,0,1,78.84,18.94ZM68.75,16.88a1,1,0,0,1-1-1.25,15.68,15.68,0,0,1,.68-2,1,1,0,1,1,1.85.77,13.54,13.54,0,0,0-.59,1.76A1,1,0,0,1,68.75,16.88Zm11.17-2.75a1,1,0,0,1-1-.84,3.72,3.72,0,0,0-.56-1.46A1,1,0,0,1,80,10.73,5.7,5.7,0,0,1,80.92,13a1,1,0,0,1-.83,1.14Zm-9.07-1.75a1,1,0,0,1-.8-1.6,11.84,11.84,0,0,1,.81-1,6.35,6.35,0,0,1,.74-.68,1,1,0,0,1,1.23,1.58,4.21,4.21,0,0,0-.5.46,9.86,9.86,0,0,0-.67.8A1,1,0,0,1,70.86,12.38Zm6.09-2a1,1,0,0,1-.4-.08A3.94,3.94,0,0,0,75,10a1,1,0,0,1,0-2h0a5.86,5.86,0,0,1,2.34.49,1,1,0,0,1-.4,1.92Z"/><path class="cls-6" d="M57.25,35.38a3.6,3.6,0,0,1-2.57-6.11,1,1,0,1,1,1.42,1.41,1.59,1.59,0,0,0,2.25,2.25c.86-.86-.05-2.56-.06-2.57-.63-1.12-1.27-3.42.27-5a3.59,3.59,0,0,1,5.08,5.08,1,1,0,0,1-1.41-1.41A1.59,1.59,0,0,0,60,26.8c-.86.86.05,2.56.06,2.57.63,1.12,1.27,3.42-.27,5A3.53,3.53,0,0,1,57.25,35.38Z"/><path class="cls-6" d="M62.9,27.12a1,1,0,0,1-.71-1.71l1.06-1.06a1,1,0,0,1,1.41,1.41l-1.06,1.06A1,1,0,0,1,62.9,27.12Z"/><path class="cls-6" d="M54.19,35.83a1,1,0,0,1-.71-1.71l1.22-1.22a1,1,0,0,1,1.41,1.41L54.9,35.54A1,1,0,0,1,54.19,35.83Z"/><path class="cls-6" d="M53.49,40a1,1,0,0,1-.71-.29l-3.49-3.49a1,1,0,0,1,1.41-1.41l3.49,3.49A1,1,0,0,1,53.49,40Z"/><path class="cls-6" d="M53.49,44.21a1,1,0,0,1-.71-.29L45.1,36.24a1,1,0,0,1,1.41-1.41l7.68,7.68a1,1,0,0,1-.71,1.71Z"/></g><path class="cls-18" d="M64,107h44.82a1.1,1.1,0,0,0,1.18-1V35a1,1,0,0,0-1-1H64Z"/><g class="cls-1"><path class="cls-19" d="M108.82,103H64v4h44.82a1.1,1.1,0,0,0,1.18-1v-4A1.1,1.1,0,0,1,108.82,103Z"/></g><g class="cls-10"><path class="cls-5" d="M109,34a1,1,0,0,1,1,1v4a1,1,0,0,0-1-1H64V34Z"/></g><path class="cls-6" d="M108.82,108H64a1,1,0,0,1-1-1V34a1,1,0,0,1,1-1h45a2,2,0,0,1,2,2v71A2.1,2.1,0,0,1,108.82,108ZM65,106h43.82a.27.27,0,0,0,.2-.06L109,35H65Z"/><path class="cls-11" d="M19.18,107H64V34H19a1,1,0,0,0-1,1v71A1.1,1.1,0,0,0,19.18,107Z"/><rect class="cls-7" height="16" width="12" x="35" y="34"/><g class="cls-10"><path class="cls-5" d="M19,34a1,1,0,0,0-1,1v4a1,1,0,0,1,1-1H64V34Z"/></g><g class="cls-1"><path class="cls-19" d="M18,102v4a1.1,1.1,0,0,0,1.18,1H64v-4H19.18A1.1,1.1,0,0,1,18,102Z"/></g><path class="cls-6" d="M64,108H19.18A2.1,2.1,0,0,1,17,106V35a2,2,0,0,1,2-2H64a1,1,0,0,1,1,1v73A1,1,0,0,1,64,108Zm-45-2a1.14,1.14,0,0,0,.16,0H63V35H19v71Zm0,0h0Z"/><rect class="cls-5" height="14" width="30.13" x="25.87" y="82"/><path class="cls-6" d="M56,97H25.87a1,1,0,0,1-1-1V82a1,1,0,0,1,1-1H56a1,1,0,0,1,1,1V96A1,1,0,0,1,56,97ZM26.87,95H55V83H26.87Z"/><rect class="cls-20" height="2" width="5" x="29" y="85"/><rect class="cls-20" height="2" width="3" x="29" y="92"/><rect class="cls-20" height="2" width="3" x="34" y="92"/><rect class="cls-20" height="2" width="3" x="39" y="92"/><rect class="cls-20" height="2" width="5" x="36" y="85"/><rect class="cls-20" height="2" width="7" x="43" y="85"/><rect class="cls-20" height="2" width="11" x="29" y="88"/><rect class="cls-20" height="2" width="10" x="42" y="88"/><g class="cls-10"><path class="cls-19" d="M71,79v5a6,6,0,0,0,5,5.91V95H73v2h8V95H78V89.91A6,6,0,0,0,83,84V79Z"/><rect class="cls-19" height="15" width="3" x="89" y="82"/><polygon class="cls-19" points="90.5 79.06 86 84 95 84 90.5 79.06"/><rect class="cls-19" height="15" width="3" x="98" y="82"/><polygon class="cls-19" points="99.5 79.06 95 84 104 84 99.5 79.06"/></g><path class="cls-6" d="M47,51H35a1,1,0,0,1-1-1V34a1,1,0,0,1,1-1H47a1,1,0,0,1,1,1V50A1,1,0,0,1,47,51ZM36,49H46V35H36Z"/></svg>