<?xml version="1.0" ?><svg data-name="003" id="_003" viewBox="0 0 128 128" xmlns="http://www.w3.org/2000/svg" xmlns:xlink="http://www.w3.org/1999/xlink"><defs><style>.cls-1{fill:none;}.cls-2{opacity:0.3;}.cls-3{fill:#97c1ff;}.cls-4{fill:#939fc6;}.cls-5{opacity:0.5;}.cls-6{fill:#fff;}.cls-7{fill:#6d6daa;}.cls-8{fill:#ced8ee;}.cls-9{fill:#7690a8;}.cls-10{fill:#eef6ff;}.cls-11{clip-path:url(#clip-path);}.cls-12{fill:#d6b5b0;}.cls-13{fill:#96d7ff;}.cls-14{fill:#c7e9ff;}.cls-15{fill:#0070b8;}.cls-16{fill:#b1f1a8;}.cls-17{fill:#48bc33;}.cls-18{fill:#89dbba;}.cls-19{fill:#2fbc7c;}.cls-20{fill:#93765f;}.cls-21{fill:#ffd599;}.cls-22{fill:#fffad1;}.cls-23{fill:#cc7e54;}</style><clipPath id="clip-path"><path class="cls-1" d="M111.3,104.77a30,30,0,0,0,8.59-33.26,19.69,19.69,0,0,1-.31-12.74A37,37,0,0,0,72.22,12.7a21,21,0,0,1-17.37-1.88c-13.79-8-33.73-3.81-42,16.68a16.6,16.6,0,0,0-.75,8A20.58,20.58,0,0,1,8.29,49.78,28.49,28.49,0,0,0,20.41,92.55,20.06,20.06,0,0,1,31.79,105,29,29,0,0,0,79.62,117.4,20.08,20.08,0,0,1,92.9,112,29.83,29.83,0,0,0,111.3,104.77Z"/></clipPath></defs><title/><g class="cls-2"><path class="cls-3" d="M111.3,104.77a30,30,0,0,0,8.59-33.26,19.69,19.69,0,0,1-.31-12.74A37,37,0,0,0,72.22,12.7a21,21,0,0,1-17.37-1.88c-13.79-8-33.73-3.81-42,16.68a16.6,16.6,0,0,0-.75,8A20.58,20.58,0,0,1,8.29,49.78,28.49,28.49,0,0,0,20.41,92.55,20.06,20.06,0,0,1,31.79,105,29,29,0,0,0,79.62,117.4,20.08,20.08,0,0,1,92.9,112,29.83,29.83,0,0,0,111.3,104.77Z"/><polyline class="cls-4" points="119 52.2 89.36 16.55 44.93 50.99"/><g class="cls-5"><polygon class="cls-6" points="89.36 20.55 115.42 51.62 119 52.2 89.36 16.55 44.93 50.99 49.23 51.68 89.36 20.55"/></g><path class="cls-7" d="M119,53.2a1,1,0,0,1-.77-.36l-29-34.9L45.54,51.78a1,1,0,0,1-1.22-1.58L88.74,15.76a1,1,0,0,1,1.38.15l29.64,35.64A1,1,0,0,1,119,53.2Z"/><polyline class="cls-4" points="7.92 54.2 40.57 17.55 71 43.99"/><g class="cls-5"><polygon class="cls-6" points="40.57 17.55 7.92 54.2 12.09 53.52 40.57 21.55 67.11 44.62 71 43.99 40.57 17.55"/></g><path class="cls-7" d="M7.92,55.2a1,1,0,0,1-.75-1.67L39.82,16.89a1,1,0,0,1,1.4-.09L71.65,43.23a1,1,0,0,1-1.31,1.51L40.66,19l-32,35.91A1,1,0,0,1,7.92,55.2Z"/><polygon class="cls-8" points="104.7 49.78 65.95 3.29 27.21 49.78 104.7 49.78"/><g class="cls-2"><polygon class="cls-9" points="58.9 23.16 66.15 28.99 66.55 29 73.28 23.28 85.26 25.4 82.72 22.34 72.61 20.28 66.47 25.11 59.9 20.16 50.5 21.83 47.77 25.11 58.9 23.16"/></g><polygon class="cls-10" points="66.4 2.75 82.72 22.34 72.61 20.28 66.47 25.11 59.9 20.16 50.5 21.83 66.4 2.75"/><polygon class="cls-6" points="66.4 6.75 78.7 21.52 82.72 22.34 66.4 2.75 50.5 21.83 54.42 21.13 66.4 6.75"/><path class="cls-7" d="M66.47,26.11a1,1,0,0,1-.6-.2l-6.22-4.69-9,1.59a1,1,0,0,1-1.18-1,1,1,0,0,1,.89-1l9.33-1.66a1,1,0,0,1,.78.19l6,4.49L72,19.5a1,1,0,0,1,.82-.19l10.11,2.06a1,1,0,0,1-.4,2l-9.66-2L67.08,25.9A1,1,0,0,1,66.47,26.11Z"/><path class="cls-7" d="M105.14,50.25a1,1,0,0,1-.77-.36L66.4,4.32l-38,45.57a1,1,0,1,1-1.54-1.28L65.63,2.11a1,1,0,0,1,1.54,0l38.75,46.49a1,1,0,0,1-.77,1.64Z"/><g class="cls-11"><rect class="cls-12" height="56" width="126" x="1" y="69.02"/><g class="cls-2"><rect class="cls-6" height="4" width="126" x="1" y="69.02"/></g><rect class="cls-13" height="20" width="126" x="1" y="49.01"/><rect class="cls-14" height="4" width="126" x="1" y="65.01"/><g class="cls-2"><rect class="cls-15" height="4" width="126" x="1" y="49.01"/></g><path class="cls-6" d="M31,57.13a3.11,3.11,0,0,1-2.21-.91,1.12,1.12,0,0,0-1.59,0,3.12,3.12,0,0,1-4.41,0,1.12,1.12,0,0,0-1.59,0,1,1,0,0,1-1.41-1.41,3.13,3.13,0,0,1,4.41,0,1.12,1.12,0,0,0,1.59,0,3.13,3.13,0,0,1,4.41,0,1.12,1.12,0,0,0,1.59,0,3.13,3.13,0,0,1,4.41,0,1,1,0,0,1-1.41,1.42,1.12,1.12,0,0,0-1.59,0A3.11,3.11,0,0,1,31,57.13Z"/><path class="cls-6" d="M67,57.13a3.11,3.11,0,0,1-2.21-.91,1.12,1.12,0,0,0-1.59,0,3.13,3.13,0,0,1-4.41,0,1.12,1.12,0,0,0-1.59,0,1,1,0,0,1-1.41-1.41,3.13,3.13,0,0,1,4.41,0,1.12,1.12,0,0,0,1.59,0,3.13,3.13,0,0,1,4.41,0,1.12,1.12,0,0,0,1.59,0,3.13,3.13,0,0,1,4.41,0,1,1,0,0,1-1.41,1.41,1.12,1.12,0,0,0-1.59,0A3.11,3.11,0,0,1,67,57.13Z"/><path class="cls-6" d="M14,63.14a3.11,3.11,0,0,1-2.21-.91,1.12,1.12,0,0,0-1.59,0,3.13,3.13,0,0,1-4.41,0A1,1,0,0,1,7.2,60.81a1.12,1.12,0,0,0,1.59,0,3.13,3.13,0,0,1,4.41,0,1.12,1.12,0,0,0,1.59,0,1,1,0,1,1,1.41,1.41A3.11,3.11,0,0,1,14,63.14Z"/><path class="cls-6" d="M99,57.13a3.11,3.11,0,0,1-2.21-.91,1.12,1.12,0,0,0-1.59,0,3.13,3.13,0,0,1-4.41,0,1,1,0,0,1,1.41-1.41,1.12,1.12,0,0,0,1.59,0,3.13,3.13,0,0,1,4.41,0,1.12,1.12,0,0,0,1.59,0,1,1,0,1,1,1.41,1.41A3.11,3.11,0,0,1,99,57.13Z"/><path class="cls-6" d="M79,64.13a3.12,3.12,0,0,1-2.21-.91,1,1,0,1,1,1.41-1.42,1.12,1.12,0,0,0,1.59,0,3.13,3.13,0,0,1,4.41,0,1.12,1.12,0,0,0,1.59,0,1,1,0,0,1,1.41,1.41,3.13,3.13,0,0,1-4.41,0,1.12,1.12,0,0,0-1.59,0A3.11,3.11,0,0,1,79,64.13Z"/><path class="cls-6" d="M117,64.14a3.11,3.11,0,0,1-2.21-.91,1.12,1.12,0,0,0-1.59,0,3.13,3.13,0,0,1-4.41,0,1.12,1.12,0,0,0-1.59,0,3.13,3.13,0,0,1-4.41,0,1.15,1.15,0,0,0-1.59,0,1,1,0,0,1-1.41-1.41,3.13,3.13,0,0,1,4.41,0,1.12,1.12,0,0,0,1.59,0,3.13,3.13,0,0,1,4.41,0,1.12,1.12,0,0,0,1.59,0,3.13,3.13,0,0,1,4.41,0,1.12,1.12,0,0,0,1.59,0,3.13,3.13,0,0,1,4.41,0,1,1,0,0,1-1.41,1.41,1.15,1.15,0,0,0-1.59,0A3.11,3.11,0,0,1,117,64.14Z"/><path class="cls-6" d="M53,64.13a3.11,3.11,0,0,1-2.21-.91,1.12,1.12,0,0,0-1.59,0,3.12,3.12,0,0,1-4.41,0,1.12,1.12,0,0,0-1.59,0,3.12,3.12,0,0,1-4.41,0,1.12,1.12,0,0,0-1.59,0,1,1,0,0,1-1.41-1.41,3.13,3.13,0,0,1,4.41,0,1.12,1.12,0,0,0,1.59,0,3.13,3.13,0,0,1,4.41,0,1.12,1.12,0,0,0,1.59,0,3.13,3.13,0,0,1,4.41,0,1.12,1.12,0,0,0,1.59,0,3.13,3.13,0,0,1,4.41,0,1,1,0,0,1-1.41,1.42,1.12,1.12,0,0,0-1.59,0A3.11,3.11,0,0,1,53,64.13Z"/><path class="cls-7" d="M127,50H1a1,1,0,0,1,0-2H127a1,1,0,0,1,0,2Z"/><path class="cls-7" d="M127,70H1a1,1,0,0,1,0-2H127a1,1,0,0,1,0,2Z"/></g><path class="cls-7" d="M110,126H17a1,1,0,1,1,0-2h93a1,1,0,0,1,0,2Z"/><path class="cls-7" d="M115,126h-2a1,1,0,0,1,0-2h2a1,1,0,0,1,0,2Z"/><path class="cls-7" d="M14,126H10a1,1,0,1,1,0-2h4a1,1,0,0,1,0,2Z"/><rect class="cls-12" height="7.24" width="5.79" x="33.11" y="87.75"/><path class="cls-7" d="M38.9,96H33.11a1,1,0,0,1-1-1V87.75a1,1,0,0,1,1-1H38.9a1,1,0,0,1,1,1V95A1,1,0,0,1,38.9,96Zm-4.79-2H37.9V88.75H34.11Z"/><path class="cls-16" d="M27.3,80.51,22.3,88a2.64,2.64,0,0,0,1.78,4.08l.34,0a2.9,2.9,0,0,0,2.9-2.9,2.9,2.9,0,1,0,5.79,0,2.9,2.9,0,1,0,5.79,0,2.9,2.9,0,0,0,5.79,0,2.9,2.9,0,0,0,2.9,2.9l.34,0A2.64,2.64,0,0,0,49.72,88l-5-7.49L36,73.27Z"/><g class="cls-2"><path class="cls-17" d="M30.21,82.22a3.89,3.89,0,0,0,5.79,0,3.89,3.89,0,0,0,5.79,0,3.89,3.89,0,0,0,2.9,1.29l.46,0a3.39,3.39,0,0,0,1.26-.43l-1.7-2.54L36,73.27,27.3,80.51l-1.7,2.54a3.4,3.4,0,0,0,1.26.43A4,4,0,0,0,30.21,82.22Z"/></g><g class="cls-2"><path class="cls-17" d="M49.69,88a2.41,2.41,0,0,1-1.76,1.11l-.34,0a2.9,2.9,0,0,1-2.9-2.9,2.9,2.9,0,1,1-5.79,0,2.9,2.9,0,0,1-5.79,0,2.9,2.9,0,1,1-5.79,0,2.9,2.9,0,0,1-2.9,2.9l-.34,0A2.41,2.41,0,0,1,22.32,88l0,0a2.64,2.64,0,0,0,1.78,4.08l.34,0a2.9,2.9,0,0,0,2.9-2.9,2.9,2.9,0,1,0,5.79,0,2.9,2.9,0,0,0,5.79,0,2.9,2.9,0,1,0,5.79,0,2.9,2.9,0,0,0,2.9,2.9l.34,0A2.64,2.64,0,0,0,49.72,88Z"/></g><path class="cls-7" d="M47.59,93.1a3.89,3.89,0,0,1-2.9-1.29,3.89,3.89,0,0,1-5.79,0,3.89,3.89,0,0,1-5.79,0,3.89,3.89,0,0,1-5.79,0A4,4,0,0,1,24,93.07a3.47,3.47,0,0,1-2.74-2,3.71,3.71,0,0,1,.23-3.62l5-7.5a1,1,0,0,1,.19-.21l8.71-7.24a1,1,0,0,1,1.28,0l8.71,7.24a1,1,0,0,1,.19.21l5,7.49a3.72,3.72,0,0,1,.24,3.63,3.47,3.47,0,0,1-2.74,2Zm-2.9-4.9a1,1,0,0,1,1,1,1.93,1.93,0,0,0,2.12,1.88A1.46,1.46,0,0,0,49,90.23a1.75,1.75,0,0,0-.1-1.68L44,81.19l-8-6.62-8,6.62-4.92,7.37A1.74,1.74,0,0,0,23,90.23a1.46,1.46,0,0,0,1.16.86h.22a1.9,1.9,0,0,0,1.9-1.9,1,1,0,0,1,2,0,1.9,1.9,0,0,0,3.79,0,1,1,0,0,1,2,0,1.9,1.9,0,0,0,3.79,0,1,1,0,0,1,2,0,1.9,1.9,0,0,0,3.79,0A1,1,0,0,1,44.7,88.2Z"/><path class="cls-16" d="M30.71,68.15l-5.53,8.27A2.65,2.65,0,0,0,27,80.49l.34,0a2.9,2.9,0,0,0,2.9-2.9,2.9,2.9,0,1,0,5.79,0,2.9,2.9,0,0,0,5.79,0,2.9,2.9,0,0,0,2.9,2.9l.34,0a2.65,2.65,0,0,0,1.79-4.07L41.3,68.15,36,60.91Z"/><g class="cls-2"><path class="cls-17" d="M46.8,76.38A2.42,2.42,0,0,1,45,77.49l-.34,0a2.9,2.9,0,0,1-2.9-2.9,2.9,2.9,0,1,1-5.79,0,2.9,2.9,0,1,1-5.79,0,2.9,2.9,0,0,1-2.9,2.9l-.34,0a2.42,2.42,0,0,1-1.76-1.12l0,0A2.65,2.65,0,0,0,27,80.49l.34,0a2.9,2.9,0,0,0,2.9-2.9,2.9,2.9,0,1,0,5.79,0,2.9,2.9,0,1,0,5.79,0,2.9,2.9,0,0,0,2.9,2.9l.34,0a2.65,2.65,0,0,0,1.79-4.07Z"/></g><g class="cls-2"><path class="cls-17" d="M41.3,68.15,36,60.91l-5.29,7.24-1.8,2.68a2.36,2.36,0,0,0,1,.35l.34,0a2.9,2.9,0,0,0,2.9-2.9,2.9,2.9,0,0,0,5.79,0,2.9,2.9,0,0,0,2.9,2.9l.34,0a2.36,2.36,0,0,0,1-.35Z"/></g><path class="cls-7" d="M44.7,81.51a3.89,3.89,0,0,1-2.9-1.29,3.89,3.89,0,0,1-5.79,0,3.89,3.89,0,0,1-5.79,0,4,4,0,0,1-3.35,1.27,3.48,3.48,0,0,1-2.74-2,3.72,3.72,0,0,1,.22-3.62l5.54-8.28,0,0,5.29-7.24a1,1,0,0,1,1.62,0l5.29,7.24,5.55,8.3a3.72,3.72,0,0,1,.23,3.63,3.47,3.47,0,0,1-2.74,2Zm-2.9-4.9a1,1,0,0,1,1,1,1.94,1.94,0,0,0,2.12,1.88,1.47,1.47,0,0,0,1.16-.86A1.75,1.75,0,0,0,46,77l-5.52-8.25L36,62.6l-4.47,6.12L26,77a1.72,1.72,0,0,0-.09,1.66,1.47,1.47,0,0,0,1.16.86h.22a1.9,1.9,0,0,0,1.9-1.9,1,1,0,0,1,2,0,1.9,1.9,0,0,0,3.79,0,1,1,0,0,1,2,0,1.9,1.9,0,0,0,3.79,0A1,1,0,0,1,41.8,76.62Z"/><path class="cls-16" d="M33.11,65.31a2.9,2.9,0,0,1-2.9,2.9l-.34,0a2.63,2.63,0,0,1-1.75-4.09L34.8,53.64a1.45,1.45,0,0,1,2.41,0L43.89,64.1a2.63,2.63,0,0,1-1.75,4.09l-.34,0a2.9,2.9,0,0,1-2.9-2.9,2.9,2.9,0,1,1-5.79,0Z"/><path class="cls-16" d="M33.11,65.31a2.9,2.9,0,0,1-2.9,2.9l-.34,0a2.63,2.63,0,0,1-1.75-4.09L34.8,53.64a1.45,1.45,0,0,1,2.41,0L43.89,64.1a2.63,2.63,0,0,1-1.75,4.09l-.34,0a2.9,2.9,0,0,1-2.9-2.9,2.9,2.9,0,1,1-5.79,0Z"/><g class="cls-2"><path class="cls-17" d="M43.88,64.08a2.4,2.4,0,0,1-1.74,1.1l-.34,0a2.9,2.9,0,0,1-2.9-2.9,2.9,2.9,0,0,1-5.79,0,2.9,2.9,0,0,1-2.9,2.9l-.34,0a2.4,2.4,0,0,1-1.74-1.1h0a2.63,2.63,0,0,0,1.75,4.09l.34,0a2.9,2.9,0,0,0,2.9-2.9,2.9,2.9,0,0,0,5.79,0,2.9,2.9,0,0,0,2.9,2.9l.34,0a2.63,2.63,0,0,0,1.75-4.09Z"/></g><path class="cls-7" d="M41.8,69.2a3.89,3.89,0,0,1-2.9-1.29,3.89,3.89,0,0,1-5.79,0,4,4,0,0,1-3.36,1.27,3.45,3.45,0,0,1-2.73-2,3.74,3.74,0,0,1,.27-3.63L34,53.1a2.45,2.45,0,0,1,4.08,0l6.69,10.47A3.73,3.73,0,0,1,45,67.17a3.45,3.45,0,0,1-2.74,2Zm-1.9-3.9A1.92,1.92,0,0,0,42,67.19a1.45,1.45,0,0,0,1.16-.86,1.73,1.73,0,0,0-.12-1.68L36.37,54.18A.43.43,0,0,0,36,54a.44.44,0,0,0-.37.2L29,64.63a1.74,1.74,0,0,0-.13,1.69,1.45,1.45,0,0,0,1.16.86,1.87,1.87,0,0,0,2.12-1.88,1,1,0,0,1,2,0,1.9,1.9,0,1,0,3.79,0,1,1,0,0,1,2,0Z"/><rect class="cls-12" height="10" width="8" x="17.01" y="95"/><path class="cls-7" d="M25,106H17a1,1,0,0,1-1-1V95a1,1,0,0,1,1-1h8a1,1,0,0,1,1,1v10A1,1,0,0,1,25,106Zm-7-2h6V96H18Z"/><path class="cls-16" d="M9,85,2.08,95.34A3.65,3.65,0,0,0,4.54,101L5,101a4,4,0,0,0,4-4,4,4,0,1,0,8,0,4,4,0,1,0,8,0,4,4,0,1,0,8,0,4,4,0,0,0,4,4l.47,0a3.65,3.65,0,0,0,2.46-5.63L33,85,21,75Z"/><g class="cls-2"><path class="cls-17" d="M33,85,21,75,9,85,7.27,87.56A3.34,3.34,0,0,0,8.54,88L9,88a4,4,0,0,0,4-4,4,4,0,0,0,8,0,4,4,0,0,0,8,0,4,4,0,0,0,4,4l.47,0a3.34,3.34,0,0,0,1.26-.41Z"/></g><g class="cls-2"><path class="cls-17" d="M37.47,98,37,98a4,4,0,0,1-4-4,4,4,0,0,1-8,0,4,4,0,0,1-8,0,4,4,0,0,1-8,0,4,4,0,0,1-4,4l-.47,0a3.4,3.4,0,0,1-2.75-2.09A3.63,3.63,0,0,0,4.54,101L5,101a4,4,0,0,0,4-4,4,4,0,1,0,8,0,4,4,0,1,0,8,0,4,4,0,1,0,8,0,4,4,0,0,0,4,4l.47,0a3.63,3.63,0,0,0,2.75-5.09A3.4,3.4,0,0,1,37.47,98Z"/></g><path class="cls-7" d="M37,102a5,5,0,0,1-4-2,5,5,0,0,1-8,0,5,5,0,0,1-8,0,5,5,0,0,1-8,0,5,5,0,0,1-4,2,5.05,5.05,0,0,1-.59,0A4.41,4.41,0,0,1,.94,99.43a4.75,4.75,0,0,1,.29-4.63L8.15,84.44a1,1,0,0,1,.19-.21l12-10a1,1,0,0,1,1.28,0l12,10a1,1,0,0,1,.19.21l6.91,10.34a4.76,4.76,0,0,1,.3,4.64A4.41,4.41,0,0,1,37.59,102,4.9,4.9,0,0,1,37,102Zm-4-6a1,1,0,0,1,1,1,3,3,0,0,0,3,3l.35,0a2.39,2.39,0,0,0,1.91-1.4,2.8,2.8,0,0,0-.17-2.69L32.28,85.67,21,76.3,9.73,85.67,2.91,95.89a2.79,2.79,0,0,0-.16,2.68A2.39,2.39,0,0,0,4.65,100,3,3,0,0,0,8,97a1,1,0,0,1,2,0,3,3,0,0,0,6,0,1,1,0,0,1,2,0,3,3,0,0,0,6,0,1,1,0,0,1,2,0,3,3,0,1,0,6,0A1,1,0,0,1,33,96Z"/><path class="cls-16" d="M13.7,67.93,6.06,79.34A3.65,3.65,0,0,0,8.54,85L9,85a4,4,0,0,0,4-4,4,4,0,1,0,8,0,4,4,0,1,0,8,0,4,4,0,0,0,4,4l.47,0a3.65,3.65,0,0,0,2.47-5.62L28.31,67.93,21,57.93Z"/><g class="cls-2"><path class="cls-17" d="M33.48,82,33,82a4,4,0,0,1-4-4,4,4,0,0,1-8,0,4,4,0,0,1-8,0,4,4,0,0,1-4,4l-.47,0a3.41,3.41,0,0,1-2.75-2.09A3.63,3.63,0,0,0,8.54,85L9,85a4,4,0,0,0,4-4,4,4,0,0,0,8,0,4,4,0,0,0,8,0,4,4,0,0,0,4,4l.47,0a3.63,3.63,0,0,0,2.75-5.09A3.41,3.41,0,0,1,33.48,82Z"/></g><g class="cls-2"><path class="cls-17" d="M28.31,67.93,21,57.93l-7.31,10-1.91,2.86a3.35,3.35,0,0,0,.75.18L13,71a4,4,0,0,0,4-4,4,4,0,0,0,8,0,4,4,0,0,0,4,4l.47,0a3.35,3.35,0,0,0,.75-.18Z"/></g><path class="cls-7" d="M33,86a5,5,0,0,1-4-2,5,5,0,0,1-8,0,5,5,0,0,1-8,0,5,5,0,0,1-4,2,5.12,5.12,0,0,1-.59,0,4.42,4.42,0,0,1-3.48-2.53,4.75,4.75,0,0,1,.28-4.62l7.65-11.43,0,0,7.31-10a1,1,0,0,1,.81-.41h0a1,1,0,0,1,.81.41l7.31,10,7.66,11.45a4.76,4.76,0,0,1,.29,4.64A4.42,4.42,0,0,1,33.59,86,4.82,4.82,0,0,1,33,86Zm-4-6a1,1,0,0,1,1,1,3,3,0,0,0,3,3l.35,0a2.4,2.4,0,0,0,1.91-1.4,2.76,2.76,0,0,0-.16-2.69l-7.62-11.4L21,59.62,14.52,68.5,6.89,79.9a2.75,2.75,0,0,0-.15,2.67A2.4,2.4,0,0,0,8.65,84,3,3,0,0,0,12,81a1,1,0,0,1,2,0,3,3,0,0,0,6,0,1,1,0,0,1,2,0,3,3,0,0,0,6,0A1,1,0,0,1,29,80Z"/><path class="cls-16" d="M17,64a4,4,0,0,1-4,4l-.47,0a3.63,3.63,0,0,1-2.42-5.64l9.22-14.44a2,2,0,0,1,3.33,0l9.22,14.44A3.63,3.63,0,0,1,29.47,68L29,68a4,4,0,0,1-4-4,4,4,0,1,1-8,0Z"/><path class="cls-16" d="M17,64a4,4,0,0,1-4,4l-.47,0a3.63,3.63,0,0,1-2.42-5.64l9.22-14.44a2,2,0,0,1,3.33,0l9.22,14.44A3.63,3.63,0,0,1,29.47,68L29,68a4,4,0,0,1-4-4,4,4,0,1,1-8,0Z"/><g class="cls-2"><path class="cls-17" d="M29.47,65,29,65a4,4,0,0,1-4-4,4,4,0,0,1-8,0,4,4,0,0,1-4,4l-.47,0A3.38,3.38,0,0,1,9.81,62.9,3.6,3.6,0,0,0,12.54,68L13,68a4,4,0,0,0,4-4,4,4,0,0,0,8,0,4,4,0,0,0,4,4l.47,0A3.6,3.6,0,0,0,32.2,62.9,3.38,3.38,0,0,1,29.47,65Z"/></g><path class="cls-7" d="M29,69a5,5,0,0,1-4-2,5,5,0,0,1-8,0,5,5,0,0,1-4,2,5.05,5.05,0,0,1-.59,0,4.39,4.39,0,0,1-3.48-2.55,4.79,4.79,0,0,1,.35-4.64L18.5,47.35A3,3,0,0,1,21,46h0a3,3,0,0,1,2.5,1.34l9.23,14.45a4.77,4.77,0,0,1,.34,4.62A4.39,4.39,0,0,1,29.59,69,4.9,4.9,0,0,1,29,69Zm-3-5a3,3,0,0,0,3,3l.35,0a2.37,2.37,0,0,0,1.9-1.41,2.77,2.77,0,0,0-.2-2.69L21.83,48.42A1,1,0,0,0,21,48h0a1,1,0,0,0-.83.45L11,62.86a2.78,2.78,0,0,0-.21,2.7A2.37,2.37,0,0,0,12.65,67,3,3,0,0,0,16,64a1,1,0,0,1,2,0,3,3,0,0,0,6,0,1,1,0,0,1,2,0Z"/><rect class="cls-12" height="7.24" width="5.79" x="109.11" y="87.75"/><path class="cls-7" d="M114.9,96h-5.79a1,1,0,0,1-1-1V87.75a1,1,0,0,1,1-1h5.79a1,1,0,0,1,1,1V95A1,1,0,0,1,114.9,96Zm-4.79-2h3.79V88.75h-3.79Z"/><path class="cls-16" d="M103.3,80.51,98.3,88a2.64,2.64,0,0,0,1.78,4.08l.34,0a2.9,2.9,0,0,0,2.9-2.9,2.9,2.9,0,1,0,5.79,0,2.9,2.9,0,0,0,5.79,0,2.9,2.9,0,1,0,5.79,0,2.9,2.9,0,0,0,2.9,2.9l.34,0A2.64,2.64,0,0,0,125.72,88l-5-7.49L112,73.27Z"/><g class="cls-2"><path class="cls-17" d="M106.21,82.22a3.89,3.89,0,0,0,5.79,0,3.89,3.89,0,0,0,5.79,0,3.89,3.89,0,0,0,2.9,1.29l.46,0a3.39,3.39,0,0,0,1.26-.43l-1.7-2.54L112,73.27l-8.71,7.24-1.7,2.54a3.4,3.4,0,0,0,1.26.43A4,4,0,0,0,106.21,82.22Z"/></g><g class="cls-2"><path class="cls-17" d="M125.69,88a2.41,2.41,0,0,1-1.76,1.11l-.34,0a2.9,2.9,0,0,1-2.9-2.9,2.9,2.9,0,0,1-5.79,0,2.9,2.9,0,0,1-5.79,0,2.9,2.9,0,1,1-5.79,0,2.9,2.9,0,0,1-2.9,2.9l-.34,0A2.41,2.41,0,0,1,98.32,88l0,0a2.64,2.64,0,0,0,1.78,4.08l.34,0a2.9,2.9,0,0,0,2.9-2.9,2.9,2.9,0,1,0,5.79,0,2.9,2.9,0,0,0,5.79,0,2.9,2.9,0,0,0,5.79,0,2.9,2.9,0,0,0,2.9,2.9l.34,0A2.64,2.64,0,0,0,125.72,88Z"/></g><path class="cls-7" d="M123.59,93.1a3.89,3.89,0,0,1-2.9-1.29,3.89,3.89,0,0,1-5.79,0,3.89,3.89,0,0,1-5.79,0,3.89,3.89,0,0,1-5.79,0A4,4,0,0,1,100,93.07a3.47,3.47,0,0,1-2.74-2,3.71,3.71,0,0,1,.23-3.62l5-7.5a1,1,0,0,1,.19-.21l8.71-7.24a1,1,0,0,1,1.28,0l8.71,7.24a1,1,0,0,1,.19.21l5,7.49a3.72,3.72,0,0,1,.24,3.63,3.47,3.47,0,0,1-2.74,2Zm-2.9-4.9a1,1,0,0,1,1,1,1.93,1.93,0,0,0,2.12,1.88,1.46,1.46,0,0,0,1.16-.86,1.75,1.75,0,0,0-.1-1.68L120,81.19l-8-6.62-8,6.62-4.92,7.37A1.74,1.74,0,0,0,99,90.23a1.46,1.46,0,0,0,1.16.86h.22a1.9,1.9,0,0,0,1.9-1.9,1,1,0,0,1,2,0,1.9,1.9,0,0,0,3.79,0,1,1,0,0,1,2,0,1.9,1.9,0,1,0,3.79,0,1,1,0,0,1,2,0,1.9,1.9,0,0,0,3.79,0A1,1,0,0,1,120.7,88.2Z"/><path class="cls-16" d="M106.71,68.15l-5.53,8.27A2.65,2.65,0,0,0,103,80.49l.34,0a2.9,2.9,0,0,0,2.9-2.9,2.9,2.9,0,1,0,5.79,0,2.9,2.9,0,0,0,5.79,0,2.9,2.9,0,0,0,2.9,2.9l.34,0a2.65,2.65,0,0,0,1.79-4.07l-5.53-8.27L112,60.91Z"/><g class="cls-2"><path class="cls-17" d="M122.8,76.38A2.42,2.42,0,0,1,121,77.49l-.34,0a2.9,2.9,0,0,1-2.9-2.9,2.9,2.9,0,1,1-5.79,0,2.9,2.9,0,1,1-5.79,0,2.9,2.9,0,0,1-2.9,2.9l-.34,0a2.42,2.42,0,0,1-1.76-1.12l0,0A2.65,2.65,0,0,0,103,80.49l.34,0a2.9,2.9,0,0,0,2.9-2.9,2.9,2.9,0,1,0,5.79,0,2.9,2.9,0,1,0,5.79,0,2.9,2.9,0,0,0,2.9,2.9l.34,0a2.65,2.65,0,0,0,1.79-4.07Z"/></g><g class="cls-2"><path class="cls-17" d="M117.3,68.15,112,60.91l-5.29,7.24-1.8,2.68a2.36,2.36,0,0,0,1,.35l.34,0a2.9,2.9,0,0,0,2.9-2.9,2.9,2.9,0,0,0,5.79,0,2.9,2.9,0,0,0,2.9,2.9l.34,0a2.36,2.36,0,0,0,1-.35Z"/></g><path class="cls-7" d="M120.7,81.51a3.89,3.89,0,0,1-2.9-1.29,3.89,3.89,0,0,1-5.79,0,3.89,3.89,0,0,1-5.79,0,4,4,0,0,1-3.35,1.27,3.48,3.48,0,0,1-2.74-2,3.72,3.72,0,0,1,.22-3.62l5.54-8.28,0,0,5.29-7.24a1,1,0,0,1,1.62,0l5.29,7.24,5.55,8.3a3.72,3.72,0,0,1,.23,3.63,3.47,3.47,0,0,1-2.74,2Zm-2.9-4.9a1,1,0,0,1,1,1,1.94,1.94,0,0,0,2.12,1.88,1.47,1.47,0,0,0,1.16-.86A1.75,1.75,0,0,0,122,77l-5.52-8.25L112,62.6l-4.47,6.12L102,77a1.72,1.72,0,0,0-.09,1.66,1.47,1.47,0,0,0,1.16.86h.22a1.9,1.9,0,0,0,1.9-1.9,1,1,0,0,1,2,0,1.9,1.9,0,1,0,3.79,0,1,1,0,0,1,2,0,1.9,1.9,0,0,0,3.79,0A1,1,0,0,1,117.8,76.62Z"/><path class="cls-16" d="M109.11,65.31a2.9,2.9,0,0,1-2.9,2.9l-.34,0a2.63,2.63,0,0,1-1.75-4.09l6.68-10.46a1.45,1.45,0,0,1,2.41,0l6.68,10.46a2.63,2.63,0,0,1-1.75,4.09l-.34,0a2.9,2.9,0,0,1-2.9-2.9,2.9,2.9,0,0,1-5.79,0Z"/><path class="cls-16" d="M109.11,65.31a2.9,2.9,0,0,1-2.9,2.9l-.34,0a2.63,2.63,0,0,1-1.75-4.09l6.68-10.46a1.45,1.45,0,0,1,2.41,0l6.68,10.46a2.63,2.63,0,0,1-1.75,4.09l-.34,0a2.9,2.9,0,0,1-2.9-2.9,2.9,2.9,0,0,1-5.79,0Z"/><g class="cls-2"><path class="cls-17" d="M119.88,64.08a2.4,2.4,0,0,1-1.74,1.1l-.34,0a2.9,2.9,0,0,1-2.9-2.9,2.9,2.9,0,0,1-5.79,0,2.9,2.9,0,0,1-2.9,2.9l-.34,0a2.4,2.4,0,0,1-1.74-1.1h0a2.63,2.63,0,0,0,1.75,4.09l.34,0a2.9,2.9,0,0,0,2.9-2.9,2.9,2.9,0,0,0,5.79,0,2.9,2.9,0,0,0,2.9,2.9l.34,0a2.63,2.63,0,0,0,1.75-4.09Z"/></g><path class="cls-7" d="M117.8,69.2a3.89,3.89,0,0,1-2.9-1.29,3.89,3.89,0,0,1-5.79,0,4,4,0,0,1-3.36,1.27,3.45,3.45,0,0,1-2.73-2,3.74,3.74,0,0,1,.27-3.63L110,53.1a2.45,2.45,0,0,1,4.08,0l6.69,10.47a3.73,3.73,0,0,1,.26,3.61,3.45,3.45,0,0,1-2.74,2Zm-1.9-3.9A1.92,1.92,0,0,0,118,67.19a1.45,1.45,0,0,0,1.16-.86,1.73,1.73,0,0,0-.12-1.68l-6.69-10.47A.43.43,0,0,0,112,54a.44.44,0,0,0-.37.2L105,64.63a1.74,1.74,0,0,0-.13,1.69,1.45,1.45,0,0,0,1.16.86,1.87,1.87,0,0,0,2.12-1.88,1,1,0,0,1,2,0,1.9,1.9,0,1,0,3.79,0,1,1,0,0,1,2,0Z"/></g><path class="cls-16" d="M39,118H32a4,4,0,0,1-4-4V94H39Z"/><g class="cls-2"><path class="cls-17" d="M28,111v3a4,4,0,0,0,4,4h7v-3H32A4,4,0,0,1,28,111Z"/></g><g class="cls-2"><rect class="cls-17" height="24" width="3" x="36" y="94"/></g><g class="cls-2"><rect class="cls-17" height="3" width="11" x="28" y="94"/></g><path class="cls-7" d="M39,119H32a5,5,0,0,1-5-5V94a1,1,0,0,1,1-1H39a1,1,0,0,1,1,1v24A1,1,0,0,1,39,119ZM29,95v19a3,3,0,0,0,3,3h6V95Z"/><path class="cls-16" d="M39,94H27V92a6,6,0,0,1,6-6h6Z"/><g class="cls-2"><rect class="cls-17" height="8" width="3" x="36" y="86"/></g><g class="cls-5"><path class="cls-6" d="M33,86a6,6,0,0,0-6,6v2h.09A6,6,0,0,1,33,89h6V86Z"/></g><path class="cls-7" d="M39,95H27a1,1,0,0,1-1-1V92a7,7,0,0,1,7-7h6a1,1,0,0,1,1,1v8A1,1,0,0,1,39,95ZM28,93H38V87H33a5,5,0,0,0-5,5Z"/><rect class="cls-10" height="3" width="3" x="32" y="94"/><path class="cls-7" d="M35,98H32a1,1,0,0,1-1-1V94a1,1,0,0,1,1-1h3a1,1,0,0,1,1,1v3A1,1,0,0,1,35,98Zm-2-2h1V95H33Z"/><path class="cls-12" d="M33.5,101h0A1.5,1.5,0,0,1,32,99.5V97h3v2.5A1.5,1.5,0,0,1,33.5,101Z"/><path class="cls-7" d="M33.5,102A2.5,2.5,0,0,1,31,99.5V97a1,1,0,0,1,1-1h3a1,1,0,0,1,1,1v2.5A2.5,2.5,0,0,1,33.5,102ZM33,98v1.5a.5.5,0,0,0,1,0V98Z"/><path class="cls-16" d="M89,118h7a4,4,0,0,0,4-4V94H89Z"/><g class="cls-2"><path class="cls-17" d="M100,111v3a4,4,0,0,1-4,4H89v-3h7A4,4,0,0,0,100,111Z"/></g><g class="cls-2"><rect class="cls-17" height="24" width="3" x="89" y="94"/></g><g class="cls-2"><rect class="cls-17" height="3" width="11" x="89" y="94"/></g><path class="cls-7" d="M96,119H89a1,1,0,0,1-1-1V94a1,1,0,0,1,1-1h11a1,1,0,0,1,1,1v20A5,5,0,0,1,96,119Zm-6-2h6a3,3,0,0,0,3-3V95H90Z"/><path class="cls-16" d="M89,94h12V92a6,6,0,0,0-6-6H89Z"/><g class="cls-2"><rect class="cls-17" height="8" width="3" x="89" y="86"/></g><g class="cls-5"><path class="cls-6" d="M95,86a6,6,0,0,1,6,6v2h-.09A6,6,0,0,0,95,89H89V86Z"/></g><path class="cls-7" d="M101,95H89a1,1,0,0,1-1-1V86a1,1,0,0,1,1-1h6a7,7,0,0,1,7,7v2A1,1,0,0,1,101,95ZM90,93h10V92a5,5,0,0,0-5-5H90Z"/><rect class="cls-10" height="3" width="3" x="93" y="94"/><path class="cls-7" d="M96,98H93a1,1,0,0,1-1-1V94a1,1,0,0,1,1-1h3a1,1,0,0,1,1,1v3A1,1,0,0,1,96,98Zm-2-2h1V95H94Z"/><path class="cls-12" d="M94.5,101h0A1.5,1.5,0,0,1,93,99.5V97h3v2.5A1.5,1.5,0,0,1,94.5,101Z"/><path class="cls-7" d="M94.5,102A2.5,2.5,0,0,1,92,99.5V97a1,1,0,0,1,1-1h3a1,1,0,0,1,1,1v2.5A2.5,2.5,0,0,1,94.5,102ZM94,98v1.5a.5.5,0,0,0,1,0V98Z"/><path class="cls-18" d="M89,67.46V115a4,4,0,0,1-4,4H43a4,4,0,0,1-4-4V67.46Z"/><g class="cls-2"><rect class="cls-19" height="4" width="50" x="39" y="68"/></g><path class="cls-7" d="M85,120H43a5,5,0,0,1-5-5V67.46a1,1,0,0,1,1-1H89a1,1,0,0,1,1,1V115A5,5,0,0,1,85,120ZM40,68.46V115a3,3,0,0,0,3,3H85a3,3,0,0,0,3-3V68.46Z"/><path class="cls-12" d="M85,119H43a4,4,0,0,1-4-4v6a4,4,0,0,0,4,4H85a4,4,0,0,0,4-4v-6A4,4,0,0,1,85,119Z"/><g class="cls-2"><path class="cls-20" d="M85,122H43a4,4,0,0,1-4-4v3a4,4,0,0,0,4,4H85a4,4,0,0,0,4-4v-3A4,4,0,0,1,85,122Z"/></g><path class="cls-7" d="M85,126H43a5,5,0,0,1-5-5v-6a1,1,0,0,1,2,0,3,3,0,0,0,3,3H85a3,3,0,0,0,3-3,1,1,0,0,1,2,0v6A5,5,0,0,1,85,126Zm-45-7v2a3,3,0,0,0,3,3H85a3,3,0,0,0,3-3v-2a5,5,0,0,1-3,1H43A5,5,0,0,1,40,119Z"/><rect class="cls-18" height="28" rx="4" ry="4" width="50" x="39" y="91"/><g class="cls-2"><path class="cls-19" d="M85,115H43a4,4,0,0,1-4-4v4a4,4,0,0,0,4,4H85a4,4,0,0,0,4-4v-4A4,4,0,0,1,85,115Z"/></g><g class="cls-2"><path class="cls-6" d="M85,91H43a4,4,0,0,0-4,4v4a4,4,0,0,1,4-4H85a4,4,0,0,1,4,4V95A4,4,0,0,0,85,91Z"/></g><path class="cls-7" d="M85,120H43a5,5,0,0,1-5-5V95a5,5,0,0,1,5-5H85a5,5,0,0,1,5,5v20A5,5,0,0,1,85,120ZM43,92a3,3,0,0,0-3,3v20a3,3,0,0,0,3,3H85a3,3,0,0,0,3-3V95a3,3,0,0,0-3-3Z"/><path class="cls-7" d="M61,85a1,1,0,0,1-1-1V68a1,1,0,0,1,2,0V84A1,1,0,0,1,61,85Z"/><path class="cls-7" d="M67,82a1,1,0,0,1-1-1V68a1,1,0,0,1,2,0V81A1,1,0,0,1,67,82Z"/><path class="cls-18" d="M49,48H79A12,12,0,0,1,91,60v4a4,4,0,0,1-4,4H41a4,4,0,0,1-4-4V60A12,12,0,0,1,49,48Z"/><g class="cls-2"><path class="cls-19" d="M87,64H41a4,4,0,0,1-4-4v4a4,4,0,0,0,4,4H87a4,4,0,0,0,4-4V60A4,4,0,0,1,87,64Z"/></g><g class="cls-2"><path class="cls-6" d="M79,48H49A12,12,0,0,0,37,60v4A12,12,0,0,1,49,52H79A12,12,0,0,1,91,64V60A12,12,0,0,0,79,48Z"/></g><path class="cls-7" d="M87,69H41a5,5,0,0,1-5-5V60A13,13,0,0,1,49,47H79A13,13,0,0,1,92,60v4A5,5,0,0,1,87,69ZM49,49A11,11,0,0,0,38,60v4a3,3,0,0,0,3,3H87a3,3,0,0,0,3-3V60A11,11,0,0,0,79,49Z"/><g class="cls-2"><path class="cls-9" d="M54,88.27V70a1,1,0,0,0-1-1H45a1,1,0,0,0-1,1V88.27A2,2,0,0,0,43,90v5a2,2,0,0,0,1,1.73V104a5,5,0,0,0,10,0V96.73A2,2,0,0,0,55,95V90A2,2,0,0,0,54,88.27Z"/></g><path class="cls-21" d="M49,106h0a4,4,0,0,1-4-4V68h8v34A4,4,0,0,1,49,106Z"/><g class="cls-5"><path class="cls-22" d="M49,103a4,4,0,0,1-4-4v3a4,4,0,0,0,8,0V99A4,4,0,0,1,49,103Z"/></g><g class="cls-2"><rect class="cls-23" height="4" width="8" x="45" y="68"/></g><path class="cls-7" d="M49,107a5,5,0,0,1-5-5V68a1,1,0,0,1,1-1h8a1,1,0,0,1,1,1v34A5,5,0,0,1,49,107ZM46,69v33a3,3,0,0,0,6,0V69Z"/><rect class="cls-10" height="7" rx="1" ry="1" width="10" x="44" y="87"/><path class="cls-6" d="M53,87H45a1,1,0,0,0-1,1v3a1,1,0,0,1,1-1h8a1,1,0,0,1,1,1V88A1,1,0,0,0,53,87Z"/><path class="cls-7" d="M53,95H45a2,2,0,0,1-2-2V88a2,2,0,0,1,2-2h8a2,2,0,0,1,2,2v5A2,2,0,0,1,53,95Zm-8-7v5h8V88Z"/><path class="cls-7" d="M49,96a1,1,0,0,1-1-1V91a1,1,0,0,1,2,0v4A1,1,0,0,1,49,96Z"/><path class="cls-7" d="M49,101a1,1,0,0,1-.38-.08,1.15,1.15,0,0,1-.33-.21,1.16,1.16,0,0,1-.21-.33A.83.83,0,0,1,48,100a1,1,0,0,1,1.71-.71,1,1,0,0,1,.21.33A1,1,0,0,1,49,101Z"/><path class="cls-7" d="M49,84a1,1,0,0,1-.71-.29,1.16,1.16,0,0,1-.21-.33A1,1,0,0,1,48,83a1,1,0,1,1,2,0,1,1,0,0,1-.08.38,1.16,1.16,0,0,1-.21.33A1,1,0,0,1,49,84Z"/><path class="cls-7" d="M49,80a1,1,0,0,1-.71-.29,1.5,1.5,0,0,1-.22-.33A1,1,0,0,1,48,79a.83.83,0,0,1,.08-.38,1.15,1.15,0,0,1,.21-.33,1,1,0,0,1,1.42,0,1,1,0,0,1,.21.33.94.94,0,0,1,0,.76,1.16,1.16,0,0,1-.21.33A1,1,0,0,1,49,80Z"/><g class="cls-2"><path class="cls-9" d="M84,88.27V70a1,1,0,0,0-1-1H75a1,1,0,0,0-1,1V88.27A2,2,0,0,0,73,90v5a2,2,0,0,0,1,1.73V104a5,5,0,0,0,10,0V96.73A2,2,0,0,0,85,95V90A2,2,0,0,0,84,88.27Z"/></g><path class="cls-21" d="M79,106h0a4,4,0,0,1-4-4V68h8v34A4,4,0,0,1,79,106Z"/><g class="cls-5"><path class="cls-22" d="M79,103a4,4,0,0,1-4-4v3a4,4,0,0,0,8,0V99A4,4,0,0,1,79,103Z"/></g><g class="cls-2"><rect class="cls-23" height="4" width="8" x="75" y="68"/></g><path class="cls-7" d="M79,107a5,5,0,0,1-5-5V68a1,1,0,0,1,1-1h8a1,1,0,0,1,1,1v34A5,5,0,0,1,79,107ZM76,69v33a3,3,0,0,0,6,0V69Z"/><rect class="cls-10" height="7" rx="1" ry="1" width="10" x="74" y="87"/><path class="cls-6" d="M83,87H75a1,1,0,0,0-1,1v3a1,1,0,0,1,1-1h8a1,1,0,0,1,1,1V88A1,1,0,0,0,83,87Z"/><path class="cls-7" d="M83,95H75a2,2,0,0,1-2-2V88a2,2,0,0,1,2-2h8a2,2,0,0,1,2,2v5A2,2,0,0,1,83,95Zm-8-7v5h8V88Z"/><path class="cls-7" d="M79,96a1,1,0,0,1-1-1V91a1,1,0,0,1,2,0v4A1,1,0,0,1,79,96Z"/><path class="cls-7" d="M79,101a1,1,0,0,1-.38-.08,1.15,1.15,0,0,1-.33-.21,1.16,1.16,0,0,1-.21-.33A.83.83,0,0,1,78,100a1,1,0,0,1,.08-.38,1,1,0,0,1,.21-.33A1,1,0,0,1,80,100a1,1,0,0,1-.08.38.9.9,0,0,1-.54.54A1,1,0,0,1,79,101Z"/><path class="cls-7" d="M79,84a1,1,0,0,1-.38-.08,1.15,1.15,0,0,1-.33-.21,1.5,1.5,0,0,1-.22-.33A1,1,0,0,1,78,83a1,1,0,0,1,1.71-.71A1,1,0,0,1,80,83a1,1,0,0,1-.08.38,1.16,1.16,0,0,1-.21.33A1,1,0,0,1,79,84Z"/><path class="cls-7" d="M79,80a1,1,0,0,1-.71-.29,1.16,1.16,0,0,1-.21-.33.94.94,0,0,1,0-.76,1,1,0,0,1,.21-.33A1,1,0,0,1,79.2,78l.18.06a.74.74,0,0,1,.18.09l.15.12a1.15,1.15,0,0,1,.21.33.94.94,0,0,1,0,.76.9.9,0,0,1-.54.54A1,1,0,0,1,79,80Z"/><path class="cls-7" d="M61,83a2,2,0,1,1,2-2A2,2,0,0,1,61,83Zm0-2h0Z"/><path class="cls-7" d="M67,80a2,2,0,1,1,2-2A2,2,0,0,1,67,80Zm0-2h0Z"/><rect class="cls-6" height="11" rx="2" ry="2" width="14" x="57" y="100"/><path class="cls-7" d="M69,112H59a3,3,0,0,1-3-3v-7a3,3,0,0,1,3-3H69a3,3,0,0,1,3,3v7A3,3,0,0,1,69,112ZM59,101a1,1,0,0,0-1,1v7a1,1,0,0,0,1,1H69a1,1,0,0,0,1-1v-7a1,1,0,0,0-1-1Z"/><g class="cls-5"><path class="cls-7" d="M65,105H63a1,1,0,0,1,0-2h2a1,1,0,0,1,0,2Z"/><path class="cls-7" d="M67,108H61a1,1,0,0,1,0-2h6a1,1,0,0,1,0,2Z"/></g><path class="cls-12" d="M72,44H56V42a2,2,0,0,1,2-2H70a2,2,0,0,1,2,2Z"/><path class="cls-7" d="M72,45H56a1,1,0,0,1-1-1V42a3,3,0,0,1,3-3H70a3,3,0,0,1,3,3v2A1,1,0,0,1,72,45ZM57,43H71V42a1,1,0,0,0-1-1H58a1,1,0,0,0-1,1Z"/><path class="cls-7" d="M56,49a1,1,0,0,1-1-1V44a1,1,0,0,1,2,0v4A1,1,0,0,1,56,49Z"/><path class="cls-7" d="M72,49a1,1,0,0,1-1-1V44a1,1,0,0,1,2,0v4A1,1,0,0,1,72,49Z"/><path class="cls-7" d="M71,58H70a1,1,0,0,1,0-2h1a1,1,0,0,1,0,2Z"/><path class="cls-7" d="M73,57H72a1,1,0,0,1,0-2h1a1,1,0,0,1,0,2Z"/><path class="cls-7" d="M67,58H66a1,1,0,0,1,0-2h1a1,1,0,0,1,0,2Z"/><path class="cls-7" d="M69,57H68a1,1,0,0,1,0-2h1a1,1,0,0,1,0,2Z"/><path class="cls-7" d="M63,58H62a1,1,0,0,1,0-2h1a1,1,0,0,1,0,2Z"/><path class="cls-7" d="M65,57H64a1,1,0,0,1,0-2h1a1,1,0,0,1,0,2Z"/><path class="cls-7" d="M61,57H60a1,1,0,0,1,0-2h1a1,1,0,0,1,0,2Z"/><path class="cls-7" d="M59,58H58a1,1,0,0,1,0-2h1a1,1,0,0,1,0,2Z"/><path class="cls-7" d="M57,57H56a1,1,0,0,1,0-2h1a1,1,0,0,1,0,2Z"/><path class="cls-7" d="M55,58H54a1,1,0,0,1,0-2h1a1,1,0,0,1,0,2Z"/><path class="cls-7" d="M53,57H52a1,1,0,0,1,0-2h1a1,1,0,0,1,0,2Z"/><rect class="cls-10" height="3" width="3" x="74" y="56"/><path class="cls-7" d="M77,60H74a1,1,0,0,1-1-1V56a1,1,0,0,1,1-1h3a1,1,0,0,1,1,1v3A1,1,0,0,1,77,60Zm-2-2h1V57H75Z"/><path class="cls-12" d="M75.5,63h0A1.5,1.5,0,0,1,74,61.5V59h3v2.5A1.5,1.5,0,0,1,75.5,63Z"/><path class="cls-7" d="M75.5,64A2.5,2.5,0,0,1,73,61.5V59a1,1,0,0,1,1-1h3a1,1,0,0,1,1,1v2.5A2.5,2.5,0,0,1,75.5,64ZM75,60v1.5a.5.5,0,0,0,1,0V60Z"/></svg>