<?xml version="1.0" ?><svg data-name="003" id="_003" viewBox="0 0 128 128" xmlns="http://www.w3.org/2000/svg"><defs><style>.cls-1{opacity:0.3;}.cls-12,.cls-2{fill:#c9c1f5;}.cls-3{fill:#e0f3ff;}.cls-4{fill:#6d6daa;}.cls-5{fill:#ff968c;}.cls-6{fill:#fff2cc;}.cls-7{fill:#f2eed5;}.cls-8{fill:#fffad1;}.cls-9{opacity:0.5;}.cls-10{fill:#b1f1a8;}.cls-11,.cls-13{fill:#fff;}.cls-12,.cls-13,.cls-14{fill-rule:evenodd;}.cls-14{fill:#554dad;}.cls-15{fill:#48bc33;}.cls-16{fill:#eef6ff;}.cls-17{fill:#7690a8;}.cls-18{fill:#f5dbb8;}.cls-19{fill:#875499;}.cls-20{fill:#b6b6d4;}.cls-21{fill:#96d7ff;}</style></defs><title/><g class="cls-1"><path class="cls-2" d="M126.19,53.69a30,30,0,0,0-23.51-25A19.69,19.69,0,0,1,91.74,22.1,37,37,0,0,0,27.42,37.78,19.57,19.57,0,0,1,17,50.95,28,28,0,1,0,54.66,88.29,9.41,9.41,0,0,1,63.17,83H64a12.39,12.39,0,0,1,12,9.74,20,20,0,0,0,26.06,14.14A20,20,0,0,0,115.47,89,21.38,21.38,0,0,1,120,76.65,29.91,29.91,0,0,0,126.19,53.69Z"/><rect class="cls-3" height="21" width="6" x="25.99" y="13"/><path class="cls-4" d="M32,35H26a1,1,0,0,1-1-1V13a1,1,0,0,1,1-1h6a1,1,0,0,1,1,1V34A1,1,0,0,1,32,35Zm-5-2h4V14H27Z"/><rect class="cls-2" height="12" width="15" x="5.99" y="22"/><path class="cls-4" d="M21,35H6a1,1,0,0,1-1-1V22a1,1,0,0,1,1-1H21a1,1,0,0,1,1,1V34A1,1,0,0,1,21,35ZM7,33H20V23H7Z"/><rect class="cls-2" height="5" width="17" x="4.99" y="17"/><path class="cls-4" d="M22,23H5a1,1,0,0,1-1-1V17a1,1,0,0,1,1-1H22a1,1,0,0,1,1,1v5A1,1,0,0,1,22,23ZM6,21H21V18H6Z"/><rect class="cls-5" height="21" width="6" x="31.99" y="13"/><path class="cls-4" d="M38,35H32a1,1,0,0,1-1-1V13a1,1,0,0,1,1-1h6a1,1,0,0,1,1,1V34A1,1,0,0,1,38,35Zm-5-2h4V14H33Z"/><rect class="cls-6" height="21" width="6" x="37.99" y="13"/><path class="cls-4" d="M44,35H38a1,1,0,0,1-1-1V13a1,1,0,0,1,1-1h6a1,1,0,0,1,1,1V34A1,1,0,0,1,44,35Zm-5-2h4V14H39Z"/><rect class="cls-7" height="21" width="6" x="85" y="13"/><path class="cls-4" d="M91,35H85a1,1,0,0,1-1-1V13a1,1,0,0,1,1-1h6a1,1,0,0,1,1,1V34A1,1,0,0,1,91,35Zm-5-2h4V14H86Z"/><rect class="cls-3" height="21" width="6" x="97" y="13"/><path class="cls-4" d="M103,35H97a1,1,0,0,1-1-1V13a1,1,0,0,1,1-1h6a1,1,0,0,1,1,1V34A1,1,0,0,1,103,35Zm-5-2h4V14H98Z"/><rect class="cls-5" height="21" width="6" x="91" y="13"/><path class="cls-4" d="M97,35H91a1,1,0,0,1-1-1V13a1,1,0,0,1,1-1h6a1,1,0,0,1,1,1V34A1,1,0,0,1,97,35Zm-5-2h4V14H92Z"/><rect class="cls-7" height="21" width="6" x="67" y="13"/><path class="cls-4" d="M73,35H67a1,1,0,0,1-1-1V13a1,1,0,0,1,1-1h6a1,1,0,0,1,1,1V34A1,1,0,0,1,73,35Zm-5-2h4V14H68Z"/><rect class="cls-3" height="21" width="6" x="79" y="13"/><path class="cls-4" d="M85,35H79a1,1,0,0,1-1-1V13a1,1,0,0,1,1-1h6a1,1,0,0,1,1,1V34A1,1,0,0,1,85,35Zm-5-2h4V14H80Z"/><rect class="cls-5" height="21" width="6" x="73" y="13"/><path class="cls-4" d="M79,35H73a1,1,0,0,1-1-1V13a1,1,0,0,1,1-1h6a1,1,0,0,1,1,1V34A1,1,0,0,1,79,35Zm-5-2h4V14H74Z"/><rect class="cls-8" height="6" width="122.01" x="2.99" y="34"/><path class="cls-4" d="M125,41H3a1,1,0,0,1-1-1V34a1,1,0,0,1,1-1H125a1,1,0,0,1,1,1v6A1,1,0,0,1,125,41ZM4,39H124V35H4Z"/><path class="cls-4" d="M16,27H11a1,1,0,1,1,0-2h5a1,1,0,0,1,0,2Z"/><path class="cls-4" d="M106,126H20a1,1,0,0,1,0-2h86a1,1,0,0,1,0,2Z"/><path class="cls-4" d="M113,126h-4a1,1,0,0,1,0-2h4a1,1,0,0,1,0,2Z"/><path class="cls-4" d="M17,126H15a1,1,0,0,1,0-2h2a1,1,0,1,1,0,2Z"/><g class="cls-9"><path class="cls-4" d="M97,18H91a1,1,0,1,1,0-2h6a1,1,0,0,1,0,2Z"/><path class="cls-4" d="M97,31H91a1,1,0,0,1,0-2h6a1,1,0,0,1,0,2Z"/></g><g class="cls-9"><path class="cls-4" d="M103,18H97a1,1,0,1,1,0-2h6a1,1,0,0,1,0,2Z"/><path class="cls-4" d="M103,31H97a1,1,0,0,1,0-2h6a1,1,0,0,1,0,2Z"/></g><g class="cls-9"><path class="cls-4" d="M91,18H85a1,1,0,1,1,0-2h6a1,1,0,0,1,0,2Z"/><path class="cls-4" d="M91,31H85a1,1,0,0,1,0-2h6a1,1,0,0,1,0,2Z"/></g><g class="cls-9"><path class="cls-4" d="M79,18H73a1,1,0,1,1,0-2h6a1,1,0,0,1,0,2Z"/><path class="cls-4" d="M79,31H73a1,1,0,0,1,0-2h6a1,1,0,0,1,0,2Z"/></g><g class="cls-9"><path class="cls-4" d="M85,18H79a1,1,0,1,1,0-2h6a1,1,0,0,1,0,2Z"/><path class="cls-4" d="M85,31H79a1,1,0,0,1,0-2h6a1,1,0,0,1,0,2Z"/></g><g class="cls-9"><path class="cls-4" d="M73,18H67a1,1,0,1,1,0-2h6a1,1,0,0,1,0,2Z"/><path class="cls-4" d="M73,31H67a1,1,0,0,1,0-2h6a1,1,0,0,1,0,2Z"/></g><g class="cls-9"><path class="cls-4" d="M38,18H32a1,1,0,0,1,0-2h6a1,1,0,0,1,0,2Z"/><path class="cls-4" d="M38,31H32a1,1,0,0,1,0-2h6a1,1,0,0,1,0,2Z"/></g><g class="cls-9"><path class="cls-4" d="M44,18H38a1,1,0,1,1,0-2h6a1,1,0,0,1,0,2Z"/><path class="cls-4" d="M44,31H38a1,1,0,0,1,0-2h6a1,1,0,0,1,0,2Z"/></g><g class="cls-9"><path class="cls-4" d="M32,18H26a1,1,0,0,1,0-2h6a1,1,0,0,1,0,2Z"/><path class="cls-4" d="M32,31H26a1,1,0,0,1,0-2h6a1,1,0,0,1,0,2Z"/></g><path class="cls-10" d="M121.73,22A26.56,26.56,0,0,0,123,13.73c0-5.3-2.91-8.74-6.5-8.74S110,8.5,110,13.73A26.56,26.56,0,0,0,111.27,22Z"/><g class="cls-9"><path class="cls-11" d="M118.51,5.38a5.43,5.43,0,0,0-2-.39c-3.59,0-6.5,3.5-6.5,8.74A26.56,26.56,0,0,0,111.27,22h4A26.56,26.56,0,0,1,114,13.73C114,9.51,115.89,6.42,118.51,5.38Z"/></g><path class="cls-4" d="M121.73,23H111.27a1,1,0,0,1-.95-.68A27.42,27.42,0,0,1,109,13.73C109,8.09,112.15,4,116.5,4s7.5,4.09,7.5,9.74a27.42,27.42,0,0,1-1.32,8.59A1,1,0,0,1,121.73,23ZM112,21h9a26,26,0,0,0,1-7.26C122,9.25,119.69,6,116.5,6S111,9.25,111,13.73A26,26,0,0,0,112,21Z"/><path class="cls-4" d="M111.5,10.5a1,1,0,0,1-.55-.17l-1.5-1a1,1,0,0,1,1.11-1.66l1.5,1a1,1,0,0,1-.56,1.83Z"/><path class="cls-4" d="M114.25,7.31a1,1,0,0,1-.73-.31l-1.24-1.31a1,1,0,1,1,1.45-1.37L115,5.62a1,1,0,0,1-.73,1.69Z"/><path class="cls-4" d="M118.75,7.31a1,1,0,0,1-.68-1.73l1.32-1.22a1,1,0,0,1,1.36,1.47L119.43,7A1,1,0,0,1,118.75,7.31Z"/><path class="cls-4" d="M110.5,16a1,1,0,0,1-.32-.05l-1.5-.5a1,1,0,0,1,.63-1.9l1.5.5A1,1,0,0,1,110.5,16Z"/><path class="cls-4" d="M110,21a1,1,0,0,1-.32-1.95l1.5-.5a1,1,0,0,1,.63,1.9l-1.5.5A1,1,0,0,1,110,21Z"/><path class="cls-4" d="M122,12a1,1,0,0,1-.56-1.83l1.5-1a1,1,0,1,1,1.11,1.66l-1.5,1A1,1,0,0,1,122,12Z"/><path class="cls-4" d="M123.5,15h-1a1,1,0,0,1,0-2h1a1,1,0,0,1,0,2Z"/><path class="cls-4" d="M114.5,18.5a1,1,0,0,1-.71-.29l-.5-.5a1,1,0,0,1,1.42-1.41l.5.5a1,1,0,0,1-.71,1.71Z"/><path class="cls-4" d="M114.5,12.5a1,1,0,0,1-.71-.29l-.5-.5a1,1,0,0,1,1.42-1.41l.5.5a1,1,0,0,1-.71,1.71Z"/><path class="cls-4" d="M118.5,15.5a1,1,0,0,1-.71-1.71l.5-.5a1,1,0,0,1,1.41,1.41l-.5.5A1,1,0,0,1,118.5,15.5Z"/><path class="cls-4" d="M118.5,10.5a1,1,0,0,1-.71-1.71l.5-.5a1,1,0,0,1,1.41,1.41l-.5.5A1,1,0,0,1,118.5,10.5Z"/><path class="cls-4" d="M118.5,20.5a1,1,0,0,1-.71-1.71l.5-.5a1,1,0,0,1,1.41,1.41l-.5.5A1,1,0,0,1,118.5,20.5Z"/><path class="cls-4" d="M123.5,19.5a1,1,0,0,1-.32-.05l-1.5-.5a1,1,0,0,1,.63-1.9l1.5.5a1,1,0,0,1-.32,1.95Z"/><polygon class="cls-12" points="122.5 34 110.5 34 109 25 124 25 122.5 34"/><g class="cls-9"><polygon class="cls-13" points="115 34 113 34 112 25 114 25 115 34"/></g><g class="cls-1"><polygon class="cls-14" points="123.5 28 124 25 109 25 109.5 28 123.5 28"/></g><path class="cls-4" d="M122.5,35h-12a1,1,0,0,1-1-.84l-1.5-9A1,1,0,0,1,109,24h15a1,1,0,0,1,1,1.16l-1.5,9A1,1,0,0,1,122.5,35Zm-11.15-2h10.31l1.17-7H110.18Z"/><rect class="cls-2" height="3" width="17" x="108" y="22"/><g class="cls-9"><rect class="cls-11" height="3" width="2" x="111" y="22"/></g><path class="cls-4" d="M125,26H108a1,1,0,0,1-1-1V22a1,1,0,0,1,1-1h17a1,1,0,0,1,1,1v3A1,1,0,0,1,125,26Zm-16-2h15V23H109Z"/></g><polygon class="cls-10" points="35 92 35 48 30 48 40 38 50 48 44 48 44 92 35 92"/><g class="cls-1"><rect class="cls-15" height="3" width="11" x="34" y="56"/></g><g class="cls-1"><path class="cls-15" d="M45,60H40V48a1,1,0,0,1,1-1h4Z"/></g><g class="cls-9"><polygon class="cls-11" points="40 42 46 48 50 48 40 38 30 48 34 48 40 42"/></g><path class="cls-4" d="M44,93H35a1,1,0,0,1-1-1V49H30a1,1,0,0,1-.71-1.71l10-10a1,1,0,0,1,1.41,0l10,10A1,1,0,0,1,50,49H45V92A1,1,0,0,1,44,93Zm-8-2h7V48a1,1,0,0,1,1-1h3.59L40,39.41,32.41,47H35a1,1,0,0,1,1,1Z"/><polyline class="cls-16" points="51 88 51 34 37 34 63 8 89 34 75 34 75 88"/><g class="cls-1"><rect class="cls-17" height="3" width="24" x="51" y="56"/></g><g class="cls-1"><path class="cls-17" d="M75,60H63V34a1,1,0,0,1,1-1H75Z"/></g><polygon class="cls-11" points="63 12 85 34 89 34 63 8 37 34 41 34 63 12"/><path class="cls-4" d="M75,89a1,1,0,0,1-1-1V34a1,1,0,0,1,1-1H86.59L63,9.41,39.41,33H51a1,1,0,0,1,1,1V88a1,1,0,0,1-2,0V35H37a1,1,0,0,1-.71-1.71l26-26a1,1,0,0,1,1.41,0l26,26A1,1,0,0,1,89,35H76V88A1,1,0,0,1,75,89Z"/><polygon class="cls-10" points="75 78 75 33 67 33 82 18 97 33 89 33 89 78 75 78"/><g class="cls-1"><rect class="cls-15" height="3" width="14" x="75" y="56"/></g><g class="cls-1"><path class="cls-15" d="M89,62H82V34a1,1,0,0,1,1-1h6Z"/></g><g class="cls-9"><polygon class="cls-11" points="82 23 93 34 97 34 82 19 67 34 71 34 82 23"/></g><path class="cls-4" d="M89,80H75a1,1,0,0,1-1-1V35H67a1,1,0,0,1-.71-1.71l15-15a1,1,0,0,1,1.41,0l15,15A1,1,0,0,1,97,35H90V79A1,1,0,0,1,89,80ZM76,78H88V34a1,1,0,0,1,1-1h5.59L82,20.41,69.41,33H75a1,1,0,0,1,1,1Z"/><polygon class="cls-16" points="70 93 70 49 65 49 75 39 85 49 79 49 79 93 70 93"/><g class="cls-1"><rect class="cls-17" height="3" width="9" x="70" y="56"/></g><g class="cls-1"><path class="cls-17" d="M79,59H75V49a1,1,0,0,1,1-1h3Z"/></g><polygon class="cls-11" points="75 43 81 49 85 49 75 39 65 49 69 49 75 43"/><path class="cls-4" d="M79,94H70a1,1,0,0,1-1-1V50H65a1,1,0,0,1-.71-1.71l10-10a1,1,0,0,1,1.41,0l10,10A1,1,0,0,1,85,50H80V93A1,1,0,0,1,79,94Zm-8-2h7V49a1,1,0,0,1,1-1h3.59L75,40.41,67.42,48H70a1,1,0,0,1,1,1Z"/><path class="cls-18" d="M63,125h38a1,1,0,0,0,1-1V67L63,60Z"/><g class="cls-1"><path class="cls-19" d="M101,121H63v4h38a1,1,0,0,0,1-1v-4A1,1,0,0,1,101,121Z"/></g><path class="cls-4" d="M101,126H63a1,1,0,0,1-1-1V60a1,1,0,0,1,1.18-1l39,7a1,1,0,0,1,.82,1v57A2,2,0,0,1,101,126Zm-37-2h37V67.84L64,61.2Z"/><path class="cls-8" d="M25,125H63V60L24,67v57A1,1,0,0,0,25,125Z"/><g class="cls-1"><path class="cls-19" d="M24,120v4a1,1,0,0,0,1,1H63v-4H25A1,1,0,0,1,24,120Z"/></g><path class="cls-4" d="M63,126H25a2,2,0,0,1-2-2V67a1,1,0,0,1,.82-1l39-7A1,1,0,0,1,64,60v65A1,1,0,0,1,63,126ZM25,67.84V124H62V61.2Z"/><g class="cls-1"><path class="cls-19" d="M25,91H50.59a2,2,0,0,0,1.88-1.33L63,60,25,69Z"/></g><g class="cls-1"><path class="cls-19" d="M75.41,91H101V69L63,60,73.53,89.67A2,2,0,0,0,75.41,91Z"/></g><path class="cls-18" d="M78,87h38L101.85,61.58A3,3,0,0,0,99.21,60H63Z"/><g class="cls-9"><path class="cls-11" d="M101.85,61.58A3,3,0,0,0,99.21,60H63l2.31,4h37.85Z"/></g><path class="cls-4" d="M116,88H78a1,1,0,0,1-.87-.51l-15-27A1,1,0,0,1,63,59H99.21a4,4,0,0,1,3.52,2.1l14.14,25.41A1,1,0,0,1,116,88ZM78.59,86H114.3L101,62.06A2,2,0,0,0,99.21,61H64.7Z"/><path class="cls-8" d="M10,87H48L63,60H26.79a3,3,0,0,0-2.64,1.58Z"/><g class="cls-9"><path class="cls-11" d="M24.15,61.58l-1.37,2.54H60.62L63,60H26.79A3,3,0,0,0,24.15,61.58Z"/></g><path class="cls-4" d="M48,88H10a1,1,0,0,1-.87-1.49L23.28,61.09A4,4,0,0,1,26.79,59H63a1,1,0,0,1,.87,1.49l-15,27A1,1,0,0,1,48,88ZM11.7,86H47.41L61.3,61H26.79A2,2,0,0,0,25,62.05Z"/><rect class="cls-11" height="14" width="17" x="34" y="100"/><path class="cls-4" d="M51,115H34a1,1,0,0,1-1-1V100a1,1,0,0,1,1-1H51a1,1,0,0,1,1,1v14A1,1,0,0,1,51,115Zm-16-2H50V101H35Z"/><path class="cls-20" d="M39,105H38a1,1,0,0,1,0-2h1a1,1,0,0,1,0,2Z"/><path class="cls-20" d="M39,112H38a1,1,0,0,1,0-2h1a1,1,0,0,1,0,2Z"/><path class="cls-20" d="M43,112H42a1,1,0,1,1,0-2h1a1,1,0,0,1,0,2Z"/><path class="cls-20" d="M47,112H46a1,1,0,1,1,0-2h1a1,1,0,1,1,0,2Z"/><path class="cls-20" d="M47,105H42a1,1,0,1,1,0-2h5a1,1,0,1,1,0,2Z"/><path class="cls-20" d="M43,108H38a1,1,0,0,1,0-2h5a1,1,0,0,1,0,2Z"/><path class="cls-21" d="M119.33,54A5.55,5.55,0,0,0,123,57.72q2.77.92,0,1.85a5.55,5.55,0,0,0-3.69,3.69q-.92,2.77-1.85,0a5.55,5.55,0,0,0-3.69-3.69q-2.77-.92,0-1.85A5.55,5.55,0,0,0,117.48,54Q118.41,51.26,119.33,54Z"/><path class="cls-2" d="M103,45.57A3.7,3.7,0,0,0,105.48,48q1.85.62,0,1.23A3.7,3.7,0,0,0,103,51.72q-.62,1.85-1.23,0a3.7,3.7,0,0,0-2.46-2.46q-1.85-.62,0-1.23a3.7,3.7,0,0,0,2.46-2.46Q102.41,43.72,103,45.57Z"/><path class="cls-2" d="M19.17,46.8a4.62,4.62,0,0,0,3.08,3.08q2.31.77,0,1.54a4.62,4.62,0,0,0-3.08,3.08q-.77,2.31-1.54,0a4.62,4.62,0,0,0-3.08-3.08q-2.31-.77,0-1.54a4.62,4.62,0,0,0,3.08-3.08Q18.4,44.49,19.17,46.8Z"/><path class="cls-21" d="M9,60.57A3.7,3.7,0,0,0,11.47,63q1.85.62,0,1.23A3.7,3.7,0,0,0,9,66.72q-.62,1.85-1.23,0a3.7,3.7,0,0,0-2.46-2.46q-1.85-.62,0-1.23a3.7,3.7,0,0,0,2.46-2.46Q8.4,58.72,9,60.57Z"/><path class="cls-21" d="M14,95.57A3.7,3.7,0,0,0,16.47,98q1.85.62,0,1.23A3.7,3.7,0,0,0,14,101.73q-.62,1.85-1.23,0a3.7,3.7,0,0,0-2.46-2.46q-1.85-.62,0-1.23a3.7,3.7,0,0,0,2.46-2.46Q13.4,93.73,14,95.57Z"/><path class="cls-2" d="M112,106.57a3.7,3.7,0,0,0,2.46,2.46q1.85.62,0,1.23a3.7,3.7,0,0,0-2.46,2.46q-.62,1.85-1.23,0a3.7,3.7,0,0,0-2.46-2.46q-1.85-.62,0-1.23a3.7,3.7,0,0,0,2.46-2.46Q111.41,104.73,112,106.57Z"/></svg>