<?xml version="1.0" ?><svg data-name="003" id="_003" viewBox="0 0 128 128" xmlns="http://www.w3.org/2000/svg"><defs><style>.cls-1{opacity:0.3;}.cls-2{fill:#c9c1f5;}.cls-3{fill:#eef6ff;}.cls-4{fill:#7595b5;}.cls-5{fill:#fff;}.cls-6{fill:#6d6daa;}.cls-7{fill:#fff27d;}.cls-8{opacity:0.5;}.cls-9{fill:#f7a706;}.cls-10{fill:#ffc661;}.cls-11{fill:#89dbba;}.cls-12{fill:#48bc33;}.cls-13{fill:#b1f1a8;}.cls-14{fill:#939fc6;}.cls-15{fill:#e0f3ff;}.cls-16{fill:#c7e9ff;}.cls-17{fill:#1c64ba;}.cls-18{fill:#8593ba;}.cls-19{fill:#97c1ff;}</style></defs><title/><g class="cls-1"><path class="cls-2" d="M126.7,47.65a30,30,0,0,0-23.51-25,19.69,19.69,0,0,1-10.93-6.55A37,37,0,0,0,28,31.43,21,21,0,0,1,17.12,45.1C3,52.46-4.14,71.56,8.77,89.48a16.6,16.6,0,0,0,6.35,4.91,20.58,20.58,0,0,1,10,10.88,28.49,28.49,0,0,0,42.62,12.64A20.06,20.06,0,0,1,84.39,115a29,29,0,0,0,36-33.79A20.08,20.08,0,0,1,122.94,67,29.83,29.83,0,0,0,126.7,47.65Z"/><circle class="cls-3" cx="24" cy="101" r="18"/><g class="cls-1"><path class="cls-4" d="M24,115.14A18,18,0,0,0,41.89,99.07,18,18,0,1,1,6,101a18.18,18.18,0,0,1,.11-1.93A18,18,0,0,0,24,115.14Z"/></g><path class="cls-5" d="M24,86.86A18,18,0,0,0,6.11,102.93,18,18,0,1,1,42,101a18.18,18.18,0,0,1-.11,1.93A18,18,0,0,0,24,86.86Z"/><path class="cls-6" d="M24,120a19,19,0,1,1,19-19A19,19,0,0,1,24,120Zm0-36a17,17,0,1,0,17,17A17,17,0,0,0,24,84Z"/><path class="cls-6" d="M24,114.86a1,1,0,0,1-.71-.3,1,1,0,0,1-.29-.7,1.38,1.38,0,0,1,0-.2.66.66,0,0,1,.06-.18.6.6,0,0,1,.09-.18,1.76,1.76,0,0,1,.12-.15.76.76,0,0,1,.15-.12l.18-.1.18,0a1,1,0,0,1,.91.27l.12.15a1.35,1.35,0,0,1,.15.36,1.25,1.25,0,0,1,0,.2,1,1,0,0,1-1,1Z"/><path class="cls-6" d="M11.14,102a1,1,0,0,1-.7-.29,1,1,0,0,1-.22-.33,1,1,0,0,1,1.3-1.3.93.93,0,0,1,.33.21,1.18,1.18,0,0,1,.22.33,1,1,0,0,1,.07.38,1,1,0,0,1-.29.71.93.93,0,0,1-.33.21A1,1,0,0,1,11.14,102Z"/><path class="cls-6" d="M37.14,102a1,1,0,0,1-.7-.29,1,1,0,0,1,0-1.42,1,1,0,0,1,.9-.27.65.65,0,0,1,.18.06.6.6,0,0,1,.18.09l.15.12a1.15,1.15,0,0,1,.21.33,1,1,0,0,1,.08.38,1,1,0,0,1-1,1Z"/><path class="cls-6" d="M24,89a1,1,0,0,1-.71-.29,1.22,1.22,0,0,1-.22-.33A1,1,0,0,1,23,88a.83.83,0,0,1,.08-.38,1,1,0,0,1,.21-.33l.15-.12a.74.74,0,0,1,.18-.09A.65.65,0,0,1,23.8,87a1,1,0,0,1,1.12.6A1,1,0,0,1,24,89Z"/><path class="cls-6" d="M24,104.57A3.57,3.57,0,1,1,27.57,101,3.58,3.58,0,0,1,24,104.57Zm0-5.14A1.57,1.57,0,1,0,25.57,101,1.57,1.57,0,0,0,24,99.43Z"/><path class="cls-6" d="M24,99.43a1,1,0,0,1-1-1V91.14a1,1,0,0,1,2,0v7.29A1,1,0,0,1,24,99.43Z"/><path class="cls-6" d="M33.86,102H26.57a1,1,0,1,1,0-2h7.29a1,1,0,0,1,0,2Z"/><path class="cls-6" d="M113,126H21a1,1,0,1,1,0-2h92a1,1,0,0,1,0,2Z"/><path class="cls-6" d="M121,126h-5a1,1,0,0,1,0-2h5a1,1,0,0,1,0,2Z"/><path class="cls-6" d="M7,126a1,1,0,0,1-.39-.07,1,1,0,0,1-.54-.55,1.08,1.08,0,0,1,0-.76,1.21,1.21,0,0,1,.22-.33,1,1,0,0,1,1.41,0,1.18,1.18,0,0,1,.22.33.94.94,0,0,1,0,.76,1,1,0,0,1-.22.33A1,1,0,0,1,7,126Z"/><path class="cls-6" d="M18,126H10a1,1,0,0,1,0-2h8a1,1,0,0,1,0,2Z"/><path class="cls-7" d="M25.79,14.89l-19,19a2.79,2.79,0,0,0,0,3.95L18.23,49.22a2.79,2.79,0,0,0,3.95,0l19-19V14.89Zm8.38,9.78A2.79,2.79,0,1,1,37,21.87,2.79,2.79,0,0,1,34.17,24.66Z"/><path class="cls-5" d="M25.79,14.89l-19,19a2.79,2.79,0,0,0-.38,3.47,2.8,2.8,0,0,1,.38-.47l20-20H41.15v-2Z"/><g class="cls-8"><path class="cls-9" d="M18.23,46.22,6.82,34.81a2.77,2.77,0,0,1-.63-1,2.79,2.79,0,0,0,.63,3L18.23,48.22a2.79,2.79,0,0,0,3.95,0l19-19v-2l-19,19A2.79,2.79,0,0,1,18.23,46.22Z"/></g><path class="cls-6" d="M20.2,51a3.78,3.78,0,0,1-2.68-1.11L6.11,38.52a3.79,3.79,0,0,1,0-5.36l19-19a1,1,0,0,1,.71-.29H41.15a1,1,0,0,1,1,1V30.25a1,1,0,0,1-.29.71l-19,19A3.78,3.78,0,0,1,20.2,51Zm6-35.15L7.52,34.57a1.79,1.79,0,0,0,0,2.54L18.94,48.51a1.8,1.8,0,0,0,2.54,0L40.15,29.83V15.89Zm8,9.77A3.79,3.79,0,1,1,38,21.87,3.8,3.8,0,0,1,34.17,25.66Zm0-5.59A1.79,1.79,0,1,0,36,21.87,1.8,1.8,0,0,0,34.17,20.08Z"/><path class="cls-6" d="M41.15,22.87a1,1,0,0,1,0-2,2.21,2.21,0,0,0,1.3-.42,1,1,0,0,1,1.14,1.64A4.2,4.2,0,0,1,41.15,22.87Zm-7,0h0a1,1,0,0,1-1-1c0-.71,0-1.41.09-2.09a1,1,0,0,1,2,.18c-.06.61-.08,1.25-.09,1.91A1,1,0,0,1,34.17,22.83Zm10.68-2.89A1,1,0,0,1,44,18.5a12.11,12.11,0,0,0,.67-1.72,1,1,0,1,1,1.91.59,14.11,14.11,0,0,1-.78,2A1,1,0,0,1,44.85,19.94ZM34.77,17.88a1,1,0,0,1-1-1.25,15.34,15.34,0,0,1,.68-2,1,1,0,1,1,1.85.77,13.4,13.4,0,0,0-.59,1.76A1,1,0,0,1,34.77,17.88Zm11.17-2.75a1,1,0,0,1-1-.84,3.74,3.74,0,0,0-.57-1.46,1,1,0,1,1,1.68-1.09A5.71,5.71,0,0,1,46.93,14a1,1,0,0,1-.83,1.14Zm-9.07-1.75a1,1,0,0,1-.8-1.6,12,12,0,0,1,.81-1,6.19,6.19,0,0,1,.74-.68,1,1,0,0,1,1.22,1.58,4.09,4.09,0,0,0-.5.46,9.54,9.54,0,0,0-.67.81A1,1,0,0,1,36.87,13.38Zm6.09-2a1,1,0,0,1-.4-.08A3.93,3.93,0,0,0,41,11a1,1,0,1,1,0-2,5.86,5.86,0,0,1,2.34.49,1,1,0,0,1-.4,1.92Z"/><path class="cls-6" d="M23.27,36.38a3.6,3.6,0,0,1-2.57-6.11,1,1,0,0,1,1.41,1.41,1.59,1.59,0,0,0,2.25,2.25c.86-.86-.05-2.56-.06-2.57-.63-1.12-1.27-3.42.27-5a3.59,3.59,0,0,1,5.08,5.08,1,1,0,1,1-1.41-1.41A1.59,1.59,0,0,0,26,27.8c-.86.86.05,2.56.06,2.58.63,1.12,1.27,3.42-.27,5A3.53,3.53,0,0,1,23.27,36.38Z"/><path class="cls-6" d="M28.92,28.12a1,1,0,0,1-.71-1.71l1.06-1.06a1,1,0,0,1,1.41,1.41l-1.06,1.06A1,1,0,0,1,28.92,28.12Z"/><path class="cls-6" d="M20.2,36.83a1,1,0,0,1-.71-1.71l1.22-1.22a1,1,0,0,1,1.41,1.42l-1.22,1.22A1,1,0,0,1,20.2,36.83Z"/><path class="cls-6" d="M19.51,41a1,1,0,0,1-.71-.29l-3.49-3.49a1,1,0,1,1,1.41-1.41l3.49,3.49A1,1,0,0,1,19.51,41Z"/><path class="cls-6" d="M19.51,45.21a1,1,0,0,1-.71-.29l-7.68-7.68a1,1,0,0,1,1.41-1.41l7.68,7.68a1,1,0,0,1-.71,1.71Z"/><circle class="cls-10" cx="31.01" cy="67" r="9"/><path class="cls-6" d="M31,77A10,10,0,1,1,41,67,10,10,0,0,1,31,77Zm0-18a8,8,0,1,0,8,8A8,8,0,0,0,31,59Z"/><circle class="cls-7" cx="31.01" cy="67" r="5"/><path class="cls-6" d="M31,73a6,6,0,1,1,6-6A6,6,0,0,1,31,73Zm0-10a4,4,0,1,0,4,4A4,4,0,0,0,31,63Z"/><rect class="cls-11" height="36" width="69" x="56" y="14"/><g class="cls-1"><rect class="cls-12" height="18" width="69" x="56" y="32"/></g><path class="cls-13" d="M120,40.58A4.42,4.42,0,0,0,115.57,45H65.42A4.42,4.42,0,0,0,61,40.58V23.42A4.42,4.42,0,0,0,65.42,19h50.15A4.42,4.42,0,0,0,120,23.42Z"/><path class="cls-6" d="M125,51H56a1,1,0,0,1-1-1V14a1,1,0,0,1,1-1h69a1,1,0,0,1,1,1V50A1,1,0,0,1,125,51ZM57,49h67V15H57Z"/><g class="cls-1"><path class="cls-12" d="M60.5,32v9A4.5,4.5,0,0,1,65,45.5h51a4.5,4.5,0,0,1,4.5-4.5V32Z"/></g><path class="cls-6" d="M115.57,46H65.42a1,1,0,0,1-1-1A3.42,3.42,0,0,0,61,41.58a1,1,0,0,1-1-1V23.42a1,1,0,0,1,1-1A3.42,3.42,0,0,0,64.42,19a1,1,0,0,1,1-1h50.15a1,1,0,0,1,1,1A3.42,3.42,0,0,0,120,22.42a1,1,0,0,1,1,1V40.58a1,1,0,0,1-1,1A3.42,3.42,0,0,0,116.57,45,1,1,0,0,1,115.57,46ZM66.33,44h48.34A5.43,5.43,0,0,1,119,39.68V24.33A5.43,5.43,0,0,1,114.67,20H66.33A5.44,5.44,0,0,1,62,24.33V39.68A5.44,5.44,0,0,1,66.33,44Z"/><ellipse class="cls-11" cx="90.5" cy="33.5" rx="9.6" ry="12"/><path class="cls-6" d="M90.5,46.5c-5.84,0-10.6-5.83-10.6-13s4.75-13,10.6-13,10.6,5.83,10.6,13S96.34,46.5,90.5,46.5Zm0-24c-4.74,0-8.6,4.93-8.6,11s3.86,11,8.6,11,8.6-4.93,8.6-11S95.24,22.5,90.5,22.5Z"/><circle class="cls-11" cx="71" cy="32" r="2.25"/><path class="cls-6" d="M71,35.25A3.25,3.25,0,1,1,74.25,32,3.25,3.25,0,0,1,71,35.25Zm0-4.5A1.25,1.25,0,1,0,72.25,32,1.25,1.25,0,0,0,71,30.75Z"/><circle class="cls-6" cx="60.5" cy="18.5" r="0.75"/><path class="cls-6" d="M60.5,20.25a1.75,1.75,0,1,1,1.75-1.75A1.75,1.75,0,0,1,60.5,20.25Zm0-2a.25.25,0,0,0-.25.25c0,.28.5.28.5,0A.25.25,0,0,0,60.5,18.25Z"/><circle class="cls-6" cx="60.5" cy="45.5" r="0.75"/><path class="cls-6" d="M60.5,47.25a1.75,1.75,0,1,1,1.75-1.75A1.75,1.75,0,0,1,60.5,47.25Zm0-2a.25.25,0,0,0-.25.25c0,.28.5.28.5,0A.25.25,0,0,0,60.5,45.25Z"/><circle class="cls-6" cx="120.5" cy="18.5" r="0.75"/><path class="cls-6" d="M120.5,20.25a1.75,1.75,0,1,1,1.75-1.75A1.75,1.75,0,0,1,120.5,20.25Zm0-2a.25.25,0,0,0-.25.25c0,.28.5.28.5,0A.25.25,0,0,0,120.5,18.25Z"/><circle class="cls-6" cx="120.5" cy="45.5" r="0.75"/><path class="cls-6" d="M120.5,47.25a1.75,1.75,0,1,1,1.75-1.75A1.75,1.75,0,0,1,120.5,47.25Zm0-2a.25.25,0,0,0-.25.25c0,.28.5.28.5,0A.25.25,0,0,0,120.5,45.25Z"/><path class="cls-13" d="M94.45,40.11,93.91,40a.65.65,0,0,1-.55-.67c0-.36,0-.74,0-1.14,0-.91,1.1-2,1.16-3.29a5.16,5.16,0,0,0,.57-2.09,1.08,1.08,0,0,0-.26-.8c.09-.48.17-1,.26-1.5.38-2.09-.35-3.59-2.19-4.24-.66-.23-3.41-.71-4.43-1.7-.37-.36-.12,1.66-.45,1.81a3.35,3.35,0,0,0-2.14,4.13c.09.52.17,1,.26,1.5a1.08,1.08,0,0,0-.26.8,5.16,5.16,0,0,0,.57,2.09c.06,1.28,1.16,2.32,1.16,3.29,0,.4,0,.78,0,1.14a.65.65,0,0,1-.55.67l-.61.12a11,11,0,0,0-3.27,1.2,9.17,9.17,0,0,0,6.29,4.13,8.47,8.47,0,0,0,1,.06h.09a8.47,8.47,0,0,0,.93-.06,9.18,9.18,0,0,0,6.3-4.15A10.41,10.41,0,0,0,94.45,40.11Z"/><path class="cls-6" d="M90.45,46.5h0a9.18,9.18,0,0,1-1.06-.07,10.13,10.13,0,0,1-7-4.56,1,1,0,0,1,.33-1.44,12.08,12.08,0,0,1,3.56-1.31l.35-.07c0-.28,0-.58,0-.89a3.08,3.08,0,0,0-.41-1,5.78,5.78,0,0,1-.74-2,6,6,0,0,1-.59-2.35,2.35,2.35,0,0,1,.21-1L85,31.33l-.11-.66a4.26,4.26,0,0,1,2.31-5c0-.12,0-.27,0-.37,0-.7.07-1.42.78-1.69a1.08,1.08,0,0,1,1.16.25,9.4,9.4,0,0,0,3.23,1.24c.37.09.67.17.84.23,2.27.81,3.3,2.76,2.84,5.36l-.12.68-.07.43a2.35,2.35,0,0,1,.21,1,6,6,0,0,1-.59,2.35,6,6,0,0,1-.75,2.08,3.39,3.39,0,0,0-.39,1c0,.3,0,.6,0,.89l.28.06a11.49,11.49,0,0,1,3.65,1.29,1,1,0,0,1,.33,1.43,10.13,10.13,0,0,1-7,4.58,9.45,9.45,0,0,1-1,.07Zm-5.7-4.83a7.82,7.82,0,0,0,4.87,2.78,7.55,7.55,0,0,0,.86.06,8.37,8.37,0,0,0,.89-.06,7.81,7.81,0,0,0,4.88-2.79,10.2,10.2,0,0,0-2-.56h0L93.69,41a1.65,1.65,0,0,1-1.33-1.69c0-.35,0-.71,0-1.09A4.16,4.16,0,0,1,93,36.31a4,4,0,0,0,.54-1.47,1,1,0,0,1,.1-.39,4.28,4.28,0,0,0,.48-1.66.57.57,0,0,0,0-.16.85.85,0,0,1-.23-.82c0-.25.09-.52.14-.79l.12-.71c.29-1.63-.21-2.65-1.54-3.12-.13,0-.37-.1-.66-.18a17.72,17.72,0,0,1-2.74-.87,1.34,1.34,0,0,1-.73,1.13,2.37,2.37,0,0,0-1.56,3L87,31c0,.28.09.55.14.81a1,1,0,0,1-.24.86s0,.05,0,.13a4.28,4.28,0,0,0,.47,1.66,1,1,0,0,1,.1.39A3.71,3.71,0,0,0,88,36.25a4.18,4.18,0,0,1,.63,1.92c0,.39,0,.75,0,1.1A1.66,1.66,0,0,1,87.27,41l-.59.12A10.75,10.75,0,0,0,84.75,41.67ZM86.9,39h0Zm7.18,0h0Z"/><path class="cls-11" d="M102.5,45h-6a12.71,12.71,0,0,0-12,0h-6v5h24Z"/><path class="cls-6" d="M102.5,51h-24a1,1,0,0,1-1-1V45a1,1,0,0,1,1-1h5.71a13.89,13.89,0,0,1,12.57,0h5.72a1,1,0,0,1,1,1v5A1,1,0,0,1,102.5,51Zm-23-2h22V46h-5a1,1,0,0,1-.55-.17,11.75,11.75,0,0,0-10.88,0,1,1,0,0,1-.55.17h-5Z"/><path class="cls-6" d="M75.49,38h-9a1,1,0,0,1,0-2h9a1,1,0,0,1,0,2Z"/><circle class="cls-11" cx="110" cy="32" r="2.25"/><path class="cls-6" d="M110,35.25A3.25,3.25,0,1,1,113.25,32,3.25,3.25,0,0,1,110,35.25Zm0-4.5A1.25,1.25,0,1,0,111.25,32,1.25,1.25,0,0,0,110,30.75Z"/><path class="cls-6" d="M114.5,38h-9a1,1,0,0,1,0-2h9a1,1,0,0,1,0,2Z"/><circle class="cls-10" cx="61.01" cy="19" r="9"/><path class="cls-6" d="M61,29A10,10,0,1,1,71,19,10,10,0,0,1,61,29Zm0-18a8,8,0,1,0,8,8A8,8,0,0,0,61,11Z"/><circle class="cls-7" cx="61.01" cy="19" r="5"/><path class="cls-6" d="M61,25a6,6,0,1,1,6-6A6,6,0,0,1,61,25Zm0-10a4,4,0,1,0,4,4A4,4,0,0,0,61,15Z"/><circle class="cls-10" cx="73.01" cy="11" r="9"/><path class="cls-6" d="M73,21A10,10,0,1,1,83,11,10,10,0,0,1,73,21ZM73,3a8,8,0,1,0,8,8A8,8,0,0,0,73,3Z"/><circle class="cls-7" cx="73.01" cy="11" r="5"/><path class="cls-6" d="M73,17a6,6,0,1,1,6-6A6,6,0,0,1,73,17ZM73,7a4,4,0,1,0,4,4A4,4,0,0,0,73,7Z"/><circle class="cls-10" cx="109.01" cy="17" r="9"/><path class="cls-6" d="M109,27a10,10,0,1,1,10-10A10,10,0,0,1,109,27Zm0-18a8,8,0,1,0,8,8A8,8,0,0,0,109,9Z"/><circle class="cls-7" cx="109.01" cy="17" r="5"/><path class="cls-6" d="M109,23a6,6,0,1,1,6-6A6,6,0,0,1,109,23Zm0-10a4,4,0,1,0,4,4A4,4,0,0,0,109,13Z"/></g><rect class="cls-14" height="92" rx="4" ry="4" width="68" x="32" y="33"/><path class="cls-6" d="M96,126H36a5,5,0,0,1-5-5V37a5,5,0,0,1,5-5H96a5,5,0,0,1,5,5v84A5,5,0,0,1,96,126ZM36,34a3,3,0,0,0-3,3v84a3,3,0,0,0,3,3H96a3,3,0,0,0,3-3V37a3,3,0,0,0-3-3Z"/><rect class="cls-15" height="72" width="68" x="32" y="41"/><polygon class="cls-16" points="32 93 100 52.7 100 41 32 41 32 93"/><polygon class="cls-16" points="32 99 100.56 58.37 100 55.7 32 96 32 99"/><g class="cls-1"><path class="cls-17" d="M100,43H32V60.57A5.07,5.07,0,0,0,34,59a5,5,0,0,0,8,0,5,5,0,0,0,8,0,5,5,0,0,0,8,0,5,5,0,0,0,8,0,5,5,0,0,0,8,0,5,5,0,0,0,8,0,5,5,0,0,0,8,0,5,5,0,0,0,8,0,5.07,5.07,0,0,0,2,1.6Z"/></g><path class="cls-6" d="M100,114H32a1,1,0,0,1-1-1V41a1,1,0,0,1,1-1h68a1,1,0,0,1,1,1v72A1,1,0,0,1,100,114Zm-67-2H99V42H33Z"/><path class="cls-6" d="M69,38H63a1,1,0,0,1,0-2h6a1,1,0,0,1,0,2Z"/><path class="cls-6" d="M59,38a1,1,0,1,1,.71-.29A1.05,1.05,0,0,1,59,38Z"/><circle class="cls-18" cx="66" cy="119" r="3"/><path class="cls-6" d="M66,123a4,4,0,1,1,4-4A4,4,0,0,1,66,123Zm0-6a2,2,0,1,0,2,2A2,2,0,0,0,66,117Z"/><path class="cls-2" d="M30,57h0a4,4,0,0,1-4-4V51h8v2A4,4,0,0,1,30,57Z"/><path class="cls-6" d="M30,58a5,5,0,0,1-5-5V51a1,1,0,0,1,1-1h8a1,1,0,0,1,1,1v2A5,5,0,0,1,30,58Zm-3-6v1a3,3,0,0,0,6,0V52Z"/><path class="cls-5" d="M38,57h0a4,4,0,0,1-4-4V51h8v2A4,4,0,0,1,38,57Z"/><path class="cls-6" d="M38,58a5,5,0,0,1-5-5V51a1,1,0,0,1,1-1h8a1,1,0,0,1,1,1v2A5,5,0,0,1,38,58Zm-3-6v1a3,3,0,0,0,6,0V52Z"/><path class="cls-2" d="M46,57h0a4,4,0,0,1-4-4V51h8v2A4,4,0,0,1,46,57Z"/><path class="cls-6" d="M46,58a5,5,0,0,1-5-5V51a1,1,0,0,1,1-1h8a1,1,0,0,1,1,1v2A5,5,0,0,1,46,58Zm-3-6v1a3,3,0,0,0,6,0V52Z"/><path class="cls-5" d="M54,57h0a4,4,0,0,1-4-4V51h8v2A4,4,0,0,1,54,57Z"/><path class="cls-6" d="M54,58a5,5,0,0,1-5-5V51a1,1,0,0,1,1-1h8a1,1,0,0,1,1,1v2A5,5,0,0,1,54,58Zm-3-6v1a3,3,0,0,0,6,0V52Z"/><path class="cls-2" d="M62,57h0a4,4,0,0,1-4-4V51h8v2A4,4,0,0,1,62,57Z"/><path class="cls-6" d="M62,58a5,5,0,0,1-5-5V51a1,1,0,0,1,1-1h8a1,1,0,0,1,1,1v2A5,5,0,0,1,62,58Zm-3-6v1a3,3,0,0,0,6,0V52Z"/><polygon class="cls-2" points="34 51 26 51 32 41 38 41 34 51"/><path class="cls-6" d="M34,52H26a1,1,0,0,1-.86-1.51l6-10A1,1,0,0,1,32,40h6a1,1,0,0,1,.93,1.37l-4,10A1,1,0,0,1,34,52Zm-6.23-2h5.56l3.2-8h-4Z"/><polygon class="cls-5" points="42 51 34 51 38 41 45 41 42 51"/><path class="cls-6" d="M42,52H34a1,1,0,0,1-.93-1.37l4-10A1,1,0,0,1,38,40h7a1,1,0,0,1,1,1.29l-3,10A1,1,0,0,1,42,52Zm-6.52-2h5.78l2.4-8h-5Z"/><polygon class="cls-2" points="50 51 42 51 45 41 52 41 50 51"/><path class="cls-6" d="M50,52H42a1,1,0,0,1-1-1.29l3-10A1,1,0,0,1,45,40h7a1,1,0,0,1,1,1.2l-2,10A1,1,0,0,1,50,52Zm-6.66-2h5.84l1.6-8h-5Z"/><polygon class="cls-5" points="58 51 50 51 52 41 59 41 58 51"/><path class="cls-6" d="M58,52H50a1,1,0,0,1-1-1.2l2-10a1,1,0,0,1,1-.8h7a1,1,0,0,1,1,1.1l-1,10A1,1,0,0,1,58,52Zm-6.78-2h5.88l.8-8H52.82Z"/><polygon class="cls-2" points="66 51 58 51 59 41 66 41 66 51"/><path class="cls-6" d="M66,52H58a1,1,0,0,1-1-1.1l1-10a1,1,0,0,1,1-.9h7a1,1,0,0,1,1,1V51A1,1,0,0,1,66,52Zm-6.89-2H65V42H59.91Z"/><path class="cls-5" d="M102,57h0a4,4,0,0,0,4-4V51H98v2A4,4,0,0,0,102,57Z"/><path class="cls-6" d="M102,58a5,5,0,0,1-5-5V51a1,1,0,0,1,1-1h8a1,1,0,0,1,1,1v2A5,5,0,0,1,102,58Zm-3-6v1a3,3,0,0,0,6,0V52Z"/><path class="cls-2" d="M94,57h0a4,4,0,0,0,4-4V51H90v2A4,4,0,0,0,94,57Z"/><path class="cls-6" d="M94,58a5,5,0,0,1-5-5V51a1,1,0,0,1,1-1h8a1,1,0,0,1,1,1v2A5,5,0,0,1,94,58Zm-3-6v1a3,3,0,0,0,6,0V52Z"/><path class="cls-5" d="M86,57h0a4,4,0,0,0,4-4V51H82v2A4,4,0,0,0,86,57Z"/><path class="cls-6" d="M86,58a5,5,0,0,1-5-5V51a1,1,0,0,1,1-1h8a1,1,0,0,1,1,1v2A5,5,0,0,1,86,58Zm-3-6v1a3,3,0,0,0,6,0V52Z"/><path class="cls-2" d="M78,57h0a4,4,0,0,0,4-4V51H74v2A4,4,0,0,0,78,57Z"/><path class="cls-6" d="M78,58a5,5,0,0,1-5-5V51a1,1,0,0,1,1-1h8a1,1,0,0,1,1,1v2A5,5,0,0,1,78,58Zm-3-6v1a3,3,0,0,0,6,0V52Z"/><path class="cls-5" d="M70,57h0a4,4,0,0,0,4-4V51H66v2A4,4,0,0,0,70,57Z"/><path class="cls-6" d="M70,58a5,5,0,0,1-5-5V51a1,1,0,0,1,1-1h8a1,1,0,0,1,1,1v2A5,5,0,0,1,70,58Zm-3-6v1a3,3,0,0,0,6,0V52Z"/><polygon class="cls-5" points="98 51 106 51 100 41 94 41 98 51"/><path class="cls-6" d="M106,52H98a1,1,0,0,1-.93-.63l-4-10A1,1,0,0,1,94,40h6a1,1,0,0,1,.86.49l6,10A1,1,0,0,1,106,52Zm-7.32-2h5.56l-4.8-8h-4Z"/><polygon class="cls-2" points="90 51 98 51 94 41 87 41 90 51"/><path class="cls-6" d="M98,52H90a1,1,0,0,1-1-.71l-3-10A1,1,0,0,1,87,40h7a1,1,0,0,1,.93.63l4,10A1,1,0,0,1,98,52Zm-7.26-2h5.78l-3.2-8h-5Z"/><polygon class="cls-5" points="82 51 90 51 87 41 80 41 82 51"/><path class="cls-6" d="M90,52H82a1,1,0,0,1-1-.8l-2-10A1,1,0,0,1,80,40h7a1,1,0,0,1,1,.71l3,10A1,1,0,0,1,90,52Zm-7.18-2h5.84l-2.4-8h-5Z"/><polygon class="cls-2" points="74 51 82 51 80 41 73 41 74 51"/><path class="cls-6" d="M82,52H74a1,1,0,0,1-1-.9l-1-10A1,1,0,0,1,73,40h7a1,1,0,0,1,1,.8l2,10A1,1,0,0,1,82,52Zm-7.09-2h5.88l-1.6-8H74.11Z"/><polygon class="cls-5" points="66 51 74 51 73 41 66 41 66 51"/><path class="cls-6" d="M74,52H66a1,1,0,0,1-1-1V41a1,1,0,0,1,1-1h7a1,1,0,0,1,1,.9l1,10A1,1,0,0,1,74,52Zm-7-2h5.89l-.8-8H67Z"/><rect class="cls-19" height="33" rx="2" ry="2" width="48" x="73" y="70"/><path class="cls-6" d="M119,104H75a3,3,0,0,1-3-3V72a3,3,0,0,1,3-3h44a3,3,0,0,1,3,3v29A3,3,0,0,1,119,104ZM75,71a1,1,0,0,0-1,1v29a1,1,0,0,0,1,1h44a1,1,0,0,0,1-1V72a1,1,0,0,0-1-1Z"/><rect class="cls-5" height="6" width="36" x="79" y="89"/><path class="cls-6" d="M115,96H79a1,1,0,0,1-1-1V89a1,1,0,0,1,1-1h36a1,1,0,0,1,1,1v6A1,1,0,0,1,115,96ZM80,94h34V90H80Z"/><rect class="cls-14" height="7" width="48" x="73" y="76"/><path class="cls-6" d="M121,84H73a1,1,0,0,1-1-1V76a1,1,0,0,1,1-1h48a1,1,0,0,1,1,1v7A1,1,0,0,1,121,84ZM74,82h46V77H74Z"/><g class="cls-1"><path class="cls-6" d="M74,81a1,1,0,0,1-1-1,1,1,0,0,1,.29-.71A1,1,0,0,1,74.2,79l.18.06a.74.74,0,0,1,.18.09l.15.12A1.05,1.05,0,0,1,75,80a1,1,0,0,1-1,1Z"/><path class="cls-6" d="M76,79a1,1,0,0,1-.38-.08,1.15,1.15,0,0,1-.33-.21A1,1,0,0,1,75,78a.7.7,0,0,1,0-.2,1.37,1.37,0,0,1,0-.18,1.67,1.67,0,0,1,.1-.18,1.61,1.61,0,0,1,.12-.15A1,1,0,0,1,76.2,77l.18.06a.74.74,0,0,1,.18.09l.15.12A1,1,0,0,1,77,78a1,1,0,0,1-.29.71,1.16,1.16,0,0,1-.33.21A1,1,0,0,1,76,79Z"/><path class="cls-6" d="M78,81a1,1,0,0,1-.38-.08,1.15,1.15,0,0,1-.33-.21,1.16,1.16,0,0,1-.21-.33.94.94,0,0,1,0-.76,1.15,1.15,0,0,1,.21-.33,1,1,0,0,1,.33-.21,1,1,0,0,1,1.09.21,1.15,1.15,0,0,1,.21.33.94.94,0,0,1,0,.76.9.9,0,0,1-.54.54A1,1,0,0,1,78,81Z"/><path class="cls-6" d="M80,79a1,1,0,0,1-.71-.29,1.16,1.16,0,0,1-.21-.33.94.94,0,0,1,0-.76A1,1,0,0,1,80.2,77l.18.06a.74.74,0,0,1,.18.09l.15.12a1,1,0,0,1,.21.33.94.94,0,0,1,0,.76.9.9,0,0,1-.54.54A1,1,0,0,1,80,79Z"/><path class="cls-6" d="M82,81a1,1,0,0,1-.71-.3,1.25,1.25,0,0,1-.22-.32A1,1,0,0,1,81,80a.83.83,0,0,1,.08-.38,1.15,1.15,0,0,1,.21-.33l.15-.12a.74.74,0,0,1,.18-.09A.65.65,0,0,1,81.8,79a.87.87,0,0,1,.39,0,.62.62,0,0,1,.19.06.55.55,0,0,1,.17.09,1,1,0,0,1,.16.12,1,1,0,0,1,.21.33,1,1,0,0,1-.21,1.08,1,1,0,0,1-.33.22A.84.84,0,0,1,82,81Z"/><path class="cls-6" d="M84,79a1,1,0,0,1-.71-.29,1.5,1.5,0,0,1-.22-.33A1,1,0,0,1,83,78a1.26,1.26,0,0,1,0-.19.62.62,0,0,1,.06-.19.54.54,0,0,1,.09-.17.94.94,0,0,1,.12-.16l.15-.12a.74.74,0,0,1,.18-.09A.65.65,0,0,1,83.8,77a.87.87,0,0,1,.39,0,.62.62,0,0,1,.19.06.55.55,0,0,1,.17.09l.16.12.12.16a.56.56,0,0,1,.09.17.59.59,0,0,1,.06.19A1.15,1.15,0,0,1,85,78a.84.84,0,0,1-.08.38.9.9,0,0,1-.54.54A1,1,0,0,1,84,79Z"/><path class="cls-6" d="M86,81a1,1,0,0,1-.38-.08,1.15,1.15,0,0,1-.33-.21A1,1,0,0,1,85,80a1,1,0,0,1,.29-.71,1,1,0,0,1,.9-.27.62.62,0,0,1,.19.06.55.55,0,0,1,.17.09,1,1,0,0,1,.16.12A1.05,1.05,0,0,1,87,80a1,1,0,0,1-1,1Z"/><path class="cls-6" d="M88,79a1,1,0,0,1-.38-.08,1.15,1.15,0,0,1-.33-.21,1.16,1.16,0,0,1-.21-.33.94.94,0,0,1,0-.76,1,1,0,0,1,.21-.33l.15-.12a.74.74,0,0,1,.18-.09A.65.65,0,0,1,87.8,77a.87.87,0,0,1,.39,0,.62.62,0,0,1,.19.06.55.55,0,0,1,.17.09,1,1,0,0,1,.16.12,1,1,0,0,1,.21.33.94.94,0,0,1,0,.76.9.9,0,0,1-.54.54A1,1,0,0,1,88,79Z"/><path class="cls-6" d="M90,81a1,1,0,0,1-.38-.08,1.15,1.15,0,0,1-.33-.21,1.16,1.16,0,0,1-.21-.33.94.94,0,0,1,0-.76,1,1,0,0,1,.21-.33l.15-.12a.74.74,0,0,1,.18-.09A.65.65,0,0,1,89.8,79a.87.87,0,0,1,.39,0,.62.62,0,0,1,.19.06.55.55,0,0,1,.17.09,1,1,0,0,1,.16.12,1,1,0,0,1,.21.33.94.94,0,0,1,0,.76.9.9,0,0,1-.54.54A1,1,0,0,1,90,81Z"/><path class="cls-6" d="M92,79a1,1,0,0,1-.38-.08,1.15,1.15,0,0,1-.33-.21,1.5,1.5,0,0,1-.22-.33A1,1,0,0,1,91,78a.83.83,0,0,1,.08-.38.9.9,0,0,1,.54-.54.93.93,0,0,1,.57-.06.62.62,0,0,1,.19.06.55.55,0,0,1,.17.09,1,1,0,0,1,.16.12,1,1,0,0,1,.21.33.94.94,0,0,1,0,.76.9.9,0,0,1-.54.54A1,1,0,0,1,92,79Z"/><path class="cls-6" d="M94,81a1,1,0,0,1-.71-.29,1.5,1.5,0,0,1-.22-.33A1,1,0,0,1,93,80a.83.83,0,0,1,.08-.38.9.9,0,0,1,.54-.54.93.93,0,0,1,.57-.06.62.62,0,0,1,.19.06.55.55,0,0,1,.17.09,1,1,0,0,1,.16.12,1,1,0,0,1,.21.33A.84.84,0,0,1,95,80a1,1,0,0,1-.29.71,1.16,1.16,0,0,1-.33.21A1,1,0,0,1,94,81Z"/><path class="cls-6" d="M96,79a1,1,0,0,1-.71-.3,1.25,1.25,0,0,1-.22-.32A1,1,0,0,1,95,78a.83.83,0,0,1,.08-.38,1.15,1.15,0,0,1,.21-.33,1,1,0,0,1,1.09-.21.55.55,0,0,1,.17.09,1,1,0,0,1,.16.12,1,1,0,0,1,.21.33,1,1,0,0,1-.21,1.08,1,1,0,0,1-.33.22A1,1,0,0,1,96,79Z"/><path class="cls-6" d="M98,81a1,1,0,0,1-.38-.08,1.15,1.15,0,0,1-.33-.21,1.16,1.16,0,0,1-.21-.33A1,1,0,0,1,97,80a1,1,0,0,1,.29-.71l.15-.12a.74.74,0,0,1,.18-.09A.65.65,0,0,1,97.8,79a1,1,0,0,1,1.12.6.94.94,0,0,1,0,.76.9.9,0,0,1-.54.54A1,1,0,0,1,98,81Z"/><path class="cls-6" d="M100,79a1,1,0,0,1-.38-.08,1.15,1.15,0,0,1-.33-.21A1,1,0,0,1,99,78a1,1,0,0,1,.08-.38,1,1,0,0,1,.21-.33l.15-.12a.74.74,0,0,1,.18-.09A.65.65,0,0,1,99.8,77a1,1,0,0,1,1.12.6A.84.84,0,0,1,101,78a1,1,0,0,1-.29.71,1.16,1.16,0,0,1-.33.21A1,1,0,0,1,100,79Z"/><path class="cls-6" d="M102,81a1,1,0,0,1-.38-.08,1.15,1.15,0,0,1-.33-.21A1,1,0,0,1,101,80a1,1,0,0,1,1.71-.71,1,1,0,0,1,.21.33.94.94,0,0,1,0,.76.9.9,0,0,1-.54.54A1,1,0,0,1,102,81Z"/><path class="cls-6" d="M104,79a1,1,0,0,1-.38-.08,1,1,0,0,1-.33-.21,1.5,1.5,0,0,1-.22-.33A1,1,0,0,1,103,78a.83.83,0,0,1,.08-.38,1.15,1.15,0,0,1,.21-.33,1,1,0,0,1,1.41,0,1,1,0,0,1,.22,1.09,1,1,0,0,1-.22.33,1,1,0,0,1-.7.29Z"/><path class="cls-6" d="M106,81a1,1,0,0,1-.92-1.38,1,1,0,0,1,.21-.33,1,1,0,0,1,1.09-.21,1,1,0,0,1,.33.21A1.05,1.05,0,0,1,107,80a1,1,0,0,1-.29.71,1.46,1.46,0,0,1-.33.22A1,1,0,0,1,106,81Z"/><path class="cls-6" d="M108,79a1,1,0,0,1-.38-.08,1.15,1.15,0,0,1-.33-.21A1,1,0,0,1,107,78a1,1,0,0,1,.08-.38,1,1,0,0,1,.21-.33,1,1,0,0,1,1.42,0,1.15,1.15,0,0,1,.21.33A.84.84,0,0,1,109,78a1,1,0,0,1-1,1Z"/><path class="cls-6" d="M110,81a1,1,0,0,1-.38-.08,1.15,1.15,0,0,1-.33-.21A1,1,0,0,1,109,80a.83.83,0,0,1,.08-.38,1.15,1.15,0,0,1,.21-.33l.15-.12a.74.74,0,0,1,.18-.09.65.65,0,0,1,.18-.06.92.92,0,0,1,.4,0l.18.06a.74.74,0,0,1,.18.09l.15.12A1.05,1.05,0,0,1,111,80a1,1,0,0,1-.29.71,1.16,1.16,0,0,1-.33.21A1,1,0,0,1,110,81Z"/><path class="cls-6" d="M112,79a1,1,0,0,1-.38-.08,1.15,1.15,0,0,1-.33-.21A1,1,0,0,1,111,78a1,1,0,1,1,2,0,1,1,0,0,1-.29.71,1.16,1.16,0,0,1-.33.21A1,1,0,0,1,112,79Z"/><path class="cls-6" d="M114,81a1,1,0,0,1-1-1,.83.83,0,0,1,.08-.38,1.15,1.15,0,0,1,.21-.33l.15-.12a.74.74,0,0,1,.18-.09.65.65,0,0,1,.18-.06,1,1,0,0,1,.58.06.55.55,0,0,1,.17.09.63.63,0,0,1,.15.12.91.91,0,0,1,.22.33A.84.84,0,0,1,115,80a1,1,0,0,1-1,1Z"/><path class="cls-6" d="M116,79a1,1,0,0,1-.38-.08,1.15,1.15,0,0,1-.33-.21A1,1,0,0,1,115,78a1,1,0,0,1,.08-.38,1,1,0,0,1,.21-.33,1,1,0,0,1,.9-.27.62.62,0,0,1,.19.06.74.74,0,0,1,.18.09l.15.12A1.05,1.05,0,0,1,117,78a1,1,0,0,1-.08.38,1.16,1.16,0,0,1-.21.33A1,1,0,0,1,116,79Z"/><path class="cls-6" d="M118,81a1,1,0,0,1-.71-.3A1,1,0,0,1,117,80a1,1,0,0,1,.29-.71,1,1,0,0,1,1.09-.21.55.55,0,0,1,.17.09.63.63,0,0,1,.15.12.91.91,0,0,1,.22.33.59.59,0,0,1,.06.19,1.15,1.15,0,0,1,0,.19,1,1,0,0,1-1,1Z"/><path class="cls-6" d="M120,79a1,1,0,0,1-.71-.29,1.16,1.16,0,0,1-.21-.33.94.94,0,0,1,0-.76.93.93,0,0,1,.21-.33,1,1,0,0,1,1.63.33A1,1,0,0,1,120,79Z"/><path class="cls-6" d="M76,83a1,1,0,0,1-.38-.08,1.15,1.15,0,0,1-.33-.21,1.22,1.22,0,0,1-.22-.33A1,1,0,0,1,75,82a.63.63,0,0,1,0-.19,1.17,1.17,0,0,1,0-.19,1.67,1.67,0,0,1,.1-.18,1.61,1.61,0,0,1,.12-.15A1,1,0,0,1,76.2,81l.18.06a.74.74,0,0,1,.18.09l.15.12A1,1,0,0,1,77,82a1,1,0,0,1-.29.71,1.16,1.16,0,0,1-.33.21A1,1,0,0,1,76,83Z"/><path class="cls-6" d="M80,83a1,1,0,0,1-.71-.29,1.16,1.16,0,0,1-.21-.33.94.94,0,0,1,0-.76,1,1,0,0,1,.21-.33,1,1,0,0,1,1.42,0,1,1,0,0,1,.21.33.94.94,0,0,1,0,.76.9.9,0,0,1-.54.54A1,1,0,0,1,80,83Z"/><path class="cls-6" d="M84,83a1,1,0,0,1-.71-.29A1,1,0,0,1,83,82a.83.83,0,0,1,.08-.38,1.15,1.15,0,0,1,.21-.33l.15-.12a.74.74,0,0,1,.18-.09A.65.65,0,0,1,83.8,81a.87.87,0,0,1,.39,0,.62.62,0,0,1,.19.06.55.55,0,0,1,.17.09,1,1,0,0,1,.16.12,1.15,1.15,0,0,1,.21.33A.84.84,0,0,1,85,82a1,1,0,0,1-.29.71,1.16,1.16,0,0,1-.33.21A1,1,0,0,1,84,83Z"/><path class="cls-6" d="M88,83a1,1,0,0,1-.38-.08,1.15,1.15,0,0,1-.33-.21,1.16,1.16,0,0,1-.21-.33A1,1,0,0,1,87,82a1,1,0,0,1,.29-.71,1,1,0,0,1,.9-.27.62.62,0,0,1,.19.06.55.55,0,0,1,.17.09,1,1,0,0,1,.16.12A1.05,1.05,0,0,1,89,82a1,1,0,0,1-.08.38,1.16,1.16,0,0,1-.21.33A1,1,0,0,1,88,83Z"/><path class="cls-6" d="M92,83a1,1,0,0,1-.71-.29,1.5,1.5,0,0,1-.22-.33A1,1,0,0,1,91,82a.83.83,0,0,1,.08-.38.9.9,0,0,1,.54-.54.93.93,0,0,1,.57-.06.62.62,0,0,1,.19.06.55.55,0,0,1,.17.09,1,1,0,0,1,.16.12,1,1,0,0,1,.21.33.94.94,0,0,1,0,.76.9.9,0,0,1-.54.54A1,1,0,0,1,92,83Z"/><path class="cls-6" d="M96,83a1,1,0,0,1-.38-.08,1.15,1.15,0,0,1-.33-.21,1.5,1.5,0,0,1-.22-.33A1,1,0,0,1,95,82a.83.83,0,0,1,.08-.38,1.15,1.15,0,0,1,.21-.33,1,1,0,0,1,1.09-.21.55.55,0,0,1,.17.09,1,1,0,0,1,.16.12,1.15,1.15,0,0,1,.21.33.94.94,0,0,1,0,.76.9.9,0,0,1-.54.54A1,1,0,0,1,96,83Z"/><path class="cls-6" d="M100,83a1,1,0,0,1-.71-.3A1,1,0,0,1,99,82a1,1,0,0,1,.08-.38,1,1,0,0,1,.21-.33l.15-.12a.74.74,0,0,1,.18-.09A.65.65,0,0,1,99.8,81a1,1,0,0,1,1.12.6A.84.84,0,0,1,101,82a1,1,0,0,1-.29.7,1,1,0,0,1-.33.22A1,1,0,0,1,100,83Z"/><path class="cls-6" d="M104,83a1,1,0,0,1-.38-.08,1,1,0,0,1-.33-.21,1.5,1.5,0,0,1-.22-.33A1,1,0,0,1,103,82a.83.83,0,0,1,.08-.38,1.15,1.15,0,0,1,.21-.33,1,1,0,0,1,1.41,0,1,1,0,0,1,.22,1.09,1,1,0,0,1-.22.33,1,1,0,0,1-.7.29Z"/><path class="cls-6" d="M108,83a1,1,0,0,1-.71-.29,1.16,1.16,0,0,1-.21-.33.94.94,0,0,1,0-.76,1,1,0,0,1,.21-.33A1,1,0,0,1,109,82a.84.84,0,0,1-.08.38.9.9,0,0,1-.54.54A1,1,0,0,1,108,83Z"/><path class="cls-6" d="M112,83a1,1,0,0,1-.38-.07,1.44,1.44,0,0,1-.33-.22A1,1,0,0,1,111,82a1,1,0,0,1,.29-.71,1,1,0,0,1,.9-.27.62.62,0,0,1,.19.06.74.74,0,0,1,.18.09l.15.12A1.05,1.05,0,0,1,113,82a1,1,0,0,1-.29.71,1.46,1.46,0,0,1-.33.22A1,1,0,0,1,112,83Z"/><path class="cls-6" d="M116,83a1,1,0,0,1-.92-1.38,1,1,0,0,1,.21-.33,1,1,0,0,1,1.42,0,1,1,0,0,1,.21.33A1,1,0,0,1,116,83Z"/><path class="cls-6" d="M120,83a1,1,0,0,1-.71-.29,1.16,1.16,0,0,1-.21-.33.94.94,0,0,1,0-.76,1,1,0,0,1,1.63-.33,1.15,1.15,0,0,1,.21.33A1,1,0,0,1,120,83Z"/></g></svg>