<?xml version="1.0" ?><svg data-name="003" id="_003" viewBox="0 0 128 128" xmlns="http://www.w3.org/2000/svg"><defs><style>.cls-1{opacity:0.3;}.cls-2{fill:#c9c1f5;}.cls-3{fill:#89dbba;}.cls-4{fill:#48bc33;}.cls-5{fill:#6d6daa;}.cls-6{fill:#b1f1a8;}.cls-7{fill:#ffc661;}.cls-8{fill:#fff27d;}.cls-9{fill:#96d7ff;}.cls-10{fill:#fff;}.cls-11{fill:#ced8ee;}.cls-12{fill:#eef6ff;}.cls-13{fill:#939fc6;}.cls-14{fill:#97c1ff;}.cls-15{fill:#7690a8;}.cls-16{opacity:0.5;}.cls-17{fill:#ff9797;}.cls-18{fill:#fff9e0;}</style></defs><title/><g class="cls-1"><path class="cls-2" d="M125.7,50.65a30,30,0,0,0-23.51-25,19.69,19.69,0,0,1-10.93-6.55A37,37,0,0,0,27,34.43,21,21,0,0,1,16.12,48.1C2,55.46-5.14,74.56,7.77,92.48a16.6,16.6,0,0,0,6.35,4.91,20.58,20.58,0,0,1,10,10.88,28.49,28.49,0,0,0,42.62,12.64A20.06,20.06,0,0,1,83.39,118a29,29,0,0,0,36-33.79A20.08,20.08,0,0,1,121.94,70,29.83,29.83,0,0,0,125.7,50.65Z"/><rect class="cls-3" height="92" transform="translate(5.89 81) rotate(-80.25)" width="48" x="27" y="-9"/><g class="cls-1"><rect class="cls-4" height="92" transform="translate(-7.45 88.82) rotate(-80.25)" width="24" x="36.97" y="2.83"/></g><path class="cls-5" d="M92.27,69.45H92.1L1.43,53.85a1,1,0,0,1-.82-1.15L8.75,5.39A1,1,0,0,1,9.9,4.57l90.67,15.59a1,1,0,0,1,.82,1.15l-8.13,47.3A1,1,0,0,1,92.27,69.45ZM2.75,52l88.7,15.25L99.24,22,10.55,6.71Z"/><path class="cls-6" d="M88.39,55.6a6,6,0,0,0-6.93,4.9L14.44,49a6,6,0,0,0-4.9-6.93L13.61,18.4a6,6,0,0,0,6.93-4.9L87.56,25A6,6,0,0,0,92.45,32Z"/><g class="cls-1"><path class="cls-4" d="M11.57,30.25l-2,11.8A6,6,0,0,1,14.44,49l67,11.52a6,6,0,0,1,6.93-4.9l2-11.8Z"/></g><path class="cls-5" d="M81.46,61.5h-.17L14.27,50a1,1,0,0,1-.82-1.15A5,5,0,0,0,9.38,43a1,1,0,0,1-.82-1.15l4.07-23.65a1,1,0,0,1,1.15-.82,5,5,0,0,0,5.78-4.08,1,1,0,0,1,1.15-.82L87.72,24a1,1,0,0,1,.82,1.15A5,5,0,0,0,92.62,31a1,1,0,0,1,.82,1.15L89.37,55.77a1,1,0,0,1-1.16.82,5,5,0,0,0-5.77,4.08A1,1,0,0,1,81.46,61.5ZM15.53,48.15l65.18,11.2a7,7,0,0,1,6.85-4.84L91.31,32.7a7,7,0,0,1-4.84-6.85L21.29,14.65a7,7,0,0,1-6.85,4.84L10.69,41.3A7,7,0,0,1,15.53,48.15Z"/><ellipse class="cls-3" cx="50.66" cy="38.97" rx="16" ry="12.8" transform="translate(3.67 82.3) rotate(-80.25)"/><path class="cls-5" d="M49.7,55.89a11.27,11.27,0,0,1-1.92-.16c-7.5-1.29-12.31-9.85-10.72-19.09A19.1,19.1,0,0,1,43,25.54a12.08,12.08,0,0,1,19.38,3.33,19.11,19.11,0,0,1,1.89,12.44C62.81,49.76,56.5,55.89,49.7,55.89Zm1.91-31.84a11,11,0,0,0-7.28,3A17.1,17.1,0,0,0,39,37c-1.4,8.15,2.68,15.68,9.09,16.78S60.89,49.12,62.29,41h0a17.1,17.1,0,0,0-1.67-11.13,10.61,10.61,0,0,0-7.42-5.65A9.45,9.45,0,0,0,51.61,24.05Z"/><circle class="cls-3" cx="25.38" cy="32.6" r="3" transform="translate(-11.05 52.08) rotate(-80.25)"/><path class="cls-5" d="M25.38,36.6a4,4,0,1,1,3.94-3.32h0A4,4,0,0,1,25.38,36.6Zm0-6a2,2,0,1,0,2,2.34h0a2,2,0,0,0-1.63-2.31Zm3,2.51h0Z"/><circle class="cls-5" cx="14.63" cy="12.48" r="1" transform="translate(-0.15 24.78) rotate(-80.25)"/><path class="cls-5" d="M14.63,14.48a2,2,0,0,1-2-2.34,2,2,0,0,1,3.6-.81,2,2,0,0,1-1.63,3.15Zm0-2Zm0,0Z"/><circle class="cls-5" cx="8.53" cy="47.97" r="1" transform="matrix(0.17, -0.99, 0.99, 0.17, -40.19, 48.24)"/><path class="cls-5" d="M8.53,50l-.34,0a2,2,0,1,1,2.31-1.63h0A2,2,0,0,1,8.53,50Z"/><circle class="cls-5" cx="93.48" cy="26.04" r="1" transform="translate(51.98 113.75) rotate(-80.25)"/><path class="cls-5" d="M93.48,28l-.34,0a2,2,0,0,1-1.63-2.31,2,2,0,0,1,3.94.68A2,2,0,0,1,93.48,28Zm0-2Zm0,0Z"/><circle class="cls-5" cx="87.38" cy="61.52" r="1" transform="translate(11.94 137.21) rotate(-80.25)"/><path class="cls-5" d="M87.38,63.52a2,2,0,1,1,2-1.66h0a2,2,0,0,1-2,1.66Zm1-1.83h0Z"/><path class="cls-6" d="M54.36,48.55l-.69-.28a.87.87,0,0,1-.57-1c.1-.47.19-1,.28-1.49.21-1.2,1.9-2.39,2.26-4.06a6.88,6.88,0,0,0,1.23-2.62A1.44,1.44,0,0,0,56.71,38c.23-.61.44-1.25.68-1.91,1-2.66.35-4.8-1.91-6.07-.82-.46-4.32-1.7-5.44-3.24-.41-.55-.53,2.16-1,2.28-2.54.66-3.76,2.15-3.74,4.95,0,.7,0,1.38,0,2a1.44,1.44,0,0,0-.52,1,6.88,6.88,0,0,0,.28,2.88c-.21,1.7,1,3.3.78,4.59-.09.52-.18,1-.24,1.5a.87.87,0,0,1-.87.76l-.83,0a14.65,14.65,0,0,0-4.57.83,12.23,12.23,0,0,0,7.33,6.85,11.29,11.29,0,0,0,1.28.31H48a11.29,11.29,0,0,0,1.23.13,12.24,12.24,0,0,0,9.22-4A13.88,13.88,0,0,0,54.36,48.55Z"/><path class="cls-5" d="M49.71,55.89h-.48a12.46,12.46,0,0,1-1.35-.14h-.1a12.38,12.38,0,0,1-1.42-.34,13.17,13.17,0,0,1-8-7.39A1,1,0,0,1,39,46.64a15.78,15.78,0,0,1,4.88-.89l.75,0c.06-.46.14-.94.23-1.43a4.06,4.06,0,0,0-.32-1.56A7.22,7.22,0,0,1,44,40a7.65,7.65,0,0,1-.25-3.14,2.74,2.74,0,0,1,.5-1.23c0-.23,0-.47,0-.7s0-.6,0-.91c0-3.06,1.32-5,4.11-5.82.06-.2.12-.48.16-.67.2-.88.37-1.64,1.14-1.8a1.11,1.11,0,0,1,1.13.46c.7,1,2.91,1.94,4.09,2.47.45.2.82.37,1,.48,2.65,1.48,3.51,4.14,2.36,7.28l-.31.87-.23.65a2.73,2.73,0,0,1,.06,1.33,7.65,7.65,0,0,1-1.29,2.87,7.51,7.51,0,0,1-1.41,2.51,4.26,4.26,0,0,0-.79,1.3c-.08.49-.17,1-.26,1.43l.62.25a15,15,0,0,1,4.41,2.46,1,1,0,0,1,.08,1.47A13.3,13.3,0,0,1,49.71,55.89Zm-1.77-1.15-.26,1Zm.16-1h.11a10.39,10.39,0,0,0,1.12.12,10.91,10.91,0,0,0,7.62-2.94A13.65,13.65,0,0,0,54,49.49l0,0-.69-.28A1.87,1.87,0,0,1,52.13,47c.1-.45.18-.94.27-1.45a5.32,5.32,0,0,1,1.17-2.17,5.51,5.51,0,0,0,1.11-1.94,1,1,0,0,1,.16-.36,6,6,0,0,0,1.06-2.21.73.73,0,0,0,0-.37,1,1,0,0,1-.12-.92c.12-.33.24-.67.36-1l.32-.89c.82-2.26.34-3.84-1.46-4.86-.17-.1-.48-.23-.86-.4a20.45,20.45,0,0,1-3.73-2c-.19.76-.44,1.36-1.11,1.54-2.17.56-3,1.67-3,4,0,.32,0,.63,0,.94s0,.73,0,1.09a1,1,0,0,1-.42.83.74.74,0,0,0-.12.35A5.94,5.94,0,0,0,46,39.61a1,1,0,0,1,0,.4,5.25,5.25,0,0,0,.39,2.12,5.32,5.32,0,0,1,.38,2.51c-.09.51-.17,1-.23,1.46a1.88,1.88,0,0,1-1.86,1.63l-.81,0a14.44,14.44,0,0,0-3.17.44,10.87,10.87,0,0,0,6.19,5.29A10.31,10.31,0,0,0,48.1,53.75ZM54,47.32h0Zm-9.32-1.6h0Zm4.54-18.39h0Z"/><path class="cls-3" d="M64.05,55.48l-7.89-1.36a14.93,14.93,0,0,0-7.54-3.33,14.93,14.93,0,0,0-8.21.62l-7.89-1.36-1.35,7.88L62.7,63.36Z"/><path class="cls-5" d="M62.7,64.36h-.17L31,58.93a1,1,0,0,1-.82-1.15l1.35-7.88a1,1,0,0,1,1.15-.82l7.6,1.31a16.22,16.22,0,0,1,8.5-.57,16.24,16.24,0,0,1,7.82,3.38l7.6,1.31A1,1,0,0,1,65,55.65l-1.35,7.88A1,1,0,0,1,62.7,64.36ZM32.32,57.13l29.56,5.08,1-5.91L56,55.11a1,1,0,0,1-.52-.26,14.1,14.1,0,0,0-7-3.07,14.08,14.08,0,0,0-7.64.55,1,1,0,0,1-.57.07l-6.9-1.19Z"/><line class="cls-3" x1="30.1" x2="18.28" y1="40.51" y2="38.48"/><path class="cls-5" d="M30.1,41.51h-.17l-11.82-2a1,1,0,1,1,.34-2l11.82,2a1,1,0,0,1-.17,2Z"/><circle class="cls-3" cx="76.63" cy="41.41" r="3" transform="translate(22.84 109.91) rotate(-80.25)"/><path class="cls-5" d="M76.64,45.41a4,4,0,1,1,.67-7.94,4,4,0,0,1,3.26,4.62h0a4,4,0,0,1-3.93,3.32Zm0-6a2,2,0,1,0,2,2.34h0A2,2,0,0,0,77,39.44Z"/><line class="cls-3" x1="81.35" x2="69.53" y1="49.32" y2="47.29"/><path class="cls-5" d="M81.35,50.32h-.17l-11.82-2a1,1,0,1,1,.34-2l11.82,2a1,1,0,0,1-.17,2Z"/><line class="cls-3" x1="59.43" x2="35.79" y1="58.74" y2="54.68"/><path class="cls-5" d="M59.43,59.74h-.17L35.62,55.66a1,1,0,1,1,.34-2L59.6,57.76a1,1,0,0,1-.17,2Z"/><rect class="cls-3" height="48" width="92" x="5" y="13"/><g class="cls-1"><rect class="cls-4" height="24" width="92" x="5" y="37"/></g><path class="cls-5" d="M97,62H5a1,1,0,0,1-1-1V13a1,1,0,0,1,1-1H97a1,1,0,0,1,1,1V61A1,1,0,0,1,97,62ZM6,60H96V14H6Z"/><path class="cls-6" d="M91,49a6,6,0,0,0-6,6H17a6,6,0,0,0-6-6V25a6,6,0,0,0,6-6H85a6,6,0,0,0,6,6Z"/><g class="cls-1"><path class="cls-4" d="M11,37V49a6,6,0,0,1,6,6H85a6,6,0,0,1,6-6V37Z"/></g><path class="cls-5" d="M85,56H17a1,1,0,0,1-1-1,5,5,0,0,0-5-5,1,1,0,0,1-1-1V25a1,1,0,0,1,1-1,5,5,0,0,0,5-5,1,1,0,0,1,1-1H85a1,1,0,0,1,1,1,5,5,0,0,0,5,5,1,1,0,0,1,1,1V49a1,1,0,0,1-1,1,5,5,0,0,0-5,5A1,1,0,0,1,85,56ZM17.93,54H84.07A7,7,0,0,1,90,48.07V25.93A7,7,0,0,1,84.07,20H17.93A7,7,0,0,1,12,25.93V48.07A7,7,0,0,1,17.93,54Z"/><ellipse class="cls-3" cx="51" cy="39" rx="12.8" ry="16"/><path class="cls-5" d="M51,56c-7.61,0-13.8-7.63-13.8-17S43.39,22,51,22s13.8,7.63,13.8,17S58.61,56,51,56Zm0-32c-6.51,0-11.8,6.73-11.8,15S44.49,54,51,54s11.8-6.73,11.8-15S57.51,24,51,24Z"/><circle class="cls-3" cx="25" cy="37" r="3"/><path class="cls-5" d="M25,41a4,4,0,1,1,4-4A4,4,0,0,1,25,41Zm0-6a2,2,0,1,0,2,2A2,2,0,0,0,25,35Z"/><circle class="cls-5" cx="11" cy="19" r="1"/><path class="cls-5" d="M11,21a2,2,0,1,1,2-2A2,2,0,0,1,11,21Zm0-2h0Zm0,0h0Zm0,0h0Zm0,0h0Zm0,0h0Zm0,0h0Zm0,0h0Zm0,0h0Z"/><circle class="cls-5" cx="11" cy="55" r="1"/><path class="cls-5" d="M11,57a2,2,0,1,1,2-2A2,2,0,0,1,11,57Zm0-2h0Zm0,0h0Zm0,0h0Zm0,0h0Zm0,0h0Zm0,0h0Zm0,0h0Zm0,0h0Z"/><circle class="cls-5" cx="91.01" cy="19" r="1"/><path class="cls-5" d="M91,21a2,2,0,1,1,2-2A2,2,0,0,1,91,21Zm0-2h0Z"/><circle class="cls-5" cx="91.01" cy="55" r="1"/><path class="cls-5" d="M91,57a2,2,0,1,1,2-2A2,2,0,0,1,91,57Zm0-2h0Z"/><path class="cls-6" d="M56.27,47.81l-.73-.16a.87.87,0,0,1-.73-.89c0-.48,0-1,0-1.52,0-1.22,1.46-2.68,1.54-4.39a6.88,6.88,0,0,0,.77-2.79A1.44,1.44,0,0,0,56.79,37c.12-.64.22-1.31.35-2,.5-2.78-.47-4.79-2.92-5.66-.88-.31-4.54-.95-5.91-2.27-.49-.48-.16,2.21-.6,2.42-2.4,1.08-3.35,2.75-2.85,5.51.12.69.23,1.37.35,2a1.44,1.44,0,0,0-.35,1.07,6.88,6.88,0,0,0,.77,2.79c.08,1.71,1.54,3.09,1.54,4.39,0,.53,0,1,0,1.52a.87.87,0,0,1-.73.89l-.81.16a14.65,14.65,0,0,0-4.36,1.6,12.23,12.23,0,0,0,8.38,5.51A11.29,11.29,0,0,0,51,55h.12a11.29,11.29,0,0,0,1.24-.08,12.24,12.24,0,0,0,8.4-5.54A13.88,13.88,0,0,0,56.27,47.81Z"/><path class="cls-5" d="M51,56a12.62,12.62,0,0,1-1.45-.09A13.18,13.18,0,0,1,40.46,50a1,1,0,0,1,.33-1.44,15.77,15.77,0,0,1,4.66-1.71l.74-.15c0-.46,0-.95,0-1.45a4.05,4.05,0,0,0-.58-1.48,7.21,7.21,0,0,1-.95-2.65,7.62,7.62,0,0,1-.78-3.05,2.74,2.74,0,0,1,.29-1.3L44,36.09c-.05-.3-.1-.61-.16-.93-.54-3,.46-5.12,3.07-6.43,0-.21,0-.49,0-.69,0-.9.08-1.68.82-2a1.12,1.12,0,0,1,1.19.26c.86.83,3.2,1.42,4.46,1.74.48.12.87.22,1.09.3,2.86,1,4.16,3.49,3.56,6.78-.05.3-.1.6-.15.9l-.12.69a2.74,2.74,0,0,1,.29,1.3,7.62,7.62,0,0,1-.78,3.05,7.49,7.49,0,0,1-1,2.71,4.24,4.24,0,0,0-.56,1.42c0,.5,0,1,0,1.45l.65.14a15,15,0,0,1,4.76,1.68,1,1,0,0,1,.33,1.43,13.18,13.18,0,0,1-9.1,6A12.1,12.1,0,0,1,51.1,56Zm-8.2-6.24a10.88,10.88,0,0,0,7,4.16A10.31,10.31,0,0,0,51,54h.1a10.17,10.17,0,0,0,1.13-.07,10.87,10.87,0,0,0,7-4.19,13.65,13.65,0,0,0-3.13-.94h0l-.73-.16a1.87,1.87,0,0,1-1.51-1.91c0-.47,0-1,0-1.47a5.3,5.3,0,0,1,.78-2.34,5.53,5.53,0,0,0,.76-2.1,1,1,0,0,1,.1-.39,5.93,5.93,0,0,0,.67-2.36.8.8,0,0,0-.05-.36,1,1,0,0,1-.27-.89c.06-.35.12-.71.19-1.07s.1-.61.16-.92c.42-2.36-.32-3.85-2.27-4.54-.19-.07-.51-.15-.91-.25a20.6,20.6,0,0,1-4-1.33c-.06.78-.21,1.42-.84,1.7-2,.92-2.68,2.16-2.27,4.42.06.32.11.64.16,1s.12.7.18,1a1,1,0,0,1-.27.89.73.73,0,0,0-.06.36,5.93,5.93,0,0,0,.67,2.36,1,1,0,0,1,.1.39,5.22,5.22,0,0,0,.74,2,5.33,5.33,0,0,1,.8,2.41c0,.52,0,1,0,1.48a1.88,1.88,0,0,1-1.56,1.92l-.79.16A14.4,14.4,0,0,0,42.8,49.76Zm3.47-3.09h0Zm9.45,0h0ZM47.3,28.56h0Z"/><path class="cls-3" d="M67,53H59a14.93,14.93,0,0,0-8-2,14.93,14.93,0,0,0-8,2H35v8H67Z"/><path class="cls-5" d="M67,62H35a1,1,0,0,1-1-1V53a1,1,0,0,1,1-1h7.71A16.24,16.24,0,0,1,51,50a16.24,16.24,0,0,1,8.28,2H67a1,1,0,0,1,1,1v8A1,1,0,0,1,67,62ZM36,60H66V54H59a1,1,0,0,1-.55-.17A14.09,14.09,0,0,0,51,52a14.09,14.09,0,0,0-7.44,1.84A1,1,0,0,1,43,54H36Z"/><path class="cls-5" d="M31,45H19a1,1,0,1,1,0-2H31a1,1,0,0,1,0,2Z"/><circle class="cls-3" cx="77.01" cy="37" r="3"/><path class="cls-5" d="M77,41a4,4,0,1,1,4-4A4,4,0,0,1,77,41Zm0-6a2,2,0,1,0,2,2A2,2,0,0,0,77,35Z"/><path class="cls-5" d="M83,45H71a1,1,0,0,1,0-2H83a1,1,0,0,1,0,2Z"/><path class="cls-5" d="M63,58H39a1,1,0,0,1,0-2H63a1,1,0,0,1,0,2Z"/><rect class="cls-3" height="48" width="92" x="9" y="17"/><g class="cls-1"><rect class="cls-4" height="24" width="92" x="9" y="41"/></g><path class="cls-5" d="M101,66H9a1,1,0,0,1-1-1V17a1,1,0,0,1,1-1h92a1,1,0,0,1,1,1V65A1,1,0,0,1,101,66ZM10,64h90V18H10Z"/><path class="cls-6" d="M95,53a6,6,0,0,0-6,6H21a6,6,0,0,0-6-6V29a6,6,0,0,0,6-6H89a6,6,0,0,0,6,6Z"/><g class="cls-1"><path class="cls-4" d="M15,41V53a6,6,0,0,1,6,6H89a6,6,0,0,1,6-6V41Z"/></g><path class="cls-5" d="M89,60H21a1,1,0,0,1-1-1,5,5,0,0,0-5-5,1,1,0,0,1-1-1V29a1,1,0,0,1,1-1,5,5,0,0,0,5-5,1,1,0,0,1,1-1H89a1,1,0,0,1,1,1,5,5,0,0,0,5,5,1,1,0,0,1,1,1V53a1,1,0,0,1-1,1,5,5,0,0,0-5,5A1,1,0,0,1,89,60ZM21.93,58H88.07A7,7,0,0,1,94,52.07V29.93A7,7,0,0,1,88.07,24H21.93A7,7,0,0,1,16,29.93V52.07A7,7,0,0,1,21.93,58Z"/><ellipse class="cls-3" cx="55" cy="43" rx="12.8" ry="16"/><path class="cls-5" d="M55,60c-7.61,0-13.8-7.63-13.8-17S47.39,26,55,26s13.8,7.63,13.8,17S62.61,60,55,60Zm0-32c-6.51,0-11.8,6.73-11.8,15S48.49,58,55,58s11.8-6.73,11.8-15S61.51,28,55,28Z"/><circle class="cls-3" cx="29" cy="41" r="3"/><path class="cls-5" d="M29,45a4,4,0,1,1,4-4A4,4,0,0,1,29,45Zm0-6a2,2,0,1,0,2,2A2,2,0,0,0,29,39Z"/><circle class="cls-5" cx="15" cy="23" r="1"/><path class="cls-5" d="M15,25a2,2,0,1,1,2-2A2,2,0,0,1,15,25Zm0-2h0Zm0,0h0Zm0,0h0Zm0,0h0Zm0,0h0Zm0,0h0Zm0,0h0Zm0,0h0Z"/><circle class="cls-5" cx="15" cy="59" r="1"/><path class="cls-5" d="M15,61a2,2,0,1,1,2-2A2,2,0,0,1,15,61Zm0-2h0Zm0,0h0Zm0,0h0Zm0,0h0Zm0,0h0Zm0,0h0Zm0,0h0Zm0,0h0Z"/><circle class="cls-5" cx="95.01" cy="23" r="1"/><path class="cls-5" d="M95,25a2,2,0,1,1,2-2A2,2,0,0,1,95,25Zm0-2h0Z"/><circle class="cls-5" cx="95.01" cy="59" r="1"/><path class="cls-5" d="M95,61a2,2,0,1,1,2-2A2,2,0,0,1,95,61Zm0-2h0Z"/><path class="cls-6" d="M60.27,51.81l-.73-.16a.87.87,0,0,1-.73-.89c0-.48,0-1,0-1.52,0-1.22,1.46-2.68,1.54-4.39a6.88,6.88,0,0,0,.77-2.79A1.44,1.44,0,0,0,60.79,41c.12-.64.22-1.31.35-2,.5-2.78-.47-4.79-2.92-5.66-.88-.31-4.54-.95-5.91-2.27-.49-.48-.16,2.21-.6,2.42-2.4,1.08-3.35,2.75-2.85,5.51.12.69.23,1.37.35,2a1.44,1.44,0,0,0-.35,1.07,6.88,6.88,0,0,0,.77,2.79c.08,1.71,1.54,3.09,1.54,4.39,0,.53,0,1,0,1.52a.87.87,0,0,1-.73.89l-.81.16a14.65,14.65,0,0,0-4.36,1.6,12.23,12.23,0,0,0,8.38,5.51A11.29,11.29,0,0,0,55,59h.12a11.29,11.29,0,0,0,1.24-.08,12.24,12.24,0,0,0,8.4-5.54A13.88,13.88,0,0,0,60.27,51.81Z"/><path class="cls-5" d="M55,60a12.62,12.62,0,0,1-1.45-.09A13.18,13.18,0,0,1,44.46,54a1,1,0,0,1,.33-1.44,15.77,15.77,0,0,1,4.66-1.71l.74-.15c0-.46,0-.95,0-1.45a4.05,4.05,0,0,0-.58-1.48,7.21,7.21,0,0,1-.95-2.65,7.62,7.62,0,0,1-.78-3.05,2.74,2.74,0,0,1,.29-1.3L48,40.09c-.05-.3-.1-.61-.16-.93-.54-3,.46-5.12,3.07-6.43,0-.21,0-.49,0-.69,0-.9.08-1.68.82-2a1.11,1.11,0,0,1,1.19.26c.86.83,3.2,1.42,4.46,1.74.48.12.87.22,1.09.3,2.86,1,4.16,3.49,3.56,6.78-.05.3-.1.6-.15.9l-.12.69a2.74,2.74,0,0,1,.29,1.3,7.62,7.62,0,0,1-.78,3.05,7.49,7.49,0,0,1-1,2.71,4.24,4.24,0,0,0-.56,1.42c0,.5,0,1,0,1.45l.65.14a15,15,0,0,1,4.76,1.68,1,1,0,0,1,.33,1.43,13.18,13.18,0,0,1-9.1,6A12.1,12.1,0,0,1,55.1,60Zm-8.2-6.24a10.88,10.88,0,0,0,7,4.16A10.31,10.31,0,0,0,55,58h.1a10.17,10.17,0,0,0,1.13-.07,10.87,10.87,0,0,0,7-4.19,13.65,13.65,0,0,0-3.13-.94h0l-.73-.16a1.87,1.87,0,0,1-1.51-1.91c0-.47,0-1,0-1.47a5.3,5.3,0,0,1,.78-2.34,5.53,5.53,0,0,0,.76-2.1,1,1,0,0,1,.1-.39,5.93,5.93,0,0,0,.67-2.36.8.8,0,0,0-.05-.36,1,1,0,0,1-.27-.89c.06-.35.12-.71.19-1.07s.1-.61.16-.92c.42-2.36-.32-3.85-2.27-4.54-.19-.07-.51-.15-.91-.25a20.6,20.6,0,0,1-4-1.33c-.06.78-.21,1.42-.84,1.7-2,.92-2.68,2.16-2.27,4.42.06.32.11.64.16,1s.12.7.18,1a1,1,0,0,1-.27.89.73.73,0,0,0-.06.36,5.93,5.93,0,0,0,.67,2.36,1,1,0,0,1,.1.39,5.22,5.22,0,0,0,.74,2,5.33,5.33,0,0,1,.8,2.41c0,.52,0,1,0,1.48a1.88,1.88,0,0,1-1.56,1.92l-.79.16A14.4,14.4,0,0,0,46.8,53.76Zm3.47-3.09h0Zm9.45,0h0ZM51.3,32.56h0Z"/><path class="cls-3" d="M71,57H63a14.93,14.93,0,0,0-8-2,14.93,14.93,0,0,0-8,2H39v8H71Z"/><path class="cls-5" d="M71,66H39a1,1,0,0,1-1-1V57a1,1,0,0,1,1-1h7.71A16.24,16.24,0,0,1,55,54a16.24,16.24,0,0,1,8.28,2H71a1,1,0,0,1,1,1v8A1,1,0,0,1,71,66ZM40,64H70V58H63a1,1,0,0,1-.55-.17A14.09,14.09,0,0,0,55,56a14.09,14.09,0,0,0-7.44,1.84A1,1,0,0,1,47,58H40Z"/><path class="cls-5" d="M35,49H23a1,1,0,1,1,0-2H35a1,1,0,0,1,0,2Z"/><circle class="cls-3" cx="81.01" cy="41" r="3"/><path class="cls-5" d="M81,45a4,4,0,1,1,4-4A4,4,0,0,1,81,45Zm0-6a2,2,0,1,0,2,2A2,2,0,0,0,81,39Z"/><path class="cls-5" d="M87,49H75a1,1,0,0,1,0-2H87a1,1,0,0,1,0,2Z"/><path class="cls-5" d="M67,62H43a1,1,0,0,1,0-2H67a1,1,0,0,1,0,2Z"/><circle class="cls-7" cx="11.01" cy="98" r="9"/><path class="cls-5" d="M11,108A10,10,0,1,1,21,98,10,10,0,0,1,11,108Zm0-18a8,8,0,1,0,8,8A8,8,0,0,0,11,90Z"/><circle class="cls-8" cx="11.01" cy="98" r="5"/><path class="cls-5" d="M11,104a6,6,0,1,1,6-6A6,6,0,0,1,11,104Zm0-10a4,4,0,1,0,4,4A4,4,0,0,0,11,94Z"/><circle class="cls-7" cx="23.01" cy="78" r="9"/><path class="cls-5" d="M23,88A10,10,0,1,1,33,78,10,10,0,0,1,23,88Zm0-18a8,8,0,1,0,8,8A8,8,0,0,0,23,70Z"/><circle class="cls-8" cx="23.01" cy="78" r="5"/><path class="cls-5" d="M23,84a6,6,0,1,1,6-6A6,6,0,0,1,23,84Zm0-10a4,4,0,1,0,4,4A4,4,0,0,0,23,74Z"/><circle class="cls-7" cx="93.01" cy="54" r="9"/><path class="cls-5" d="M93,64a10,10,0,1,1,10-10A10,10,0,0,1,93,64Zm0-18a8,8,0,1,0,8,8A8,8,0,0,0,93,46Z"/><circle class="cls-8" cx="93.01" cy="54" r="5"/><path class="cls-5" d="M93,60a6,6,0,1,1,6-6A6,6,0,0,1,93,60Zm0-10a4,4,0,1,0,4,4A4,4,0,0,0,93,50Z"/><circle class="cls-7" cx="101.01" cy="62" r="9"/><path class="cls-5" d="M101,72a10,10,0,1,1,10-10A10,10,0,0,1,101,72Zm0-18a8,8,0,1,0,8,8A8,8,0,0,0,101,54Z"/><circle class="cls-8" cx="101.01" cy="62" r="5"/><path class="cls-5" d="M101,68a6,6,0,1,1,6-6A6,6,0,0,1,101,68Zm0-10a4,4,0,1,0,4,4A4,4,0,0,0,101,58Z"/><circle class="cls-7" cx="107.01" cy="36" r="9"/><path class="cls-5" d="M107,46a10,10,0,1,1,10-10A10,10,0,0,1,107,46Zm0-18a8,8,0,1,0,8,8A8,8,0,0,0,107,28Z"/><circle class="cls-8" cx="107.01" cy="36" r="5"/><path class="cls-5" d="M107,42a6,6,0,1,1,6-6A6,6,0,0,1,107,42Zm0-10a4,4,0,1,0,4,4A4,4,0,0,0,107,32Z"/></g><path class="cls-2" d="M109.33,9A5.55,5.55,0,0,0,113,12.72q2.77.92,0,1.85a5.55,5.55,0,0,0-3.69,3.69q-.92,2.77-1.85,0a5.55,5.55,0,0,0-3.69-3.69q-2.77-.92,0-1.85A5.55,5.55,0,0,0,107.48,9Q108.4,6.26,109.33,9Z"/><path class="cls-2" d="M78,119.57A3.7,3.7,0,0,0,80.48,122q1.85.62,0,1.23A3.7,3.7,0,0,0,78,125.72q-.62,1.85-1.23,0a3.7,3.7,0,0,0-2.46-2.46q-1.85-.62,0-1.23a3.7,3.7,0,0,0,2.46-2.46Q77.4,117.72,78,119.57Z"/><path class="cls-9" d="M13.17,109.81a4.62,4.62,0,0,0,3.08,3.08q2.31.77,0,1.54a4.62,4.62,0,0,0-3.08,3.08q-.77,2.31-1.54,0a4.62,4.62,0,0,0-3.08-3.08q-2.31-.77,0-1.54a4.62,4.62,0,0,0,3.08-3.08Q12.4,107.5,13.17,109.81Z"/><path class="cls-2" d="M6,76.57A3.7,3.7,0,0,0,8.47,79q1.85.62,0,1.23A3.7,3.7,0,0,0,6,82.73q-.62,1.85-1.23,0a3.7,3.7,0,0,0-2.46-2.46q-1.85-.62,0-1.23a3.7,3.7,0,0,0,2.46-2.46Q5.4,74.73,6,76.57Z"/><path class="cls-9" d="M117,53.57A3.7,3.7,0,0,0,119.48,56q1.85.62,0,1.23A3.7,3.7,0,0,0,117,59.73q-.62,1.85-1.23,0a3.7,3.7,0,0,0-2.46-2.46q-1.85-.62,0-1.23a3.7,3.7,0,0,0,2.46-2.46Q116.41,51.73,117,53.57Z"/><path class="cls-10" d="M75,13a4,4,0,0,1,4-4H59a4,4,0,0,0-4,4V23H71a4,4,0,0,0,4-4Z"/><path class="cls-5" d="M71,24H55a1,1,0,0,1-1-1V13a5,5,0,0,1,5-5H79a1,1,0,0,1,0,2,3,3,0,0,0-3,3v6A5,5,0,0,1,71,24ZM56,22H71a3,3,0,0,0,3-3V13a5,5,0,0,1,1-3H59a3,3,0,0,0-3,3Z"/><path class="cls-11" d="M67,19V9a4,4,0,0,0-4-4H53a4,4,0,0,1,4,4V23H71A4,4,0,0,1,67,19Z"/><path class="cls-5" d="M71,24H57a1,1,0,0,1-1-1V9a3,3,0,0,0-3-3,1,1,0,0,1,0-2H63a5,5,0,0,1,5,5V19a3,3,0,0,0,3,3,1,1,0,0,1,0,2ZM58,22h9a5,5,0,0,1-1-3V9a3,3,0,0,0-3-3H57a5,5,0,0,1,1,3Z"/><path class="cls-11" d="M75,115H29a4,4,0,0,1-4-4V101H79v10A4,4,0,0,1,75,115Z"/><path class="cls-5" d="M75,116H29a5,5,0,0,1-5-5V101a1,1,0,0,1,1-1H79a1,1,0,0,1,1,1v10A5,5,0,0,1,75,116ZM26,102v9a3,3,0,0,0,3,3H75a3,3,0,0,0,3-3v-9Z"/><rect class="cls-12" height="80" rx="4" ry="4" width="54" x="25" y="31"/><path class="cls-10" d="M75,31H29a4,4,0,0,0-4,4v4a4,4,0,0,1,4-4H75a4,4,0,0,1,4,4V35A4,4,0,0,0,75,31Z"/><path class="cls-5" d="M75,112H29a5,5,0,0,1-5-5V35a5,5,0,0,1,5-5H75a5,5,0,0,1,5,5v72A5,5,0,0,1,75,112ZM29,32a3,3,0,0,0-3,3v72a3,3,0,0,0,3,3H75a3,3,0,0,0,3-3V35a3,3,0,0,0-3-3Z"/><rect class="cls-13" height="80" width="4" x="69" y="31"/><path class="cls-5" d="M73,112H69a1,1,0,0,1-1-1V31a1,1,0,0,1,1-1h4a1,1,0,0,1,1,1v80A1,1,0,0,1,73,112Zm-3-2h2V32H70Z"/><path class="cls-14" d="M69,87V39H94a2,2,0,0,1,2,2V85a2,2,0,0,1-2,2Z"/><path class="cls-5" d="M94,88H69a1,1,0,0,1-1-1V39a1,1,0,0,1,1-1H94a3,3,0,0,1,3,3V85A3,3,0,0,1,94,88ZM70,86H94a1,1,0,0,0,1-1V41a1,1,0,0,0-1-1H70Z"/><rect class="cls-10" height="36" width="6" x="73" y="45"/><path class="cls-5" d="M79,82H73a1,1,0,0,1-1-1V45a1,1,0,0,1,1-1h6a1,1,0,0,1,1,1V81A1,1,0,0,1,79,82Zm-5-2h4V46H74Z"/><rect class="cls-13" height="48" width="7" x="83" y="39"/><path class="cls-5" d="M90,88H83a1,1,0,0,1-1-1V39a1,1,0,0,1,1-1h7a1,1,0,0,1,1,1V87A1,1,0,0,1,90,88Zm-6-2h5V40H84Z"/><g class="cls-1"><path class="cls-5" d="M86,41a1,1,0,0,1-.38-.08,1,1,0,0,1-.33-.21,1.68,1.68,0,0,1-.12-.15.74.74,0,0,1-.09-.18A.65.65,0,0,1,85,40.2a.69.69,0,0,1,0-.2,1,1,0,0,1,.29-.71,1,1,0,0,1,.33-.21,1,1,0,0,1,1.09.21A1.05,1.05,0,0,1,87,40a1.26,1.26,0,0,1,0,.2.62.62,0,0,1-.06.18.78.78,0,0,1-.09.18l-.12.15A1,1,0,0,1,86,41Z"/><path class="cls-5" d="M88,43a1,1,0,0,1-1-1,1,1,0,0,1,.08-.38,1.15,1.15,0,0,1,.21-.33,1,1,0,0,1,1.09-.21.9.9,0,0,1,.54.54A1,1,0,0,1,89,42a1.05,1.05,0,0,1-.29.71,1.17,1.17,0,0,1-.33.21A1,1,0,0,1,88,43Z"/><path class="cls-5" d="M86,45a1,1,0,0,1-.38-.08,1,1,0,0,1-.33-.21,1.68,1.68,0,0,1-.12-.15.74.74,0,0,1-.09-.18A.65.65,0,0,1,85,44.2a.69.69,0,0,1,0-.2,1,1,0,0,1,.29-.71,1,1,0,0,1,.33-.21,1,1,0,0,1,1.09.21A1.05,1.05,0,0,1,87,44a1.26,1.26,0,0,1,0,.2.62.62,0,0,1-.06.18.78.78,0,0,1-.09.18l-.12.15-.15.12a.76.76,0,0,1-.18.09L86.2,45Z"/><path class="cls-5" d="M88,47a1.05,1.05,0,0,1-.71-.29,1.68,1.68,0,0,1-.12-.15.74.74,0,0,1-.09-.18A.65.65,0,0,1,87,46.2a1.38,1.38,0,0,1,0-.2,1,1,0,0,1,.29-.71,1,1,0,0,1,1.09-.21,1.16,1.16,0,0,1,.33.21A1.05,1.05,0,0,1,89,46a1.26,1.26,0,0,1,0,.2.62.62,0,0,1-.06.18.78.78,0,0,1-.09.18l-.12.15a1.17,1.17,0,0,1-.33.21A1,1,0,0,1,88,47Z"/><path class="cls-5" d="M86,49a1,1,0,0,1-.38-.08,1,1,0,0,1-.33-.21,1,1,0,0,1-.12-.16.54.54,0,0,1-.09-.17A.65.65,0,0,1,85,48.2a.69.69,0,0,1,0-.2.73.73,0,0,1,0-.2.65.65,0,0,1,.06-.18.74.74,0,0,1,.09-.18,1.55,1.55,0,0,1,.12-.15,1,1,0,0,1,1.42,0A1.05,1.05,0,0,1,87,48a1.26,1.26,0,0,1,0,.2.62.62,0,0,1-.06.18.56.56,0,0,1-.09.17l-.12.16A1,1,0,0,1,86,49Z"/><path class="cls-5" d="M88,51a1.05,1.05,0,0,1-.71-.29,1.15,1.15,0,0,1-.21-.33.94.94,0,0,1,0-.76,1.15,1.15,0,0,1,.21-.33,1,1,0,0,1,1.09-.21.9.9,0,0,1,.54.54.94.94,0,0,1,0,.76,1.15,1.15,0,0,1-.21.33,1.17,1.17,0,0,1-.33.21A.84.84,0,0,1,88,51Z"/><path class="cls-5" d="M86,53a1,1,0,0,1-.38-.08,1,1,0,0,1-.33-.21,1,1,0,0,1,0-1.42,1,1,0,0,1,.33-.21,1,1,0,0,1,1.09.21,1,1,0,0,1,0,1.42l-.15.12a.76.76,0,0,1-.18.09L86.2,53Z"/><path class="cls-5" d="M88,55a1,1,0,0,1-.71-1.71,1,1,0,0,1,1.09-.21,1.16,1.16,0,0,1,.33.21,1,1,0,0,1,0,1.42,1.17,1.17,0,0,1-.33.21A1,1,0,0,1,88,55Z"/><path class="cls-5" d="M86,57a1,1,0,0,1-.38-.08,1,1,0,0,1-.33-.21,1,1,0,0,1,0-1.42,1,1,0,0,1,.33-.21A1,1,0,0,1,86.2,55l.18.06a.76.76,0,0,1,.18.09l.15.12a1,1,0,0,1,0,1.42l-.15.12a.76.76,0,0,1-.18.09L86.2,57Z"/><path class="cls-5" d="M88,59a1,1,0,0,1-.71-1.71,1,1,0,0,1,1.09-.21,1.16,1.16,0,0,1,.33.21,1,1,0,0,1,0,1.42,1.17,1.17,0,0,1-.33.21A.84.84,0,0,1,88,59Z"/><path class="cls-5" d="M86,61a1,1,0,0,1-.38-.08,1,1,0,0,1-.33-.21,1.68,1.68,0,0,1-.12-.15.74.74,0,0,1-.09-.18A.65.65,0,0,1,85,60.2a.69.69,0,0,1,0-.2.73.73,0,0,1,0-.2.65.65,0,0,1,.06-.18.74.74,0,0,1,.09-.18,1.55,1.55,0,0,1,.12-.15,1,1,0,0,1,.33-.21A1,1,0,0,1,86.2,59l.18.06a.76.76,0,0,1,.18.09l.15.12A1.05,1.05,0,0,1,87,60a1.26,1.26,0,0,1,0,.2.62.62,0,0,1-.06.18.78.78,0,0,1-.09.18l-.12.15-.15.12a.76.76,0,0,1-.18.09L86.2,61Z"/><path class="cls-5" d="M88,63a1,1,0,0,1-1-1,1,1,0,0,1,.08-.38,1.15,1.15,0,0,1,.21-.33,1,1,0,0,1,1.09-.21.9.9,0,0,1,.54.54A1,1,0,0,1,89,62a1.05,1.05,0,0,1-.29.71,1.17,1.17,0,0,1-.33.21A1,1,0,0,1,88,63Z"/><path class="cls-5" d="M86,65a.84.84,0,0,1-.38-.08,1,1,0,0,1-.33-.21,1.15,1.15,0,0,1-.21-.33.94.94,0,0,1,0-.76,1.15,1.15,0,0,1,.21-.33,1,1,0,0,1,.33-.21A1,1,0,0,1,86.2,63l.18.06a.76.76,0,0,1,.18.09l.15.12a1.15,1.15,0,0,1,.21.33.94.94,0,0,1,0,.76,1.15,1.15,0,0,1-.21.33l-.15.12a.76.76,0,0,1-.18.09L86.2,65Z"/><path class="cls-5" d="M88,67a1.05,1.05,0,0,1-.71-.29,1.68,1.68,0,0,1-.12-.15.74.74,0,0,1-.09-.18A.65.65,0,0,1,87,66.2a1.38,1.38,0,0,1,0-.2,1,1,0,0,1,.29-.71,1,1,0,0,1,1.09-.21,1.16,1.16,0,0,1,.33.21A1.05,1.05,0,0,1,89,66a1.26,1.26,0,0,1,0,.2.62.62,0,0,1-.06.18.78.78,0,0,1-.09.18l-.12.15a1.17,1.17,0,0,1-.33.21A1,1,0,0,1,88,67Z"/><path class="cls-5" d="M86,69a.84.84,0,0,1-.38-.08,1,1,0,0,1-.33-.21,1.15,1.15,0,0,1-.21-.33.94.94,0,0,1,0-.76,1.15,1.15,0,0,1,.21-.33,1,1,0,0,1,.33-.21A1,1,0,0,1,86.2,67l.18.06a.76.76,0,0,1,.18.09l.15.12a1.15,1.15,0,0,1,.21.33.94.94,0,0,1,0,.76,1.15,1.15,0,0,1-.21.33l-.15.12a.76.76,0,0,1-.18.09L86.2,69Z"/><path class="cls-5" d="M88,71a1.05,1.05,0,0,1-.71-.29,1.15,1.15,0,0,1-.21-.33.94.94,0,0,1,0-.76,1.15,1.15,0,0,1,.21-.33,1,1,0,0,1,1.09-.21.9.9,0,0,1,.54.54.94.94,0,0,1,0,.76,1.15,1.15,0,0,1-.21.33,1.17,1.17,0,0,1-.33.21A.84.84,0,0,1,88,71Z"/><path class="cls-5" d="M86,73a.84.84,0,0,1-.38-.08,1,1,0,0,1-.33-.21,1.15,1.15,0,0,1-.21-.33.94.94,0,0,1,0-.76,1.15,1.15,0,0,1,.21-.33,1,1,0,0,1,.33-.21A1,1,0,0,1,86.2,71l.18.06a.76.76,0,0,1,.18.09l.15.12a1.15,1.15,0,0,1,.21.33.94.94,0,0,1,0,.76,1.15,1.15,0,0,1-.21.33l-.15.12a.76.76,0,0,1-.18.09L86.2,73Z"/><path class="cls-5" d="M88,75a1,1,0,0,1-.71-1.71,1,1,0,0,1,1.09-.21,1.16,1.16,0,0,1,.33.21,1,1,0,0,1,0,1.42,1.17,1.17,0,0,1-.33.21A1,1,0,0,1,88,75Z"/><path class="cls-5" d="M86,77a.84.84,0,0,1-.38-.08,1,1,0,0,1-.33-.21,1.15,1.15,0,0,1-.21-.33.94.94,0,0,1,0-.76,1.15,1.15,0,0,1,.21-.33,1,1,0,0,1,.33-.21A1,1,0,0,1,86.2,75l.18.06a.76.76,0,0,1,.18.09l.15.12a1.15,1.15,0,0,1,.21.33.94.94,0,0,1,0,.76,1.15,1.15,0,0,1-.21.33l-.15.12a.76.76,0,0,1-.18.09L86.2,77Z"/><path class="cls-5" d="M88,79a1,1,0,0,1-.71-1.71,1,1,0,0,1,1.09-.21,1.16,1.16,0,0,1,.33.21,1,1,0,0,1,0,1.42,1.17,1.17,0,0,1-.33.21A.84.84,0,0,1,88,79Z"/><path class="cls-5" d="M86,81a1,1,0,0,1-.38-.08,1,1,0,0,1-.33-.21,1.68,1.68,0,0,1-.12-.15.74.74,0,0,1-.09-.18A.65.65,0,0,1,85,80.2a.73.73,0,0,1,0-.2.7.7,0,0,1,0-.2.65.65,0,0,1,.06-.18.74.74,0,0,1,.09-.18,1.55,1.55,0,0,1,.12-.15,1,1,0,0,1,.33-.21A1,1,0,0,1,86.2,79l.18.06a.76.76,0,0,1,.18.09l.15.12.12.15a.78.78,0,0,1,.09.18.62.62,0,0,1,.06.18,1.26,1.26,0,0,1,0,.2,1.05,1.05,0,0,1-.29.71l-.15.12a.76.76,0,0,1-.18.09L86.2,81Z"/><path class="cls-5" d="M88,83a1,1,0,0,1-1-1,1,1,0,0,1,.08-.38,1.15,1.15,0,0,1,.21-.33,1,1,0,0,1,1.09-.21.9.9,0,0,1,.54.54A1,1,0,0,1,89,82a1.05,1.05,0,0,1-.29.71,1.17,1.17,0,0,1-.33.21A1,1,0,0,1,88,83Z"/><path class="cls-5" d="M86,85a1,1,0,0,1-.38-.08,1,1,0,0,1-.33-.21,1,1,0,0,1,0-1.42,1,1,0,0,1,.33-.21A1,1,0,0,1,86.2,83l.18.06a.76.76,0,0,1,.18.09l.15.12a1,1,0,0,1,0,1.42l-.15.12a.76.76,0,0,1-.18.09L86.2,85Z"/><path class="cls-5" d="M88,87a1.05,1.05,0,0,1-.71-.29,1.68,1.68,0,0,1-.12-.15.74.74,0,0,1-.09-.18A.65.65,0,0,1,87,86.2a1.38,1.38,0,0,1,0-.2,1,1,0,0,1,.29-.71,1,1,0,0,1,1.09-.21,1.16,1.16,0,0,1,.33.21A1.05,1.05,0,0,1,89,86a1.26,1.26,0,0,1,0,.2.62.62,0,0,1-.06.18.78.78,0,0,1-.09.18l-.12.15a1.17,1.17,0,0,1-.33.21A1,1,0,0,1,88,87Z"/><path class="cls-5" d="M84,43a1,1,0,0,1-.71-.29A1,1,0,1,1,84,43Z"/><path class="cls-5" d="M84,47a1.05,1.05,0,0,1-.71-.29,1.15,1.15,0,0,1-.21-.33.94.94,0,0,1,0-.76,1.15,1.15,0,0,1,.21-.33,1,1,0,0,1,1.42,0,1.15,1.15,0,0,1,.21.33.94.94,0,0,1,0,.76,1.15,1.15,0,0,1-.21.33A1.05,1.05,0,0,1,84,47Z"/><path class="cls-5" d="M84,51a1,1,0,0,1-.71-.29,1,1,0,0,1-.12-.16.54.54,0,0,1-.09-.17A.65.65,0,0,1,83,50.2a1.38,1.38,0,0,1,0-.2,1,1,0,1,1,2,0,1.26,1.26,0,0,1,0,.2.62.62,0,0,1-.06.18.56.56,0,0,1-.09.17l-.12.16A1.05,1.05,0,0,1,84,51Z"/><path class="cls-5" d="M84,55a1,1,0,0,1-1-1,.83.83,0,0,1,.08-.38,1.15,1.15,0,0,1,.21-.33,1,1,0,0,1,1.42,0,1.15,1.15,0,0,1,.21.33A1,1,0,0,1,85,54a1,1,0,0,1-1,1Z"/><path class="cls-5" d="M84,59a1,1,0,0,1-.71-.29A1,1,0,1,1,84,59Z"/><path class="cls-5" d="M84,63a1,1,0,0,1-.71-.29A1,1,0,0,1,83,62a.83.83,0,0,1,.08-.38,1.15,1.15,0,0,1,.21-.33,1,1,0,0,1,1.42,0,1.15,1.15,0,0,1,.21.33A1,1,0,0,1,85,62a1,1,0,0,1-1,1Z"/><path class="cls-5" d="M84,67a1,1,0,1,1,.71-.29A1.05,1.05,0,0,1,84,67Z"/><path class="cls-5" d="M84,71a1,1,0,0,1-.71-.29A1,1,0,1,1,84,71Z"/><path class="cls-5" d="M84,75a1,1,0,1,1,.71-.29A1.05,1.05,0,0,1,84,75Z"/><path class="cls-5" d="M84,79a1,1,0,0,1-.71-.29A1,1,0,1,1,84,79Z"/><path class="cls-5" d="M84,83a1,1,0,1,1,.71-.29A1.05,1.05,0,0,1,84,83Z"/><path class="cls-5" d="M84,87a1,1,0,0,1-.71-.29A1,1,0,1,1,84,87Z"/></g><rect class="cls-13" height="4" rx="2" ry="2" width="32" x="31" y="35"/><path class="cls-5" d="M61,40H33a3,3,0,0,1,0-6H61a3,3,0,0,1,0,6ZM33,36a1,1,0,0,0,0,2H61a1,1,0,0,0,0-2Z"/><path class="cls-10" d="M59,9a4,4,0,0,1,4-4H39a4,4,0,0,0-4,4V39H59V9Z"/><g class="cls-1"><rect class="cls-15" height="3" width="24" x="35" y="36"/></g><path class="cls-5" d="M59,40H35a1,1,0,0,1-1-1V9a5,5,0,0,1,5-5H63a1,1,0,0,1,0,2,3,3,0,0,0-3,3V39A1,1,0,0,1,59,40ZM36,38H58V9a5,5,0,0,1,1-3H39a3,3,0,0,0-3,3Z"/><rect class="cls-6" height="14" width="32" x="31" y="43"/><g class="cls-16"><polygon class="cls-10" points="31 43 31 54.22 54.62 43 31 43"/></g><g class="cls-16"><polygon class="cls-10" points="31 57 36.62 57 63 44.47 63 43 59.78 43 31 56.67 31 57"/></g><g class="cls-1"><rect class="cls-4" height="3" width="32" x="31" y="43"/></g><path class="cls-5" d="M63,58H31a1,1,0,0,1-1-1V43a1,1,0,0,1,1-1H63a1,1,0,0,1,1,1V57A1,1,0,0,1,63,58ZM32,56H62V44H32Z"/><g class="cls-1"><rect class="cls-15" height="10" rx="1" ry="1" width="10" x="30" y="62"/></g><rect class="cls-12" height="8" width="8" x="31" y="61"/><rect class="cls-10" height="3" width="8" x="31" y="61"/><path class="cls-5" d="M39,70H31a1,1,0,0,1-1-1V61a1,1,0,0,1,1-1h8a1,1,0,0,1,1,1v8A1,1,0,0,1,39,70Zm-7-2h6V62H32Z"/><g class="cls-1"><rect class="cls-15" height="10" rx="1" ry="1" width="10" x="42" y="62"/></g><rect class="cls-12" height="8" width="8" x="43" y="61"/><rect class="cls-10" height="3" width="8" x="43" y="61"/><path class="cls-5" d="M51,70H43a1,1,0,0,1-1-1V61a1,1,0,0,1,1-1h8a1,1,0,0,1,1,1v8A1,1,0,0,1,51,70Zm-7-2h6V62H44Z"/><g class="cls-1"><rect class="cls-15" height="10" rx="1" ry="1" width="10" x="54" y="62"/></g><rect class="cls-12" height="8" width="8" x="55" y="61"/><rect class="cls-10" height="3" width="8" x="55" y="61"/><path class="cls-5" d="M63,70H55a1,1,0,0,1-1-1V61a1,1,0,0,1,1-1h8a1,1,0,0,1,1,1v8A1,1,0,0,1,63,70Zm-7-2h6V62H56Z"/><g class="cls-1"><rect class="cls-15" height="10" rx="1" ry="1" width="10" x="30" y="74"/></g><rect class="cls-12" height="8" width="8" x="31" y="73"/><rect class="cls-10" height="3" width="8" x="31" y="73"/><path class="cls-5" d="M39,82H31a1,1,0,0,1-1-1V73a1,1,0,0,1,1-1h8a1,1,0,0,1,1,1v8A1,1,0,0,1,39,82Zm-7-2h6V74H32Z"/><g class="cls-1"><rect class="cls-15" height="10" rx="1" ry="1" width="10" x="42" y="74"/></g><rect class="cls-12" height="8" width="8" x="43" y="73"/><rect class="cls-10" height="3" width="8" x="43" y="73"/><path class="cls-5" d="M51,82H43a1,1,0,0,1-1-1V73a1,1,0,0,1,1-1h8a1,1,0,0,1,1,1v8A1,1,0,0,1,51,82Zm-7-2h6V74H44Z"/><g class="cls-1"><rect class="cls-15" height="10" rx="1" ry="1" width="10" x="54" y="74"/></g><rect class="cls-12" height="8" width="8" x="55" y="73"/><rect class="cls-10" height="3" width="8" x="55" y="73"/><path class="cls-5" d="M63,82H55a1,1,0,0,1-1-1V73a1,1,0,0,1,1-1h8a1,1,0,0,1,1,1v8A1,1,0,0,1,63,82Zm-7-2h6V74H56Z"/><g class="cls-1"><rect class="cls-15" height="10" rx="1" ry="1" width="10" x="30" y="86"/></g><rect class="cls-12" height="8" width="8" x="31" y="85"/><rect class="cls-10" height="3" width="8" x="31" y="85"/><path class="cls-5" d="M39,94H31a1,1,0,0,1-1-1V85a1,1,0,0,1,1-1h8a1,1,0,0,1,1,1v8A1,1,0,0,1,39,94Zm-7-2h6V86H32Z"/><g class="cls-1"><rect class="cls-15" height="10" rx="1" ry="1" width="10" x="42" y="86"/></g><rect class="cls-12" height="8" width="8" x="43" y="85"/><rect class="cls-10" height="3" width="8" x="43" y="85"/><path class="cls-5" d="M51,94H43a1,1,0,0,1-1-1V85a1,1,0,0,1,1-1h8a1,1,0,0,1,1,1v8A1,1,0,0,1,51,94Zm-7-2h6V86H44Z"/><g class="cls-1"><rect class="cls-15" height="10" rx="1" ry="1" width="10" x="54" y="86"/></g><rect class="cls-12" height="8" width="8" x="55" y="85"/><rect class="cls-10" height="3" width="8" x="55" y="85"/><path class="cls-5" d="M63,94H55a1,1,0,0,1-1-1V85a1,1,0,0,1,1-1h8a1,1,0,0,1,1,1v8A1,1,0,0,1,63,94Zm-7-2h6V86H56Z"/><g class="cls-1"><rect class="cls-15" height="10" rx="1" ry="1" width="10" x="30" y="98"/></g><rect class="cls-17" height="8" width="8" x="31" y="97"/><g class="cls-1"><rect class="cls-18" height="3" width="8" x="31" y="97"/></g><path class="cls-5" d="M39,106H31a1,1,0,0,1-1-1V97a1,1,0,0,1,1-1h8a1,1,0,0,1,1,1v8A1,1,0,0,1,39,106Zm-7-2h6V98H32Z"/><g class="cls-1"><rect class="cls-15" height="10" rx="1" ry="1" width="10" x="42" y="98"/></g><rect class="cls-12" height="8" width="8" x="43" y="97"/><rect class="cls-10" height="3" width="8" x="43" y="97"/><path class="cls-5" d="M51,106H43a1,1,0,0,1-1-1V97a1,1,0,0,1,1-1h8a1,1,0,0,1,1,1v8A1,1,0,0,1,51,106Zm-7-2h6V98H44Z"/><g class="cls-1"><rect class="cls-15" height="10" rx="1" ry="1" width="10" x="54" y="98"/></g><rect class="cls-6" height="8" width="8" x="55" y="97"/><g class="cls-16"><rect class="cls-10" height="3" width="8" x="55" y="97"/></g><path class="cls-5" d="M63,106H55a1,1,0,0,1-1-1V97a1,1,0,0,1,1-1h8a1,1,0,0,1,1,1v8A1,1,0,0,1,63,106Zm-7-2h6V98H56Z"/><g class="cls-16"><path class="cls-5" d="M49,26H41a1,1,0,0,1,0-2h8a1,1,0,0,1,0,2Z"/><path class="cls-5" d="M53,26H52a1,1,0,0,1,0-2h1a1,1,0,0,1,0,2Z"/><path class="cls-5" d="M49,30H41a1,1,0,0,1,0-2h8a1,1,0,0,1,0,2Z"/><path class="cls-5" d="M53,30H52a1,1,0,0,1,0-2h1a1,1,0,0,1,0,2Z"/><path class="cls-5" d="M44,18H41a1,1,0,0,1,0-2h3a1,1,0,0,1,0,2Z"/><path class="cls-5" d="M53,22H41a1,1,0,0,1,0-2H53a1,1,0,0,1,0,2Z"/><path class="cls-5" d="M39,12l-.2,0-.18-.06a.76.76,0,0,1-.18-.09l-.15-.12A1,1,0,0,1,38,11a.83.83,0,0,1,.08-.38,1.15,1.15,0,0,1,.21-.33l.15-.12a.76.76,0,0,1,.18-.09A.63.63,0,0,1,38.8,10a1,1,0,0,1,.91.27,1.15,1.15,0,0,1,.21.33A1,1,0,0,1,40,11a1,1,0,0,1-1,1Z"/><path class="cls-5" d="M50,11a1,1,0,0,1,1-1h0a1,1,0,0,1,1,1h0a1,1,0,0,1-1,1h0A1,1,0,0,1,50,11Zm-4,0a1,1,0,0,1,1-1h0a1,1,0,0,1,1,1h0a1,1,0,0,1-1,1h0A1,1,0,0,1,46,11Zm-4,0a1,1,0,0,1,1-1h0a1,1,0,0,1,1,1h0a1,1,0,0,1-1,1h0A1,1,0,0,1,42,11Z"/><path class="cls-5" d="M55,12a1,1,0,0,1-.38-.08.9.9,0,0,1-.54-.54.94.94,0,0,1,0-.76,1.15,1.15,0,0,1,.21-.33,1,1,0,0,1,.33-.21,1,1,0,0,1,1.09.21A1,1,0,0,1,55,12Z"/><path class="cls-5" d="M39,36l-.2,0-.18-.06a.76.76,0,0,1-.18-.09l-.15-.12A1,1,0,0,1,38,35a.83.83,0,0,1,.08-.38,1.15,1.15,0,0,1,.21-.33l.15-.12a.76.76,0,0,1,.18-.09A.63.63,0,0,1,38.8,34a1,1,0,0,1,.91.27,1.15,1.15,0,0,1,.21.33A1,1,0,0,1,40,35a1,1,0,0,1-1,1Z"/><path class="cls-5" d="M50,35a1,1,0,0,1,1-1h0a1,1,0,0,1,1,1h0a1,1,0,0,1-1,1h0A1,1,0,0,1,50,35Zm-4,0a1,1,0,0,1,1-1h0a1,1,0,0,1,1,1h0a1,1,0,0,1-1,1h0A1,1,0,0,1,46,35Zm-4,0a1,1,0,0,1,1-1h0a1,1,0,0,1,1,1h0a1,1,0,0,1-1,1h0A1,1,0,0,1,42,35Z"/><path class="cls-5" d="M55,36a1.05,1.05,0,0,1-.71-.29.94.94,0,0,1-.21-.33.94.94,0,0,1,0-.76.93.93,0,0,1,.21-.33,1,1,0,0,1,.9-.27.61.61,0,0,1,.19.06.56.56,0,0,1,.17.09,1,1,0,0,1,.16.12,1,1,0,0,1,.21.33A1,1,0,0,1,56,35a1.05,1.05,0,0,1-.29.71,1,1,0,0,1-.16.12.56.56,0,0,1-.17.09.62.62,0,0,1-.19.06Z"/></g><path class="cls-5" d="M46.4,54a1,1,0,0,1-.71-.29l-2.4-2.4a1,1,0,0,1,1.41-1.41l1.59,1.59,3.91-5.09a1,1,0,0,1,1.59,1.22l-4.6,6a1,1,0,0,1-.73.39Z"/><circle class="cls-6" cx="103" cy="103" r="20"/><g class="cls-1"><path class="cls-4" d="M103,120a20,20,0,0,1-19.92-18.5c0,.5-.08,1-.08,1.5a20,20,0,0,0,40,0c0-.51,0-1-.08-1.5A20,20,0,0,1,103,120Z"/></g><g class="cls-16"><path class="cls-10" d="M103,86a20,20,0,0,1,19.92,18.5c0-.5.08-1,.08-1.5a20,20,0,0,0-40,0c0,.51,0,1,.08,1.5A20,20,0,0,1,103,86Z"/></g><path class="cls-5" d="M103,124a21,21,0,1,1,21-21A21,21,0,0,1,103,124Zm0-40a19,19,0,1,0,19,19A19,19,0,0,0,103,84Z"/><g class="cls-1"><path class="cls-4" d="M114.47,97.2a2.46,2.46,0,0,0-4.3-1.25l-9,8.38-3.9-1.06a2.45,2.45,0,0,0-3.83,2,2.37,2.37,0,0,0,.66,1.66l5.58,6.25a2.79,2.79,0,0,0,2,.79h.16a2.8,2.8,0,0,0,2-1.12L114,99A2.43,2.43,0,0,0,114.47,97.2Z"/></g><path class="cls-10" d="M113.39,95.16a1.34,1.34,0,0,0-.54-.89h0a1.37,1.37,0,0,0-1.88.25l-9.52,9-4.59-1.43c-.89-.42-1.35-.43-1.86.08a1.35,1.35,0,0,0-.4,1A1.32,1.32,0,0,0,95,104l5.53,6.2a1.68,1.68,0,0,0,1.18.48h.12A1.69,1.69,0,0,0,103,110l10.09-13.87A1.34,1.34,0,0,0,113.39,95.16Z"/><path class="cls-5" d="M101.73,111.71a2.69,2.69,0,0,1-1.92-.77l-5.58-6.24a2.26,2.26,0,0,1-.63-1.59,2.34,2.34,0,0,1,3.62-2l4,1.23,9.05-8.54a2.36,2.36,0,0,1,3.2-.36,2.35,2.35,0,0,1,.48,3.31l-10.08,13.86a2.7,2.7,0,0,1-2,1.08h-.16Zm-5.92-9-.11.09a.35.35,0,0,0-.11.26.33.33,0,0,0,.08.22l5.58,6.25a.67.67,0,0,0,.43.15h.08a.67.67,0,0,0,.47-.27l10.08-13.86a.35.35,0,0,0,.08-.27h0a.34.34,0,0,0-.14-.23.37.37,0,0,0-.51.06l-.09.1-9.52,9a1,1,0,0,1-1,.23L96.56,103l-.13-.05C96,102.75,95.85,102.74,95.81,102.75Z"/></svg>