<?xml version="1.0" ?><svg data-name="003" id="_003" viewBox="0 0 128 128" xmlns="http://www.w3.org/2000/svg"><defs><style>.cls-1{opacity:0.3;}.cls-2{fill:#c9c1f5;}.cls-3{fill:#6d6daa;}.cls-4{fill:#fffad1;}.cls-5{fill:#89dbba;}.cls-6{fill:#b1f1a8;}.cls-7{fill:#eef6ff;}.cls-8{fill:#fff;}.cls-9{fill:#7690a8;}.cls-10{fill:#fff27d;}.cls-11{opacity:0.5;}.cls-12{fill:#ced8ee;}.cls-13{fill:#5b58bc;}.cls-14{fill:#554dad;}.cls-15{fill:#96d7ff;}.cls-16{fill:#c7e9ff;}.cls-17{fill:#ff8acc;}.cls-18{fill:#ffd1e3;}</style></defs><title/><g class="cls-1"><path class="cls-2" d="M112.3,102.77a30,30,0,0,0,8.59-33.26,19.69,19.69,0,0,1-.31-12.74A37,37,0,0,0,73.22,10.7,21,21,0,0,1,55.84,8.82C42.05.79,22.12,5,13.88,25.5a16.6,16.6,0,0,0-.75,8A20.58,20.58,0,0,1,9.29,47.78,28.49,28.49,0,0,0,21.41,90.55,20.06,20.06,0,0,1,32.79,103,29,29,0,0,0,80.62,115.4,20.08,20.08,0,0,1,93.9,110,29.83,29.83,0,0,0,112.3,102.77Z"/><rect class="cls-2" height="12" width="15" x="11.99" y="21"/><path class="cls-3" d="M27,34H12a1,1,0,0,1-1-1V21a1,1,0,0,1,1-1H27a1,1,0,0,1,1,1V33A1,1,0,0,1,27,34ZM13,32H26V22H13Z"/><rect class="cls-2" height="5" width="17" x="10.99" y="16"/><path class="cls-3" d="M28,22H11a1,1,0,0,1-1-1V16a1,1,0,0,1,1-1H28a1,1,0,0,1,1,1v5A1,1,0,0,1,28,22ZM12,20H27V17H12Z"/><rect class="cls-4" height="6" width="122.01" x="2.99" y="33"/><path class="cls-3" d="M125,40H3a1,1,0,0,1-1-1V33a1,1,0,0,1,1-1H125a1,1,0,0,1,1,1v6A1,1,0,0,1,125,40ZM4,38H124V34H4Z"/><rect class="cls-4" height="6" width="122.01" x="2.99" y="73"/><path class="cls-3" d="M125,80H3a1,1,0,0,1-1-1V73a1,1,0,0,1,1-1H125a1,1,0,0,1,1,1v6A1,1,0,0,1,125,80ZM4,78H124V74H4Z"/><path class="cls-3" d="M22,26H17a1,1,0,0,1,0-2h5a1,1,0,0,1,0,2Z"/><path class="cls-3" d="M92,126H30a1,1,0,0,1,0-2H92a1,1,0,0,1,0,2Z"/><path class="cls-3" d="M111,126H95a1,1,0,0,1,0-2h16a1,1,0,0,1,0,2Z"/><path class="cls-3" d="M24,126H22a1,1,0,0,1,0-2h2a1,1,0,0,1,0,2Z"/><path class="cls-3" d="M27,126a1,1,0,0,1-.71-.29,1,1,0,0,1-.22-1.09,1.21,1.21,0,0,1,.22-.33,1,1,0,0,1,1.09-.21,1,1,0,0,1,.32,1.63A1,1,0,0,1,27,126Z"/><rect class="cls-5" height="3.99" width="41.99" x="41.99" y="16"/><path class="cls-3" d="M84,21H42a1,1,0,0,1-1-1V16a1,1,0,0,1,1-1H84a1,1,0,0,1,1,1v4A1,1,0,0,1,84,21ZM43,19H83V17H43Z"/><rect class="cls-6" height="3.99" width="41.99" x="41.99" y="12"/><path class="cls-3" d="M84,17H42a1,1,0,0,1-1-1V12a1,1,0,0,1,1-1H84a1,1,0,0,1,1,1v4A1,1,0,0,1,84,17ZM43,15H83V13H43Z"/><rect class="cls-5" height="3.99" width="41.99" x="41.99" y="8"/><path class="cls-3" d="M84,13H42a1,1,0,0,1-1-1V8a1,1,0,0,1,1-1H84a1,1,0,0,1,1,1v4A1,1,0,0,1,84,13ZM43,11H83V9H43Z"/><rect class="cls-7" height="14" width="9.99" x="57.99" y="6.5"/><rect class="cls-8" height="3" width="9.99" x="57.99" y="7"/><g class="cls-1"><rect class="cls-9" height="3" width="9.99" x="57.99" y="18"/></g><path class="cls-3" d="M68,22H58a1,1,0,0,1-1-1V7a1,1,0,0,1,1-1H68a1,1,0,0,1,1,1V21A1,1,0,0,1,68,22Zm-9-2h8V8H59Z"/><rect class="cls-5" height="3.99" width="41.99" x="71.99" y="28.01"/><path class="cls-3" d="M114,33H72a1,1,0,0,1-1-1V28a1,1,0,0,1,1-1h42a1,1,0,0,1,1,1v4A1,1,0,0,1,114,33ZM73,31h40V29H73Z"/><rect class="cls-6" height="3.99" width="41.99" x="71.99" y="24"/><path class="cls-3" d="M114,29H72a1,1,0,0,1-1-1V24a1,1,0,0,1,1-1h42a1,1,0,0,1,1,1v4A1,1,0,0,1,114,29ZM73,27h40V25H73Z"/><rect class="cls-5" height="3.99" width="41.99" x="71.99" y="20"/><path class="cls-3" d="M114,25H72a1,1,0,0,1-1-1V20a1,1,0,0,1,1-1h42a1,1,0,0,1,1,1v4A1,1,0,0,1,114,25ZM73,23h40V21H73Z"/><rect class="cls-7" height="14" width="10" x="87.99" y="18.51"/><rect class="cls-8" height="3" width="10" x="87.99" y="19"/><g class="cls-1"><rect class="cls-9" height="3" width="10" x="87.99" y="30.01"/></g><path class="cls-3" d="M98,34H88a1,1,0,0,1-1-1V19a1,1,0,0,1,1-1H98a1,1,0,0,1,1,1V33A1,1,0,0,1,98,34Zm-9-2h8V20H89Z"/><rect class="cls-5" height="3.99" width="41.99" x="35.99" y="28.01"/><path class="cls-3" d="M78,33H36a1,1,0,0,1-1-1V28a1,1,0,0,1,1-1H78a1,1,0,0,1,1,1v4A1,1,0,0,1,78,33ZM37,31H77V29H37Z"/><rect class="cls-6" height="3.99" width="41.99" x="35.99" y="24"/><path class="cls-3" d="M78,29H36a1,1,0,0,1-1-1V24a1,1,0,0,1,1-1H78a1,1,0,0,1,1,1v4A1,1,0,0,1,78,29ZM37,27H77V25H37Z"/><rect class="cls-5" height="3.99" width="41.99" x="35.99" y="20"/><path class="cls-3" d="M78,25H36a1,1,0,0,1-1-1V20a1,1,0,0,1,1-1H78a1,1,0,0,1,1,1v4A1,1,0,0,1,78,25ZM37,23H77V21H37Z"/><rect class="cls-7" height="14" width="10" x="51.99" y="18.51"/><rect class="cls-8" height="3" width="10" x="51.99" y="19"/><g class="cls-1"><rect class="cls-9" height="3" width="10" x="51.99" y="30.01"/></g><path class="cls-3" d="M62,34H52a1,1,0,0,1-1-1V19a1,1,0,0,1,1-1H62a1,1,0,0,1,1,1V33A1,1,0,0,1,62,34Zm-9-2h8V20H53Z"/><path class="cls-10" d="M5.77,70.43l1.8-6A2,2,0,0,1,9.49,63h11a2,2,0,0,1,1.92,1.43l1.8,6A2,2,0,0,1,22.31,73H7.69A2,2,0,0,1,5.77,70.43Z"/><g class="cls-11"><path class="cls-8" d="M5.77,70.43s0,.06,0,.1l15.41-7.41a2,2,0,0,0-.66-.12h-11a2,2,0,0,0-1.92,1.43Z"/></g><g class="cls-11"><path class="cls-8" d="M22.79,65.62l-.22-.72L6.52,72.61A2,2,0,0,0,7.69,73h4.25l11.41-5.48Z"/></g><path class="cls-3" d="M22.31,74H7.69a3,3,0,0,1-2.87-3.86l1.8-6A3,3,0,0,1,9.49,62h11a3,3,0,0,1,2.87,2.14l1.8,6A3,3,0,0,1,22.31,74ZM9.49,64a1,1,0,0,0-1,.71l-1.8,6h0a1,1,0,0,0,1,1.29H22.31a1,1,0,0,0,1-1.29l-1.8-6a1,1,0,0,0-1-.71ZM5.77,70.43h0Z"/><path class="cls-10" d="M25.77,70.43l1.8-6A2,2,0,0,1,29.49,63h11a2,2,0,0,1,1.92,1.43l1.8,6A2,2,0,0,1,42.31,73H27.69A2,2,0,0,1,25.77,70.43Z"/><g class="cls-11"><path class="cls-8" d="M25.77,70.43s0,.06,0,.1l15.41-7.41a2,2,0,0,0-.66-.12h-11a2,2,0,0,0-1.92,1.43Z"/></g><g class="cls-11"><path class="cls-8" d="M42.79,65.62l-.22-.72L26.52,72.61a2,2,0,0,0,1.17.39h4.25l11.41-5.48Z"/></g><path class="cls-3" d="M42.31,74H27.69a3,3,0,0,1-2.87-3.86l1.8-6A3,3,0,0,1,29.49,62h11a3,3,0,0,1,2.87,2.14l1.8,6A3,3,0,0,1,42.31,74ZM29.49,64a1,1,0,0,0-1,.71l-1.8,6h0a1,1,0,0,0,1,1.29H42.31a1,1,0,0,0,1-1.29l-1.8-6a1,1,0,0,0-1-.71Zm-3.71,6.43h0Z"/><path class="cls-10" d="M45.77,70.43l1.8-6A2,2,0,0,1,49.49,63h11a2,2,0,0,1,1.92,1.43l1.8,6A2,2,0,0,1,62.31,73H47.69A2,2,0,0,1,45.77,70.43Z"/><g class="cls-11"><path class="cls-8" d="M45.77,70.43s0,.06,0,.1l15.41-7.41a2,2,0,0,0-.66-.12h-11a2,2,0,0,0-1.92,1.43Z"/></g><g class="cls-11"><path class="cls-8" d="M62.79,65.62l-.22-.72L46.52,72.61a2,2,0,0,0,1.17.39h4.25l11.41-5.48Z"/></g><path class="cls-3" d="M62.31,74H47.69a3,3,0,0,1-2.87-3.86l1.8-6A3,3,0,0,1,49.49,62h11a3,3,0,0,1,2.87,2.14l1.8,6A3,3,0,0,1,62.31,74ZM49.49,64a1,1,0,0,0-1,.71l-1.8,6h0a1,1,0,0,0,1,1.29H62.31a1,1,0,0,0,1-1.29l-1.8-6a1,1,0,0,0-1-.71Zm-3.71,6.43h0Z"/><path class="cls-10" d="M35.77,60.43l1.8-6A2,2,0,0,1,39.49,53h11a2,2,0,0,1,1.92,1.43l1.8,6A2,2,0,0,1,52.31,63H37.69A2,2,0,0,1,35.77,60.43Z"/><g class="cls-11"><path class="cls-8" d="M35.77,60.43s0,.06,0,.1l15.41-7.41a2,2,0,0,0-.66-.12h-11a2,2,0,0,0-1.92,1.43Z"/></g><g class="cls-11"><path class="cls-8" d="M52.79,55.62l-.22-.72L36.52,62.61a2,2,0,0,0,1.17.39h4.25l11.41-5.48Z"/></g><path class="cls-3" d="M52.31,64H37.69a3,3,0,0,1-2.87-3.86l1.8-6A3,3,0,0,1,39.49,52h11a3,3,0,0,1,2.87,2.14l1.8,6A3,3,0,0,1,52.31,64ZM39.49,54a1,1,0,0,0-1,.71l-1.8,6h0a1,1,0,0,0,1,1.29H52.31a1,1,0,0,0,1-1.29l-1.8-6a1,1,0,0,0-1-.71Zm-3.71,6.43h0Z"/><path class="cls-10" d="M15.77,60.43l1.8-6A2,2,0,0,1,19.49,53h11a2,2,0,0,1,1.92,1.43l1.8,6A2,2,0,0,1,32.31,63H17.69A2,2,0,0,1,15.77,60.43Z"/><g class="cls-11"><path class="cls-8" d="M15.77,60.43s0,.06,0,.1l15.41-7.41a2,2,0,0,0-.66-.12h-11a2,2,0,0,0-1.92,1.43Z"/></g><g class="cls-11"><path class="cls-8" d="M32.79,55.62l-.22-.72L16.52,62.61a2,2,0,0,0,1.17.39h4.25l11.41-5.48Z"/></g><path class="cls-3" d="M32.31,64H17.69a3,3,0,0,1-2.87-3.86l1.8-6A3,3,0,0,1,19.49,52h11a3,3,0,0,1,2.87,2.14l1.8,6A3,3,0,0,1,32.31,64ZM19.49,54a1,1,0,0,0-1,.71l-1.8,6h0a1,1,0,0,0,1,1.29H32.31a1,1,0,0,0,1-1.29l-1.8-6a1,1,0,0,0-1-.71Zm-3.71,6.43h0Z"/><path class="cls-10" d="M25.77,50.43l1.8-6A2,2,0,0,1,29.49,43h11a2,2,0,0,1,1.92,1.43l1.8,6A2,2,0,0,1,42.31,53H27.69A2,2,0,0,1,25.77,50.43Z"/><g class="cls-11"><path class="cls-8" d="M25.77,50.43s0,.06,0,.1l15.41-7.41a2,2,0,0,0-.66-.12h-11a2,2,0,0,0-1.92,1.43Z"/></g><g class="cls-11"><path class="cls-8" d="M42.79,45.62l-.22-.72L26.52,52.61a2,2,0,0,0,1.17.39h4.25l11.41-5.48Z"/></g><path class="cls-3" d="M42.31,54H27.69a3,3,0,0,1-2.87-3.86l1.8-6A3,3,0,0,1,29.49,42h11a3,3,0,0,1,2.87,2.14l1.8,6A3,3,0,0,1,42.31,54ZM29.49,44a1,1,0,0,0-1,.71l-1.8,6h0a1,1,0,0,0,1,1.29H42.31a1,1,0,0,0,1-1.29l-1.8-6a1,1,0,0,0-1-.71Zm-3.71,6.43h0Z"/><path class="cls-10" d="M85.77,70.43l1.8-6A2,2,0,0,1,89.49,63h11a2,2,0,0,1,1.92,1.43l1.8,6A2,2,0,0,1,102.31,73H87.69A2,2,0,0,1,85.77,70.43Z"/><g class="cls-11"><path class="cls-8" d="M85.77,70.43s0,.06,0,.1l15.41-7.41a2,2,0,0,0-.66-.12h-11a2,2,0,0,0-1.92,1.43Z"/></g><g class="cls-11"><path class="cls-8" d="M102.79,65.62l-.22-.72L86.52,72.61a2,2,0,0,0,1.17.39h4.25l11.41-5.48Z"/></g><path class="cls-3" d="M102.31,74H87.69a3,3,0,0,1-2.87-3.86l1.8-6A3,3,0,0,1,89.49,62h11a3,3,0,0,1,2.87,2.14l1.8,6A3,3,0,0,1,102.31,74ZM89.49,64a1,1,0,0,0-1,.71l-1.8,6h0a1,1,0,0,0,1,1.29h14.62a1,1,0,0,0,1-1.29l-1.8-6a1,1,0,0,0-1-.71Zm-3.71,6.43h0Z"/><path class="cls-10" d="M105.77,70.43l1.8-6A2,2,0,0,1,109.49,63h11a2,2,0,0,1,1.92,1.43l1.8,6A2,2,0,0,1,122.31,73H107.69A2,2,0,0,1,105.77,70.43Z"/><g class="cls-11"><path class="cls-8" d="M105.77,70.43s0,.06,0,.1l15.41-7.41a2,2,0,0,0-.66-.12h-11a2,2,0,0,0-1.92,1.43Z"/></g><g class="cls-11"><path class="cls-8" d="M122.79,65.62l-.22-.72-16.05,7.71a2,2,0,0,0,1.17.39h4.25l11.41-5.48Z"/></g><path class="cls-3" d="M122.31,74H107.69a3,3,0,0,1-2.87-3.86l1.8-6A3,3,0,0,1,109.49,62h11a3,3,0,0,1,2.87,2.14l1.8,6A3,3,0,0,1,122.31,74ZM109.49,64a1,1,0,0,0-1,.71l-1.8,6h0a1,1,0,0,0,1,1.29h14.62a1,1,0,0,0,1-1.29l-1.8-6a1,1,0,0,0-1-.71Zm-3.71,6.43h0Z"/><path class="cls-10" d="M105.77,60.43l1.8-6A2,2,0,0,1,109.49,53h11a2,2,0,0,1,1.92,1.43l1.8,6A2,2,0,0,1,122.31,63H107.69A2,2,0,0,1,105.77,60.43Z"/><g class="cls-11"><path class="cls-8" d="M105.77,60.43s0,.06,0,.1l15.41-7.41a2,2,0,0,0-.66-.12h-11a2,2,0,0,0-1.92,1.43Z"/></g><g class="cls-11"><path class="cls-8" d="M122.79,55.62l-.22-.72-16.05,7.71a2,2,0,0,0,1.17.39h4.25l11.41-5.48Z"/></g><path class="cls-3" d="M122.31,64H107.69a3,3,0,0,1-2.87-3.86l1.8-6A3,3,0,0,1,109.49,52h11a3,3,0,0,1,2.87,2.14l1.8,6A3,3,0,0,1,122.31,64ZM109.49,54a1,1,0,0,0-1,.71l-1.8,6h0a1,1,0,0,0,1,1.29h14.62a1,1,0,0,0,1-1.29l-1.8-6a1,1,0,0,0-1-.71Zm-3.71,6.43h0Z"/><path class="cls-10" d="M85.77,60.43l1.8-6A2,2,0,0,1,89.49,53h11a2,2,0,0,1,1.92,1.43l1.8,6A2,2,0,0,1,102.31,63H87.69A2,2,0,0,1,85.77,60.43Z"/><g class="cls-11"><path class="cls-8" d="M85.77,60.43s0,.06,0,.1l15.41-7.41a2,2,0,0,0-.66-.12h-11a2,2,0,0,0-1.92,1.43Z"/></g><g class="cls-11"><path class="cls-8" d="M102.79,55.62l-.22-.72L86.52,62.61a2,2,0,0,0,1.17.39h4.25l11.41-5.48Z"/></g><path class="cls-3" d="M102.31,64H87.69a3,3,0,0,1-2.87-3.86l1.8-6A3,3,0,0,1,89.49,52h11a3,3,0,0,1,2.87,2.14l1.8,6A3,3,0,0,1,102.31,64ZM89.49,54a1,1,0,0,0-1,.71l-1.8,6h0a1,1,0,0,0,1,1.29h14.62a1,1,0,0,0,1-1.29l-1.8-6a1,1,0,0,0-1-.71Zm-3.71,6.43h0Z"/><path class="cls-10" d="M95.77,50.43l1.8-6A2,2,0,0,1,99.49,43h11a2,2,0,0,1,1.92,1.43l1.8,6A2,2,0,0,1,112.31,53H97.69A2,2,0,0,1,95.77,50.43Z"/><g class="cls-11"><path class="cls-8" d="M95.77,50.43s0,.06,0,.1l15.41-7.41a2,2,0,0,0-.66-.12h-11a2,2,0,0,0-1.92,1.43Z"/></g><g class="cls-11"><path class="cls-8" d="M112.79,45.62l-.22-.72L96.52,52.61a2,2,0,0,0,1.17.39h4.25l11.41-5.48Z"/></g><path class="cls-3" d="M112.31,54H97.69a3,3,0,0,1-2.87-3.86l1.8-6A3,3,0,0,1,99.49,42h11a3,3,0,0,1,2.87,2.14l1.8,6A3,3,0,0,1,112.31,54ZM99.49,44a1,1,0,0,0-1,.71l-1.8,6h0a1,1,0,0,0,1,1.29h14.62a1,1,0,0,0,1-1.29l-1.8-6a1,1,0,0,0-1-.71Zm-3.71,6.43h0Z"/></g><rect class="cls-7" height="92" rx="4" ry="4" width="50" x="33" y="33"/><path class="cls-3" d="M79,126H37a5,5,0,0,1-5-5V37a5,5,0,0,1,5-5H79a5,5,0,0,1,5,5v84A5,5,0,0,1,79,126ZM37,34a3,3,0,0,0-3,3v84a3,3,0,0,0,3,3H79a3,3,0,0,0,3-3V37a3,3,0,0,0-3-3Z"/><path class="cls-3" d="M61,38H55a1,1,0,0,1,0-2h6a1,1,0,0,1,0,2Z"/><circle class="cls-12" cx="58" cy="119" r="3"/><path class="cls-3" d="M58,123a4,4,0,1,1,4-4A4,4,0,0,1,58,123Zm0-6a2,2,0,1,0,2,2A2,2,0,0,0,58,117Z"/><rect class="cls-2" height="72" width="50" x="33" y="41.01"/><g class="cls-1"><polygon class="cls-13" points="33 41 39 47.01 77 47.01 83 41.01 33 41"/></g><path class="cls-3" d="M83,114H33a1,1,0,0,1-1-1V41a1,1,0,0,1,1-1H83a1,1,0,0,1,1,1v72A1,1,0,0,1,83,114Zm-49-2H82V42H34Z"/><path class="cls-3" d="M77,108H39a1,1,0,0,1-1-1V47a1,1,0,0,1,1-1H77a1,1,0,0,1,1,1v60A1,1,0,0,1,77,108Zm-37-2H76V48H40Z"/><path class="cls-3" d="M39,48a1,1,0,0,1-.71-.29l-6-6a1,1,0,0,1,1.41-1.41l6,6A1,1,0,0,1,39,48Z"/><path class="cls-3" d="M33,114a1,1,0,0,1-.71-1.71l6-6a1,1,0,0,1,1.41,1.41l-6,6A1,1,0,0,1,33,114Z"/><path class="cls-3" d="M77,48a1,1,0,0,1-.71-1.71l6-6a1,1,0,0,1,1.41,1.41l-6,6A1,1,0,0,1,77,48Z"/><path class="cls-3" d="M83,114a1,1,0,0,1-.71-.29l-6-6a1,1,0,0,1,1.41-1.41l6,6A1,1,0,0,1,83,114Z"/><path class="cls-2" d="M100,121h6a2,2,0,0,0,2-2V35a2,2,0,0,0-2-2h-6a1,1,0,0,0-1,1v86A1,1,0,0,0,100,121Z"/><g class="cls-1"><path class="cls-14" d="M108,50h-3a4,4,0,1,0,0,8h3Z"/></g><g class="cls-1"><path class="cls-14" d="M108,100h-3a4,4,0,0,0,0,8h3Z"/></g><g class="cls-1"><path class="cls-14" d="M108,115v4a2,2,0,0,1-2,2h-6a1,1,0,0,1-1-1v-3h7A2,2,0,0,0,108,115Z"/></g><g class="cls-1"><path class="cls-8" d="M100,33h6a2,2,0,0,1,2,2v4a2,2,0,0,0-2-2H99V34A1,1,0,0,1,100,33Z"/></g><path class="cls-7" d="M82.67,112.23l14.74,7.67a1,1,0,0,0,1.58-.81V35a1,1,0,0,0-1.58-.81L82.67,41.83A4,4,0,0,0,81,45.09V109A4,4,0,0,0,82.67,112.23Z"/><g class="cls-1"><path class="cls-9" d="M82.67,108.23l14.74,7.67a1,1,0,0,0,1.58-.81v4a1,1,0,0,1-1.58.81l-14.74-7.67A4,4,0,0,1,81,109v-4A4,4,0,0,0,82.67,108.23Z"/></g><path class="cls-8" d="M82.67,41.83l14.74-7.67A1,1,0,0,1,99,35v4a1,1,0,0,0-1.58-.81L82.67,45.83A4,4,0,0,0,81,49.09v-4A4,4,0,0,1,82.67,41.83Z"/><path class="cls-3" d="M106,122h-5.72a5,5,0,0,1-2.85-.89l-15.23-8-.11-.07A5,5,0,0,1,80,109V45.09A5,5,0,0,1,82.09,41l.11-.07,15.23-8a5,5,0,0,1,2.85-.89H106a3,3,0,0,1,3,3v84A3,3,0,0,1,106,122ZM83.2,111.38l15.22,8,.11.07a3,3,0,0,0,1.74.56H106a1,1,0,0,0,1-1V35a1,1,0,0,0-1-1h-5.72a3,3,0,0,0-1.74.56l-.11.07-15.22,8A3,3,0,0,0,82,45.09V109A3,3,0,0,0,83.2,111.38ZM98,33.77h0Z"/><path class="cls-12" d="M105,105h3V99h-3a3,3,0,0,0-3,3h0A3,3,0,0,0,105,105Z"/><path class="cls-3" d="M108,106h-3a4,4,0,0,1,0-8h3a1,1,0,0,1,1,1v6A1,1,0,0,1,108,106Zm-3-6a2,2,0,0,0,0,4h2v-4Z"/><circle class="cls-8" cx="108.01" cy="102.01" r="3"/><path class="cls-3" d="M108,106a4,4,0,1,1,4-4A4,4,0,0,1,108,106Zm0-6a2,2,0,1,0,2,2A2,2,0,0,0,108,100Z"/><path class="cls-12" d="M105,55h3V49h-3a3,3,0,0,0-3,3h0A3,3,0,0,0,105,55Z"/><path class="cls-3" d="M108,56h-3a4,4,0,0,1,0-8h3a1,1,0,0,1,1,1v6A1,1,0,0,1,108,56Zm-3-6a2,2,0,0,0,0,4h2V50Z"/><circle class="cls-8" cx="108.01" cy="52" r="3"/><path class="cls-3" d="M108,56a4,4,0,1,1,4-4A4,4,0,0,1,108,56Zm0-6a2,2,0,1,0,2,2A2,2,0,0,0,108,50Z"/><path class="cls-3" d="M84,46a1,1,0,0,1-.71-.29,1.68,1.68,0,0,1-.12-.15l-.1-.17a1.51,1.51,0,0,1,0-.19.69.69,0,0,1,0-.2.63.63,0,0,1,0-.19,1.16,1.16,0,0,1,0-.19,1,1,0,0,1,.1-.17.61.61,0,0,1,.12-.15.84.84,0,0,1,.33-.22,1,1,0,0,1,.76,0,1,1,0,0,1,.33.22,1,1,0,0,1,.12.15.57.57,0,0,1,.09.17.59.59,0,0,1,.06.19A1.14,1.14,0,0,1,85,45a1.26,1.26,0,0,1,0,.2.68.68,0,0,1-.06.19.72.72,0,0,1-.09.17l-.12.15A1,1,0,0,1,84,46Z"/><path class="cls-3" d="M84,110a1,1,0,0,1-.38-.08.93.93,0,0,1-.33-.21,1.49,1.49,0,0,1-.22-.33,1.08,1.08,0,0,1,0-.76,1.29,1.29,0,0,1,.22-.33.93.93,0,0,1,.33-.21.92.92,0,0,1,.76,0,1.16,1.16,0,0,1,.33.21,1,1,0,0,1,.21.33A1,1,0,0,1,85,109a1,1,0,0,1-1,1Z"/><path class="cls-3" d="M96,40a1,1,0,0,1-.71-.29,1,1,0,0,1-.21-.32A1.09,1.09,0,0,1,95,39a1,1,0,0,1,.08-.38,1.15,1.15,0,0,1,.21-.33,1.06,1.06,0,0,1,1.42,0,1.15,1.15,0,0,1,.21.33A.85.85,0,0,1,97,39a1.05,1.05,0,0,1-.29.71A1,1,0,0,1,96,40Z"/><path class="cls-3" d="M96,116a1,1,0,0,1-1-1,1,1,0,0,1,.29-.71,1.15,1.15,0,0,1,.33-.21,1,1,0,0,1,1.09.21A1.05,1.05,0,0,1,97,115a1.14,1.14,0,0,1,0,.19.59.59,0,0,1-.06.19.57.57,0,0,1-.09.17,1,1,0,0,1-.12.16l-.15.12a.75.75,0,0,1-.18.09.63.63,0,0,1-.18.06Z"/><path class="cls-12" d="M108,65v4h3V85h-3v4h3a4,4,0,0,0,4-4V69a4,4,0,0,0-4-4Z"/><path class="cls-3" d="M111,90h-3a1,1,0,0,1-1-1V85a1,1,0,0,1,1-1h2V70h-2a1,1,0,0,1-1-1V65a1,1,0,0,1,1-1h3a5,5,0,0,1,5,5V85A5,5,0,0,1,111,90Zm-2-2h2a3,3,0,0,0,3-3V69a3,3,0,0,0-3-3h-2v2h2a1,1,0,0,1,1,1V85a1,1,0,0,1-1,1h-2Z"/><line class="cls-12" x1="99" x2="99" y1="33.24" y2="120.82"/><path class="cls-3" d="M99,121.82a1,1,0,0,1-1-1V33.24a1,1,0,0,1,2,0v87.58A1,1,0,0,1,99,121.82Z"/><rect class="cls-8" height="5" rx="2" ry="2" width="4" x="79" y="51"/><path class="cls-3" d="M81,57a3,3,0,0,1-3-3V53a3,3,0,0,1,6,0v1A3,3,0,0,1,81,57Zm0-5a1,1,0,0,0-1,1v1a1,1,0,0,0,2,0V53A1,1,0,0,0,81,52Z"/><rect class="cls-8" height="5" rx="2" ry="2" width="4" x="79" y="98"/><path class="cls-3" d="M81,104a3,3,0,0,1-3-3v-1a3,3,0,0,1,6,0v1A3,3,0,0,1,81,104Zm0-5a1,1,0,0,0-1,1v1a1,1,0,0,0,2,0v-1A1,1,0,0,0,81,99Z"/><path class="cls-10" d="M41.77,80.43l1.8-6A2,2,0,0,1,45.49,73h11a2,2,0,0,1,1.92,1.43l1.8,6A2,2,0,0,1,58.31,83H43.69A2,2,0,0,1,41.77,80.43Z"/><g class="cls-11"><path class="cls-8" d="M41.77,80.43s0,.06,0,.1l15.41-7.41a2,2,0,0,0-.66-.12h-11a2,2,0,0,0-1.92,1.43Z"/></g><g class="cls-11"><path class="cls-8" d="M58.79,75.62l-.22-.72L42.52,82.61a2,2,0,0,0,1.17.39h4.25l11.41-5.48Z"/></g><path class="cls-3" d="M58.31,84H43.69a3,3,0,0,1-2.87-3.86l1.8-6A3,3,0,0,1,45.49,72h11a3,3,0,0,1,2.87,2.14l1.8,6A3,3,0,0,1,58.31,84ZM45.49,74a1,1,0,0,0-1,.71l-1.8,6h0a1,1,0,0,0,1,1.29H58.31a1,1,0,0,0,1-1.29l-1.8-6a1,1,0,0,0-1-.71Zm-3.71,6.43h0Z"/><path class="cls-10" d="M41.77,60.43l1.8-6A2,2,0,0,1,45.49,53h11a2,2,0,0,1,1.92,1.43l1.8,6A2,2,0,0,1,58.31,63H43.69A2,2,0,0,1,41.77,60.43Z"/><g class="cls-11"><path class="cls-8" d="M41.77,60.43s0,.06,0,.1l15.41-7.41a2,2,0,0,0-.66-.12h-11a2,2,0,0,0-1.92,1.43Z"/></g><g class="cls-11"><path class="cls-8" d="M58.79,55.62l-.22-.72L42.52,62.61a2,2,0,0,0,1.17.39h4.25l11.41-5.48Z"/></g><path class="cls-3" d="M58.31,64H43.69a3,3,0,0,1-2.87-3.86l1.8-6A3,3,0,0,1,45.49,52h11a3,3,0,0,1,2.87,2.14l1.8,6A3,3,0,0,1,58.31,64ZM45.49,54a1,1,0,0,0-1,.71l-1.8,6h0a1,1,0,0,0,1,1.29H58.31a1,1,0,0,0,1-1.29l-1.8-6a1,1,0,0,0-1-.71Zm-3.71,6.43h0Z"/><path class="cls-10" d="M46.77,97.43l1.8-6A2,2,0,0,1,50.49,90h11a2,2,0,0,1,1.92,1.43l1.8,6A2,2,0,0,1,63.31,100H48.69A2,2,0,0,1,46.77,97.43Z"/><g class="cls-11"><path class="cls-8" d="M46.77,97.43s0,.06,0,.1l15.41-7.41a2,2,0,0,0-.66-.12h-11a2,2,0,0,0-1.92,1.43Z"/></g><g class="cls-11"><path class="cls-8" d="M63.79,92.62l-.22-.72L47.52,99.61a2,2,0,0,0,1.17.39h4.25l11.41-5.48Z"/></g><path class="cls-3" d="M63.31,101H48.69a3,3,0,0,1-2.87-3.86l1.8-6A3,3,0,0,1,50.49,89h11a3,3,0,0,1,2.87,2.14l1.8,6A3,3,0,0,1,63.31,101ZM50.49,91a1,1,0,0,0-1,.71l-1.8,6h0a1,1,0,0,0,1,1.29H63.31a1,1,0,0,0,1-1.29l-1.8-6a1,1,0,0,0-1-.71Zm-3.71,6.43h0Z"/><path class="cls-10" d="M55.77,107.43l1.8-6A2,2,0,0,1,59.49,100h11a2,2,0,0,1,1.92,1.43l1.8,6A2,2,0,0,1,72.31,110H57.69A2,2,0,0,1,55.77,107.43Z"/><g class="cls-11"><path class="cls-8" d="M55.77,107.43s0,.06,0,.1l15.41-7.41a2,2,0,0,0-.66-.12h-11a2,2,0,0,0-1.92,1.43Z"/></g><g class="cls-11"><path class="cls-8" d="M72.79,102.62l-.22-.72-16.05,7.71a2,2,0,0,0,1.17.39h4.25l11.41-5.48Z"/></g><path class="cls-3" d="M72.31,111H57.69a3,3,0,0,1-2.87-3.86l1.8-6A3,3,0,0,1,59.49,99h11a3,3,0,0,1,2.87,2.14l1.8,6A3,3,0,0,1,72.31,111ZM59.49,101a1,1,0,0,0-1,.71l-1.8,6h0a1,1,0,0,0,1,1.29H72.31a1,1,0,0,0,1-1.29l-1.8-6a1,1,0,0,0-1-.71Zm-3.71,6.43h0Z"/><polygon class="cls-15" points="47.48 103.8 59 110 43 108.28 47.48 103.8"/><polygon class="cls-15" points="43 101.39 47.48 103.8 43 108.28 43 101.39"/><polygon class="cls-15" points="46.69 97.69 47.68 103.6 47.48 103.8 43 101.39 46.69 97.69"/><polygon class="cls-8" points="46.69 97.69 52.6 98.68 47.68 103.6 46.69 97.69"/><polygon class="cls-15" points="50.38 94 52.8 98.48 52.6 98.68 46.69 97.69 50.38 94"/><polygon class="cls-16" points="52.6 98.68 52.8 98.48 59 110 47.48 103.8 47.68 103.6 52.6 98.68"/><polygon class="cls-15" points="57.28 94 59 110 52.8 98.48 57.28 94"/><polygon class="cls-15" points="57.28 94 52.8 98.48 50.38 94 57.28 94"/><path class="cls-3" d="M43,109.28a1,1,0,0,1-1-1v-6.89a1,1,0,0,1,.29-.71l7.38-7.38a1,1,0,0,1,.71-.29h6.89A1,1,0,0,1,58,94.71L43.71,109A1,1,0,0,1,43,109.28Zm1-7.48v4.06L54.86,95H50.8Z"/><path class="cls-3" d="M59,111a1,1,0,0,1-.47-.12l-16-8.62a1,1,0,1,1,.95-1.76l16,8.62A1,1,0,0,1,59,111Z"/><path class="cls-3" d="M47.68,104.6a1,1,0,0,1-1-.84l-1-5.91a1,1,0,0,1,2-.33l1,5.91a1,1,0,0,1-.82,1.15Z"/><path class="cls-3" d="M52.6,99.68h-.17l-5.91-1a1,1,0,1,1,.33-2l5.91,1a1,1,0,0,1-.16,2Z"/><path class="cls-3" d="M59,111a1,1,0,0,1-.88-.53l-8.62-16a1,1,0,0,1,1.76-.95l8.62,16a1,1,0,0,1-.41,1.35A1,1,0,0,1,59,111Z"/><path class="cls-3" d="M59,111h-.11l-16-1.72a1,1,0,0,1-.89-1.1,1,1,0,0,1,1.1-.89l14.77,1.59L56.28,94.11a1,1,0,0,1,.89-1.1,1,1,0,0,1,1.1.89l1.72,16A1,1,0,0,1,59,111Z"/><polygon class="cls-17" points="63.9 71.97 56.48 83 59.82 67 63.9 71.97"/><polygon class="cls-17" points="66.79 67.69 63.9 71.97 59.82 67 66.79 67.69"/><polygon class="cls-17" points="70.15 71.79 64.08 72.19 63.9 71.97 66.79 67.69 70.15 71.79"/><polygon class="cls-8" points="70.15 71.79 68.57 77.66 64.08 72.19 70.15 71.79"/><polygon class="cls-17" points="73.52 75.89 68.75 77.88 68.57 77.66 70.15 71.79 73.52 75.89"/><polygon class="cls-18" points="68.57 77.66 68.75 77.88 56.48 83 63.9 71.97 64.08 72.19 68.57 77.66"/><polygon class="cls-17" points="72.83 82.86 56.48 83 68.75 77.88 72.83 82.86"/><polygon class="cls-17" points="72.83 82.86 68.75 77.88 73.52 75.89 72.83 82.86"/><path class="cls-3" d="M72.83,83.85a1,1,0,0,1-.77-.37L59,67.63A1,1,0,0,1,59.92,66l7,.69a1,1,0,0,1,.67.36l6.73,8.2a1,1,0,0,1,.22.73l-.69,7a1,1,0,0,1-1,.9ZM62.13,68.23l9.94,12.12.41-4.15-6.2-7.56Z"/><path class="cls-3" d="M56.48,84a1,1,0,0,1-.83-1.56L66,67.13a1,1,0,0,1,1.66,1.12L57.31,83.56A1,1,0,0,1,56.48,84Z"/><path class="cls-3" d="M64.08,73.19a1,1,0,0,1-.07-2l6.07-.41a1,1,0,1,1,.13,2l-6.07.41Z"/><path class="cls-3" d="M68.57,78.66a1,1,0,0,1-.26,0,1,1,0,0,1-.71-1.23l1.58-5.87a1,1,0,0,1,1.93.52l-1.58,5.87A1,1,0,0,1,68.57,78.66Z"/><path class="cls-3" d="M56.48,84a1,1,0,0,1-.39-1.92l17-7.11a1,1,0,0,1,.77,1.85l-17,7.11A1,1,0,0,1,56.48,84Z"/><path class="cls-3" d="M56.48,84a1,1,0,0,1-1-1.2l3.34-16a1,1,0,1,1,2,.41L57.72,82l15.1-.13h0a1,1,0,0,1,0,2L56.49,84Z"/><path class="cls-3" d="M67.3,53.16a1,1,0,0,1-.71-.29L64.12,50.4a1,1,0,0,1-.21-1.1l2-4.68a1,1,0,0,1,1.63-.31l5.14,5.14a1,1,0,0,1-.31,1.63l-4.68,2A1,1,0,0,1,67.3,53.16ZM66,49.46,67.53,51l2.7-1.16-3.06-3.06Z"/><polygon class="cls-5" points="71.98 50.15 71.98 57.86 67.3 55.86 67.3 52.16 71.98 50.15"/><polygon class="cls-5" points="71.98 57.86 66.83 63.01 64.83 58.33 67.3 55.86 71.98 57.86"/><polygon class="cls-5" points="64.83 58.33 66.83 63.01 59.12 63.01 61.13 58.33 64.83 58.33"/><polygon class="cls-5" points="61.16 58.31 59.16 62.99 54.01 57.85 58.69 55.84 61.16 58.31"/><polygon class="cls-5" points="58.66 52.14 58.66 55.84 53.98 57.85 53.98 50.14 58.66 52.14"/><polygon class="cls-5" points="59.12 45.01 61.13 49.69 58.66 52.16 53.98 50.15 59.12 45.01"/><polygon class="cls-5" points="72.02 50.15 67.34 52.16 64.87 49.69 66.88 45.01 72.02 50.15"/><polygon class="cls-8" points="66.83 45.01 64.83 49.69 61.13 49.69 59.12 45.01 66.83 45.01"/><polygon class="cls-6" points="67.3 52.16 67.3 55.86 64.83 58.33 61.13 58.33 58.66 55.86 58.66 52.16 61.13 49.69 64.83 49.69 67.3 52.16"/><path class="cls-3" d="M66.84,64H59.12a1,1,0,0,1-.71-.29l-5.14-5.14a1,1,0,0,1-.29-.71V50.15a1,1,0,0,1,.29-.71l5.14-5.14a1,1,0,0,1,.71-.29h7.71a1,1,0,0,1,.71.29l5.14,5.14a1,1,0,0,1,.29.71v7.71a1,1,0,0,1-.29.71l-5.14,5.14A1,1,0,0,1,66.84,64Zm-7.3-2h6.89L71,57.45V50.56L66.42,46H59.54L55,50.56v6.89Z"/><path class="cls-3" d="M64.83,59.33h-3.7a1,1,0,0,1-.71-.29L58,56.57a1,1,0,0,1-.29-.71v-3.7a1,1,0,0,1,.29-.71L60.42,49a1,1,0,0,1,.71-.29h3.7a1,1,0,0,1,.71.29L68,51.45a1,1,0,0,1,.29.71v3.7a1,1,0,0,1-.29.71L65.54,59A1,1,0,0,1,64.83,59.33Zm-3.29-2h2.87l1.88-1.88V52.57l-1.88-1.88H61.54l-1.88,1.88v2.88Z"/><path class="cls-3" d="M61.13,50.69a1,1,0,0,1-.92-.61l-2-4.68A1,1,0,0,1,60,44.61l2,4.68a1,1,0,0,1-.92,1.39Z"/><path class="cls-3" d="M64.83,50.69a1,1,0,0,1-.92-1.39l2-4.68a1,1,0,0,1,1.84.79l-2,4.68A1,1,0,0,1,64.83,50.69Z"/><path class="cls-3" d="M58.66,53.16a1,1,0,0,1-.39-.08l-4.68-2a1,1,0,1,1,.79-1.84l4.68,2a1,1,0,0,1-.39,1.92Z"/><path class="cls-3" d="M54,58.87a1,1,0,0,1-.39-1.92l4.68-2a1,1,0,1,1,.79,1.84l-4.68,2A1,1,0,0,1,54,58.87Z"/><path class="cls-3" d="M67.3,53.16a1,1,0,0,1-.39-1.92l4.68-2a1,1,0,1,1,.79,1.84l-4.68,2A1,1,0,0,1,67.3,53.16Z"/><path class="cls-3" d="M72,58.87a1,1,0,0,1-.39-.08l-4.68-2a1,1,0,1,1,.79-1.84l4.68,2A1,1,0,0,1,72,58.87Z"/><path class="cls-3" d="M66.84,64a1,1,0,0,1-.92-.61l-2-4.68a1,1,0,0,1,1.84-.79l2,4.68A1,1,0,0,1,66.84,64Z"/><path class="cls-3" d="M59.12,64a1,1,0,0,1-.92-1.39l2-4.68a1,1,0,0,1,1.84.79L60,63.4A1,1,0,0,1,59.12,64Z"/><rect class="cls-12" height="4" width="40" x="38" y="63.01"/><path class="cls-3" d="M78,68H38a1,1,0,0,1-1-1V63a1,1,0,0,1,1-1H78a1,1,0,0,1,1,1v4A1,1,0,0,1,78,68ZM39,66H77V64H39Z"/><rect class="cls-12" height="4" width="40" x="38" y="83.01"/><path class="cls-3" d="M78,88H38a1,1,0,0,1-1-1V83a1,1,0,0,1,1-1H78a1,1,0,0,1,1,1v4A1,1,0,0,1,78,88ZM39,86H77V84H39Z"/><path class="cls-8" d="M48.92,88.39a5.55,5.55,0,0,0,3.69,3.69q2.77.92,0,1.85a5.55,5.55,0,0,0-3.69,3.69q-.92,2.77-1.85,0a5.55,5.55,0,0,0-3.69-3.69q-2.77-.92,0-1.85a5.55,5.55,0,0,0,3.69-3.69Q48,85.62,48.92,88.39Z"/><path class="cls-10" d="M12.76,101.16a4.62,4.62,0,0,0,3.08,3.08q2.31.77,0,1.54a4.62,4.62,0,0,0-3.08,3.08q-.77,2.31-1.54,0a4.62,4.62,0,0,0-3.08-3.08q-2.31-.77,0-1.54a4.62,4.62,0,0,0,3.08-3.08Q12,98.85,12.76,101.16Z"/><path class="cls-8" d="M55,44.57A3.7,3.7,0,0,0,57.48,47q1.85.62,0,1.23A3.7,3.7,0,0,0,55,50.73q-.62,1.85-1.23,0a3.7,3.7,0,0,0-2.46-2.46q-1.85-.62,0-1.23a3.7,3.7,0,0,0,2.46-2.46Q54.4,42.73,55,44.57Z"/></svg>