<?xml version="1.0" ?><svg data-name="003" id="_003" viewBox="0 0 128 128" xmlns="http://www.w3.org/2000/svg" xmlns:xlink="http://www.w3.org/1999/xlink"><defs><style>.cls-1{fill:none;}.cls-2{opacity:0.3;}.cls-3{fill:#97c1ff;}.cls-4{fill:#939fc6;}.cls-5{opacity:0.5;}.cls-6{fill:#fff;}.cls-7{fill:#6d6daa;}.cls-8{fill:#ced8ee;}.cls-9{fill:#7690a8;}.cls-10{fill:#eef6ff;}.cls-11{clip-path:url(#clip-path);}.cls-12{fill:#d6b5b0;}.cls-13{fill:#96d7ff;}.cls-14{fill:#c7e9ff;}.cls-15{fill:#0070b8;}.cls-16{fill:#b1f1a8;}.cls-17{fill:#48bc33;}.cls-18{opacity:0.6;}.cls-19{fill:#ff99b1;}</style><clipPath id="clip-path"><path class="cls-1" d="M111.3,104.77a30,30,0,0,0,8.59-33.26,19.69,19.69,0,0,1-.31-12.74A37,37,0,0,0,72.22,12.7a21,21,0,0,1-17.37-1.88c-13.79-8-33.73-3.81-42,16.68a16.6,16.6,0,0,0-.75,8A20.58,20.58,0,0,1,8.29,49.78,28.49,28.49,0,0,0,20.41,92.55,20.06,20.06,0,0,1,31.79,105,29,29,0,0,0,79.62,117.4,20.08,20.08,0,0,1,92.9,112,29.83,29.83,0,0,0,111.3,104.77Z"/></clipPath></defs><title/><g class="cls-2"><path class="cls-3" d="M111.3,104.77a30,30,0,0,0,8.59-33.26,19.69,19.69,0,0,1-.31-12.74A37,37,0,0,0,72.22,12.7a21,21,0,0,1-17.37-1.88c-13.79-8-33.73-3.81-42,16.68a16.6,16.6,0,0,0-.75,8A20.58,20.58,0,0,1,8.29,49.78,28.49,28.49,0,0,0,20.41,92.55,20.06,20.06,0,0,1,31.79,105,29,29,0,0,0,79.62,117.4,20.08,20.08,0,0,1,92.9,112,29.83,29.83,0,0,0,111.3,104.77Z"/><polyline class="cls-4" points="119 52.2 89.36 16.55 44.93 50.99"/><g class="cls-5"><polygon class="cls-6" points="89.36 20.55 115.42 51.62 119 52.2 89.36 16.55 44.93 50.99 49.23 51.68 89.36 20.55"/></g><path class="cls-7" d="M119,53.2a1,1,0,0,1-.77-.36l-29-34.9L45.54,51.78a1,1,0,0,1-1.22-1.58L88.74,15.76a1,1,0,0,1,1.38.15l29.64,35.64A1,1,0,0,1,119,53.2Z"/><polyline class="cls-4" points="7.92 54.2 40.57 17.55 71 43.99"/><g class="cls-5"><polygon class="cls-6" points="40.57 17.55 7.92 54.2 12.09 53.52 40.57 21.55 67.11 44.62 71 43.99 40.57 17.55"/></g><path class="cls-7" d="M7.92,55.2a1,1,0,0,1-.75-1.67L39.82,16.89a1,1,0,0,1,1.4-.09L71.65,43.23a1,1,0,0,1-1.31,1.51L40.66,19l-32,35.91A1,1,0,0,1,7.92,55.2Z"/><polygon class="cls-8" points="104.7 49.78 65.95 3.29 27.21 49.78 104.7 49.78"/><g class="cls-2"><polygon class="cls-9" points="58.9 23.16 66.15 28.99 66.55 29 73.28 23.28 85.26 25.4 82.72 22.34 72.61 20.28 66.47 25.11 59.9 20.16 50.5 21.83 47.77 25.11 58.9 23.16"/></g><polygon class="cls-10" points="66.4 2.75 82.72 22.34 72.61 20.28 66.47 25.11 59.9 20.16 50.5 21.83 66.4 2.75"/><polygon class="cls-6" points="66.4 6.75 78.7 21.52 82.72 22.34 66.4 2.75 50.5 21.83 54.42 21.13 66.4 6.75"/><path class="cls-7" d="M66.47,26.11a1,1,0,0,1-.6-.2l-6.22-4.69-9,1.59a1,1,0,0,1-1.18-1,1,1,0,0,1,.89-1l9.33-1.66a1,1,0,0,1,.78.19l6,4.49L72,19.5a1,1,0,0,1,.82-.19l10.11,2.06a1,1,0,0,1-.4,2l-9.66-2L67.08,25.9A1,1,0,0,1,66.47,26.11Z"/><path class="cls-7" d="M105.14,50.25a1,1,0,0,1-.77-.36L66.4,4.32l-38,45.57a1,1,0,1,1-1.54-1.28L65.63,2.11a1,1,0,0,1,1.54,0l38.75,46.49a1,1,0,0,1-.77,1.64Z"/><g class="cls-11"><rect class="cls-12" height="56" width="126" x="1" y="69.02"/><g class="cls-2"><rect class="cls-6" height="4" width="126" x="1" y="69.02"/></g><rect class="cls-13" height="20" width="126" x="1" y="49.01"/><rect class="cls-14" height="4" width="126" x="1" y="65.01"/><g class="cls-2"><rect class="cls-15" height="4" width="126" x="1" y="49.01"/></g><path class="cls-6" d="M31,57.13a3.11,3.11,0,0,1-2.21-.91,1.12,1.12,0,0,0-1.59,0,3.12,3.12,0,0,1-4.41,0,1.12,1.12,0,0,0-1.59,0,1,1,0,0,1-1.41-1.41,3.13,3.13,0,0,1,4.41,0,1.12,1.12,0,0,0,1.59,0,3.13,3.13,0,0,1,4.41,0,1.12,1.12,0,0,0,1.59,0,3.13,3.13,0,0,1,4.41,0,1,1,0,0,1-1.41,1.42,1.12,1.12,0,0,0-1.59,0A3.11,3.11,0,0,1,31,57.13Z"/><path class="cls-6" d="M67,57.13a3.11,3.11,0,0,1-2.21-.91,1.12,1.12,0,0,0-1.59,0,3.13,3.13,0,0,1-4.41,0,1.12,1.12,0,0,0-1.59,0,1,1,0,0,1-1.41-1.41,3.13,3.13,0,0,1,4.41,0,1.12,1.12,0,0,0,1.59,0,3.13,3.13,0,0,1,4.41,0,1.12,1.12,0,0,0,1.59,0,3.13,3.13,0,0,1,4.41,0,1,1,0,0,1-1.41,1.41,1.12,1.12,0,0,0-1.59,0A3.11,3.11,0,0,1,67,57.13Z"/><path class="cls-6" d="M14,63.14a3.11,3.11,0,0,1-2.21-.91,1.12,1.12,0,0,0-1.59,0,3.13,3.13,0,0,1-4.41,0A1,1,0,0,1,7.2,60.81a1.12,1.12,0,0,0,1.59,0,3.13,3.13,0,0,1,4.41,0,1.12,1.12,0,0,0,1.59,0,1,1,0,1,1,1.41,1.41A3.11,3.11,0,0,1,14,63.14Z"/><path class="cls-6" d="M99,57.13a3.11,3.11,0,0,1-2.21-.91,1.12,1.12,0,0,0-1.59,0,3.13,3.13,0,0,1-4.41,0,1,1,0,0,1,1.41-1.41,1.12,1.12,0,0,0,1.59,0,3.13,3.13,0,0,1,4.41,0,1.12,1.12,0,0,0,1.59,0,1,1,0,1,1,1.41,1.41A3.11,3.11,0,0,1,99,57.13Z"/><path class="cls-6" d="M79,64.13a3.12,3.12,0,0,1-2.21-.91,1,1,0,1,1,1.41-1.42,1.12,1.12,0,0,0,1.59,0,3.13,3.13,0,0,1,4.41,0,1.12,1.12,0,0,0,1.59,0,1,1,0,0,1,1.41,1.41,3.13,3.13,0,0,1-4.41,0,1.12,1.12,0,0,0-1.59,0A3.11,3.11,0,0,1,79,64.13Z"/><path class="cls-6" d="M117,64.14a3.11,3.11,0,0,1-2.21-.91,1.12,1.12,0,0,0-1.59,0,3.13,3.13,0,0,1-4.41,0,1.12,1.12,0,0,0-1.59,0,3.13,3.13,0,0,1-4.41,0,1.15,1.15,0,0,0-1.59,0,1,1,0,0,1-1.41-1.41,3.13,3.13,0,0,1,4.41,0,1.12,1.12,0,0,0,1.59,0,3.13,3.13,0,0,1,4.41,0,1.12,1.12,0,0,0,1.59,0,3.13,3.13,0,0,1,4.41,0,1.12,1.12,0,0,0,1.59,0,3.13,3.13,0,0,1,4.41,0,1,1,0,0,1-1.41,1.41,1.15,1.15,0,0,0-1.59,0A3.11,3.11,0,0,1,117,64.14Z"/><path class="cls-6" d="M53,64.13a3.11,3.11,0,0,1-2.21-.91,1.12,1.12,0,0,0-1.59,0,3.12,3.12,0,0,1-4.41,0,1.12,1.12,0,0,0-1.59,0,3.12,3.12,0,0,1-4.41,0,1.12,1.12,0,0,0-1.59,0,1,1,0,0,1-1.41-1.41,3.13,3.13,0,0,1,4.41,0,1.12,1.12,0,0,0,1.59,0,3.13,3.13,0,0,1,4.41,0,1.12,1.12,0,0,0,1.59,0,3.13,3.13,0,0,1,4.41,0,1.12,1.12,0,0,0,1.59,0,3.13,3.13,0,0,1,4.41,0,1,1,0,0,1-1.41,1.42,1.12,1.12,0,0,0-1.59,0A3.11,3.11,0,0,1,53,64.13Z"/><path class="cls-7" d="M127,50H1a1,1,0,0,1,0-2H127a1,1,0,0,1,0,2Z"/><path class="cls-7" d="M127,70H1a1,1,0,0,1,0-2H127a1,1,0,0,1,0,2Z"/></g><rect class="cls-12" height="7.24" width="5.79" x="33.11" y="87.75"/><path class="cls-7" d="M38.9,96H33.11a1,1,0,0,1-1-1V87.75a1,1,0,0,1,1-1H38.9a1,1,0,0,1,1,1V95A1,1,0,0,1,38.9,96Zm-4.79-2H37.9V88.75H34.11Z"/><path class="cls-16" d="M27.3,80.51,22.3,88a2.64,2.64,0,0,0,1.78,4.08l.34,0a2.9,2.9,0,0,0,2.9-2.9,2.9,2.9,0,0,0,5.79,0,2.9,2.9,0,1,0,5.79,0,2.9,2.9,0,0,0,5.79,0,2.9,2.9,0,0,0,2.9,2.9l.34,0A2.64,2.64,0,0,0,49.72,88l-5-7.49L36,73.27Z"/><g class="cls-2"><path class="cls-17" d="M30.21,82.22a3.89,3.89,0,0,0,5.79,0,3.89,3.89,0,0,0,5.79,0,3.89,3.89,0,0,0,2.9,1.29l.46,0a3.39,3.39,0,0,0,1.26-.43l-1.7-2.54L36,73.27,27.3,80.51l-1.7,2.54a3.4,3.4,0,0,0,1.26.43A4,4,0,0,0,30.21,82.22Z"/></g><g class="cls-2"><path class="cls-17" d="M49.69,88a2.41,2.41,0,0,1-1.76,1.11l-.34,0a2.9,2.9,0,0,1-2.9-2.9,2.9,2.9,0,0,1-5.79,0,2.9,2.9,0,0,1-5.79,0,2.9,2.9,0,0,1-5.79,0,2.9,2.9,0,0,1-2.9,2.9l-.34,0A2.41,2.41,0,0,1,22.32,88l0,0a2.64,2.64,0,0,0,1.78,4.08l.34,0a2.9,2.9,0,0,0,2.9-2.9,2.9,2.9,0,0,0,5.79,0,2.9,2.9,0,0,0,5.79,0,2.9,2.9,0,0,0,5.79,0,2.9,2.9,0,0,0,2.9,2.9l.34,0A2.64,2.64,0,0,0,49.72,88Z"/></g><path class="cls-7" d="M47.59,93.1a3.89,3.89,0,0,1-2.9-1.29,3.89,3.89,0,0,1-5.79,0,3.89,3.89,0,0,1-5.79,0,3.89,3.89,0,0,1-5.79,0A4,4,0,0,1,24,93.07a3.47,3.47,0,0,1-2.74-2,3.71,3.71,0,0,1,.23-3.62l5-7.5a1,1,0,0,1,.19-.21l8.71-7.24a1,1,0,0,1,1.28,0l8.71,7.24a1,1,0,0,1,.19.21l5,7.49a3.72,3.72,0,0,1,.24,3.63,3.47,3.47,0,0,1-2.74,2Zm-2.9-4.9a1,1,0,0,1,1,1,1.93,1.93,0,0,0,2.12,1.88A1.46,1.46,0,0,0,49,90.23a1.75,1.75,0,0,0-.1-1.68L44,81.19l-8-6.62-8,6.62-4.92,7.37A1.74,1.74,0,0,0,23,90.23a1.46,1.46,0,0,0,1.16.86h.22a1.9,1.9,0,0,0,1.9-1.9,1,1,0,0,1,2,0,1.9,1.9,0,0,0,3.79,0,1,1,0,0,1,2,0,1.9,1.9,0,0,0,3.79,0,1,1,0,0,1,2,0,1.9,1.9,0,0,0,3.79,0A1,1,0,0,1,44.7,88.2Z"/><path class="cls-16" d="M30.71,68.15l-5.53,8.27A2.65,2.65,0,0,0,27,80.49l.34,0a2.9,2.9,0,0,0,2.9-2.9,2.9,2.9,0,1,0,5.79,0,2.9,2.9,0,0,0,5.79,0,2.9,2.9,0,0,0,2.9,2.9l.34,0a2.65,2.65,0,0,0,1.79-4.07L41.3,68.15,36,60.91Z"/><g class="cls-2"><path class="cls-17" d="M46.8,76.38A2.42,2.42,0,0,1,45,77.49l-.34,0a2.9,2.9,0,0,1-2.9-2.9,2.9,2.9,0,1,1-5.79,0,2.9,2.9,0,1,1-5.79,0,2.9,2.9,0,0,1-2.9,2.9l-.34,0a2.42,2.42,0,0,1-1.76-1.12l0,0A2.65,2.65,0,0,0,27,80.49l.34,0a2.9,2.9,0,0,0,2.9-2.9,2.9,2.9,0,1,0,5.79,0,2.9,2.9,0,1,0,5.79,0,2.9,2.9,0,0,0,2.9,2.9l.34,0a2.65,2.65,0,0,0,1.79-4.07Z"/></g><g class="cls-2"><path class="cls-17" d="M41.3,68.15,36,60.91l-5.29,7.24-1.8,2.68a2.36,2.36,0,0,0,1,.35l.34,0a2.9,2.9,0,0,0,2.9-2.9,2.9,2.9,0,0,0,5.79,0,2.9,2.9,0,0,0,2.9,2.9l.34,0a2.36,2.36,0,0,0,1-.35Z"/></g><path class="cls-7" d="M44.7,81.51a3.89,3.89,0,0,1-2.9-1.29,3.89,3.89,0,0,1-5.79,0,3.89,3.89,0,0,1-5.79,0,4,4,0,0,1-3.35,1.27,3.48,3.48,0,0,1-2.74-2,3.72,3.72,0,0,1,.22-3.62l5.54-8.28,0,0,5.29-7.24a1,1,0,0,1,1.62,0l5.29,7.24,5.55,8.3a3.72,3.72,0,0,1,.23,3.63,3.47,3.47,0,0,1-2.74,2Zm-2.9-4.9a1,1,0,0,1,1,1,1.9,1.9,0,0,0,1.9,1.9h.23a1.47,1.47,0,0,0,1.16-.86A1.75,1.75,0,0,0,46,77l-5.52-8.25L36,62.6l-4.47,6.12L26,77a1.72,1.72,0,0,0-.09,1.66,1.47,1.47,0,0,0,1.16.86h.22a1.9,1.9,0,0,0,1.9-1.9,1,1,0,0,1,2,0,1.9,1.9,0,0,0,3.79,0,1,1,0,0,1,2,0,1.9,1.9,0,0,0,3.79,0A1,1,0,0,1,41.8,76.62Z"/><path class="cls-16" d="M33.11,65.31a2.9,2.9,0,0,1-2.9,2.9l-.34,0a2.63,2.63,0,0,1-1.75-4.09L34.8,53.64a1.45,1.45,0,0,1,2.41,0L43.89,64.1a2.63,2.63,0,0,1-1.75,4.09l-.34,0a2.9,2.9,0,0,1-2.9-2.9,2.9,2.9,0,1,1-5.79,0Z"/><path class="cls-16" d="M33.11,65.31a2.9,2.9,0,0,1-2.9,2.9l-.34,0a2.63,2.63,0,0,1-1.75-4.09L34.8,53.64a1.45,1.45,0,0,1,2.41,0L43.89,64.1a2.63,2.63,0,0,1-1.75,4.09l-.34,0a2.9,2.9,0,0,1-2.9-2.9,2.9,2.9,0,1,1-5.79,0Z"/><g class="cls-2"><path class="cls-17" d="M43.88,64.08a2.4,2.4,0,0,1-1.74,1.1l-.34,0a2.9,2.9,0,0,1-2.9-2.9,2.9,2.9,0,0,1-5.79,0,2.9,2.9,0,0,1-2.9,2.9l-.34,0a2.4,2.4,0,0,1-1.74-1.1h0a2.63,2.63,0,0,0,1.75,4.09l.34,0a2.9,2.9,0,0,0,2.9-2.9,2.9,2.9,0,0,0,5.79,0,2.9,2.9,0,0,0,2.9,2.9l.34,0a2.63,2.63,0,0,0,1.75-4.09Z"/></g><path class="cls-7" d="M41.8,69.2a3.89,3.89,0,0,1-2.9-1.29,3.89,3.89,0,0,1-5.79,0,4,4,0,0,1-3.36,1.27,3.45,3.45,0,0,1-2.73-2,3.74,3.74,0,0,1,.27-3.63L34,53.1a2.45,2.45,0,0,1,4.08,0l6.69,10.47A3.73,3.73,0,0,1,45,67.17a3.45,3.45,0,0,1-2.74,2Zm-1.9-3.9a1.9,1.9,0,0,0,1.9,1.9H42a1.45,1.45,0,0,0,1.16-.86,1.73,1.73,0,0,0-.12-1.68L36.37,54.18A.43.43,0,0,0,36,54a.44.44,0,0,0-.37.2L29,64.63a1.74,1.74,0,0,0-.13,1.69,1.45,1.45,0,0,0,1.16.86,1.87,1.87,0,0,0,2.12-1.88,1,1,0,0,1,2,0,1.9,1.9,0,1,0,3.79,0,1,1,0,0,1,2,0Z"/><rect class="cls-12" height="10" width="8" x="17.01" y="95"/><path class="cls-7" d="M25,106H17a1,1,0,0,1-1-1V95a1,1,0,0,1,1-1h8a1,1,0,0,1,1,1v10A1,1,0,0,1,25,106Zm-7-2h6V96H18Z"/><path class="cls-16" d="M9,85,2.08,95.34A3.65,3.65,0,0,0,4.54,101L5,101a4,4,0,0,0,4-4,4,4,0,1,0,8,0,4,4,0,1,0,8,0,4,4,0,1,0,8,0,4,4,0,0,0,4,4l.47,0a3.65,3.65,0,0,0,2.46-5.63L33,85,21,75Z"/><g class="cls-2"><path class="cls-17" d="M33,85,21,75,9,85,7.27,87.56A3.34,3.34,0,0,0,8.54,88L9,88a4,4,0,0,0,4-4,4,4,0,0,0,8,0,4,4,0,0,0,8,0,4,4,0,0,0,4,4l.47,0a3.34,3.34,0,0,0,1.26-.41Z"/></g><g class="cls-2"><path class="cls-17" d="M37.47,98,37,98a4,4,0,0,1-4-4,4,4,0,1,1-8,0,4,4,0,0,1-8,0,4,4,0,1,1-8,0,4,4,0,0,1-4,4l-.47,0a3.4,3.4,0,0,1-2.75-2.09A3.63,3.63,0,0,0,4.54,101L5,101a4,4,0,0,0,4-4,4,4,0,1,0,8,0,4,4,0,1,0,8,0,4,4,0,1,0,8,0,4,4,0,0,0,4,4l.47,0a3.63,3.63,0,0,0,2.75-5.09A3.4,3.4,0,0,1,37.47,98Z"/></g><path class="cls-7" d="M37,102a5,5,0,0,1-4-2,5,5,0,0,1-8,0,5,5,0,0,1-8,0,5,5,0,0,1-8,0,5,5,0,0,1-4,2,4.86,4.86,0,0,1-.59,0A4.41,4.41,0,0,1,.94,99.43a4.75,4.75,0,0,1,.29-4.63L8.15,84.44a1,1,0,0,1,.19-.21l12-10a1,1,0,0,1,1.28,0l12,10a1,1,0,0,1,.19.21l6.91,10.34a4.76,4.76,0,0,1,.3,4.64A4.41,4.41,0,0,1,37.59,102,4.9,4.9,0,0,1,37,102Zm-4-6a1,1,0,0,1,1,1,3,3,0,0,0,3,3l.35,0a2.39,2.39,0,0,0,1.91-1.4,2.8,2.8,0,0,0-.17-2.69L32.28,85.67,21,76.3,9.73,85.67,2.91,95.89a2.79,2.79,0,0,0-.16,2.68A2.39,2.39,0,0,0,4.65,100,3,3,0,0,0,8,97a1,1,0,0,1,2,0,3,3,0,0,0,6,0,1,1,0,0,1,2,0,3,3,0,0,0,6,0,1,1,0,0,1,2,0,3,3,0,1,0,6,0A1,1,0,0,1,33,96Z"/><path class="cls-16" d="M13.7,67.93,6.06,79.34A3.65,3.65,0,0,0,8.54,85L9,85a4,4,0,0,0,4-4,4,4,0,1,0,8,0,4,4,0,1,0,8,0,4,4,0,0,0,4,4l.47,0a3.65,3.65,0,0,0,2.47-5.62L28.31,67.93,21,57.93Z"/><g class="cls-2"><path class="cls-17" d="M33.48,82,33,82a4,4,0,0,1-4-4,4,4,0,0,1-8,0,4,4,0,0,1-8,0,4,4,0,0,1-4,4l-.47,0a3.41,3.41,0,0,1-2.75-2.09A3.63,3.63,0,0,0,8.54,85L9,85a4,4,0,0,0,4-4,4,4,0,0,0,8,0,4,4,0,0,0,8,0,4,4,0,0,0,4,4l.47,0a3.63,3.63,0,0,0,2.75-5.09A3.41,3.41,0,0,1,33.48,82Z"/></g><g class="cls-2"><path class="cls-17" d="M28.31,67.93,21,57.93l-7.31,10-1.91,2.86a3.35,3.35,0,0,0,.75.18L13,71a4,4,0,0,0,4-4,4,4,0,0,0,8,0,4,4,0,0,0,4,4l.47,0a3.35,3.35,0,0,0,.75-.18Z"/></g><path class="cls-7" d="M33,86a5,5,0,0,1-4-2,5,5,0,0,1-8,0,5,5,0,0,1-8,0,5,5,0,0,1-4,2,5.12,5.12,0,0,1-.59,0,4.42,4.42,0,0,1-3.48-2.53,4.75,4.75,0,0,1,.28-4.62l7.65-11.43,0,0,7.31-10a1,1,0,0,1,.81-.41h0a1,1,0,0,1,.81.41l7.31,10,7.66,11.45a4.76,4.76,0,0,1,.29,4.64A4.42,4.42,0,0,1,33.59,86,4.82,4.82,0,0,1,33,86Zm-4-6a1,1,0,0,1,1,1,3,3,0,0,0,3,3l.35,0a2.4,2.4,0,0,0,1.91-1.4,2.76,2.76,0,0,0-.16-2.69l-7.62-11.4L21,59.62,14.52,68.5,6.89,79.9a2.75,2.75,0,0,0-.15,2.67A2.4,2.4,0,0,0,8.65,84,3,3,0,0,0,12,81a1,1,0,0,1,2,0,3,3,0,0,0,6,0,1,1,0,0,1,2,0,3,3,0,0,0,6,0A1,1,0,0,1,29,80Z"/><path class="cls-16" d="M17,64a4,4,0,0,1-4,4l-.47,0a3.63,3.63,0,0,1-2.42-5.64l9.22-14.44a2,2,0,0,1,3.33,0l9.22,14.44A3.63,3.63,0,0,1,29.47,68L29,68a4,4,0,0,1-4-4,4,4,0,1,1-8,0Z"/><path class="cls-16" d="M17,64a4,4,0,0,1-4,4l-.47,0a3.63,3.63,0,0,1-2.42-5.64l9.22-14.44a2,2,0,0,1,3.33,0l9.22,14.44A3.63,3.63,0,0,1,29.47,68L29,68a4,4,0,0,1-4-4,4,4,0,1,1-8,0Z"/><g class="cls-2"><path class="cls-17" d="M29.47,65,29,65a4,4,0,0,1-4-4,4,4,0,0,1-8,0,4,4,0,0,1-4,4l-.47,0A3.38,3.38,0,0,1,9.81,62.9,3.6,3.6,0,0,0,12.54,68L13,68a4,4,0,0,0,4-4,4,4,0,0,0,8,0,4,4,0,0,0,4,4l.47,0A3.6,3.6,0,0,0,32.2,62.9,3.38,3.38,0,0,1,29.47,65Z"/></g><path class="cls-7" d="M29,69a5,5,0,0,1-4-2,5,5,0,0,1-8,0,5,5,0,0,1-4,2,4.86,4.86,0,0,1-.59,0,4.38,4.38,0,0,1-3.48-2.55,4.79,4.79,0,0,1,.35-4.64L18.5,47.35a3,3,0,0,1,5,0l9.23,14.45a4.77,4.77,0,0,1,.34,4.62A4.39,4.39,0,0,1,29.59,69,4.9,4.9,0,0,1,29,69Zm-3-5a3,3,0,0,0,3,3l.35,0a2.37,2.37,0,0,0,1.9-1.41,2.77,2.77,0,0,0-.2-2.69L21.83,48.42a1,1,0,0,0-1.65,0L11,62.86a2.78,2.78,0,0,0-.21,2.7A2.37,2.37,0,0,0,12.65,67,3,3,0,0,0,16,64a1,1,0,0,1,2,0,3,3,0,0,0,6,0,1,1,0,0,1,2,0Z"/><rect class="cls-12" height="7.24" width="5.79" x="109.11" y="87.75"/><path class="cls-7" d="M114.9,96h-5.79a1,1,0,0,1-1-1V87.75a1,1,0,0,1,1-1h5.79a1,1,0,0,1,1,1V95A1,1,0,0,1,114.9,96Zm-4.79-2h3.79V88.75h-3.79Z"/><path class="cls-16" d="M103.3,80.51,98.3,88a2.64,2.64,0,0,0,1.78,4.08l.34,0a2.9,2.9,0,0,0,2.9-2.9,2.9,2.9,0,0,0,5.79,0,2.9,2.9,0,1,0,5.79,0,2.9,2.9,0,0,0,5.79,0,2.9,2.9,0,0,0,2.9,2.9l.34,0A2.64,2.64,0,0,0,125.72,88l-5-7.49L112,73.27Z"/><g class="cls-2"><path class="cls-17" d="M106.21,82.22a3.89,3.89,0,0,0,5.79,0,3.89,3.89,0,0,0,5.79,0,3.89,3.89,0,0,0,2.9,1.29l.46,0a3.39,3.39,0,0,0,1.26-.43l-1.7-2.54L112,73.27l-8.71,7.24-1.7,2.54a3.4,3.4,0,0,0,1.26.43A4,4,0,0,0,106.21,82.22Z"/></g><g class="cls-2"><path class="cls-17" d="M125.69,88a2.41,2.41,0,0,1-1.76,1.11l-.34,0a2.9,2.9,0,0,1-2.9-2.9,2.9,2.9,0,1,1-5.79,0,2.9,2.9,0,0,1-5.79,0,2.9,2.9,0,1,1-5.79,0,2.9,2.9,0,0,1-2.9,2.9l-.34,0A2.41,2.41,0,0,1,98.32,88l0,0a2.64,2.64,0,0,0,1.78,4.08l.34,0a2.9,2.9,0,0,0,2.9-2.9,2.9,2.9,0,1,0,5.79,0,2.9,2.9,0,0,0,5.79,0,2.9,2.9,0,1,0,5.79,0,2.9,2.9,0,0,0,2.9,2.9l.34,0A2.64,2.64,0,0,0,125.72,88Z"/></g><path class="cls-7" d="M123.59,93.1a3.89,3.89,0,0,1-2.9-1.29,3.89,3.89,0,0,1-5.79,0,3.89,3.89,0,0,1-5.79,0,3.89,3.89,0,0,1-5.79,0A4,4,0,0,1,100,93.07a3.47,3.47,0,0,1-2.74-2,3.71,3.71,0,0,1,.23-3.62l5-7.5a1,1,0,0,1,.19-.21l8.71-7.24a1,1,0,0,1,1.28,0l8.71,7.24a1,1,0,0,1,.19.21l5,7.49a3.72,3.72,0,0,1,.24,3.63,3.47,3.47,0,0,1-2.74,2Zm-2.9-4.9a1,1,0,0,1,1,1,1.93,1.93,0,0,0,2.12,1.88,1.46,1.46,0,0,0,1.16-.86,1.75,1.75,0,0,0-.1-1.68L120,81.19l-8-6.62-8,6.62-4.92,7.37A1.74,1.74,0,0,0,99,90.23a1.46,1.46,0,0,0,1.16.86h.22a1.9,1.9,0,0,0,1.9-1.9,1,1,0,0,1,2,0,1.9,1.9,0,0,0,3.79,0,1,1,0,0,1,2,0,1.9,1.9,0,1,0,3.79,0,1,1,0,0,1,2,0,1.9,1.9,0,0,0,3.79,0A1,1,0,0,1,120.7,88.2Z"/><path class="cls-16" d="M106.71,68.15l-5.53,8.27A2.65,2.65,0,0,0,103,80.49l.34,0a2.9,2.9,0,0,0,2.9-2.9,2.9,2.9,0,1,0,5.79,0,2.9,2.9,0,0,0,5.79,0,2.9,2.9,0,0,0,2.9,2.9l.34,0a2.65,2.65,0,0,0,1.79-4.07l-5.53-8.27L112,60.91Z"/><g class="cls-2"><path class="cls-17" d="M122.8,76.38A2.42,2.42,0,0,1,121,77.49l-.34,0a2.9,2.9,0,0,1-2.9-2.9,2.9,2.9,0,1,1-5.79,0,2.9,2.9,0,1,1-5.79,0,2.9,2.9,0,0,1-2.9,2.9l-.34,0a2.42,2.42,0,0,1-1.76-1.12l0,0A2.65,2.65,0,0,0,103,80.49l.34,0a2.9,2.9,0,0,0,2.9-2.9,2.9,2.9,0,1,0,5.79,0,2.9,2.9,0,1,0,5.79,0,2.9,2.9,0,0,0,2.9,2.9l.34,0a2.65,2.65,0,0,0,1.79-4.07Z"/></g><g class="cls-2"><path class="cls-17" d="M117.3,68.15,112,60.91l-5.29,7.24-1.8,2.68a2.36,2.36,0,0,0,1,.35l.34,0a2.9,2.9,0,0,0,2.9-2.9,2.9,2.9,0,0,0,5.79,0,2.9,2.9,0,0,0,2.9,2.9l.34,0a2.36,2.36,0,0,0,1-.35Z"/></g><path class="cls-7" d="M120.7,81.51a3.89,3.89,0,0,1-2.9-1.29,3.89,3.89,0,0,1-5.79,0,3.89,3.89,0,0,1-5.79,0,4,4,0,0,1-3.35,1.27,3.48,3.48,0,0,1-2.74-2,3.72,3.72,0,0,1,.22-3.62l5.54-8.28,0,0,5.29-7.24a1,1,0,0,1,1.62,0l5.29,7.24,5.55,8.3a3.72,3.72,0,0,1,.23,3.63,3.47,3.47,0,0,1-2.74,2Zm-2.9-4.9a1,1,0,0,1,1,1,1.9,1.9,0,0,0,1.9,1.9h.23a1.47,1.47,0,0,0,1.16-.86A1.75,1.75,0,0,0,122,77l-5.52-8.25L112,62.6l-4.47,6.12L102,77a1.72,1.72,0,0,0-.09,1.66,1.47,1.47,0,0,0,1.16.86h.22a1.9,1.9,0,0,0,1.9-1.9,1,1,0,0,1,2,0,1.9,1.9,0,1,0,3.79,0,1,1,0,0,1,2,0,1.9,1.9,0,0,0,3.79,0A1,1,0,0,1,117.8,76.62Z"/><path class="cls-16" d="M109.11,65.31a2.9,2.9,0,0,1-2.9,2.9l-.34,0a2.63,2.63,0,0,1-1.75-4.09l6.68-10.46a1.45,1.45,0,0,1,2.41,0l6.68,10.46a2.63,2.63,0,0,1-1.75,4.09l-.34,0a2.9,2.9,0,0,1-2.9-2.9,2.9,2.9,0,1,1-5.79,0Z"/><path class="cls-16" d="M109.11,65.31a2.9,2.9,0,0,1-2.9,2.9l-.34,0a2.63,2.63,0,0,1-1.75-4.09l6.68-10.46a1.45,1.45,0,0,1,2.41,0l6.68,10.46a2.63,2.63,0,0,1-1.75,4.09l-.34,0a2.9,2.9,0,0,1-2.9-2.9,2.9,2.9,0,1,1-5.79,0Z"/><g class="cls-2"><path class="cls-17" d="M119.88,64.08a2.4,2.4,0,0,1-1.74,1.1l-.34,0a2.9,2.9,0,0,1-2.9-2.9,2.9,2.9,0,0,1-5.79,0,2.9,2.9,0,0,1-2.9,2.9l-.34,0a2.4,2.4,0,0,1-1.74-1.1h0a2.63,2.63,0,0,0,1.75,4.09l.34,0a2.9,2.9,0,0,0,2.9-2.9,2.9,2.9,0,0,0,5.79,0,2.9,2.9,0,0,0,2.9,2.9l.34,0a2.63,2.63,0,0,0,1.75-4.09Z"/></g><path class="cls-7" d="M117.8,69.2a3.89,3.89,0,0,1-2.9-1.29,3.89,3.89,0,0,1-5.79,0,4,4,0,0,1-3.36,1.27,3.45,3.45,0,0,1-2.73-2,3.74,3.74,0,0,1,.27-3.63L110,53.1a2.45,2.45,0,0,1,4.08,0l6.69,10.47a3.73,3.73,0,0,1,.26,3.61,3.45,3.45,0,0,1-2.74,2Zm-1.9-3.9A1.92,1.92,0,0,0,118,67.19a1.45,1.45,0,0,0,1.16-.86,1.73,1.73,0,0,0-.12-1.68l-6.69-10.47A.43.43,0,0,0,112,54a.44.44,0,0,0-.37.2L105,64.63a1.74,1.74,0,0,0-.13,1.69,1.45,1.45,0,0,0,1.16.86,1.87,1.87,0,0,0,2.12-1.88,1,1,0,0,1,2,0,1.9,1.9,0,1,0,3.79,0,1,1,0,0,1,2,0Z"/></g><g class="cls-18"><path class="cls-13" d="M110,126,72.08,43.3a26.65,26.65,0,0,1-12.17,0L21,126Z"/></g><path class="cls-6" d="M80.75,109.54c-2,1.5-4.42.3-5.51-.48a12.62,12.62,0,0,1-1.59,4.83c-.91,1.6-.36,3.79-.16,5.5.09.82.12,1.68.63,2a2.36,2.36,0,0,1,1.2,2.24c-.12,1.26-1.61,1.21-3.07,1.25-2.81.07-2-2-2.17-2.92-.42-.89-.49-4.67-2.08-5.5.84-3.17.1-3.6.09-4.92a15.19,15.19,0,0,1-10.14,1.33A9.24,9.24,0,0,1,52.7,110c-1.19,2.45-2.91,3.34-3.87,4.23a2.15,2.15,0,0,0-.65.89c-1,3-1.19,5.14-.81,6.5.75.71,1.32,1.92,1,2.63-.49,1.26-4.33.51-4.33.51s-1.46-9.07-1-9.76a12.18,12.18,0,0,0,1.16-6.55c-.75,1.13-1.82,2.45-2.25,1.59-1.62-3.33-1.52-11.15,2.34-16.79,1.62-2.38,9.34-1.88,11.92-1.48,9.53,1.47,17.09-2.48,19.74-.23,5.62,4.76,7.25,6.06,9.75,7.67.47.3,1.09-2.93,3.09-2,2.33,1.08.45,4.13.9,4.42a5,5,0,0,1,2.91,4.53c0,1.34,2.41,4.82,2.35,5.39-.12,1.37-1.64,3.78-3.51,3.08C86.25,112.7,82.08,112.79,80.75,109.54Z"/><path class="cls-8" d="M79.92,106.1a4.66,4.66,0,0,0,.83,3.45c-2,1.5-4.42.3-5.51-.48,0-.66.06-4.23.12-4.83A11.62,11.62,0,0,0,79.92,106.1Z"/><path class="cls-8" d="M67.58,107.84l.51,3.73a15.18,15.18,0,0,1-10.14,1.32A9.17,9.17,0,0,1,52.7,110a24.29,24.29,0,0,0,3.13-8.38C58.76,104.29,62.25,105.87,67.58,107.84Z"/><path class="cls-4" d="M76,91.57l3.71,3.12c-1.37,1.61-5,3.18-7.4,3.18-2.93,0-5.3-1.56-5.3-3.5a5.09,5.09,0,0,1,1.09-2.89C71.81,90.92,74.59,90.37,76,91.57Z"/><path class="cls-4" d="M60.91,98.74c2.91-1,7.77.57,7.41,3.27-.41,3.19-2.51,4-3.88,4s-4.05-2.26-4.05-3.57S59.62,99.18,60.91,98.74Z"/><path class="cls-4" d="M79.8,99.29c1.84-.65,5.53,1.4,5.17,3.09-.53,2.58-1.83,1-2.7,1a3.38,3.38,0,0,1-3.3-1.65A1.64,1.64,0,0,1,79.8,99.29Z"/><path class="cls-4" d="M87.26,111a3,3,0,0,1,3.16,1.28c.62.94-1.44,1.27-1.92,1.27s-1.42-.8-1.42-1.25S86.81,111.12,87.26,111Z"/><path class="cls-6" d="M83.18,106.16c-.2,1.18-1.65,2.54-2.5,1.91A1.54,1.54,0,0,1,80,106a2.14,2.14,0,0,1,2-.71C82.46,105.54,83.27,105.64,83.18,106.16Z"/><path class="cls-4" d="M44.45,104.21c-1.24-.81-1.7-3.25-1.7-4.84,0-1.93.81-4,2.62-4.62,4.13-1.5,9.13,0,8.63,4-.59,4.72-6.69,5.75-8.63,5.75A1.57,1.57,0,0,1,44.45,104.21Z"/><path class="cls-19" d="M57.94,112.92a4.9,4.9,0,0,1-4.77,3.74,4.81,4.81,0,0,1-4.28-2.34l-.06-.07c1-.89,2.68-1.78,3.87-4.23a9.24,9.24,0,0,0,5.25,2.87Z"/><path class="cls-7" d="M53.17,117.66A5.82,5.82,0,0,1,48,114.82a1,1,0,0,1,1.73-1,3.84,3.84,0,0,0,3.41,1.84,3.89,3.89,0,0,0,3.8-3,1,1,0,0,1,1.94.47A5.88,5.88,0,0,1,53.17,117.66Z"/><path class="cls-7" d="M57.72,117.54a1,1,0,0,1-.81-.41l-1-1.34a1,1,0,0,1,1.62-1.17l1,1.34a1,1,0,0,1-.81,1.59Z"/><path class="cls-7" d="M54.61,119.11a1,1,0,0,1-1-.79l-.32-1.53a1,1,0,0,1,2-.41l.32,1.53a1,1,0,0,1-.77,1.19Z"/><path class="cls-7" d="M51,119.11a1,1,0,0,1-.27,0,1,1,0,0,1-.7-1.23l.45-1.64a1,1,0,0,1,1.93.53L52,118.37A1,1,0,0,1,51,119.11Z"/><path class="cls-7" d="M88.24,106.31a1,1,0,0,1-.71-.29,7.16,7.16,0,0,0-.66-.61,1,1,0,0,1-.24-1.38,1,1,0,0,1,1.36-.27,7.26,7.26,0,0,1,.94.85,1,1,0,0,1-.71,1.71Z"/><path class="cls-7" d="M46.27,126a12.87,12.87,0,0,1-2.38-.25,1,1,0,0,1-.8-.82c-1.52-9.46-1.06-10.14-.84-10.47a9,9,0,0,0,.94-3.37,1.7,1.7,0,0,1-.91.24,1.42,1.42,0,0,1-1.18-.83c-1.66-3.42-1.76-11.71,2.41-17.8,2.34-3.44,12.79-1.92,12.9-1.9a39.48,39.48,0,0,0,12.4-.45c3.6-.55,6.2-1,7.84.44a98.63,98.63,0,0,0,8.93,7.13c.53-.87,1.7-2.52,3.68-1.6C91.6,97.41,91,99.9,90.76,101l0,.13a5.74,5.74,0,0,1,2.91,5.11A12.33,12.33,0,0,0,95,109.27c.76,1.38,1,1.88,1,2.4a5.23,5.23,0,0,1-2.21,3.61,2.91,2.91,0,0,1-2.65.3c-1.52-.57-3-1-4.26-1.31-2.75-.75-5.18-1.42-6.51-3.36a5.41,5.41,0,0,1-4.41-.29,11.69,11.69,0,0,1-1.43,3.77c-.58,1-.36,2.58-.16,4,0,.32.09.63.13.93l0,.28a3.61,3.61,0,0,0,.2,1.06,3.31,3.31,0,0,1,1.61,3.13c-.2,2.07-2.34,2.12-3.76,2.15h-.28a3.24,3.24,0,0,1-2.48-.78,3.16,3.16,0,0,1-.7-2.48c0-.13,0-.29,0-.4a9.39,9.39,0,0,1-.34-1.48c-.19-1.06-.55-3-1.23-3.38a1,1,0,0,1-.5-1.14A6.33,6.33,0,0,0,67.3,113a16.09,16.09,0,0,1-9.57.85,11.63,11.63,0,0,1-4.81-2.21,11.52,11.52,0,0,1-2.69,2.74c-.26.21-.51.4-.71.58a1.31,1.31,0,0,0-.38.47c-1.06,3.12-1,4.84-.85,5.68a3.71,3.71,0,0,1,1.06,3.5C48.92,125.72,47.58,126,46.27,126ZM45,123.91a6.07,6.07,0,0,0,2.53-.06,2.58,2.58,0,0,0-.8-1.48,1,1,0,0,1-.28-.46c-.47-1.67-.18-4.13.83-7.09a3.15,3.15,0,0,1,.93-1.31c.23-.21.52-.44.83-.68a8.69,8.69,0,0,0,2.81-3.24,1,1,0,0,1,.8-.56,1,1,0,0,1,.89.39,8.18,8.18,0,0,0,4.67,2.5,14.29,14.29,0,0,0,9.48-1.25,1,1,0,0,1,1.44.89,3.86,3.86,0,0,0,.12.84,7.4,7.4,0,0,1-.08,3.7c1,1,1.35,2.89,1.61,4.3a9,9,0,0,0,.25,1.16,1.11,1.11,0,0,1,.08.25,4.37,4.37,0,0,1,0,.89c0,.36,0,.86.12,1a1.57,1.57,0,0,0,1,.19h.28c.94,0,1.79-.06,1.82-.34a1.39,1.39,0,0,0-.75-1.31,3.13,3.13,0,0,1-1.05-2.49l0-.26c0-.27-.08-.57-.12-.87-.23-1.61-.52-3.6.4-5.23a11.67,11.67,0,0,0,1.48-4.51,1,1,0,0,1,1.57-.63c.59.43,2.66,1.72,4.33.49a1,1,0,0,1,1.52.43c.71,1.74,2.45,2.29,5.72,3.18,1.33.36,2.83.77,4.44,1.37a.92.92,0,0,0,.88-.12,3.34,3.34,0,0,0,1.27-2c-.11-.27-.45-.9-.71-1.37-1-1.77-1.66-3.1-1.63-4.08a3.86,3.86,0,0,0-2.22-3.51l-.25-.15c-.72-.46-.52-1.31-.36-2,.36-1.52.27-2-.41-2.36-.32-.15-.54-.18-1.24,1-.29.49-.56.95-1.11,1.08a1.23,1.23,0,0,1-.86-.15c-2.61-1.68-4.34-3.08-9.86-7.75-.94-.8-3.4-.43-6.24,0a41.11,41.11,0,0,1-13,.45c-3.86-.6-9.89-.49-10.94,1.05-3.37,4.92-3.71,11.78-2.54,15.14a9.54,9.54,0,0,0,.79-1.05,1,1,0,0,1,1.83.47A13.51,13.51,0,0,1,44,115.44,65.84,65.84,0,0,0,45,123.91Zm-1-8.34h0Zm.09-.2h0Zm50-3.88h0Z"/><path class="cls-7" d="M52.7,111a1,1,0,0,1-.85-1.53,23.52,23.52,0,0,0,3-8,1,1,0,0,1,2,.29,25.14,25.14,0,0,1-3.27,8.77A1,1,0,0,1,52.7,111Z"/><path class="cls-7" d="M68.09,112.56a1,1,0,0,1-1-.86L66.59,108a1,1,0,0,1,2-.27l.51,3.73a1,1,0,0,1-.86,1.13Z"/><path class="cls-7" d="M75.24,110.06h0a1,1,0,0,1-1-1c0-.24,0-.89,0-1.63,0-1.66.05-2.86.09-3.25a1,1,0,0,1,2,.2c0,.33-.06,2-.08,3.08,0,.77,0,1.43,0,1.68A1,1,0,0,1,75.24,110.06Z"/><path class="cls-7" d="M44.24,109.47a1,1,0,0,1-1-1,21.91,21.91,0,0,1,.68-6.67l.11-.43a1,1,0,0,1,1.95.46l-.11.46a20.14,20.14,0,0,0-.62,6.13,1,1,0,0,1-1,1Z"/><path class="cls-7" d="M80.75,110.54a1,1,0,0,1-.72-.31,5.5,5.5,0,0,1-1.09-4.28,1,1,0,0,1,2,.3h0a3.57,3.57,0,0,0,.57,2.6,1,1,0,0,1-.72,1.69Z"/><g class="cls-5"><path class="cls-6" d="M56,126s8.77-82,8.25-82.1a12,12,0,0,1-2.58-.61L35,126Z"/></g><path class="cls-6" d="M65.68,44h0Z"/><g class="cls-2"><path class="cls-7" d="M113,126H16a1,1,0,1,1,0-2h97a1,1,0,0,1,0,2Z"/><path class="cls-7" d="M117,126h-1a1,1,0,0,1,0-2h1a1,1,0,0,1,0,2Z"/><path class="cls-7" d="M13,126H10a1,1,0,1,1,0-2h3a1,1,0,0,1,0,2Z"/></g><path class="cls-4" d="M66,40.1a80.78,80.78,0,0,1-12.78-1C54.32,41.88,59.62,44,66,44s11.68-2.12,12.78-4.92A80.78,80.78,0,0,1,66,40.1Z"/><path class="cls-7" d="M66,45c-6.79,0-12.42-2.29-13.71-5.56a1,1,0,0,1,.15-1,1,1,0,0,1,.94-.36,79.77,79.77,0,0,0,25.24,0,1,1,0,0,1,1.09,1.35C78.42,42.71,72.79,45,66,45ZM55.69,40.44C57.71,41.87,61.41,43,66,43s8.29-1.13,10.31-2.56A81.49,81.49,0,0,1,55.69,40.44Z"/><path class="cls-8" d="M105.51,28.1h-79a.91.91,0,0,0-.39,1.72l5.49,2.58A80.79,80.79,0,0,0,66,40.1h0a80.79,80.79,0,0,0,34.4-7.69l5.49-2.58A.91.91,0,0,0,105.51,28.1Z"/><path class="cls-7" d="M66,41.1a82.32,82.32,0,0,1-34.83-7.79l-5.49-2.58a1.91,1.91,0,0,1,.81-3.63h79a1.91,1.91,0,0,1,.81,3.63l-5.49,2.59A82.32,82.32,0,0,1,66,41.1Zm-39.08-12L32,31.5a80.29,80.29,0,0,0,34,7.6,80.29,80.29,0,0,0,34-7.6l5.11-2.4Zm78.59,0h0v0Z"/><path class="cls-10" d="M95.78,28.1H36.22a.49.49,0,0,0-.27.9L42,33A43.85,43.85,0,0,0,66,40.1h0A43.85,43.85,0,0,0,90,33l6.1-4A.49.49,0,0,0,95.78,28.1Z"/><path class="cls-7" d="M66,41.1a44.75,44.75,0,0,1-24.5-7.28l-6.1-4a1.49,1.49,0,0,1,.81-2.74H95.78a1.49,1.49,0,0,1,.81,2.74l-6.1,4A44.75,44.75,0,0,1,66,41.1Zm-28.07-12,4.67,3A42.75,42.75,0,0,0,66,39.1a42.75,42.75,0,0,0,23.41-7l4.67-3Zm57.86,0h0Z"/><path class="cls-8" d="M84.84,28.1H47.16a.21.21,0,0,0-.15.35l5.48,5.82A18.56,18.56,0,0,0,66,40.1h0a18.56,18.56,0,0,0,13.51-5.83L85,28.45A.21.21,0,0,0,84.84,28.1Z"/><path class="cls-7" d="M66,41.1A19.63,19.63,0,0,1,51.77,35l-5.48-5.82a1.21,1.21,0,0,1,.88-2H84.84a1.21,1.21,0,0,1,.88,2L80.23,35A19.63,19.63,0,0,1,66,41.1Zm-17-12,4.23,4.48a17.56,17.56,0,0,0,25.56,0L83,29.1Zm35.84,0h0Z"/><path class="cls-10" d="M72,28.1H60a0,0,0,0,0,0,0L62.8,37.7A3.33,3.33,0,0,0,66,40.1h0a3.33,3.33,0,0,0,3.2-2.39L72,28.15A0,0,0,0,0,72,28.1Z"/><path class="cls-13" d="M66,1A18,18,0,0,0,48,19c0,2.21,8.06,4,18,4s18-1.79,18-4A18,18,0,0,0,66,1Z"/><path class="cls-7" d="M66,41.1A4.36,4.36,0,0,1,61.84,38L59,28.43a1,1,0,0,1,1-1.33H72a1,1,0,0,1,1,1.33L70.16,38A4.36,4.36,0,0,1,66,41.1Zm-4.68-12,2.44,8.32a2.33,2.33,0,0,0,4.48,0l2.44-8.32Z"/><path class="cls-10" d="M65.93,17.91c-23.31,0-31,3.41-39.91,9.8a1.19,1.19,0,0,0,.39,2.1l4.89.91A190.32,190.32,0,0,0,66,33.91a190.32,190.32,0,0,0,34.7-3.19l4.89-.91a1.19,1.19,0,0,0,.39-2.1C97.12,21.36,89.24,17.91,65.93,17.91Z"/><path class="cls-6" d="M26.41,29.81l.71.13c8.47-5.89,16.47-9,38.82-9s30.51,3.17,38.95,9l.71-.13a1.19,1.19,0,0,0,.39-2.1c-8.86-6.36-16.73-9.8-40-9.8s-31,3.41-39.91,9.8A1.19,1.19,0,0,0,26.41,29.81Z"/><path class="cls-3" d="M48,18.92S48,19,48,19c0,2.21,8.06,4,18,4s18-1.79,18-4c0,0,0,0,0-.06a131.12,131.12,0,0,0-18.06-1A131.42,131.42,0,0,0,48,18.92Z"/><path class="cls-7" d="M66,34.91A191.86,191.86,0,0,1,31.12,31.7l-4.89-.91a2,2,0,0,1-1.62-1.62,2.19,2.19,0,0,1,.83-2.28c9.63-6.91,17.76-10,40.5-10s31.2,3.22,40.63,10a2.19,2.19,0,0,1,.83,2.28,2,2,0,0,1-1.62,1.62l-4.89.91A191.86,191.86,0,0,1,66,34.91Zm-.07-16c-22.19,0-30.07,3-39.33,9.61a.17.17,0,0,0-.06.14.25.25,0,0,0,0,.17l4.88.9a190,190,0,0,0,69,0l4.89-.91a.28.28,0,0,0,0-.17.17.17,0,0,0-.06-.14C96.13,21.88,88.24,18.91,65.93,18.91Z"/><g class="cls-5"><path class="cls-6" d="M64.59,1.07c-6.11.81-11.1,9.34-12.31,20.51a40.48,40.48,0,0,0,5.56,1c.62-12,3.82-21.2,7.71-21.54Z"/></g><ellipse class="cls-13" cx="89" cy="26" rx="3" ry="2" transform="translate(-3.16 15.85) rotate(-10)"/><path class="cls-7" d="M88.58,29a4.55,4.55,0,0,1-1.82-.36A2.57,2.57,0,0,1,86,24.25a5.13,5.13,0,0,1,5.27-.93,2.73,2.73,0,0,1,1.69,2h0A2.73,2.73,0,0,1,92,27.75,4.86,4.86,0,0,1,89.52,29,5.36,5.36,0,0,1,88.58,29ZM89.42,25a3.45,3.45,0,0,0-.59.05,2.9,2.9,0,0,0-1.47.68.82.82,0,0,0-.33.65c0,.18.23.37.53.5a3.14,3.14,0,0,0,3.09-.54.82.82,0,0,0,.33-.65h0c0-.18-.23-.37-.53-.5A2.57,2.57,0,0,0,89.42,25Z"/><ellipse class="cls-13" cx="43" cy="26" rx="2" ry="3" transform="translate(9.93 63.83) rotate(-80)"/><path class="cls-7" d="M43.42,29a5.36,5.36,0,0,1-.94-.08A4.86,4.86,0,0,1,40,27.75a2.57,2.57,0,0,1,.78-4.42,5.13,5.13,0,0,1,5.27.93,2.57,2.57,0,0,1-.78,4.42A4.55,4.55,0,0,1,43.42,29ZM42.58,25a2.57,2.57,0,0,0-1,.19c-.3.13-.5.32-.53.5a.82.82,0,0,0,.32.65,3.14,3.14,0,0,0,3.09.54c.3-.13.5-.32.53-.5h0a.82.82,0,0,0-.33-.65A2.9,2.9,0,0,0,43.17,25,3.45,3.45,0,0,0,42.58,25Z"/><ellipse class="cls-13" cx="66" cy="28" rx="3" ry="2"/><path class="cls-7" d="M66,31c-2.24,0-4-1.32-4-3s1.76-3,4-3,4,1.32,4,3S68.24,31,66,31Zm0-4c-1.22,0-2,.59-2,1s.78,1,2,1,2-.59,2-1S67.22,27,66,27Z"/><path class="cls-7" d="M66,24c-7.06,0-19-1.05-19-5a19,19,0,0,1,38,0C85,22.95,73.06,24,66,24ZM66,2A17,17,0,0,0,49,19c.29,1,6.39,3,17,3s16.71-2,17-3A17,17,0,0,0,66,2Z"/><path class="cls-10" d="M70.74,22.86h0a20,20,0,0,0-1.43-4.29c-.43-.85-6.34-.91-6.78,0a20.12,20.12,0,0,0-1.35,4.29h0c1.54.09,3.15.15,4.82.15S69.23,22.95,70.74,22.86Z"/><path class="cls-7" d="M66,24c-1.61,0-3.25-.05-4.88-.15a1,1,0,0,1-.92-1.21,20.79,20.79,0,0,1,1.42-4.51c.16-.33.58-1.19,4.08-1.22,3.85,0,4.34.9,4.49,1.21a20.67,20.67,0,0,1,1.51,4.52,1,1,0,0,1-.91,1.23C69.2,24,67.58,24,66,24Zm-3.57-2.08c2.36.11,4.69.11,7,0a16.89,16.89,0,0,0-1-2.73,12.11,12.11,0,0,0-5.16,0A16.73,16.73,0,0,0,62.43,21.92Z"/><path class="cls-10" d="M70,12.05c0-1.74-1.79-3.15-4-3.15s-4,1.41-4,3.15c0,2.29,1.13,4.25,2.51,6.11a1.88,1.88,0,0,0,3,0A10.35,10.35,0,0,0,70,12.05Z"/><path class="cls-7" d="M66,19.9a2.83,2.83,0,0,1-2.3-1.14A11.35,11.35,0,0,1,61,12.05c0-2.29,2.24-4.15,5-4.15s5,1.86,5,4.15a11.33,11.33,0,0,1-2.7,6.71A2.83,2.83,0,0,1,66,19.9Zm0-10c-1.63,0-3,1-3,2.15a9.57,9.57,0,0,0,2.31,5.52.85.85,0,0,0,.69.33h0a.85.85,0,0,0,.69-.33A9.55,9.55,0,0,0,69,12.05C69,10.88,67.63,9.9,66,9.9Z"/><path class="cls-7" d="M66.25,17.5h-.5a1,1,0,0,1,0-2h.5a1,1,0,0,1,0,2Z"/><path class="cls-7" d="M65,14.5H64a1,1,0,0,1,0-2h1a1,1,0,0,1,0,2Z"/><path class="cls-7" d="M68,14.5H67a1,1,0,0,1,0-2h1a1,1,0,0,1,0,2Z"/></svg>