<?xml version="1.0" ?><svg data-name="003" id="_003" viewBox="0 0 128 128" xmlns="http://www.w3.org/2000/svg"><defs><style>.cls-1{opacity:0.3;}.cls-2{fill:#c9c1f5;}.cls-3{fill:#89dbba;}.cls-4{fill:#48bc33;}.cls-5{fill:#6d6daa;}.cls-6{fill:#b1f1a8;}.cls-7{fill:#ffc661;}.cls-8{fill:#fff27d;}.cls-9{fill:#96d7ff;}.cls-10{fill:#97c1ff;}.cls-11{fill:#fff;}.cls-12{fill:#d4edff;}.cls-13{opacity:0.5;}</style></defs><title/><g class="cls-1"><path class="cls-2" d="M116,48a39,39,0,1,0-77-12.09A20.62,20.62,0,0,1,23.54,52.71a30.75,30.75,0,1,0,22,57c7.61-4,17-2.68,22.64,3.84A33.75,33.75,0,0,0,121.6,72.44,33.63,33.63,0,0,1,116,48Z"/><rect class="cls-3" height="92" transform="translate(22.5 100.71) rotate(-80.25)" width="48" x="47" y="-9"/><g class="cls-1"><rect class="cls-4" height="92" transform="translate(9.16 108.53) rotate(-80.25)" width="24" x="56.97" y="2.83"/></g><path class="cls-5" d="M112.27,69.45h-.17L21.43,53.85a1,1,0,0,1-.82-1.15l8.13-47.3a1,1,0,0,1,1.15-.82l90.67,15.59a1,1,0,0,1,.82,1.15l-8.13,47.3a1,1,0,0,1-1,.83ZM22.75,52l88.7,15.25L119.24,22,30.55,6.71Z"/><path class="cls-6" d="M108.39,55.6a6,6,0,0,0-6.93,4.9L34.44,49a6,6,0,0,0-4.9-6.93L33.61,18.4a6,6,0,0,0,6.93-4.9l67,11.52a6,6,0,0,0,4.9,6.93Z"/><g class="cls-1"><path class="cls-4" d="M31.57,30.25l-2,11.8A6,6,0,0,1,34.44,49l67,11.52a6,6,0,0,1,6.93-4.9l2-11.8Z"/></g><path class="cls-5" d="M101.46,61.5h-.17L34.27,50a1,1,0,0,1-.82-1.15A5,5,0,0,0,29.38,43a1,1,0,0,1-.82-1.15l4.07-23.65a1,1,0,0,1,1.15-.82,5,5,0,0,0,5.77-4.08,1,1,0,0,1,1.15-.82l67,11.52a1,1,0,0,1,.82,1.15A5,5,0,0,0,112.62,31a1,1,0,0,1,.82,1.15l-4.07,23.65a1,1,0,0,1-1.15.82,5,5,0,0,0-5.77,4.08A1,1,0,0,1,101.46,61.5ZM35.53,48.15l65.18,11.2a7,7,0,0,1,6.85-4.84l3.75-21.82a7,7,0,0,1-4.84-6.85L41.29,14.65a7,7,0,0,1-6.85,4.84L30.69,41.3A7,7,0,0,1,35.53,48.15Z"/><ellipse class="cls-3" cx="70.66" cy="38.97" rx="16" ry="12.8" transform="matrix(0.17, -0.99, 0.99, 0.17, 20.28, 102.01)"/><path class="cls-5" d="M69.7,55.89a11.28,11.28,0,0,1-1.92-.16c-7.5-1.29-12.31-9.85-10.72-19.09A19.1,19.1,0,0,1,63,25.54a12.57,12.57,0,0,1,10.55-3.32c7.5,1.29,12.31,9.85,10.72,19.09C82.81,49.76,76.5,55.89,69.7,55.89Zm1.91-31.84a11,11,0,0,0-7.29,3A17.11,17.11,0,0,0,59,37c-1.4,8.15,2.68,15.68,9.09,16.78S80.89,49.12,82.29,41h0c1.4-8.15-2.68-15.68-9.09-16.78A9.45,9.45,0,0,0,71.61,24.05Z"/><circle class="cls-3" cx="45.38" cy="32.6" r="3" transform="translate(5.56 71.8) rotate(-80.25)"/><path class="cls-5" d="M45.38,36.6a4,4,0,0,1-4-4.68,4,4,0,1,1,7.88,1.35h0a4,4,0,0,1-3.93,3.32Zm0-6a2,2,0,1,0,2,2.34h0a2,2,0,0,0-1.63-2.31Z"/><circle class="cls-5" cx="34.63" cy="12.48" r="1" transform="translate(16.46 44.5) rotate(-80.25)"/><path class="cls-5" d="M34.63,14.48a2,2,0,1,1,1.15-.37A2,2,0,0,1,34.63,14.48Zm0-2Z"/><circle class="cls-5" cx="28.53" cy="47.97" r="1" transform="translate(-23.58 67.96) rotate(-80.25)"/><path class="cls-5" d="M28.53,50l-.34,0a2,2,0,1,1,.34,0Zm0-2Z"/><circle class="cls-5" cx="113.48" cy="26.04" r="1" transform="translate(68.59 133.46) rotate(-80.25)"/><path class="cls-5" d="M113.48,28l-.34,0a2,2,0,0,1-.82-3.6,2,2,0,0,1,3.13,2h0A2,2,0,0,1,113.48,28Zm1-1.83h0Z"/><circle class="cls-5" cx="107.38" cy="61.52" r="1" transform="matrix(0.17, -0.99, 0.99, 0.17, 28.56, 156.93)"/><path class="cls-5" d="M107.38,63.52a2,2,0,1,1,1.15-.37A2,2,0,0,1,107.38,63.52Zm0-2Z"/><path class="cls-6" d="M74.36,48.55l-.69-.28a.87.87,0,0,1-.57-1c.1-.47.19-1,.28-1.49.21-1.2,1.9-2.39,2.26-4.06a6.88,6.88,0,0,0,1.23-2.62A1.44,1.44,0,0,0,76.71,38c.23-.61.44-1.25.68-1.91,1-2.66.35-4.8-1.91-6.07-.82-.46-4.32-1.7-5.44-3.24-.41-.55-.53,2.16-1,2.28-2.54.66-3.76,2.15-3.74,4.95,0,.7,0,1.38,0,2a1.44,1.44,0,0,0-.52,1,6.88,6.88,0,0,0,.28,2.88c-.21,1.7,1,3.3.78,4.59-.09.52-.18,1-.24,1.5a.87.87,0,0,1-.87.76l-.83,0a14.65,14.65,0,0,0-4.57.83,12.23,12.23,0,0,0,7.33,6.85,11.29,11.29,0,0,0,1.28.31H68a11.29,11.29,0,0,0,1.23.13,12.24,12.24,0,0,0,9.22-4A13.88,13.88,0,0,0,74.36,48.55Z"/><path class="cls-5" d="M69.71,55.89h-.47a12.27,12.27,0,0,1-1.35-.14h-.1l.16-1-.26,1a11.46,11.46,0,0,1-1.32-.32,13.18,13.18,0,0,1-8-7.39A1,1,0,0,1,59,46.64a15.78,15.78,0,0,1,4.88-.89l.75,0c.06-.46.14-.94.23-1.43a4.06,4.06,0,0,0-.32-1.55A7.21,7.21,0,0,1,64,40a7.66,7.66,0,0,1-.25-3.14,2.74,2.74,0,0,1,.5-1.23c0-.23,0-.46,0-.69s0-.61,0-.92c0-3.06,1.32-5,4.11-5.82.06-.2.12-.48.16-.67.2-.88.37-1.64,1.15-1.8a1.12,1.12,0,0,1,1.13.46c.7,1,2.91,1.94,4.09,2.47.45.2.82.37,1,.48,2.64,1.48,3.51,4.14,2.36,7.28l-.31.88-.23.65a2.74,2.74,0,0,1,.06,1.33,7.66,7.66,0,0,1-1.29,2.88,7.5,7.5,0,0,1-1.41,2.51,4.25,4.25,0,0,0-.79,1.3c-.08.49-.16,1-.26,1.43l.62.25a15,15,0,0,1,4.41,2.46,1,1,0,0,1,.08,1.47A13.3,13.3,0,0,1,69.71,55.89Zm-1.59-2.14h.09a10.41,10.41,0,0,0,1.12.12,10.91,10.91,0,0,0,7.62-2.94A13.63,13.63,0,0,0,74,49.49h0l-.69-.28A1.87,1.87,0,0,1,72.13,47c.1-.46.18-.94.27-1.45a5.3,5.3,0,0,1,1.17-2.17,5.52,5.52,0,0,0,1.1-1.94,1,1,0,0,1,.16-.36,6,6,0,0,0,1.06-2.21.72.72,0,0,0,0-.37,1,1,0,0,1-.12-.92c.12-.33.24-.66.36-1l.32-.9c.82-2.26.34-3.84-1.46-4.86-.17-.1-.48-.23-.86-.4a20.38,20.38,0,0,1-3.73-2c-.19.76-.44,1.36-1.11,1.54-2.17.56-3,1.67-3,4,0,.32,0,.64,0,.95s0,.73,0,1.08a1,1,0,0,1-.42.83.75.75,0,0,0-.12.35A5.94,5.94,0,0,0,66,39.61a1,1,0,0,1,0,.4,5.24,5.24,0,0,0,.39,2.12,5.32,5.32,0,0,1,.39,2.51c-.09.51-.17,1-.23,1.46a1.88,1.88,0,0,1-1.86,1.63l-.81,0a14.44,14.44,0,0,0-3.17.44,10.88,10.88,0,0,0,6.19,5.29,10.4,10.4,0,0,0,1.16.28ZM74,47.32h0Zm-9.32-1.6h0Z"/><path class="cls-3" d="M84.05,55.48l-7.89-1.36a14.93,14.93,0,0,0-7.54-3.33,14.93,14.93,0,0,0-8.21.62l-7.89-1.36-1.35,7.88L82.7,63.36Z"/><path class="cls-5" d="M82.7,64.36h-.17L51,58.93a1,1,0,0,1-.82-1.15l1.35-7.88a1,1,0,0,1,1.15-.82l7.6,1.31a16.22,16.22,0,0,1,8.5-.57,16.23,16.23,0,0,1,7.82,3.38l7.6,1.31A1,1,0,0,1,85,55.65l-1.35,7.88A1,1,0,0,1,82.7,64.36ZM52.32,57.13l29.56,5.08,1-5.91L76,55.11a1,1,0,0,1-.52-.26,14.09,14.09,0,0,0-7-3.07,14.11,14.11,0,0,0-7.64.55,1,1,0,0,1-.57.07l-6.9-1.19Z"/><line class="cls-3" x1="50.1" x2="38.28" y1="40.51" y2="38.48"/><path class="cls-5" d="M50.1,41.51h-.17l-11.82-2a1,1,0,1,1,.34-2l11.82,2a1,1,0,0,1-.17,2Z"/><circle class="cls-3" cx="96.63" cy="41.41" r="3" transform="translate(39.45 129.63) rotate(-80.25)"/><path class="cls-5" d="M96.64,45.41a4,4,0,1,1,3.93-3.32h0a4,4,0,0,1-3.93,3.32Zm0-6a2,2,0,1,0,2,2.34h0A2,2,0,0,0,97,39.44Z"/><line class="cls-3" x1="101.35" x2="89.53" y1="49.32" y2="47.29"/><path class="cls-5" d="M101.35,50.32h-.17l-11.82-2a1,1,0,0,1,.34-2l11.82,2a1,1,0,0,1-.17,2Z"/><line class="cls-3" x1="79.43" x2="55.79" y1="58.74" y2="54.68"/><path class="cls-5" d="M79.44,59.74h-.17L55.62,55.66a1,1,0,1,1,.34-2L79.6,57.76a1,1,0,0,1-.17,2Z"/><rect class="cls-3" height="48" width="92" x="25" y="13"/><g class="cls-1"><rect class="cls-4" height="24" width="92" x="25" y="37"/></g><path class="cls-5" d="M117,62H25a1,1,0,0,1-1-1V13a1,1,0,0,1,1-1h92a1,1,0,0,1,1,1V61A1,1,0,0,1,117,62ZM26,60h90V14H26Z"/><path class="cls-6" d="M111,49a6,6,0,0,0-6,6H37a6,6,0,0,0-6-6V25a6,6,0,0,0,6-6h68a6,6,0,0,0,6,6Z"/><g class="cls-1"><path class="cls-4" d="M31,37V49a6,6,0,0,1,6,6h68a6,6,0,0,1,6-6V37Z"/></g><path class="cls-5" d="M105,56H37a1,1,0,0,1-1-1,5,5,0,0,0-5-5,1,1,0,0,1-1-1V25a1,1,0,0,1,1-1,5,5,0,0,0,5-5,1,1,0,0,1,1-1h68a1,1,0,0,1,1,1,5,5,0,0,0,5,5,1,1,0,0,1,1,1V49a1,1,0,0,1-1,1,5,5,0,0,0-5,5A1,1,0,0,1,105,56ZM37.93,54h66.14A7,7,0,0,1,110,48.07V25.93A7,7,0,0,1,104.07,20H37.93A7,7,0,0,1,32,25.93V48.07A7,7,0,0,1,37.93,54Z"/><ellipse class="cls-3" cx="71" cy="39" rx="12.8" ry="16"/><path class="cls-5" d="M71,56c-7.61,0-13.8-7.63-13.8-17S63.39,22,71,22s13.8,7.63,13.8,17S78.61,56,71,56Zm0-32c-6.51,0-11.8,6.73-11.8,15S64.49,54,71,54s11.8-6.73,11.8-15S77.51,24,71,24Z"/><circle class="cls-3" cx="45" cy="37" r="3"/><path class="cls-5" d="M45,41a4,4,0,1,1,4-4A4,4,0,0,1,45,41Zm0-6a2,2,0,1,0,2,2A2,2,0,0,0,45,35Z"/><circle class="cls-5" cx="31" cy="19" r="1"/><path class="cls-5" d="M31,21a2,2,0,1,1,2-2A2,2,0,0,1,31,21Zm0-2h0Zm0,0h0Zm0,0h0Zm0,0h0Zm0,0h0Zm0,0h0Zm0,0h0Zm0,0h0Z"/><circle class="cls-5" cx="31" cy="55" r="1"/><path class="cls-5" d="M31,57a2,2,0,1,1,2-2A2,2,0,0,1,31,57Zm0-2h0Zm0,0h0Zm0,0h0Zm0,0h0Zm0,0h0Zm0,0h0Zm0,0h0Zm0,0h0Z"/><circle class="cls-5" cx="111.01" cy="19" r="1"/><path class="cls-5" d="M111,21a2,2,0,1,1,2-2A2,2,0,0,1,111,21Zm0-2h0Zm0,0h0Zm0,0h0Zm0,0h0Zm0,0h0Zm0,0h0Zm0,0h0Zm0,0h0Z"/><circle class="cls-5" cx="111.01" cy="55" r="1"/><path class="cls-5" d="M111,57a2,2,0,1,1,2-2A2,2,0,0,1,111,57Zm0-2h0Zm0,0h0Zm0,0h0Zm0,0h0Zm0,0h0Zm0,0h0Zm0,0h0Zm0,0h0Z"/><path class="cls-6" d="M76.27,47.81l-.73-.16a.87.87,0,0,1-.73-.89c0-.48,0-1,0-1.52,0-1.22,1.46-2.68,1.54-4.39a6.88,6.88,0,0,0,.77-2.79A1.44,1.44,0,0,0,76.79,37c.12-.64.22-1.31.35-2,.5-2.78-.47-4.79-2.92-5.66-.88-.31-4.54-.95-5.91-2.27-.49-.48-.16,2.21-.6,2.42-2.4,1.08-3.35,2.75-2.85,5.51.12.69.23,1.37.35,2a1.44,1.44,0,0,0-.35,1.07,6.88,6.88,0,0,0,.77,2.79c.08,1.71,1.54,3.09,1.54,4.39,0,.53,0,1,0,1.52a.87.87,0,0,1-.73.89l-.81.16a14.65,14.65,0,0,0-4.36,1.6,12.23,12.23,0,0,0,8.38,5.51A11.29,11.29,0,0,0,71,55h.12a11.29,11.29,0,0,0,1.24-.08,12.24,12.24,0,0,0,8.4-5.54A13.88,13.88,0,0,0,76.27,47.81Z"/><path class="cls-5" d="M71,56a12.6,12.6,0,0,1-1.45-.09A13.18,13.18,0,0,1,60.46,50a1,1,0,0,1,.33-1.44,15.78,15.78,0,0,1,4.65-1.71l.74-.15c0-.46,0-.95,0-1.45a4.06,4.06,0,0,0-.58-1.48,7.21,7.21,0,0,1-.95-2.65,7.65,7.65,0,0,1-.78-3.05,2.74,2.74,0,0,1,.29-1.3L64,36.08c0-.3-.1-.6-.16-.91-.54-3,.46-5.12,3.07-6.43,0-.21,0-.49,0-.69,0-.9.09-1.68.82-2a1.11,1.11,0,0,1,1.19.26c.85.83,3.2,1.42,4.46,1.74.48.12.87.22,1.09.3,2.86,1,4.16,3.49,3.57,6.78-.06.31-.11.61-.16.91l-.12.68a2.74,2.74,0,0,1,.29,1.3,7.64,7.64,0,0,1-.78,3.05,7.51,7.51,0,0,1-1,2.71,4.25,4.25,0,0,0-.56,1.42c0,.5,0,1,0,1.45l.65.14a15,15,0,0,1,4.76,1.68,1,1,0,0,1,.33,1.43,13.18,13.18,0,0,1-9.1,6A12.14,12.14,0,0,1,71.1,56Zm-8.2-6.24a10.88,10.88,0,0,0,7,4.16A10.28,10.28,0,0,0,71,54h.1a10.21,10.21,0,0,0,1.13-.07,10.87,10.87,0,0,0,7-4.19,13.65,13.65,0,0,0-3.13-.94h0l-.73-.16a1.87,1.87,0,0,1-1.51-1.91c0-.46,0-1,0-1.47a5.31,5.31,0,0,1,.78-2.34,5.52,5.52,0,0,0,.76-2.1,1,1,0,0,1,.1-.39,5.94,5.94,0,0,0,.67-2.36.74.74,0,0,0-.06-.36,1,1,0,0,1-.27-.89c.06-.34.12-.7.18-1.06s.1-.62.16-.94c.43-2.36-.32-3.85-2.27-4.54-.19-.07-.51-.15-.91-.25a20.62,20.62,0,0,1-4-1.33c-.06.78-.21,1.42-.84,1.7-2,.92-2.68,2.16-2.27,4.42.06.32.11.63.16.94s.12.71.18,1.06a1,1,0,0,1-.27.89.75.75,0,0,0-.06.36,5.94,5.94,0,0,0,.67,2.36,1,1,0,0,1,.1.39,5.23,5.23,0,0,0,.74,2,5.32,5.32,0,0,1,.81,2.41c0,.52,0,1,0,1.48a1.88,1.88,0,0,1-1.56,1.92l-.79.16A14.42,14.42,0,0,0,62.8,49.76Zm3.47-3.09h0Zm9.45,0h0ZM67.3,28.56h0Z"/><path class="cls-3" d="M87,53H79a14.93,14.93,0,0,0-8-2,14.93,14.93,0,0,0-8,2H55v8H87Z"/><path class="cls-5" d="M87,62H55a1,1,0,0,1-1-1V53a1,1,0,0,1,1-1h7.71A16.23,16.23,0,0,1,71,50a16.23,16.23,0,0,1,8.28,2H87a1,1,0,0,1,1,1v8A1,1,0,0,1,87,62ZM56,60H86V54H79a1,1,0,0,1-.55-.17A14.09,14.09,0,0,0,71,52a14.09,14.09,0,0,0-7.44,1.84A1,1,0,0,1,63,54H56Z"/><path class="cls-5" d="M51,45H39a1,1,0,0,1,0-2H51a1,1,0,0,1,0,2Z"/><circle class="cls-3" cx="97.01" cy="37" r="3"/><path class="cls-5" d="M97,41a4,4,0,1,1,4-4A4,4,0,0,1,97,41Zm0-6a2,2,0,1,0,2,2A2,2,0,0,0,97,35Z"/><path class="cls-5" d="M103,45H91a1,1,0,0,1,0-2h12a1,1,0,0,1,0,2Z"/><path class="cls-5" d="M83,58H59a1,1,0,0,1,0-2H83a1,1,0,0,1,0,2Z"/><circle class="cls-7" cx="93.01" cy="42" r="9"/><path class="cls-5" d="M93,52a10,10,0,1,1,10-10A10,10,0,0,1,93,52Zm0-18a8,8,0,1,0,8,8A8,8,0,0,0,93,34Z"/><circle class="cls-8" cx="93.01" cy="42" r="5"/><path class="cls-5" d="M93,48a6,6,0,1,1,6-6A6,6,0,0,1,93,48Zm0-10a4,4,0,1,0,4,4A4,4,0,0,0,93,38Z"/><circle class="cls-7" cx="103.01" cy="52" r="9"/><path class="cls-5" d="M103,62a10,10,0,1,1,10-10A10,10,0,0,1,103,62Zm0-18a8,8,0,1,0,8,8A8,8,0,0,0,103,44Z"/><circle class="cls-8" cx="103.01" cy="52" r="5"/><path class="cls-5" d="M103,58a6,6,0,1,1,6-6A6,6,0,0,1,103,58Zm0-10a4,4,0,1,0,4,4A4,4,0,0,0,103,48Z"/><circle class="cls-7" cx="113.01" cy="32" r="9"/><path class="cls-5" d="M113,42a10,10,0,1,1,10-10A10,10,0,0,1,113,42Zm0-18a8,8,0,1,0,8,8A8,8,0,0,0,113,24Z"/><circle class="cls-8" cx="113.01" cy="32" r="5"/><path class="cls-5" d="M113,38a6,6,0,1,1,6-6A6,6,0,0,1,113,38Zm0-10a4,4,0,1,0,4,4A4,4,0,0,0,113,28Z"/></g><path class="cls-2" d="M15.33,25A5.55,5.55,0,0,0,19,28.72q2.77.92,0,1.85a5.55,5.55,0,0,0-3.69,3.69q-.92,2.77-1.85,0a5.55,5.55,0,0,0-3.69-3.69q-2.77-.92,0-1.85A5.55,5.55,0,0,0,13.48,25Q14.4,22.26,15.33,25Z"/><path class="cls-2" d="M56,115.57A3.7,3.7,0,0,0,58.48,118q1.85.62,0,1.23A3.7,3.7,0,0,0,56,121.72q-.62,1.85-1.23,0a3.7,3.7,0,0,0-2.46-2.46q-1.85-.62,0-1.23a3.7,3.7,0,0,0,2.46-2.46Q55.4,113.72,56,115.57Z"/><path class="cls-9" d="M9.17,109.81a4.62,4.62,0,0,0,3.08,3.08q2.31.77,0,1.54a4.62,4.62,0,0,0-3.08,3.08q-.77,2.31-1.54,0a4.62,4.62,0,0,0-3.08-3.08q-2.31-.77,0-1.54a4.62,4.62,0,0,0,3.08-3.08Q8.4,107.5,9.17,109.81Z"/><path class="cls-2" d="M91,3.57A3.7,3.7,0,0,0,93.47,6q1.85.62,0,1.23A3.7,3.7,0,0,0,91,9.73q-.62,1.85-1.23,0a3.7,3.7,0,0,0-2.46-2.46q-1.85-.62,0-1.23a3.7,3.7,0,0,0,2.46-2.46Q90.4,1.73,91,3.57Z"/><path class="cls-9" d="M123,41.57A3.7,3.7,0,0,0,125.48,44q1.85.62,0,1.23A3.7,3.7,0,0,0,123,47.73q-.62,1.85-1.23,0a3.7,3.7,0,0,0-2.46-2.46q-1.85-.62,0-1.23a3.7,3.7,0,0,0,2.46-2.46Q122.41,39.73,123,41.57Z"/><rect class="cls-10" height="58" rx="2" ry="2" width="90" x="9" y="45"/><g class="cls-1"><path class="cls-11" d="M89,45H11a2,2,0,0,0-2,2V86.79L97,45Z"/></g><g class="cls-1"><path class="cls-11" d="M99,47a2,2,0,0,0-.06-.48L9,89.24v3L99,49.49Z"/></g><path class="cls-5" d="M97,104H11a3,3,0,0,1-3-3V47a3,3,0,0,1,3-3H97a3,3,0,0,1,3,3v54A3,3,0,0,1,97,104ZM11,46a1,1,0,0,0-1,1v54a1,1,0,0,0,1,1H97a1,1,0,0,0,1-1V47a1,1,0,0,0-1-1Z"/><rect class="cls-12" height="10" rx="2" ry="2" width="10" x="17" y="53"/><path class="cls-5" d="M25,64H19a3,3,0,0,1-3-3V55a3,3,0,0,1,3-3h6a3,3,0,0,1,3,3v6A3,3,0,0,1,25,64ZM19,54a1,1,0,0,0-1,1v6a1,1,0,0,0,1,1h6a1,1,0,0,0,1-1V55a1,1,0,0,0-1-1Z"/><path class="cls-11" d="M21,90H17a1,1,0,0,1,0-2h4a1,1,0,0,1,0,2Z"/><path class="cls-11" d="M29,90H25a1,1,0,0,1,0-2h4a1,1,0,0,1,0,2Z"/><path class="cls-11" d="M39,94H17a1,1,0,0,1,0-2H39a1,1,0,0,1,0,2Z"/><path class="cls-11" d="M49,94H43a1,1,0,0,1,0-2h6a1,1,0,0,1,0,2Z"/><path class="cls-11" d="M17,78a1,1,0,0,1-1-1V75a1,1,0,0,1,2,0v2A1,1,0,0,1,17,78Z"/><path class="cls-11" d="M21,78a1,1,0,0,1-1-1V75a1,1,0,0,1,2,0v2A1,1,0,0,1,21,78Z"/><path class="cls-11" d="M25,78a1,1,0,0,1-1-1V75a1,1,0,0,1,2,0v2A1,1,0,0,1,25,78Z"/><path class="cls-11" d="M29,78a1,1,0,0,1-1-1V75a1,1,0,0,1,2,0v2A1,1,0,0,1,29,78Z"/><path class="cls-11" d="M37,78a1,1,0,0,1-1-1V75a1,1,0,0,1,2,0v2A1,1,0,0,1,37,78Z"/><path class="cls-11" d="M41,78a1,1,0,0,1-1-1V75a1,1,0,0,1,2,0v2A1,1,0,0,1,41,78Z"/><path class="cls-11" d="M45,78a1,1,0,0,1-1-1V75a1,1,0,0,1,2,0v2A1,1,0,0,1,45,78Z"/><path class="cls-11" d="M49,78a1,1,0,0,1-1-1V75a1,1,0,0,1,2,0v2A1,1,0,0,1,49,78Z"/><path class="cls-11" d="M57,78a1,1,0,0,1-1-1V75a1,1,0,0,1,2,0v2A1,1,0,0,1,57,78Z"/><path class="cls-11" d="M61,78a1,1,0,0,1-1-1V75a1,1,0,0,1,2,0v2A1,1,0,0,1,61,78Z"/><path class="cls-11" d="M65,78a1,1,0,0,1-1-1V75a1,1,0,0,1,2,0v2A1,1,0,0,1,65,78Z"/><path class="cls-11" d="M69,78a1,1,0,0,1-1-1V75a1,1,0,0,1,2,0v2A1,1,0,0,1,69,78Z"/><path class="cls-11" d="M77,78a1,1,0,0,1-1-1V75a1,1,0,0,1,2,0v2A1,1,0,0,1,77,78Z"/><path class="cls-11" d="M81,78a1,1,0,0,1-1-1V75a1,1,0,0,1,2,0v2A1,1,0,0,1,81,78Z"/><path class="cls-11" d="M85,78a1,1,0,0,1-1-1V75a1,1,0,0,1,2,0v2A1,1,0,0,1,85,78Z"/><path class="cls-11" d="M89,78a1,1,0,0,1-1-1V75a1,1,0,0,1,2,0v2A1,1,0,0,1,89,78Z"/><circle class="cls-12" cx="85" cy="89" r="6"/><circle class="cls-11" cx="76" cy="89" r="6"/><path class="cls-5" d="M85,96a7,7,0,0,1-4.5-1.67,7,7,0,1,1,0-10.66A7,7,0,1,1,85,96Zm-4.5-4.07a1,1,0,0,1,.75.34,5,5,0,1,0,0-6.54,1,1,0,0,1-1.51,0,5,5,0,1,0,0,6.54A1,1,0,0,1,80.5,91.93Z"/><circle class="cls-6" cx="103" cy="95" r="20"/><g class="cls-1"><path class="cls-4" d="M103,112A20,20,0,0,1,83.08,93.5c0,.5-.08,1-.08,1.5a20,20,0,0,0,40,0c0-.51,0-1-.08-1.5A20,20,0,0,1,103,112Z"/></g><g class="cls-13"><path class="cls-11" d="M103,78a20,20,0,0,1,19.92,18.5c0-.5.08-1,.08-1.5a20,20,0,0,0-40,0c0,.51,0,1,.08,1.5A20,20,0,0,1,103,78Z"/></g><path class="cls-5" d="M103,116a21,21,0,1,1,21-21A21,21,0,0,1,103,116Zm0-40a19,19,0,1,0,19,19A19,19,0,0,0,103,76Z"/><g class="cls-1"><path class="cls-4" d="M114.47,89.2a2.46,2.46,0,0,0-4.3-1.25l-9,8.38-3.9-1.06a2.45,2.45,0,0,0-3.83,2A2.37,2.37,0,0,0,94.16,99l5.58,6.25a2.79,2.79,0,0,0,2,.79h.16a2.8,2.8,0,0,0,2-1.12L114,91A2.43,2.43,0,0,0,114.47,89.2Z"/></g><path class="cls-11" d="M113.39,87.16a1.34,1.34,0,0,0-.54-.89h0a1.37,1.37,0,0,0-1.88.25l-9.52,9-4.59-1.43c-.89-.42-1.35-.43-1.86.08a1.35,1.35,0,0,0-.4,1A1.32,1.32,0,0,0,95,96l5.53,6.2a1.68,1.68,0,0,0,1.18.48h.12A1.69,1.69,0,0,0,103,102l10.09-13.87A1.34,1.34,0,0,0,113.39,87.16Z"/><path class="cls-5" d="M101.73,103.71a2.69,2.69,0,0,1-1.92-.77L94.23,96.7a2.27,2.27,0,0,1-.63-1.59,2.34,2.34,0,0,1,3.62-2l4,1.23,9.05-8.54A2.37,2.37,0,0,1,114.38,87h0a2.33,2.33,0,0,1-.45,1.75l-10.08,13.86a2.7,2.7,0,0,1-2,1.08h-.16Zm-5.92-9-.1.09a.35.35,0,0,0-.11.26.33.33,0,0,0,.08.22l5.58,6.25a.67.67,0,0,0,.43.15h.08a.67.67,0,0,0,.47-.27l10.08-13.86a.35.35,0,0,0,.08-.27.35.35,0,0,0-.14-.23.37.37,0,0,0-.51.06l-.09.1-9.52,9a1,1,0,0,1-1,.23L96.56,95,96.43,95C96,94.75,95.83,94.74,95.81,94.75Z"/></svg>