<?xml version="1.0" ?><svg data-name="003" id="_003" viewBox="0 0 128 128" xmlns="http://www.w3.org/2000/svg"><defs><style>.cls-1{opacity:0.3;}.cls-13,.cls-2{fill:#c9c1f5;}.cls-3{fill:#fffad1;}.cls-4{fill:#6d6daa;}.cls-5{fill:#e0f3ff;}.cls-17,.cls-6{fill:#ff99b1;}.cls-13,.cls-14,.cls-15,.cls-18,.cls-19,.cls-22,.cls-23,.cls-24,.cls-26,.cls-6,.cls-7,.cls-8{fill-rule:evenodd;}.cls-7{fill:#db4962;}.cls-20,.cls-8{fill:#fff9e0;}.cls-15,.cls-9{fill:#fff;}.cls-10{fill:#a09557;}.cls-11{opacity:0.5;}.cls-12,.cls-22{fill:#b1f1a8;}.cls-14{fill:#554dad;}.cls-16,.cls-23{fill:#48bc33;}.cls-18{fill:#96d7ff;}.cls-19{fill:#1c64ba;}.cls-21{fill:#d63c74;}.cls-24,.cls-27{fill:#fff27d;}.cls-25{opacity:0.4;}.cls-26{fill:#f7a706;}.cls-28{fill:#ffc661;}.cls-29{fill:#939fc6;}.cls-30{fill:#4c5a7f;}.cls-31{fill:#9eb2cc;}.cls-32{fill:#ced8ee;}.cls-33{fill:#eef6ff;}.cls-34{fill:#7690a8;}.cls-35{fill:#ff9797;}</style></defs><title/><g class="cls-1"><path class="cls-2" d="M126.69,46.66a30,30,0,0,0-23.51-25,19.69,19.69,0,0,1-10.93-6.55A37,37,0,0,0,28,30.43,21,21,0,0,1,17.11,44.11C2.95,51.47-4.15,70.57,8.76,88.49a16.6,16.6,0,0,0,6.35,4.91,20.58,20.58,0,0,1,10,10.88,28.49,28.49,0,0,0,42.62,12.64A20.06,20.06,0,0,1,84.38,114a29,29,0,0,0,36-33.79A20.08,20.08,0,0,1,122.93,66,29.83,29.83,0,0,0,126.69,46.66Z"/><rect class="cls-3" height="6" width="118" x="5" y="71"/><path class="cls-4" d="M123,78H5a1,1,0,0,1-1-1V71a1,1,0,0,1,1-1H123a1,1,0,0,1,1,1v6A1,1,0,0,1,123,78ZM6,76H122V72H6Z"/><rect class="cls-3" height="6" width="118" x="5" y="31"/><path class="cls-4" d="M123,38H5a1,1,0,0,1-1-1V31a1,1,0,0,1,1-1H123a1,1,0,0,1,1,1v6A1,1,0,0,1,123,38ZM6,36H122V32H6Z"/><rect class="cls-5" height="12" width="15" x="104" y="19"/><path class="cls-4" d="M119,32H104a1,1,0,0,1-1-1V19a1,1,0,0,1,1-1h15a1,1,0,0,1,1,1V31A1,1,0,0,1,119,32Zm-14-2h13V20H105Z"/><rect class="cls-5" height="5" width="17" x="103" y="14"/><path class="cls-4" d="M120,20H103a1,1,0,0,1-1-1V14a1,1,0,0,1,1-1h17a1,1,0,0,1,1,1v5A1,1,0,0,1,120,20Zm-16-2h15V15H104Z"/><path class="cls-4" d="M114,24h-5a1,1,0,0,1,0-2h5a1,1,0,0,1,0,2Z"/><path class="cls-4" d="M104,126H22a1,1,0,1,1,0-2h82a1,1,0,0,1,0,2Z"/><path class="cls-4" d="M111,126h-4a1,1,0,0,1,0-2h4a1,1,0,0,1,0,2Z"/><path class="cls-4" d="M19,126H17a1,1,0,0,1,0-2h2a1,1,0,0,1,0,2Z"/><path class="cls-3" d="M31.2,3.72C32.62,5.13,33,9,33,9s-3.87-.38-5.28-1.8A2.46,2.46,0,0,1,31.2,3.72Z"/><path class="cls-4" d="M33,10h-.1c-.43,0-4.27-.47-5.89-2.09A3.46,3.46,0,0,1,31.91,3C33.53,4.63,34,8.47,34,8.9A1,1,0,0,1,33,10ZM29.46,4a1.46,1.46,0,0,0-1,2.49,7.58,7.58,0,0,0,3.38,1.31,7.58,7.58,0,0,0-1.32-3.38A1.46,1.46,0,0,0,29.46,4Z"/><path class="cls-3" d="M34.8,3.72C33.38,5.13,33,9,33,9s3.87-.38,5.28-1.8A2.46,2.46,0,0,0,34.8,3.72Z"/><path class="cls-4" d="M33,10a1,1,0,0,1-1-1.1c0-.43.47-4.27,2.09-5.89A3.46,3.46,0,1,1,39,7.91C37.37,9.53,33.53,10,33.1,10Zm3.54-6a1.46,1.46,0,0,0-1,.43,7.56,7.56,0,0,0-1.31,3.38,7.57,7.57,0,0,0,3.38-1.31,1.46,1.46,0,0,0-1-2.49Z"/><path class="cls-6" d="M44,31H22a2,2,0,0,1-2-2V15H46V29A2,2,0,0,1,44,31Z"/><g class="cls-1"><path class="cls-7" d="M44,28H22a2,2,0,0,1-2-2v3a2,2,0,0,0,2,2H44a2,2,0,0,0,2-2V26A2,2,0,0,1,44,28Z"/></g><path class="cls-4" d="M44,32H22a3,3,0,0,1-3-3V15a1,1,0,0,1,1-1H46a1,1,0,0,1,1,1V29A3,3,0,0,1,44,32ZM21,16V29a1,1,0,0,0,1,1H44a1,1,0,0,0,1-1V16Z"/><path class="cls-6" d="M47,15H19V11a2,2,0,0,1,2-2H45a2,2,0,0,1,2,2Z"/><g class="cls-1"><path class="cls-8" d="M45,9H21a2,2,0,0,0-2,2v3a2,2,0,0,1,2-2H45a2,2,0,0,1,2,2V11A2,2,0,0,0,45,9Z"/></g><path class="cls-4" d="M47,16H19a1,1,0,0,1-1-1V11a3,3,0,0,1,3-3H45a3,3,0,0,1,3,3v4A1,1,0,0,1,47,16ZM20,14H46V11a1,1,0,0,0-1-1H21a1,1,0,0,0-1,1Z"/><rect class="cls-3" height="22" width="6" x="30" y="9"/><rect class="cls-9" height="3" width="6" x="30" y="9"/><g class="cls-1"><rect class="cls-10" height="3" width="6" x="30" y="28"/></g><path class="cls-4" d="M36,32H30a1,1,0,0,1-1-1V9a1,1,0,0,1,1-1h6a1,1,0,0,1,1,1V31A1,1,0,0,1,36,32Zm-5-2h4V10H31Z"/><g class="cls-11"><path class="cls-4" d="M36,16H30a1,1,0,0,1,0-2h6a1,1,0,0,1,0,2Z"/></g><path class="cls-12" d="M65.2,3.72C66.62,5.13,67,9,67,9s-3.87-.38-5.28-1.8A2.46,2.46,0,0,1,65.2,3.72Z"/><path class="cls-4" d="M67,10h-.1c-.43,0-4.27-.47-5.89-2.09A3.46,3.46,0,0,1,65.91,3C67.53,4.63,68,8.47,68,8.9A1,1,0,0,1,67,10ZM63.46,4a1.46,1.46,0,0,0-1,2.49,7.58,7.58,0,0,0,3.38,1.31,7.58,7.58,0,0,0-1.32-3.38A1.46,1.46,0,0,0,63.46,4Z"/><path class="cls-12" d="M68.8,3.72C67.38,5.13,67,9,67,9s3.87-.38,5.28-1.8A2.46,2.46,0,1,0,68.8,3.72Z"/><path class="cls-4" d="M67,10a1,1,0,0,1-1-1.1c0-.43.47-4.27,2.09-5.89A3.46,3.46,0,1,1,73,7.91C71.37,9.53,67.53,10,67.1,10Zm3.54-6a1.46,1.46,0,0,0-1,.43,7.56,7.56,0,0,0-1.31,3.38,7.57,7.57,0,0,0,3.38-1.31,1.46,1.46,0,0,0-1-2.49Z"/><path class="cls-13" d="M78,31H56a2,2,0,0,1-2-2V15H80V29A2,2,0,0,1,78,31Z"/><g class="cls-1"><path class="cls-14" d="M78,28H56a2,2,0,0,1-2-2v3a2,2,0,0,0,2,2H78a2,2,0,0,0,2-2V26A2,2,0,0,1,78,28Z"/></g><path class="cls-4" d="M78,32H56a3,3,0,0,1-3-3V15a1,1,0,0,1,1-1H80a1,1,0,0,1,1,1V29A3,3,0,0,1,78,32ZM55,16V29a1,1,0,0,0,1,1H78a1,1,0,0,0,1-1V16Z"/><path class="cls-13" d="M81,15H53V11a2,2,0,0,1,2-2H79a2,2,0,0,1,2,2Z"/><g class="cls-1"><path class="cls-15" d="M79,9H55a2,2,0,0,0-2,2v3a2,2,0,0,1,2-2H79a2,2,0,0,1,2,2V11A2,2,0,0,0,79,9Z"/></g><path class="cls-4" d="M81,16H53a1,1,0,0,1-1-1V11a3,3,0,0,1,3-3H79a3,3,0,0,1,3,3v4A1,1,0,0,1,81,16ZM54,14H80V11a1,1,0,0,0-1-1H55a1,1,0,0,0-1,1Z"/><rect class="cls-12" height="22" width="6" x="64" y="9"/><g class="cls-11"><rect class="cls-9" height="3" width="6" x="64" y="9"/></g><g class="cls-1"><rect class="cls-16" height="3" width="6" x="64" y="28"/></g><path class="cls-4" d="M70,32H64a1,1,0,0,1-1-1V9a1,1,0,0,1,1-1h6a1,1,0,0,1,1,1V31A1,1,0,0,1,70,32Zm-5-2h4V10H65Z"/><g class="cls-11"><path class="cls-4" d="M70,16H64a1,1,0,0,1,0-2h6a1,1,0,0,1,0,2Z"/></g><path class="cls-17" d="M21.2,43.72C22.62,45.13,23,49,23,49s-3.87-.38-5.28-1.8a2.46,2.46,0,1,1,3.48-3.48Z"/><path class="cls-4" d="M23,50h-.1c-.43,0-4.27-.47-5.89-2.09A3.46,3.46,0,1,1,21.91,43c1.62,1.62,2,5.46,2.09,5.89A1,1,0,0,1,23,50Zm-3.54-6a1.46,1.46,0,0,0-1,2.49,7.58,7.58,0,0,0,3.38,1.31,7.58,7.58,0,0,0-1.32-3.38A1.46,1.46,0,0,0,19.46,44Z"/><path class="cls-17" d="M24.8,43.72C23.38,45.13,23,49,23,49s3.87-.38,5.28-1.8a2.46,2.46,0,0,0-3.48-3.48Z"/><path class="cls-4" d="M23,50a1,1,0,0,1-1-1.1c0-.43.47-4.27,2.09-5.89A3.46,3.46,0,1,1,29,47.91c-1.62,1.62-5.45,2-5.89,2.09Zm3.54-6a1.46,1.46,0,0,0-1,.43,7.56,7.56,0,0,0-1.31,3.38,7.57,7.57,0,0,0,3.38-1.31,1.46,1.46,0,0,0-1-2.49Z"/><path class="cls-18" d="M34,71H12a2,2,0,0,1-2-2V55H36V69A2,2,0,0,1,34,71Z"/><g class="cls-1"><path class="cls-19" d="M34,68H12a2,2,0,0,1-2-2v3a2,2,0,0,0,2,2H34a2,2,0,0,0,2-2V66A2,2,0,0,1,34,68Z"/></g><path class="cls-4" d="M34,72H12a3,3,0,0,1-3-3V55a1,1,0,0,1,1-1H36a1,1,0,0,1,1,1V69A3,3,0,0,1,34,72ZM11,56V69a1,1,0,0,0,1,1H34a1,1,0,0,0,1-1V56Z"/><path class="cls-18" d="M37,55H9V51a2,2,0,0,1,2-2H35a2,2,0,0,1,2,2Z"/><g class="cls-1"><path class="cls-15" d="M35,49H11a2,2,0,0,0-2,2v3a2,2,0,0,1,2-2H35a2,2,0,0,1,2,2V51A2,2,0,0,0,35,49Z"/></g><path class="cls-4" d="M37,56H9a1,1,0,0,1-1-1V51a3,3,0,0,1,3-3H35a3,3,0,0,1,3,3v4A1,1,0,0,1,37,56ZM10,54H36V51a1,1,0,0,0-1-1H11a1,1,0,0,0-1,1Z"/><rect class="cls-17" height="22" width="6" x="20" y="49"/><g class="cls-1"><rect class="cls-20" height="3" width="6" x="20" y="49"/></g><g class="cls-1"><rect class="cls-21" height="3" width="6" x="20" y="68"/></g><path class="cls-4" d="M26,72H20a1,1,0,0,1-1-1V49a1,1,0,0,1,1-1h6a1,1,0,0,1,1,1V71A1,1,0,0,1,26,72Zm-5-2h4V50H21Z"/><g class="cls-11"><path class="cls-4" d="M26,56H20a1,1,0,0,1,0-2h6a1,1,0,0,1,0,2Z"/></g><path class="cls-3" d="M55.2,43.72C56.62,45.13,57,49,57,49s-3.87-.38-5.28-1.8a2.46,2.46,0,1,1,3.48-3.48Z"/><path class="cls-4" d="M57,50h-.1c-.43,0-4.27-.47-5.89-2.09A3.46,3.46,0,1,1,55.91,43c1.62,1.62,2,5.46,2.09,5.89A1,1,0,0,1,57,50Zm-3.54-6a1.46,1.46,0,0,0-1,2.49,7.58,7.58,0,0,0,3.38,1.31,7.58,7.58,0,0,0-1.32-3.38A1.46,1.46,0,0,0,53.46,44Z"/><path class="cls-3" d="M58.8,43.72C57.38,45.13,57,49,57,49s3.87-.38,5.28-1.8a2.46,2.46,0,0,0-3.48-3.48Z"/><path class="cls-4" d="M57,50a1,1,0,0,1-1-1.1c0-.43.47-4.27,2.09-5.89A3.46,3.46,0,1,1,63,47.91c-1.62,1.62-5.45,2-5.89,2.09Zm3.54-6a1.46,1.46,0,0,0-1,.43,7.56,7.56,0,0,0-1.31,3.38,7.57,7.57,0,0,0,3.38-1.31,1.46,1.46,0,0,0-1-2.49Z"/><path class="cls-22" d="M68,71H46a2,2,0,0,1-2-2V55H70V69A2,2,0,0,1,68,71Z"/><g class="cls-1"><path class="cls-23" d="M68,68H46a2,2,0,0,1-2-2v3a2,2,0,0,0,2,2H68a2,2,0,0,0,2-2V66A2,2,0,0,1,68,68Z"/></g><path class="cls-4" d="M68,72H46a3,3,0,0,1-3-3V55a1,1,0,0,1,1-1H70a1,1,0,0,1,1,1V69A3,3,0,0,1,68,72ZM45,56V69a1,1,0,0,0,1,1H68a1,1,0,0,0,1-1V56Z"/><path class="cls-22" d="M71,55H43V51a2,2,0,0,1,2-2H69a2,2,0,0,1,2,2Z"/><g class="cls-1"><path class="cls-15" d="M69,49H45a2,2,0,0,0-2,2v3a2,2,0,0,1,2-2H69a2,2,0,0,1,2,2V51A2,2,0,0,0,69,49Z"/></g><path class="cls-4" d="M71,56H43a1,1,0,0,1-1-1V51a3,3,0,0,1,3-3H69a3,3,0,0,1,3,3v4A1,1,0,0,1,71,56ZM44,54H70V51a1,1,0,0,0-1-1H45a1,1,0,0,0-1,1Z"/><rect class="cls-3" height="22" width="6" x="54" y="49"/><rect class="cls-9" height="3" width="6" x="54" y="49"/><g class="cls-1"><rect class="cls-10" height="3" width="6" x="54" y="68"/></g><path class="cls-4" d="M60,72H54a1,1,0,0,1-1-1V49a1,1,0,0,1,1-1h6a1,1,0,0,1,1,1V71A1,1,0,0,1,60,72Zm-5-2h4V50H55Z"/><g class="cls-11"><path class="cls-4" d="M60,56H54a1,1,0,0,1,0-2h6a1,1,0,0,1,0,2Z"/></g><path class="cls-2" d="M105.2,43.72C106.62,45.13,107,49,107,49s-3.87-.38-5.28-1.8a2.46,2.46,0,1,1,3.48-3.48Z"/><path class="cls-4" d="M107,50h-.1c-.43,0-4.27-.47-5.89-2.09a3.46,3.46,0,1,1,4.89-4.9c1.62,1.62,2,5.46,2.09,5.89a1,1,0,0,1-1,1.1Zm-3.54-6a1.46,1.46,0,0,0-1,2.49,7.58,7.58,0,0,0,3.38,1.31,7.58,7.58,0,0,0-1.32-3.38A1.46,1.46,0,0,0,103.46,44Z"/><path class="cls-2" d="M108.8,43.72C107.38,45.13,107,49,107,49s3.87-.38,5.28-1.8a2.46,2.46,0,1,0-3.48-3.48Z"/><path class="cls-4" d="M107,50a1,1,0,0,1-1-1.1c0-.43.47-4.27,2.09-5.89a3.46,3.46,0,1,1,4.89,4.9c-1.62,1.62-5.45,2-5.89,2.09Zm3.54-6a1.46,1.46,0,0,0-1,.43,7.56,7.56,0,0,0-1.31,3.38,7.57,7.57,0,0,0,3.38-1.31,1.46,1.46,0,0,0-1-2.49Z"/><path class="cls-24" d="M118,71H96a2,2,0,0,1-2-2V55h26V69A2,2,0,0,1,118,71Z"/><path class="cls-4" d="M118,72H96a3,3,0,0,1-3-3V55a1,1,0,0,1,1-1h26a1,1,0,0,1,1,1V69A3,3,0,0,1,118,72ZM95,56V69a1,1,0,0,0,1,1h22a1,1,0,0,0,1-1V56Z"/><g class="cls-25"><path class="cls-26" d="M118,68H96a2,2,0,0,1-2-2v3a2,2,0,0,0,2,2h22a2,2,0,0,0,2-2V66A2,2,0,0,1,118,68Z"/></g><path class="cls-4" d="M118,72H96a3,3,0,0,1-3-3V55a1,1,0,0,1,1-1h26a1,1,0,0,1,1,1V69A3,3,0,0,1,118,72ZM95,56V69a1,1,0,0,0,1,1h22a1,1,0,0,0,1-1V56Z"/><path class="cls-24" d="M121,55H93V51a2,2,0,0,1,2-2h24a2,2,0,0,1,2,2Z"/><path class="cls-4" d="M121,56H93a1,1,0,0,1-1-1V51a3,3,0,0,1,3-3h24a3,3,0,0,1,3,3v4A1,1,0,0,1,121,56ZM94,54h26V51a1,1,0,0,0-1-1H95a1,1,0,0,0-1,1Z"/><path class="cls-15" d="M119,49H95a2,2,0,0,0-2,2v3a2,2,0,0,1,2-2h24a2,2,0,0,1,2,2V51A2,2,0,0,0,119,49Z"/><path class="cls-4" d="M121,56H93a1,1,0,0,1-1-1V51a3,3,0,0,1,3-3h24a3,3,0,0,1,3,3v4A1,1,0,0,1,121,56ZM94,54h26V51a1,1,0,0,0-1-1H95a1,1,0,0,0-1,1Z"/><rect class="cls-2" height="22" width="6" x="104" y="49"/><g class="cls-1"><rect class="cls-9" height="3" width="6" x="104" y="49"/></g><g class="cls-1"><rect class="cls-10" height="3" width="6" x="104" y="68"/></g><path class="cls-4" d="M110,72h-6a1,1,0,0,1-1-1V49a1,1,0,0,1,1-1h6a1,1,0,0,1,1,1V71A1,1,0,0,1,110,72Zm-5-2h4V50h-4Z"/><g class="cls-11"><path class="cls-4" d="M110,56h-6a1,1,0,0,1,0-2h6a1,1,0,0,1,0,2Z"/></g><rect class="cls-27" height="3" width="7" x="10" y="110"/><path class="cls-4" d="M17,114H10a1,1,0,0,1-1-1v-3a1,1,0,0,1,1-1h7a1,1,0,0,1,1,1v3A1,1,0,0,1,17,114Zm-6-2h5v-1H11Z"/><rect class="cls-28" height="3" width="7" x="10" y="107"/><path class="cls-4" d="M17,111H10a1,1,0,0,1-1-1v-3a1,1,0,0,1,1-1h7a1,1,0,0,1,1,1v3A1,1,0,0,1,17,111Zm-6-2h5v-1H11Z"/><rect class="cls-27" height="3" width="7" x="10" y="104"/><path class="cls-4" d="M17,108H10a1,1,0,0,1-1-1v-3a1,1,0,0,1,1-1h7a1,1,0,0,1,1,1v3A1,1,0,0,1,17,108Zm-6-2h5v-1H11Z"/><rect class="cls-27" height="3" width="7" x="16" y="112"/><path class="cls-4" d="M23,116H16a1,1,0,0,1-1-1v-3a1,1,0,0,1,1-1h7a1,1,0,0,1,1,1v3A1,1,0,0,1,23,116Zm-6-2h5v-1H17Z"/><rect class="cls-28" height="3" width="7" x="16" y="109"/><path class="cls-4" d="M23,113H16a1,1,0,0,1-1-1v-3a1,1,0,0,1,1-1h7a1,1,0,0,1,1,1v3A1,1,0,0,1,23,113Zm-6-2h5v-1H17Z"/><rect class="cls-27" height="3" width="7" x="16" y="106"/><path class="cls-4" d="M23,110H16a1,1,0,0,1-1-1v-3a1,1,0,0,1,1-1h7a1,1,0,0,1,1,1v3A1,1,0,0,1,23,110Zm-6-2h5v-1H17Z"/><rect class="cls-28" height="3" width="7" x="16" y="103"/><path class="cls-4" d="M23,107H16a1,1,0,0,1-1-1v-3a1,1,0,0,1,1-1h7a1,1,0,0,1,1,1v3A1,1,0,0,1,23,107Zm-6-2h5v-1H17Z"/><rect class="cls-27" height="3" width="7" x="16" y="100"/><path class="cls-4" d="M23,104H16a1,1,0,0,1-1-1v-3a1,1,0,0,1,1-1h7a1,1,0,0,1,1,1v3A1,1,0,0,1,23,104Zm-6-2h5v-1H17Z"/><rect class="cls-27" height="3" width="7" x="5" y="113"/><path class="cls-4" d="M12,117H5a1,1,0,0,1-1-1v-3a1,1,0,0,1,1-1h7a1,1,0,0,1,1,1v3A1,1,0,0,1,12,117Zm-6-2h5v-1H6Z"/><rect class="cls-28" height="3" width="7" x="5" y="110"/><path class="cls-4" d="M12,114H5a1,1,0,0,1-1-1v-3a1,1,0,0,1,1-1h7a1,1,0,0,1,1,1v3A1,1,0,0,1,12,114Zm-6-2h5v-1H6Z"/><rect class="cls-27" height="3" width="7" x="5" y="107"/><path class="cls-4" d="M12,111H5a1,1,0,0,1-1-1v-3a1,1,0,0,1,1-1h7a1,1,0,0,1,1,1v3A1,1,0,0,1,12,111Zm-6-2h5v-1H6Z"/><rect class="cls-27" height="3" width="7" x="115" y="112"/><path class="cls-4" d="M122,116h-7a1,1,0,0,1-1-1v-3a1,1,0,0,1,1-1h7a1,1,0,0,1,1,1v3A1,1,0,0,1,122,116Zm-6-2h5v-1h-5Z"/><rect class="cls-28" height="3" transform="translate(-45.6 112.91) rotate(-45)" width="7" x="110" y="110"/><path class="cls-4" d="M112.08,116a1,1,0,0,1-.71-.29l-2.12-2.12a1,1,0,0,1,0-1.41l5-4.95a1,1,0,0,1,1.41,0l2.12,2.12a1,1,0,0,1,0,1.41l-5,4.95A1,1,0,0,1,112.08,116Zm-.71-3.12.71.71,3.54-3.54-.71-.71Z"/></g><rect class="cls-29" height="14" rx="2" ry="2" width="87" x="21" y="108"/><g class="cls-1"><path class="cls-9" d="M106,108H23a2,2,0,0,0-2,2v4a2,2,0,0,1,2-2h83a2,2,0,0,1,2,2v-4A2,2,0,0,0,106,108Z"/></g><g class="cls-1"><path class="cls-30" d="M23,122h83a2,2,0,0,0,2-2v-4a2,2,0,0,1-2,2H23a2,2,0,0,1-2-2v4A2,2,0,0,0,23,122Z"/></g><path class="cls-4" d="M106,123H23a3,3,0,0,1-3-3V110a3,3,0,0,1,3-3h83a3,3,0,0,1,3,3v10A3,3,0,0,1,106,123ZM23,109a1,1,0,0,0-1,1v10a1,1,0,0,0,1,1h83a1,1,0,0,0,1-1V110a1,1,0,0,0-1-1Z"/><rect class="cls-31" height="3" width="83" x="23" y="105"/><path class="cls-4" d="M106,109H23a1,1,0,0,1-1-1v-3a1,1,0,0,1,1-1h83a1,1,0,0,1,1,1v3A1,1,0,0,1,106,109Zm-82-2h81v-1H24Z"/><polygon class="cls-29" points="38 125 32 125 31 122 39 122 38 125"/><path class="cls-4" d="M38,126H32a1,1,0,0,1-.95-.68l-1-3A1,1,0,0,1,31,121h8a1,1,0,0,1,.95,1.32l-1,3A1,1,0,0,1,38,126Zm-5.28-2h4.56l.33-1H32.39Z"/><polygon class="cls-29" points="97 125 91 125 90 122 98 122 97 125"/><path class="cls-4" d="M97,126H91a1,1,0,0,1-.95-.68l-1-3A1,1,0,0,1,90,121h8a1,1,0,0,1,.95,1.32l-1,3A1,1,0,0,1,97,126Zm-5.28-2h4.56l.33-1H91.39Z"/><path class="cls-32" d="M106,105H23a2,2,0,0,1-2-2V99h87v4A2,2,0,0,1,106,105Z"/><path class="cls-4" d="M106,106H23a3,3,0,0,1-3-3V99a1,1,0,0,1,1-1h87a1,1,0,0,1,1,1v4A3,3,0,0,1,106,106Zm-84-6v3a1,1,0,0,0,1,1h83a1,1,0,0,0,1-1v-3Z"/><path class="cls-33" d="M104,80H64V58h38a2,2,0,0,1,2,2Z"/><path class="cls-9" d="M102,58H64v4h38a2,2,0,0,1,2,2V60A2,2,0,0,0,102,58Z"/><path class="cls-4" d="M104,81H64a1,1,0,0,1-1-1V58a1,1,0,0,1,1-1h38a3,3,0,0,1,3,3V80A1,1,0,0,1,104,81ZM65,79h38V60a1,1,0,0,0-1-1H65Z"/><path class="cls-33" d="M64,80H25V58a2,2,0,0,1,2-2H62a2,2,0,0,1,2,2Z"/><path class="cls-9" d="M62,56H27a2,2,0,0,0-2,2v4a2,2,0,0,1,2-2H62a2,2,0,0,1,2,2V58A2,2,0,0,0,62,56Z"/><path class="cls-4" d="M64,81H25a1,1,0,0,1-1-1V58a3,3,0,0,1,3-3H62a3,3,0,0,1,3,3V80A1,1,0,0,1,64,81ZM26,79H63V58a1,1,0,0,0-1-1H27a1,1,0,0,0-1,1Z"/><polygon class="cls-33" points="108 98.84 21 98.84 25 80 104 80 108 98.84"/><path class="cls-4" d="M108,99.84H21a1,1,0,0,1-1-1.21l4-18.84A1,1,0,0,1,25,79h79a1,1,0,0,1,1,.79l4,18.84a1,1,0,0,1-1,1.21Zm-85.77-2h84.53L103.19,81H25.81Z"/><g class="cls-1"><path class="cls-34" d="M59,84H54c-.55,0-1-.55-1,0v4a1,1,0,0,0,1,1h5a1,1,0,0,0,1-1V84C60,83.45,59.55,84,59,84Z"/></g><rect class="cls-33" height="3" width="5" x="54" y="84"/><path class="cls-4" d="M59,88H54a1,1,0,0,1-1-1V84a1,1,0,0,1,1-1h5a1,1,0,0,1,1,1v3A1,1,0,0,1,59,88Zm-4-2h3V85H55Z"/><g class="cls-1"><path class="cls-34" d="M67,84H62c-.55,0-1-.55-1,0v4a1,1,0,0,0,1,1h5a1,1,0,0,0,1-1V84C68,83.45,67.55,84,67,84Z"/></g><rect class="cls-33" height="3" width="5" x="62" y="84"/><path class="cls-4" d="M67,88H62a1,1,0,0,1-1-1V84a1,1,0,0,1,1-1h5a1,1,0,0,1,1,1v3A1,1,0,0,1,67,88Zm-4-2h3V85H63Z"/><g class="cls-1"><path class="cls-34" d="M75,84H70c-.55,0-1-.55-1,0v4a1,1,0,0,0,1,1h5a1,1,0,0,0,1-1V84C76,83.45,75.55,84,75,84Z"/></g><rect class="cls-33" height="3" width="5" x="70" y="84"/><path class="cls-4" d="M75,88H70a1,1,0,0,1-1-1V84a1,1,0,0,1,1-1h5a1,1,0,0,1,1,1v3A1,1,0,0,1,75,88Zm-4-2h3V85H71Z"/><g class="cls-1"><path class="cls-34" d="M84,84H79c-.55,0-1-.55-1,0v4a1,1,0,0,0,1,1h5a1,1,0,0,0,1-1V84C85,83.45,84.55,84,84,84Z"/></g><rect class="cls-33" height="3" width="5" x="79" y="84"/><path class="cls-4" d="M84,88H79a1,1,0,0,1-1-1V84a1,1,0,0,1,1-1h5a1,1,0,0,1,1,1v3A1,1,0,0,1,84,88Zm-4-2h3V85H80Z"/><g class="cls-1"><path class="cls-34" d="M92,84H87c-.55,0-1-.55-1,0v4a1,1,0,0,0,1,1h5a1,1,0,0,0,1-1V84C93,83.45,92.55,84,92,84Z"/></g><rect class="cls-33" height="3" width="5" x="87" y="84"/><path class="cls-4" d="M92,88H87a1,1,0,0,1-1-1V84a1,1,0,0,1,1-1h5a1,1,0,0,1,1,1v3A1,1,0,0,1,92,88Zm-4-2h3V85H88Z"/><g class="cls-1"><path class="cls-34" d="M100,84H95c-.55,0-1-.55-1,0v4a1,1,0,0,0,1,1h5a1,1,0,0,0,1-1V84C101,83.45,100.55,84,100,84Z"/></g><rect class="cls-33" height="3" width="5" x="95" y="84"/><path class="cls-4" d="M100,88H95a1,1,0,0,1-1-1V84a1,1,0,0,1,1-1h5a1,1,0,0,1,1,1v3A1,1,0,0,1,100,88Zm-4-2h3V85H96Z"/><g class="cls-1"><path class="cls-34" d="M59,87H54c-.55,0-1-.55-1,0v4a1,1,0,0,0,1,1h5a1,1,0,0,0,1-1V87C60,86.45,59.55,87,59,87Z"/></g><rect class="cls-33" height="3" width="5" x="54" y="87"/><path class="cls-4" d="M59,91H54a1,1,0,0,1-1-1V87a1,1,0,0,1,1-1h5a1,1,0,0,1,1,1v3A1,1,0,0,1,59,91Zm-4-2h3V88H55Z"/><g class="cls-1"><path class="cls-34" d="M67,87H62c-.55,0-1-.55-1,0v4a1,1,0,0,0,1,1h5a1,1,0,0,0,1-1V87C68,86.45,67.55,87,67,87Z"/></g><rect class="cls-33" height="3" width="5" x="62" y="87"/><path class="cls-4" d="M67,91H62a1,1,0,0,1-1-1V87a1,1,0,0,1,1-1h5a1,1,0,0,1,1,1v3A1,1,0,0,1,67,91Zm-4-2h3V88H63Z"/><g class="cls-1"><path class="cls-34" d="M75,87H70c-.55,0-1-.55-1,0v4a1,1,0,0,0,1,1h5a1,1,0,0,0,1-1V87C76,86.45,75.55,87,75,87Z"/></g><rect class="cls-33" height="3" width="5" x="70" y="87"/><path class="cls-4" d="M75,91H70a1,1,0,0,1-1-1V87a1,1,0,0,1,1-1h5a1,1,0,0,1,1,1v3A1,1,0,0,1,75,91Zm-4-2h3V88H71Z"/><g class="cls-1"><path class="cls-34" d="M84,87H79c-.55,0-1-.55-1,0v4a1,1,0,0,0,1,1h5a1,1,0,0,0,1-1V87C85,86.45,84.55,87,84,87Z"/></g><rect class="cls-33" height="3" width="5" x="79" y="87"/><path class="cls-4" d="M84,91H79a1,1,0,0,1-1-1V87a1,1,0,0,1,1-1h5a1,1,0,0,1,1,1v3A1,1,0,0,1,84,91Zm-4-2h3V88H80Z"/><g class="cls-1"><path class="cls-34" d="M92,87H87c-.55,0-1-.55-1,0v4a1,1,0,0,0,1,1h5a1,1,0,0,0,1-1V87C93,86.45,92.55,87,92,87Z"/></g><rect class="cls-33" height="3" width="5" x="87" y="87"/><path class="cls-4" d="M92,91H87a1,1,0,0,1-1-1V87a1,1,0,0,1,1-1h5a1,1,0,0,1,1,1v3A1,1,0,0,1,92,91Zm-4-2h3V88H88Z"/><g class="cls-1"><path class="cls-34" d="M100,87H95c-.55,0-1-.55-1,0v4a1,1,0,0,0,1,1h5a1,1,0,0,0,1-1V87C101,86.45,100.55,87,100,87Z"/></g><rect class="cls-33" height="3" width="5" x="95" y="87"/><path class="cls-4" d="M100,91H95a1,1,0,0,1-1-1V87a1,1,0,0,1,1-1h5a1,1,0,0,1,1,1v3A1,1,0,0,1,100,91Zm-4-2h3V88H96Z"/><g class="cls-1"><path class="cls-34" d="M59,90H54c-.55,0-1-.55-1,0v4a1,1,0,0,0,1,1h5a1,1,0,0,0,1-1V90C60,89.45,59.55,90,59,90Z"/></g><rect class="cls-33" height="3" width="5" x="54" y="90"/><path class="cls-4" d="M59,94H54a1,1,0,0,1-1-1V90a1,1,0,0,1,1-1h5a1,1,0,0,1,1,1v3A1,1,0,0,1,59,94Zm-4-2h3V91H55Z"/><g class="cls-1"><path class="cls-34" d="M67,90H62c-.55,0-1-.55-1,0v4a1,1,0,0,0,1,1h5a1,1,0,0,0,1-1V90C68,89.45,67.55,90,67,90Z"/></g><rect class="cls-33" height="3" width="5" x="62" y="90"/><path class="cls-4" d="M67,94H62a1,1,0,0,1-1-1V90a1,1,0,0,1,1-1h5a1,1,0,0,1,1,1v3A1,1,0,0,1,67,94Zm-4-2h3V91H63Z"/><g class="cls-1"><path class="cls-34" d="M75,90H70c-.55,0-1-.55-1,0v4a1,1,0,0,0,1,1h5a1,1,0,0,0,1-1V90C76,89.45,75.55,90,75,90Z"/></g><rect class="cls-33" height="3" width="5" x="70" y="90"/><path class="cls-4" d="M75,94H70a1,1,0,0,1-1-1V90a1,1,0,0,1,1-1h5a1,1,0,0,1,1,1v3A1,1,0,0,1,75,94Zm-4-2h3V91H71Z"/><g class="cls-1"><path class="cls-34" d="M34,84H29c-.55,0-1-.55-1,0v4a1,1,0,0,0,1,1h5a1,1,0,0,0,1-1V84C35,83.45,34.55,84,34,84Z"/></g><rect class="cls-33" height="3" width="5" x="29" y="84"/><path class="cls-4" d="M34,88H29a1,1,0,0,1-1-1V84a1,1,0,0,1,1-1h5a1,1,0,0,1,1,1v3A1,1,0,0,1,34,88Zm-4-2h3V85H30Z"/><g class="cls-1"><path class="cls-34" d="M42,84H37c-.55,0-1-.55-1,0v4a1,1,0,0,0,1,1h5a1,1,0,0,0,1-1V84C43,83.45,42.55,84,42,84Z"/></g><rect class="cls-33" height="3" width="5" x="37" y="84"/><path class="cls-4" d="M42,88H37a1,1,0,0,1-1-1V84a1,1,0,0,1,1-1h5a1,1,0,0,1,1,1v3A1,1,0,0,1,42,88Zm-4-2h3V85H38Z"/><g class="cls-1"><path class="cls-34" d="M50,84H45c-.55,0-1-.55-1,0v4a1,1,0,0,0,1,1h5a1,1,0,0,0,1-1V84C51,83.45,50.55,84,50,84Z"/></g><rect class="cls-33" height="3" width="5" x="45" y="84"/><path class="cls-4" d="M50,88H45a1,1,0,0,1-1-1V84a1,1,0,0,1,1-1h5a1,1,0,0,1,1,1v3A1,1,0,0,1,50,88Zm-4-2h3V85H46Z"/><g class="cls-1"><path class="cls-34" d="M34,87H29c-.55,0-1-.55-1,0v4a1,1,0,0,0,1,1h5a1,1,0,0,0,1-1V87C35,86.45,34.55,87,34,87Z"/></g><rect class="cls-33" height="3" width="5" x="29" y="87"/><path class="cls-4" d="M34,91H29a1,1,0,0,1-1-1V87a1,1,0,0,1,1-1h5a1,1,0,0,1,1,1v3A1,1,0,0,1,34,91Zm-4-2h3V88H30Z"/><g class="cls-1"><path class="cls-34" d="M42,87H37c-.55,0-1-.55-1,0v4a1,1,0,0,0,1,1h5a1,1,0,0,0,1-1V87C43,86.45,42.55,87,42,87Z"/></g><rect class="cls-33" height="3" width="5" x="37" y="87"/><path class="cls-4" d="M42,91H37a1,1,0,0,1-1-1V87a1,1,0,0,1,1-1h5a1,1,0,0,1,1,1v3A1,1,0,0,1,42,91Zm-4-2h3V88H38Z"/><g class="cls-1"><path class="cls-34" d="M50,87H45c-.55,0-1-.55-1,0v4a1,1,0,0,0,1,1h5a1,1,0,0,0,1-1V87C51,86.45,50.55,87,50,87Z"/></g><rect class="cls-33" height="3" width="5" x="45" y="87"/><path class="cls-4" d="M50,91H45a1,1,0,0,1-1-1V87a1,1,0,0,1,1-1h5a1,1,0,0,1,1,1v3A1,1,0,0,1,50,91Zm-4-2h3V88H46Z"/><g class="cls-1"><path class="cls-34" d="M34,90H29c-.55,0-1-.55-1,0v4a1,1,0,0,0,1,1h5a1,1,0,0,0,1-1V90C35,89.45,34.55,90,34,90Z"/></g><rect class="cls-33" height="3" width="5" x="29" y="90"/><path class="cls-4" d="M34,94H29a1,1,0,0,1-1-1V90a1,1,0,0,1,1-1h5a1,1,0,0,1,1,1v3A1,1,0,0,1,34,94Zm-4-2h3V91H30Z"/><g class="cls-1"><path class="cls-34" d="M42,90H37c-.55,0-1-.55-1,0v4a1,1,0,0,0,1,1h5a1,1,0,0,0,1-1V90C43,89.45,42.55,90,42,90Z"/></g><rect class="cls-33" height="3" width="5" x="37" y="90"/><path class="cls-4" d="M42,94H37a1,1,0,0,1-1-1V90a1,1,0,0,1,1-1h5a1,1,0,0,1,1,1v3A1,1,0,0,1,42,94Zm-4-2h3V91H38Z"/><g class="cls-1"><path class="cls-34" d="M50,90H45c-.55,0-1-.55-1,0v4a1,1,0,0,0,1,1h5a1,1,0,0,0,1-1V90C51,89.45,50.55,90,50,90Z"/></g><rect class="cls-33" height="3" width="5" x="45" y="90"/><path class="cls-4" d="M50,94H45a1,1,0,0,1-1-1V90a1,1,0,0,1,1-1h5a1,1,0,0,1,1,1v3A1,1,0,0,1,50,94Zm-4-2h3V91H46Z"/><g class="cls-1"><path class="cls-34" d="M84,90H79c-.55,0-1-.55-1,0v4a1,1,0,0,0,1,1h5a1,1,0,0,0,1-1V90C85,89.45,84.55,90,84,90Z"/></g><rect class="cls-33" height="3" width="5" x="79" y="90"/><rect class="cls-35" height="3" width="5" x="79" y="90"/><path class="cls-4" d="M84,94H79a1,1,0,0,1-1-1V90a1,1,0,0,1,1-1h5a1,1,0,0,1,1,1v3A1,1,0,0,1,84,94Zm-4-2h3V91H80Z"/><g class="cls-1"><path class="cls-34" d="M92,90H87c-.55,0-1-.55-1,0v4a1,1,0,0,0,1,1h5a1,1,0,0,0,1-1V90C93,89.45,92.55,90,92,90Z"/></g><rect class="cls-33" height="3" width="5" x="87" y="90"/><path class="cls-4" d="M92,94H87a1,1,0,0,1-1-1V90a1,1,0,0,1,1-1h5a1,1,0,0,1,1,1v3A1,1,0,0,1,92,94Zm-4-2h3V91H88Z"/><g class="cls-1"><path class="cls-34" d="M100,90H95c-.55,0-1-.55-1,0v4a1,1,0,0,0,1,1h5a1,1,0,0,0,1-1V90C101,89.45,100.55,90,100,90Z"/></g><rect class="cls-12" height="3" width="5" x="95" y="90"/><path class="cls-4" d="M100,94H95a1,1,0,0,1-1-1V90a1,1,0,0,1,1-1h5a1,1,0,0,1,1,1v3A1,1,0,0,1,100,94Zm-4-2h3V91H96Z"/><path class="cls-4" d="M100,94H95a1,1,0,0,1-1-1V90a1,1,0,0,1,1-1h5a1,1,0,0,1,1,1v3A1,1,0,0,1,100,94Zm-4-2h3V91H96Z"/><circle class="cls-33" cx="65" cy="115" r="4"/><path class="cls-4" d="M65,120a5,5,0,1,1,5-5A5,5,0,0,1,65,120Zm0-8a3,3,0,1,0,3,3A3,3,0,0,0,65,112Z"/><path class="cls-4" d="M65,117a1,1,0,0,1-1-1v-2a1,1,0,0,1,2,0v2A1,1,0,0,1,65,117Z"/><rect class="cls-29" height="16" rx="2" ry="2" width="32" x="68" y="36"/><path class="cls-4" d="M98,53H70a3,3,0,0,1-3-3V38a3,3,0,0,1,3-3H98a3,3,0,0,1,3,3V50A3,3,0,0,1,98,53ZM70,37a1,1,0,0,0-1,1V50a1,1,0,0,0,1,1H98a1,1,0,0,0,1-1V38a1,1,0,0,0-1-1Z"/><rect class="cls-12" height="10" width="26" x="71" y="39"/><path class="cls-4" d="M84,46a1,1,0,0,1-1-1V43a1,1,0,0,1,2,0v2A1,1,0,0,1,84,46Z"/><path class="cls-4" d="M87,46a1,1,0,0,1-.71-.29A1,1,0,0,1,86,45a.83.83,0,0,1,.08-.38,1.15,1.15,0,0,1,.21-.33A1,1,0,0,1,87.2,44l.18.06a.76.76,0,0,1,.18.09l.15.12a1.15,1.15,0,0,1,.21.33A.85.85,0,0,1,88,45a1.26,1.26,0,0,1,0,.2.62.62,0,0,1-.06.18.78.78,0,0,1-.09.18l-.12.15-.15.12a.76.76,0,0,1-.18.09L87.2,46Z"/><path class="cls-4" d="M90,46a1,1,0,0,1-1-1V43a1,1,0,0,1,2,0v2A1,1,0,0,1,90,46Z"/><path class="cls-4" d="M93,46a1,1,0,0,1-1-1V43a1,1,0,0,1,2,0v2A1,1,0,0,1,93,46Z"/><g class="cls-1"><rect class="cls-16" height="3" width="26" x="71" y="39"/></g><g class="cls-11"><polygon class="cls-9" points="86.41 39 71 39 71 46.32 86.41 39"/></g><g class="cls-11"><polygon class="cls-9" points="71 48.77 71 49 76.83 49 97 39.42 97 39 91.57 39 71 48.77"/></g><path class="cls-4" d="M97,50H71a1,1,0,0,1-1-1V39a1,1,0,0,1,1-1H97a1,1,0,0,1,1,1V49A1,1,0,0,1,97,50ZM72,48H96V40H72Z"/><path class="cls-4" d="M87,59H81a1,1,0,0,1-1-1V52a1,1,0,0,1,1-1h6a1,1,0,0,1,1,1v6A1,1,0,0,1,87,59Zm-5-2h4V53H82Z"/><rect class="cls-12" height="14" width="32" x="68" y="62"/><g class="cls-11"><polygon class="cls-9" points="68 62 68 73.22 91.62 62 68 62"/></g><g class="cls-11"><polygon class="cls-9" points="68 76 73.62 76 100 63.47 100 62 96.78 62 68 75.67 68 76"/></g><g class="cls-1"><rect class="cls-16" height="3" width="32" x="68" y="62"/></g><path class="cls-4" d="M100,77H68a1,1,0,0,1-1-1V62a1,1,0,0,1,1-1h32a1,1,0,0,1,1,1V76A1,1,0,0,1,100,77ZM69,75H99V63H69Z"/><path class="cls-4" d="M83.4,73a1,1,0,0,1-.71-.29l-2.4-2.4a1,1,0,0,1,1.41-1.41l1.59,1.59,3.91-5.09a1,1,0,1,1,1.59,1.22l-4.6,6a1,1,0,0,1-.73.39Z"/><path class="cls-9" d="M65,34a4,4,0,0,1,4-4H49a4,4,0,0,0-4,4V44H61a4,4,0,0,0,4-4Z"/><path class="cls-4" d="M61,45H45a1,1,0,0,1-1-1V34a5,5,0,0,1,5-5H69a1,1,0,0,1,0,2,3,3,0,0,0-3,3v6A5,5,0,0,1,61,45ZM46,43H61a3,3,0,0,0,3-3V34a5,5,0,0,1,1-3H49a3,3,0,0,0-3,3Z"/><path class="cls-32" d="M57,40V30a4,4,0,0,0-4-4H43a4,4,0,0,1,4,4V44H61A4,4,0,0,1,57,40Z"/><path class="cls-4" d="M61,45H47a1,1,0,0,1-1-1V30a3,3,0,0,0-3-3,1,1,0,0,1,0-2H53a5,5,0,0,1,5,5V40a3,3,0,0,0,3,3,1,1,0,0,1,0,2ZM48,43h9a5,5,0,0,1-1-3V30a3,3,0,0,0-3-3H47a5,5,0,0,1,1,3Z"/><rect class="cls-29" height="4" rx="2" ry="2" width="24" x="29" y="62"/><path class="cls-4" d="M51,67H31a3,3,0,0,1,0-6H51a3,3,0,0,1,0,6ZM31,63a1,1,0,0,0,0,2H51a1,1,0,0,0,0-2Z"/><path class="cls-9" d="M49,30a4,4,0,0,1,4-4H37a4,4,0,0,0-4,4V66H49V30Z"/><g class="cls-1"><rect class="cls-34" height="3" width="16" x="33" y="63"/></g><path class="cls-4" d="M49,67H33a1,1,0,0,1-1-1V30a5,5,0,0,1,5-5H53a1,1,0,0,1,0,2,3,3,0,0,0-3,3V66A1,1,0,0,1,49,67ZM34,65H48V30a5,5,0,0,1,1-3H37a3,3,0,0,0-3,3Z"/><g class="cls-11"><path class="cls-4" d="M45,47H44a1,1,0,0,1,0-2h1a1,1,0,0,1,0,2Z"/><path class="cls-4" d="M41,47H37a1,1,0,0,1,0-2h4a1,1,0,0,1,0,2Z"/><path class="cls-4" d="M45,51H44a1,1,0,0,1,0-2h1a1,1,0,0,1,0,2Z"/><path class="cls-4" d="M41,51H37a1,1,0,0,1,0-2h4a1,1,0,0,1,0,2Z"/><path class="cls-4" d="M40,39H37a1,1,0,0,1,0-2h3a1,1,0,0,1,0,2Z"/><path class="cls-4" d="M45,43H37a1,1,0,0,1,0-2h8a1,1,0,0,1,0,2Z"/><path class="cls-4" d="M45,33a1.05,1.05,0,0,1-.71-.29,1.15,1.15,0,0,1-.21-.33.94.94,0,0,1,0-.76,1,1,0,0,1,.21-.33A1,1,0,1,1,45,33Z"/><path class="cls-4" d="M40,32a1,1,0,0,1,1-1h0a1,1,0,0,1,1,1h0a1,1,0,0,1-1,1h0A1,1,0,0,1,40,32Z"/><path class="cls-4" d="M37,33a1,1,0,0,1-.92-.62A.83.83,0,0,1,36,32a1,1,0,0,1,.29-.71,1,1,0,0,1,1.09-.21,1,1,0,0,1,.33.21A1.05,1.05,0,0,1,38,32a1,1,0,0,1-.08.38,1,1,0,0,1-.21.33,1,1,0,0,1-.33.21A1,1,0,0,1,37,33Z"/><path class="cls-4" d="M45,63a1.05,1.05,0,0,1-.71-.29.94.94,0,0,1-.21-.33.94.94,0,0,1,0-.76.93.93,0,0,1,.21-.33A1,1,0,1,1,45,63Z"/><path class="cls-4" d="M40,62a1,1,0,0,1,1-1h0a1,1,0,0,1,1,1h0a1,1,0,0,1-1,1h0A1,1,0,0,1,40,62Z"/><path class="cls-4" d="M37,63l-.2,0-.18-.06a.76.76,0,0,1-.18-.09l-.15-.12a1.68,1.68,0,0,1-.12-.15.74.74,0,0,1-.09-.18A.65.65,0,0,1,36,62.2a1.53,1.53,0,0,1,0-.2,1,1,0,0,1,.29-.71,1.53,1.53,0,0,1,.15-.12.76.76,0,0,1,.18-.09A.63.63,0,0,1,36.8,61a1,1,0,0,1,.91.27A1.05,1.05,0,0,1,38,62a1.39,1.39,0,0,1,0,.2.62.62,0,0,1-.06.18.78.78,0,0,1-.09.18l-.12.15A1.05,1.05,0,0,1,37,63Z"/></g><circle class="cls-29" cx="58" cy="64" r="2"/><path class="cls-4" d="M58,67a3,3,0,1,1,3-3A3,3,0,0,1,58,67Zm0-4a1,1,0,1,0,1,1A1,1,0,0,0,58,63Z"/><path class="cls-35" d="M61,61a1,1,0,0,1-1-1,1,1,0,0,1,.08-.38,1.15,1.15,0,0,1,.21-.33,1,1,0,0,1,1.42,0,1.15,1.15,0,0,1,.21.33A1,1,0,0,1,62,60a1,1,0,0,1-1,1Z"/></svg>