<?xml version="1.0" ?><svg data-name="003" id="_003" viewBox="0 0 128 128" xmlns="http://www.w3.org/2000/svg"><defs><style>.cls-1{opacity:0.3;}.cls-2,.cls-7{fill:#c9c1f5;}.cls-3{fill:#b1f1a8;}.cls-4{opacity:0.5;}.cls-5{fill:#fff;}.cls-6{fill:#6d6daa;}.cls-7,.cls-8{fill-rule:evenodd;}.cls-8,.cls-9{fill:#ddd9ff;}.cls-10{fill:#f2eed5;}.cls-11{fill:#fffad1;}.cls-12{fill:#e0f3ff;}.cls-13{fill:#ff968c;}.cls-14{fill:#fff2cc;}.cls-15{fill:#fff27d;}.cls-16{fill:#ff9797;}.cls-17{fill:#fff9e0;}.cls-18{fill:#ced8ee;}.cls-19{fill:#eef6ff;}.cls-20{fill:#5cbeff;}.cls-21{fill:#939fc6;}</style></defs><title/><g class="cls-1"><path class="cls-2" d="M124.68,47.66a30,30,0,0,0-23.51-25,19.69,19.69,0,0,1-10.93-6.55A37,37,0,0,0,26,31.44,21,21,0,0,1,15.1,45.11C.94,52.47-6.15,71.57,6.75,89.5a16.6,16.6,0,0,0,6.35,4.91,20.58,20.58,0,0,1,10,10.88,28.49,28.49,0,0,0,42.62,12.64A20.06,20.06,0,0,1,82.37,115a29,29,0,0,0,36-33.79,20.08,20.08,0,0,1,2.51-14.13A29.83,29.83,0,0,0,124.68,47.66Z"/><path class="cls-3" d="M93.73,20A26.56,26.56,0,0,0,95,11.73C95,6.44,92.09,3,88.5,3S82,6.5,82,11.73A26.56,26.56,0,0,0,83.27,20Z"/><g class="cls-4"><path class="cls-5" d="M90.51,3.38a5.43,5.43,0,0,0-2-.39C84.91,3,82,6.5,82,11.73A26.56,26.56,0,0,0,83.27,20h4A26.56,26.56,0,0,1,86,11.73C86,7.51,87.89,4.43,90.51,3.38Z"/></g><path class="cls-6" d="M93.73,21H83.27a1,1,0,0,1-.95-.68A27.46,27.46,0,0,1,81,11.74C81,6.09,84.15,2,88.5,2S96,6.09,96,11.74a27.44,27.44,0,0,1-1.32,8.59A1,1,0,0,1,93.73,21ZM84,19h9a26,26,0,0,0,1-7.26C94,7.25,91.69,4,88.5,4S83,7.25,83,11.74A26,26,0,0,0,84,19Z"/><path class="cls-6" d="M83.5,8.5a1,1,0,0,1-.55-.17l-1.5-1a1,1,0,0,1,1.11-1.66l1.5,1A1,1,0,0,1,83.5,8.5Z"/><path class="cls-6" d="M86.25,5.31A1,1,0,0,1,85.52,5L84.29,3.69a1,1,0,1,1,1.45-1.37L87,3.62a1,1,0,0,1-.73,1.69Z"/><path class="cls-6" d="M90.75,5.31a1,1,0,0,1-.68-1.73l1.32-1.22a1,1,0,1,1,1.36,1.47L91.43,5A1,1,0,0,1,90.75,5.31Z"/><path class="cls-6" d="M82.5,14a1,1,0,0,1-.32-.05l-1.5-.5a1,1,0,0,1,.63-1.9l1.5.5A1,1,0,0,1,82.5,14Z"/><path class="cls-6" d="M82,19a1,1,0,0,1-.32-1.95l1.5-.5a1,1,0,1,1,.63,1.9l-1.5.5A1,1,0,0,1,82,19Z"/><path class="cls-6" d="M94,10a1,1,0,0,1-.56-1.83l1.5-1a1,1,0,1,1,1.11,1.66l-1.5,1A1,1,0,0,1,94,10Z"/><path class="cls-6" d="M95.5,13h-1a1,1,0,0,1,0-2h1a1,1,0,0,1,0,2Z"/><path class="cls-6" d="M86.5,16.5a1,1,0,0,1-.71-.29l-.5-.5a1,1,0,0,1,1.41-1.41l.5.5a1,1,0,0,1-.71,1.71Z"/><path class="cls-6" d="M86.5,10.5a1,1,0,0,1-.71-.29l-.5-.5a1,1,0,0,1,1.41-1.41l.5.5a1,1,0,0,1-.71,1.71Z"/><path class="cls-6" d="M90.5,13.5a1,1,0,0,1-.71-1.71l.5-.5a1,1,0,0,1,1.41,1.41l-.5.5A1,1,0,0,1,90.5,13.5Z"/><path class="cls-6" d="M90.5,8.5a1,1,0,0,1-.71-1.71l.5-.5a1,1,0,0,1,1.41,1.41l-.5.5A1,1,0,0,1,90.5,8.5Z"/><path class="cls-6" d="M90.5,18.5a1,1,0,0,1-.71-1.71l.5-.5a1,1,0,0,1,1.41,1.41l-.5.5A1,1,0,0,1,90.5,18.5Z"/><path class="cls-6" d="M95.5,17.5a1,1,0,0,1-.32-.05l-1.5-.5a1,1,0,0,1,.63-1.9l1.5.5a1,1,0,0,1-.32,1.95Z"/><polygon class="cls-7" points="94.5 32 82.5 32 81 23 96 23 94.5 32"/><polygon class="cls-8" points="87 32 85 32 84 23 86 23 87 32"/><path class="cls-6" d="M94.5,33h-12a1,1,0,0,1-1-.84l-1.5-9A1,1,0,0,1,81,22H96a1,1,0,0,1,1,1.16l-1.5,9A1,1,0,0,1,94.5,33ZM83.35,31H93.65l1.17-7H82.18Z"/><rect class="cls-2" height="3" width="17" x="80" y="20"/><rect class="cls-9" height="3" width="2" x="83" y="20"/><path class="cls-6" d="M97,24H80a1,1,0,0,1-1-1V20a1,1,0,0,1,1-1H97a1,1,0,0,1,1,1v3A1,1,0,0,1,97,24ZM81,22H96V21H81Z"/><rect class="cls-10" height="21" width="6" x="84" y="50"/><path class="cls-6" d="M90,72H84a1,1,0,0,1-1-1V50a1,1,0,0,1,1-1h6a1,1,0,0,1,1,1V71A1,1,0,0,1,90,72Zm-5-2h4V51H85Z"/><rect class="cls-11" height="6" width="44" x="78" y="71"/><path class="cls-6" d="M122,78H78a1,1,0,0,1-1-1V71a1,1,0,0,1,1-1h44a1,1,0,0,1,1,1v6A1,1,0,0,1,122,78ZM79,76h42V72H79Z"/><rect class="cls-12" height="21" width="6" x="102" y="50"/><path class="cls-6" d="M108,72h-6a1,1,0,0,1-1-1V50a1,1,0,0,1,1-1h6a1,1,0,0,1,1,1V71A1,1,0,0,1,108,72Zm-5-2h4V51h-4Z"/><rect class="cls-13" height="21" width="6" x="108" y="50"/><path class="cls-6" d="M114,72h-6a1,1,0,0,1-1-1V50a1,1,0,0,1,1-1h6a1,1,0,0,1,1,1V71A1,1,0,0,1,114,72Zm-5-2h4V51h-4Z"/><rect class="cls-12" height="21" width="6" x="96" y="50"/><path class="cls-6" d="M102,72H96a1,1,0,0,1-1-1V50a1,1,0,0,1,1-1h6a1,1,0,0,1,1,1V71A1,1,0,0,1,102,72Zm-5-2h4V51H97Z"/><rect class="cls-13" height="21" width="6" x="90" y="50"/><path class="cls-6" d="M96,72H90a1,1,0,0,1-1-1V50a1,1,0,0,1,1-1h6a1,1,0,0,1,1,1V71A1,1,0,0,1,96,72Zm-5-2h4V51H91Z"/><rect class="cls-14" height="21" width="6" x="114" y="50"/><path class="cls-6" d="M120,72h-6a1,1,0,0,1-1-1V50a1,1,0,0,1,1-1h6a1,1,0,0,1,1,1V71A1,1,0,0,1,120,72Zm-5-2h4V51h-4Z"/><rect class="cls-11" height="6" width="44" x="78" y="32"/><path class="cls-6" d="M122,39H78a1,1,0,0,1-1-1V32a1,1,0,0,1,1-1h44a1,1,0,0,1,1,1v6A1,1,0,0,1,122,39ZM79,37h42V33H79Z"/><rect class="cls-12" height="12" width="15" x="103" y="20"/><path class="cls-6" d="M118,33H103a1,1,0,0,1-1-1V20a1,1,0,0,1,1-1h15a1,1,0,0,1,1,1V32A1,1,0,0,1,118,33Zm-14-2h13V21H104Z"/><rect class="cls-12" height="5" width="17" x="102" y="15"/><path class="cls-6" d="M119,21H102a1,1,0,0,1-1-1V15a1,1,0,0,1,1-1h17a1,1,0,0,1,1,1v5A1,1,0,0,1,119,21Zm-16-2h15V16H103Z"/><path class="cls-6" d="M113,25h-5a1,1,0,0,1,0-2h5a1,1,0,0,1,0,2Z"/><circle class="cls-15" cx="55.4" cy="31.75" r="7" transform="translate(-6.23 48.48) rotate(-45)"/><path class="cls-6" d="M55.4,39.75a8,8,0,1,1,5.66-2.34h0A8,8,0,0,1,55.4,39.75Zm0-14a6,6,0,1,0,4.24,1.76A6,6,0,0,0,55.4,25.75Zm5,11h0Z"/><path class="cls-16" d="M61.65,16.49h-8.5L46,9.34A9.2,9.2,0,0,0,33.5,8.72a9,9,0,0,0-.44,13.14l7.36,7.36v8.5a6.8,6.8,0,0,0,2,4.81L44,44.07,68,20l-1.54-1.54A6.8,6.8,0,0,0,61.65,16.49Z"/><g class="cls-1"><path class="cls-17" d="M45,24.73l-7.36-7.36a9,9,0,0,1-2-9.69,8.62,8.62,0,0,0-1.34.66,9,9,0,0,0,1.33,11L43,26.73l2-2Z"/></g><g class="cls-1"><path class="cls-17" d="M45,24.73l-2,2,1,7.5A6.8,6.8,0,0,0,46,39l1.54,1.54,3-3C47,36.38,45.38,31.74,45,24.73Z"/></g><path class="cls-6" d="M44,45.07a1,1,0,0,1-.71-.29l-1.54-1.54a7.75,7.75,0,0,1-2.28-5.51V29.63l-7.07-7.07a10,10,0,0,1-2.92-7.4A9.92,9.92,0,0,1,32.84,8a10.18,10.18,0,0,1,13.88.67l6.85,6.85h8.08a7.85,7.85,0,0,1,5.51,2.28l1.54,1.54a1,1,0,0,1,0,1.41l-24,24A1,1,0,0,1,44,45.07ZM39.32,7.55a7.78,7.78,0,0,0-5.16,1.92,8,8,0,0,0-.39,11.68l7.36,7.36a1,1,0,0,1,.29.71v8.5a5.76,5.76,0,0,0,1.7,4.1l.84.84L66.59,20l-.84-.84a5.84,5.84,0,0,0-4.1-1.7h-8.5a1,1,0,0,1-.71-.29L45.3,10.05A8.47,8.47,0,0,0,39.32,7.55Z"/><path class="cls-6" d="M50.92,20a1,1,0,0,1-.71-1.71l2.5-2.5a1,1,0,0,1,1.41,1.41l-2.5,2.5A1,1,0,0,1,50.92,20Z"/><path class="cls-6" d="M40.42,30.49a1,1,0,0,1-.71-1.71l6.5-6.5a1,1,0,0,1,1.41,1.41l-6.5,6.5A1,1,0,0,1,40.42,30.49Z"/><path class="cls-6" d="M30.42,28.49a1,1,0,0,1-.71-1.71l4-4a1,1,0,0,1,1.41,1.41l-4,4A1,1,0,0,1,30.42,28.49Z"/><polygon class="cls-18" points="10.11 63.6 30.01 104 26.01 106 5.83 65.18 10.11 63.6"/><path class="cls-6" d="M26,107a1,1,0,0,1-.32-.05,1,1,0,0,1-.58-.5L4.94,65.63a1,1,0,0,1,.55-1.38l4.28-1.58a1,1,0,0,1,1.24.5l19.89,40.4a1,1,0,0,1-.45,1.34l-4,2A1,1,0,0,1,26,107ZM7.22,65.74l19.24,38.92,2.21-1.11L9.61,64.85Z"/><path class="cls-18" d="M44,115H12v-2a2,2,0,0,1,2-2H42a2,2,0,0,1,2,2Z"/><path class="cls-6" d="M44,116H12a1,1,0,0,1-1-1v-2a3,3,0,0,1,3-3H42a3,3,0,0,1,3,3v2A1,1,0,0,1,44,116Zm-31-2H43v-1a1,1,0,0,0-1-1H14a1,1,0,0,0-1,1Z"/><path class="cls-19" d="M37,111H17a8,8,0,0,1,8-8h6a8,8,0,0,1,8,8Z"/><path class="cls-5" d="M25,106h6a8,8,0,0,1,7.41,5H39a8,8,0,0,0-8-8H25a8,8,0,0,0-8,8h.59A8,8,0,0,1,25,106Z"/><path class="cls-6" d="M39,112H17a1,1,0,0,1-1-1,9,9,0,0,1,9-9h6a9,9,0,0,1,9,9A1,1,0,0,1,39,112Zm-20.93-2H37.93A7,7,0,0,0,31,104H25A7,7,0,0,0,18.07,110Z"/><polygon class="cls-18" points="27.43 32.72 10.45 63.6 6.71 62.86 25.81 31.46 27.43 32.72"/><path class="cls-6" d="M10.45,64.6l-.19,0-3.75-.74a1,1,0,0,1-.66-1.5L25,30.94a1,1,0,0,1,.67-.46,1,1,0,0,1,.79.19L28,31.93a1,1,0,0,1,.26,1.27l-17,30.88A1,1,0,0,1,10.45,64.6ZM8.3,62.16l1.63.32L26.15,33l-.06,0Z"/><circle class="cls-19" cx="8.42" cy="65.07" r="4"/><path class="cls-6" d="M8.42,70.07a5,5,0,1,1,5-5A5,5,0,0,1,8.42,70.07Zm0-8a3,3,0,1,0,3,3A3,3,0,0,0,8.42,62.07Z"/><path class="cls-6" d="M24.3,28.74a1,1,0,0,1-.67-.26l-3.73-3.4a1,1,0,0,1,1.35-1.48L25,27a1,1,0,0,1-.67,1.74Z"/><path class="cls-6" d="M28,109a1,1,0,0,1-1-1v-1a1,1,0,0,1,2,0v1A1,1,0,0,1,28,109Z"/><circle class="cls-19" cx="27.42" cy="30.49" r="4"/><path class="cls-6" d="M27.42,35.49a5,5,0,1,1,5-5A5,5,0,0,1,27.42,35.49Zm0-8a3,3,0,1,0,3,3A3,3,0,0,0,27.42,27.49Z"/><path class="cls-6" d="M115,115.93H9a1,1,0,0,1,0-2H115a1,1,0,0,1,0,2Z"/><path class="cls-6" d="M122,115.93h-4a1,1,0,0,1,0-2h4a1,1,0,0,1,0,2Z"/><path class="cls-6" d="M6,115.93H4a1,1,0,0,1,0-2H6a1,1,0,1,1,0,2Z"/><path class="cls-6" d="M96,125.93H38a1,1,0,0,1,0-2H96a1,1,0,0,1,0,2Z"/><path class="cls-6" d="M100,125.93H99a1,1,0,0,1,0-2h1a1,1,0,0,1,0,2Z"/><path class="cls-6" d="M35,125.93H29a1,1,0,1,1,0-2h6a1,1,0,1,1,0,2Z"/><g class="cls-4"><path class="cls-6" d="M114,55h-6a1,1,0,0,1,0-2h6a1,1,0,0,1,0,2Z"/><path class="cls-6" d="M114,68h-6a1,1,0,0,1,0-2h6a1,1,0,0,1,0,2Z"/></g><g class="cls-4"><path class="cls-6" d="M120,55h-6a1,1,0,0,1,0-2h6a1,1,0,0,1,0,2Z"/><path class="cls-6" d="M120,68h-6a1,1,0,0,1,0-2h6a1,1,0,0,1,0,2Z"/></g><g class="cls-4"><path class="cls-6" d="M108,55h-6a1,1,0,0,1,0-2h6a1,1,0,0,1,0,2Z"/><path class="cls-6" d="M108,68h-6a1,1,0,0,1,0-2h6a1,1,0,0,1,0,2Z"/></g><g class="cls-4"><path class="cls-6" d="M96,55H90a1,1,0,0,1,0-2h6a1,1,0,0,1,0,2Z"/><path class="cls-6" d="M96,68H90a1,1,0,0,1,0-2h6a1,1,0,0,1,0,2Z"/></g><g class="cls-4"><path class="cls-6" d="M102,55H96a1,1,0,0,1,0-2h6a1,1,0,0,1,0,2Z"/><path class="cls-6" d="M102,68H96a1,1,0,0,1,0-2h6a1,1,0,0,1,0,2Z"/></g><g class="cls-4"><path class="cls-6" d="M90,55H84a1,1,0,0,1,0-2h6a1,1,0,0,1,0,2Z"/><path class="cls-6" d="M90,68H84a1,1,0,0,1,0-2h6a1,1,0,0,1,0,2Z"/></g></g><circle class="cls-19" cx="64" cy="83" r="42"/><circle class="cls-19" cx="64" cy="83" r="35"/><path class="cls-5" d="M64,48A35,35,0,0,0,32.23,97.69l63.23-30A35,35,0,0,0,64,48Z"/><path class="cls-5" d="M34.61,102,97.3,72.23q-.42-1.3-.94-2.56l-63.15,30C33.65,100.47,34.12,101.24,34.61,102Z"/><path class="cls-5" d="M64,114A35,35,0,0,1,29.06,81c0,.66-.06,1.33-.06,2a35,35,0,0,0,70,0c0-.67,0-1.34-.06-2A35,35,0,0,1,64,114Z"/><g class="cls-1"><path class="cls-20" d="M64,52A35,35,0,0,1,98.94,85c0-.66.06-1.33.06-2a35,35,0,0,0-70,0c0,.67,0,1.34.06,2A35,35,0,0,1,64,52Z"/></g><path class="cls-5" d="M64,45a42,42,0,0,1,41.95,40c0-.66.05-1.33.05-2a42,42,0,0,0-84,0c0,.67,0,1.34.05,2A42,42,0,0,1,64,45Z"/><g class="cls-1"><path class="cls-20" d="M64,121A42,42,0,0,1,22.05,81c0,.66-.05,1.33-.05,2a42,42,0,0,0,84,0c0-.67,0-1.34-.05-2A42,42,0,0,1,64,121Z"/></g><path class="cls-6" d="M64,126a43,43,0,1,1,43-43A43,43,0,0,1,64,126Zm0-84a41,41,0,1,0,41,41A41,41,0,0,0,64,42Z"/><rect class="cls-5" height="12" rx="1" ry="1" width="12" x="72" y="77"/><path class="cls-6" d="M83,90H73a2,2,0,0,1-2-2V78a2,2,0,0,1,2-2H83a2,2,0,0,1,2,2V88A2,2,0,0,1,83,90ZM73,78V88H83V78Z"/><path class="cls-6" d="M76,87a1,1,0,0,1-1-1V80a1,1,0,0,1,2,0v6A1,1,0,0,1,76,87Z"/><path class="cls-6" d="M76,81H75a1,1,0,0,1,0-2h1a1,1,0,0,1,0,2Z"/><path class="cls-6" d="M81,84a1,1,0,0,1-1-1V80a1,1,0,0,1,2,0v3A1,1,0,0,1,81,84Z"/><path class="cls-6" d="M79,87a1,1,0,0,1-1-1V83a1,1,0,0,1,2,0v3A1,1,0,0,1,79,87Z"/><path class="cls-6" d="M81,81H79a1,1,0,0,1,0-2h2a1,1,0,0,1,0,2Z"/><path class="cls-6" d="M81,87H79a1,1,0,0,1,0-2h2a1,1,0,0,1,0,2Z"/><path class="cls-6" d="M81,84H79a1,1,0,0,1,0-2h2a1,1,0,0,1,0,2Z"/><path class="cls-6" d="M64,60a1,1,0,0,1-1-1V54a1,1,0,0,1,2,0v5A1,1,0,0,1,64,60Z"/><path class="cls-6" d="M64,113a1,1,0,0,1-1-1v-5a1,1,0,0,1,2,0v5A1,1,0,0,1,64,113Z"/><path class="cls-6" d="M93,84H88a1,1,0,0,1,0-2h5a1,1,0,0,1,0,2Z"/><path class="cls-6" d="M40,84H35a1,1,0,0,1,0-2h5a1,1,0,0,1,0,2Z"/><path class="cls-6" d="M51,61.48a1,1,0,0,1-.87-.5l-1.5-2.6a1,1,0,0,1,1.73-1l1.5,2.6a1,1,0,0,1-.87,1.5Z"/><path class="cls-6" d="M78.5,109.11a1,1,0,0,1-.87-.5l-1.5-2.6a1,1,0,1,1,1.73-1l1.5,2.6a1,1,0,0,1-.87,1.5Z"/><path class="cls-6" d="M86.52,71a1,1,0,0,1-.5-1.87l2.6-1.5a1,1,0,0,1,1,1.73L87,70.87A1,1,0,0,1,86.52,71Z"/><path class="cls-6" d="M38.89,98.5a1,1,0,0,1-.5-1.87l2.6-1.5a1,1,0,1,1,1,1.73l-2.6,1.5A1,1,0,0,1,38.89,98.5Z"/><path class="cls-6" d="M41.48,71a1,1,0,0,1-.5-.13l-2.6-1.5a1,1,0,1,1,1-1.73l2.6,1.5a1,1,0,0,1-.5,1.87Z"/><path class="cls-6" d="M89.11,98.5a1,1,0,0,1-.5-.13L86,96.87a1,1,0,1,1,1-1.73l2.6,1.5a1,1,0,0,1-.5,1.87Z"/><path class="cls-6" d="M77,61.48a1,1,0,0,1-.87-1.5l1.5-2.6a1,1,0,1,1,1.73,1L77.87,61A1,1,0,0,1,77,61.48Z"/><path class="cls-6" d="M49.5,109.11a1,1,0,0,1-.87-1.5l1.5-2.6a1,1,0,1,1,1.73,1l-1.5,2.6A1,1,0,0,1,49.5,109.11Z"/><g class="cls-4"><path class="cls-6" d="M59,55.44a1,1,0,0,1-.38-.08,1,1,0,0,1-.32-.21,1,1,0,0,1-.3-.71,1,1,0,0,1,.3-.71,1,1,0,0,1,1.41,0,1,1,0,0,1,.29.71,1,1,0,0,1-.07.38,1.18,1.18,0,0,1-.22.33,1,1,0,0,1-.32.21A1,1,0,0,1,59,55.44Z"/><path class="cls-6" d="M69,112.56a1,1,0,0,1-.71-.29,1,1,0,0,1-.3-.71,1,1,0,0,1,.08-.38,1.22,1.22,0,0,1,.22-.33,1,1,0,0,1,1.41,0,1,1,0,0,1,.22.33,1,1,0,0,1-.22,1.09A1,1,0,0,1,69,112.56Z"/><path class="cls-6" d="M92.56,79a1,1,0,0,1-.38-.07,1.2,1.2,0,0,1-.33-.22,1,1,0,0,1-.21-.32.86.86,0,0,1-.08-.39,1,1,0,0,1,.29-.7l.15-.13.18-.09.18-.06a1.31,1.31,0,0,1,.39,0l.19.06.17.09a.64.64,0,0,1,.15.13.88.88,0,0,1,.22.32.59.59,0,0,1,.06.19,1.26,1.26,0,0,1,0,.19,1,1,0,0,1-.08.39.88.88,0,0,1-.22.32,1,1,0,0,1-.32.22A1,1,0,0,1,92.56,79Z"/><path class="cls-6" d="M35.44,89a1,1,0,0,1-.38-.08,1,1,0,0,1-.33-.22,1,1,0,0,1-.29-.7,1,1,0,0,1,.29-.71,1.22,1.22,0,0,1,.33-.22,1,1,0,0,1,1.09.22,1,1,0,0,1,.29.71,1,1,0,0,1-.29.7,1,1,0,0,1-.71.3Z"/><path class="cls-6" d="M54.08,56.75a1,1,0,0,1-1-1,1,1,0,0,1,.08-.38.93.93,0,0,1,.21-.33,1,1,0,0,1,.91-.27l.18,0,.18.1.15.12a1,1,0,0,1,.21.33.84.84,0,0,1,.08.38,1,1,0,0,1-.29.7A1,1,0,0,1,54.08,56.75Z"/><path class="cls-6" d="M73.92,111.25a1,1,0,0,1-.71-.29,1.2,1.2,0,0,1-.22-.33,1,1,0,0,1-.07-.38.83.83,0,0,1,.08-.38,1,1,0,0,1,.21-.33,1,1,0,0,1,1.71.71,1,1,0,0,1-.08.38,1.16,1.16,0,0,1-.21.33,1.15,1.15,0,0,1-.33.21A.84.84,0,0,1,73.92,111.25Z"/><path class="cls-6" d="M91.25,74.08a1,1,0,0,1-.38-.07,1.18,1.18,0,0,1-.33-.22,1,1,0,0,1-.29-.71,1,1,0,0,1,.29-.71,1.15,1.15,0,0,1,.33-.21,1,1,0,0,1,.76,0,1,1,0,0,1,.33.21,1.05,1.05,0,0,1,.29.71,1,1,0,0,1-1,1Z"/><path class="cls-6" d="M36.75,93.92a1,1,0,0,1-.71-.3,1,1,0,0,1-.22-.32,1.08,1.08,0,0,1,0-.76,1.14,1.14,0,0,1,.22-.33,1,1,0,0,1,1.41,0,.84.84,0,0,1,.22.33.94.94,0,0,1,0,.76.88.88,0,0,1-.22.32A1,1,0,0,1,36.75,93.92Z"/><path class="cls-6" d="M45.36,61.78a1,1,0,0,1-.92-1.38,1,1,0,0,1,.21-.32,1,1,0,0,1,.9-.28l.19.06.17.09a.65.65,0,0,1,.15.13.88.88,0,0,1,.22.32,1,1,0,0,1,.08.38,1,1,0,0,1-.3.71A1,1,0,0,1,45.36,61.78Z"/><path class="cls-6" d="M82.64,106.22a1,1,0,0,1-.71-.3,1,1,0,0,1-.29-.7,1,1,0,0,1,.08-.39,1,1,0,0,1,.21-.32,1,1,0,0,1,1.09-.22.91.91,0,0,1,.33.22,1,1,0,0,1,.21.32,1,1,0,0,1,.08.39,1,1,0,0,1-.29.7A1,1,0,0,1,82.64,106.22Z"/><path class="cls-6" d="M86.22,65.36a1,1,0,0,1-.39-.08,1,1,0,0,1-.32-.21,1,1,0,0,1,0-1.42,1,1,0,0,1,1.41,0,1,1,0,0,1,.29.71,1,1,0,0,1-.07.38,1.19,1.19,0,0,1-.22.33,1,1,0,0,1-.32.21A1,1,0,0,1,86.22,65.36Z"/><path class="cls-6" d="M41.78,102.64a1,1,0,0,1-1-1,1,1,0,0,1,.3-.71,1,1,0,0,1,1.41,0,1.2,1.2,0,0,1,.22.33,1,1,0,0,1-.22,1.09A1,1,0,0,1,41.78,102.64Z"/><path class="cls-6" d="M41.78,65.36a1,1,0,0,1-.38-.08,1.08,1.08,0,0,1-.54-.54,1,1,0,0,1-.08-.38,1,1,0,0,1,.3-.71,1,1,0,0,1,1.41,0,1,1,0,0,1,.3.71,1,1,0,0,1-1,1Z"/><path class="cls-6" d="M86.22,102.64a1,1,0,0,1-.39-.08.85.85,0,0,1-.32-.21,1,1,0,0,1-.3-.71,1,1,0,0,1,.3-.71,1,1,0,0,1,1.41,0,1.2,1.2,0,0,1,.22.33,1,1,0,0,1-.22,1.09.85.85,0,0,1-.32.21A1,1,0,0,1,86.22,102.64Z"/><path class="cls-6" d="M82.64,61.79a1,1,0,0,1-.71-.3,1,1,0,0,1-.29-.7,1,1,0,0,1,.08-.39,1,1,0,0,1,.21-.32A1,1,0,0,1,83,59.86a.91.91,0,0,1,.33.22,1,1,0,0,1,.21.32,1,1,0,0,1,.08.39,1,1,0,0,1-.29.7A1,1,0,0,1,82.64,61.79Z"/><path class="cls-6" d="M45.36,106.21a1,1,0,0,1-1-1,1,1,0,0,1,.29-.7.84.84,0,0,1,.33-.22,1,1,0,0,1,1.08.22,1,1,0,0,1,.3.7,1,1,0,0,1-.3.71A1,1,0,0,1,45.36,106.21Z"/><path class="cls-6" d="M36.75,74.08a1,1,0,0,1-.71-.29,1.09,1.09,0,0,1-.22-.33,1.08,1.08,0,0,1,0-.76,1.48,1.48,0,0,1,.22-.33,1,1,0,0,1,1.41,0,1,1,0,0,1,.22,1.09,1,1,0,0,1-.22.33A1,1,0,0,1,36.75,74.08Z"/><path class="cls-6" d="M91.25,93.92a1,1,0,0,1-.38-.08,1.15,1.15,0,0,1-.33-.21,1,1,0,0,1-.29-.71,1,1,0,0,1,.08-.38,1,1,0,0,1,.21-.33,1.44,1.44,0,0,1,.33-.22,1,1,0,0,1,.76,0,1.46,1.46,0,0,1,.33.22,1.05,1.05,0,0,1,.29.71,1,1,0,0,1-.08.38,1.15,1.15,0,0,1-.21.33A1,1,0,0,1,91.25,93.92Z"/><path class="cls-6" d="M73.92,56.75a1,1,0,0,1-.71-.29,1,1,0,0,1-.29-.71.83.83,0,0,1,.08-.38.93.93,0,0,1,.21-.33,1,1,0,0,1,1.42,0,.93.93,0,0,1,.21.33,1,1,0,0,1,.08.38,1,1,0,0,1-.29.71,1.15,1.15,0,0,1-.33.21A1,1,0,0,1,73.92,56.75Z"/><path class="cls-6" d="M54.08,111.25a1,1,0,0,1-.71-.29,1,1,0,0,1-.29-.71,1,1,0,0,1,.08-.38,1.15,1.15,0,0,1,.21-.33,1,1,0,0,1,.91-.27l.18.06a.74.74,0,0,1,.18.09l.15.12a1.05,1.05,0,0,1,.29.71,1,1,0,0,1-1,1Z"/><path class="cls-6" d="M35.44,79a1,1,0,0,1-.92-.61,1,1,0,0,1-.08-.39,1,1,0,0,1,.08-.38,1,1,0,0,1,.21-.32,1,1,0,0,1,.33-.22,1,1,0,0,1,.76,0,.9.9,0,0,1,.33.22,1,1,0,0,1,.21.32,1,1,0,0,1,.08.38,1,1,0,0,1-.08.39,1,1,0,0,1-.21.32,1.18,1.18,0,0,1-.33.22A1,1,0,0,1,35.44,79Z"/><path class="cls-6" d="M92.56,89a1,1,0,0,1-.38-.07,1,1,0,0,1-.33-.22,1,1,0,0,1-.29-.7.67.67,0,0,1,0-.2.69.69,0,0,1,.06-.19.58.58,0,0,1,.09-.17l.12-.15L92,87.2l.18-.09.18,0a.88.88,0,0,1,.39,0l.19,0,.17.09a.64.64,0,0,1,.15.13,1,1,0,0,1,.3.71,1,1,0,0,1-.3.7.88.88,0,0,1-.32.22A1,1,0,0,1,92.56,89Z"/><path class="cls-6" d="M69,55.44a1,1,0,0,1-1-1,1,1,0,0,1,.3-.71,1,1,0,0,1,1.41,0,1,1,0,0,1,.29.71,1,1,0,0,1-.29.71A1,1,0,0,1,69,55.44Z"/><path class="cls-6" d="M59,112.56a1,1,0,0,1-.7-.29,1,1,0,0,1-.3-.71,1,1,0,0,1,.3-.71,1,1,0,0,1,1.41,0,1,1,0,0,1,.29.71,1,1,0,0,1-.07.38,1.18,1.18,0,0,1-.22.33,1,1,0,0,1-.71.29Z"/></g><path class="cls-21" d="M63,66.09,61,83h6L65,66.09A1,1,0,0,0,63,66.09Z"/><path class="cls-6" d="M67,84H61a1,1,0,0,1-1-1.12L62,66h0a2,2,0,0,1,4,0l2,16.92A1,1,0,0,1,67,84Zm-4.87-2h3.75L64,66.2l-1-.12,1,.12Z"/><path class="cls-21" d="M48.74,99.68,65.83,84.83l-3.66-3.66L47.32,98.26A1,1,0,0,0,48.74,99.68Z"/><path class="cls-6" d="M48.08,100.94a2,2,0,0,1-1.41-.6,2,2,0,0,1-.09-2.73L61.42,80.52a1,1,0,0,1,.72-.34.94.94,0,0,1,.74.29l3.66,3.66a1,1,0,0,1-.05,1.46L49.39,100.43A2,2,0,0,1,48.08,100.94Zm14.15-18.3L48.08,98.92,64.36,84.78Z"/><circle class="cls-19" cx="64" cy="83" r="4" transform="translate(-39.94 69.56) rotate(-45)"/><path class="cls-6" d="M64,88a5,5,0,1,1,3.54-1.46h0A5,5,0,0,1,64,88Zm0-8a3,3,0,0,0-2.12,5.12,3.07,3.07,0,0,0,4.24,0h0A3,3,0,0,0,64,80Z"/><g class="cls-1"><path class="cls-5" d="M64,48A35,35,0,0,0,32.23,97.69l63.23-30A35,35,0,0,0,64,48Z"/></g><g class="cls-1"><path class="cls-5" d="M34.61,102,97.3,72.23q-.42-1.3-.94-2.56l-63.15,30C33.65,100.47,34.12,101.24,34.61,102Z"/></g><g class="cls-4"><path class="cls-6" d="M67,98H61a1,1,0,0,1,0-2h6a1,1,0,0,1,0,2Z"/></g><path class="cls-6" d="M64,119a36,36,0,1,1,36-36A36,36,0,0,1,64,119Zm0-70A34,34,0,1,0,98,83,34,34,0,0,0,64,49Z"/></svg>