<?xml version="1.0" ?><svg data-name="003" id="_003" viewBox="0 0 128 128" xmlns="http://www.w3.org/2000/svg"><defs><style>.cls-1{opacity:0.3;}.cls-2{fill:#c9c1f5;}.cls-3{fill:#6d6daa;}.cls-4{fill:#fffad1;}.cls-5{fill:#fff27d;}.cls-6{opacity:0.5;}.cls-7{fill:#fff;}.cls-8{fill:#89dbba;}.cls-9{fill:#b1f1a8;}.cls-10{fill:#eef6ff;}.cls-11{fill:#7690a8;}.cls-12{fill:#48bc33;}.cls-13{fill:#ffc661;}</style></defs><title/><g class="cls-1"><path class="cls-2" d="M126.19,52.69a30,30,0,0,0-23.51-25A19.69,19.69,0,0,1,91.74,21.1,37,37,0,0,0,27.42,36.78,19.57,19.57,0,0,1,17,49.95,28,28,0,1,0,54.66,87.29,9.41,9.41,0,0,1,63.17,82H64a12.39,12.39,0,0,1,12,9.74,20,20,0,0,0,26.06,14.14A20,20,0,0,0,115.47,88,21.38,21.38,0,0,1,120,75.65,29.91,29.91,0,0,0,126.19,52.69Z"/><rect class="cls-2" height="12" width="15" x="11.99" y="21"/><path class="cls-3" d="M27,34H12a1,1,0,0,1-1-1V21a1,1,0,0,1,1-1H27a1,1,0,0,1,1,1V33A1,1,0,0,1,27,34ZM13,32H26V22H13Z"/><rect class="cls-2" height="5" width="17" x="10.99" y="16"/><path class="cls-3" d="M28,22H11a1,1,0,0,1-1-1V16a1,1,0,0,1,1-1H28a1,1,0,0,1,1,1v5A1,1,0,0,1,28,22ZM12,20H27V17H12Z"/><rect class="cls-4" height="6" width="122.01" x="2.99" y="33"/><path class="cls-3" d="M125,40H3a1,1,0,0,1-1-1V33a1,1,0,0,1,1-1H125a1,1,0,0,1,1,1v6A1,1,0,0,1,125,40ZM4,38H124V34H4Z"/><rect class="cls-4" height="6" width="122.01" x="2.99" y="73"/><path class="cls-3" d="M125,80H3a1,1,0,0,1-1-1V73a1,1,0,0,1,1-1H125a1,1,0,0,1,1,1v6A1,1,0,0,1,125,80ZM4,78H124V74H4Z"/><polygon class="cls-5" points="85.01 73 88.01 63 102.01 63 105 73 85.01 73"/><g class="cls-6"><polygon class="cls-7" points="101.42 63 88.01 63 85.75 70.53 101.42 63"/></g><g class="cls-6"><polygon class="cls-7" points="91.95 73 103.36 67.52 102.57 64.89 85.7 73 91.95 73"/></g><path class="cls-3" d="M105,74H85a1,1,0,0,1-1-1.29l3-10A1,1,0,0,1,88,62h14a1,1,0,0,1,1,.71l3,10A1,1,0,0,1,105,74ZM86.35,72h17.31l-2.4-8H88.75Z"/><polygon class="cls-5" points="105.01 73 108.01 63 122.01 63 125.01 73 105.01 73"/><g class="cls-6"><polygon class="cls-7" points="121.42 63 108.01 63 105.75 70.53 121.42 63"/></g><g class="cls-6"><polygon class="cls-7" points="111.95 73 123.36 67.52 122.58 64.89 105.7 73 111.95 73"/></g><path class="cls-3" d="M125,74H105a1,1,0,0,1-1-1.29l3-10a1,1,0,0,1,1-.71h14a1,1,0,0,1,1,.71l3,10A1,1,0,0,1,125,74Zm-18.65-2h17.31l-2.4-8H108.75Z"/><polygon class="cls-5" points="105.01 63 108.01 53 122.01 53 125.01 63 105.01 63"/><g class="cls-6"><polygon class="cls-7" points="121.42 53 108.01 53 105.75 60.53 121.42 53"/></g><g class="cls-6"><polygon class="cls-7" points="111.95 63 123.36 57.51 122.58 54.89 105.7 63 111.95 63"/></g><path class="cls-3" d="M125,64H105a1,1,0,0,1-1-1.29l3-10a1,1,0,0,1,1-.71h14a1,1,0,0,1,1,.71l3,10A1,1,0,0,1,125,64Zm-18.65-2h17.31l-2.4-8H108.75Z"/><polygon class="cls-5" points="95.01 53 98.01 43 112.01 43 115.01 53 95.01 53"/><g class="cls-6"><polygon class="cls-7" points="111.42 43 98.01 43 95.75 50.52 111.42 43"/></g><g class="cls-6"><polygon class="cls-7" points="101.95 53 113.36 47.51 112.58 44.89 95.7 53 101.95 53"/></g><path class="cls-3" d="M115,54H95a1,1,0,0,1-1-1.29l3-10A1,1,0,0,1,98,42h14a1,1,0,0,1,1,.71l3,10A1,1,0,0,1,115,54ZM96.35,52h17.31l-2.4-8H98.75Z"/><polygon class="cls-5" points="5 73 8 63 22 63 25 73 5 73"/><g class="cls-6"><polygon class="cls-7" points="21.41 63 8 63 5.74 70.53 21.41 63"/></g><g class="cls-6"><polygon class="cls-7" points="11.94 73 23.35 67.52 22.57 64.89 5.7 73 11.94 73"/></g><path class="cls-3" d="M25,74H5a1,1,0,0,1-1-1.29l3-10A1,1,0,0,1,8,62H22a1,1,0,0,1,1,.71l3,10A1,1,0,0,1,25,74ZM6.34,72H23.65l-2.4-8H8.74Z"/><polygon class="cls-5" points="15 63 18 53 32 53 35 63 15 63"/><g class="cls-6"><polygon class="cls-7" points="31.41 53 18 53 15.74 60.53 31.41 53"/></g><g class="cls-6"><polygon class="cls-7" points="21.94 63 33.35 57.51 32.57 54.89 15.7 63 21.94 63"/></g><path class="cls-3" d="M35,64H15a1,1,0,0,1-1-1.29l3-10A1,1,0,0,1,18,52H32a1,1,0,0,1,1,.71l3,10A1,1,0,0,1,35,64ZM16.34,62H33.65l-2.4-8H18.74Z"/><polygon class="cls-5" points="25 73 28 63 42 63 45 73 25 73"/><g class="cls-6"><polygon class="cls-7" points="41.41 63 28 63 25.74 70.53 41.41 63"/></g><g class="cls-6"><polygon class="cls-7" points="31.94 73 43.35 67.52 42.57 64.89 25.7 73 31.94 73"/></g><path class="cls-3" d="M45,74H25a1,1,0,0,1-1-1.29l3-10A1,1,0,0,1,28,62H42a1,1,0,0,1,1,.71l3,10A1,1,0,0,1,45,74ZM26.34,72H43.66l-2.4-8H28.74Z"/><polygon class="cls-5" points="25 53 28 43 42 43 45 53 25 53"/><g class="cls-6"><polygon class="cls-7" points="41.41 43 28 43 25.74 50.52 41.41 43"/></g><g class="cls-6"><polygon class="cls-7" points="31.94 53 43.35 47.51 42.57 44.89 25.7 53 31.94 53"/></g><path class="cls-3" d="M45,54H25a1,1,0,0,1-1-1.29l3-10A1,1,0,0,1,28,42H42a1,1,0,0,1,1,.71l3,10A1,1,0,0,1,45,54ZM26.34,52H43.66l-2.4-8H28.74Z"/><polygon class="cls-5" points="35 63 38 53 52 53 55 63 35 63"/><g class="cls-6"><polygon class="cls-7" points="51.41 53 38 53 35.74 60.53 51.41 53"/></g><g class="cls-6"><polygon class="cls-7" points="41.94 63 53.35 57.51 52.57 54.89 35.7 63 41.94 63"/></g><path class="cls-3" d="M55,64H35a1,1,0,0,1-1-1.29l3-10A1,1,0,0,1,38,52H52a1,1,0,0,1,1,.71l3,10A1,1,0,0,1,55,64ZM36.35,62H53.66l-2.4-8H38.75Z"/><polygon class="cls-5" points="45 73 48 63 62 63 65 73 45 73"/><g class="cls-6"><polygon class="cls-7" points="61.41 63 48 63 45.74 70.53 61.41 63"/></g><g class="cls-6"><polygon class="cls-7" points="51.94 73 63.36 67.52 62.57 64.89 45.7 73 51.94 73"/></g><path class="cls-3" d="M65,74H45a1,1,0,0,1-1-1.29l3-10A1,1,0,0,1,48,62H62a1,1,0,0,1,1,.71l3,10A1,1,0,0,1,65,74ZM46.35,72H63.66l-2.4-8H48.75Z"/><polygon class="cls-5" points="85.01 63 88.01 53 102.01 53 105 63 85.01 63"/><g class="cls-6"><polygon class="cls-7" points="101.42 53 88.01 53 85.75 60.53 101.42 53"/></g><g class="cls-6"><polygon class="cls-7" points="91.95 63 103.36 57.51 102.57 54.89 85.7 63 91.95 63"/></g><path class="cls-3" d="M105,64H85a1,1,0,0,1-1-1.29l3-10A1,1,0,0,1,88,52h14a1,1,0,0,1,1,.71l3,10A1,1,0,0,1,105,64ZM86.35,62h17.31l-2.4-8H88.75Z"/><path class="cls-3" d="M22,26H17a1,1,0,0,1,0-2h5a1,1,0,0,1,0,2Z"/><path class="cls-3" d="M110,116H24a1,1,0,0,1,0-2h86a1,1,0,0,1,0,2Z"/><path class="cls-3" d="M115,116h-2a1,1,0,0,1,0-2h2a1,1,0,0,1,0,2Z"/><path class="cls-3" d="M17,116H13a1,1,0,1,1,0-2h4a1,1,0,1,1,0,2Z"/><path class="cls-3" d="M21,116H20a1,1,0,1,1,0-2h1a1,1,0,1,1,0,2Z"/><rect class="cls-8" height="3.99" width="41.99" x="41.99" y="16"/><path class="cls-3" d="M84,21H42a1,1,0,0,1-1-1V16a1,1,0,0,1,1-1H84a1,1,0,0,1,1,1v4A1,1,0,0,1,84,21ZM43,19H83V17H43Z"/><rect class="cls-9" height="3.99" width="41.99" x="41.99" y="12"/><path class="cls-3" d="M84,17H42a1,1,0,0,1-1-1V12a1,1,0,0,1,1-1H84a1,1,0,0,1,1,1v4A1,1,0,0,1,84,17ZM43,15H83V13H43Z"/><rect class="cls-8" height="3.99" width="41.99" x="41.99" y="8"/><path class="cls-3" d="M84,13H42a1,1,0,0,1-1-1V8a1,1,0,0,1,1-1H84a1,1,0,0,1,1,1v4A1,1,0,0,1,84,13ZM43,11H83V9H43Z"/><rect class="cls-10" height="14" width="10" x="57.99" y="6.5"/><rect class="cls-7" height="3" width="10" x="57.99" y="7"/><g class="cls-1"><rect class="cls-11" height="3" width="10" x="57.99" y="18"/></g><path class="cls-3" d="M68,22H58a1,1,0,0,1-1-1V7a1,1,0,0,1,1-1H68a1,1,0,0,1,1,1V21A1,1,0,0,1,68,22Zm-9-2h8V8H59Z"/><rect class="cls-8" height="3.99" width="41.99" x="71.99" y="28.01"/><path class="cls-3" d="M114,33H72a1,1,0,0,1-1-1V28a1,1,0,0,1,1-1h42a1,1,0,0,1,1,1v4A1,1,0,0,1,114,33ZM73,31h40V29H73Z"/><rect class="cls-9" height="3.99" width="41.99" x="71.99" y="24"/><path class="cls-3" d="M114,29H72a1,1,0,0,1-1-1V24a1,1,0,0,1,1-1h42a1,1,0,0,1,1,1v4A1,1,0,0,1,114,29ZM73,27h40V25H73Z"/><rect class="cls-8" height="3.99" width="41.99" x="71.99" y="20"/><path class="cls-3" d="M114,25H72a1,1,0,0,1-1-1V20a1,1,0,0,1,1-1h42a1,1,0,0,1,1,1v4A1,1,0,0,1,114,25ZM73,23h40V21H73Z"/><rect class="cls-10" height="14" width="10" x="87.99" y="18.51"/><rect class="cls-7" height="3" width="10" x="87.99" y="19"/><g class="cls-1"><rect class="cls-11" height="3" width="10" x="87.99" y="30.01"/></g><path class="cls-3" d="M98,34H88a1,1,0,0,1-1-1V19a1,1,0,0,1,1-1H98a1,1,0,0,1,1,1V33A1,1,0,0,1,98,34Zm-9-2h8V20H89Z"/><rect class="cls-8" height="3.99" width="41.99" x="35.99" y="28.01"/><path class="cls-3" d="M78,33H36a1,1,0,0,1-1-1V28a1,1,0,0,1,1-1H78a1,1,0,0,1,1,1v4A1,1,0,0,1,78,33ZM37,31H77V29H37Z"/><rect class="cls-9" height="3.99" width="41.99" x="35.99" y="24"/><path class="cls-3" d="M78,29H36a1,1,0,0,1-1-1V24a1,1,0,0,1,1-1H78a1,1,0,0,1,1,1v4A1,1,0,0,1,78,29ZM37,27H77V25H37Z"/><rect class="cls-8" height="3.99" width="41.99" x="35.99" y="20"/><path class="cls-3" d="M78,25H36a1,1,0,0,1-1-1V20a1,1,0,0,1,1-1H78a1,1,0,0,1,1,1v4A1,1,0,0,1,78,25ZM37,23H77V21H37Z"/><rect class="cls-10" height="14" width="10" x="51.99" y="18.51"/><rect class="cls-7" height="3" width="10" x="51.99" y="19"/><g class="cls-1"><rect class="cls-11" height="3" width="10" x="51.99" y="30.01"/></g><path class="cls-3" d="M62,34H52a1,1,0,0,1-1-1V19a1,1,0,0,1,1-1H62a1,1,0,0,1,1,1V33A1,1,0,0,1,62,34Zm-9-2h8V20H53Z"/></g><rect class="cls-8" height="48" width="92" x="17" y="67"/><g class="cls-1"><rect class="cls-12" height="24" width="92" x="17" y="91.01"/></g><path class="cls-3" d="M109,116H17a1,1,0,0,1-1-1V67a1,1,0,0,1,1-1h92a1,1,0,0,1,1,1v48A1,1,0,0,1,109,116Zm-91-2h90V68H18Z"/><path class="cls-9" d="M103,103a6,6,0,0,0-6,6H29a6,6,0,0,0-6-6V79a6,6,0,0,0,6-6H97a6,6,0,0,0,6,6Z"/><g class="cls-1"><path class="cls-12" d="M23,91v12a6,6,0,0,1,6,6H97a6,6,0,0,1,6-6V91Z"/></g><path class="cls-3" d="M97,110H29a1,1,0,0,1-1-1,5,5,0,0,0-5-5,1,1,0,0,1-1-1V79a1,1,0,0,1,1-1,5,5,0,0,0,5-5,1,1,0,0,1,1-1H97a1,1,0,0,1,1,1,5,5,0,0,0,5,5,1,1,0,0,1,1,1v24a1,1,0,0,1-1,1,5,5,0,0,0-5,5A1,1,0,0,1,97,110Zm-67.07-2H96.07a7,7,0,0,1,5.93-5.93V79.93A7,7,0,0,1,96.07,74H29.93A7,7,0,0,1,24,79.93v22.14A7,7,0,0,1,29.93,108Z"/><ellipse class="cls-8" cx="63" cy="93" rx="12.8" ry="16"/><path class="cls-3" d="M63,110c-7.61,0-13.8-7.63-13.8-17S55.39,76,63,76s13.8,7.63,13.8,17S70.61,110,63,110Zm0-32c-6.51,0-11.8,6.73-11.8,15s5.29,15,11.8,15,11.8-6.73,11.8-15S69.51,78,63,78Z"/><circle class="cls-8" cx="37" cy="91" r="3"/><path class="cls-3" d="M37,95a4,4,0,1,1,4-4A4,4,0,0,1,37,95Zm0-6a2,2,0,1,0,2,2A2,2,0,0,0,37,89Z"/><circle class="cls-3" cx="23" cy="73" r="1"/><path class="cls-3" d="M23,75a2,2,0,1,1,2-2A2,2,0,0,1,23,75Zm0-2h0Zm0,0h0Zm0,0h0Zm0,0h0Zm0,0h0Zm0,0h0Zm0,0h0Zm0,0h0Z"/><circle class="cls-3" cx="23" cy="109" r="1"/><path class="cls-3" d="M23,111a2,2,0,1,1,2-2A2,2,0,0,1,23,111Zm0-2h0Zm0,0h0Zm0,0h0Zm0,0h0Zm0,0h0Zm0,0h0Zm0,0h0Zm0,0h0Z"/><circle class="cls-3" cx="103.01" cy="73" r="1"/><path class="cls-3" d="M103,75a2,2,0,1,1,2-2A2,2,0,0,1,103,75Zm0-2h0Zm0,0h0Zm0,0h0Zm0,0h0Zm0,0h0Zm0,0h0Zm0,0h0Zm0,0h0Z"/><circle class="cls-3" cx="103.01" cy="109" r="1"/><path class="cls-3" d="M103,111a2,2,0,1,1,2-2A2,2,0,0,1,103,111Zm0-2h0Zm0,0h0Zm0,0h0Zm0,0h0Zm0,0h0Zm0,0h0Zm0,0h0Zm0,0h0Z"/><path class="cls-9" d="M68.27,101.81l-.73-.16a.87.87,0,0,1-.73-.89c0-.48,0-1,0-1.52,0-1.22,1.46-2.68,1.54-4.39a6.88,6.88,0,0,0,.77-2.79A1.44,1.44,0,0,0,68.79,91c.12-.64.22-1.31.35-2,.5-2.78-.47-4.79-2.92-5.66-.88-.31-4.54-.95-5.91-2.27-.49-.48-.16,2.21-.6,2.42-2.4,1.08-3.35,2.75-2.85,5.51.12.69.23,1.37.35,2a1.44,1.44,0,0,0-.35,1.07,6.88,6.88,0,0,0,.77,2.79c.08,1.71,1.54,3.09,1.54,4.39,0,.53,0,1,0,1.52a.87.87,0,0,1-.73.89l-.81.16a14.65,14.65,0,0,0-4.36,1.6,12.23,12.23,0,0,0,8.38,5.51A11.29,11.29,0,0,0,63,109h.12a11.29,11.29,0,0,0,1.24-.08,12.24,12.24,0,0,0,8.4-5.54A13.88,13.88,0,0,0,68.27,101.81Z"/><path class="cls-3" d="M63,110a12.57,12.57,0,0,1-1.45-.09A13.18,13.18,0,0,1,52.46,104a1,1,0,0,1,.33-1.44,15.75,15.75,0,0,1,4.65-1.71l.74-.15c0-.46,0-.95,0-1.45a4.06,4.06,0,0,0-.58-1.48,7.22,7.22,0,0,1-.95-2.65,7.65,7.65,0,0,1-.78-3.05,2.74,2.74,0,0,1,.29-1.3L56,90.07c0-.3-.1-.6-.16-.91-.54-3,.46-5.12,3.07-6.43,0-.21,0-.49,0-.69,0-.9.09-1.68.82-2a1.12,1.12,0,0,1,1.19.26c.85.83,3.2,1.42,4.45,1.74.48.12.87.22,1.09.3,2.86,1,4.16,3.49,3.56,6.78-.06.31-.11.61-.16.91l-.12.68a2.74,2.74,0,0,1,.29,1.3,7.64,7.64,0,0,1-.78,3.05,7.51,7.51,0,0,1-1,2.71,4.25,4.25,0,0,0-.56,1.42c0,.5,0,1,0,1.45l.65.14a15,15,0,0,1,4.76,1.68,1,1,0,0,1,.33,1.43,13.18,13.18,0,0,1-9.1,6,12.14,12.14,0,0,1-1.36.09Zm-8.2-6.24a10.88,10.88,0,0,0,7,4.16A10.38,10.38,0,0,0,63,108h.1a10.21,10.21,0,0,0,1.13-.07,10.87,10.87,0,0,0,7-4.19,13.64,13.64,0,0,0-3.13-.94h0l-.73-.16a1.87,1.87,0,0,1-1.51-1.91c0-.46,0-1,0-1.47a5.3,5.3,0,0,1,.78-2.34,5.52,5.52,0,0,0,.76-2.1,1,1,0,0,1,.1-.39,5.94,5.94,0,0,0,.67-2.36.74.74,0,0,0-.06-.36,1,1,0,0,1-.27-.89c.06-.34.12-.7.18-1.06s.1-.62.16-.93c.43-2.36-.32-3.85-2.27-4.54-.19-.07-.51-.15-.91-.25a20.41,20.41,0,0,1-4-1.34c-.06.78-.21,1.42-.84,1.7-2,.91-2.68,2.19-2.27,4.42.06.32.11.63.16.93s.12.72.18,1.06a1,1,0,0,1-.27.89.75.75,0,0,0-.06.36,5.94,5.94,0,0,0,.67,2.36,1,1,0,0,1,.1.39,5.23,5.23,0,0,0,.74,2,5.32,5.32,0,0,1,.81,2.41c0,.52,0,1,0,1.48a1.88,1.88,0,0,1-1.56,1.92l-.79.16A14.41,14.41,0,0,0,54.8,103.76Zm3.47-3.09h0Zm9.45,0h0Z"/><path class="cls-8" d="M79,107H71a14.93,14.93,0,0,0-8-2,14.93,14.93,0,0,0-8,2H47v8H79Z"/><path class="cls-3" d="M79,116H47a1,1,0,0,1-1-1v-8a1,1,0,0,1,1-1h7.71A16.23,16.23,0,0,1,63,104a16.23,16.23,0,0,1,8.28,2H79a1,1,0,0,1,1,1v8A1,1,0,0,1,79,116Zm-31-2H78v-6H71a1,1,0,0,1-.55-.17A14.09,14.09,0,0,0,63,106a14.09,14.09,0,0,0-7.44,1.84A1,1,0,0,1,55,108H48Z"/><path class="cls-3" d="M43,99H31a1,1,0,1,1,0-2H43a1,1,0,0,1,0,2Z"/><circle class="cls-8" cx="89.01" cy="91" r="3"/><path class="cls-3" d="M89,95a4,4,0,1,1,4-4A4,4,0,0,1,89,95Zm0-6a2,2,0,1,0,2,2A2,2,0,0,0,89,89Z"/><path class="cls-3" d="M95,99H83a1,1,0,0,1,0-2H95a1,1,0,0,1,0,2Z"/><path class="cls-3" d="M75,112H51a1,1,0,0,1,0-2H75a1,1,0,0,1,0,2Z"/><path class="cls-5" d="M82,110v6c0,2.76,4.48,5,10,5s10-2.24,10-5v-6Z"/><g class="cls-6"><path class="cls-7" d="M92,110H82v6c0,2.76,4.48,5,10,5Z"/></g><path class="cls-3" d="M92,122c-6.17,0-11-2.64-11-6v-6a1,1,0,0,1,1-1h20a1,1,0,0,1,1,1v6C103,119.37,98.17,122,92,122Zm-9-11v5c0,1.89,3.7,4,9,4s9-2.11,9-4v-5Z"/><path class="cls-13" d="M82,104v6c0,2.76,4.48,5,10,5s10-2.24,10-5v-6Z"/><path class="cls-3" d="M92,116c-6.17,0-11-2.64-11-6v-6a1,1,0,0,1,1-1h20a1,1,0,0,1,1,1v6C103,113.37,98.17,116,92,116Zm-9-11v5c0,1.89,3.7,4,9,4s9-2.11,9-4v-5Z"/><path class="cls-13" d="M82,104v6c0,2.76,4.48,5,10,5s10-2.24,10-5v-6Z"/><path class="cls-5" d="M92,104H82v6c0,2.76,4.48,5,10,5Z"/><path class="cls-3" d="M92,116c-6.17,0-11-2.64-11-6v-6a1,1,0,0,1,1-1h20a1,1,0,0,1,1,1v6C103,113.37,98.17,116,92,116Zm-9-11v5c0,1.89,3.7,4,9,4s9-2.11,9-4v-5Z"/><path class="cls-5" d="M82,98v6c0,2.76,4.48,5,10,5s10-2.24,10-5V98Z"/><g class="cls-6"><path class="cls-7" d="M92,98H82v6c0,2.76,4.48,5,10,5Z"/></g><path class="cls-3" d="M92,110c-6.17,0-11-2.64-11-6V98a1,1,0,0,1,1-1h20a1,1,0,0,1,1,1v6C103,107.37,98.17,110,92,110ZM83,99v5c0,1.89,3.7,4,9,4s9-2.11,9-4V99Z"/><path class="cls-13" d="M82,92v6c0,2.76,4.48,5,10,5s10-2.24,10-5V92Z"/><path class="cls-3" d="M92,104c-6.17,0-11-2.64-11-6V92a1,1,0,0,1,1-1h20a1,1,0,0,1,1,1v6C103,101.37,98.17,104,92,104ZM83,93v5c0,1.89,3.7,4,9,4s9-2.11,9-4V93Z"/><path class="cls-13" d="M82,92v6c0,2.76,4.48,5,10,5s10-2.24,10-5V92Z"/><path class="cls-5" d="M92,92H82v6c0,2.76,4.48,5,10,5Z"/><path class="cls-3" d="M92,104c-6.17,0-11-2.64-11-6V92a1,1,0,0,1,1-1h20a1,1,0,0,1,1,1v6C103,101.37,98.17,104,92,104ZM83,93v5c0,1.89,3.7,4,9,4s9-2.11,9-4V93Z"/><path class="cls-5" d="M82,86v6c0,2.76,4.48,5,10,5s10-2.24,10-5V86Z"/><g class="cls-6"><path class="cls-7" d="M92,86H82v6c0,2.76,4.48,5,10,5Z"/></g><path class="cls-3" d="M92,98c-6.17,0-11-2.64-11-6V86a1,1,0,0,1,1-1h20a1,1,0,0,1,1,1v6C103,95.37,98.17,98,92,98ZM83,87v5c0,1.89,3.7,4,9,4s9-2.11,9-4V87Z"/><path class="cls-13" d="M82,80v6c0,2.76,4.48,5,10,5s10-2.24,10-5V80Z"/><path class="cls-3" d="M92,92c-6.17,0-11-2.64-11-6V80a1,1,0,0,1,1-1h20a1,1,0,0,1,1,1v6C103,89.37,98.17,92,92,92ZM83,81v5c0,1.89,3.7,4,9,4s9-2.11,9-4V81Z"/><path class="cls-13" d="M82,80v6c0,2.76,4.48,5,10,5s10-2.24,10-5V80Z"/><path class="cls-5" d="M92,80H82v6c0,2.76,4.48,5,10,5Z"/><path class="cls-3" d="M92,92c-6.17,0-11-2.64-11-6V80a1,1,0,0,1,1-1h20a1,1,0,0,1,1,1v6C103,89.37,98.17,92,92,92ZM83,81v5c0,1.89,3.7,4,9,4s9-2.11,9-4V81Z"/><ellipse class="cls-13" cx="92" cy="80" rx="10" ry="5"/><path class="cls-3" d="M92,86c-6.17,0-11-2.64-11-6s4.83-6,11-6,11,2.64,11,6S98.17,86,92,86Zm0-10c-5.3,0-9,2.11-9,4s3.7,4,9,4,9-2.11,9-4S97.31,76,92,76Z"/><ellipse class="cls-5" cx="92" cy="80" rx="6" ry="2"/><path class="cls-13" d="M98,114v6c0,2.76,4.48,5,10,5s10-2.24,10-5v-6Z"/><path class="cls-3" d="M108,126c-6.17,0-11-2.64-11-6v-6a1,1,0,0,1,1-1h20a1,1,0,0,1,1,1v6C119,123.37,114.17,126,108,126Zm-9-11v5c0,1.89,3.7,4,9,4s9-2.11,9-4v-5Z"/><path class="cls-13" d="M98,114v6c0,2.76,4.48,5,10,5s10-2.24,10-5v-6Z"/><path class="cls-5" d="M108,114H98v6c0,2.76,4.48,5,10,5Z"/><path class="cls-3" d="M108,126c-6.17,0-11-2.64-11-6v-6a1,1,0,0,1,1-1h20a1,1,0,0,1,1,1v6C119,123.37,114.17,126,108,126Zm-9-11v5c0,1.89,3.7,4,9,4s9-2.11,9-4v-5Z"/><path class="cls-5" d="M98,108v6c0,2.76,4.48,5,10,5s10-2.24,10-5v-6Z"/><g class="cls-6"><path class="cls-7" d="M108,108H98v6c0,2.76,4.48,5,10,5Z"/></g><path class="cls-3" d="M108,120c-6.17,0-11-2.64-11-6v-6a1,1,0,0,1,1-1h20a1,1,0,0,1,1,1v6C119,117.37,114.17,120,108,120Zm-9-11v5c0,1.89,3.7,4,9,4s9-2.11,9-4v-5Z"/><path class="cls-13" d="M98,102v6c0,2.76,4.48,5,10,5s10-2.24,10-5v-6Z"/><path class="cls-3" d="M108,114c-6.17,0-11-2.64-11-6v-6a1,1,0,0,1,1-1h20a1,1,0,0,1,1,1v6C119,111.37,114.17,114,108,114Zm-9-11v5c0,1.89,3.7,4,9,4s9-2.11,9-4v-5Z"/><path class="cls-13" d="M98,102v6c0,2.76,4.48,5,10,5s10-2.24,10-5v-6Z"/><path class="cls-5" d="M108,102H98v6c0,2.76,4.48,5,10,5Z"/><path class="cls-3" d="M108,114c-6.17,0-11-2.64-11-6v-6a1,1,0,0,1,1-1h20a1,1,0,0,1,1,1v6C119,111.37,114.17,114,108,114Zm-9-11v5c0,1.89,3.7,4,9,4s9-2.11,9-4v-5Z"/><path class="cls-5" d="M98,96v6c0,2.76,4.48,5,10,5s10-2.24,10-5V96Z"/><g class="cls-6"><path class="cls-7" d="M108,96H98v6c0,2.76,4.48,5,10,5Z"/></g><path class="cls-3" d="M108,108c-6.17,0-11-2.64-11-6V96a1,1,0,0,1,1-1h20a1,1,0,0,1,1,1v6C119,105.37,114.17,108,108,108ZM99,97v5c0,1.89,3.7,4,9,4s9-2.11,9-4V97Z"/><path class="cls-13" d="M98,90v6c0,2.76,4.48,5,10,5s10-2.24,10-5V90Z"/><path class="cls-3" d="M108,102c-6.17,0-11-2.64-11-6V90a1,1,0,0,1,1-1h20a1,1,0,0,1,1,1v6C119,99.37,114.17,102,108,102ZM99,91v5c0,1.89,3.7,4,9,4s9-2.11,9-4V91Z"/><path class="cls-13" d="M98,90v6c0,2.76,4.48,5,10,5s10-2.24,10-5V90Z"/><path class="cls-5" d="M108,90H98v6c0,2.76,4.48,5,10,5Z"/><path class="cls-3" d="M108,102c-6.17,0-11-2.64-11-6V90a1,1,0,0,1,1-1h20a1,1,0,0,1,1,1v6C119,99.37,114.17,102,108,102ZM99,91v5c0,1.89,3.7,4,9,4s9-2.11,9-4V91Z"/><path class="cls-5" d="M98,84v6c0,2.76,4.48,5,10,5s10-2.24,10-5V84Z"/><g class="cls-6"><path class="cls-7" d="M108,84H98v6c0,2.76,4.48,5,10,5Z"/></g><path class="cls-3" d="M108,96c-6.17,0-11-2.64-11-6V84a1,1,0,0,1,1-1h20a1,1,0,0,1,1,1v6C119,93.37,114.17,96,108,96ZM99,85v5c0,1.89,3.7,4,9,4s9-2.11,9-4V85Z"/><path class="cls-13" d="M98,78v6c0,2.76,4.48,5,10,5s10-2.24,10-5V78Z"/><path class="cls-3" d="M108,90c-6.17,0-11-2.64-11-6V78a1,1,0,0,1,1-1h20a1,1,0,0,1,1,1v6C119,87.37,114.17,90,108,90ZM99,79v5c0,1.89,3.7,4,9,4s9-2.11,9-4V79Z"/><path class="cls-13" d="M98,78v6c0,2.76,4.48,5,10,5s10-2.24,10-5V78Z"/><path class="cls-5" d="M108,78H98v6c0,2.76,4.48,5,10,5Z"/><path class="cls-3" d="M108,90c-6.17,0-11-2.64-11-6V78a1,1,0,0,1,1-1h20a1,1,0,0,1,1,1v6C119,87.37,114.17,90,108,90ZM99,79v5c0,1.89,3.7,4,9,4s9-2.11,9-4V79Z"/><path class="cls-5" d="M98,72v6c0,2.76,4.48,5,10,5s10-2.24,10-5V72Z"/><g class="cls-6"><path class="cls-7" d="M108,72H98v6c0,2.76,4.48,5,10,5Z"/></g><path class="cls-3" d="M108,84c-6.17,0-11-2.64-11-6V72a1,1,0,0,1,1-1h20a1,1,0,0,1,1,1v6C119,81.37,114.17,84,108,84ZM99,73v5c0,1.89,3.7,4,9,4s9-2.11,9-4V73Z"/><path class="cls-13" d="M98,66v6c0,2.76,4.48,5,10,5s10-2.24,10-5V66Z"/><path class="cls-3" d="M108,78c-6.17,0-11-2.64-11-6V66a1,1,0,0,1,1-1h20a1,1,0,0,1,1,1v6C119,75.37,114.17,78,108,78ZM99,67v5c0,1.89,3.7,4,9,4s9-2.11,9-4V67Z"/><path class="cls-13" d="M98,66v6c0,2.76,4.48,5,10,5s10-2.24,10-5V66Z"/><path class="cls-5" d="M108,66H98v6c0,2.76,4.48,5,10,5Z"/><path class="cls-3" d="M108,78c-6.17,0-11-2.64-11-6V66a1,1,0,0,1,1-1h20a1,1,0,0,1,1,1v6C119,75.37,114.17,78,108,78ZM99,67v5c0,1.89,3.7,4,9,4s9-2.11,9-4V67Z"/><path class="cls-5" d="M98,60v6c0,2.76,4.48,5,10,5s10-2.24,10-5V60Z"/><g class="cls-6"><path class="cls-7" d="M108,60H98v6c0,2.76,4.48,5,10,5Z"/></g><path class="cls-3" d="M108,72c-6.17,0-11-2.64-11-6V60a1,1,0,0,1,1-1h20a1,1,0,0,1,1,1v6C119,69.36,114.17,72,108,72ZM99,61v5c0,1.89,3.7,4,9,4s9-2.11,9-4V61Z"/><path class="cls-13" d="M98,54v6c0,2.76,4.48,5,10,5s10-2.24,10-5V54Z"/><path class="cls-3" d="M108,66c-6.17,0-11-2.64-11-6V54a1,1,0,0,1,1-1h20a1,1,0,0,1,1,1v6C119,63.36,114.17,66,108,66ZM99,55v5c0,1.89,3.7,4,9,4s9-2.11,9-4V55Z"/><path class="cls-13" d="M98,54v6c0,2.76,4.48,5,10,5s10-2.24,10-5V54Z"/><path class="cls-5" d="M108,54H98v6c0,2.76,4.48,5,10,5Z"/><path class="cls-3" d="M108,66c-6.17,0-11-2.64-11-6V54a1,1,0,0,1,1-1h20a1,1,0,0,1,1,1v6C119,63.36,114.17,66,108,66ZM99,55v5c0,1.89,3.7,4,9,4s9-2.11,9-4V55Z"/><ellipse class="cls-13" cx="108" cy="54" rx="10" ry="5"/><path class="cls-3" d="M108,60c-6.17,0-11-2.64-11-6s4.83-6,11-6,11,2.64,11,6S114.17,60,108,60Zm0-10c-5.3,0-9,2.11-9,4s3.7,4,9,4,9-2.11,9-4S113.31,50,108,50Z"/><ellipse class="cls-5" cx="108" cy="54" rx="6" ry="2"/><path class="cls-13" d="M66,114v6c0,2.76,4.48,5,10,5s10-2.24,10-5v-6Z"/><path class="cls-3" d="M76,126c-6.17,0-11-2.64-11-6v-6a1,1,0,0,1,1-1H86a1,1,0,0,1,1,1v6C87,123.37,82.17,126,76,126Zm-9-11v5c0,1.89,3.7,4,9,4s9-2.11,9-4v-5Z"/><path class="cls-13" d="M66,114v6c0,2.76,4.48,5,10,5s10-2.24,10-5v-6Z"/><path class="cls-5" d="M76,114H66v6c0,2.76,4.48,5,10,5Z"/><path class="cls-3" d="M76,126c-6.17,0-11-2.64-11-6v-6a1,1,0,0,1,1-1H86a1,1,0,0,1,1,1v6C87,123.37,82.17,126,76,126Zm-9-11v5c0,1.89,3.7,4,9,4s9-2.11,9-4v-5Z"/><path class="cls-5" d="M66,108v6c0,2.76,4.48,5,10,5s10-2.24,10-5v-6Z"/><g class="cls-6"><path class="cls-7" d="M76,108H66v6c0,2.76,4.48,5,10,5Z"/></g><path class="cls-3" d="M76,120c-6.17,0-11-2.64-11-6v-6a1,1,0,0,1,1-1H86a1,1,0,0,1,1,1v6C87,117.37,82.17,120,76,120Zm-9-11v5c0,1.89,3.7,4,9,4s9-2.11,9-4v-5Z"/><path class="cls-13" d="M66,102v6c0,2.76,4.48,5,10,5s10-2.24,10-5v-6Z"/><path class="cls-3" d="M76,114c-6.17,0-11-2.64-11-6v-6a1,1,0,0,1,1-1H86a1,1,0,0,1,1,1v6C87,111.37,82.17,114,76,114Zm-9-11v5c0,1.89,3.7,4,9,4s9-2.11,9-4v-5Z"/><path class="cls-13" d="M66,102v6c0,2.76,4.48,5,10,5s10-2.24,10-5v-6Z"/><path class="cls-5" d="M76,102H66v6c0,2.76,4.48,5,10,5Z"/><path class="cls-3" d="M76,114c-6.17,0-11-2.64-11-6v-6a1,1,0,0,1,1-1H86a1,1,0,0,1,1,1v6C87,111.37,82.17,114,76,114Zm-9-11v5c0,1.89,3.7,4,9,4s9-2.11,9-4v-5Z"/><ellipse class="cls-13" cx="76" cy="102" rx="10" ry="5"/><path class="cls-3" d="M76,108c-6.17,0-11-2.64-11-6s4.83-6,11-6,11,2.64,11,6S82.17,108,76,108Zm0-10c-5.3,0-9,2.11-9,4s3.7,4,9,4,9-2.11,9-4S81.3,98,76,98Z"/><ellipse class="cls-5" cx="76" cy="102" rx="6" ry="2"/><path class="cls-7" d="M115.23,88.85a7.4,7.4,0,0,0,4.92,4.92q3.69,1.23,0,2.46a7.4,7.4,0,0,0-4.92,4.92q-1.23,3.69-2.46,0a7.4,7.4,0,0,0-4.92-4.92q-3.69-1.23,0-2.46a7.4,7.4,0,0,0,4.92-4.92Q114,85.16,115.23,88.85Z"/><path class="cls-5" d="M42.92,115.39a5.55,5.55,0,0,0,3.69,3.69q2.77.92,0,1.85a5.55,5.55,0,0,0-3.69,3.69q-.92,2.77-1.85,0a5.55,5.55,0,0,0-3.69-3.69q-2.77-.92,0-1.85a5.55,5.55,0,0,0,3.69-3.69Q42,112.62,42.92,115.39Z"/><path class="cls-7" d="M83,75.57A3.7,3.7,0,0,0,85.48,78q1.85.62,0,1.23A3.7,3.7,0,0,0,83,81.73q-.62,1.85-1.23,0a3.7,3.7,0,0,0-2.46-2.46q-1.85-.62,0-1.23a3.7,3.7,0,0,0,2.46-2.46Q82.4,73.73,83,75.57Z"/></svg>