<?xml version="1.0" ?><svg data-name="003" id="_003" viewBox="0 0 128 128" xmlns="http://www.w3.org/2000/svg"><defs><style>.cls-1{opacity:0.3;}.cls-2{fill:#c9c1f5;}.cls-3{fill:#6d6daa;}.cls-4{fill:#fffad1;}.cls-5{fill:#89dbba;}.cls-6{fill:#b1f1a8;}.cls-7{fill:#eef6ff;}.cls-8{fill:#fff;}.cls-9{fill:#7690a8;}.cls-10{fill:#fff27d;}.cls-11{opacity:0.5;}.cls-12{fill:#939fc6;}.cls-13{fill:#ced8ee;}.cls-14{fill:#d4edff;}.cls-15{opacity:0.2;}</style></defs><title/><g class="cls-1"><path class="cls-2" d="M126.19,52.69a30,30,0,0,0-23.51-25A19.69,19.69,0,0,1,91.74,21.1,37,37,0,0,0,27.42,36.78,19.57,19.57,0,0,1,17,49.95,28,28,0,1,0,54.66,87.29,9.41,9.41,0,0,1,63.17,82H64a12.39,12.39,0,0,1,12,9.74,20,20,0,0,0,26.06,14.14A20,20,0,0,0,115.47,88,21.38,21.38,0,0,1,120,75.65,29.91,29.91,0,0,0,126.19,52.69Z"/><rect class="cls-2" height="12" width="15" x="11.99" y="21"/><path class="cls-3" d="M27,34H12a1,1,0,0,1-1-1V21a1,1,0,0,1,1-1H27a1,1,0,0,1,1,1V33A1,1,0,0,1,27,34ZM13,32H26V22H13Z"/><rect class="cls-2" height="5" width="17" x="10.99" y="16"/><path class="cls-3" d="M28,22H11a1,1,0,0,1-1-1V16a1,1,0,0,1,1-1H28a1,1,0,0,1,1,1v5A1,1,0,0,1,28,22ZM12,20H27V17H12Z"/><rect class="cls-4" height="6" width="122.01" x="2.99" y="33"/><path class="cls-3" d="M125,40H3a1,1,0,0,1-1-1V33a1,1,0,0,1,1-1H125a1,1,0,0,1,1,1v6A1,1,0,0,1,125,40ZM4,38H124V34H4Z"/><rect class="cls-4" height="6" width="122.01" x="2.99" y="73"/><path class="cls-3" d="M125,80H3a1,1,0,0,1-1-1V73a1,1,0,0,1,1-1H125a1,1,0,0,1,1,1v6A1,1,0,0,1,125,80ZM4,78H124V74H4Z"/><path class="cls-3" d="M22,26H17a1,1,0,0,1,0-2h5a1,1,0,0,1,0,2Z"/><path class="cls-3" d="M110,126H24a1,1,0,0,1,0-2h86a1,1,0,0,1,0,2Z"/><path class="cls-3" d="M115,126h-2a1,1,0,0,1,0-2h2a1,1,0,0,1,0,2Z"/><path class="cls-3" d="M17,126H13a1,1,0,0,1,0-2h4a1,1,0,1,1,0,2Z"/><path class="cls-3" d="M21,126H20a1,1,0,1,1,0-2h1a1,1,0,1,1,0,2Z"/><rect class="cls-5" height="3.99" width="41.99" x="41.99" y="16"/><path class="cls-3" d="M84,21H42a1,1,0,0,1-1-1V16a1,1,0,0,1,1-1H84a1,1,0,0,1,1,1v4A1,1,0,0,1,84,21ZM43,19H83V17H43Z"/><rect class="cls-6" height="3.99" width="41.99" x="41.99" y="12"/><path class="cls-3" d="M84,17H42a1,1,0,0,1-1-1V12a1,1,0,0,1,1-1H84a1,1,0,0,1,1,1v4A1,1,0,0,1,84,17ZM43,15H83V13H43Z"/><rect class="cls-5" height="3.99" width="41.99" x="41.99" y="8"/><path class="cls-3" d="M84,13H42a1,1,0,0,1-1-1V8a1,1,0,0,1,1-1H84a1,1,0,0,1,1,1v4A1,1,0,0,1,84,13ZM43,11H83V9H43Z"/><rect class="cls-7" height="14" width="9.99" x="57.99" y="6.5"/><rect class="cls-8" height="3" width="9.99" x="57.99" y="7"/><g class="cls-1"><rect class="cls-9" height="3" width="9.99" x="57.99" y="18"/></g><path class="cls-3" d="M68,22H58a1,1,0,0,1-1-1V7a1,1,0,0,1,1-1H68a1,1,0,0,1,1,1V21A1,1,0,0,1,68,22Zm-9-2h8V8H59Z"/><rect class="cls-5" height="3.99" width="41.99" x="71.99" y="28.01"/><path class="cls-3" d="M114,33H72a1,1,0,0,1-1-1V28a1,1,0,0,1,1-1h42a1,1,0,0,1,1,1v4A1,1,0,0,1,114,33ZM73,31h40V29H73Z"/><rect class="cls-6" height="3.99" width="41.99" x="71.99" y="24"/><path class="cls-3" d="M114,29H72a1,1,0,0,1-1-1V24a1,1,0,0,1,1-1h42a1,1,0,0,1,1,1v4A1,1,0,0,1,114,29ZM73,27h40V25H73Z"/><rect class="cls-5" height="3.99" width="41.99" x="71.99" y="20"/><path class="cls-3" d="M114,25H72a1,1,0,0,1-1-1V20a1,1,0,0,1,1-1h42a1,1,0,0,1,1,1v4A1,1,0,0,1,114,25ZM73,23h40V21H73Z"/><rect class="cls-7" height="14" width="10" x="87.99" y="18.51"/><rect class="cls-8" height="3" width="10" x="87.99" y="19"/><g class="cls-1"><rect class="cls-9" height="3" width="10" x="87.99" y="30.01"/></g><path class="cls-3" d="M98,34H88a1,1,0,0,1-1-1V19a1,1,0,0,1,1-1H98a1,1,0,0,1,1,1V33A1,1,0,0,1,98,34Zm-9-2h8V20H89Z"/><rect class="cls-5" height="3.99" width="41.99" x="35.99" y="28.01"/><path class="cls-3" d="M78,33H36a1,1,0,0,1-1-1V28a1,1,0,0,1,1-1H78a1,1,0,0,1,1,1v4A1,1,0,0,1,78,33ZM37,31H77V29H37Z"/><rect class="cls-6" height="3.99" width="41.99" x="35.99" y="24"/><path class="cls-3" d="M78,29H36a1,1,0,0,1-1-1V24a1,1,0,0,1,1-1H78a1,1,0,0,1,1,1v4A1,1,0,0,1,78,29ZM37,27H77V25H37Z"/><rect class="cls-5" height="3.99" width="41.99" x="35.99" y="20"/><path class="cls-3" d="M78,25H36a1,1,0,0,1-1-1V20a1,1,0,0,1,1-1H78a1,1,0,0,1,1,1v4A1,1,0,0,1,78,25ZM37,23H77V21H37Z"/><rect class="cls-7" height="14" width="10" x="51.99" y="18.51"/><rect class="cls-8" height="3" width="10" x="51.99" y="19"/><g class="cls-1"><rect class="cls-9" height="3" width="10" x="51.99" y="30.01"/></g><path class="cls-3" d="M62,34H52a1,1,0,0,1-1-1V19a1,1,0,0,1,1-1H62a1,1,0,0,1,1,1V33A1,1,0,0,1,62,34Zm-9-2h8V20H53Z"/><path class="cls-10" d="M5.77,70.43l1.8-6A2,2,0,0,1,9.49,63h11a2,2,0,0,1,1.92,1.43l1.8,6A2,2,0,0,1,22.31,73H7.69A2,2,0,0,1,5.77,70.43Z"/><g class="cls-11"><path class="cls-8" d="M5.77,70.43s0,.06,0,.1l15.41-7.41a2,2,0,0,0-.66-.12h-11a2,2,0,0,0-1.92,1.43Z"/></g><g class="cls-11"><path class="cls-8" d="M22.79,65.62l-.22-.72L6.52,72.61A2,2,0,0,0,7.69,73h4.25l11.41-5.48Z"/></g><path class="cls-3" d="M22.31,74H7.69a3,3,0,0,1-2.87-3.86h0l1.8-6A3,3,0,0,1,9.49,62h11a3,3,0,0,1,2.87,2.14l1.8,6A3,3,0,0,1,22.31,74ZM6.73,70.71a1,1,0,0,0,1,1.29H22.31a1,1,0,0,0,1-1.29l-1.8-6a1,1,0,0,0-1-.71h-11a1,1,0,0,0-1,.71l-1.8,6Z"/><path class="cls-10" d="M25.77,70.43l1.8-6A2,2,0,0,1,29.49,63h11a2,2,0,0,1,1.92,1.43l1.8,6A2,2,0,0,1,42.31,73H27.69A2,2,0,0,1,25.77,70.43Z"/><g class="cls-11"><path class="cls-8" d="M25.77,70.43s0,.06,0,.1l15.41-7.41a2,2,0,0,0-.66-.12h-11a2,2,0,0,0-1.92,1.43Z"/></g><g class="cls-11"><path class="cls-8" d="M42.79,65.62l-.22-.72L26.52,72.61a2,2,0,0,0,1.17.39h4.25l11.41-5.48Z"/></g><path class="cls-3" d="M42.31,74H27.69a3,3,0,0,1-2.87-3.86h0l1.8-6A3,3,0,0,1,29.49,62h11a3,3,0,0,1,2.87,2.14l1.8,6A3,3,0,0,1,42.31,74ZM26.73,70.71a1,1,0,0,0,1,1.29H42.31a1,1,0,0,0,1-1.29l-1.8-6a1,1,0,0,0-1-.71h-11a1,1,0,0,0-1,.71l-1.8,6Z"/><path class="cls-10" d="M45.77,70.43l1.8-6A2,2,0,0,1,49.49,63h11a2,2,0,0,1,1.92,1.43l1.8,6A2,2,0,0,1,62.31,73H47.69A2,2,0,0,1,45.77,70.43Z"/><g class="cls-11"><path class="cls-8" d="M45.77,70.43s0,.06,0,.1l15.41-7.41a2,2,0,0,0-.66-.12h-11a2,2,0,0,0-1.92,1.43Z"/></g><g class="cls-11"><path class="cls-8" d="M62.79,65.62l-.22-.72L46.52,72.61a2,2,0,0,0,1.17.39h4.25l11.41-5.48Z"/></g><path class="cls-3" d="M62.31,74H47.69a3,3,0,0,1-2.87-3.86h0l1.8-6A3,3,0,0,1,49.49,62h11a3,3,0,0,1,2.87,2.14l1.8,6A3,3,0,0,1,62.31,74ZM46.73,70.71a1,1,0,0,0,1,1.29H62.31a1,1,0,0,0,1-1.29l-1.8-6a1,1,0,0,0-1-.71h-11a1,1,0,0,0-1,.71l-1.8,6Z"/><path class="cls-10" d="M35.77,60.43l1.8-6A2,2,0,0,1,39.49,53h11a2,2,0,0,1,1.92,1.43l1.8,6A2,2,0,0,1,52.31,63H37.69A2,2,0,0,1,35.77,60.43Z"/><g class="cls-11"><path class="cls-8" d="M35.77,60.43s0,.06,0,.1l15.41-7.41a2,2,0,0,0-.66-.12h-11a2,2,0,0,0-1.92,1.43Z"/></g><g class="cls-11"><path class="cls-8" d="M52.79,55.62l-.22-.72L36.52,62.61a2,2,0,0,0,1.17.39h4.25l11.41-5.48Z"/></g><path class="cls-3" d="M52.31,64H37.69a3,3,0,0,1-2.87-3.86h0l1.8-6A3,3,0,0,1,39.49,52h11a3,3,0,0,1,2.87,2.14l1.8,6A3,3,0,0,1,52.31,64ZM36.73,60.71a1,1,0,0,0,1,1.29H52.31a1,1,0,0,0,1-1.29l-1.8-6a1,1,0,0,0-1-.71h-11a1,1,0,0,0-1,.71l-1.8,6Z"/><path class="cls-10" d="M15.77,60.43l1.8-6A2,2,0,0,1,19.49,53h11a2,2,0,0,1,1.92,1.43l1.8,6A2,2,0,0,1,32.31,63H17.69A2,2,0,0,1,15.77,60.43Z"/><g class="cls-11"><path class="cls-8" d="M15.77,60.43s0,.06,0,.1l15.41-7.41a2,2,0,0,0-.66-.12h-11a2,2,0,0,0-1.92,1.43Z"/></g><g class="cls-11"><path class="cls-8" d="M32.79,55.62l-.22-.72L16.52,62.61a2,2,0,0,0,1.17.39h4.25l11.41-5.48Z"/></g><path class="cls-3" d="M32.31,64H17.69a3,3,0,0,1-2.87-3.86h0l1.8-6A3,3,0,0,1,19.49,52h11a3,3,0,0,1,2.87,2.14l1.8,6A3,3,0,0,1,32.31,64ZM16.73,60.71a1,1,0,0,0,1,1.29H32.31a1,1,0,0,0,1-1.29l-1.8-6a1,1,0,0,0-1-.71h-11a1,1,0,0,0-1,.71l-1.8,6Z"/><path class="cls-10" d="M25.77,50.43l1.8-6A2,2,0,0,1,29.49,43h11a2,2,0,0,1,1.92,1.43l1.8,6A2,2,0,0,1,42.31,53H27.69A2,2,0,0,1,25.77,50.43Z"/><g class="cls-11"><path class="cls-8" d="M25.77,50.43s0,.06,0,.1l15.41-7.41a2,2,0,0,0-.66-.12h-11a2,2,0,0,0-1.92,1.43Z"/></g><g class="cls-11"><path class="cls-8" d="M42.79,45.62l-.22-.72L26.52,52.61a2,2,0,0,0,1.17.39h4.25l11.41-5.48Z"/></g><path class="cls-3" d="M42.31,54H27.69a3,3,0,0,1-2.87-3.86h0l1.8-6A3,3,0,0,1,29.49,42h11a3,3,0,0,1,2.87,2.14l1.8,6A3,3,0,0,1,42.31,54ZM26.73,50.71a1,1,0,0,0,1,1.29H42.31a1,1,0,0,0,1-1.29l-1.8-6a1,1,0,0,0-1-.71h-11a1,1,0,0,0-1,.71l-1.8,6Z"/><path class="cls-10" d="M85.77,70.43l1.8-6A2,2,0,0,1,89.49,63h11a2,2,0,0,1,1.92,1.43l1.8,6A2,2,0,0,1,102.31,73H87.69A2,2,0,0,1,85.77,70.43Z"/><g class="cls-11"><path class="cls-8" d="M85.77,70.43s0,.06,0,.1l15.41-7.41a2,2,0,0,0-.66-.12h-11a2,2,0,0,0-1.92,1.43Z"/></g><g class="cls-11"><path class="cls-8" d="M102.79,65.62l-.22-.72L86.52,72.61a2,2,0,0,0,1.17.39h4.25l11.41-5.48Z"/></g><path class="cls-3" d="M102.31,74H87.69a3,3,0,0,1-2.87-3.86h0l1.8-6A3,3,0,0,1,89.49,62h11a3,3,0,0,1,2.87,2.14l1.8,6A3,3,0,0,1,102.31,74ZM86.73,70.71a1,1,0,0,0,1,1.29h14.62a1,1,0,0,0,1-1.29l-1.8-6a1,1,0,0,0-1-.71h-11a1,1,0,0,0-1,.71l-1.8,6Z"/><path class="cls-10" d="M105.77,70.43l1.8-6A2,2,0,0,1,109.49,63h11a2,2,0,0,1,1.92,1.43l1.8,6A2,2,0,0,1,122.31,73H107.69A2,2,0,0,1,105.77,70.43Z"/><g class="cls-11"><path class="cls-8" d="M105.77,70.43s0,.06,0,.1l15.41-7.41a2,2,0,0,0-.66-.12h-11a2,2,0,0,0-1.92,1.43Z"/></g><g class="cls-11"><path class="cls-8" d="M122.79,65.62l-.22-.72-16.05,7.71a2,2,0,0,0,1.17.39h4.25l11.41-5.48Z"/></g><path class="cls-3" d="M122.31,74H107.69a3,3,0,0,1-2.87-3.86h0l1.8-6A3,3,0,0,1,109.49,62h11a3,3,0,0,1,2.87,2.14l1.8,6A3,3,0,0,1,122.31,74Zm-15.58-3.29a1,1,0,0,0,1,1.29h14.62a1,1,0,0,0,1-1.29l-1.8-6a1,1,0,0,0-1-.71h-11a1,1,0,0,0-1,.71l-1.8,6Z"/><path class="cls-10" d="M105.77,60.43l1.8-6A2,2,0,0,1,109.49,53h11a2,2,0,0,1,1.92,1.43l1.8,6A2,2,0,0,1,122.31,63H107.69A2,2,0,0,1,105.77,60.43Z"/><g class="cls-11"><path class="cls-8" d="M105.77,60.43s0,.06,0,.1l15.41-7.41a2,2,0,0,0-.66-.12h-11a2,2,0,0,0-1.92,1.43Z"/></g><g class="cls-11"><path class="cls-8" d="M122.79,55.62l-.22-.72-16.05,7.71a2,2,0,0,0,1.17.39h4.25l11.41-5.48Z"/></g><path class="cls-3" d="M122.31,64H107.69a3,3,0,0,1-2.87-3.86h0l1.8-6A3,3,0,0,1,109.49,52h11a3,3,0,0,1,2.87,2.14l1.8,6A3,3,0,0,1,122.31,64Zm-15.58-3.29a1,1,0,0,0,1,1.29h14.62a1,1,0,0,0,1-1.29l-1.8-6a1,1,0,0,0-1-.71h-11a1,1,0,0,0-1,.71l-1.8,6Z"/><path class="cls-10" d="M85.77,60.43l1.8-6A2,2,0,0,1,89.49,53h11a2,2,0,0,1,1.92,1.43l1.8,6A2,2,0,0,1,102.31,63H87.69A2,2,0,0,1,85.77,60.43Z"/><g class="cls-11"><path class="cls-8" d="M85.77,60.43s0,.06,0,.1l15.41-7.41a2,2,0,0,0-.66-.12h-11a2,2,0,0,0-1.92,1.43Z"/></g><g class="cls-11"><path class="cls-8" d="M102.79,55.62l-.22-.72L86.52,62.61a2,2,0,0,0,1.17.39h4.25l11.41-5.48Z"/></g><path class="cls-3" d="M102.31,64H87.69a3,3,0,0,1-2.87-3.86h0l1.8-6A3,3,0,0,1,89.49,52h11a3,3,0,0,1,2.87,2.14l1.8,6A3,3,0,0,1,102.31,64ZM86.73,60.71a1,1,0,0,0,1,1.29h14.62a1,1,0,0,0,1-1.29l-1.8-6a1,1,0,0,0-1-.71h-11a1,1,0,0,0-1,.71l-1.8,6Z"/><path class="cls-10" d="M95.77,50.43l1.8-6A2,2,0,0,1,99.49,43h11a2,2,0,0,1,1.92,1.43l1.8,6A2,2,0,0,1,112.31,53H97.69A2,2,0,0,1,95.77,50.43Z"/><g class="cls-11"><path class="cls-8" d="M95.77,50.43s0,.06,0,.1l15.41-7.41a2,2,0,0,0-.66-.12h-11a2,2,0,0,0-1.92,1.43Z"/></g><g class="cls-11"><path class="cls-8" d="M112.79,45.62l-.22-.72L96.52,52.61a2,2,0,0,0,1.17.39h4.25l11.41-5.48Z"/></g><path class="cls-3" d="M112.31,54H97.69a3,3,0,0,1-2.87-3.86h0l1.8-6A3,3,0,0,1,99.49,42h11a3,3,0,0,1,2.87,2.14l1.8,6A3,3,0,0,1,112.31,54ZM96.73,50.71a1,1,0,0,0,1,1.29h14.62a1,1,0,0,0,1-1.29l-1.8-6a1,1,0,0,0-1-.71h-11a1,1,0,0,0-1,.71l-1.8,6Z"/></g><rect class="cls-7" height="68" rx="4" ry="4" width="88" x="20" y="51"/><g class="cls-1"><path class="cls-9" d="M104,116H24a4,4,0,0,1-4-4v3a4,4,0,0,0,4,4h80a4,4,0,0,0,4-4v-3A4,4,0,0,1,104,116Z"/></g><path class="cls-8" d="M104,51H24a4,4,0,0,0-4,4v3a4,4,0,0,1,4-4h80a4,4,0,0,1,4,4V55A4,4,0,0,0,104,51Z"/><polygon class="cls-12" points="38 125.03 32 125.03 30 119.04 40 119.04 38 125.03"/><path class="cls-3" d="M38,126H32a1,1,0,0,1-.95-.68l-2-6A1,1,0,0,1,30,118H40a1,1,0,0,1,.95,1.32l-2,6A1,1,0,0,1,38,126Zm-5.28-2h4.56l1.33-4H31.39Z"/><polygon class="cls-12" points="96.01 125.03 90.01 125.03 88.01 119.04 98.01 119.04 96.01 125.03"/><path class="cls-3" d="M96,126H90a1,1,0,0,1-.95-.68l-2-6A1,1,0,0,1,88,118H98a1,1,0,0,1,.95,1.32l-2,6A1,1,0,0,1,96,126Zm-5.28-2h4.56l1.33-4H89.4Z"/><path class="cls-3" d="M104,120H24a5,5,0,0,1-5-5V55a5,5,0,0,1,5-5h80a5,5,0,0,1,5,5v60A5,5,0,0,1,104,120ZM24,52a3,3,0,0,0-3,3v60a3,3,0,0,0,3,3h80a3,3,0,0,0,3-3V55a3,3,0,0,0-3-3Z"/><rect class="cls-7" height="56" rx="1" ry="1" width="76" x="26" y="57.01"/><g class="cls-1"><path class="cls-9" d="M26,58v2h76V58a1,1,0,0,0-1-1H27A1,1,0,0,0,26,58Z"/></g><path class="cls-3" d="M101,114H27a2,2,0,0,1-2-2V58a2,2,0,0,1,2-2h74a2,2,0,0,1,2,2v54A2,2,0,0,1,101,114ZM27,58v54h74V58Z"/><circle class="cls-13" cx="71" cy="86" r="19"/><g class="cls-1"><path class="cls-9" d="M71,102A19,19,0,0,1,52.07,84.43C52,85,52,85.47,52,86a19,19,0,1,0,38,0c0-.53,0-1-.07-1.57A19,19,0,0,1,71,102Z"/></g><g class="cls-11"><path class="cls-8" d="M71,70A19,19,0,0,1,89.93,87.57c0-.52.07-1,.07-1.57a19,19,0,0,0-38,0c0,.53,0,1.05.07,1.57A19,19,0,0,1,71,70Z"/></g><path class="cls-3" d="M71,106A20,20,0,1,1,91,86,20,20,0,0,1,71,106Zm0-38A18,18,0,1,0,89,86,18,18,0,0,0,71,68Z"/><path class="cls-14" d="M71,75a11,11,0,0,1,2,.19V65a2,2,0,1,0-4,0V75.19A11,11,0,0,1,71,75Z"/><path class="cls-3" d="M73,76.19l-.18,0a9.52,9.52,0,0,0-3.64,0,1,1,0,0,1-1.18-1V65a3,3,0,0,1,6,0V75.19a1,1,0,0,1-1,1ZM71,74c.33,0,.66,0,1,0V65a1,1,0,0,0-2,0v9C70.34,74,70.67,74,71,74Z"/><path class="cls-14" d="M61.33,80.75l-9.68-3.15a2,2,0,1,0-1.24,3.8l9.69,3.15A10.93,10.93,0,0,1,61.33,80.75Z"/><path class="cls-3" d="M60.11,85.56a1,1,0,0,1-.31,0L50.1,82.36A3,3,0,0,1,52,76.66l9.68,3.15a1,1,0,0,1,.57,1.43,9.91,9.91,0,0,0-1.11,3.46,1,1,0,0,1-1,.87ZM51,78.51a1,1,0,0,0-.31,2l8.6,2.8a11.88,11.88,0,0,1,.61-1.9l-8.6-2.79A1,1,0,0,0,51,78.51Z"/><path class="cls-14" d="M92.88,78.89a2,2,0,0,0-2.52-1.28l-9.68,3.15a10.93,10.93,0,0,1,1.22,3.81l9.7-3.15A2,2,0,0,0,92.88,78.89Z"/><path class="cls-3" d="M81.9,85.56a1,1,0,0,1-1-.87,9.9,9.9,0,0,0-1.11-3.46,1,1,0,0,1,.57-1.43L90,76.66a3,3,0,0,1,3.78,1.93h0a3,3,0,0,1-1.93,3.78l-9.7,3.15A1,1,0,0,1,81.9,85.56Zm.17-4.21a11.88,11.88,0,0,1,.61,1.9l8.61-2.8a1,1,0,0,0,.64-1.26h0a1,1,0,0,0-1.26-.64Z"/><path class="cls-14" d="M63,93.57l-6,8.25a2,2,0,1,0,3.24,2.35l6-8.25A11,11,0,0,1,63,93.57Z"/><path class="cls-3" d="M58.65,106a3,3,0,0,1-2.42-4.76l6-8.25a1,1,0,0,1,1.53-.1A10,10,0,0,0,66.7,95a1,1,0,0,1,.38,1.49l-6,8.25a3,3,0,0,1-2,1.2A3.08,3.08,0,0,1,58.65,106Zm4.52-10.91-5.32,7.32a1,1,0,0,0,.22,1.4,1,1,0,0,0,.74.18,1,1,0,0,0,.65-.4l5.32-7.32A11.9,11.9,0,0,1,63.17,95.08Z"/><path class="cls-14" d="M85,101.81l-6-8.25a11,11,0,0,1-3.24,2.35l6,8.25A2,2,0,1,0,85,101.81Z"/><path class="cls-3" d="M83.35,106a3.08,3.08,0,0,1-.48,0,3,3,0,0,1-2-1.2l-6-8.25A1,1,0,0,1,75.3,95a10,10,0,0,0,2.94-2.14,1,1,0,0,1,1.53.1l6,8.25A3,3,0,0,1,83.35,106Zm-6.14-9.74,5.32,7.32a1,1,0,1,0,1.62-1.18h0l-5.32-7.32A11.9,11.9,0,0,1,77.22,96.25Z"/><circle class="cls-12" cx="71" cy="86" r="11"/><g class="cls-11"><path class="cls-9" d="M71,94a11,11,0,0,1-10.89-9.5,11,11,0,1,0,21.77,0A11,11,0,0,1,71,94Z"/></g><g class="cls-15"><path class="cls-8" d="M71,78a11,11,0,0,1,10.89,9.5,11,11,0,1,0-21.77,0A11,11,0,0,1,71,78Z"/></g><path class="cls-3" d="M71,98A12,12,0,1,1,83,86,12,12,0,0,1,71,98Zm0-22A10,10,0,1,0,81,86,10,10,0,0,0,71,76Z"/><path class="cls-3" d="M71,78a1,1,0,0,1-1-1V75a1,1,0,0,1,2,0v2A1,1,0,0,1,71,78Z"/><path class="cls-3" d="M71,98a1,1,0,0,1-1-1V95a1,1,0,0,1,2,0v2A1,1,0,0,1,71,98Z"/><path class="cls-3" d="M66.5,79.21a1,1,0,0,1-.87-.5l-1-1.73a1,1,0,0,1,1.73-1l1,1.73a1,1,0,0,1-.87,1.5Z"/><path class="cls-3" d="M76.5,96.53a1,1,0,0,1-.87-.5l-1-1.73a1,1,0,0,1,1.73-1l1,1.73a1,1,0,0,1-.87,1.5Z"/><path class="cls-3" d="M63.21,82.5a1,1,0,0,1-.5-.13l-1.73-1a1,1,0,1,1,1-1.73l1.73,1a1,1,0,0,1-.5,1.87Z"/><path class="cls-3" d="M80.53,92.5a1,1,0,0,1-.5-.13l-1.73-1a1,1,0,1,1,1-1.73l1.73,1a1,1,0,0,1-.5,1.87Z"/><path class="cls-3" d="M62,87H60a1,1,0,1,1,0-2h2a1,1,0,0,1,0,2Z"/><path class="cls-3" d="M82,87H80a1,1,0,0,1,0-2h2a1,1,0,0,1,0,2Z"/><path class="cls-3" d="M61.48,92.5a1,1,0,0,1-.5-1.87l1.73-1a1,1,0,0,1,1,1.73l-1.73,1A1,1,0,0,1,61.48,92.5Z"/><path class="cls-3" d="M78.8,82.5a1,1,0,0,1-.5-1.87l1.73-1a1,1,0,0,1,1,1.73l-1.73,1A1,1,0,0,1,78.8,82.5Z"/><path class="cls-3" d="M65.5,96.53a1,1,0,0,1-.87-1.5l1-1.73a1,1,0,0,1,1.73,1l-1,1.73A1,1,0,0,1,65.5,96.53Z"/><path class="cls-3" d="M75.5,79.21a1,1,0,0,1-.87-1.5l1-1.73a1,1,0,0,1,1.73,1l-1,1.73A1,1,0,0,1,75.5,79.21Z"/><path class="cls-3" d="M71,102a1,1,0,1,1,.71-1.71,1,1,0,0,1,0,1.42A1,1,0,0,1,71,102Z"/><path class="cls-3" d="M62.19,74.87l-.2,0-.19-.06-.17-.09a.93.93,0,0,1-.15-.13,1,1,0,0,1,0-1.41,1,1,0,0,1,1.41,0,1,1,0,0,1,.3.71,1,1,0,0,1-1,1Z"/><path class="cls-3" d="M56.74,91.64a1.09,1.09,0,0,1-.39-.08.88.88,0,0,1-.32-.22,1,1,0,0,1-.22-.32,1,1,0,0,1-.07-.38,1,1,0,0,1,.07-.39,1,1,0,0,1,1.63-.32,1,1,0,0,1,0,1.41A1,1,0,0,1,56.74,91.64Z"/><path class="cls-3" d="M85.27,91.64a1,1,0,0,1-.71-.3,1,1,0,0,1,0-1.41,1,1,0,0,1,1.41,0,1,1,0,0,1,.3.71,1,1,0,0,1-1,1Z"/><path class="cls-3" d="M79.82,74.87a1,1,0,0,1-1-1,.85.85,0,0,1,.08-.39,1,1,0,0,1,.21-.32,1,1,0,0,1,1.42,0,1,1,0,0,1,.29.71,1,1,0,0,1-1,1Z"/><circle class="cls-14" cx="71" cy="86" r="5"/><path class="cls-3" d="M71,92a6,6,0,1,1,6-6A6,6,0,0,1,71,92Zm0-10a4,4,0,1,0,4,4A4,4,0,0,0,71,82Z"/><rect class="cls-13" height="32" rx="3" ry="3" width="5.99" x="34" y="69.01"/><g class="cls-1"><path class="cls-9" d="M37,97a3,3,0,0,1-3-3v4a3,3,0,0,0,6,0V94A3,3,0,0,1,37,97Z"/></g><g class="cls-11"><path class="cls-8" d="M37,69a3,3,0,0,0-3,3v4a3,3,0,0,1,6,0V72A3,3,0,0,0,37,69Z"/></g><path class="cls-3" d="M37,102a4,4,0,0,1-4-4V72a4,4,0,0,1,8,0V98A4,4,0,0,1,37,102Zm0-32a2,2,0,0,0-2,2V98a2,2,0,0,0,4,0V72A2,2,0,0,0,37,70Z"/><path class="cls-13" d="M104,69v6a2,2,0,0,1-2,2h0a2,2,0,0,1-2-2V69a2,2,0,0,1,2-2h0A2,2,0,0,1,104,69Z"/><path class="cls-3" d="M102,78a3,3,0,0,1-3-3V69a3,3,0,0,1,6,0v6A3,3,0,0,1,102,78Zm0-10a1,1,0,0,0-1,1v6a1,1,0,0,0,2,0V69A1,1,0,0,0,102,68Z"/><path class="cls-13" d="M104,95v6a2,2,0,0,1-2,2h0a2,2,0,0,1-2-2V95a2,2,0,0,1,2-2h0A2,2,0,0,1,104,95Z"/><path class="cls-3" d="M102,104a3,3,0,0,1-3-3V95a3,3,0,0,1,6,0v6A3,3,0,0,1,102,104Zm0-10a1,1,0,0,0-1,1v6a1,1,0,0,0,2,0V95A1,1,0,0,0,102,94Z"/><path class="cls-3" d="M104,99h-4a1,1,0,0,1,0-2h4a1,1,0,0,1,0,2Z"/><path class="cls-3" d="M104,73h-4a1,1,0,0,1,0-2h4a1,1,0,0,1,0,2Z"/><path class="cls-3" d="M30,110a1,1,0,0,1-1-1,1,1,0,0,1,.08-.38.93.93,0,0,1,.21-.33,1,1,0,0,1,1.42,0,.94.94,0,0,1,.21.33A1,1,0,0,1,31,109a1.05,1.05,0,0,1-.29.71l-.15.12a.76.76,0,0,1-.18.09.62.62,0,0,1-.18.06Z"/><path class="cls-3" d="M98,62a1,1,0,0,1-1-1,1,1,0,0,1,.29-.7,1,1,0,0,1,1.09-.22.88.88,0,0,1,.32.22,1,1,0,0,1,.3.7,1,1,0,0,1-.3.71,1,1,0,0,1-.32.22A1,1,0,0,1,98,62Z"/><path class="cls-3" d="M98,110a1,1,0,0,1-.71-.29,1.2,1.2,0,0,1-.22-.33A1,1,0,0,1,97,109a1,1,0,0,1,.29-.71,1,1,0,0,1,1.09-.22,1.22,1.22,0,0,1,.32.22,1,1,0,0,1,.3.71,1,1,0,0,1-.08.38,1,1,0,0,1-.22.33,1,1,0,0,1-.7.29Z"/><path class="cls-3" d="M30,62a1,1,0,0,1-.71-1.7,1,1,0,0,1,1.42,0A1,1,0,0,1,30,62Z"/></svg>