<?xml version="1.0" ?><svg data-name="003" id="_003" viewBox="0 0 128 128" xmlns="http://www.w3.org/2000/svg"><defs><style>.cls-1{opacity:0.3;}.cls-2{fill:#c9c1f5;}.cls-3{fill:#eef6ff;}.cls-4{fill:#7595b5;}.cls-5{fill:#fff;}.cls-6{fill:#6d6daa;}.cls-7{fill:#d6b5b0;}.cls-8{fill:#fff9e0;}.cls-9{fill:#93765f;}.cls-10{opacity:0.5;}.cls-11{fill:#fffad1;}.cls-12{fill:#b1f1a8;}.cls-13{fill:#a3e298;}.cls-14{fill:#97c1ff;}.cls-15{fill:#939fc6;}.cls-16{fill:#fff27d;}.cls-17{fill:#f7a706;}.cls-18{fill:#7690a8;}.cls-19{fill:#ff9797;}.cls-20{fill:#96d7ff;}.cls-21{fill:#c7e9ff;}.cls-22{fill:#1c64ba;}.cls-23{fill:#9eb2cc;}</style></defs><title/><g class="cls-1"><path class="cls-2" d="M124.7,47.65a30,30,0,0,0-23.51-25,19.69,19.69,0,0,1-10.93-6.55A37,37,0,0,0,26,31.43,21,21,0,0,1,15.12,45.1C1,52.46-6.14,71.56,6.77,89.48a16.6,16.6,0,0,0,6.35,4.91,20.58,20.58,0,0,1,10,10.88,28.49,28.49,0,0,0,42.62,12.64A20.06,20.06,0,0,1,82.39,115a29,29,0,0,0,36-33.79A20.08,20.08,0,0,1,120.94,67,29.83,29.83,0,0,0,124.7,47.65Z"/><circle class="cls-3" cx="19" cy="97" r="18"/><g class="cls-1"><path class="cls-4" d="M19,111.14A18,18,0,0,1,1.11,95.07,18,18,0,1,0,37,97a18.18,18.18,0,0,0-.11-1.93A18,18,0,0,1,19,111.14Z"/></g><path class="cls-5" d="M19,82.86A18,18,0,0,1,36.89,98.93,18,18,0,1,0,1,97a18.18,18.18,0,0,0,.11,1.93A18,18,0,0,1,19,82.86Z"/><path class="cls-6" d="M19,116A19,19,0,1,1,38,97,19,19,0,0,1,19,116Zm0-36A17,17,0,1,0,36,97,17,17,0,0,0,19,80Z"/><path class="cls-6" d="M19,110.86a1,1,0,0,1-.71-.3,1,1,0,0,1-.22-.32,1,1,0,0,1-.07-.38.9.9,0,0,1,.08-.39,1,1,0,0,1,.21-.32,1,1,0,0,1,1.42,0,1,1,0,0,1,.21.32,1.09,1.09,0,0,1,.08.39,1,1,0,0,1-.29.7,1,1,0,0,1-.33.22A1,1,0,0,1,19,110.86Z"/><path class="cls-6" d="M31.86,98a1,1,0,0,1-.39-.08,1,1,0,0,1-.54-1.3,1,1,0,0,1,.22-.33,1,1,0,0,1,.32-.21A1,1,0,0,1,32,96a.62.62,0,0,1,.19.06.56.56,0,0,1,.17.09.62.62,0,0,1,.15.12.84.84,0,0,1,.22.33A1,1,0,0,1,31.86,98Z"/><path class="cls-6" d="M5.86,98a1,1,0,0,1-.39-.08,1,1,0,0,1-.32-.21,1.2,1.2,0,0,1-.22-.33,1,1,0,0,1,.22-1.09,1,1,0,0,1,1.09-.22,1.24,1.24,0,0,1,.32.22,1,1,0,0,1,.3.71,1,1,0,0,1-.08.38,1,1,0,0,1-.22.33,1,1,0,0,1-.7.29Z"/><path class="cls-6" d="M19,85a1,1,0,0,1-.38-.08,1.15,1.15,0,0,1-.33-.21,1.22,1.22,0,0,1-.22-.33A1,1,0,0,1,18,84a.83.83,0,0,1,.08-.38,1.15,1.15,0,0,1,.21-.33l.15-.12a.74.74,0,0,1,.18-.09A.65.65,0,0,1,18.8,83a.87.87,0,0,1,.39,0,.62.62,0,0,1,.19.06.74.74,0,0,1,.18.09l.15.12a1.15,1.15,0,0,1,.21.33.94.94,0,0,1,0,.76.9.9,0,0,1-.54.54A1,1,0,0,1,19,85Z"/><path class="cls-6" d="M19,100.57A3.57,3.57,0,1,1,22.57,97,3.58,3.58,0,0,1,19,100.57Zm0-5.14A1.57,1.57,0,1,0,20.57,97,1.57,1.57,0,0,0,19,95.43Z"/><path class="cls-6" d="M19,95.43a1,1,0,0,1-1-1V87.14a1,1,0,0,1,2,0v7.29A1,1,0,0,1,19,95.43Z"/><path class="cls-6" d="M16.43,98H9.14a1,1,0,0,1,0-2h7.29a1,1,0,1,1,0,2Z"/><rect class="cls-7" height="24" width="26" x="8" y="35"/><g class="cls-1"><rect class="cls-8" height="3" width="26" x="8" y="35"/></g><g class="cls-1"><rect class="cls-9" height="3" width="26" x="8" y="56"/></g><path class="cls-6" d="M34,60H8a1,1,0,0,1-1-1V35a1,1,0,0,1,1-1H34a1,1,0,0,1,1,1V59A1,1,0,0,1,34,60ZM9,58H33V36H9Z"/><rect class="cls-5" height="6" width="8" x="12" y="49"/><path class="cls-6" d="M20,56H12a1,1,0,0,1-1-1V49a1,1,0,0,1,1-1h8a1,1,0,0,1,1,1v6A1,1,0,0,1,20,56Zm-7-2h6V50H13Z"/><g class="cls-10"><path class="cls-6" d="M17,53H15a1,1,0,0,1,0-2h2a1,1,0,0,1,0,2Z"/></g><polygon class="cls-11" points="25 35 17 35 17 42 19 43 21 42 23 43 25 42 25 35"/><path class="cls-6" d="M19,44a1,1,0,0,1-.45-.11l-2-1A1,1,0,0,1,16,42V35a1,1,0,0,1,1-1h8a1,1,0,0,1,1,1v7a1,1,0,0,1-.55.89l-2,1a1,1,0,0,1-.89,0L21,43.12l-1.55.78A1,1,0,0,1,19,44Zm2-3a1,1,0,0,1,.45.11l1.55.78,1-.5V36H18v5.38l1,.5,1.55-.78A1,1,0,0,1,21,41Z"/><path class="cls-6" d="M21,36a1,1,0,0,1-1-1V30a1,1,0,0,1,2,0v5A1,1,0,0,1,21,36Z"/><path class="cls-6" d="M21,31a1,1,0,0,1-.42-.09L.71,21.78A1,1,0,0,1,1.55,20l19.87,9.11A1,1,0,0,1,21,31Z"/><path class="cls-6" d="M21,31a1,1,0,0,1-.81-.41l-6.62-9.11a1,1,0,0,1,1.62-1.18l6.62,9.11A1,1,0,0,1,21,31Z"/><path class="cls-6" d="M21,31a1,1,0,0,1-.81-1.59l6.62-9.11a1,1,0,0,1,1.62,1.18l-6.62,9.11A1,1,0,0,1,21,31Z"/><path class="cls-6" d="M21,31a1,1,0,0,1-.42-1.91L40.45,20a1,1,0,0,1,.83,1.82L21.42,30.89A1,1,0,0,1,21,31Z"/><path class="cls-12" d="M27.62,20.87c0-2,3-3.68,6.63-3.68s6.62,1.65,6.62,3.68a19.87,19.87,0,1,0-39.74,0c0-2,3-3.68,6.62-3.68s6.63,1.65,6.63,3.68c0-2,3-3.68,6.62-3.68S27.62,18.84,27.62,20.87Z"/><path class="cls-13" d="M21,1c3.66,0,6.62,8.9,6.62,19.87,0-2-3-3.68-6.62-3.68s-6.62,1.65-6.62,3.68C14.38,9.9,17.34,1,21,1Z"/><g class="cls-10"><path class="cls-5" d="M21,4A19.87,19.87,0,0,1,40.36,19.46a2.34,2.34,0,0,1,.51,1.41,19.87,19.87,0,1,0-39.74,0,2.34,2.34,0,0,1,.51-1.41A19.87,19.87,0,0,1,21,4Z"/></g><path class="cls-6" d="M40.87,21.87a1,1,0,0,1-1-1c0-1.27-2.4-2.68-5.62-2.68s-5.63,1.42-5.63,2.68a1,1,0,0,1-2,0c0-1.27-2.4-2.68-5.62-2.68s-5.62,1.42-5.62,2.68a1,1,0,0,1-2,0c0-1.27-2.41-2.68-5.63-2.68S2.13,19.6,2.13,20.87a1,1,0,1,1-2,0,20.87,20.87,0,1,1,41.74,0A1,1,0,0,1,40.87,21.87ZM21,16.19a9.16,9.16,0,0,1,6.62,2.33c1.3-1.4,3.76-2.33,6.63-2.33a10.56,10.56,0,0,1,5.32,1.3,18.87,18.87,0,0,0-37.13,0,10.56,10.56,0,0,1,5.32-1.3c2.87,0,5.33.93,6.63,2.33A9.16,9.16,0,0,1,21,16.19Z"/><path class="cls-6" d="M27.62,21.87a1,1,0,0,1-1-1c0-1.27-2.4-2.68-5.62-2.68s-5.62,1.42-5.62,2.68a1,1,0,0,1-2,0C13.38,10.75,16.05,0,21,0s7.62,10.75,7.62,20.87A1,1,0,0,1,27.62,21.87ZM21,16.19a10.38,10.38,0,0,1,5.53,1.43C26,8.49,23.38,2,21,2s-5,6.49-5.53,15.62A10.38,10.38,0,0,1,21,16.19Z"/><path class="cls-6" d="M111,126H19a1,1,0,1,1,0-2h92a1,1,0,0,1,0,2Z"/><path class="cls-6" d="M119,126h-5a1,1,0,0,1,0-2h5a1,1,0,0,1,0,2Z"/><path class="cls-6" d="M5,126a1,1,0,0,1-.71-.29,1.09,1.09,0,0,1-.22-.33,1.08,1.08,0,0,1,0-.76,1.21,1.21,0,0,1,.22-.33l.15-.12a.56.56,0,0,1,.17-.09A.73.73,0,0,1,4.8,124a1,1,0,0,1,.9.27,1.18,1.18,0,0,1,.22.33,1.06,1.06,0,0,1,0,.76.92.92,0,0,1-.22.33,1,1,0,0,1-.32.22A1,1,0,0,1,5,126Z"/><path class="cls-6" d="M16,126H8a1,1,0,0,1,0-2h8a1,1,0,1,1,0,2Z"/><rect class="cls-7" height="16" width="22" x="95" y="109"/><g class="cls-1"><rect class="cls-8" height="3" width="22" x="95" y="109"/></g><g class="cls-1"><rect class="cls-9" height="3" width="22" x="95" y="122"/></g><path class="cls-6" d="M117,126H95a1,1,0,0,1-1-1V109a1,1,0,0,1,1-1h22a1,1,0,0,1,1,1v16A1,1,0,0,1,117,126Zm-21-2h20V110H96Z"/><polygon class="cls-11" points="110 109 102 109 102 116 104 117 106 116 108 117 110 116 110 109"/><path class="cls-6" d="M104,118a1,1,0,0,1-.45-.11l-2-1A1,1,0,0,1,101,116v-7a1,1,0,0,1,1-1h8a1,1,0,0,1,1,1v7a1,1,0,0,1-.55.89l-2,1a1,1,0,0,1-.89,0l-1.55-.78-1.55.78A1,1,0,0,1,104,118Zm2-3a1,1,0,0,1,.45.11l1.55.78,1-.5V110h-6v5.38l1,.5,1.55-.78A1,1,0,0,1,106,115Z"/><rect class="cls-7" height="16" width="22" x="91" y="93"/><g class="cls-1"><rect class="cls-8" height="3" width="22" x="91" y="93"/></g><g class="cls-1"><rect class="cls-9" height="3" width="22" x="91" y="106"/></g><path class="cls-6" d="M113,110H91a1,1,0,0,1-1-1V93a1,1,0,0,1,1-1h22a1,1,0,0,1,1,1v16A1,1,0,0,1,113,110Zm-21-2h20V94H92Z"/><polygon class="cls-11" points="106 93 98 93 98 100 100 101 102 100 104 101 106 100 106 93"/><path class="cls-6" d="M100,102a1,1,0,0,1-.45-.11l-2-1A1,1,0,0,1,97,100V93a1,1,0,0,1,1-1h8a1,1,0,0,1,1,1v7a1,1,0,0,1-.55.89l-2,1a1,1,0,0,1-.89,0l-1.55-.78-1.55.78A1,1,0,0,1,100,102Zm2-3a1,1,0,0,1,.45.11l1.55.78,1-.5V94H99v5.38l1,.5,1.55-.78A1,1,0,0,1,102,99Z"/><rect class="cls-14" height="33" rx="2" ry="2" width="48" x="75" y="31"/><path class="cls-6" d="M121,65H77a3,3,0,0,1-3-3V33a3,3,0,0,1,3-3h44a3,3,0,0,1,3,3V62A3,3,0,0,1,121,65ZM77,32a1,1,0,0,0-1,1V62a1,1,0,0,0,1,1h44a1,1,0,0,0,1-1V33a1,1,0,0,0-1-1Z"/><rect class="cls-5" height="6" width="36" x="81" y="50"/><path class="cls-6" d="M117,57H81a1,1,0,0,1-1-1V50a1,1,0,0,1,1-1h36a1,1,0,0,1,1,1v6A1,1,0,0,1,117,57ZM82,55h34V51H82Z"/><rect class="cls-15" height="7" width="48" x="75" y="37"/><path class="cls-6" d="M123,45H75a1,1,0,0,1-1-1V37a1,1,0,0,1,1-1h48a1,1,0,0,1,1,1v7A1,1,0,0,1,123,45ZM76,43h46V38H76Z"/><g class="cls-1"><path class="cls-6" d="M76,42a1.05,1.05,0,0,1-.71-.29,1.68,1.68,0,0,1-.12-.15.74.74,0,0,1-.09-.18A.65.65,0,0,1,75,41.2a1.38,1.38,0,0,1,0-.2.83.83,0,0,1,.08-.38,1.15,1.15,0,0,1,.21-.33,1,1,0,0,1,.9-.27.61.61,0,0,1,.19.06.76.76,0,0,1,.18.09l.15.12a1.15,1.15,0,0,1,.21.33A.85.85,0,0,1,77,41a1,1,0,0,1-1,1Z"/><path class="cls-6" d="M78,40l-.2,0-.18-.06a.76.76,0,0,1-.18-.09,1.53,1.53,0,0,1-.15-.12,1,1,0,0,1,1.42-1.42l.12.15a.78.78,0,0,1,.09.18.62.62,0,0,1,.06.18,1.39,1.39,0,0,1,0,.2,1,1,0,0,1-1,1Z"/><path class="cls-6" d="M80,42l-.2,0-.18-.06a.76.76,0,0,1-.18-.09,1.53,1.53,0,0,1-.15-.12,1,1,0,0,1,0-1.42A1,1,0,1,1,80,42Z"/><path class="cls-6" d="M82,40a1,1,0,0,1-1-1,.83.83,0,0,1,.08-.38,1.15,1.15,0,0,1,.21-.33,1,1,0,0,1,.33-.21,1,1,0,0,1,1.09.21,1.15,1.15,0,0,1,.21.33A1,1,0,0,1,83,39a1,1,0,0,1-1,1Z"/><path class="cls-6" d="M84,42a1,1,0,0,1-.71-1.71,1,1,0,0,1,.9-.27.61.61,0,0,1,.19.06.56.56,0,0,1,.17.09l.16.12a1.15,1.15,0,0,1,.21.33A1,1,0,0,1,85,41a1.05,1.05,0,0,1-.29.71,1,1,0,0,1-.16.12.56.56,0,0,1-.17.09.62.62,0,0,1-.19.06Z"/><path class="cls-6" d="M86,40a1,1,0,0,1-1-1,.83.83,0,0,1,.08-.38,1.15,1.15,0,0,1,.21-.33,1,1,0,0,1,.33-.21.93.93,0,0,1,.57-.06.61.61,0,0,1,.19.06.56.56,0,0,1,.17.09l.16.12a1,1,0,0,1,.21.33.94.94,0,0,1,0,.76,1,1,0,0,1-.21.33l-.16.12a.56.56,0,0,1-.17.09.62.62,0,0,1-.19.06Z"/><path class="cls-6" d="M88,42a1,1,0,0,1-.38-.08,1,1,0,0,1-.33-.21,1.49,1.49,0,0,1-.22-.33A1,1,0,0,1,87,41a1,1,0,0,1,.29-.71,1,1,0,0,1,.33-.21,1,1,0,0,1,.76,0,1,1,0,0,1,.33.21A1.05,1.05,0,0,1,89,41a1,1,0,0,1-.08.38,1.15,1.15,0,0,1-.21.33,1.17,1.17,0,0,1-.33.21A1,1,0,0,1,88,42Z"/><path class="cls-6" d="M90,40a1,1,0,0,1-.92-.62.94.94,0,0,1,0-.76,1,1,0,0,1,1.3-.54,1,1,0,0,1,.33.21,1.15,1.15,0,0,1,.21.33A1,1,0,0,1,91,39a1,1,0,0,1-.62.92A1,1,0,0,1,90,40Z"/><path class="cls-6" d="M92,42l-.2,0-.18-.06a.76.76,0,0,1-.18-.09,1.53,1.53,0,0,1-.15-.12A1,1,0,0,1,91,41a.83.83,0,0,1,.08-.38,1.15,1.15,0,0,1,.21-.33l.15-.12a.76.76,0,0,1,.18-.09A.63.63,0,0,1,91.8,40a.85.85,0,0,1,.39,0,.61.61,0,0,1,.19.06.56.56,0,0,1,.17.09l.16.12a1.15,1.15,0,0,1,.21.33A1,1,0,0,1,93,41a1.05,1.05,0,0,1-.29.71,1,1,0,0,1-.16.12.56.56,0,0,1-.17.09.62.62,0,0,1-.19.06Z"/><path class="cls-6" d="M94,40l-.2,0-.18-.06a.76.76,0,0,1-.18-.09l-.15-.12A1,1,0,0,1,93,39a.83.83,0,0,1,.08-.38,1.15,1.15,0,0,1,.21-.33l.15-.12a.76.76,0,0,1,.18-.09A.63.63,0,0,1,93.8,38a1,1,0,0,1,.58.06.9.9,0,0,1,.54.54A1,1,0,0,1,95,39a1.05,1.05,0,0,1-.29.71,1.17,1.17,0,0,1-.33.21A.84.84,0,0,1,94,40Z"/><path class="cls-6" d="M96,42a1,1,0,0,1-.38-.08,1,1,0,0,1-.33-.21A1,1,0,0,1,95,41a1.54,1.54,0,0,1,0-.2.65.65,0,0,1,.06-.18.74.74,0,0,1,.09-.18,1.55,1.55,0,0,1,.12-.15,1.15,1.15,0,0,1,.33-.21.92.92,0,0,1,.76,0,1.16,1.16,0,0,1,.33.21l.12.15a.78.78,0,0,1,.09.18.62.62,0,0,1,.06.18,1.39,1.39,0,0,1,0,.2,1.05,1.05,0,0,1-.29.71,1.17,1.17,0,0,1-.33.21A1,1,0,0,1,96,42Z"/><path class="cls-6" d="M98,40a1,1,0,0,1-.38-.08.9.9,0,0,1-.54-.54.94.94,0,0,1,0-.76,1.15,1.15,0,0,1,.21-.33,1,1,0,0,1,.9-.27.61.61,0,0,1,.19.06.56.56,0,0,1,.17.09l.16.12a1.15,1.15,0,0,1,.21.33A1,1,0,0,1,99,39a1.05,1.05,0,0,1-.29.71,1,1,0,0,1-.16.12.56.56,0,0,1-.17.09.62.62,0,0,1-.19.06Z"/><path class="cls-6" d="M100,42a1,1,0,0,1-.38-.08,1,1,0,0,1-.33-.21,1.15,1.15,0,0,1-.21-.33.94.94,0,0,1,0-.76,1.15,1.15,0,0,1,.21-.33,1,1,0,0,1,.33-.21.93.93,0,0,1,.57-.06.61.61,0,0,1,.19.06.76.76,0,0,1,.18.09l.15.12A1.05,1.05,0,0,1,101,41a.84.84,0,0,1-.08.38,1.15,1.15,0,0,1-.21.33l-.15.12a.76.76,0,0,1-.18.09.62.62,0,0,1-.19.06Z"/><path class="cls-6" d="M102,40l-.2,0-.18-.06a.76.76,0,0,1-.18-.09l-.15-.12A1,1,0,0,1,101,39a1.25,1.25,0,0,1,0-.19.62.62,0,0,1,.06-.19.74.74,0,0,1,.09-.18,1.55,1.55,0,0,1,.12-.15l.15-.12a.76.76,0,0,1,.18-.09.63.63,0,0,1,.18-.06.85.85,0,0,1,.39,0,.61.61,0,0,1,.19.06.56.56,0,0,1,.17.09l.16.12.12.15a.78.78,0,0,1,.09.18.59.59,0,0,1,.06.19,1.14,1.14,0,0,1,0,.19,1.05,1.05,0,0,1-.29.71l-.16.12a.56.56,0,0,1-.17.09.62.62,0,0,1-.19.06Z"/><path class="cls-6" d="M104,42l-.2,0-.18-.06a.76.76,0,0,1-.18-.09l-.15-.12a1,1,0,0,1-.21-.33A.83.83,0,0,1,103,41a1,1,0,0,1,.29-.71,1,1,0,0,1,.9-.27.61.61,0,0,1,.19.06.76.76,0,0,1,.18.09l.15.12a1.15,1.15,0,0,1,.21.33.94.94,0,0,1,0,.76.94.94,0,0,1-.21.33l-.15.12a.76.76,0,0,1-.18.09.62.62,0,0,1-.19.06Z"/><path class="cls-6" d="M106,40l-.2,0-.18-.06a.76.76,0,0,1-.18-.09l-.15-.12a1.68,1.68,0,0,1-.12-.15.74.74,0,0,1-.09-.18.65.65,0,0,1-.06-.18,1.38,1.38,0,0,1,0-.2,1,1,0,0,1,.08-.38,1,1,0,0,1,.21-.33l.15-.12a.76.76,0,0,1,.18-.09.63.63,0,0,1,.18-.06.85.85,0,0,1,.39,0,.61.61,0,0,1,.19.06.56.56,0,0,1,.17.09l.16.12a1,1,0,0,1,.21.33A1,1,0,0,1,107,39a1.26,1.26,0,0,1,0,.2.62.62,0,0,1-.06.18.78.78,0,0,1-.09.18l-.12.15-.16.12a.56.56,0,0,1-.17.09.62.62,0,0,1-.19.06Z"/><path class="cls-6" d="M108,42a1,1,0,0,1-.71-.29,1.15,1.15,0,0,1-.21-.33A1,1,0,0,1,107,41a1,1,0,0,1,.29-.71l.15-.12a.76.76,0,0,1,.18-.09.63.63,0,0,1,.18-.06.85.85,0,0,1,.39,0,.61.61,0,0,1,.19.06.56.56,0,0,1,.17.09l.16.12a1,1,0,0,1,0,1.42,1,1,0,0,1-.16.12.56.56,0,0,1-.17.09.62.62,0,0,1-.19.06Z"/><path class="cls-6" d="M110,40a1,1,0,0,1-.38-.08,1.16,1.16,0,0,1-.33-.21A1,1,0,0,1,109,39a1,1,0,0,1,.08-.38,1,1,0,0,1,1.11-.6.61.61,0,0,1,.19.06.56.56,0,0,1,.17.09l.16.12a1,1,0,0,1,.21.33A1,1,0,0,1,111,39a1,1,0,0,1-.29.71l-.16.12a.56.56,0,0,1-.17.09.62.62,0,0,1-.19.06Z"/><path class="cls-6" d="M112,42a1,1,0,0,1-.71-.29A1,1,0,0,1,111,41a.83.83,0,0,1,.08-.38,1.15,1.15,0,0,1,.21-.33,1,1,0,0,1,1.09-.21,1,1,0,0,1,.33.21,1,1,0,0,1-.33,1.63A1,1,0,0,1,112,42Z"/><path class="cls-6" d="M114,40l-.2,0-.18-.06a.76.76,0,0,1-.18-.09,1.53,1.53,0,0,1-.15-.12,1,1,0,0,1,0-1.42,1,1,0,0,1,1.41,0A1,1,0,0,1,114,40Z"/><path class="cls-6" d="M116,42a1,1,0,0,1-.38-.08.76.76,0,0,1-.18-.09l-.15-.12a1,1,0,0,1,0-1.42l.15-.12a.76.76,0,0,1,.18-.09,1,1,0,0,1,.76,0,1,1,0,0,1,.33.21,1,1,0,0,1,0,1.42,1.17,1.17,0,0,1-.33.21A.84.84,0,0,1,116,42Z"/><path class="cls-6" d="M118,40l-.2,0-.18-.06a.76.76,0,0,1-.18-.09l-.15-.12A1,1,0,0,1,117,39a1,1,0,0,1,.29-.71l.15-.12a.76.76,0,0,1,.18-.09.63.63,0,0,1,.18-.06,1,1,0,0,1,.58.06,1,1,0,0,1,.32.21,1,1,0,0,1,0,1.42,1,1,0,0,1-.7.29Z"/><path class="cls-6" d="M120,42a1,1,0,0,1-.38-.08,1,1,0,0,1-.33-.21,1,1,0,0,1,0-1.42,1,1,0,0,1,.33-.21,1,1,0,0,1,.76,0,1,1,0,0,1,.33.21,1.55,1.55,0,0,1,.12.15.78.78,0,0,1,.09.18.62.62,0,0,1,.06.18,1.26,1.26,0,0,1,0,.2,1,1,0,0,1-.62.92A1,1,0,0,1,120,42Z"/><path class="cls-6" d="M122,40a1.05,1.05,0,0,1-.71-.29,1,1,0,0,1,0-1.42A1,1,0,1,1,122,40Z"/><path class="cls-6" d="M78,44l-.2,0-.18-.06a.76.76,0,0,1-.18-.09,1.53,1.53,0,0,1-.15-.12A1,1,0,0,1,77,43a1,1,0,0,1,.29-.71,1.53,1.53,0,0,1,.15-.12.76.76,0,0,1,.18-.09A.63.63,0,0,1,77.8,42a.85.85,0,0,1,.39,0,.61.61,0,0,1,.19.06.56.56,0,0,1,.17.09,1,1,0,0,1,.16.12A1.05,1.05,0,0,1,79,43a1.26,1.26,0,0,1,0,.2.62.62,0,0,1-.06.18.78.78,0,0,1-.09.18l-.12.15a1,1,0,0,1-.16.12.56.56,0,0,1-.17.09.62.62,0,0,1-.19.06Z"/><path class="cls-6" d="M82,44a1,1,0,0,1-1-1,.83.83,0,0,1,.08-.38,1,1,0,0,1,1.84,0A1,1,0,0,1,83,43a1,1,0,0,1-1,1Z"/><path class="cls-6" d="M86,44a1,1,0,0,1-.71-1.71,1,1,0,0,1,.33-.21.93.93,0,0,1,.57-.06.61.61,0,0,1,.19.06.56.56,0,0,1,.17.09,1,1,0,0,1,.16.12A1.05,1.05,0,0,1,87,43a1,1,0,0,1-.08.38,1.15,1.15,0,0,1-.21.33l-.16.12a.56.56,0,0,1-.17.09.62.62,0,0,1-.19.06Z"/><path class="cls-6" d="M90,44a1.05,1.05,0,0,1-.71-.29,1.15,1.15,0,0,1-.21-.33A1,1,0,0,1,89,43a1,1,0,0,1,.29-.71l.15-.12a.76.76,0,0,1,.18-.09A.63.63,0,0,1,89.8,42a1,1,0,0,1,.91.27l.12.15a.78.78,0,0,1,.09.18.62.62,0,0,1,.06.18,1.39,1.39,0,0,1,0,.2,1,1,0,0,1-1,1Z"/><path class="cls-6" d="M94,44l-.2,0-.18-.06a.76.76,0,0,1-.18-.09,1.53,1.53,0,0,1-.15-.12A1,1,0,0,1,93,43a.83.83,0,0,1,.08-.38,1,1,0,0,1,.21-.33,1.53,1.53,0,0,1,.15-.12.76.76,0,0,1,.18-.09A.63.63,0,0,1,93.8,42a1,1,0,0,1,.58.06,1.16,1.16,0,0,1,.33.21,1,1,0,0,1,.21.33A1,1,0,0,1,95,43a1.05,1.05,0,0,1-.29.71,1.17,1.17,0,0,1-.33.21A1,1,0,0,1,94,44Z"/><path class="cls-6" d="M98,44a1.05,1.05,0,0,1-.71-.29.94.94,0,0,1-.21-.33A1,1,0,0,1,97,43a1,1,0,0,1,.29-.71,1,1,0,0,1,.9-.27.61.61,0,0,1,.19.06.56.56,0,0,1,.17.09l.16.12.12.16a.57.57,0,0,1,.09.17.59.59,0,0,1,.06.19A1.14,1.14,0,0,1,99,43a1.05,1.05,0,0,1-.29.71l-.16.12a.56.56,0,0,1-.17.09.62.62,0,0,1-.19.06Z"/><path class="cls-6" d="M102,44l-.2,0-.18-.06a.76.76,0,0,1-.18-.09l-.15-.12a1.68,1.68,0,0,1-.12-.15.74.74,0,0,1-.09-.18.65.65,0,0,1-.06-.18,1.38,1.38,0,0,1,0-.2,1,1,0,0,1,.29-.71l.15-.12a.76.76,0,0,1,.18-.09.63.63,0,0,1,.18-.06.85.85,0,0,1,.39,0,.61.61,0,0,1,.19.06.56.56,0,0,1,.17.09l.16.12A1.05,1.05,0,0,1,103,43a1.26,1.26,0,0,1,0,.2.62.62,0,0,1-.06.18.78.78,0,0,1-.09.18l-.12.15-.16.12a.56.56,0,0,1-.17.09.62.62,0,0,1-.19.06Z"/><path class="cls-6" d="M106,44l-.2,0-.18-.06a.76.76,0,0,1-.18-.09l-.15-.12a1.68,1.68,0,0,1-.12-.15.74.74,0,0,1-.09-.18.65.65,0,0,1-.06-.18,1.38,1.38,0,0,1,0-.2,1.25,1.25,0,0,1,0-.19.62.62,0,0,1,.06-.19.74.74,0,0,1,.09-.18,1.55,1.55,0,0,1,.12-.15,1,1,0,0,1,.9-.27.61.61,0,0,1,.19.06.56.56,0,0,1,.17.09l.16.12.12.15a.78.78,0,0,1,.09.18.59.59,0,0,1,.06.19,1.14,1.14,0,0,1,0,.19,1.26,1.26,0,0,1,0,.2.62.62,0,0,1-.06.18.78.78,0,0,1-.09.18l-.12.15-.16.12a.56.56,0,0,1-.17.09.62.62,0,0,1-.19.06Z"/><path class="cls-6" d="M110,44a1.05,1.05,0,0,1-.71-.29,1,1,0,0,1-.21-.33.94.94,0,0,1,0-.76.93.93,0,0,1,.21-.33,1,1,0,0,1,.9-.27.61.61,0,0,1,.19.06.56.56,0,0,1,.17.09,1,1,0,0,1,.16.12.93.93,0,0,1,.21.33.94.94,0,0,1,0,.76,1,1,0,0,1-.21.33l-.16.12a.56.56,0,0,1-.17.09.62.62,0,0,1-.19.06Z"/><path class="cls-6" d="M114,44a1,1,0,0,1-.71-.29,1,1,0,0,1,0-1.42,1,1,0,0,1,1.41,0A1,1,0,0,1,114,44Z"/><path class="cls-6" d="M118,44l-.2,0-.18-.06a.76.76,0,0,1-.18-.09l-.15-.12A1,1,0,0,1,117,43a1,1,0,0,1,.08-.38,1.15,1.15,0,0,1,.21-.33l.15-.12a.76.76,0,0,1,.18-.09.63.63,0,0,1,.18-.06,1,1,0,1,1,.2,2Z"/><path class="cls-6" d="M122,44a1.05,1.05,0,0,1-.71-.29,1.15,1.15,0,0,1-.21-.33A.83.83,0,0,1,121,43a1,1,0,1,1,2,0,1,1,0,0,1-.08.38,1.15,1.15,0,0,1-.21.33A1.05,1.05,0,0,1,122,44Z"/></g><path class="cls-16" d="M58.79,11.89l-19,19a2.79,2.79,0,0,0,0,3.95L51.23,46.22a2.79,2.79,0,0,0,3.95,0l19-19V11.89Zm8.38,9.78A2.79,2.79,0,1,1,70,18.87,2.79,2.79,0,0,1,67.17,21.66Z"/><path class="cls-5" d="M58.79,11.89l-19,19a2.79,2.79,0,0,0-.38,3.47,2.8,2.8,0,0,1,.38-.47l20-20H74.15v-2Z"/><g class="cls-10"><path class="cls-17" d="M51.23,43.22,39.82,31.81a2.77,2.77,0,0,1-.63-1,2.79,2.79,0,0,0,.63,3L51.23,45.22a2.79,2.79,0,0,0,3.95,0l19-19v-2l-19,19A2.79,2.79,0,0,1,51.23,43.22Z"/></g><path class="cls-6" d="M53.2,48a3.78,3.78,0,0,1-2.68-1.11L39.11,35.52a3.79,3.79,0,0,1,0-5.36l19-19a1,1,0,0,1,.71-.29H74.15a1,1,0,0,1,1,1V27.25a1,1,0,0,1-.29.71l-19,19A3.78,3.78,0,0,1,53.2,48Zm6-35.15L40.52,31.57a1.79,1.79,0,0,0,0,2.54L51.94,45.51a1.8,1.8,0,0,0,2.54,0L73.15,26.83V12.89Zm8,9.77A3.79,3.79,0,1,1,71,18.87,3.8,3.8,0,0,1,67.17,22.66Zm0-5.59A1.79,1.79,0,1,0,69,18.87,1.8,1.8,0,0,0,67.17,17.08Z"/><path class="cls-6" d="M74.15,19.87a1,1,0,0,1,0-2,2.21,2.21,0,0,0,1.3-.42,1,1,0,0,1,1.14,1.64A4.2,4.2,0,0,1,74.15,19.87Zm-7,0h0a1,1,0,0,1-1-1c0-.71,0-1.41.09-2.09a1,1,0,0,1,2,.18c-.06.61-.08,1.25-.09,1.91A1,1,0,0,1,67.17,19.83Zm10.68-2.89A1,1,0,0,1,77,15.5a12.11,12.11,0,0,0,.67-1.72,1,1,0,1,1,1.91.59,14.11,14.11,0,0,1-.78,2A1,1,0,0,1,77.85,16.94ZM67.77,14.88a1,1,0,0,1-1-1.25,15.34,15.34,0,0,1,.68-2,1,1,0,1,1,1.85.77,13.4,13.4,0,0,0-.59,1.76A1,1,0,0,1,67.77,14.88Zm11.17-2.75a1,1,0,0,1-1-.84,3.74,3.74,0,0,0-.57-1.46,1,1,0,1,1,1.68-1.09A5.71,5.71,0,0,1,79.93,11a1,1,0,0,1-.83,1.14Zm-9.07-1.75a1,1,0,0,1-.8-1.6,12,12,0,0,1,.81-1,6.19,6.19,0,0,1,.74-.68,1,1,0,0,1,1.22,1.58,4.09,4.09,0,0,0-.5.46,9.54,9.54,0,0,0-.67.81A1,1,0,0,1,69.87,10.38Zm6.09-2a1,1,0,0,1-.4-.08A3.93,3.93,0,0,0,74,8a1,1,0,0,1,0-2,5.86,5.86,0,0,1,2.34.49A1,1,0,0,1,76,8.37Z"/><path class="cls-6" d="M56.27,33.38a3.6,3.6,0,0,1-2.57-6.11,1,1,0,0,1,1.41,1.41,1.59,1.59,0,0,0,2.25,2.25c.86-.86-.05-2.56-.06-2.57-.63-1.12-1.27-3.42.27-5a3.59,3.59,0,0,1,5.08,5.08,1,1,0,1,1-1.41-1.41A1.59,1.59,0,0,0,59,24.8c-.86.86.05,2.56.06,2.58.63,1.12,1.27,3.42-.27,5A3.53,3.53,0,0,1,56.27,33.38Z"/><path class="cls-6" d="M61.92,25.12a1,1,0,0,1-.71-1.71l1.06-1.06a1,1,0,0,1,1.41,1.41l-1.06,1.06A1,1,0,0,1,61.92,25.12Z"/><path class="cls-6" d="M53.2,33.83a1,1,0,0,1-.71-1.71l1.22-1.22a1,1,0,0,1,1.41,1.42l-1.22,1.22A1,1,0,0,1,53.2,33.83Z"/><path class="cls-6" d="M52.51,38a1,1,0,0,1-.71-.29l-3.49-3.49a1,1,0,0,1,1.41-1.41l3.49,3.49A1,1,0,0,1,52.51,38Z"/><path class="cls-6" d="M52.51,42.21a1,1,0,0,1-.71-.29l-7.68-7.68a1,1,0,0,1,1.41-1.41l7.68,7.68a1,1,0,0,1-.71,1.71Z"/></g><rect class="cls-7" height="6" width="76" x="26" y="119"/><path class="cls-6" d="M102,126H26a1,1,0,0,1-1-1v-6a1,1,0,0,1,1-1h76a1,1,0,0,1,1,1v6A1,1,0,0,1,102,126Zm-75-2h74v-4H27Z"/><rect class="cls-5" height="68" width="84" x="22" y="57"/><polygon class="cls-3" points="102 61 102 125 26 125 26 61 26 61 102 61 102 61"/><g class="cls-1"><path class="cls-18" d="M106,68.72l-3.14-5.24A1,1,0,0,0,102,63H26a1,1,0,0,0-.86.49L22,68.72V80.58A4.95,4.95,0,0,0,28,79a5,5,0,0,0,8,0,5,5,0,0,0,8,0,5,5,0,0,0,8,0,5,5,0,0,0,8,0,5,5,0,0,0,8,0,5,5,0,0,0,8,0,5,5,0,0,0,8,0,5,5,0,0,0,8,0,5,5,0,0,0,8,0,4.95,4.95,0,0,0,6,1.61Z"/></g><path class="cls-6" d="M102,126H26a1,1,0,0,1-1-1V61a1,1,0,0,1,1-1h76a1,1,0,0,1,1,1v64A1,1,0,0,1,102,126Zm-75-2h74V62H27Z"/><path class="cls-6" d="M106,126H22a1,1,0,0,1-1-1V57a1,1,0,0,1,1-1h84a1,1,0,0,1,1,1v68A1,1,0,0,1,106,126Zm-83-2h82V58H23Z"/><rect class="cls-3" height="4" width="86" x="21" y="53"/><path class="cls-6" d="M107,58H21a1,1,0,0,1-1-1V53a1,1,0,0,1,1-1h86a1,1,0,0,1,1,1v4A1,1,0,0,1,107,58ZM22,56h84V54H22Z"/><rect class="cls-5" height="18" width="34" x="47" y="39"/><path class="cls-6" d="M81,58H47a1,1,0,0,1-1-1V39a1,1,0,0,1,1-1H81a1,1,0,0,1,1,1V57A1,1,0,0,1,81,58ZM48,56H80V40H48Z"/><path class="cls-19" d="M24,77h0a4,4,0,0,1-4-4V71h8v2A4,4,0,0,1,24,77Z"/><path class="cls-6" d="M24,78a5,5,0,0,1-5-5V71a1,1,0,0,1,1-1h8a1,1,0,0,1,1,1v2A5,5,0,0,1,24,78Zm-3-6v1a3,3,0,0,0,6,0V72Z"/><path class="cls-5" d="M32,77h0a4,4,0,0,1-4-4V71h8v2A4,4,0,0,1,32,77Z"/><path class="cls-6" d="M32,78a5,5,0,0,1-5-5V71a1,1,0,0,1,1-1h8a1,1,0,0,1,1,1v2A5,5,0,0,1,32,78Zm-3-6v1a3,3,0,0,0,6,0V72Z"/><path class="cls-19" d="M40,77h0a4,4,0,0,1-4-4V71h8v2A4,4,0,0,1,40,77Z"/><path class="cls-6" d="M40,78a5,5,0,0,1-5-5V71a1,1,0,0,1,1-1h8a1,1,0,0,1,1,1v2A5,5,0,0,1,40,78Zm-3-6v1a3,3,0,0,0,6,0V72Z"/><path class="cls-5" d="M48,77h0a4,4,0,0,1-4-4V71h8v2A4,4,0,0,1,48,77Z"/><path class="cls-6" d="M48,78a5,5,0,0,1-5-5V71a1,1,0,0,1,1-1h8a1,1,0,0,1,1,1v2A5,5,0,0,1,48,78Zm-3-6v1a3,3,0,0,0,6,0V72Z"/><path class="cls-19" d="M56,77h0a4,4,0,0,1-4-4V71h8v2A4,4,0,0,1,56,77Z"/><path class="cls-6" d="M56,78a5,5,0,0,1-5-5V71a1,1,0,0,1,1-1h8a1,1,0,0,1,1,1v2A5,5,0,0,1,56,78Zm-3-6v1a3,3,0,0,0,6,0V72Z"/><path class="cls-19" d="M72,77h0a4,4,0,0,1-4-4V71h8v2A4,4,0,0,1,72,77Z"/><path class="cls-6" d="M72,78a5,5,0,0,1-5-5V71a1,1,0,0,1,1-1h8a1,1,0,0,1,1,1v2A5,5,0,0,1,72,78Zm-3-6v1a3,3,0,0,0,6,0V72Z"/><path class="cls-5" d="M80,77h0a4,4,0,0,1-4-4V71h8v2A4,4,0,0,1,80,77Z"/><path class="cls-6" d="M80,78a5,5,0,0,1-5-5V71a1,1,0,0,1,1-1h8a1,1,0,0,1,1,1v2A5,5,0,0,1,80,78Zm-3-6v1a3,3,0,0,0,6,0V72Z"/><path class="cls-19" d="M88,77h0a4,4,0,0,1-4-4V71h8v2A4,4,0,0,1,88,77Z"/><path class="cls-6" d="M88,78a5,5,0,0,1-5-5V71a1,1,0,0,1,1-1h8a1,1,0,0,1,1,1v2A5,5,0,0,1,88,78Zm-3-6v1a3,3,0,0,0,6,0V72Z"/><path class="cls-5" d="M96,77h0a4,4,0,0,1-4-4V71h8v2A4,4,0,0,1,96,77Z"/><path class="cls-6" d="M96,78a5,5,0,0,1-5-5V71a1,1,0,0,1,1-1h8a1,1,0,0,1,1,1v2A5,5,0,0,1,96,78Zm-3-6v1a3,3,0,0,0,6,0V72Z"/><path class="cls-19" d="M104,77h0a4,4,0,0,1-4-4V71h8v2A4,4,0,0,1,104,77Z"/><path class="cls-6" d="M104,78a5,5,0,0,1-5-5V71a1,1,0,0,1,1-1h8a1,1,0,0,1,1,1v2A5,5,0,0,1,104,78Zm-3-6v1a3,3,0,0,0,6,0V72Z"/><polygon class="cls-19" points="28 71 20 71 26 61 32 61 28 71"/><path class="cls-6" d="M28,72H20a1,1,0,0,1-.86-1.51l6-10A1,1,0,0,1,26,60h6a1,1,0,0,1,.93,1.37l-4,10A1,1,0,0,1,28,72Zm-6.23-2h5.56l3.2-8h-4Z"/><polygon class="cls-5" points="36 71 28 71 32 61 39 61 36 71"/><path class="cls-6" d="M36,72H28a1,1,0,0,1-.93-1.37l4-10A1,1,0,0,1,32,60h7a1,1,0,0,1,1,1.29l-3,10A1,1,0,0,1,36,72Zm-6.52-2h5.78l2.4-8h-5Z"/><polygon class="cls-19" points="44 71 36 71 39 61 46 61 44 71"/><path class="cls-6" d="M44,72H36a1,1,0,0,1-1-1.29l3-10A1,1,0,0,1,39,60h7a1,1,0,0,1,1,1.2l-2,10A1,1,0,0,1,44,72Zm-6.66-2h5.84l1.6-8h-5Z"/><polygon class="cls-5" points="52 71 44 71 46 61 53 61 52 71"/><path class="cls-6" d="M52,72H44a1,1,0,0,1-1-1.2l2-10a1,1,0,0,1,1-.8h7a1,1,0,0,1,1,1.1l-1,10A1,1,0,0,1,52,72Zm-6.78-2h5.88l.8-8H46.82Z"/><polygon class="cls-19" points="60 71 52 71 53 61 60 61 60 71"/><path class="cls-6" d="M60,72H52a1,1,0,0,1-1-1.1l1-10a1,1,0,0,1,1-.9h7a1,1,0,0,1,1,1V71A1,1,0,0,1,60,72Zm-6.89-2H59V62H53.91Z"/><path class="cls-5" d="M64,77h0a4,4,0,0,1-4-4V71h8v2A4,4,0,0,1,64,77Z"/><path class="cls-6" d="M64,78a5,5,0,0,1-5-5V71a1,1,0,0,1,1-1h8a1,1,0,0,1,1,1v2A5,5,0,0,1,64,78Zm-3-6v1a3,3,0,0,0,6,0V72Z"/><rect class="cls-5" height="10" width="8" x="60" y="61"/><path class="cls-6" d="M68,72H60a1,1,0,0,1-1-1V61a1,1,0,0,1,1-1h8a1,1,0,0,1,1,1V71A1,1,0,0,1,68,72Zm-7-2h6V62H61Z"/><polygon class="cls-19" points="76 71 68 71 68 61 75 61 76 71"/><path class="cls-6" d="M76,72H68a1,1,0,0,1-1-1V61a1,1,0,0,1,1-1h7a1,1,0,0,1,1,.9l1,10A1,1,0,0,1,76,72Zm-7-2h5.89l-.8-8H69Z"/><polygon class="cls-5" points="84 71 76 71 75 61 82 61 84 71"/><path class="cls-6" d="M84,72H76a1,1,0,0,1-1-.9l-1-10A1,1,0,0,1,75,60h7a1,1,0,0,1,1,.8l2,10A1,1,0,0,1,84,72Zm-7.09-2h5.88l-1.6-8H76.11Z"/><polygon class="cls-19" points="92 71 84 71 82 61 89 61 92 71"/><path class="cls-6" d="M92,72H84a1,1,0,0,1-1-.8l-2-10A1,1,0,0,1,82,60h7a1,1,0,0,1,1,.71l3,10A1,1,0,0,1,92,72Zm-7.18-2h5.84l-2.4-8h-5Z"/><polygon class="cls-5" points="100 71 92 71 89 61 96 61 100 71"/><path class="cls-6" d="M100,72H92a1,1,0,0,1-1-.71l-3-10A1,1,0,0,1,89,60h7a1,1,0,0,1,.93.63l4,10A1,1,0,0,1,100,72Zm-7.26-2h5.78l-3.2-8h-5Z"/><polygon class="cls-19" points="108 71 100 71 96 61 102 61 108 71"/><path class="cls-6" d="M108,72h-8a1,1,0,0,1-.93-.63l-4-10A1,1,0,0,1,96,60h6a1,1,0,0,1,.86.49l6,10A1,1,0,0,1,108,72Zm-7.32-2h5.56l-4.8-8h-4Z"/><rect class="cls-20" height="30" width="35" x="32" y="85"/><polygon class="cls-21" points="32 108.09 67 91.47 67 85 32 85 32 108.09"/><polygon class="cls-21" points="32 111.71 67 95.09 67 93.09 32 109.71 32 111.71"/><g class="cls-1"><rect class="cls-22" height="3" width="35" x="32" y="85"/></g><path class="cls-6" d="M67,116H32a1,1,0,0,1-1-1V85a1,1,0,0,1,1-1H67a1,1,0,0,1,1,1v30A1,1,0,0,1,67,116Zm-34-2H66V86H33Z"/><rect class="cls-5" height="3" width="37" x="31" y="115"/><path class="cls-6" d="M68,119H31a1,1,0,0,1-1-1v-3a1,1,0,0,1,1-1H68a1,1,0,0,1,1,1v3A1,1,0,0,1,68,119Zm-36-2H67v-1H32Z"/><rect class="cls-5" height="34" width="23" x="73" y="85"/><path class="cls-6" d="M96,120H73a1,1,0,0,1-1-1V85a1,1,0,0,1,1-1H96a1,1,0,0,1,1,1v34A1,1,0,0,1,96,120Zm-22-2H95V86H74Z"/><rect class="cls-20" height="12" width="17" x="76" y="88"/><polygon class="cls-21" points="76 88 76 94.82 90.36 88 76 88"/><g class="cls-1"><rect class="cls-22" height="3" width="17" x="76" y="88"/></g><rect class="cls-20" height="12" width="17" x="76" y="104"/><polygon class="cls-21" points="76 111.44 91.66 104 87.45 104 76 109.44 76 111.44"/><g class="cls-1"><rect class="cls-22" height="3" width="17" x="76" y="104"/></g><path class="cls-6" d="M93,101H76a1,1,0,0,1-1-1V88a1,1,0,0,1,1-1H93a1,1,0,0,1,1,1v12A1,1,0,0,1,93,101ZM77,99H92V89H77Z"/><path class="cls-6" d="M93,117H76a1,1,0,0,1-1-1V104a1,1,0,0,1,1-1H93a1,1,0,0,1,1,1v12A1,1,0,0,1,93,117Zm-16-2H92V105H77Z"/><rect class="cls-23" height="3" width="23" x="73" y="119"/><path class="cls-6" d="M96,123H73a1,1,0,0,1-1-1v-3a1,1,0,0,1,1-1H96a1,1,0,0,1,1,1v3A1,1,0,0,1,96,123Zm-22-2H95v-1H74Z"/><rect class="cls-23" height="3" width="23" x="73" y="122"/><path class="cls-6" d="M96,126H73a1,1,0,0,1-1-1v-3a1,1,0,0,1,1-1H96a1,1,0,0,1,1,1v3A1,1,0,0,1,96,126Zm-22-2H95v-1H74Z"/><path class="cls-12" d="M34.5,119a4.48,4.48,0,0,0-1.67.33A4.48,4.48,0,0,0,26,116.78a7.47,7.47,0,0,0-13.37.78,5.88,5.88,0,0,0-.6-.06,6,6,0,0,0-6,6V125H39v-1.5A4.5,4.5,0,0,0,34.5,119Z"/><g class="cls-10"><path class="cls-5" d="M34.5,119a4.48,4.48,0,0,0-1.67.33A4.48,4.48,0,0,0,26,116.78a7.47,7.47,0,0,0-13.37.78,5.87,5.87,0,0,0-.6-.06,6,6,0,0,0-6,6V125h.2a6,6,0,0,1,5.8-4.5,5.87,5.87,0,0,1,.6.06A7.47,7.47,0,0,1,26,119.78a4.48,4.48,0,0,1,6.85,2.55,4.46,4.46,0,0,1,5.9,2.67H39v-1.5A4.5,4.5,0,0,0,34.5,119Z"/></g><path class="cls-6" d="M39,126H6a1,1,0,0,1-1-1v-1.5a7,7,0,0,1,7-7h0a8.46,8.46,0,0,1,14.3-1,5.48,5.48,0,0,1,7.13,2.65A5.37,5.37,0,0,1,34.5,118a5.51,5.51,0,0,1,5.5,5.5V125A1,1,0,0,1,39,126ZM7,124H38v-.5a3.49,3.49,0,0,0-4.8-3.24,1,1,0,0,1-1.34-.67,3.48,3.48,0,0,0-5.33-2,1,1,0,0,1-1.43-.33A6.43,6.43,0,0,0,19.5,114a6.49,6.49,0,0,0-6,4,1,1,0,0,1-1,.6l-.23,0-.27,0a5,5,0,0,0-5,5Z"/><path class="cls-6" d="M21.17,120.13a1,1,0,0,1-.59-.2,1.73,1.73,0,0,0-2.23-.19A1,1,0,1,1,17.28,118a3.73,3.73,0,0,1,4.49.28,1,1,0,0,1-.6,1.8Z"/><path class="cls-12" d="M96,121a3,3,0,0,1,1.12.22,3,3,0,0,1,4.57-1.7,5,5,0,0,1,8.92.52,3.92,3.92,0,0,1,.4,0,4,4,0,0,1,4,4v1H93v-1A3,3,0,0,1,96,121Z"/><path class="cls-6" d="M115,126H93a1,1,0,0,1-1-1v-1a4,4,0,0,1,4-4,3.82,3.82,0,0,1,.53,0,4,4,0,0,1,4.83-1.8,6,6,0,0,1,9.84.77,5,5,0,0,1,4.8,5v1A1,1,0,0,1,115,126Zm-21-2h20a3,3,0,0,0-3-3h-.13l-.18,0a1,1,0,0,1-1-.6A4,4,0,0,0,106,118a4,4,0,0,0-3.45,2,1,1,0,0,1-.64.47,1,1,0,0,1-.79-.15,2,2,0,0,0-3,1.14,1,1,0,0,1-1.34.67A2,2,0,0,0,94,124Z"/><path class="cls-6" d="M104.88,122.12a1,1,0,0,1-.6-1.8,2.79,2.79,0,0,1,3.37-.2,1,1,0,0,1-1.06,1.69c-.33-.21-.62-.26-1.11.11A1,1,0,0,1,104.88,122.12Z"/><path class="cls-6" d="M58,46a1,1,0,0,1-.6-1.8l4-3a1,1,0,1,1,1.2,1.6l-4,3A1,1,0,0,1,58,46Z"/><path class="cls-6" d="M70,46a1,1,0,0,1-.6-.2l-4-3a1,1,0,1,1,1.2-1.6l4,3A1,1,0,0,1,70,46Z"/><polygon class="cls-3" points="70 54 58 54 57 48 71 48 70 54"/><path class="cls-6" d="M70,55H58a1,1,0,0,1-1-.84l-1-6A1,1,0,0,1,57,47H71a1,1,0,0,1,1,1.16l-1,6A1,1,0,0,1,70,55ZM58.85,53H69.15l.67-4H58.18Z"/><rect class="cls-19" height="3" width="16" x="56" y="45"/><path class="cls-6" d="M72,49H56a1,1,0,0,1-1-1V45a1,1,0,0,1,1-1H72a1,1,0,0,1,1,1v3A1,1,0,0,1,72,49ZM57,47H71V46H57Z"/><g class="cls-10"><path class="cls-6" d="M78,55l-.2,0-.18-.06a.76.76,0,0,1-.18-.09,1.53,1.53,0,0,1-.15-.12,1,1,0,0,1,1.42-1.42l.12.15a.78.78,0,0,1,.09.18.62.62,0,0,1,.06.18,1,1,0,0,1,0,.4.62.62,0,0,1-.06.18.78.78,0,0,1-.09.18l-.12.15a1,1,0,0,1-.16.12.56.56,0,0,1-.17.09.62.62,0,0,1-.19.06Z"/><path class="cls-6" d="M50,43a1.05,1.05,0,0,1-.71-.29A1,1,0,0,1,49,42a1,1,0,0,1,.08-.38,1,1,0,0,1,.21-.33A1,1,0,1,1,50,43Z"/><path class="cls-6" d="M50,55a1.05,1.05,0,0,1-.71-.29,1,1,0,0,1,.9-1.69.61.61,0,0,1,.19.06.56.56,0,0,1,.17.09,1,1,0,0,1,.16.12,1,1,0,0,1,0,1.42l-.16.12a.56.56,0,0,1-.17.09.62.62,0,0,1-.19.06Z"/><path class="cls-6" d="M78,43l-.2,0-.18-.06a.76.76,0,0,1-.18-.09,1.53,1.53,0,0,1-.15-.12A1,1,0,0,1,77,42a1,1,0,0,1,.29-.71,1,1,0,0,1,1.42,0l.12.15a.78.78,0,0,1,.09.18.62.62,0,0,1,.06.18,1.26,1.26,0,0,1,0,.2,1.14,1.14,0,0,1,0,.19.59.59,0,0,1-.06.19.78.78,0,0,1-.09.18l-.12.15a1,1,0,0,1-.16.12.56.56,0,0,1-.17.09.62.62,0,0,1-.19.06Z"/></g></svg>