<?xml version="1.0" ?><svg data-name="003" id="_003" viewBox="0 0 128 128" xmlns="http://www.w3.org/2000/svg"><defs><style>.cls-1{opacity:0.3;}.cls-2{fill:#c9c1f5;}.cls-3{fill:#89dbba;}.cls-4{fill:#48bc33;}.cls-5{fill:#6d6daa;}.cls-6{fill:#b1f1a8;}.cls-7{fill:#eef6ff;}.cls-8{fill:#fff;}.cls-9{fill:#939fc6;}.cls-10{opacity:0.5;}.cls-11{fill:#ffc661;}.cls-12{fill:#fff27d;}.cls-13{fill:#97c1ff;}.cls-14{fill:#d4edff;}</style></defs><title/><g class="cls-1"><path class="cls-2" d="M125.7,50.65a30,30,0,0,0-23.51-25,19.69,19.69,0,0,1-10.93-6.55A37,37,0,0,0,27,34.43,21,21,0,0,1,16.12,48.1C2,55.46-5.14,74.56,7.77,92.48a16.6,16.6,0,0,0,6.35,4.91,20.58,20.58,0,0,1,10,10.88,28.49,28.49,0,0,0,42.62,12.64A20.06,20.06,0,0,1,83.39,118a29,29,0,0,0,36-33.79A20.08,20.08,0,0,1,121.94,70,29.83,29.83,0,0,0,125.7,50.65Z"/><rect class="cls-3" height="92" transform="translate(5.89 81) rotate(-80.25)" width="48" x="27" y="-9"/><g class="cls-1"><rect class="cls-4" height="92" transform="translate(-7.45 88.82) rotate(-80.25)" width="24" x="36.97" y="2.83"/></g><path class="cls-5" d="M92.27,69.45H92.1L1.43,53.85a1,1,0,0,1-.82-1.15L8.75,5.39A1,1,0,0,1,9.9,4.57l90.67,15.59a1,1,0,0,1,.82,1.15l-8.13,47.3a1,1,0,0,1-1,.83ZM2.75,52l88.7,15.25L99.24,22,10.55,6.71Z"/><path class="cls-6" d="M88.39,55.6a6,6,0,0,0-6.93,4.9L14.44,49a6,6,0,0,0-4.9-6.93L13.61,18.4a6,6,0,0,0,6.93-4.9L87.56,25A6,6,0,0,0,92.45,32Z"/><g class="cls-1"><path class="cls-4" d="M11.57,30.25l-2,11.8A6,6,0,0,1,14.44,49l67,11.52a6,6,0,0,1,6.93-4.9l2-11.8Z"/></g><path class="cls-5" d="M81.46,61.5h-.17L14.27,50a1,1,0,0,1-.82-1.15A5,5,0,0,0,9.38,43a1,1,0,0,1-.82-1.15l4.07-23.65a1,1,0,0,1,1.15-.82,5,5,0,0,0,5.77-4.08,1,1,0,0,1,1.15-.82L87.73,24a1,1,0,0,1,.82,1.15A5,5,0,0,0,92.62,31a1,1,0,0,1,.82,1.15L89.37,55.77a1,1,0,0,1-1.15.82,5,5,0,0,0-5.77,4.08A1,1,0,0,1,81.46,61.5ZM15.53,48.15l65.18,11.2a7,7,0,0,1,6.85-4.84L91.31,32.7a7,7,0,0,1-4.84-6.85L21.29,14.65a7,7,0,0,1-6.85,4.84L10.69,41.3A7,7,0,0,1,15.53,48.15Z"/><ellipse class="cls-3" cx="50.66" cy="38.97" rx="16" ry="12.8" transform="matrix(0.17, -0.99, 0.99, 0.17, 3.67, 82.3)"/><path class="cls-5" d="M49.7,55.89a11.28,11.28,0,0,1-1.92-.16c-7.5-1.29-12.31-9.85-10.72-19.09A19.1,19.1,0,0,1,43,25.54a12.57,12.57,0,0,1,10.55-3.32c7.5,1.29,12.31,9.85,10.72,19.09C62.81,49.76,56.5,55.89,49.7,55.89Zm1.91-31.84a11,11,0,0,0-7.29,3A17.11,17.11,0,0,0,39,37c-1.4,8.15,2.68,15.68,9.09,16.78S60.89,49.12,62.29,41h0c1.4-8.15-2.68-15.68-9.09-16.78A9.45,9.45,0,0,0,51.61,24.05Z"/><circle class="cls-3" cx="25.38" cy="32.6" r="3" transform="translate(-11.05 52.08) rotate(-80.25)"/><path class="cls-5" d="M25.38,36.6a4,4,0,0,1-4-4.68,4,4,0,1,1,7.88,1.35h0a4,4,0,0,1-3.93,3.32Zm0-6a2,2,0,1,0,2,2.34h0a2,2,0,0,0-1.63-2.31Z"/><circle class="cls-5" cx="14.63" cy="12.48" r="1" transform="translate(-0.15 24.78) rotate(-80.25)"/><path class="cls-5" d="M14.63,14.48a2,2,0,1,1,1.15-.37A2,2,0,0,1,14.63,14.48Zm0-2Z"/><circle class="cls-5" cx="8.53" cy="47.97" r="1" transform="translate(-40.19 48.24) rotate(-80.25)"/><path class="cls-5" d="M8.53,50l-.34,0a2,2,0,1,1,.34,0Zm0-2Z"/><circle class="cls-5" cx="93.48" cy="26.04" r="1" transform="translate(51.98 113.75) rotate(-80.25)"/><path class="cls-5" d="M93.48,28l-.34,0a2,2,0,0,1-.82-3.6,2,2,0,0,1,3.13,2h0A2,2,0,0,1,93.48,28Zm1-1.83h0Z"/><circle class="cls-5" cx="87.38" cy="61.52" r="1" transform="matrix(0.17, -0.99, 0.99, 0.17, 11.94, 137.21)"/><path class="cls-5" d="M87.38,63.52a2,2,0,1,1,1.15-.37A2,2,0,0,1,87.38,63.52Zm0-2Z"/><path class="cls-6" d="M54.36,48.55l-.69-.28a.87.87,0,0,1-.57-1c.1-.47.19-1,.28-1.49.21-1.2,1.9-2.39,2.26-4.06a6.88,6.88,0,0,0,1.23-2.62A1.44,1.44,0,0,0,56.71,38c.23-.61.44-1.25.68-1.91,1-2.66.35-4.8-1.91-6.07-.82-.46-4.32-1.7-5.44-3.24-.41-.55-.53,2.16-1,2.28-2.54.66-3.76,2.15-3.74,4.95,0,.7,0,1.38,0,2a1.44,1.44,0,0,0-.52,1,6.88,6.88,0,0,0,.28,2.88c-.21,1.7,1,3.3.78,4.59-.09.52-.18,1-.24,1.5a.87.87,0,0,1-.87.76l-.83,0a14.65,14.65,0,0,0-4.57.83,12.23,12.23,0,0,0,7.33,6.85,11.29,11.29,0,0,0,1.28.31H48a11.29,11.29,0,0,0,1.23.13,12.24,12.24,0,0,0,9.22-4A13.88,13.88,0,0,0,54.36,48.55Z"/><path class="cls-5" d="M49.71,55.89h-.47a12.27,12.27,0,0,1-1.35-.14h-.1l.16-1-.26,1a11.46,11.46,0,0,1-1.32-.32,13.18,13.18,0,0,1-8-7.39A1,1,0,0,1,39,46.64a15.78,15.78,0,0,1,4.88-.89l.75,0c.06-.46.14-.94.23-1.43a4.06,4.06,0,0,0-.32-1.55A7.21,7.21,0,0,1,44,40a7.66,7.66,0,0,1-.25-3.14,2.74,2.74,0,0,1,.5-1.23c0-.23,0-.46,0-.69s0-.61,0-.92c0-3.06,1.32-5,4.11-5.82.06-.2.12-.48.16-.67.2-.88.37-1.64,1.15-1.8a1.12,1.12,0,0,1,1.13.46c.7,1,2.91,1.94,4.09,2.47.45.2.82.37,1,.48,2.64,1.48,3.51,4.14,2.36,7.28l-.31.88-.23.65a2.74,2.74,0,0,1,.06,1.33,7.66,7.66,0,0,1-1.29,2.88,7.5,7.5,0,0,1-1.41,2.51,4.25,4.25,0,0,0-.79,1.3c-.08.49-.16,1-.26,1.43l.62.25a15,15,0,0,1,4.41,2.46,1,1,0,0,1,.08,1.47A13.3,13.3,0,0,1,49.71,55.89Zm-1.59-2.14h.09a10.41,10.41,0,0,0,1.12.12,10.92,10.92,0,0,0,7.62-2.94A13.63,13.63,0,0,0,54,49.49h0l-.69-.28A1.87,1.87,0,0,1,52.13,47c.1-.46.18-.94.27-1.45a5.3,5.3,0,0,1,1.17-2.17,5.52,5.52,0,0,0,1.1-1.94,1,1,0,0,1,.16-.36,6,6,0,0,0,1.06-2.21.72.72,0,0,0,0-.37,1,1,0,0,1-.12-.92c.12-.33.24-.66.36-1l.32-.9c.82-2.26.34-3.84-1.46-4.86-.17-.1-.48-.23-.86-.4a20.38,20.38,0,0,1-3.73-2c-.19.76-.44,1.36-1.11,1.54-2.17.56-3,1.67-3,4,0,.32,0,.64,0,.95s0,.73,0,1.08a1,1,0,0,1-.42.83.75.75,0,0,0-.12.35A5.94,5.94,0,0,0,46,39.61a1,1,0,0,1,0,.4,5.24,5.24,0,0,0,.39,2.12,5.32,5.32,0,0,1,.39,2.51c-.09.51-.17,1-.23,1.46a1.88,1.88,0,0,1-1.86,1.63l-.81,0a14.44,14.44,0,0,0-3.17.44,10.88,10.88,0,0,0,6.19,5.29,10.4,10.4,0,0,0,1.16.28ZM54,47.32h0Zm-9.32-1.6h0Z"/><path class="cls-3" d="M64.05,55.48l-7.89-1.36a14.93,14.93,0,0,0-7.54-3.33,14.93,14.93,0,0,0-8.21.62l-7.89-1.36-1.35,7.88L62.7,63.36Z"/><path class="cls-5" d="M62.7,64.36h-.17L31,58.93a1,1,0,0,1-.82-1.15l1.35-7.88a1,1,0,0,1,1.15-.82l7.6,1.31a16.22,16.22,0,0,1,8.5-.57,16.23,16.23,0,0,1,7.82,3.38l7.6,1.31A1,1,0,0,1,65,55.65l-1.35,7.88A1,1,0,0,1,62.7,64.36ZM32.32,57.13l29.56,5.08,1-5.91L56,55.11a1,1,0,0,1-.52-.26,14.09,14.09,0,0,0-7-3.07,14.11,14.11,0,0,0-7.64.55,1,1,0,0,1-.57.07l-6.9-1.19Z"/><line class="cls-3" x1="30.1" x2="18.28" y1="40.51" y2="38.48"/><path class="cls-5" d="M30.1,41.51h-.17l-11.82-2a1,1,0,1,1,.34-2l11.82,2a1,1,0,0,1-.17,2Z"/><circle class="cls-3" cx="76.63" cy="41.41" r="3" transform="translate(22.84 109.91) rotate(-80.25)"/><path class="cls-5" d="M76.64,45.41a4,4,0,1,1,3.93-3.32h0a4,4,0,0,1-3.93,3.32Zm0-6a2,2,0,1,0,2,2.34h0A2,2,0,0,0,77,39.44Z"/><line class="cls-3" x1="81.35" x2="69.53" y1="49.32" y2="47.29"/><path class="cls-5" d="M81.35,50.32h-.17l-11.82-2a1,1,0,0,1,.34-2l11.82,2a1,1,0,0,1-.17,2Z"/><line class="cls-3" x1="59.43" x2="35.79" y1="58.74" y2="54.68"/><path class="cls-5" d="M59.44,59.74h-.17L35.62,55.66a1,1,0,1,1,.34-2L59.6,57.76a1,1,0,0,1-.17,2Z"/><rect class="cls-3" height="48" width="92" x="5" y="13"/><g class="cls-1"><rect class="cls-4" height="24" width="92" x="5" y="37"/></g><path class="cls-5" d="M97,62H5a1,1,0,0,1-1-1V13a1,1,0,0,1,1-1H97a1,1,0,0,1,1,1V61A1,1,0,0,1,97,62ZM6,60H96V14H6Z"/><path class="cls-6" d="M91,49a6,6,0,0,0-6,6H17a6,6,0,0,0-6-6V25a6,6,0,0,0,6-6H85a6,6,0,0,0,6,6Z"/><g class="cls-1"><path class="cls-4" d="M11,37V49a6,6,0,0,1,6,6H85a6,6,0,0,1,6-6V37Z"/></g><path class="cls-5" d="M85,56H17a1,1,0,0,1-1-1,5,5,0,0,0-5-5,1,1,0,0,1-1-1V25a1,1,0,0,1,1-1,5,5,0,0,0,5-5,1,1,0,0,1,1-1H85a1,1,0,0,1,1,1,5,5,0,0,0,5,5,1,1,0,0,1,1,1V49a1,1,0,0,1-1,1,5,5,0,0,0-5,5A1,1,0,0,1,85,56ZM17.93,54H84.07A7,7,0,0,1,90,48.07V25.93A7,7,0,0,1,84.07,20H17.93A7,7,0,0,1,12,25.93V48.07A7,7,0,0,1,17.93,54Z"/><ellipse class="cls-3" cx="51" cy="39" rx="12.8" ry="16"/><path class="cls-5" d="M51,56c-7.61,0-13.8-7.63-13.8-17S43.39,22,51,22s13.8,7.63,13.8,17S58.61,56,51,56Zm0-32c-6.51,0-11.8,6.73-11.8,15S44.49,54,51,54s11.8-6.73,11.8-15S57.51,24,51,24Z"/><circle class="cls-3" cx="25" cy="37" r="3"/><path class="cls-5" d="M25,41a4,4,0,1,1,4-4A4,4,0,0,1,25,41Zm0-6a2,2,0,1,0,2,2A2,2,0,0,0,25,35Z"/><circle class="cls-5" cx="11" cy="19" r="1"/><path class="cls-5" d="M11,21a2,2,0,1,1,2-2A2,2,0,0,1,11,21Zm0-2h0Zm0,0h0Zm0,0h0Zm0,0h0Zm0,0h0Zm0,0h0Zm0,0h0Zm0,0h0Z"/><circle class="cls-5" cx="11" cy="55" r="1"/><path class="cls-5" d="M11,57a2,2,0,1,1,2-2A2,2,0,0,1,11,57Zm0-2h0Zm0,0h0Zm0,0h0Zm0,0h0Zm0,0h0Zm0,0h0Zm0,0h0Zm0,0h0Z"/><circle class="cls-5" cx="91.01" cy="19" r="1"/><path class="cls-5" d="M91,21a2,2,0,1,1,2-2A2,2,0,0,1,91,21Zm0-2h0Zm0,0h0Zm0,0h0Zm0,0h0Zm0,0h0Zm0,0h0Zm0,0h0Zm0,0h0Z"/><circle class="cls-5" cx="91.01" cy="55" r="1"/><path class="cls-5" d="M91,57a2,2,0,1,1,2-2A2,2,0,0,1,91,57Zm0-2h0Zm0,0h0Zm0,0h0Zm0,0h0Zm0,0h0Zm0,0h0Zm0,0h0Zm0,0h0Z"/><path class="cls-6" d="M56.27,47.81l-.73-.16a.87.87,0,0,1-.73-.89c0-.48,0-1,0-1.52,0-1.22,1.46-2.68,1.54-4.39a6.88,6.88,0,0,0,.77-2.79A1.44,1.44,0,0,0,56.79,37c.12-.64.22-1.31.35-2,.5-2.78-.47-4.79-2.92-5.66-.88-.31-4.54-.95-5.91-2.27-.49-.48-.16,2.21-.6,2.42-2.4,1.08-3.35,2.75-2.85,5.51.12.69.23,1.37.35,2a1.44,1.44,0,0,0-.35,1.07,6.88,6.88,0,0,0,.77,2.79c.08,1.71,1.54,3.09,1.54,4.39,0,.53,0,1,0,1.52a.87.87,0,0,1-.73.89l-.81.16a14.65,14.65,0,0,0-4.36,1.6,12.23,12.23,0,0,0,8.38,5.51A11.29,11.29,0,0,0,51,55h.12a11.29,11.29,0,0,0,1.24-.08,12.24,12.24,0,0,0,8.4-5.54A13.88,13.88,0,0,0,56.27,47.81Z"/><path class="cls-5" d="M51,56a12.6,12.6,0,0,1-1.45-.09A13.18,13.18,0,0,1,40.46,50a1,1,0,0,1,.33-1.44,15.78,15.78,0,0,1,4.65-1.71l.74-.15c0-.46,0-.95,0-1.45a4.06,4.06,0,0,0-.58-1.48,7.21,7.21,0,0,1-.95-2.65,7.65,7.65,0,0,1-.78-3.05,2.74,2.74,0,0,1,.29-1.3L44,36.08c0-.3-.1-.6-.16-.91-.54-3,.46-5.12,3.07-6.43,0-.21,0-.49,0-.69,0-.9.09-1.68.82-2a1.11,1.11,0,0,1,1.19.26c.85.83,3.2,1.42,4.46,1.74.48.12.87.22,1.09.3,2.86,1,4.16,3.49,3.57,6.78-.06.31-.11.61-.16.91l-.12.68a2.74,2.74,0,0,1,.29,1.3,7.64,7.64,0,0,1-.78,3.05,7.51,7.51,0,0,1-1,2.71,4.25,4.25,0,0,0-.56,1.42c0,.5,0,1,0,1.45l.65.14a15,15,0,0,1,4.76,1.68,1,1,0,0,1,.33,1.43,13.18,13.18,0,0,1-9.1,6A12.14,12.14,0,0,1,51.1,56Zm-8.2-6.24a10.88,10.88,0,0,0,7,4.16A10.28,10.28,0,0,0,51,54h.1a10.21,10.21,0,0,0,1.13-.07,10.87,10.87,0,0,0,7-4.19,13.65,13.65,0,0,0-3.13-.94h0l-.73-.16a1.87,1.87,0,0,1-1.51-1.91c0-.46,0-1,0-1.47a5.31,5.31,0,0,1,.78-2.34,5.52,5.52,0,0,0,.76-2.1,1,1,0,0,1,.1-.39,5.94,5.94,0,0,0,.67-2.36.74.74,0,0,0-.06-.36,1,1,0,0,1-.27-.89c.06-.34.12-.7.18-1.06s.1-.62.16-.94c.43-2.36-.32-3.85-2.27-4.54-.19-.07-.51-.15-.91-.25a20.62,20.62,0,0,1-4-1.33c-.06.78-.21,1.42-.84,1.7-2,.92-2.68,2.16-2.27,4.42.06.32.11.63.16.94s.12.71.18,1.06a1,1,0,0,1-.27.89.75.75,0,0,0-.06.36,5.94,5.94,0,0,0,.67,2.36,1,1,0,0,1,.1.39,5.23,5.23,0,0,0,.74,2,5.32,5.32,0,0,1,.81,2.41c0,.52,0,1,0,1.48a1.88,1.88,0,0,1-1.56,1.92l-.79.16A14.42,14.42,0,0,0,42.8,49.76Zm3.47-3.09h0Zm9.45,0h0ZM47.3,28.56h0Z"/><path class="cls-3" d="M67,53H59a14.93,14.93,0,0,0-8-2,14.93,14.93,0,0,0-8,2H35v8H67Z"/><path class="cls-5" d="M67,62H35a1,1,0,0,1-1-1V53a1,1,0,0,1,1-1h7.71A16.23,16.23,0,0,1,51,50a16.23,16.23,0,0,1,8.28,2H67a1,1,0,0,1,1,1v8A1,1,0,0,1,67,62ZM36,60H66V54H59a1,1,0,0,1-.55-.17A14.09,14.09,0,0,0,51,52a14.09,14.09,0,0,0-7.44,1.84A1,1,0,0,1,43,54H36Z"/><path class="cls-5" d="M31,45H19a1,1,0,0,1,0-2H31a1,1,0,0,1,0,2Z"/><circle class="cls-3" cx="77.01" cy="37" r="3"/><path class="cls-5" d="M77,41a4,4,0,1,1,4-4A4,4,0,0,1,77,41Zm0-6a2,2,0,1,0,2,2A2,2,0,0,0,77,35Z"/><path class="cls-5" d="M83,45H71a1,1,0,0,1,0-2H83a1,1,0,0,1,0,2Z"/><path class="cls-5" d="M63,58H39a1,1,0,0,1,0-2H63a1,1,0,0,1,0,2Z"/><rect class="cls-3" height="48" width="92" x="8" y="16"/><g class="cls-1"><rect class="cls-4" height="24" width="92" x="8" y="40"/></g><path class="cls-5" d="M100,65H8a1,1,0,0,1-1-1V16a1,1,0,0,1,1-1h92a1,1,0,0,1,1,1V64A1,1,0,0,1,100,65ZM9,63H99V17H9Z"/><path class="cls-6" d="M94,52a6,6,0,0,0-6,6H20a6,6,0,0,0-6-6V28a6,6,0,0,0,6-6H88a6,6,0,0,0,6,6Z"/><g class="cls-1"><path class="cls-4" d="M14,40V52a6,6,0,0,1,6,6H88a6,6,0,0,1,6-6V40Z"/></g><path class="cls-5" d="M88,59H20a1,1,0,0,1-1-1,5,5,0,0,0-5-5,1,1,0,0,1-1-1V28a1,1,0,0,1,1-1,5,5,0,0,0,5-5,1,1,0,0,1,1-1H88a1,1,0,0,1,1,1,5,5,0,0,0,5,5,1,1,0,0,1,1,1V52a1,1,0,0,1-1,1,5,5,0,0,0-5,5A1,1,0,0,1,88,59ZM20.93,57H87.07A7,7,0,0,1,93,51.07V28.93A7,7,0,0,1,87.07,23H20.93A7,7,0,0,1,15,28.93V51.07A7,7,0,0,1,20.93,57Z"/><ellipse class="cls-3" cx="54" cy="42" rx="12.8" ry="16"/><path class="cls-5" d="M54,59c-7.61,0-13.8-7.63-13.8-17S46.39,25,54,25s13.8,7.63,13.8,17S61.61,59,54,59Zm0-32c-6.51,0-11.8,6.73-11.8,15S47.49,57,54,57s11.8-6.73,11.8-15S60.51,27,54,27Z"/><circle class="cls-3" cx="28" cy="40" r="3"/><path class="cls-5" d="M28,44a4,4,0,1,1,4-4A4,4,0,0,1,28,44Zm0-6a2,2,0,1,0,2,2A2,2,0,0,0,28,38Z"/><circle class="cls-5" cx="14" cy="22" r="1"/><path class="cls-5" d="M14,24a2,2,0,1,1,2-2A2,2,0,0,1,14,24Zm0-2h0Zm0,0h0Zm0,0h0Zm0,0h0Zm0,0h0Zm0,0h0Zm0,0h0Zm0,0h0Z"/><circle class="cls-5" cx="14" cy="58" r="1"/><path class="cls-5" d="M14,60a2,2,0,1,1,2-2A2,2,0,0,1,14,60Zm0-2h0Zm0,0h0Zm0,0h0Zm0,0h0Zm0,0h0Zm0,0h0Zm0,0h0Zm0,0h0Z"/><circle class="cls-5" cx="94.01" cy="22" r="1"/><path class="cls-5" d="M94,24a2,2,0,1,1,2-2A2,2,0,0,1,94,24Zm0-2h0Zm0,0h0Zm0,0h0Zm0,0h0Zm0,0h0Zm0,0h0Zm0,0h0Zm0,0h0Z"/><circle class="cls-5" cx="94.01" cy="58" r="1"/><path class="cls-5" d="M94,60a2,2,0,1,1,2-2A2,2,0,0,1,94,60Zm0-2h0Zm0,0h0Zm0,0h0Zm0,0h0Zm0,0h0Zm0,0h0Zm0,0h0Zm0,0h0Z"/><path class="cls-6" d="M59.27,50.81l-.73-.16a.87.87,0,0,1-.73-.89c0-.48,0-1,0-1.52,0-1.22,1.46-2.68,1.54-4.39a6.88,6.88,0,0,0,.77-2.79A1.44,1.44,0,0,0,59.79,40c.12-.64.22-1.31.35-2,.5-2.78-.47-4.79-2.92-5.66-.88-.31-4.54-.95-5.91-2.27-.49-.48-.16,2.21-.6,2.42-2.4,1.08-3.35,2.75-2.85,5.51.12.69.23,1.37.35,2a1.44,1.44,0,0,0-.35,1.07,6.88,6.88,0,0,0,.77,2.79c.08,1.71,1.54,3.09,1.54,4.39,0,.53,0,1,0,1.52a.87.87,0,0,1-.73.89l-.81.16a14.65,14.65,0,0,0-4.36,1.6,12.23,12.23,0,0,0,8.38,5.51A11.29,11.29,0,0,0,54,58h.12a11.29,11.29,0,0,0,1.24-.08,12.24,12.24,0,0,0,8.4-5.54A13.88,13.88,0,0,0,59.27,50.81Z"/><path class="cls-5" d="M54,59a12.6,12.6,0,0,1-1.45-.09A13.18,13.18,0,0,1,43.46,53a1,1,0,0,1,.33-1.44,15.78,15.78,0,0,1,4.65-1.71l.74-.15c0-.46,0-.95,0-1.45a4.06,4.06,0,0,0-.58-1.48,7.21,7.21,0,0,1-.95-2.65,7.65,7.65,0,0,1-.78-3.05,2.74,2.74,0,0,1,.29-1.3L47,39.08c0-.3-.1-.6-.16-.91-.54-3,.46-5.12,3.07-6.43,0-.21,0-.49,0-.69,0-.9.09-1.68.82-2a1.11,1.11,0,0,1,1.19.26c.85.83,3.2,1.42,4.46,1.74.48.12.87.22,1.09.3,2.86,1,4.16,3.49,3.57,6.78-.06.31-.11.61-.16.91l-.12.68a2.74,2.74,0,0,1,.29,1.3,7.64,7.64,0,0,1-.78,3.05,7.51,7.51,0,0,1-1,2.71,4.25,4.25,0,0,0-.56,1.42c0,.5,0,1,0,1.45l.65.14a15,15,0,0,1,4.76,1.68,1,1,0,0,1,.33,1.43,13.18,13.18,0,0,1-9.1,6A12.14,12.14,0,0,1,54.1,59Zm-8.2-6.24a10.88,10.88,0,0,0,7,4.16A10.28,10.28,0,0,0,54,57h.1a10.21,10.21,0,0,0,1.13-.07,10.87,10.87,0,0,0,7-4.19,13.65,13.65,0,0,0-3.13-.94h0l-.73-.16a1.87,1.87,0,0,1-1.51-1.91c0-.46,0-1,0-1.47a5.31,5.31,0,0,1,.78-2.34,5.52,5.52,0,0,0,.76-2.1,1,1,0,0,1,.1-.39,5.94,5.94,0,0,0,.67-2.36.74.74,0,0,0-.06-.36,1,1,0,0,1-.27-.89c.06-.34.12-.7.18-1.06s.1-.62.16-.94c.43-2.36-.32-3.85-2.27-4.54-.19-.07-.51-.15-.91-.25a20.62,20.62,0,0,1-4-1.33c-.06.78-.21,1.42-.84,1.7-2,.92-2.68,2.16-2.27,4.42.06.32.11.63.16.94s.12.71.18,1.06a1,1,0,0,1-.27.89.75.75,0,0,0-.06.36,5.94,5.94,0,0,0,.67,2.36,1,1,0,0,1,.1.39,5.23,5.23,0,0,0,.74,2,5.32,5.32,0,0,1,.81,2.41c0,.52,0,1,0,1.48a1.88,1.88,0,0,1-1.56,1.92l-.79.16A14.42,14.42,0,0,0,45.8,52.76Zm3.47-3.09h0Zm9.45,0h0ZM50.3,31.56h0Z"/><path class="cls-3" d="M70,56H62a14.93,14.93,0,0,0-8-2,14.93,14.93,0,0,0-8,2H38v8H70Z"/><path class="cls-5" d="M70,65H38a1,1,0,0,1-1-1V56a1,1,0,0,1,1-1h7.71A16.23,16.23,0,0,1,54,53a16.23,16.23,0,0,1,8.28,2H70a1,1,0,0,1,1,1v8A1,1,0,0,1,70,65ZM39,63H69V57H62a1,1,0,0,1-.55-.17A14.09,14.09,0,0,0,54,55a14.09,14.09,0,0,0-7.44,1.84A1,1,0,0,1,46,57H39Z"/><path class="cls-5" d="M34,48H22a1,1,0,0,1,0-2H34a1,1,0,0,1,0,2Z"/><circle class="cls-3" cx="80.01" cy="40" r="3"/><path class="cls-5" d="M80,44a4,4,0,1,1,4-4A4,4,0,0,1,80,44Zm0-6a2,2,0,1,0,2,2A2,2,0,0,0,80,38Z"/><path class="cls-5" d="M86,48H74a1,1,0,0,1,0-2H86a1,1,0,0,1,0,2Z"/><path class="cls-5" d="M66,61H42a1,1,0,0,1,0-2H66a1,1,0,0,1,0,2Z"/><path class="cls-7" d="M51,46H67V27a8,8,0,0,0-8-8h0a8,8,0,0,0-8,8Z"/><path class="cls-5" d="M67,47H51a1,1,0,0,1-1-1V27a9,9,0,0,1,18,0V46A1,1,0,0,1,67,47ZM52,45H66V27a7,7,0,0,0-14,0Z"/><rect class="cls-7" height="54" rx="2" ry="2" width="82" x="43" y="25"/><rect class="cls-8" height="10" width="62" x="53" y="51"/><path class="cls-5" d="M115,62H53a1,1,0,0,1-1-1V51a1,1,0,0,1,1-1h62a1,1,0,0,1,1,1V61A1,1,0,0,1,115,62ZM54,60h60V52H54Z"/><rect class="cls-9" height="10" width="82" x="43" y="33"/><path class="cls-5" d="M125,44H43a1,1,0,0,1-1-1V33a1,1,0,0,1,1-1h82a1,1,0,0,1,1,1V43A1,1,0,0,1,125,44ZM44,42h80V34H44Z"/><g class="cls-10"><path class="cls-5" d="M44,35a1.05,1.05,0,0,1-.71-.29,1,1,0,0,1-.21-.33A1,1,0,0,1,43,34a1,1,0,1,1,2,0,1,1,0,0,1-.08.38,1,1,0,0,1-.21.33A1.05,1.05,0,0,1,44,35Z"/><path class="cls-5" d="M44,39a1,1,0,1,1,1-1,1.54,1.54,0,0,1,0,.2.65.65,0,0,1-.06.18.76.76,0,0,1-.09.18l-.12.15A1.05,1.05,0,0,1,44,39Z"/><path class="cls-5" d="M46,37a1.05,1.05,0,0,1-.71-.29,1,1,0,0,1-.21-.33.95.95,0,0,1,0-.76,1,1,0,0,1,.21-.33A1,1,0,0,1,47,36a1,1,0,0,1-.08.38,1.16,1.16,0,0,1-.21.33A1.05,1.05,0,0,1,46,37Z"/><path class="cls-5" d="M48,39a1,1,0,0,1-.71-1.71,1,1,0,0,1,1.09-.21,1.16,1.16,0,0,1,.33.21,1,1,0,0,1,0,1.42,1.16,1.16,0,0,1-.33.21A1,1,0,0,1,48,39Z"/><path class="cls-5" d="M48,35a1,1,0,0,1-.71-1.71,1,1,0,0,1,.33-.21,1,1,0,0,1,1.09.21A1.05,1.05,0,0,1,49,34a1,1,0,0,1-.08.38,1,1,0,0,1-.21.33A1.05,1.05,0,0,1,48,35Z"/><path class="cls-5" d="M50,37a1.05,1.05,0,0,1-.71-.29,1.16,1.16,0,0,1-.21-.33A1,1,0,0,1,49,36a1.05,1.05,0,0,1,.29-.71,1,1,0,0,1,1.09-.21,1.16,1.16,0,0,1,.33.21A1.05,1.05,0,0,1,51,36a.84.84,0,0,1-.08.38.9.9,0,0,1-.54.54A.84.84,0,0,1,50,37Z"/><path class="cls-5" d="M52,39a1,1,0,0,1-.38-.08,1.16,1.16,0,0,1-.33-.21,1,1,0,0,1,0-1.42,1.15,1.15,0,0,1,.33-.21,1,1,0,0,1,1.09.21A1,1,0,0,1,52,39Z"/><path class="cls-5" d="M52,35a1,1,0,0,1-.71-1.71,1.15,1.15,0,0,1,.33-.21,1,1,0,0,1,.76,0,1.16,1.16,0,0,1,.33.21,1,1,0,0,1,0,1.42,1.16,1.16,0,0,1-.33.21A1,1,0,0,1,52,35Z"/><path class="cls-5" d="M54,37l-.2,0-.18-.06-.18-.09-.15-.12a1.16,1.16,0,0,1-.21-.33.95.95,0,0,1,0-.76,1.15,1.15,0,0,1,.21-.33,1,1,0,0,1,1.42,0,1.16,1.16,0,0,1,.21.33.94.94,0,0,1,0,.76,1.16,1.16,0,0,1-.21.33A1.05,1.05,0,0,1,54,37Z"/><path class="cls-5" d="M56,39a1,1,0,0,1-.71-1.71,1,1,0,0,1,1.09-.21.94.94,0,0,1,.33.21,1,1,0,0,1,0,1.42.94.94,0,0,1-.33.21A1,1,0,0,1,56,39Z"/><path class="cls-5" d="M56,35a1.05,1.05,0,0,1-.71-.29.94.94,0,0,1-.21-.33A1,1,0,0,1,55,34a1,1,0,0,1,.29-.71,1,1,0,0,1,1.09-.21,1.16,1.16,0,0,1,.33.21A1,1,0,0,1,56,35Z"/><path class="cls-5" d="M58,37a1.05,1.05,0,0,1-.71-.29,1,1,0,0,1-.21-.33.95.95,0,0,1,0-.76,1.15,1.15,0,0,1,.21-.33A1,1,0,0,1,59,36a1,1,0,0,1-.08.38,1.16,1.16,0,0,1-.21.33A1.05,1.05,0,0,1,58,37Z"/><path class="cls-5" d="M60,39a1,1,0,1,1,.71-.29A1.05,1.05,0,0,1,60,39Z"/><path class="cls-5" d="M60,35a1.05,1.05,0,0,1-.71-.29,1,1,0,0,1-.21-.33A1,1,0,0,1,59,34a1.05,1.05,0,0,1,.29-.71,1,1,0,0,1,1.09-.21,1,1,0,0,1,.33.21A1,1,0,0,1,60,35Z"/><path class="cls-5" d="M62,37a1.05,1.05,0,0,1-.71-.29,1.16,1.16,0,0,1-.21-.33.95.95,0,0,1,0-.76,1.15,1.15,0,0,1,.21-.33,1,1,0,0,1,1.09-.21,1.16,1.16,0,0,1,.33.21A1.05,1.05,0,0,1,63,36a.84.84,0,0,1-.08.38.9.9,0,0,1-.54.54A.84.84,0,0,1,62,37Z"/><path class="cls-5" d="M64,39a1,1,0,1,1,.71-.29A1.05,1.05,0,0,1,64,39Z"/><path class="cls-5" d="M64,35a1.05,1.05,0,0,1-.71-.29,1,1,0,0,1-.21-.33A1,1,0,0,1,63,34a1,1,0,1,1,2,0,1,1,0,0,1-.08.38,1,1,0,0,1-.21.33A1.05,1.05,0,0,1,64,35Z"/><path class="cls-5" d="M66,37l-.2,0-.18-.06-.18-.09-.15-.12a1.16,1.16,0,0,1-.21-.33.95.95,0,0,1,0-.76,1.15,1.15,0,0,1,.21-.33,1,1,0,0,1,1.42,0,1.16,1.16,0,0,1,.21.33.94.94,0,0,1,0,.76,1.16,1.16,0,0,1-.21.33l-.15.12a.76.76,0,0,1-.18.09L66.2,37Z"/><path class="cls-5" d="M68,39a1,1,0,0,1-.38-.08.94.94,0,0,1-.33-.21,1,1,0,0,1,0-1.42.93.93,0,0,1,.33-.21,1,1,0,0,1,1.09.21A1.05,1.05,0,0,1,69,38a1.54,1.54,0,0,1,0,.2.65.65,0,0,1-.06.18.76.76,0,0,1-.09.18l-.12.15A1.05,1.05,0,0,1,68,39Z"/><path class="cls-5" d="M68,35a1,1,0,0,1-.71-1.71,1,1,0,0,1,.33-.21,1,1,0,0,1,1.09.21A1.05,1.05,0,0,1,69,34a1,1,0,0,1-.08.38,1,1,0,0,1-.21.33A1.05,1.05,0,0,1,68,35Z"/><path class="cls-5" d="M70,37a1.05,1.05,0,0,1-.71-.29,1.16,1.16,0,0,1-.21-.33.95.95,0,0,1,0-.76,1.15,1.15,0,0,1,.21-.33A1,1,0,0,1,71,36a1,1,0,0,1-.08.38,1.16,1.16,0,0,1-.21.33A1.05,1.05,0,0,1,70,37Z"/><path class="cls-5" d="M72,39a1,1,0,1,1,.71-.29A1.05,1.05,0,0,1,72,39Z"/><path class="cls-5" d="M72,35a1,1,0,0,1-.71-1.71,1.15,1.15,0,0,1,.33-.21,1,1,0,0,1,1.09.21A1,1,0,0,1,72,35Z"/><path class="cls-5" d="M74,37a1.05,1.05,0,0,1-.71-.29,1.16,1.16,0,0,1-.21-.33A1,1,0,0,1,73,36a1,1,0,1,1,2,0,1,1,0,0,1-.08.38,1.16,1.16,0,0,1-.21.33A1.05,1.05,0,0,1,74,37Z"/><path class="cls-5" d="M76,39a1,1,0,0,1-.38-.08,1.16,1.16,0,0,1-.33-.21,1,1,0,0,1,0-1.42,1.15,1.15,0,0,1,.33-.21,1,1,0,0,1,1.09.21A1,1,0,0,1,76,39Z"/><path class="cls-5" d="M76,35a1,1,0,0,1-.38-.08,1.16,1.16,0,0,1-.33-.21,1,1,0,0,1,0-1.42,1.15,1.15,0,0,1,.33-.21,1,1,0,0,1,1.09.21A1,1,0,0,1,76,35Z"/><path class="cls-5" d="M78,37a1.05,1.05,0,0,1-.71-.29,1.16,1.16,0,0,1-.21-.33.95.95,0,0,1,0-.76,1.15,1.15,0,0,1,.21-.33,1,1,0,0,1,1.42,0,1.16,1.16,0,0,1,.21.33.94.94,0,0,1,0,.76,1.16,1.16,0,0,1-.21.33l-.15.12a.76.76,0,0,1-.18.09L78.2,37Z"/><path class="cls-5" d="M80,39a1,1,0,1,1,.71-.29A1.05,1.05,0,0,1,80,39Z"/><path class="cls-5" d="M80,35a1.05,1.05,0,0,1-.71-.29,1,1,0,0,1-.21-.33A1,1,0,0,1,79,34a1.05,1.05,0,0,1,.29-.71,1,1,0,0,1,1.09-.21,1,1,0,0,1,.33.21A1,1,0,0,1,80,35Z"/><path class="cls-5" d="M82,37l-.2,0-.18-.06-.18-.09-.15-.12a1.16,1.16,0,0,1-.21-.33.95.95,0,0,1,0-.76,1.15,1.15,0,0,1,.21-.33,1,1,0,0,1,1.42,0,1.16,1.16,0,0,1,.21.33.94.94,0,0,1,0,.76,1.16,1.16,0,0,1-.21.33A1.05,1.05,0,0,1,82,37Z"/><path class="cls-5" d="M84,39a1,1,0,1,1,.71-.29A1.05,1.05,0,0,1,84,39Z"/><path class="cls-5" d="M84,35a1.05,1.05,0,0,1-.71-.29,1,1,0,0,1-.21-.33A1,1,0,0,1,83,34a1,1,0,1,1,2,0,1,1,0,0,1-.08.38,1,1,0,0,1-.21.33A1.05,1.05,0,0,1,84,35Z"/><path class="cls-5" d="M86,37a1.05,1.05,0,0,1-.71-.29,1.16,1.16,0,0,1-.21-.33A1,1,0,0,1,85,36a1,1,0,1,1,2,0,1,1,0,0,1-.08.38,1.16,1.16,0,0,1-.21.33A1.05,1.05,0,0,1,86,37Z"/><path class="cls-5" d="M88,39a1,1,0,1,1,.71-.29A1.05,1.05,0,0,1,88,39Z"/><path class="cls-5" d="M88,35a1,1,0,1,1,.71-.29A1.05,1.05,0,0,1,88,35Z"/><path class="cls-5" d="M90,37a1.05,1.05,0,0,1-.71-.29,1.16,1.16,0,0,1-.21-.33A1,1,0,0,1,89,36a1,1,0,0,1,1.71-.71,1.16,1.16,0,0,1,.21.33.94.94,0,0,1,0,.76,1.16,1.16,0,0,1-.21.33A1.05,1.05,0,0,1,90,37Z"/><path class="cls-5" d="M92,39a1,1,0,0,1-.71-1.71,1,1,0,0,1,1.09-.21,1.16,1.16,0,0,1,.33.21,1,1,0,0,1,0,1.42,1.16,1.16,0,0,1-.33.21A1,1,0,0,1,92,39Z"/><path class="cls-5" d="M92,35a1,1,0,1,1,1-1,1,1,0,0,1-.08.38,1,1,0,0,1-.21.33A1.05,1.05,0,0,1,92,35Z"/><path class="cls-5" d="M94,37l-.2,0-.18-.06-.18-.09-.15-.12a1.16,1.16,0,0,1-.21-.33.95.95,0,0,1,0-.76,1.15,1.15,0,0,1,.21-.33,1,1,0,0,1,1.42,0,1.16,1.16,0,0,1,.21.33.94.94,0,0,1,0,.76,1.16,1.16,0,0,1-.21.33l-.15.12a.76.76,0,0,1-.18.09L94.2,37Z"/><path class="cls-5" d="M96,39a1,1,0,0,1-.38-.08,1.16,1.16,0,0,1-.33-.21,1,1,0,0,1,0-1.42,1.15,1.15,0,0,1,.33-.21,1,1,0,0,1,1.09.21A1,1,0,0,1,96,39Z"/><path class="cls-5" d="M96,35a1,1,0,0,1-.71-1.71,1.15,1.15,0,0,1,.33-.21,1,1,0,0,1,1.09.21A1,1,0,0,1,96,35Z"/><path class="cls-5" d="M98,37a.84.84,0,0,1-.38-.08.9.9,0,0,1-.54-.54A1,1,0,0,1,97,36a1.05,1.05,0,0,1,.29-.71,1.15,1.15,0,0,1,.33-.21,1,1,0,0,1,1.09.21A1.05,1.05,0,0,1,99,36a1,1,0,0,1-.08.38,1.16,1.16,0,0,1-.21.33A1.05,1.05,0,0,1,98,37Z"/><path class="cls-5" d="M100,39a1,1,0,0,1-.38-.08,1.16,1.16,0,0,1-.33-.21,1,1,0,0,1,0-1.42,1.15,1.15,0,0,1,.33-.21.92.92,0,0,1,.76,0,1,1,0,0,1,.33.21,1,1,0,0,1-.33,1.63A1,1,0,0,1,100,39Z"/><path class="cls-5" d="M100,35a1.05,1.05,0,0,1-.71-.29,1,1,0,0,1-.21-.33A1,1,0,0,1,99,34a1,1,0,1,1,1,1Z"/><path class="cls-5" d="M102,37a1.05,1.05,0,0,1-.71-.29,1.16,1.16,0,0,1-.21-.33A1,1,0,0,1,101,36a1,1,0,0,1,1.71-.71,1.16,1.16,0,0,1,.21.33.94.94,0,0,1,0,.76,1.16,1.16,0,0,1-.21.33A1.05,1.05,0,0,1,102,37Z"/><path class="cls-5" d="M104,39a1.05,1.05,0,0,1-.71-.29,1,1,0,0,1,0-1.42A1,1,0,1,1,104,39Z"/><path class="cls-5" d="M104,35a1,1,0,0,1-.71-1.71,1,1,0,0,1,1.09-.21,1,1,0,0,1,.33.21A1,1,0,0,1,104,35Z"/><path class="cls-5" d="M106,37a1.05,1.05,0,0,1-.71-.29,1.16,1.16,0,0,1-.21-.33.95.95,0,0,1,0-.76,1.15,1.15,0,0,1,.21-.33,1,1,0,0,1,1.42,0,1.16,1.16,0,0,1,.21.33.94.94,0,0,1,0,.76,1.16,1.16,0,0,1-.21.33l-.15.12a.76.76,0,0,1-.18.09l-.18.06Z"/><path class="cls-5" d="M108,39a1,1,0,1,1,.71-.29A1.05,1.05,0,0,1,108,39Z"/><path class="cls-5" d="M108,35a1.05,1.05,0,0,1-.71-.29,1,1,0,0,1-.21-.33A1,1,0,0,1,107,34a1,1,0,1,1,2,0,1,1,0,0,1-.08.38,1,1,0,0,1-.21.33A1.05,1.05,0,0,1,108,35Z"/><path class="cls-5" d="M110,37a.84.84,0,0,1-.38-.08.9.9,0,0,1-.54-.54A1,1,0,0,1,109,36a1.05,1.05,0,0,1,.29-.71,1.15,1.15,0,0,1,.33-.21,1,1,0,0,1,1.09.21A1.05,1.05,0,0,1,111,36a1,1,0,0,1-.08.38,1.16,1.16,0,0,1-.21.33A1.05,1.05,0,0,1,110,37Z"/><path class="cls-5" d="M112,39a1,1,0,1,1,.71-.29A1.05,1.05,0,0,1,112,39Z"/><path class="cls-5" d="M112,35a1,1,0,0,1-.71-1.71,1,1,0,0,1,.33-.21,1,1,0,0,1,1.09.21A1.05,1.05,0,0,1,113,34a1,1,0,0,1-.08.38,1,1,0,0,1-.21.33A1.05,1.05,0,0,1,112,35Z"/><path class="cls-5" d="M114,37a1.05,1.05,0,0,1-.71-.29,1.16,1.16,0,0,1-.21-.33A1,1,0,0,1,113,36a1,1,0,1,1,1,1Z"/><path class="cls-5" d="M116,39a1,1,0,1,1,.71-.29A1.05,1.05,0,0,1,116,39Z"/><path class="cls-5" d="M116,35a1,1,0,0,1-.71-1.71,1.15,1.15,0,0,1,.33-.21,1,1,0,0,1,.76,0,1.16,1.16,0,0,1,.33.21,1,1,0,0,1,0,1.42,1.16,1.16,0,0,1-.33.21A1,1,0,0,1,116,35Z"/><path class="cls-5" d="M118,37a1.05,1.05,0,0,1-.71-.29,1.16,1.16,0,0,1-.21-.33.95.95,0,0,1,0-.76,1.15,1.15,0,0,1,.21-.33,1,1,0,0,1,1.42,0,1.16,1.16,0,0,1,.21.33.94.94,0,0,1,0,.76,1.16,1.16,0,0,1-.21.33A1.05,1.05,0,0,1,118,37Z"/><path class="cls-5" d="M120,39a1,1,0,0,1-.38-.08,1.16,1.16,0,0,1-.33-.21,1,1,0,0,1,0-1.42,1.15,1.15,0,0,1,.33-.21,1,1,0,0,1,1.09.21A1,1,0,0,1,120,39Z"/><path class="cls-5" d="M44,43a1,1,0,0,1-.71-1.71,1,1,0,0,1,1.42,0,1,1,0,0,1,0,1.42,1.16,1.16,0,0,1-.33.21A1,1,0,0,1,44,43Z"/><path class="cls-5" d="M46,41a1,1,0,1,1,.71-.29A1.05,1.05,0,0,1,46,41Z"/><path class="cls-5" d="M48,43a1,1,0,1,1,.71-.29A1.05,1.05,0,0,1,48,43Z"/><path class="cls-5" d="M50,41a1,1,0,1,1,.71-.29A1.05,1.05,0,0,1,50,41Z"/><path class="cls-5" d="M52,43a1,1,0,0,1-.71-1.71.93.93,0,0,1,.33-.21,1,1,0,0,1,1.09.21A1,1,0,0,1,52,43Z"/><path class="cls-5" d="M54,41a1,1,0,1,1,.71-.29A1.05,1.05,0,0,1,54,41Z"/><path class="cls-5" d="M56,43a1,1,0,0,1-.38-.08,1.16,1.16,0,0,1-.33-.21,1,1,0,0,1,0-1.42,1,1,0,0,1,1.42,0A1,1,0,0,1,56,43Z"/><path class="cls-5" d="M58,41a1,1,0,1,1,.71-.29A1.05,1.05,0,0,1,58,41Z"/><path class="cls-5" d="M60,43a1,1,0,0,1-.71-1.71,1,1,0,0,1,1.09-.21,1,1,0,0,1,.33.21A1,1,0,0,1,60,43Z"/><path class="cls-5" d="M62,41a1,1,0,1,1,.71-.29A1.05,1.05,0,0,1,62,41Z"/><path class="cls-5" d="M64,43a1.05,1.05,0,0,1-.71-.29.94.94,0,0,1-.21-.33.95.95,0,0,1,0-.76,1,1,0,0,1,.21-.33A1,1,0,1,1,64,43Z"/><path class="cls-5" d="M66,41a1,1,0,1,1,.71-.29A1.05,1.05,0,0,1,66,41Z"/><path class="cls-5" d="M68,43a1,1,0,0,1-.71-1.71,1,1,0,0,1,1.42,0,1,1,0,0,1,0,1.42,1.16,1.16,0,0,1-.33.21A1,1,0,0,1,68,43Z"/><path class="cls-5" d="M70,41a1,1,0,1,1,.71-.29A1.05,1.05,0,0,1,70,41Z"/><path class="cls-5" d="M72,43a1,1,0,0,1-.71-1.71,1,1,0,0,1,1.42,0A1,1,0,0,1,72,43Z"/><path class="cls-5" d="M74,41a1,1,0,1,1,.71-.29A1.05,1.05,0,0,1,74,41Z"/><path class="cls-5" d="M76,43a1,1,0,0,1-.71-1.71.93.93,0,0,1,.33-.21,1,1,0,0,1,1.09.21A1,1,0,0,1,76,43Z"/><path class="cls-5" d="M78,41a1,1,0,1,1,.71-.29A1.05,1.05,0,0,1,78,41Z"/><path class="cls-5" d="M80,43a1,1,0,0,1-.38-.08,1.16,1.16,0,0,1-.33-.21,1,1,0,0,1,0-1.42,1,1,0,0,1,1.42,0A1,1,0,0,1,80,43Z"/><path class="cls-5" d="M82,41a1,1,0,1,1,.71-.29A1.05,1.05,0,0,1,82,41Z"/><path class="cls-5" d="M84,43a1,1,0,0,1-.71-1.71.93.93,0,0,1,.33-.21,1,1,0,0,1,1.09.21A1,1,0,0,1,84,43Z"/><path class="cls-5" d="M86,41a1,1,0,1,1,.71-.29A1.05,1.05,0,0,1,86,41Z"/><path class="cls-5" d="M88,43a1.05,1.05,0,0,1-.71-.29.94.94,0,0,1-.21-.33A1,1,0,0,1,87,42a1,1,0,0,1,.29-.71A1,1,0,1,1,88,43Z"/><path class="cls-5" d="M90,41a1,1,0,1,1,.71-.29A1.05,1.05,0,0,1,90,41Z"/><path class="cls-5" d="M92,43a1,1,0,0,1-.71-1.71,1,1,0,0,1,1.42,0,1,1,0,0,1,0,1.42,1.16,1.16,0,0,1-.33.21A1,1,0,0,1,92,43Z"/><path class="cls-5" d="M94,41a1,1,0,1,1,.71-.29A1.05,1.05,0,0,1,94,41Z"/><path class="cls-5" d="M96,43a1,1,0,1,1,.71-.29A1.05,1.05,0,0,1,96,43Z"/><path class="cls-5" d="M98,41a1,1,0,1,1,.71-.29A1.05,1.05,0,0,1,98,41Z"/><path class="cls-5" d="M100,43a1,1,0,0,1-.71-1.71.93.93,0,0,1,.33-.21,1,1,0,0,1,1.09.21A1,1,0,0,1,100,43Z"/><path class="cls-5" d="M102,41a1,1,0,1,1,.71-.29A1.05,1.05,0,0,1,102,41Z"/><path class="cls-5" d="M104,43a1,1,0,0,1-.38-.08,1.16,1.16,0,0,1-.33-.21,1,1,0,0,1,0-1.42,1,1,0,0,1,1.42,0A1,1,0,0,1,104,43Z"/><path class="cls-5" d="M106,41a1,1,0,1,1,.71-.29A1.05,1.05,0,0,1,106,41Z"/><path class="cls-5" d="M108,43a1,1,0,0,1-.71-1.71.93.93,0,0,1,.33-.21,1,1,0,0,1,1.09.21A1,1,0,0,1,108,43Z"/><path class="cls-5" d="M110,41a1,1,0,1,1,.71-.29A1.05,1.05,0,0,1,110,41Z"/><path class="cls-5" d="M112,43a1.05,1.05,0,0,1-.71-.29.94.94,0,0,1-.21-.33A1,1,0,0,1,111,42a1,1,0,0,1,.29-.71A1,1,0,1,1,112,43Z"/><path class="cls-5" d="M114,41a1,1,0,1,1,.71-.29A1.05,1.05,0,0,1,114,41Z"/><path class="cls-5" d="M116,43a1,1,0,0,1-.71-1.71,1,1,0,0,1,1.42,0,1,1,0,0,1,0,1.42,1.16,1.16,0,0,1-.33.21A1,1,0,0,1,116,43Z"/><path class="cls-5" d="M118,41a1,1,0,0,1-.71-1.71,1,1,0,0,1,1.09-.21,1.16,1.16,0,0,1,.33.21,1,1,0,0,1,0,1.42,1.16,1.16,0,0,1-.33.21A1,1,0,0,1,118,41Z"/><path class="cls-5" d="M120,43a1,1,0,1,1,.71-.29A1.05,1.05,0,0,1,120,43Z"/><path class="cls-5" d="M120,35a1.05,1.05,0,0,1-.71-.29.94.94,0,0,1-.21-.33A1,1,0,0,1,119,34a1,1,0,0,1,.62-.92,1,1,0,0,1,1.09.21A1,1,0,0,1,120,35Z"/><path class="cls-5" d="M122,37a1.05,1.05,0,0,1-.71-.29,1.16,1.16,0,0,1-.21-.33.95.95,0,0,1,0-.76,1.15,1.15,0,0,1,.21-.33A1,1,0,0,1,123,36a1,1,0,0,1-.08.38,1.16,1.16,0,0,1-.21.33A1.05,1.05,0,0,1,122,37Z"/><path class="cls-5" d="M124,39a1,1,0,1,1,.71-.29A1.05,1.05,0,0,1,124,39Z"/><path class="cls-5" d="M122,41a1.05,1.05,0,0,1-.71-.29,1,1,0,0,1-.21-.33.95.95,0,0,1,0-.76.93.93,0,0,1,.21-.33A1,1,0,1,1,122,41Z"/><path class="cls-5" d="M124,43a1,1,0,0,1-.71-1.71,1.15,1.15,0,0,1,.33-.21,1,1,0,0,1,1.09.21,1,1,0,0,1,0,1.42l-.16.12a.55.55,0,0,1-.17.09l-.18.06Z"/><path class="cls-5" d="M124,35a1.05,1.05,0,0,1-.71-.29,1,1,0,0,1-.21-.33A1,1,0,0,1,123,34a1.05,1.05,0,0,1,.29-.71,1,1,0,0,1,1.09-.21,1,1,0,0,1,.33.21A1,1,0,0,1,124,35Z"/></g><path class="cls-5" d="M123,80H45a3,3,0,0,1-3-3V27a3,3,0,0,1,3-3h78a3,3,0,0,1,3,3V77A3,3,0,0,1,123,80ZM45,26a1,1,0,0,0-1,1V77a1,1,0,0,0,1,1h78a1,1,0,0,0,1-1V27a1,1,0,0,0-1-1Z"/><path class="cls-8" d="M101,19H59a8,8,0,0,1,8,8V46c0,21.79,0,17.88,0,37l3-2.25L73,83l3-2.25L79,83l3-2.25L85,83l3-2.25L91,83l3-2.25L97,83h0l3-2.25L103,83l3-2.25L109,83V27A8,8,0,0,0,101,19Z"/><path class="cls-5" d="M109,84a1,1,0,0,1-.6-.2L106,82l-2.4,1.8a1,1,0,0,1-1.2,0L100,82l-2.4,1.8a1,1,0,0,1-1.2,0L94,82l-2.4,1.8a1,1,0,0,1-1.2,0L88,82l-2.4,1.8a1,1,0,0,1-1.2,0L82,82l-2.4,1.8a1,1,0,0,1-1.2,0L76,82l-2.4,1.8a1,1,0,0,1-1.2,0L70,82l-2.4,1.8A1,1,0,0,1,66,83V27a7,7,0,0,0-7-7,1,1,0,0,1,0-2h42a9,9,0,0,1,9,9V83a1,1,0,0,1-1,1Zm-9-4.25a1,1,0,0,1,.6.2l2.4,1.8,2.4-1.8a1,1,0,0,1,1.2,0l1.4,1V27a7,7,0,0,0-7-7H64.65A9,9,0,0,1,68,27V81l1.4-1a1,1,0,0,1,1.2,0l2.4,1.8L75.4,80a1,1,0,0,1,1.2,0l2.4,1.8L81.4,80a1,1,0,0,1,1.2,0l2.4,1.8L87.4,80a1,1,0,0,1,1.2,0l2.4,1.8L93.4,80a1,1,0,0,1,1.2,0l2.4,1.8L99.4,80A1,1,0,0,1,100,79.75Z"/><g class="cls-10"><path class="cls-5" d="M87,66a4,4,0,0,1-4-4,1,1,0,0,1,2,0,2,2,0,0,0,4,0c0-1.53-2.25-2.2-2.27-2.21S83,58.74,83,55.7a4,4,0,0,1,8,0,1,1,0,1,1-2,0,2,2,0,0,0-4,0c0,1.53,2.25,2.2,2.27,2.21S91,59,91,62A4,4,0,0,1,87,66Z"/><path class="cls-5" d="M87,53.74a1,1,0,0,1-1-1V51a1,1,0,1,1,2,0v1.74A1,1,0,0,1,87,53.74Z"/><path class="cls-5" d="M87,68a1,1,0,0,1-1-1V65a1,1,0,0,1,2,0v2A1,1,0,0,1,87,68Z"/><path class="cls-5" d="M94,42H75a1,1,0,0,1,0-2H94a1,1,0,0,1,0,2Z"/><path class="cls-5" d="M101,42H98a1,1,0,0,1,0-2h3a1,1,0,0,1,0,2Z"/><path class="cls-5" d="M94,46H75a1,1,0,0,1,0-2H94a1,1,0,0,1,0,2Z"/><path class="cls-5" d="M101,46H98a1,1,0,0,1,0-2h3a1,1,0,0,1,0,2Z"/><path class="cls-5" d="M78,34H75a1,1,0,0,1,0-2h3a1,1,0,0,1,0,2Z"/><path class="cls-5" d="M101,38H75a1,1,0,0,1,0-2h26a1,1,0,0,1,0,2Z"/><path class="cls-5" d="M71,26a1,1,0,1,1,.71-.29A1.05,1.05,0,0,1,71,26Z"/><path class="cls-5" d="M100.22,25a1,1,0,0,1,1-1h0a1,1,0,0,1,1,1h0a1,1,0,0,1-1,1h0A1,1,0,0,1,100.22,25Zm-3.78,0a1,1,0,0,1,1-1h0a1,1,0,0,1,1,1h0a1,1,0,0,1-1,1h0A1,1,0,0,1,96.44,25Zm-3.77,0a1,1,0,0,1,1-1h0a1,1,0,0,1,1,1h0a1,1,0,0,1-1,1h0A1,1,0,0,1,92.67,25Zm-3.78,0a1,1,0,0,1,1-1h0a1,1,0,0,1,1,1h0a1,1,0,0,1-1,1h0A1,1,0,0,1,88.89,25Zm-3.78,0a1,1,0,0,1,1-1h0a1,1,0,0,1,1,1h0a1,1,0,0,1-1,1h0A1,1,0,0,1,85.11,25Zm-3.78,0a1,1,0,0,1,1-1h0a1,1,0,0,1,1,1h0a1,1,0,0,1-1,1h0A1,1,0,0,1,81.33,25Zm-3.77,0a1,1,0,0,1,1-1h0a1,1,0,0,1,1,1h0a1,1,0,0,1-1,1h0A1,1,0,0,1,77.56,25Zm-3.78,0a1,1,0,0,1,1-1h0a1,1,0,0,1,1,1h0a1,1,0,0,1-1,1h0A1,1,0,0,1,73.78,25Z"/><path class="cls-5" d="M105,26a1.05,1.05,0,0,1-.71-.29,1,1,0,0,1-.21-.33A.84.84,0,0,1,104,25a1.05,1.05,0,0,1,.29-.71,1.15,1.15,0,0,1,.33-.21,1,1,0,0,1,1.09.21A1,1,0,0,1,105,26Z"/><path class="cls-5" d="M71,76a1,1,0,0,1-.38-.08,1,1,0,0,1-.33-.21A1.05,1.05,0,0,1,70,75a1.19,1.19,0,0,1,0-.19.6.6,0,0,1,.06-.19.77.77,0,0,1,.09-.18,1.48,1.48,0,0,1,.12-.15,1,1,0,0,1,1.42,0l.12.15a.77.77,0,0,1,.09.18.62.62,0,0,1,.06.19A1.25,1.25,0,0,1,72,75a1,1,0,0,1-1,1Z"/><path class="cls-5" d="M100.22,75a1,1,0,0,1,1-1h0a1,1,0,0,1,1,1h0a1,1,0,0,1-1,1h0A1,1,0,0,1,100.22,75Zm-3.78,0a1,1,0,0,1,1-1h0a1,1,0,0,1,1,1h0a1,1,0,0,1-1,1h0A1,1,0,0,1,96.44,75Zm-3.77,0a1,1,0,0,1,1-1h0a1,1,0,0,1,1,1h0a1,1,0,0,1-1,1h0A1,1,0,0,1,92.67,75Zm-3.78,0a1,1,0,0,1,1-1h0a1,1,0,0,1,1,1h0a1,1,0,0,1-1,1h0A1,1,0,0,1,88.89,75Zm-3.78,0a1,1,0,0,1,1-1h0a1,1,0,0,1,1,1h0a1,1,0,0,1-1,1h0A1,1,0,0,1,85.11,75Zm-3.78,0a1,1,0,0,1,1-1h0a1,1,0,0,1,1,1h0a1,1,0,0,1-1,1h0A1,1,0,0,1,81.33,75Zm-3.78,0a1,1,0,0,1,1-1h0a1,1,0,0,1,1,1h0a1,1,0,0,1-1,1h0A1,1,0,0,1,77.55,75Zm-3.77,0a1,1,0,0,1,1-1h0a1,1,0,0,1,1,1h0a1,1,0,0,1-1,1h0A1,1,0,0,1,73.78,75Z"/><path class="cls-5" d="M105,76a1,1,0,0,1-.38-.08,1.16,1.16,0,0,1-.33-.21A1.05,1.05,0,0,1,104,75a1.19,1.19,0,0,1,0-.19.6.6,0,0,1,.06-.19.77.77,0,0,1,.09-.18l.12-.15a1,1,0,0,1,1.42,0l.12.15a.77.77,0,0,1,.09.18.62.62,0,0,1,.06.19,1.25,1.25,0,0,1,0,.19,1,1,0,0,1-1,1Z"/></g><circle class="cls-11" cx="113.01" cy="92" r="9"/><path class="cls-5" d="M113,102a10,10,0,1,1,10-10A10,10,0,0,1,113,102Zm0-18a8,8,0,1,0,8,8A8,8,0,0,0,113,84Z"/><circle class="cls-12" cx="113.01" cy="92" r="5"/><path class="cls-5" d="M113,98a6,6,0,1,1,6-6A6,6,0,0,1,113,98Zm0-10a4,4,0,1,0,4,4A4,4,0,0,0,113,88Z"/><circle class="cls-11" cx="33.01" cy="112" r="9"/><path class="cls-5" d="M33,122a10,10,0,1,1,10-10A10,10,0,0,1,33,122Zm0-18a8,8,0,1,0,8,8A8,8,0,0,0,33,104Z"/><circle class="cls-12" cx="33.01" cy="112" r="5"/><path class="cls-5" d="M33,118a6,6,0,1,1,6-6A6,6,0,0,1,33,118Zm0-10a4,4,0,1,0,4,4A4,4,0,0,0,33,108Z"/><circle class="cls-11" cx="17.01" cy="96" r="9"/><path class="cls-5" d="M17,106A10,10,0,1,1,27,96,10,10,0,0,1,17,106Zm0-18a8,8,0,1,0,8,8A8,8,0,0,0,17,88Z"/><circle class="cls-12" cx="17.01" cy="96" r="5"/><path class="cls-5" d="M17,102a6,6,0,1,1,6-6A6,6,0,0,1,17,102Zm0-10a4,4,0,1,0,4,4A4,4,0,0,0,17,92Z"/></g><rect class="cls-13" height="58" rx="2" ry="2" width="90" x="19" y="57"/><g class="cls-1"><path class="cls-8" d="M99,57H21a2,2,0,0,0-2,2V98.79L107,57Z"/></g><g class="cls-1"><path class="cls-8" d="M109,59a2,2,0,0,0-.06-.48L19,101.24v3l90-42.75Z"/></g><path class="cls-5" d="M107,116H21a3,3,0,0,1-3-3V59a3,3,0,0,1,3-3h86a3,3,0,0,1,3,3v54A3,3,0,0,1,107,116ZM21,58a1,1,0,0,0-1,1v54a1,1,0,0,0,1,1h86a1,1,0,0,0,1-1V59a1,1,0,0,0-1-1Z"/><rect class="cls-14" height="10" rx="2" ry="2" width="10" x="27" y="65"/><path class="cls-5" d="M35,76H29a3,3,0,0,1-3-3V67a3,3,0,0,1,3-3h6a3,3,0,0,1,3,3v6A3,3,0,0,1,35,76ZM29,66a1,1,0,0,0-1,1v6a1,1,0,0,0,1,1h6a1,1,0,0,0,1-1V67a1,1,0,0,0-1-1Z"/><path class="cls-8" d="M31,102H27a1,1,0,0,1,0-2h4a1,1,0,0,1,0,2Z"/><path class="cls-8" d="M39,102H35a1,1,0,0,1,0-2h4a1,1,0,0,1,0,2Z"/><path class="cls-8" d="M49,106H27a1,1,0,0,1,0-2H49a1,1,0,0,1,0,2Z"/><path class="cls-8" d="M59,106H53a1,1,0,0,1,0-2h6a1,1,0,0,1,0,2Z"/><path class="cls-8" d="M27,90a1,1,0,0,1-1-1V87a1,1,0,0,1,2,0v2A1,1,0,0,1,27,90Z"/><path class="cls-8" d="M31,90a1,1,0,0,1-1-1V87a1,1,0,0,1,2,0v2A1,1,0,0,1,31,90Z"/><path class="cls-8" d="M35,90a1,1,0,0,1-1-1V87a1,1,0,0,1,2,0v2A1,1,0,0,1,35,90Z"/><path class="cls-8" d="M39,90a1,1,0,0,1-1-1V87a1,1,0,0,1,2,0v2A1,1,0,0,1,39,90Z"/><path class="cls-8" d="M47,90a1,1,0,0,1-1-1V87a1,1,0,0,1,2,0v2A1,1,0,0,1,47,90Z"/><path class="cls-8" d="M51,90a1,1,0,0,1-1-1V87a1,1,0,0,1,2,0v2A1,1,0,0,1,51,90Z"/><path class="cls-8" d="M55,90a1,1,0,0,1-1-1V87a1,1,0,0,1,2,0v2A1,1,0,0,1,55,90Z"/><path class="cls-8" d="M59,90a1,1,0,0,1-1-1V87a1,1,0,0,1,2,0v2A1,1,0,0,1,59,90Z"/><path class="cls-8" d="M67,90a1,1,0,0,1-1-1V87a1,1,0,0,1,2,0v2A1,1,0,0,1,67,90Z"/><path class="cls-8" d="M71,90a1,1,0,0,1-1-1V87a1,1,0,0,1,2,0v2A1,1,0,0,1,71,90Z"/><path class="cls-8" d="M75,90a1,1,0,0,1-1-1V87a1,1,0,0,1,2,0v2A1,1,0,0,1,75,90Z"/><path class="cls-8" d="M79,90a1,1,0,0,1-1-1V87a1,1,0,0,1,2,0v2A1,1,0,0,1,79,90Z"/><path class="cls-8" d="M87,90a1,1,0,0,1-1-1V87a1,1,0,0,1,2,0v2A1,1,0,0,1,87,90Z"/><path class="cls-8" d="M91,90a1,1,0,0,1-1-1V87a1,1,0,0,1,2,0v2A1,1,0,0,1,91,90Z"/><path class="cls-8" d="M95,90a1,1,0,0,1-1-1V87a1,1,0,0,1,2,0v2A1,1,0,0,1,95,90Z"/><path class="cls-8" d="M99,90a1,1,0,0,1-1-1V87a1,1,0,0,1,2,0v2A1,1,0,0,1,99,90Z"/><circle class="cls-14" cx="95" cy="101" r="6"/><circle class="cls-8" cx="86" cy="101" r="6"/><path class="cls-5" d="M95,108a7,7,0,0,1-4.5-1.67,7,7,0,1,1,0-10.66A7,7,0,1,1,95,108Zm-4.5-4.07a1,1,0,0,1,.75.34,5,5,0,1,0,0-6.54,1,1,0,0,1-1.51,0,5,5,0,1,0,0,6.54A1,1,0,0,1,90.5,103.93Z"/></svg>