<?xml version="1.0" ?><svg data-name="003" id="_003" viewBox="0 0 128 128" xmlns="http://www.w3.org/2000/svg"><defs><style>.cls-1{opacity:0.3;}.cls-2{fill:#c9c1f5;}.cls-3{fill:#6d6daa;}.cls-4{fill:#eef6ff;}.cls-5{fill:#7690a8;}.cls-6{fill:#fff;}.cls-7{fill:#939fc6;}.cls-8{fill:#554dad;}.cls-9{fill:#fff27d;}.cls-10{opacity:0.5;}.cls-11{fill:#ced8ee;}.cls-12{fill:#89dbba;}.cls-13{fill:#48bc33;}.cls-14{fill:#b1f1a8;}.cls-15{fill:#ffc661;}</style></defs><title/><g class="cls-1"><path class="cls-2" d="M1.81,56.33a30,30,0,0,0,23.51,25,19.69,19.69,0,0,1,10.93,6.55,37,37,0,0,0,64.33-15.68A19.57,19.57,0,0,1,111,59.08,28,28,0,1,0,73.34,21.73,9.41,9.41,0,0,1,64.83,27H64a12.39,12.39,0,0,1-12-9.74A20,20,0,0,0,25.88,3.15,20,20,0,0,0,12.53,21,21.38,21.38,0,0,1,8,33.37,29.91,29.91,0,0,0,1.81,56.33Z"/><path class="cls-3" d="M110,116H24a1,1,0,0,1,0-2h86a1,1,0,0,1,0,2Z"/><path class="cls-3" d="M115,116h-2a1,1,0,0,1,0-2h2a1,1,0,0,1,0,2Z"/><path class="cls-3" d="M17,116H13a1,1,0,1,1,0-2h4a1,1,0,1,1,0,2Z"/><path class="cls-3" d="M21,116H20a1,1,0,1,1,0-2h1a1,1,0,1,1,0,2Z"/><rect class="cls-4" height="68" rx="4" ry="4" width="88" x="23" y="11"/><g class="cls-1"><path class="cls-5" d="M107,76H27a4,4,0,0,1-4-4v3a4,4,0,0,0,4,4h80a4,4,0,0,0,4-4V72A4,4,0,0,1,107,76Z"/></g><path class="cls-6" d="M107,11H27a4,4,0,0,0-4,4v3a4,4,0,0,1,4-4h80a4,4,0,0,1,4,4V15A4,4,0,0,0,107,11Z"/><polygon class="cls-7" points="41 85.03 35 85.03 33 79.03 43 79.03 41 85.03"/><path class="cls-3" d="M41,86H35a1,1,0,0,1-.95-.68l-2-6A1,1,0,0,1,33,78H43A1,1,0,0,1,44,79.35l-2,6A1,1,0,0,1,41,86Zm-5.28-2h4.56l1.33-4H34.39Z"/><polygon class="cls-7" points="99.01 85.03 93.01 85.03 91.01 79.03 101.01 79.03 99.01 85.03"/><path class="cls-3" d="M99,86H93a1,1,0,0,1-.95-.68l-2-6A1,1,0,0,1,91,78h10a1,1,0,0,1,.95,1.32l-2,6A1,1,0,0,1,99,86Zm-5.28-2h4.56l1.33-4H92.4Z"/><path class="cls-3" d="M107,80H27a5,5,0,0,1-5-5V15a5,5,0,0,1,5-5h80a5,5,0,0,1,5,5V75A5,5,0,0,1,107,80ZM27,12a3,3,0,0,0-3,3V75a3,3,0,0,0,3,3h80a3,3,0,0,0,3-3V15a3,3,0,0,0-3-3Z"/><rect class="cls-2" height="56" rx="1" ry="1" width="76" x="29" y="17"/><g class="cls-1"><path class="cls-8" d="M29,18v2h76V18a1,1,0,0,0-1-1H30A1,1,0,0,0,29,18Z"/></g><path class="cls-3" d="M104,74H30a2,2,0,0,1-2-2V18a2,2,0,0,1,2-2h74a2,2,0,0,1,2,2V72A2,2,0,0,1,104,74ZM30,18V72h74V18Z"/><polygon class="cls-9" points="33 73 36 63 50 63 53 73 33 73"/><g class="cls-10"><polygon class="cls-6" points="49.41 63 36 63 33.74 70.53 49.41 63"/></g><g class="cls-10"><polygon class="cls-6" points="39.94 73 51.35 67.52 50.57 64.89 33.7 73 39.94 73"/></g><path class="cls-3" d="M53,74H33a1,1,0,0,1-1-1.29l3-10A1,1,0,0,1,36,62H50a1,1,0,0,1,1,.71l3,10A1,1,0,0,1,53,74ZM34.35,72H51.66l-2.4-8H36.75Z"/><polygon class="cls-9" points="53 73 56 63 70 63 73 73 53 73"/><g class="cls-10"><polygon class="cls-6" points="69.41 63 56 63 53.74 70.53 69.41 63"/></g><g class="cls-10"><polygon class="cls-6" points="59.94 73 71.36 67.52 70.57 64.89 53.7 73 59.94 73"/></g><path class="cls-3" d="M73,74H53a1,1,0,0,1-1-1.29l3-10A1,1,0,0,1,56,62H70a1,1,0,0,1,1,.71l3,10A1,1,0,0,1,73,74ZM54.35,72H71.66l-2.4-8H56.75Z"/><polygon class="cls-9" points="73 73 76 63 90 63 93 73 73 73"/><g class="cls-10"><polygon class="cls-6" points="89.42 63 76 63 73.75 70.53 89.42 63"/></g><g class="cls-10"><polygon class="cls-6" points="79.95 73 91.36 67.52 90.57 64.89 73.7 73 79.95 73"/></g><path class="cls-3" d="M93,74H73a1,1,0,0,1-1-1.29l3-10A1,1,0,0,1,76,62H90a1,1,0,0,1,1,.71l3,10A1,1,0,0,1,93,74ZM74.35,72H91.66l-2.4-8H76.75Z"/><polygon class="cls-9" points="63 63 66 53 80 53 83 63 63 63"/><g class="cls-10"><polygon class="cls-6" points="79.42 53 66 53 63.74 60.53 79.42 53"/></g><g class="cls-10"><polygon class="cls-6" points="69.94 63 81.36 57.51 80.57 54.89 63.7 63 69.94 63"/></g><path class="cls-3" d="M83,64H63a1,1,0,0,1-1-1.29l3-10A1,1,0,0,1,66,52H80a1,1,0,0,1,1,.71l3,10A1,1,0,0,1,83,64ZM64.35,62H81.66l-2.4-8H66.75Z"/><polygon class="cls-9" points="43 63 46 53 60 53 63 63 43 63"/><g class="cls-10"><polygon class="cls-6" points="59.41 53 46 53 43.74 60.53 59.41 53"/></g><g class="cls-10"><polygon class="cls-6" points="49.94 63 61.36 57.51 60.57 54.89 43.7 63 49.94 63"/></g><path class="cls-3" d="M63,64H43a1,1,0,0,1-1-1.29l3-10A1,1,0,0,1,46,52H60a1,1,0,0,1,1,.71l3,10A1,1,0,0,1,63,64ZM44.35,62H61.66l-2.4-8H46.75Z"/><polygon class="cls-9" points="53 53 56 43 70 43 73 53 53 53"/><g class="cls-10"><polygon class="cls-6" points="69.41 43 56 43 53.74 50.52 69.41 43"/></g><g class="cls-10"><polygon class="cls-6" points="59.94 53 71.36 47.51 70.57 44.89 53.7 53 59.94 53"/></g><path class="cls-3" d="M73,54H53a1,1,0,0,1-1-1.29l3-10A1,1,0,0,1,56,42H70a1,1,0,0,1,1,.71l3,10A1,1,0,0,1,73,54ZM54.35,52H71.66l-2.4-8H56.75Z"/><polygon class="cls-9" points="63 42.99 66 33 80 33 83 42.99 63 42.99"/><g class="cls-10"><polygon class="cls-6" points="79.42 33 66 33 63.74 40.52 79.42 33"/></g><g class="cls-10"><polygon class="cls-6" points="69.94 42.99 81.36 37.51 80.57 34.89 63.7 42.99 69.94 42.99"/></g><path class="cls-3" d="M83,44H63a1,1,0,0,1-1-1.29l3-10A1,1,0,0,1,66,32H80a1,1,0,0,1,1,.71l3,10A1,1,0,0,1,83,44ZM64.35,42H81.66l-2.4-8H66.75Z"/><path class="cls-9" d="M40.76,38.15a4.62,4.62,0,0,0,3.08,3.08q2.31.77,0,1.54a4.62,4.62,0,0,0-3.08,3.08q-.77,2.31-1.54,0a4.62,4.62,0,0,0-3.08-3.08q-2.31-.77,0-1.54a4.62,4.62,0,0,0,3.08-3.08Q40,35.84,40.76,38.15Z"/><path class="cls-6" d="M51,49.57A3.7,3.7,0,0,0,53.48,52q1.85.62,0,1.23A3.7,3.7,0,0,0,51,55.72q-.62,1.85-1.23,0a3.7,3.7,0,0,0-2.46-2.46q-1.85-.62,0-1.23a3.7,3.7,0,0,0,2.46-2.46Q50.4,47.72,51,49.57Z"/><path class="cls-6" d="M58,26.57A3.7,3.7,0,0,0,60.48,29q1.85.62,0,1.23A3.7,3.7,0,0,0,58,32.72q-.62,1.85-1.23,0a3.7,3.7,0,0,0-2.46-2.46q-1.85-.62,0-1.23a3.7,3.7,0,0,0,2.46-2.46Q57.4,24.72,58,26.57Z"/><path class="cls-2" d="M86,85H83a2,2,0,0,1-2-2V7a2,2,0,0,1,2-2h3a1,1,0,0,1,1,1V84A1,1,0,0,1,86,85Z"/><g class="cls-1"><path class="cls-8" d="M81,79v4a2,2,0,0,0,2,2h3a1,1,0,0,0,1-1V81H83A2,2,0,0,1,81,79Z"/></g><g class="cls-10"><path class="cls-6" d="M86,5H83a2,2,0,0,0-2,2v4a2,2,0,0,1,2-2h4V6A1,1,0,0,0,86,5Z"/></g><path class="cls-4" d="M103.33,76.22,88.59,83.9A1,1,0,0,1,87,83.09V7a1,1,0,0,1,1.58-.81l14.74,7.67A4,4,0,0,1,105,17.08V73A4,4,0,0,1,103.33,76.22Z"/><g class="cls-1"><path class="cls-5" d="M103.33,72.22,88.59,79.9A1,1,0,0,1,87,79.08v4a1,1,0,0,0,1.58.81l14.74-7.67A4,4,0,0,0,105,73V69A4,4,0,0,1,103.33,72.22Z"/></g><path class="cls-6" d="M103.33,13.83,88.59,6.16A1,1,0,0,0,87,7v4a1,1,0,0,1,1.58-.81l14.74,7.67A4,4,0,0,1,105,21.08v-4A4,4,0,0,0,103.33,13.83Z"/><path class="cls-4" d="M81,75l-8.33-.69a4,4,0,0,1-3.67-4V19.71a4,4,0,0,1,3.67-4L81,15Z"/><g class="cls-1"><path class="cls-5" d="M69,66.35v4a4,4,0,0,0,3.67,4L81,75V71l-8.33-.69A4,4,0,0,1,69,66.35Z"/></g><path class="cls-6" d="M72.67,15.72a4,4,0,0,0-3.67,4v4a4,4,0,0,1,3.67-4L81,19V15Z"/><path class="cls-3" d="M81,76h-.08l-8.33-.69a5,5,0,0,1-4.58-5V19.71a5,5,0,0,1,4.58-5L80.92,14a1,1,0,0,1,.76.26A1,1,0,0,1,82,15V75a1,1,0,0,1-1,1ZM80,16.11l-7.25.6a3,3,0,0,0-2.75,3V70.35a3,3,0,0,0,2.75,3l7.25.6Z"/><path class="cls-3" d="M85.73,86H83a3,3,0,0,1-3-3V7a3,3,0,0,1,3-3h2.72a5,5,0,0,1,2.85.89l15.23,8,.12.07A5,5,0,0,1,106,17.08V73A5,5,0,0,1,103.92,77l-.12.07-15.23,8A5,5,0,0,1,85.73,86ZM83,6a1,1,0,0,0-1,1V83a1,1,0,0,0,1,1h2.72a3,3,0,0,0,1.74-.56l.12-.07,15.22-8A3,3,0,0,0,104,73V17.08a3,3,0,0,0-1.21-2.4l-15.22-8-.11-.07A3,3,0,0,0,85.73,6H83Z"/><path class="cls-11" d="M74,65H70V59h4a3,3,0,0,1,3,3h0A3,3,0,0,1,74,65Z"/><path class="cls-3" d="M74,66H70a1,1,0,0,1-1-1V59a1,1,0,0,1,1-1h4a4,4,0,0,1,0,8Zm-3-2h3a2,2,0,0,0,0-4H71Z"/><circle class="cls-6" cx="70" cy="62" r="3"/><path class="cls-3" d="M70,66a4,4,0,1,1,4-4A4,4,0,0,1,70,66Zm0-6a2,2,0,1,0,2,2A2,2,0,0,0,70,60Z"/><path class="cls-11" d="M74,48H70V42h4a3,3,0,0,1,3,3h0A3,3,0,0,1,74,48Z"/><path class="cls-3" d="M74,49H70a1,1,0,0,1-1-1V42a1,1,0,0,1,1-1h4a4,4,0,0,1,0,8Zm-3-2h3a2,2,0,0,0,0-4H71Z"/><circle class="cls-6" cx="70" cy="45" r="3"/><path class="cls-3" d="M70,49a4,4,0,1,1,4-4A4,4,0,0,1,70,49Zm0-6a2,2,0,1,0,2,2A2,2,0,0,0,70,43Z"/><path class="cls-11" d="M74,31H70V25h4a3,3,0,0,1,3,3h0A3,3,0,0,1,74,31Z"/><path class="cls-3" d="M74,32H70a1,1,0,0,1-1-1V25a1,1,0,0,1,1-1h4a4,4,0,1,1,0,8Zm-3-2h3a2,2,0,0,0,0-4H71Z"/><circle class="cls-6" cx="70" cy="28" r="3"/><path class="cls-3" d="M70,32a4,4,0,1,1,4-4A4,4,0,0,1,70,32Zm0-6a2,2,0,1,0,2,2A2,2,0,0,0,70,26Z"/><path class="cls-3" d="M102,18a1.09,1.09,0,0,1-.39-.08,1,1,0,0,1-.32-.21,1.2,1.2,0,0,1-.22-.33,1.07,1.07,0,0,1,0-.76,1.06,1.06,0,0,1,.22-.33,1,1,0,0,1,.32-.21,1,1,0,0,1,.77,0,1,1,0,0,1,.32.21,1,1,0,0,1,.3.71,1,1,0,0,1-1,1Z"/><path class="cls-3" d="M102,74a1.08,1.08,0,0,1-.39-.08,1,1,0,0,1-.32-.22,1,1,0,0,1-.22-.32A1,1,0,0,1,101,73a1,1,0,0,1,.29-.71,1,1,0,0,1,.32-.22,1,1,0,0,1,1.09.22,1,1,0,0,1,.22,1.09.87.87,0,0,1-.22.32A1,1,0,0,1,102,74Z"/><path class="cls-3" d="M90,12l-.2,0a1.07,1.07,0,0,1-.36-.15l-.15-.12a1.2,1.2,0,0,1-.22-.33,1,1,0,0,1,1.63-1.09l.13.15.09.18a1.24,1.24,0,0,1,.06.18,1.32,1.32,0,0,1,0,.2,1,1,0,0,1-1,1Z"/><path class="cls-3" d="M90,80a1,1,0,0,1-.71-.3.45.45,0,0,1-.12-.15,1,1,0,0,1-.1-.17,1.43,1.43,0,0,1,0-.19A.61.61,0,0,1,89,79a1.08,1.08,0,0,1,.07-.39,1,1,0,0,1,1.63-.32.87.87,0,0,1,.22.32A1.08,1.08,0,0,1,91,79a1.19,1.19,0,0,1,0,.19,1.35,1.35,0,0,1-.06.19.94.94,0,0,1-.09.17.65.65,0,0,1-.13.15.87.87,0,0,1-.32.22A1,1,0,0,1,90,80Z"/><path class="cls-11" d="M93,29v4h2V57H93v4h2a4,4,0,0,0,4-4V33a4,4,0,0,0-4-4Z"/><path class="cls-3" d="M95,62H93a1,1,0,0,1-1-1V57a1,1,0,0,1,1-1h1V34H93a1,1,0,0,1-1-1V29a1,1,0,0,1,1-1h2a5,5,0,0,1,5,5V57A5,5,0,0,1,95,62Zm-1-2h1a3,3,0,0,0,3-3V33a3,3,0,0,0-3-3H94v2h1a1,1,0,0,1,1,1V57a1,1,0,0,1-1,1H94Z"/><path class="cls-3" d="M87,85.82a1,1,0,0,1-1-1V5.24a1,1,0,0,1,2,0V84.82A1,1,0,0,1,87,85.82Z"/><path class="cls-11" d="M107,29v6a2,2,0,0,1-2,2h0a2,2,0,0,1-2-2V29a2,2,0,0,1,2-2h0A2,2,0,0,1,107,29Z"/><path class="cls-3" d="M105,38a3,3,0,0,1-3-3V29a3,3,0,0,1,6,0v6A3,3,0,0,1,105,38Zm0-10a1,1,0,0,0-1,1v6a1,1,0,0,0,2,0V29A1,1,0,0,0,105,28Z"/><path class="cls-11" d="M107,55v6a2,2,0,0,1-2,2h0a2,2,0,0,1-2-2V55a2,2,0,0,1,2-2h0A2,2,0,0,1,107,55Z"/><path class="cls-3" d="M105,64a3,3,0,0,1-3-3V55a3,3,0,0,1,6,0v6A3,3,0,0,1,105,64Zm0-10a1,1,0,0,0-1,1v6a1,1,0,0,0,2,0V55A1,1,0,0,0,105,54Z"/><path class="cls-3" d="M107,59h-4a1,1,0,0,1,0-2h4a1,1,0,0,1,0,2Z"/><path class="cls-3" d="M107,33h-4a1,1,0,0,1,0-2h4a1,1,0,0,1,0,2Z"/></g><rect class="cls-12" height="48" width="92" x="17" y="67"/><g class="cls-1"><rect class="cls-13" height="24" width="92" x="17" y="91.01"/></g><path class="cls-3" d="M109,116H17a1,1,0,0,1-1-1V67a1,1,0,0,1,1-1h92a1,1,0,0,1,1,1v48A1,1,0,0,1,109,116Zm-91-2h90V68H18Z"/><path class="cls-14" d="M103,103a6,6,0,0,0-6,6H29a6,6,0,0,0-6-6V79a6,6,0,0,0,6-6H97a6,6,0,0,0,6,6Z"/><g class="cls-1"><path class="cls-13" d="M23,91v12a6,6,0,0,1,6,6H97a6,6,0,0,1,6-6V91Z"/></g><path class="cls-3" d="M97,110H29a1,1,0,0,1-1-1,5,5,0,0,0-5-5,1,1,0,0,1-1-1V79a1,1,0,0,1,1-1,5,5,0,0,0,5-5,1,1,0,0,1,1-1H97a1,1,0,0,1,1,1,5,5,0,0,0,5,5,1,1,0,0,1,1,1v24a1,1,0,0,1-1,1,5,5,0,0,0-5,5A1,1,0,0,1,97,110Zm-67.07-2H96.07a7,7,0,0,1,5.93-5.93V79.93A7,7,0,0,1,96.07,74H29.93A7,7,0,0,1,24,79.93v22.14A7,7,0,0,1,29.93,108Z"/><ellipse class="cls-12" cx="63" cy="93" rx="12.8" ry="16"/><path class="cls-3" d="M63,110c-7.61,0-13.8-7.63-13.8-17S55.39,76,63,76s13.8,7.63,13.8,17S70.61,110,63,110Zm0-32c-6.51,0-11.8,6.73-11.8,15s5.29,15,11.8,15,11.8-6.73,11.8-15S69.51,78,63,78Z"/><circle class="cls-12" cx="37" cy="91" r="3"/><path class="cls-3" d="M37,95a4,4,0,1,1,4-4A4,4,0,0,1,37,95Zm0-6a2,2,0,1,0,2,2A2,2,0,0,0,37,89Z"/><circle class="cls-3" cx="23" cy="73" r="1"/><path class="cls-3" d="M23,75a2,2,0,1,1,2-2A2,2,0,0,1,23,75Zm0-2h0Zm0,0h0Zm0,0h0Zm0,0h0Zm0,0h0Zm0,0h0Zm0,0h0Zm0,0h0Z"/><circle class="cls-3" cx="23" cy="109" r="1"/><path class="cls-3" d="M23,111a2,2,0,1,1,2-2A2,2,0,0,1,23,111Zm0-2h0Zm0,0h0Zm0,0h0Zm0,0h0Zm0,0h0Zm0,0h0Zm0,0h0Zm0,0h0Z"/><circle class="cls-3" cx="103.01" cy="73" r="1"/><path class="cls-3" d="M103,75a2,2,0,1,1,2-2A2,2,0,0,1,103,75Zm0-2h0Zm0,0h0Zm0,0h0Zm0,0h0Zm0,0h0Zm0,0h0Zm0,0h0Zm0,0h0Z"/><circle class="cls-3" cx="103.01" cy="109" r="1"/><path class="cls-3" d="M103,111a2,2,0,1,1,2-2A2,2,0,0,1,103,111Zm0-2h0Zm0,0h0Zm0,0h0Zm0,0h0Zm0,0h0Zm0,0h0Zm0,0h0Zm0,0h0Z"/><path class="cls-14" d="M68.27,101.81l-.73-.16a.87.87,0,0,1-.73-.89c0-.48,0-1,0-1.52,0-1.22,1.46-2.68,1.54-4.39a6.88,6.88,0,0,0,.77-2.79A1.44,1.44,0,0,0,68.79,91c.12-.64.22-1.31.35-2,.5-2.78-.47-4.79-2.92-5.66-.88-.31-4.54-.95-5.91-2.27-.49-.48-.16,2.21-.6,2.42-2.4,1.08-3.35,2.75-2.85,5.51.12.69.23,1.37.35,2a1.44,1.44,0,0,0-.35,1.07,6.88,6.88,0,0,0,.77,2.79c.08,1.71,1.54,3.09,1.54,4.39,0,.53,0,1,0,1.52a.87.87,0,0,1-.73.89l-.81.16a14.65,14.65,0,0,0-4.36,1.6,12.23,12.23,0,0,0,8.38,5.51A11.29,11.29,0,0,0,63,109h.12a11.29,11.29,0,0,0,1.24-.08,12.24,12.24,0,0,0,8.4-5.54A13.88,13.88,0,0,0,68.27,101.81Z"/><path class="cls-3" d="M63,110a12.57,12.57,0,0,1-1.45-.09A13.18,13.18,0,0,1,52.46,104a1,1,0,0,1,.33-1.44,15.75,15.75,0,0,1,4.65-1.71l.74-.15c0-.46,0-.95,0-1.45a4.06,4.06,0,0,0-.58-1.48,7.22,7.22,0,0,1-.95-2.65,7.65,7.65,0,0,1-.78-3.05,2.74,2.74,0,0,1,.29-1.3L56,90.07c0-.3-.1-.6-.16-.91-.54-3,.46-5.12,3.07-6.43,0-.21,0-.49,0-.69,0-.9.09-1.68.82-2a1.12,1.12,0,0,1,1.19.26c.85.83,3.2,1.42,4.45,1.74.48.12.87.22,1.09.3,2.86,1,4.16,3.49,3.56,6.78-.06.31-.11.61-.16.91l-.12.68a2.74,2.74,0,0,1,.29,1.3,7.64,7.64,0,0,1-.78,3.05,7.51,7.51,0,0,1-1,2.71,4.25,4.25,0,0,0-.56,1.42c0,.5,0,1,0,1.45l.65.14a15,15,0,0,1,4.76,1.68,1,1,0,0,1,.33,1.43,13.18,13.18,0,0,1-9.1,6,12.14,12.14,0,0,1-1.36.09Zm-8.2-6.24a10.88,10.88,0,0,0,7,4.16A10.38,10.38,0,0,0,63,108h.1a10.21,10.21,0,0,0,1.13-.07,10.87,10.87,0,0,0,7-4.19,13.64,13.64,0,0,0-3.13-.94h0l-.73-.16a1.87,1.87,0,0,1-1.51-1.91c0-.46,0-1,0-1.47a5.3,5.3,0,0,1,.78-2.34,5.52,5.52,0,0,0,.76-2.1,1,1,0,0,1,.1-.39,5.94,5.94,0,0,0,.67-2.36.74.74,0,0,0-.06-.36,1,1,0,0,1-.27-.89c.06-.34.12-.7.18-1.06s.1-.62.16-.93c.43-2.36-.32-3.85-2.27-4.54-.19-.07-.51-.15-.91-.25a20.41,20.41,0,0,1-4-1.34c-.06.78-.21,1.42-.84,1.7-2,.91-2.68,2.19-2.27,4.42.06.32.11.63.16.93s.12.72.18,1.06a1,1,0,0,1-.27.89.75.75,0,0,0-.06.36,5.94,5.94,0,0,0,.67,2.36,1,1,0,0,1,.1.39,5.23,5.23,0,0,0,.74,2,5.32,5.32,0,0,1,.81,2.41c0,.52,0,1,0,1.48a1.88,1.88,0,0,1-1.56,1.92l-.79.16A14.41,14.41,0,0,0,54.8,103.76Zm3.47-3.09h0Zm9.45,0h0Z"/><path class="cls-12" d="M79,107H71a14.93,14.93,0,0,0-8-2,14.93,14.93,0,0,0-8,2H47v8H79Z"/><path class="cls-3" d="M79,116H47a1,1,0,0,1-1-1v-8a1,1,0,0,1,1-1h7.71A16.23,16.23,0,0,1,63,104a16.23,16.23,0,0,1,8.28,2H79a1,1,0,0,1,1,1v8A1,1,0,0,1,79,116Zm-31-2H78v-6H71a1,1,0,0,1-.55-.17A14.09,14.09,0,0,0,63,106a14.09,14.09,0,0,0-7.44,1.84A1,1,0,0,1,55,108H48Z"/><path class="cls-3" d="M43,99H31a1,1,0,1,1,0-2H43a1,1,0,0,1,0,2Z"/><circle class="cls-12" cx="89.01" cy="91" r="3"/><path class="cls-3" d="M89,95a4,4,0,1,1,4-4A4,4,0,0,1,89,95Zm0-6a2,2,0,1,0,2,2A2,2,0,0,0,89,89Z"/><path class="cls-3" d="M95,99H83a1,1,0,0,1,0-2H95a1,1,0,0,1,0,2Z"/><path class="cls-3" d="M75,112H51a1,1,0,0,1,0-2H75a1,1,0,0,1,0,2Z"/><path class="cls-9" d="M82,110v6c0,2.76,4.48,5,10,5s10-2.24,10-5v-6Z"/><g class="cls-10"><path class="cls-6" d="M92,110H82v6c0,2.76,4.48,5,10,5Z"/></g><path class="cls-3" d="M92,122c-6.17,0-11-2.64-11-6v-6a1,1,0,0,1,1-1h20a1,1,0,0,1,1,1v6C103,119.37,98.17,122,92,122Zm-9-11v5c0,1.89,3.7,4,9,4s9-2.11,9-4v-5Z"/><path class="cls-15" d="M82,104v6c0,2.76,4.48,5,10,5s10-2.24,10-5v-6Z"/><path class="cls-3" d="M92,116c-6.17,0-11-2.64-11-6v-6a1,1,0,0,1,1-1h20a1,1,0,0,1,1,1v6C103,113.37,98.17,116,92,116Zm-9-11v5c0,1.89,3.7,4,9,4s9-2.11,9-4v-5Z"/><path class="cls-15" d="M82,104v6c0,2.76,4.48,5,10,5s10-2.24,10-5v-6Z"/><path class="cls-9" d="M92,104H82v6c0,2.76,4.48,5,10,5Z"/><path class="cls-3" d="M92,116c-6.17,0-11-2.64-11-6v-6a1,1,0,0,1,1-1h20a1,1,0,0,1,1,1v6C103,113.37,98.17,116,92,116Zm-9-11v5c0,1.89,3.7,4,9,4s9-2.11,9-4v-5Z"/><path class="cls-9" d="M82,98v6c0,2.76,4.48,5,10,5s10-2.24,10-5V98Z"/><g class="cls-10"><path class="cls-6" d="M92,98H82v6c0,2.76,4.48,5,10,5Z"/></g><path class="cls-3" d="M92,110c-6.17,0-11-2.64-11-6V98a1,1,0,0,1,1-1h20a1,1,0,0,1,1,1v6C103,107.37,98.17,110,92,110ZM83,99v5c0,1.89,3.7,4,9,4s9-2.11,9-4V99Z"/><path class="cls-15" d="M82,92v6c0,2.76,4.48,5,10,5s10-2.24,10-5V92Z"/><path class="cls-3" d="M92,104c-6.17,0-11-2.64-11-6V92a1,1,0,0,1,1-1h20a1,1,0,0,1,1,1v6C103,101.37,98.17,104,92,104ZM83,93v5c0,1.89,3.7,4,9,4s9-2.11,9-4V93Z"/><path class="cls-15" d="M82,92v6c0,2.76,4.48,5,10,5s10-2.24,10-5V92Z"/><path class="cls-9" d="M92,92H82v6c0,2.76,4.48,5,10,5Z"/><path class="cls-3" d="M92,104c-6.17,0-11-2.64-11-6V92a1,1,0,0,1,1-1h20a1,1,0,0,1,1,1v6C103,101.37,98.17,104,92,104ZM83,93v5c0,1.89,3.7,4,9,4s9-2.11,9-4V93Z"/><path class="cls-9" d="M82,86v6c0,2.76,4.48,5,10,5s10-2.24,10-5V86Z"/><g class="cls-10"><path class="cls-6" d="M92,86H82v6c0,2.76,4.48,5,10,5Z"/></g><path class="cls-3" d="M92,98c-6.17,0-11-2.64-11-6V86a1,1,0,0,1,1-1h20a1,1,0,0,1,1,1v6C103,95.37,98.17,98,92,98ZM83,87v5c0,1.89,3.7,4,9,4s9-2.11,9-4V87Z"/><path class="cls-15" d="M82,80v6c0,2.76,4.48,5,10,5s10-2.24,10-5V80Z"/><path class="cls-3" d="M92,92c-6.17,0-11-2.64-11-6V80a1,1,0,0,1,1-1h20a1,1,0,0,1,1,1v6C103,89.37,98.17,92,92,92ZM83,81v5c0,1.89,3.7,4,9,4s9-2.11,9-4V81Z"/><path class="cls-15" d="M82,80v6c0,2.76,4.48,5,10,5s10-2.24,10-5V80Z"/><path class="cls-9" d="M92,80H82v6c0,2.76,4.48,5,10,5Z"/><path class="cls-3" d="M92,92c-6.17,0-11-2.64-11-6V80a1,1,0,0,1,1-1h20a1,1,0,0,1,1,1v6C103,89.37,98.17,92,92,92ZM83,81v5c0,1.89,3.7,4,9,4s9-2.11,9-4V81Z"/><ellipse class="cls-15" cx="92" cy="80" rx="10" ry="5"/><path class="cls-3" d="M92,86c-6.17,0-11-2.64-11-6s4.83-6,11-6,11,2.64,11,6S98.17,86,92,86Zm0-10c-5.3,0-9,2.11-9,4s3.7,4,9,4,9-2.11,9-4S97.31,76,92,76Z"/><ellipse class="cls-9" cx="92" cy="80" rx="6" ry="2"/><path class="cls-15" d="M98,114v6c0,2.76,4.48,5,10,5s10-2.24,10-5v-6Z"/><path class="cls-3" d="M108,126c-6.17,0-11-2.64-11-6v-6a1,1,0,0,1,1-1h20a1,1,0,0,1,1,1v6C119,123.37,114.17,126,108,126Zm-9-11v5c0,1.89,3.7,4,9,4s9-2.11,9-4v-5Z"/><path class="cls-15" d="M98,114v6c0,2.76,4.48,5,10,5s10-2.24,10-5v-6Z"/><path class="cls-9" d="M108,114H98v6c0,2.76,4.48,5,10,5Z"/><path class="cls-3" d="M108,126c-6.17,0-11-2.64-11-6v-6a1,1,0,0,1,1-1h20a1,1,0,0,1,1,1v6C119,123.37,114.17,126,108,126Zm-9-11v5c0,1.89,3.7,4,9,4s9-2.11,9-4v-5Z"/><path class="cls-9" d="M98,108v6c0,2.76,4.48,5,10,5s10-2.24,10-5v-6Z"/><g class="cls-10"><path class="cls-6" d="M108,108H98v6c0,2.76,4.48,5,10,5Z"/></g><path class="cls-3" d="M108,120c-6.17,0-11-2.64-11-6v-6a1,1,0,0,1,1-1h20a1,1,0,0,1,1,1v6C119,117.37,114.17,120,108,120Zm-9-11v5c0,1.89,3.7,4,9,4s9-2.11,9-4v-5Z"/><path class="cls-15" d="M98,102v6c0,2.76,4.48,5,10,5s10-2.24,10-5v-6Z"/><path class="cls-3" d="M108,114c-6.17,0-11-2.64-11-6v-6a1,1,0,0,1,1-1h20a1,1,0,0,1,1,1v6C119,111.37,114.17,114,108,114Zm-9-11v5c0,1.89,3.7,4,9,4s9-2.11,9-4v-5Z"/><path class="cls-15" d="M98,102v6c0,2.76,4.48,5,10,5s10-2.24,10-5v-6Z"/><path class="cls-9" d="M108,102H98v6c0,2.76,4.48,5,10,5Z"/><path class="cls-3" d="M108,114c-6.17,0-11-2.64-11-6v-6a1,1,0,0,1,1-1h20a1,1,0,0,1,1,1v6C119,111.37,114.17,114,108,114Zm-9-11v5c0,1.89,3.7,4,9,4s9-2.11,9-4v-5Z"/><path class="cls-9" d="M98,96v6c0,2.76,4.48,5,10,5s10-2.24,10-5V96Z"/><g class="cls-10"><path class="cls-6" d="M108,96H98v6c0,2.76,4.48,5,10,5Z"/></g><path class="cls-3" d="M108,108c-6.17,0-11-2.64-11-6V96a1,1,0,0,1,1-1h20a1,1,0,0,1,1,1v6C119,105.37,114.17,108,108,108ZM99,97v5c0,1.89,3.7,4,9,4s9-2.11,9-4V97Z"/><path class="cls-15" d="M98,90v6c0,2.76,4.48,5,10,5s10-2.24,10-5V90Z"/><path class="cls-3" d="M108,102c-6.17,0-11-2.64-11-6V90a1,1,0,0,1,1-1h20a1,1,0,0,1,1,1v6C119,99.37,114.17,102,108,102ZM99,91v5c0,1.89,3.7,4,9,4s9-2.11,9-4V91Z"/><path class="cls-15" d="M98,90v6c0,2.76,4.48,5,10,5s10-2.24,10-5V90Z"/><path class="cls-9" d="M108,90H98v6c0,2.76,4.48,5,10,5Z"/><path class="cls-3" d="M108,102c-6.17,0-11-2.64-11-6V90a1,1,0,0,1,1-1h20a1,1,0,0,1,1,1v6C119,99.37,114.17,102,108,102ZM99,91v5c0,1.89,3.7,4,9,4s9-2.11,9-4V91Z"/><path class="cls-9" d="M98,84v6c0,2.76,4.48,5,10,5s10-2.24,10-5V84Z"/><g class="cls-10"><path class="cls-6" d="M108,84H98v6c0,2.76,4.48,5,10,5Z"/></g><path class="cls-3" d="M108,96c-6.17,0-11-2.64-11-6V84a1,1,0,0,1,1-1h20a1,1,0,0,1,1,1v6C119,93.37,114.17,96,108,96ZM99,85v5c0,1.89,3.7,4,9,4s9-2.11,9-4V85Z"/><path class="cls-15" d="M98,78v6c0,2.76,4.48,5,10,5s10-2.24,10-5V78Z"/><path class="cls-3" d="M108,90c-6.17,0-11-2.64-11-6V78a1,1,0,0,1,1-1h20a1,1,0,0,1,1,1v6C119,87.37,114.17,90,108,90ZM99,79v5c0,1.89,3.7,4,9,4s9-2.11,9-4V79Z"/><path class="cls-15" d="M98,78v6c0,2.76,4.48,5,10,5s10-2.24,10-5V78Z"/><path class="cls-9" d="M108,78H98v6c0,2.76,4.48,5,10,5Z"/><path class="cls-3" d="M108,90c-6.17,0-11-2.64-11-6V78a1,1,0,0,1,1-1h20a1,1,0,0,1,1,1v6C119,87.37,114.17,90,108,90ZM99,79v5c0,1.89,3.7,4,9,4s9-2.11,9-4V79Z"/><path class="cls-9" d="M98,72v6c0,2.76,4.48,5,10,5s10-2.24,10-5V72Z"/><g class="cls-10"><path class="cls-6" d="M108,72H98v6c0,2.76,4.48,5,10,5Z"/></g><path class="cls-3" d="M108,84c-6.17,0-11-2.64-11-6V72a1,1,0,0,1,1-1h20a1,1,0,0,1,1,1v6C119,81.37,114.17,84,108,84ZM99,73v5c0,1.89,3.7,4,9,4s9-2.11,9-4V73Z"/><path class="cls-15" d="M98,66v6c0,2.76,4.48,5,10,5s10-2.24,10-5V66Z"/><path class="cls-3" d="M108,78c-6.17,0-11-2.64-11-6V66a1,1,0,0,1,1-1h20a1,1,0,0,1,1,1v6C119,75.37,114.17,78,108,78ZM99,67v5c0,1.89,3.7,4,9,4s9-2.11,9-4V67Z"/><path class="cls-15" d="M98,66v6c0,2.76,4.48,5,10,5s10-2.24,10-5V66Z"/><path class="cls-9" d="M108,66H98v6c0,2.76,4.48,5,10,5Z"/><path class="cls-3" d="M108,78c-6.17,0-11-2.64-11-6V66a1,1,0,0,1,1-1h20a1,1,0,0,1,1,1v6C119,75.37,114.17,78,108,78ZM99,67v5c0,1.89,3.7,4,9,4s9-2.11,9-4V67Z"/><path class="cls-9" d="M98,60v6c0,2.76,4.48,5,10,5s10-2.24,10-5V60Z"/><g class="cls-10"><path class="cls-6" d="M108,60H98v6c0,2.76,4.48,5,10,5Z"/></g><path class="cls-3" d="M108,72c-6.17,0-11-2.64-11-6V60a1,1,0,0,1,1-1h20a1,1,0,0,1,1,1v6C119,69.36,114.17,72,108,72ZM99,61v5c0,1.89,3.7,4,9,4s9-2.11,9-4V61Z"/><path class="cls-15" d="M98,54v6c0,2.76,4.48,5,10,5s10-2.24,10-5V54Z"/><path class="cls-3" d="M108,66c-6.17,0-11-2.64-11-6V54a1,1,0,0,1,1-1h20a1,1,0,0,1,1,1v6C119,63.36,114.17,66,108,66ZM99,55v5c0,1.89,3.7,4,9,4s9-2.11,9-4V55Z"/><path class="cls-15" d="M98,54v6c0,2.76,4.48,5,10,5s10-2.24,10-5V54Z"/><path class="cls-9" d="M108,54H98v6c0,2.76,4.48,5,10,5Z"/><path class="cls-3" d="M108,66c-6.17,0-11-2.64-11-6V54a1,1,0,0,1,1-1h20a1,1,0,0,1,1,1v6C119,63.36,114.17,66,108,66ZM99,55v5c0,1.89,3.7,4,9,4s9-2.11,9-4V55Z"/><ellipse class="cls-15" cx="108" cy="54" rx="10" ry="5"/><path class="cls-3" d="M108,60c-6.17,0-11-2.64-11-6s4.83-6,11-6,11,2.64,11,6S114.17,60,108,60Zm0-10c-5.3,0-9,2.11-9,4s3.7,4,9,4,9-2.11,9-4S113.31,50,108,50Z"/><ellipse class="cls-9" cx="108" cy="54" rx="6" ry="2"/><path class="cls-15" d="M66,114v6c0,2.76,4.48,5,10,5s10-2.24,10-5v-6Z"/><path class="cls-3" d="M76,126c-6.17,0-11-2.64-11-6v-6a1,1,0,0,1,1-1H86a1,1,0,0,1,1,1v6C87,123.37,82.17,126,76,126Zm-9-11v5c0,1.89,3.7,4,9,4s9-2.11,9-4v-5Z"/><path class="cls-15" d="M66,114v6c0,2.76,4.48,5,10,5s10-2.24,10-5v-6Z"/><path class="cls-9" d="M76,114H66v6c0,2.76,4.48,5,10,5Z"/><path class="cls-3" d="M76,126c-6.17,0-11-2.64-11-6v-6a1,1,0,0,1,1-1H86a1,1,0,0,1,1,1v6C87,123.37,82.17,126,76,126Zm-9-11v5c0,1.89,3.7,4,9,4s9-2.11,9-4v-5Z"/><path class="cls-9" d="M66,108v6c0,2.76,4.48,5,10,5s10-2.24,10-5v-6Z"/><g class="cls-10"><path class="cls-6" d="M76,108H66v6c0,2.76,4.48,5,10,5Z"/></g><path class="cls-3" d="M76,120c-6.17,0-11-2.64-11-6v-6a1,1,0,0,1,1-1H86a1,1,0,0,1,1,1v6C87,117.37,82.17,120,76,120Zm-9-11v5c0,1.89,3.7,4,9,4s9-2.11,9-4v-5Z"/><path class="cls-15" d="M66,102v6c0,2.76,4.48,5,10,5s10-2.24,10-5v-6Z"/><path class="cls-3" d="M76,114c-6.17,0-11-2.64-11-6v-6a1,1,0,0,1,1-1H86a1,1,0,0,1,1,1v6C87,111.37,82.17,114,76,114Zm-9-11v5c0,1.89,3.7,4,9,4s9-2.11,9-4v-5Z"/><path class="cls-15" d="M66,102v6c0,2.76,4.48,5,10,5s10-2.24,10-5v-6Z"/><path class="cls-9" d="M76,102H66v6c0,2.76,4.48,5,10,5Z"/><path class="cls-3" d="M76,114c-6.17,0-11-2.64-11-6v-6a1,1,0,0,1,1-1H86a1,1,0,0,1,1,1v6C87,111.37,82.17,114,76,114Zm-9-11v5c0,1.89,3.7,4,9,4s9-2.11,9-4v-5Z"/><ellipse class="cls-15" cx="76" cy="102" rx="10" ry="5"/><path class="cls-3" d="M76,108c-6.17,0-11-2.64-11-6s4.83-6,11-6,11,2.64,11,6S82.17,108,76,108Zm0-10c-5.3,0-9,2.11-9,4s3.7,4,9,4,9-2.11,9-4S81.3,98,76,98Z"/><ellipse class="cls-9" cx="76" cy="102" rx="6" ry="2"/><path class="cls-6" d="M115.23,88.85a7.4,7.4,0,0,0,4.92,4.92q3.69,1.23,0,2.46a7.4,7.4,0,0,0-4.92,4.92q-1.23,3.69-2.46,0a7.4,7.4,0,0,0-4.92-4.92q-3.69-1.23,0-2.46a7.4,7.4,0,0,0,4.92-4.92Q114,85.16,115.23,88.85Z"/><path class="cls-9" d="M42.92,115.39a5.55,5.55,0,0,0,3.69,3.69q2.77.92,0,1.85a5.55,5.55,0,0,0-3.69,3.69q-.92,2.77-1.85,0a5.55,5.55,0,0,0-3.69-3.69q-2.77-.92,0-1.85a5.55,5.55,0,0,0,3.69-3.69Q42,112.62,42.92,115.39Z"/><path class="cls-6" d="M83,75.57A3.7,3.7,0,0,0,85.48,78q1.85.62,0,1.23A3.7,3.7,0,0,0,83,81.73q-.62,1.85-1.23,0a3.7,3.7,0,0,0-2.46-2.46q-1.85-.62,0-1.23a3.7,3.7,0,0,0,2.46-2.46Q82.4,73.73,83,75.57Z"/></svg>