<?xml version="1.0" ?><svg data-name="003" id="_003" viewBox="0 0 128 128" xmlns="http://www.w3.org/2000/svg"><defs><style>.cls-1{opacity:0.3;}.cls-2{fill:#97c1ff;}.cls-3{fill:#eef6ff;}.cls-4{fill:#fff;}.cls-5{fill:#5cbeff;}.cls-6{fill:#6d6daa;}.cls-7{fill:#96d7ff;}.cls-8{fill:#1c64ba;}.cls-9{fill:#7690a8;}.cls-10{fill:#d4edff;}.cls-11{fill:#ced8ee;}.cls-12{opacity:0.5;}.cls-13{fill:#939fc6;}</style></defs><title/><g class="cls-1"><path class="cls-2" d="M126.69,66.66c0-23.16-11.55-30.53-23.51-33a19.69,19.69,0,0,1-10.93-6.55A37,37,0,0,0,27.92,42.75c-1.31,5.76-5.15,18.53-10.43,21.17a28,28,0,1,0,37.67,37.34A9.41,9.41,0,0,1,63.67,96h.86a12.39,12.39,0,0,1,12,9.74,20,20,0,0,0,26.06,14.14A20,20,0,0,0,116,101.95a21.38,21.38,0,0,1,4.52-12.32C125.45,83.38,126.69,75.27,126.69,66.66Z"/><path class="cls-3" d="M95.08,26.74A6,6,0,0,1,104,20.1,7.87,7.87,0,0,1,118.09,24,5.62,5.62,0,0,1,116.26,35h-21a4.12,4.12,0,0,1-.18-8.24Z"/><path class="cls-4" d="M95.08,29a5.72,5.72,0,0,1-.15-2.23A4.1,4.1,0,0,0,91.3,32,4.11,4.11,0,0,1,95.08,29Z"/><path class="cls-4" d="M100.88,21.48a6,6,0,0,1,3.11.87,7.87,7.87,0,0,1,14.1,3.94,5.63,5.63,0,0,1,3.67,4.22A5.62,5.62,0,0,0,118.09,24,7.87,7.87,0,0,0,104,20.1a6,6,0,0,0-9.11,5.13A5.79,5.79,0,0,0,95,26.31,6,6,0,0,1,100.88,21.48Z"/><path class="cls-5" d="M95.08,24.49c0-.14-.06-.28-.08-.42,0,.15,0,.3-.07.45Z"/><g class="cls-1"><path class="cls-5" d="M116.26,32.73h-21a4.12,4.12,0,0,1-4-3,4.08,4.08,0,0,0-.17,1.1A4.12,4.12,0,0,0,95.26,35h21a5.57,5.57,0,0,0,5.51-6.72A5.63,5.63,0,0,1,116.26,32.73Z"/></g><path class="cls-6" d="M116.26,36h-21a5.12,5.12,0,0,1-1.34-10.07,6.68,6.68,0,0,1,0-.68,7,7,0,0,1,9.86-6.38A8.87,8.87,0,0,1,119,23.33,6.62,6.62,0,0,1,116.26,36ZM100.88,20.23a5,5,0,0,0-4.83,6.26,1,1,0,0,1-.93,1.25A3.12,3.12,0,0,0,95.26,34h21a4.62,4.62,0,0,0,1.51-9,1,1,0,0,1-.67-.84,6.87,6.87,0,0,0-12.31-3.44,1,1,0,0,1-1.32.25A5,5,0,0,0,100.88,20.23Z"/><path class="cls-6" d="M117.75,28.29a1,1,0,0,1-1-1.31,6.88,6.88,0,0,0-6.54-9,1,1,0,1,1,0-2A8.88,8.88,0,0,1,118.7,27.6,1,1,0,0,1,117.75,28.29Z"/><path class="cls-6" d="M98,28.75a1,1,0,0,1-.66-.25,3.12,3.12,0,0,0-2.06-.77,1,1,0,0,1,0-2A5.12,5.12,0,0,1,98.63,27,1,1,0,0,1,98,28.75Z"/><path class="cls-6" d="M105.76,22.73a1,1,0,0,1-.81-.42,5,5,0,0,0-4.07-2.09,1,1,0,1,1,0-2,7,7,0,0,1,5.69,2.92,1,1,0,0,1-.81,1.58Z"/><path class="cls-6" d="M19,17a1,1,0,0,1-1-1V11a1,1,0,0,1,2,0v5A1,1,0,0,1,19,17Z"/><path class="cls-6" d="M29,17a1,1,0,0,1-1-1V14a1,1,0,0,1,2,0v2A1,1,0,0,1,29,17Z"/><path class="cls-6" d="M9,17a1,1,0,0,1-1-1V14a1,1,0,0,1,2,0v2A1,1,0,0,1,9,17Z"/><polygon class="cls-7" points="5.96 41 3.96 26 34.03 26 32.03 41 5.96 41"/><g class="cls-1"><polygon class="cls-4" points="3.96 26 5.3 36 26.36 26 3.96 26"/></g><g class="cls-1"><polygon class="cls-4" points="33.98 26 29.77 26 5.5 37.52 5.75 39.41 33.98 26"/></g><g class="cls-1"><polygon class="cls-8" points="33.61 30 34.03 26 3.96 26 4.39 30 33.61 30"/></g><g class="cls-1"><polygon class="cls-4" points="5.96 41 3.96 26 13.03 26 14.03 41 5.96 41"/></g><g class="cls-1"><polygon class="cls-8" points="32.03 41 34.03 26 24.96 26 23.96 41 32.03 41"/></g><path class="cls-6" d="M32,42H6a1,1,0,0,1-1-.87l-2-15A1,1,0,0,1,4,25H34a1,1,0,0,1,1,1.13l-2,15A1,1,0,0,1,32,42ZM6.84,40H31.16l1.73-13H5.11Z"/><path class="cls-6" d="M14.08,42a1,1,0,0,1-1-.93l-1-15A1,1,0,0,1,13,25a1,1,0,0,1,1.06.93l1,15A1,1,0,0,1,14.15,42Z"/><path class="cls-6" d="M23.91,42h-.07a1,1,0,0,1-.93-1.06l1-15A1,1,0,0,1,25,25a1,1,0,0,1,.93,1.06l-1,15A1,1,0,0,1,23.91,42Z"/><rect class="cls-3" height="50" width="22" x="8" y="51"/><rect class="cls-4" height="50" width="7" x="8" y="51"/><g class="cls-1"><rect class="cls-9" height="50" width="7" x="23" y="51"/></g><g class="cls-1"><rect class="cls-9" height="4" width="22" x="8" y="97"/></g><g class="cls-1"><rect class="cls-9" height="3" width="22" x="8" y="51"/></g><g class="cls-1"><rect class="cls-9" height="3" width="22" x="8" y="61"/></g><path class="cls-6" d="M30,102H8a1,1,0,0,1-1-1V51a1,1,0,0,1,1-1H30a1,1,0,0,1,1,1v50A1,1,0,0,1,30,102ZM9,100H29V52H9Z"/><polygon class="cls-3" points="34 45 4 45 3 41 35 41 34 45"/><path class="cls-6" d="M34,46H4a1,1,0,0,1-1-.76l-1-4A1,1,0,0,1,3,40H35a1,1,0,0,1,1,1.24l-1,4A1,1,0,0,1,34,46ZM4.78,44H33.22l.5-2H4.28Z"/><polygon class="cls-3" points="30 51 8 51 5 45 33 45 30 51"/><g class="cls-1"><polygon class="cls-9" points="31.5 48 33 45 5 45 6.5 48 31.5 48"/></g><path class="cls-6" d="M30,52H8a1,1,0,0,1-.89-.55l-3-6A1,1,0,0,1,5,44H33a1,1,0,0,1,.89,1.45l-3,6A1,1,0,0,1,30,52ZM8.62,50H29.38l2-4H6.62Z"/><polygon class="cls-3" points="36 26 2 26 3 22 35 22 36 26"/><path class="cls-6" d="M36,27H2a1,1,0,0,1-1-1.24l1-4A1,1,0,0,1,3,21H35a1,1,0,0,1,1,.76l1,4A1,1,0,0,1,36,27ZM3.28,25H34.72l-.5-2H3.78Z"/><polygon class="cls-3" points="33 22 5 22 7 16 31 16 33 22"/><polygon class="cls-4" points="32 19 31 16 7 16 6 19 32 19"/><path class="cls-6" d="M33,23H5a1,1,0,0,1-.95-1.32l2-6A1,1,0,0,1,7,15H31a1,1,0,0,1,.95.68l2,6A1,1,0,0,1,33,23ZM6.39,21H31.61l-1.33-4H7.72Z"/><rect class="cls-10" height="12" width="12" x="13" y="89.03"/><g class="cls-1"><rect class="cls-8" height="3" width="12" x="13" y="89.03"/></g><path class="cls-6" d="M25,102H13a1,1,0,0,1-1-1V89a1,1,0,0,1,1-1H25a1,1,0,0,1,1,1v12A1,1,0,0,1,25,102Zm-11-2H24V90H14Z"/><path class="cls-6" d="M19,102a1,1,0,0,1-1-1V89a1,1,0,0,1,2,0v12A1,1,0,0,1,19,102Z"/><rect class="cls-11" height="4.01" width="14" x="12" y="85"/><path class="cls-6" d="M26,90H12a1,1,0,0,1-1-1V85a1,1,0,0,1,1-1H26a1,1,0,0,1,1,1v4A1,1,0,0,1,26,90ZM13,88H25V86H13Z"/><rect class="cls-3" height="4.01" width="24" x="7" y="57"/><path class="cls-6" d="M31,62H7a1,1,0,0,1-1-1V57a1,1,0,0,1,1-1H31a1,1,0,0,1,1,1v4A1,1,0,0,1,31,62ZM8,60H30V58H8Z"/><path class="cls-6" d="M63.5,58a1,1,0,0,1-1-1V50a1,1,0,0,1,2,0v7A1,1,0,0,1,63.5,58Z"/><rect class="cls-4" height="40" width="20" x="102" y="61.03"/><rect class="cls-4" height="40" width="56" x="30" y="61.03"/><rect class="cls-3" height="16" width="48" x="34" y="85.03"/><g class="cls-1"><rect class="cls-9" height="4" width="56" x="30" y="97.03"/></g><g class="cls-1"><rect class="cls-9" height="4" width="56" x="30" y="61.03"/></g><g class="cls-1"><rect class="cls-9" height="4" width="20" x="102" y="97.03"/></g><g class="cls-1"><rect class="cls-9" height="4" width="20" x="102" y="61.03"/></g><path class="cls-6" d="M86,102H30a1,1,0,0,1-1-1V61a1,1,0,0,1,1-1H86a1,1,0,0,1,1,1v40A1,1,0,0,1,86,102Zm-55-2H85V62H31Z"/><rect class="cls-3" height="4" width="58" x="30" y="57.03"/><path class="cls-6" d="M88,62H30a1,1,0,0,1-1-1V57a1,1,0,0,1,1-1H88a1,1,0,0,1,1,1v4A1,1,0,0,1,88,62ZM31,60H87V58H31Z"/><path class="cls-6" d="M122,102H102a1,1,0,0,1-1-1V61a1,1,0,0,1,1-1h20a1,1,0,0,1,1,1v40A1,1,0,0,1,122,102Zm-19-2h18V62H103Z"/><rect class="cls-7" height="20" width="12" x="106" y="65.03"/><g class="cls-1"><polygon class="cls-4" points="106 78.02 118 72.31 118 70.31 106 76.02 106 78.02"/></g><g class="cls-1"><polygon class="cls-4" points="118 68.69 118 65.03 106 65.03 106 74.39 118 68.69"/></g><g class="cls-1"><rect class="cls-8" height="3" width="12" x="106" y="65.03"/></g><path class="cls-6" d="M118,86H106a1,1,0,0,1-1-1V65a1,1,0,0,1,1-1h12a1,1,0,0,1,1,1V85A1,1,0,0,1,118,86Zm-11-2h10V66H107Z"/><path class="cls-6" d="M118,76H106a1,1,0,1,1,0-2h12a1,1,0,0,1,0,2Z"/><path class="cls-6" d="M112,86a1,1,0,0,1-1-1V65a1,1,0,0,1,2,0V85A1,1,0,0,1,112,86Z"/><rect class="cls-3" height="4" width="22" x="101" y="57.03"/><path class="cls-6" d="M123,62H101a1,1,0,0,1-1-1V57a1,1,0,0,1,1-1h22a1,1,0,0,1,1,1v4A1,1,0,0,1,123,62Zm-21-2h20V58H102Z"/><rect class="cls-10" height="12" width="12" x="106" y="89.03"/><g class="cls-1"><rect class="cls-8" height="3" width="12" x="106" y="89.03"/></g><path class="cls-6" d="M118,102H106a1,1,0,0,1-1-1V89a1,1,0,0,1,1-1h12a1,1,0,0,1,1,1v12A1,1,0,0,1,118,102Zm-11-2h10V90H107Z"/><path class="cls-6" d="M112,102a1,1,0,0,1-1-1V89a1,1,0,0,1,2,0v12A1,1,0,0,1,112,102Z"/><rect class="cls-11" height="4.01" width="14" x="105" y="85"/><path class="cls-6" d="M119,90H105a1,1,0,0,1-1-1V85a1,1,0,0,1,1-1h14a1,1,0,0,1,1,1v4A1,1,0,0,1,119,90Zm-13-2h12V86H106Z"/><rect class="cls-3" height="14" width="16" x="86" y="71.03"/><path class="cls-6" d="M102,86H86a1,1,0,0,1-1-1V71a1,1,0,0,1,1-1h16a1,1,0,0,1,1,1V85A1,1,0,0,1,102,86ZM87,84h14V72H87Z"/><g class="cls-12"><path class="cls-6" d="M98,86a1,1,0,0,1-1-1V71a1,1,0,0,1,2,0V85A1,1,0,0,1,98,86Z"/><path class="cls-6" d="M94,86a1,1,0,0,1-1-1V71a1,1,0,0,1,2,0V85A1,1,0,0,1,94,86Z"/><path class="cls-6" d="M90,86a1,1,0,0,1-1-1V71a1,1,0,0,1,2,0V85A1,1,0,0,1,90,86Z"/></g><rect class="cls-7" height="20" width="48" x="34" y="65.03"/><g class="cls-1"><polygon class="cls-4" points="34 65.03 34 80.09 65.72 65.03 34 65.03"/></g><g class="cls-1"><polygon class="cls-4" points="69.13 65.03 34 81.71 34 83.71 73.34 65.03 69.13 65.03"/></g><g class="cls-1"><polygon class="cls-4" points="49 85.03 52.54 85.03 82 71.04 82 69.04 49 84.71 49 85.03"/></g><g class="cls-1"><rect class="cls-8" height="3" width="48" x="34" y="65.03"/></g><path class="cls-6" d="M82,86H34a1,1,0,0,1-1-1V65a1,1,0,0,1,1-1H82a1,1,0,0,1,1,1V85A1,1,0,0,1,82,86ZM35,84H81V66H35Z"/><path class="cls-6" d="M82,102H34a1,1,0,0,1-1-1V85a1,1,0,0,1,1-1H82a1,1,0,0,1,1,1v16A1,1,0,0,1,82,102Zm-47-2H81V86H35Z"/><path class="cls-6" d="M58,86a1,1,0,0,1-1-1V65a1,1,0,0,1,2,0V85A1,1,0,0,1,58,86Z"/><path class="cls-6" d="M64,86a1,1,0,0,1-1-1V65a1,1,0,0,1,2,0V85A1,1,0,0,1,64,86Z"/><path class="cls-6" d="M70,86a1,1,0,0,1-1-1V65a1,1,0,0,1,2,0V85A1,1,0,0,1,70,86Z"/><path class="cls-6" d="M76,86a1,1,0,0,1-1-1V65a1,1,0,0,1,2,0V85A1,1,0,0,1,76,86Z"/><path class="cls-6" d="M52,86a1,1,0,0,1-1-1V65a1,1,0,0,1,2,0V85A1,1,0,0,1,52,86Z"/><path class="cls-6" d="M46,86a1,1,0,0,1-1-1V65a1,1,0,0,1,2,0V85A1,1,0,0,1,46,86Z"/><path class="cls-6" d="M40,86a1,1,0,0,1-1-1V65a1,1,0,0,1,2,0V85A1,1,0,0,1,40,86Z"/><path class="cls-6" d="M82,76H34a1,1,0,0,1,0-2H82a1,1,0,0,1,0,2Z"/><path class="cls-6" d="M82,86H34a1,1,0,0,1,0-2H82a1,1,0,0,1,0,2Z"/><rect class="cls-11" height="4" width="30" x="43" y="85.03"/><path class="cls-6" d="M73,90H43a1,1,0,0,1-1-1V85a1,1,0,0,1,1-1H73a1,1,0,0,1,1,1v4A1,1,0,0,1,73,90ZM44,88H72V86H44Z"/><rect class="cls-10" height="12" width="28" x="44" y="89.03"/><g class="cls-1"><rect class="cls-8" height="3" width="28" x="44" y="89.03"/></g><path class="cls-6" d="M72,102H44a1,1,0,0,1-1-1V89a1,1,0,0,1,1-1H72a1,1,0,0,1,1,1v12A1,1,0,0,1,72,102Zm-27-2H71V90H45Z"/><path class="cls-6" d="M58,102a1,1,0,0,1-1-1V89a1,1,0,0,1,2,0v12A1,1,0,0,1,58,102Z"/><polygon class="cls-11" points="46.85 50.61 43.09 57 50.61 57 46.85 50.61"/><path class="cls-6" d="M50.61,58H43.09a1,1,0,0,1-.86-1.51L46,50.1a1,1,0,0,1,1.72,0l3.76,6.39A1,1,0,0,1,50.61,58Zm-5.77-2h4l-2-3.42Z"/><path class="cls-3" d="M46.77,41.12h0a6.78,6.78,0,0,0,9.57,9.57h0c.59-.59-1.08-3.21-3.72-5.85S47.36,40.53,46.77,41.12Z"/><path class="cls-6" d="M51.93,53.48a7.94,7.94,0,0,1-5.61-2.35,7.6,7.6,0,0,1-.27-10.72c.9-.9,2.37-.14,3.4.51a24.15,24.15,0,0,1,3.87,3.21A24.15,24.15,0,0,1,56.53,48c.65,1,1.42,2.5.51,3.4A7.18,7.18,0,0,1,51.93,53.48ZM47.28,42a5.8,5.8,0,0,0,8.15,8.15,15.39,15.39,0,0,0-3.51-4.63A15.39,15.39,0,0,0,47.28,42Z"/><ellipse class="cls-11" cx="51.55" cy="45.9" rx="1.5" ry="6.77" transform="translate(-17.36 49.9) rotate(-45)"/><path class="cls-6" d="M56,51.79c-1.89,0-4.88-2.75-6.25-4.12C48.13,46,44.46,42,46.06,40.41c.9-.9,2.37-.14,3.4.51a24.15,24.15,0,0,1,3.87,3.21A24.15,24.15,0,0,1,56.53,48c.65,1,1.42,2.5.51,3.4A1.38,1.38,0,0,1,56,51.79Zm-.57-1.44h0Zm-7.4-7.94a20.54,20.54,0,0,0,3.14,3.85A20.54,20.54,0,0,0,55,49.4a20.5,20.5,0,0,0-3.14-3.85h0A20.5,20.5,0,0,0,48.06,42.41Z"/><path class="cls-6" d="M50.48,48a1,1,0,0,1-.71-1.71l3.52-3.52a1,1,0,0,1,1.41,1.41l-3.52,3.52A1,1,0,0,1,50.48,48Z"/><path class="cls-6" d="M54,44.94a1.5,1.5,0,1,1,1.5-1.5A1.5,1.5,0,0,1,54,44.94Zm0-2a.5.5,0,1,0,.5.5A.5.5,0,0,0,54,42.94Z"/><path class="cls-6" d="M78,58a1,1,0,0,1-1-1V51a1,1,0,0,1,2,0v6A1,1,0,0,1,78,58Z"/><path class="cls-6" d="M73,51a1,1,0,0,1-1-1V44a1,1,0,0,1,2,0v6A1,1,0,0,1,73,51Z"/><path class="cls-6" d="M70,50a1,1,0,0,1-1-1V45a1,1,0,0,1,2,0v4A1,1,0,0,1,70,50Z"/><path class="cls-6" d="M76,48H68a1,1,0,0,1,0-2h8a1,1,0,0,1,0,2Z"/><path class="cls-6" d="M83,51a1,1,0,0,1-1-1V44a1,1,0,0,1,2,0v6A1,1,0,0,1,83,51Z"/><path class="cls-6" d="M86,50a1,1,0,0,1-1-1V45a1,1,0,0,1,2,0v4A1,1,0,0,1,86,50Z"/><path class="cls-6" d="M88,48H80a1,1,0,0,1,0-2h8a1,1,0,0,1,0,2Z"/><rect class="cls-3" height="9" width="4" x="76" y="42.03"/><path class="cls-6" d="M80,52H76a1,1,0,0,1-1-1V42a1,1,0,0,1,1-1h4a1,1,0,0,1,1,1v9A1,1,0,0,1,80,52Zm-3-2h2V43H77Z"/><path class="cls-6" d="M117,116H25a1,1,0,0,1,0-2h92a1,1,0,0,1,0,2Z"/><path class="cls-6" d="M121,116h-1a1,1,0,0,1,0-2h1a1,1,0,0,1,0,2Z"/><path class="cls-6" d="M22,116H14a1,1,0,0,1,0-2h8a1,1,0,0,1,0,2Z"/><path class="cls-6" d="M127,102H1a1,1,0,0,1,0-2H127a1,1,0,0,1,0,2Z"/><path class="cls-3" d="M49.11,12.64A6,6,0,0,1,60.74,9.87a3.21,3.21,0,0,1,5.21,2.51c0,.09,0,.18,0,.27A4.79,4.79,0,0,1,64.34,22H50.68a4.8,4.8,0,0,1-1.57-9.34Z"/><path class="cls-4" d="M49.11,14.64a6,6,0,0,1,11.62-2.77,3.21,3.21,0,0,1,5.21,2.51c0,.09,0,.18,0,.27A4.81,4.81,0,0,1,69,18.19a4.76,4.76,0,0,0-3.11-5.54c0-.09,0-.18,0-.27a3.21,3.21,0,0,0-5.21-2.51,6,6,0,0,0-11.62,2.77A4.76,4.76,0,0,0,46,18.19,4.81,4.81,0,0,1,49.11,14.64Z"/><g class="cls-1"><path class="cls-5" d="M64.34,20H50.68A4.81,4.81,0,0,1,46,16.19a4.75,4.75,0,0,0-.11,1A4.81,4.81,0,0,0,50.68,22H64.34a4.81,4.81,0,0,0,4.82-4.8,4.75,4.75,0,0,0-.11-1A4.81,4.81,0,0,1,64.34,20Z"/></g><path class="cls-6" d="M64.34,23H50.68a5.79,5.79,0,0,1-2.61-11v0a7,7,0,0,1,13.1-3.5A4.22,4.22,0,0,1,66.93,12a5.79,5.79,0,0,1-2.59,11ZM55.1,7a5,5,0,0,0-5,5,4.93,4.93,0,0,0,0,.55,1,1,0,0,1-.67,1.06A3.79,3.79,0,0,0,50.68,21H64.34a3.79,3.79,0,0,0,1.26-7.38,1,1,0,0,1-.67-1c0-.07,0-.13,0-.2a2.21,2.21,0,0,0-3.59-1.72,1,1,0,0,1-1.56-.43A5,5,0,0,0,55.1,7Z"/><path class="cls-3" d="M50.68,12.37a4.83,4.83,0,0,0-1.58.26"/><path class="cls-6" d="M49.1,13.63a1,1,0,0,1-.33-1.95,5.85,5.85,0,0,1,1.91-.32,1,1,0,0,1,0,2,3.84,3.84,0,0,0-1.25.21A1,1,0,0,1,49.1,13.63Z"/><path class="cls-3" d="M65.93,12.64a4.83,4.83,0,0,0-1.59-.27"/><path class="cls-6" d="M65.93,13.64a1,1,0,0,1-.33-.06,3.82,3.82,0,0,0-1.26-.21,1,1,0,0,1,0-2,5.82,5.82,0,0,1,1.92.32,1,1,0,0,1-.33,1.94Z"/><path class="cls-3" d="M60.76,9.85a3.22,3.22,0,0,0-.87,1"/><path class="cls-6" d="M59.88,11.89A1,1,0,0,1,59,10.42a4.18,4.18,0,0,1,1.15-1.37,1,1,0,0,1,1.23,1.58,2.17,2.17,0,0,0-.6.72A1,1,0,0,1,59.88,11.89Z"/><path class="cls-6" d="M111.38,11c-.47,0-1.91,0-2.19-1.16-.07-.3-.18-.76.55-1.57-.9-.57-2-1.21-3.19-1.79a1,1,0,0,1,.9-1.79,35.94,35.94,0,0,1,3.93,2.23,36.43,36.43,0,0,1,4-2.32,1,1,0,0,1,.9,1.79c-1.21.61-2.38,1.28-3.31,1.87.74.81.63,1.27.56,1.58C113.3,11,111.85,11,111.38,11Zm.28-1.24h0Z"/><path class="cls-6" d="M82.87,14c-1,0-1.65-.35-1.81-1a1.16,1.16,0,0,1,.22-1.09c-.57-.35-1.24-.72-1.91-1.06A1,1,0,0,1,80.27,9a26.59,26.59,0,0,1,2.6,1.46A26.89,26.89,0,0,1,85.55,9a1,1,0,0,1,.9,1.78c-.7.35-1.4.75-2,1.11A1.16,1.16,0,0,1,84.69,13C84.52,13.65,83.91,14,82.87,14Zm-.07-1h0Z"/><path class="cls-4" d="M112.51,42a1,1,0,0,1-.38-.08.84.84,0,0,1-.33-.22,1,1,0,0,1-.29-.7.84.84,0,0,1,.08-.38.93.93,0,0,1,.21-.33,1,1,0,0,1,1.41,0,.84.84,0,0,1,.22.33,1,1,0,0,1,.08.38,1,1,0,0,1-.3.7A.92.92,0,0,1,112.51,42Z"/><path class="cls-4" d="M110.51,46h-6a1,1,0,0,1,0-2h6a1,1,0,0,1,0,2Z"/><path class="cls-4" d="M108.51,42h-7a1,1,0,0,1,0-2h7a1,1,0,0,1,0,2Z"/><path class="cls-4" d="M100.51,46h-2a1,1,0,0,1,0-2h2a1,1,0,0,1,0,2Z"/><path class="cls-4" d="M108.51,50h-8a1,1,0,1,1,0-2h8a1,1,0,0,1,0,2Z"/></g><path class="cls-2" d="M39,87H9L5,65h5a6,6,0,0,1,4.77,2.36l9.48,12.4A10,10,0,0,0,28.64,83Z"/><g class="cls-12"><path class="cls-6" d="M12.5,88a1,1,0,0,1-1-.82l-4-22a1,1,0,1,1,2-.36l4,22a1,1,0,0,1-.8,1.16Z"/></g><g class="cls-1"><path class="cls-8" d="M28.64,83a10,10,0,0,1-1.92-1H8.09L9,87H39Z"/></g><g class="cls-1"><path class="cls-4" d="M10,68c1.87,0,2.22.46,3.35,1.94l9.89,12.81A10,10,0,0,0,27.64,86l2.56,1H39L28.64,83a10,10,0,0,1-4.35-3.26L14.8,67.36A6,6,0,0,0,10,65H5l.55,3Z"/></g><path class="cls-6" d="M39,88H9a1,1,0,0,1-1-.82l-4-22A1,1,0,0,1,5,64h5a7,7,0,0,1,5.56,2.75l9.48,12.4A9,9,0,0,0,29,82.08l10.36,4A1,1,0,0,1,39,88ZM9.83,86H33.61l-5.34-2.05a11,11,0,0,1-4.79-3.59L14,68a5,5,0,0,0-4-2H6.2Z"/><path class="cls-2" d="M119.43,93.24a4,4,0,0,1-2.56-1.83C114.42,87.66,108.24,85,101,85H6a2,2,0,0,0-2,2v2.71a2,2,0,0,0,1.18,1.82l20,9A50,50,0,0,0,45.77,105h71.12c5,0,10.12-2.69,10.12-6h0C127,96.27,123.23,94,119.43,93.24Z"/><path class="cls-3" d="M5.18,91.53,17.29,97h109c-1.26-1.81-4.06-3.22-6.88-3.76a4,4,0,0,1-2.56-1.83C114.42,87.66,108.24,85,101,85H6a2,2,0,0,0-2,2v2.71A2,2,0,0,0,5.18,91.53Z"/><g class="cls-1"><path class="cls-8" d="M116.88,102H45.77a50,50,0,0,1-20.58-4.43l-20-9A2,2,0,0,1,4,86.82,1.68,1.68,0,0,0,4,87v2.71a2,2,0,0,0,1.18,1.82l20,9A50,50,0,0,0,45.77,105h71.12c5,0,10.12-2.69,10.12-6h0a3.25,3.25,0,0,0-.38-1.48C125.38,100.1,121.12,102,116.88,102Z"/></g><path class="cls-4" d="M6,88h95c7.24,0,13.42,2.66,15.87,6.41a4,4,0,0,0,2.56,1.83A14.84,14.84,0,0,1,122,97h4.29c-1.26-1.81-4.06-3.22-6.88-3.76a4,4,0,0,1-2.56-1.83C114.42,87.66,108.24,85,101,85H6a2,2,0,0,0-2,2v2.71c0,.05,0,.1,0,.15A2,2,0,0,1,6,88Z"/><path class="cls-6" d="M116.88,106H45.77a50.65,50.65,0,0,1-21-4.52l-20-9A3,3,0,0,1,3,89.71V87a3,3,0,0,1,3-3h95c7.42,0,14,2.69,16.71,6.87a3,3,0,0,0,1.91,1.39h0c4.17.8,8.38,3.37,8.38,6.74C128,103.13,122.14,106,116.88,106ZM6,86a1,1,0,0,0-1,1v2.71a1,1,0,0,0,.59.91l20,9A48.68,48.68,0,0,0,45.77,104h71.12c4.69,0,9.12-2.43,9.12-5,0-1.92-3-4.07-6.76-4.78A5,5,0,0,1,116,92c-2.33-3.56-8.37-6-15-6Z"/><rect class="cls-3" height="8" width="6" x="91" y="89"/><path class="cls-6" d="M97,98H91a1,1,0,0,1-1-1V89a1,1,0,0,1,1-1h6a1,1,0,0,1,1,1v8A1,1,0,0,1,97,98Zm-5-2h4V90H92Z"/><rect class="cls-3" height="8" width="6" x="27" y="89"/><path class="cls-6" d="M33,98H27a1,1,0,0,1-1-1V89a1,1,0,0,1,1-1h6a1,1,0,0,1,1,1v8A1,1,0,0,1,33,98Zm-5-2h4V90H28Z"/><path class="cls-11" d="M1,84H6l15,5A71.37,71.37,0,0,1,6,89Z"/><path class="cls-6" d="M13.33,90.39A61.46,61.46,0,0,1,5.87,90a1,1,0,0,1-.58-.29l-5-5A1,1,0,0,1,1,83H6a1,1,0,0,1,.32.05l15,5a1,1,0,0,1-.2,1.94A70.62,70.62,0,0,1,13.33,90.39ZM6.46,88a68,68,0,0,0,9.44.31L5.84,85H3.41Z"/><rect class="cls-7" height="4" rx="1.5" ry="1.5" width="3" x="47" y="89"/><path class="cls-6" d="M48.5,94A2.5,2.5,0,0,1,46,91.5v-1a2.5,2.5,0,0,1,5,0v1A2.5,2.5,0,0,1,48.5,94Zm0-4a.5.5,0,0,0-.5.5v1a.5.5,0,0,0,1,0v-1A.5.5,0,0,0,48.5,90Z"/><rect class="cls-7" height="4" rx="1.5" ry="1.5" width="3" x="54" y="89"/><path class="cls-6" d="M55.5,94A2.5,2.5,0,0,1,53,91.5v-1a2.5,2.5,0,0,1,5,0v1A2.5,2.5,0,0,1,55.5,94Zm0-4a.5.5,0,0,0-.5.5v1a.5.5,0,0,0,1,0v-1A.5.5,0,0,0,55.5,90Z"/><rect class="cls-7" height="4" rx="1.5" ry="1.5" width="3" x="61" y="89"/><path class="cls-6" d="M62.5,94A2.5,2.5,0,0,1,60,91.5v-1a2.5,2.5,0,0,1,5,0v1A2.5,2.5,0,0,1,62.5,94Zm0-4a.5.5,0,0,0-.5.5v1a.5.5,0,0,0,1,0v-1A.5.5,0,0,0,62.5,90Z"/><rect class="cls-7" height="4" rx="1.5" ry="1.5" width="3" x="68" y="89"/><path class="cls-6" d="M69.5,94A2.5,2.5,0,0,1,67,91.5v-1a2.5,2.5,0,0,1,5,0v1A2.5,2.5,0,0,1,69.5,94Zm0-4a.5.5,0,0,0-.5.5v1a.5.5,0,0,0,1,0v-1A.5.5,0,0,0,69.5,90Z"/><rect class="cls-7" height="4" rx="1.5" ry="1.5" width="3" x="75" y="89"/><path class="cls-6" d="M76.5,94A2.5,2.5,0,0,1,74,91.5v-1a2.5,2.5,0,0,1,5,0v1A2.5,2.5,0,0,1,76.5,94Zm0-4a.5.5,0,0,0-.5.5v1a.5.5,0,0,0,1,0v-1A.5.5,0,0,0,76.5,90Z"/><rect class="cls-7" height="4" rx="1.5" ry="1.5" width="3" x="82" y="89"/><path class="cls-6" d="M83.5,94A2.5,2.5,0,0,1,81,91.5v-1a2.5,2.5,0,0,1,5,0v1A2.5,2.5,0,0,1,83.5,94Zm0-4a.5.5,0,0,0-.5.5v1a.5.5,0,0,0,1,0v-1A.5.5,0,0,0,83.5,90Z"/><path class="cls-7" d="M116.87,91.41a10.2,10.2,0,0,0-2.3-2.41H105a4,4,0,0,0,4,4h9.67A4.27,4.27,0,0,1,116.87,91.41Z"/><path class="cls-6" d="M118.67,94H109a5,5,0,0,1-5-5,1,1,0,0,1,1-1h9.56a1,1,0,0,1,.61.21,11.18,11.18,0,0,1,2.53,2.66,3.27,3.27,0,0,0,1.37,1.22,1,1,0,0,1-.41,1.91Zm-12.5-4A3,3,0,0,0,109,92h7.06l0,0h0a8.89,8.89,0,0,0-1.82-2Z"/><path class="cls-7" d="M116.87,91.41a10.2,10.2,0,0,0-2.3-2.41h-5l2.4,4h6.67A4.27,4.27,0,0,1,116.87,91.41Z"/><path class="cls-6" d="M118.67,94H112a1,1,0,0,1-.86-.49l-2.4-4A1,1,0,0,1,109.6,88h5a1,1,0,0,1,.61.21,11.13,11.13,0,0,1,2.53,2.65,3.27,3.27,0,0,0,1.37,1.22,1,1,0,0,1-.41,1.91Zm-6.1-2h3.49l0,0h0a8.86,8.86,0,0,0-1.82-2h-2.85Z"/><path class="cls-6" d="M54,112a1,1,0,0,1-1-1v-5a1,1,0,0,1,2,0v5A1,1,0,0,1,54,112Z"/><polygon class="cls-11" points="57 102 51 102 52 106 56 106 57 102"/><path class="cls-6" d="M56,107H52a1,1,0,0,1-1-.76l-1-4A1,1,0,0,1,51,101h6a1,1,0,0,1,1,1.24l-1,4A1,1,0,0,1,56,107Zm-3.22-2h2.44l.5-2H52.28Z"/><circle class="cls-13" cx="54" cy="113" r="2"/><path class="cls-6" d="M54,116a3,3,0,1,1,3-3A3,3,0,0,1,54,116Zm0-4a1,1,0,1,0,1,1A1,1,0,0,0,54,112Z"/><path class="cls-6" d="M112,114a1,1,0,0,1-.37-.07,1,1,0,0,1-.56-1.3l2-5a1,1,0,0,1,1.86.74l-2,5A1,1,0,0,1,112,114Z"/><polygon class="cls-11" points="116 105 110 105 111 108 117 108 116 105"/><path class="cls-6" d="M117,109h-6a1,1,0,0,1-.95-.68l-1-3A1,1,0,0,1,110,104h6a1,1,0,0,1,.95.68l1,3A1,1,0,0,1,117,109Zm-5.28-2h3.89l-.33-1h-3.89Z"/><circle class="cls-13" cx="112" cy="113" r="2"/><path class="cls-6" d="M112,116a3,3,0,1,1,3-3A3,3,0,0,1,112,116Zm0-4a1,1,0,1,0,1,1A1,1,0,0,0,112,112Z"/><path class="cls-11" d="M37,96H48l28.59,2.86A1.57,1.57,0,0,1,78,100.42h0A1.57,1.57,0,0,1,76.43,102H49.77a10,10,0,0,1-5.14-1.43Z"/><path class="cls-6" d="M76.43,103H49.77a11,11,0,0,1-5.66-1.57l-7.62-4.58A1,1,0,0,1,37,95H48l28.69,2.86a2.57,2.57,0,0,1-.26,5.14ZM40.61,97l4.53,2.72A9,9,0,0,0,49.77,101H76.43a.57.57,0,0,0,.06-1.15L47.9,97Z"/><path class="cls-2" d="M44.41,94.55a3.64,3.64,0,0,1-1.58-1.19l-3.45-4.51A2.18,2.18,0,0,0,37.65,88H35.82L37,96H48.18Z"/><path class="cls-6" d="M48.18,97H37a1,1,0,0,1-1-.85l-1.18-8a1,1,0,0,1,1-1.15h1.83a3.19,3.19,0,0,1,2.53,1.25l3.45,4.51a2.64,2.64,0,0,0,1.15.86h0l3.77,1.45A1,1,0,0,1,48.18,97ZM37.86,95h5.26A4.63,4.63,0,0,1,42,94l-3.45-4.51a1.19,1.19,0,0,0-.94-.46H37Z"/><path class="cls-3" d="M66,102H64a1,1,0,0,0-1,1v2a1,1,0,0,0,1,1h2Z"/><path class="cls-6" d="M66,107H64a2,2,0,0,1-2-2v-2a2,2,0,0,1,2-2h2a1,1,0,0,1,1,1v4A1,1,0,0,1,66,107Zm-2-4v2h1v-2Z"/><path class="cls-3" d="M70.9,99.66,66,101v6l4.9,1.34A20.89,20.89,0,0,0,83,108h0v-8h0A20.89,20.89,0,0,0,70.9,99.66Z"/><g class="cls-1"><path class="cls-5" d="M70.9,105.34,66,104v3l4.9,1.34A20.89,20.89,0,0,0,83,108v-3A20.89,20.89,0,0,1,70.9,105.34Z"/></g><path class="cls-4" d="M70.9,99.66,66,101v3l4.9-1.34A20.89,20.89,0,0,1,83,103v-3A20.89,20.89,0,0,0,70.9,99.66Z"/><path class="cls-6" d="M76.4,110.08a21.88,21.88,0,0,1-5.76-.77L65.74,108a1,1,0,0,1-.74-1v-6a1,1,0,0,1,.74-1l4.9-1.34h0a21.8,21.8,0,0,1,12.68.35A1,1,0,0,1,84,100v8a1,1,0,0,1-.68.95A21.87,21.87,0,0,1,76.4,110.08ZM67,106.24l4.16,1.13A19.81,19.81,0,0,0,82,107.27v-6.53a19.8,19.8,0,0,0-10.84-.11L67,101.76Z"/><g class="cls-12"><path class="cls-6" d="M80,109.76a1,1,0,0,1-1-1V99.24a1,1,0,0,1,2,0v9.52A1,1,0,0,1,80,109.76Z"/></g></svg>