<?xml version="1.0" ?><svg data-name="003" id="_003" viewBox="0 0 128 128" xmlns="http://www.w3.org/2000/svg"><defs><style>.cls-1{opacity:0.3;}.cls-2{fill:#97c1ff;}.cls-3{fill:#96d7ff;}.cls-4{fill:#ced8ee;}.cls-5{fill:#6d6daa;}.cls-6{fill:#eef6ff;}.cls-7{fill:#8d96b8;}.cls-8{fill:#dfd6de;}.cls-9{fill:#fff;}.cls-10{fill:#c9c1f5;}.cls-11{fill:#9eb2cc;}.cls-12{fill:#5cbeff;}.cls-13{fill:#939fc6;}.cls-14{fill:#b1f1a8;}.cls-15{opacity:0.5;}.cls-16{fill:#48bc33;}.cls-17{fill:#c7e9ff;}.cls-18{fill:#0070b8;}.cls-19{fill:#ff9797;}</style></defs><title/><g class="cls-1"><path class="cls-2" d="M126.19,46.69a30,30,0,0,0-23.51-25A19.69,19.69,0,0,1,91.74,15.1,37,37,0,0,0,27.42,30.78,19.57,19.57,0,0,1,17,43.95,28,28,0,1,0,54.66,81.29,9.41,9.41,0,0,1,63.17,76H64a12.39,12.39,0,0,1,12,9.74,20,20,0,0,0,26.06,14.14A20,20,0,0,0,115.47,82,21.38,21.38,0,0,1,120,69.65,29.91,29.91,0,0,0,126.19,46.69Z"/><path class="cls-3" d="M93,22a1,1,0,0,1-.71-.29,1.48,1.48,0,0,1-.22-.33A1.23,1.23,0,0,1,92,21a1.05,1.05,0,0,1,.29-.71,1,1,0,0,1,.33-.21.91.91,0,0,1,.76,0,1.15,1.15,0,0,1,.33.21A1.05,1.05,0,0,1,94,21a1,1,0,0,1-.29.71,1.15,1.15,0,0,1-.33.21A1,1,0,0,1,93,22Z"/><path class="cls-3" d="M115,12h-8a1,1,0,0,1,0-2h8a1,1,0,0,1,0,2Z"/><path class="cls-3" d="M117,16H97a1,1,0,0,1,0-2h20a1,1,0,0,1,0,2Z"/><path class="cls-3" d="M113,20H103a1,1,0,0,1,0-2h10a1,1,0,0,1,0,2Z"/><rect class="cls-4" height="65.99" width="43" x="76" y="49"/><path class="cls-5" d="M119,116H76a1,1,0,0,1-1-1V49a1,1,0,0,1,1-1h43a1,1,0,0,1,1,1v66A1,1,0,0,1,119,116Zm-42-2h41V50H77Z"/><path class="cls-6" d="M121,49H76V38h38.07a3,3,0,0,1,2.73,1.76Z"/><path class="cls-5" d="M121,50H76a1,1,0,0,1-1-1V38a1,1,0,0,1,1-1h38.07a4,4,0,0,1,3.64,2.34l4.2,9.24A1,1,0,0,1,121,50ZM77,48h42.45l-3.56-7.83A2,2,0,0,0,114.07,39H77Z"/><path class="cls-7" d="M91.5,44h0A2.5,2.5,0,0,1,94,46.5V49a0,0,0,0,1,0,0H89a0,0,0,0,1,0,0V46.5A2.5,2.5,0,0,1,91.5,44Z"/><path class="cls-5" d="M94,50H89a1,1,0,0,1-1-1V46.5a3.5,3.5,0,1,1,7,0V49A1,1,0,0,1,94,50Zm-4-2h3V46.5a1.5,1.5,0,1,0-3,0Z"/><path class="cls-7" d="M101.5,44h0a2.5,2.5,0,0,1,2.5,2.5V49a0,0,0,0,1,0,0H99a0,0,0,0,1,0,0V46.5A2.5,2.5,0,0,1,101.5,44Z"/><path class="cls-5" d="M104,50H99a1,1,0,0,1-1-1V46.5a3.5,3.5,0,1,1,7,0V49A1,1,0,0,1,104,50Zm-4-2h3V46.5a1.5,1.5,0,0,0-3,0Z"/><path class="cls-7" d="M111.5,44h0a2.5,2.5,0,0,1,2.5,2.5V49a0,0,0,0,1,0,0h-5a0,0,0,0,1,0,0V46.5A2.5,2.5,0,0,1,111.5,44Z"/><path class="cls-5" d="M114,50h-5a1,1,0,0,1-1-1V46.5a3.5,3.5,0,0,1,7,0V49A1,1,0,0,1,114,50Zm-4-2h3V46.5a1.5,1.5,0,0,0-3,0Z"/><path class="cls-5" d="M94,69a1,1,0,0,1-1-1V66a1,1,0,0,1,2,0v2A1,1,0,0,1,94,69Z"/><path class="cls-5" d="M109,69a1,1,0,0,1-1-1V66a1,1,0,0,1,2,0v2A1,1,0,0,1,109,69Z"/><path class="cls-5" d="M104,69a1,1,0,0,1-1-1V66a1,1,0,0,1,2,0v2A1,1,0,0,1,104,69Z"/><path class="cls-5" d="M99,69a1,1,0,0,1-1-1V66a1,1,0,1,1,2,0v2A1,1,0,0,1,99,69Z"/><path class="cls-5" d="M114,69a1,1,0,0,1-1-1V66a1,1,0,0,1,2,0v2A1,1,0,0,1,114,69Z"/><path class="cls-5" d="M94,57a1,1,0,0,1-1-1V54a1,1,0,1,1,2,0v2A1,1,0,0,1,94,57Z"/><path class="cls-5" d="M109,57a1,1,0,0,1-1-1V54a1,1,0,0,1,2,0v2A1,1,0,0,1,109,57Z"/><path class="cls-5" d="M104,57a1,1,0,0,1-1-1V54a1,1,0,0,1,2,0v2A1,1,0,0,1,104,57Z"/><path class="cls-5" d="M99,57a1,1,0,0,1-1-1V54a1,1,0,1,1,2,0v2A1,1,0,0,1,99,57Z"/><path class="cls-5" d="M114,57a1,1,0,0,1-1-1V54a1,1,0,0,1,2,0v2A1,1,0,0,1,114,57Z"/><path class="cls-5" d="M94,81a1,1,0,0,1-1-1V78a1,1,0,0,1,2,0v2A1,1,0,0,1,94,81Z"/><path class="cls-5" d="M109,81a1,1,0,0,1-1-1V78a1,1,0,0,1,2,0v2A1,1,0,0,1,109,81Z"/><path class="cls-5" d="M104,81a1,1,0,0,1-1-1V78a1,1,0,0,1,2,0v2A1,1,0,0,1,104,81Z"/><path class="cls-5" d="M99,81a1,1,0,0,1-1-1V78a1,1,0,1,1,2,0v2A1,1,0,0,1,99,81Z"/><path class="cls-5" d="M114,81a1,1,0,0,1-1-1V78a1,1,0,0,1,2,0v2A1,1,0,0,1,114,81Z"/><path class="cls-5" d="M94,93a1,1,0,0,1-1-1V90a1,1,0,0,1,2,0v2A1,1,0,0,1,94,93Z"/><path class="cls-5" d="M109,93a1,1,0,0,1-1-1V90a1,1,0,0,1,2,0v2A1,1,0,0,1,109,93Z"/><path class="cls-5" d="M104,93a1,1,0,0,1-1-1V90a1,1,0,0,1,2,0v2A1,1,0,0,1,104,93Z"/><path class="cls-5" d="M99,93a1,1,0,0,1-1-1V90a1,1,0,1,1,2,0v2A1,1,0,0,1,99,93Z"/><path class="cls-5" d="M114,93a1,1,0,0,1-1-1V90a1,1,0,0,1,2,0v2A1,1,0,0,1,114,93Z"/><path class="cls-5" d="M119,74H76a1,1,0,1,1,0-2h43a1,1,0,1,1,0,2Z"/><path class="cls-5" d="M119,62H76a1,1,0,1,1,0-2h43a1,1,0,1,1,0,2Z"/><path class="cls-5" d="M119,86H76a1,1,0,0,1,0-2h43a1,1,0,0,1,0,2Z"/><path class="cls-5" d="M119,98H76a1,1,0,1,1,0-2h43a1,1,0,1,1,0,2Z"/><path class="cls-7" d="M109,115H99v-9a5,5,0,0,1,5-5h0a5,5,0,0,1,5,5Z"/><path class="cls-5" d="M109,116H99a1,1,0,0,1-1-1v-9a6,6,0,0,1,12,0v9A1,1,0,0,1,109,116Zm-9-2h8v-8a4,4,0,0,0-8,0Z"/><polygon class="cls-8" points="91.03 33.18 91.03 115.01 64.68 115.01 64.68 33.18 77.85 24.95 91.03 33.18"/><polygon class="cls-7" points="91.03 28.24 91.03 33.18 77.85 24.95 64.68 33.18 64.68 28.24 77.85 20 91.03 28.24"/><path class="cls-5" d="M64.68,34.18a1,1,0,0,1-1-1V28.24a1,1,0,0,1,.47-.85l13.17-8.24a1,1,0,0,1,1.06,0l13.18,8.24a1,1,0,0,1,.47.85v4.94A1,1,0,0,1,90.5,34l-12.65-7.9L65.21,34A1,1,0,0,1,64.68,34.18ZM77.85,23.95a1,1,0,0,1,.53.15L90,31.37V28.79L77.85,21.18,65.68,28.79v2.58L77.32,24.1A1,1,0,0,1,77.85,23.95Z"/><polygon class="cls-6" points="91.03 38.18 91.03 115.01 64.68 115.01 64.68 38.18 64.68 33.24 77.85 25 91.03 33.24 91.03 38.18"/><path class="cls-5" d="M91,116H64.68a1,1,0,0,1-1-1V33.24a1,1,0,0,1,.47-.85l13.17-8.24a1,1,0,0,1,1.06,0l13.18,8.24a1,1,0,0,1,.47.85V115A1,1,0,0,1,91,116Zm-25.35-2H90V33.79L77.85,26.18,65.68,33.79Z"/><circle class="cls-7" cx="77.85" cy="34.82" r="2.5"/><path class="cls-5" d="M77.85,38.32a3.5,3.5,0,1,1,3.5-3.5A3.5,3.5,0,0,1,77.85,38.32Zm0-5a1.5,1.5,0,1,0,1.5,1.5A1.5,1.5,0,0,0,77.85,33.32Z"/><path class="cls-5" d="M85,54a1,1,0,0,1-1-1V51a1,1,0,0,1,2,0v2A1,1,0,0,1,85,54Z"/><path class="cls-5" d="M79,54a1,1,0,0,1-1-1V51a1,1,0,0,1,2,0v2A1,1,0,0,1,79,54Z"/><path class="cls-5" d="M73,54a1,1,0,0,1-1-1V51a1,1,0,0,1,2,0v2A1,1,0,0,1,73,54Z"/><path class="cls-5" d="M85,47a1,1,0,0,1-1-1V44a1,1,0,0,1,2,0v2A1,1,0,0,1,85,47Z"/><path class="cls-5" d="M79,47a1,1,0,0,1-1-1V44a1,1,0,0,1,2,0v2A1,1,0,0,1,79,47Z"/><path class="cls-5" d="M73,47a1,1,0,0,1-1-1V44a1,1,0,0,1,2,0v2A1,1,0,0,1,73,47Z"/><path class="cls-5" d="M85,61a1,1,0,0,1-1-1V58a1,1,0,0,1,2,0v2A1,1,0,0,1,85,61Z"/><path class="cls-5" d="M79,61a1,1,0,0,1-1-1V58a1,1,0,0,1,2,0v2A1,1,0,0,1,79,61Z"/><path class="cls-5" d="M73,61a1,1,0,0,1-1-1V58a1,1,0,0,1,2,0v2A1,1,0,0,1,73,61Z"/><path class="cls-5" d="M85,76a1,1,0,0,1-1-1V73a1,1,0,0,1,2,0v2A1,1,0,0,1,85,76Z"/><path class="cls-5" d="M79,76a1,1,0,0,1-1-1V73a1,1,0,0,1,2,0v2A1,1,0,0,1,79,76Z"/><path class="cls-5" d="M73,76a1,1,0,0,1-1-1V73a1,1,0,0,1,2,0v2A1,1,0,0,1,73,76Z"/><path class="cls-5" d="M85,69a1,1,0,0,1-1-1V66a1,1,0,0,1,2,0v2A1,1,0,0,1,85,69Z"/><path class="cls-5" d="M79,69a1,1,0,0,1-1-1V66a1,1,0,0,1,2,0v2A1,1,0,0,1,79,69Z"/><path class="cls-5" d="M73,69a1,1,0,0,1-1-1V66a1,1,0,0,1,2,0v2A1,1,0,0,1,73,69Z"/><path class="cls-5" d="M85,83a1,1,0,0,1-1-1V80a1,1,0,0,1,2,0v2A1,1,0,0,1,85,83Z"/><path class="cls-5" d="M79,83a1,1,0,0,1-1-1V80a1,1,0,0,1,2,0v2A1,1,0,0,1,79,83Z"/><path class="cls-5" d="M73,83a1,1,0,0,1-1-1V80a1,1,0,0,1,2,0v2A1,1,0,0,1,73,83Z"/><path class="cls-5" d="M85,91a1,1,0,0,1-1-1V88a1,1,0,0,1,2,0v2A1,1,0,0,1,85,91Z"/><path class="cls-5" d="M79,91a1,1,0,0,1-1-1V88a1,1,0,0,1,2,0v2A1,1,0,0,1,79,91Z"/><path class="cls-5" d="M73,91a1,1,0,0,1-1-1V88a1,1,0,0,1,2,0v2A1,1,0,0,1,73,91Z"/><path class="cls-5" d="M85,98a1,1,0,0,1-1-1V95a1,1,0,0,1,2,0v2A1,1,0,0,1,85,98Z"/><path class="cls-5" d="M79,98a1,1,0,0,1-1-1V95a1,1,0,0,1,2,0v2A1,1,0,0,1,79,98Z"/><path class="cls-5" d="M73,98a1,1,0,0,1-1-1V95a1,1,0,0,1,2,0v2A1,1,0,0,1,73,98Z"/><path class="cls-5" d="M83.85,36H80.42a1,1,0,0,1,0-2h3.43a1,1,0,0,1,0,2Z"/><path class="cls-5" d="M75.28,36H71.85a1,1,0,0,1,0-2h3.43a1,1,0,0,1,0,2Z"/><rect class="cls-9" height="8" width="22" x="69.03" y="106.99"/><path class="cls-5" d="M91,116H69a1,1,0,0,1-1-1v-8a1,1,0,0,1,1-1H91a1,1,0,0,1,1,1v8A1,1,0,0,1,91,116Zm-21-2H90v-6H70Z"/><rect class="cls-7" height="8" width="6" x="75.03" y="106.99"/><path class="cls-5" d="M81,116H75a1,1,0,0,1-1-1v-8a1,1,0,0,1,1-1h6a1,1,0,0,1,1,1v8A1,1,0,0,1,81,116Zm-5-2h4v-6H76Z"/><rect class="cls-6" height="71.02" width="40" x="12.03" y="43.99"/><path class="cls-5" d="M52,116H12a1,1,0,0,1-1-1V44a1,1,0,0,1,1-1H52a1,1,0,0,1,1,1v71A1,1,0,0,1,52,116Zm-39-2H51V45H13Z"/><rect class="cls-9" height="8" width="30" x="12.03" y="98.99"/><path class="cls-5" d="M42,108H12a1,1,0,0,1-1-1V99a1,1,0,0,1,1-1H42a1,1,0,0,1,1,1v8A1,1,0,0,1,42,108Zm-29-2H41v-6H13Z"/><path class="cls-5" d="M52,66a1,1,0,0,1-1-1V45H13V60a1,1,0,0,1-2,0V44a1,1,0,0,1,1-1H52a1,1,0,0,1,1,1V65A1,1,0,0,1,52,66Z"/><rect class="cls-6" height="5" width="42" x="10.03" y="38.99"/><path class="cls-5" d="M52,45H10a1,1,0,0,1-1-1V39a1,1,0,0,1,1-1H52a1,1,0,0,1,1,1v5A1,1,0,0,1,52,45ZM11,43H51V40H11Z"/><path class="cls-5" d="M42,49H12a1,1,0,0,1,0-2H42a1,1,0,0,1,0,2Z"/><path class="cls-5" d="M17,49a1,1,0,0,1-1-1V45a1,1,0,0,1,2,0v3A1,1,0,0,1,17,49Z"/><path class="cls-5" d="M22,49a1,1,0,0,1-1-1V45a1,1,0,0,1,2,0v3A1,1,0,0,1,22,49Z"/><path class="cls-5" d="M27,49a1,1,0,0,1-1-1V45a1,1,0,0,1,2,0v3A1,1,0,0,1,27,49Z"/><path class="cls-5" d="M32,49a1,1,0,0,1-1-1V45a1,1,0,0,1,2,0v3A1,1,0,0,1,32,49Z"/><polygon class="cls-6" points="48.03 38.99 12.03 38.99 15.03 33.99 48.03 33.99 48.03 38.99"/><path class="cls-5" d="M48,40H12a1,1,0,0,1-.86-1.51l3-5A1,1,0,0,1,15,33H48a1,1,0,0,1,1,1v5A1,1,0,0,1,48,40ZM13.8,38H47V35H15.6Z"/><polygon class="cls-6" points="43.03 33.99 19.03 33.99 22.03 28.99 43.03 28.99 43.03 33.99"/><path class="cls-5" d="M43,35H19a1,1,0,0,1-.86-1.51l3-5A1,1,0,0,1,22,28H43a1,1,0,0,1,1,1v5A1,1,0,0,1,43,35ZM20.8,33H42V30H22.6Z"/><path class="cls-5" d="M18,57a1,1,0,0,1-1-1V54a1,1,0,0,1,2,0v2A1,1,0,0,1,18,57Z"/><path class="cls-5" d="M24,57a1,1,0,0,1-1-1V54a1,1,0,0,1,2,0v2A1,1,0,0,1,24,57Z"/><path class="cls-5" d="M30,57a1,1,0,0,1-1-1V54a1,1,0,0,1,2,0v2A1,1,0,0,1,30,57Z"/><path class="cls-5" d="M36,57a1,1,0,0,1-1-1V54a1,1,0,0,1,2,0v2A1,1,0,0,1,36,57Z"/><path class="cls-5" d="M18,65a1,1,0,0,1-1-1V62a1,1,0,0,1,2,0v2A1,1,0,0,1,18,65Z"/><path class="cls-5" d="M24,65a1,1,0,0,1-1-1V62a1,1,0,0,1,2,0v2A1,1,0,0,1,24,65Z"/><path class="cls-5" d="M30,65a1,1,0,0,1-1-1V62a1,1,0,0,1,2,0v2A1,1,0,0,1,30,65Z"/><path class="cls-5" d="M36,65a1,1,0,0,1-1-1V62a1,1,0,0,1,2,0v2A1,1,0,0,1,36,65Z"/><path class="cls-5" d="M18,73a1,1,0,0,1-1-1V70a1,1,0,0,1,2,0v2A1,1,0,0,1,18,73Z"/><path class="cls-5" d="M24,73a1,1,0,0,1-1-1V70a1,1,0,0,1,2,0v2A1,1,0,0,1,24,73Z"/><path class="cls-5" d="M30,73a1,1,0,0,1-1-1V70a1,1,0,0,1,2,0v2A1,1,0,0,1,30,73Z"/><path class="cls-5" d="M36,73a1,1,0,0,1-1-1V70a1,1,0,0,1,2,0v2A1,1,0,0,1,36,73Z"/><path class="cls-5" d="M18,81a1,1,0,0,1-1-1V78a1,1,0,0,1,2,0v2A1,1,0,0,1,18,81Z"/><path class="cls-5" d="M24,81a1,1,0,0,1-1-1V78a1,1,0,0,1,2,0v2A1,1,0,0,1,24,81Z"/><path class="cls-5" d="M30,81a1,1,0,0,1-1-1V78a1,1,0,0,1,2,0v2A1,1,0,0,1,30,81Z"/><path class="cls-5" d="M36,81a1,1,0,0,1-1-1V78a1,1,0,0,1,2,0v2A1,1,0,0,1,36,81Z"/><path class="cls-5" d="M18,89a1,1,0,0,1-1-1V86a1,1,0,0,1,2,0v2A1,1,0,0,1,18,89Z"/><path class="cls-5" d="M24,89a1,1,0,0,1-1-1V86a1,1,0,0,1,2,0v2A1,1,0,0,1,24,89Z"/><path class="cls-5" d="M30,89a1,1,0,0,1-1-1V86a1,1,0,0,1,2,0v2A1,1,0,0,1,30,89Z"/><path class="cls-5" d="M36,89a1,1,0,0,1-1-1V86a1,1,0,0,1,2,0v2A1,1,0,0,1,36,89Z"/><path class="cls-5" d="M18,97a1,1,0,0,1-1-1V94a1,1,0,0,1,2,0v2A1,1,0,0,1,18,97Z"/><path class="cls-5" d="M24,97a1,1,0,0,1-1-1V94a1,1,0,0,1,2,0v2A1,1,0,0,1,24,97Z"/><path class="cls-5" d="M30,97a1,1,0,0,1-1-1V94a1,1,0,0,1,2,0v2A1,1,0,0,1,30,97Z"/><path class="cls-5" d="M36,97a1,1,0,0,1-1-1V94a1,1,0,0,1,2,0v2A1,1,0,0,1,36,97Z"/><path class="cls-5" d="M37,49a1,1,0,0,1-1-1V45a1,1,0,0,1,2,0v3A1,1,0,0,1,37,49Z"/><path class="cls-5" d="M39,35a1,1,0,0,1-1-1V29a1,1,0,0,1,2,0v5A1,1,0,0,1,39,35Z"/><path class="cls-5" d="M54,7a1,1,0,0,1-1-1V2a1,1,0,0,1,2,0V6A1,1,0,0,1,54,7Z"/><rect class="cls-10" height="105" width="30" x="39.03" y="10"/><path class="cls-5" d="M69,116H39a1,1,0,0,1-1-1V10a1,1,0,0,1,1-1H69a1,1,0,0,1,1,1V115A1,1,0,0,1,69,116Zm-29-2H68V11H40Z"/><rect class="cls-6" height="3.99" width="32" x="38.03" y="5.99"/><path class="cls-5" d="M70,11H38a1,1,0,0,1-1-1V6a1,1,0,0,1,1-1H70a1,1,0,0,1,1,1v4A1,1,0,0,1,70,11ZM39,9H69V7H39Z"/><path class="cls-5" d="M71,11H37a1,1,0,1,1,0-2H71a1,1,0,1,1,0,2Z"/><path class="cls-5" d="M45,19a1,1,0,0,1-1-1V16a1,1,0,0,1,2,0v2A1,1,0,0,1,45,19Z"/><path class="cls-5" d="M51,19a1,1,0,0,1-1-1V16a1,1,0,0,1,2,0v2A1,1,0,0,1,51,19Z"/><path class="cls-5" d="M57,19a1,1,0,0,1-1-1V16a1,1,0,0,1,2,0v2A1,1,0,0,1,57,19Z"/><path class="cls-5" d="M63,19a1,1,0,0,1-1-1V16a1,1,0,0,1,2,0v2A1,1,0,0,1,63,19Z"/><path class="cls-5" d="M45,27a1,1,0,0,1-1-1V24a1,1,0,0,1,2,0v2A1,1,0,0,1,45,27Z"/><path class="cls-5" d="M51,27a1,1,0,0,1-1-1V24a1,1,0,0,1,2,0v2A1,1,0,0,1,51,27Z"/><path class="cls-5" d="M57,27a1,1,0,0,1-1-1V24a1,1,0,0,1,2,0v2A1,1,0,0,1,57,27Z"/><path class="cls-5" d="M63,27a1,1,0,0,1-1-1V24a1,1,0,0,1,2,0v2A1,1,0,0,1,63,27Z"/><path class="cls-5" d="M45,35a1,1,0,0,1-1-1V32a1,1,0,0,1,2,0v2A1,1,0,0,1,45,35Z"/><path class="cls-5" d="M51,35a1,1,0,0,1-1-1V32a1,1,0,0,1,2,0v2A1,1,0,0,1,51,35Z"/><path class="cls-5" d="M57,35a1,1,0,0,1-1-1V32a1,1,0,0,1,2,0v2A1,1,0,0,1,57,35Z"/><path class="cls-5" d="M63,35a1,1,0,0,1-1-1V32a1,1,0,0,1,2,0v2A1,1,0,0,1,63,35Z"/><path class="cls-5" d="M45,43a1,1,0,0,1-1-1V40a1,1,0,0,1,2,0v2A1,1,0,0,1,45,43Z"/><path class="cls-5" d="M51,43a1,1,0,0,1-1-1V40a1,1,0,0,1,2,0v2A1,1,0,0,1,51,43Z"/><path class="cls-5" d="M57,43a1,1,0,0,1-1-1V40a1,1,0,0,1,2,0v2A1,1,0,0,1,57,43Z"/><path class="cls-5" d="M63,43a1,1,0,0,1-1-1V40a1,1,0,0,1,2,0v2A1,1,0,0,1,63,43Z"/><path class="cls-5" d="M45,51a1,1,0,0,1-1-1V48a1,1,0,0,1,2,0v2A1,1,0,0,1,45,51Z"/><path class="cls-5" d="M51,51a1,1,0,0,1-1-1V48a1,1,0,0,1,2,0v2A1,1,0,0,1,51,51Z"/><path class="cls-5" d="M57,51a1,1,0,0,1-1-1V48a1,1,0,0,1,2,0v2A1,1,0,0,1,57,51Z"/><path class="cls-5" d="M63,51a1,1,0,0,1-1-1V48a1,1,0,0,1,2,0v2A1,1,0,0,1,63,51Z"/><path class="cls-5" d="M45,59a1,1,0,0,1-1-1V56a1,1,0,0,1,2,0v2A1,1,0,0,1,45,59Z"/><path class="cls-5" d="M51,59a1,1,0,0,1-1-1V56a1,1,0,0,1,2,0v2A1,1,0,0,1,51,59Z"/><path class="cls-5" d="M57,59a1,1,0,0,1-1-1V56a1,1,0,0,1,2,0v2A1,1,0,0,1,57,59Z"/><path class="cls-5" d="M63,59a1,1,0,0,1-1-1V56a1,1,0,0,1,2,0v2A1,1,0,0,1,63,59Z"/><path class="cls-5" d="M45,67a1,1,0,0,1-1-1V64a1,1,0,0,1,2,0v2A1,1,0,0,1,45,67Z"/><path class="cls-5" d="M51,67a1,1,0,0,1-1-1V64a1,1,0,0,1,2,0v2A1,1,0,0,1,51,67Z"/><path class="cls-5" d="M57,67a1,1,0,0,1-1-1V64a1,1,0,0,1,2,0v2A1,1,0,0,1,57,67Z"/><path class="cls-5" d="M63,67a1,1,0,0,1-1-1V64a1,1,0,0,1,2,0v2A1,1,0,0,1,63,67Z"/><path class="cls-5" d="M45,75a1,1,0,0,1-1-1V72a1,1,0,0,1,2,0v2A1,1,0,0,1,45,75Z"/><path class="cls-5" d="M51,75a1,1,0,0,1-1-1V72a1,1,0,0,1,2,0v2A1,1,0,0,1,51,75Z"/><path class="cls-5" d="M57,75a1,1,0,0,1-1-1V72a1,1,0,0,1,2,0v2A1,1,0,0,1,57,75Z"/><path class="cls-5" d="M63,75a1,1,0,0,1-1-1V72a1,1,0,0,1,2,0v2A1,1,0,0,1,63,75Z"/><path class="cls-5" d="M45,83a1,1,0,0,1-1-1V80a1,1,0,0,1,2,0v2A1,1,0,0,1,45,83Z"/><path class="cls-5" d="M51,83a1,1,0,0,1-1-1V80a1,1,0,0,1,2,0v2A1,1,0,0,1,51,83Z"/><path class="cls-5" d="M57,83a1,1,0,0,1-1-1V80a1,1,0,0,1,2,0v2A1,1,0,0,1,57,83Z"/><path class="cls-5" d="M63,83a1,1,0,0,1-1-1V80a1,1,0,0,1,2,0v2A1,1,0,0,1,63,83Z"/><path class="cls-5" d="M45,91a1,1,0,0,1-1-1V88a1,1,0,0,1,2,0v2A1,1,0,0,1,45,91Z"/><path class="cls-5" d="M51,91a1,1,0,0,1-1-1V88a1,1,0,0,1,2,0v2A1,1,0,0,1,51,91Z"/><path class="cls-5" d="M57,91a1,1,0,0,1-1-1V88a1,1,0,0,1,2,0v2A1,1,0,0,1,57,91Z"/><path class="cls-5" d="M63,91a1,1,0,0,1-1-1V88a1,1,0,0,1,2,0v2A1,1,0,0,1,63,91Z"/><path class="cls-5" d="M45,99a1,1,0,0,1-1-1V96a1,1,0,0,1,2,0v2A1,1,0,0,1,45,99Z"/><path class="cls-5" d="M51,99a1,1,0,0,1-1-1V96a1,1,0,0,1,2,0v2A1,1,0,0,1,51,99Z"/><path class="cls-5" d="M57,99a1,1,0,0,1-1-1V96a1,1,0,0,1,2,0v2A1,1,0,0,1,57,99Z"/><path class="cls-5" d="M63,99a1,1,0,0,1-1-1V96a1,1,0,0,1,2,0v2A1,1,0,0,1,63,99Z"/><rect class="cls-9" height="8" width="30" x="39.03" y="106.99"/><path class="cls-5" d="M69,116H39a1,1,0,0,1-1-1v-8a1,1,0,0,1,1-1H69a1,1,0,0,1,1,1v8A1,1,0,0,1,69,116Zm-29-2H68v-6H40Z"/><rect class="cls-7" height="12" width="14" x="47.03" y="102.99"/><path class="cls-5" d="M61,116H47a1,1,0,0,1-1-1V103a1,1,0,0,1,1-1H61a1,1,0,0,1,1,1v12A1,1,0,0,1,61,116Zm-13-2H60V104H48Z"/><path class="cls-5" d="M122,116H27a1,1,0,1,1,0-2h95a1,1,0,0,1,0,2Z"/><path class="cls-5" d="M127,116h-2a1,1,0,1,1,0-2h2a1,1,0,1,1,0,2Z"/><path class="cls-5" d="M6,116H5a1,1,0,1,1,0-2H6a1,1,0,0,1,0,2Z"/><path class="cls-5" d="M24,116H9a1,1,0,0,1,0-2H24a1,1,0,0,1,0,2Z"/><path class="cls-5" d="M116,126H84a1,1,0,0,1,0-2h32a1,1,0,1,1,0,2Z"/><path class="cls-5" d="M75,126H28a1,1,0,0,1,0-2H75a1,1,0,1,1,0,2Z"/><path class="cls-5" d="M21,126H18a1,1,0,1,1,0-2h3a1,1,0,0,1,0,2Z"/></g><polygon class="cls-7" points="107.51 112.99 81.51 112.99 81.51 101.49 100.73 101.49 106.51 104.99 107.51 112.99"/><path class="cls-5" d="M107.51,114h-26a1,1,0,0,1-1-1v-11.5a1,1,0,0,1,1-1h19.22a1,1,0,0,1,.52.14l5.78,3.5a1,1,0,0,1,.47.73l1,8a1,1,0,0,1-1,1.12Zm-25-2h23.87l-.8-6.4-5.13-3.1H82.51Z"/><rect class="cls-7" height="8.5" width="23" x="29.51" y="100.49"/><path class="cls-5" d="M52.51,110h-23a1,1,0,0,1-1-1v-8.5a1,1,0,0,1,1-1h23a1,1,0,0,1,1,1V109A1,1,0,0,1,52.51,110Zm-22-2h21v-6.5h-21Z"/><path class="cls-11" d="M24,97v12h5.47a13,13,0,0,1,23.05,0H81V97Z"/><path class="cls-5" d="M81,110H52.54a1,1,0,0,1-.89-.54,12,12,0,0,0-21.28,0,1,1,0,0,1-.89.54H24a1,1,0,0,1-1-1V97a1,1,0,0,1,1-1H81a1,1,0,0,1,1,1v12A1,1,0,0,1,81,110Zm-27.88-2H80V98H25v10h3.88a14,14,0,0,1,24.23,0Z"/><rect class="cls-6" height="4" rx="2" ry="2" width="7" x="20.01" y="105"/><path class="cls-5" d="M25,110H22a3,3,0,1,1,0-6h3a3,3,0,0,1,0,6Zm-3-4a1,1,0,1,0,0,2h3a1,1,0,0,0,0-2Z"/><path class="cls-6" d="M118,92.11a30,30,0,0,0-.64-6.18L115,74.76A6,6,0,0,0,109.14,70H83a2,2,0,0,0-2,2v41h.17a13,13,0,0,1,25.66,0H118V92.11Z"/><g class="cls-1"><path class="cls-12" d="M94,102a13,13,0,0,1,12.83,11H118V98H81v15h.17A13,13,0,0,1,94,102Z"/></g><path class="cls-5" d="M118,114H106.84a1,1,0,0,1-1-.85,12,12,0,0,0-23.68,0,1,1,0,0,1-1,.85H81a1,1,0,0,1-1-1V72a3,3,0,0,1,3-3h26.13A7,7,0,0,1,116,74.55l2.35,11.18a31.06,31.06,0,0,1,.67,6.39V113A1,1,0,0,1,118,114Zm-10.34-2H117V92.12a29.08,29.08,0,0,0-.62-6L114,75a5,5,0,0,0-4.89-4H83a1,1,0,0,0-1,1v35.77A14,14,0,0,1,107.67,112Z"/><rect class="cls-4" height="10" rx="2" ry="2" width="22" x="55.01" y="104.99"/><path class="cls-5" d="M75,116H57a3,3,0,0,1-3-3v-6a3,3,0,0,1,3-3H75a3,3,0,0,1,3,3v6A3,3,0,0,1,75,116ZM57,106a1,1,0,0,0-1,1v6a1,1,0,0,0,1,1H75a1,1,0,0,0,1-1v-6a1,1,0,0,0-1-1Z"/><path class="cls-5" d="M60,116a1,1,0,0,1-1-1V105a1,1,0,0,1,2,0v10A1,1,0,0,1,60,116Z"/><path class="cls-5" d="M72,116a1,1,0,0,1-1-1V105a1,1,0,0,1,2,0v10A1,1,0,0,1,72,116Z"/><circle class="cls-13" cx="41.01" cy="114.99" r="10"/><path class="cls-5" d="M41,126a11,11,0,1,1,11-11A11,11,0,0,1,41,126Zm0-20a9,9,0,1,0,9,9A9,9,0,0,0,41,106Z"/><circle class="cls-6" cx="41.01" cy="114.99" r="5"/><path class="cls-5" d="M41,121a6,6,0,1,1,6-6A6,6,0,0,1,41,121Zm0-10a4,4,0,1,0,4,4A4,4,0,0,0,41,111Z"/><path class="cls-5" d="M41,121a1,1,0,0,1-1-1V110a1,1,0,0,1,2,0v10A1,1,0,0,1,41,121Z"/><path class="cls-5" d="M36.68,118.49a1,1,0,0,1-.5-1.87l8.66-5a1,1,0,1,1,1,1.73l-8.66,5A1,1,0,0,1,36.68,118.49Z"/><path class="cls-5" d="M45.34,118.49a1,1,0,0,1-.5-.13l-8.66-5a1,1,0,1,1,1-1.73l8.66,5a1,1,0,0,1-.5,1.87Z"/><path class="cls-5" d="M41,118a3,3,0,1,1,3-3A3,3,0,0,1,41,118Zm0-4a1,1,0,1,0,1,1A1,1,0,0,0,41,114Z"/><path class="cls-5" d="M41.46,107.23a1,1,0,0,1-.86-.48l-.45-.74a1,1,0,1,1,1.71-1l.45.74a1,1,0,0,1-.86,1.52Z"/><path class="cls-5" d="M41,125.49a1,1,0,0,1-.86-.48l-.45-.74a1,1,0,1,1,1.71-1l.45.74a1,1,0,0,1-.85,1.52Z"/><path class="cls-5" d="M49.77,116.44a1,1,0,0,1-.52-1.86l.74-.45a1,1,0,1,1,1,1.71l-.74.45A1,1,0,0,1,49.77,116.44Z"/><path class="cls-5" d="M31.51,116a1,1,0,0,1-.52-1.86l.74-.45a1,1,0,0,1,1,1.71l-.74.45A1,1,0,0,1,31.51,116Z"/><path class="cls-5" d="M47.52,110.12l-.24,0a1,1,0,0,1-.73-1.21l.21-.84a1,1,0,0,1,1.94.48l-.21.84A1,1,0,0,1,47.52,110.12Z"/><path class="cls-5" d="M34.29,122.71l-.24,0a1,1,0,0,1-.73-1.21l.21-.84a1,1,0,0,1,1.94.48l-.21.84A1,1,0,0,1,34.29,122.71Z"/><path class="cls-5" d="M47.73,122.71l-.24,0-.84-.21a1,1,0,1,1,.48-1.94l.84.21a1,1,0,0,1-.24,2Z"/><path class="cls-5" d="M35.14,109.48l-.24,0-.84-.21a1,1,0,1,1,.48-1.94l.84.21a1,1,0,0,1-.24,2Z"/><path class="cls-5" d="M44.77,108.07a1,1,0,0,1-1-.85l-.13-.86a1,1,0,0,1,2-.3l.13.86a1,1,0,0,1-.84,1.14Z"/><path class="cls-5" d="M37.37,124.77a1,1,0,0,1-1-.85l-.13-.86a1,1,0,0,1,2-.3l.13.86a1,1,0,0,1-.84,1.14Z"/><path class="cls-5" d="M48.93,119.76a1,1,0,0,1-.15-2l.86-.13a1,1,0,0,1,.3,2l-.86.13Z"/><path class="cls-5" d="M32.23,112.36a1,1,0,0,1-.15-2l.86-.13a1,1,0,1,1,.3,2l-.86.13Z"/><path class="cls-5" d="M38.07,107.73a1,1,0,0,1-.59-.2l-.7-.51A1,1,0,1,1,38,105.41l.7.51a1,1,0,0,1-.59,1.8Z"/><path class="cls-5" d="M44.65,124.77a1,1,0,0,1-.59-.19l-.7-.51a1,1,0,0,1,1.19-1.61l.7.51a1,1,0,0,1-.59,1.81Z"/><path class="cls-5" d="M49.27,113.05a1,1,0,0,1-.8-1.59l.51-.7a1,1,0,0,1,1.61,1.19l-.51.7A1,1,0,0,1,49.27,113.05Z"/><path class="cls-5" d="M32.23,119.63a1,1,0,0,1-.8-1.59l.51-.7a1,1,0,1,1,1.61,1.19l-.51.7A1,1,0,0,1,32.23,119.63Z"/><circle class="cls-13" cx="94.01" cy="114.99" r="10"/><path class="cls-5" d="M94,126a11,11,0,1,1,11-11A11,11,0,0,1,94,126Zm0-20a9,9,0,1,0,9,9A9,9,0,0,0,94,106Z"/><circle class="cls-6" cx="94.01" cy="114.99" r="5"/><path class="cls-5" d="M94,121a6,6,0,1,1,6-6A6,6,0,0,1,94,121Zm0-10a4,4,0,1,0,4,4A4,4,0,0,0,94,111Z"/><path class="cls-5" d="M94,121a1,1,0,0,1-1-1V110a1,1,0,0,1,2,0v10A1,1,0,0,1,94,121Z"/><path class="cls-5" d="M89.68,118.49a1,1,0,0,1-.5-1.87l8.66-5a1,1,0,1,1,1,1.73l-8.66,5A1,1,0,0,1,89.68,118.49Z"/><path class="cls-5" d="M98.34,118.49a1,1,0,0,1-.5-.13l-8.66-5a1,1,0,1,1,1-1.73l8.66,5a1,1,0,0,1-.5,1.87Z"/><path class="cls-5" d="M94,118a3,3,0,1,1,3-3A3,3,0,0,1,94,118Zm0-4a1,1,0,1,0,1,1A1,1,0,0,0,94,114Z"/><path class="cls-5" d="M94.46,107.23a1,1,0,0,1-.86-.48l-.45-.74a1,1,0,1,1,1.71-1l.45.74a1,1,0,0,1-.86,1.52Z"/><path class="cls-5" d="M94,125.49a1,1,0,0,1-.86-.48l-.45-.74a1,1,0,1,1,1.71-1l.45.74a1,1,0,0,1-.85,1.52Z"/><path class="cls-5" d="M102.77,116.44a1,1,0,0,1-.52-1.86l.74-.45a1,1,0,1,1,1,1.71l-.74.45A1,1,0,0,1,102.77,116.44Z"/><path class="cls-5" d="M84.51,116a1,1,0,0,1-.52-1.86l.74-.45a1,1,0,0,1,1,1.71l-.74.45A1,1,0,0,1,84.51,116Z"/><path class="cls-5" d="M100.52,110.12l-.24,0a1,1,0,0,1-.73-1.21l.21-.84a1,1,0,0,1,1.94.48l-.21.84A1,1,0,0,1,100.52,110.12Z"/><path class="cls-5" d="M87.29,122.71l-.24,0a1,1,0,0,1-.73-1.21l.21-.84a1,1,0,0,1,1.94.48l-.21.84A1,1,0,0,1,87.29,122.71Z"/><path class="cls-5" d="M100.73,122.71l-.24,0-.84-.21a1,1,0,1,1,.48-1.94l.84.21a1,1,0,0,1-.24,2Z"/><path class="cls-5" d="M88.14,109.48l-.24,0-.84-.21a1,1,0,1,1,.48-1.94l.84.21a1,1,0,0,1-.24,2Z"/><path class="cls-5" d="M97.77,108.07a1,1,0,0,1-1-.85l-.13-.86a1,1,0,0,1,2-.3l.13.86a1,1,0,0,1-.84,1.14Z"/><path class="cls-5" d="M90.37,124.77a1,1,0,0,1-1-.85l-.13-.86a1,1,0,0,1,2-.3l.13.86a1,1,0,0,1-.84,1.14Z"/><path class="cls-5" d="M101.93,119.76a1,1,0,0,1-.15-2l.86-.13a1,1,0,0,1,.3,2l-.86.13Z"/><path class="cls-5" d="M85.23,112.36a1,1,0,0,1-.15-2l.86-.13a1,1,0,1,1,.3,2l-.86.13Z"/><path class="cls-5" d="M91.07,107.73a1,1,0,0,1-.59-.2l-.7-.51A1,1,0,1,1,91,105.41l.7.51a1,1,0,0,1-.59,1.8Z"/><path class="cls-5" d="M97.65,124.77a1,1,0,0,1-.59-.19l-.7-.51a1,1,0,0,1,1.19-1.61l.7.51a1,1,0,0,1-.59,1.81Z"/><path class="cls-5" d="M102.27,113.05a1,1,0,0,1-.8-1.59l.51-.7a1,1,0,0,1,1.61,1.19l-.51.7A1,1,0,0,1,102.27,113.05Z"/><path class="cls-5" d="M85.23,119.63a1,1,0,0,1-.8-1.59l.51-.7a1,1,0,1,1,1.61,1.19l-.51.7A1,1,0,0,1,85.23,119.63Z"/><path class="cls-5" d="M114.8,75H81a1,1,0,0,1,0-2H114.8a1,1,0,1,1,0,2Z"/><path class="cls-14" d="M17,58H75a2,2,0,0,1,2,2v42a0,0,0,0,1,0,0H17a2,2,0,0,1-2-2V60A2,2,0,0,1,17,58Z"/><g class="cls-15"><path class="cls-9" d="M75,58H17a2,2,0,0,0-2,2v4a2,2,0,0,1,2-2H75a2,2,0,0,1,2,2V60A2,2,0,0,0,75,58Z"/></g><path class="cls-6" d="M77,102H17a2,2,0,0,1-2-2V94H77Z"/><g class="cls-1"><path class="cls-12" d="M15,100a2,2,0,0,0,2,2H77V98H15Z"/></g><g class="cls-1"><rect class="cls-16" height="4" width="62" x="15.01" y="89.99"/></g><path class="cls-5" d="M77,103H17a3,3,0,0,1-3-3V60a3,3,0,0,1,3-3H75a3,3,0,0,1,3,3v42A1,1,0,0,1,77,103ZM17,59a1,1,0,0,0-1,1v40a1,1,0,0,0,1,1H76V60a1,1,0,0,0-1-1Z"/><path class="cls-5" d="M77,95H15a1,1,0,0,1,0-2H77a1,1,0,0,1,0,2Z"/><path class="cls-5" d="M19,99a1,1,0,0,1-.71-.3A1,1,0,0,1,18,98a.84.84,0,0,1,.08-.38,1.15,1.15,0,0,1,.21-.33,1,1,0,0,1,1.09-.21.9.9,0,0,1,.54.54A1,1,0,0,1,20,98a1,1,0,0,1-.29.7A1,1,0,0,1,19,99Z"/><path class="cls-5" d="M25,99a1,1,0,0,1-.71-.3A1,1,0,0,1,24,98a1,1,0,0,1,.08-.38,1.15,1.15,0,0,1,.21-.33,1,1,0,0,1,1.42,0,1.16,1.16,0,0,1,.21.33A1,1,0,0,1,26,98a1,1,0,0,1-.29.7A1,1,0,0,1,25,99Z"/><path class="cls-5" d="M31,99a1,1,0,0,1-.71-.3A1,1,0,0,1,30,98a1,1,0,0,1,.08-.38,1,1,0,0,1,.21-.33,1,1,0,0,1,1.09-.21,1,1,0,0,1,.33.21,1.16,1.16,0,0,1,.21.33A1,1,0,0,1,32,98a1,1,0,0,1-1,1Z"/><path class="cls-5" d="M37,99a1,1,0,0,1-.71-.3A1,1,0,0,1,36,98a1,1,0,0,1,.08-.38.9.9,0,0,1,.54-.54,1,1,0,0,1,1.09.21,1.16,1.16,0,0,1,.21.33A.84.84,0,0,1,38,98a1,1,0,0,1-.29.7.84.84,0,0,1-.33.22A1,1,0,0,1,37,99Z"/><path class="cls-5" d="M43,99a1,1,0,0,1-.92-1.38,1.15,1.15,0,0,1,.21-.33,1,1,0,0,1,1.42,0,1.16,1.16,0,0,1,.21.33A1,1,0,0,1,44,98a1,1,0,0,1-.29.7.84.84,0,0,1-.33.22A1,1,0,0,1,43,99Z"/><path class="cls-5" d="M49,99a1,1,0,0,1-.92-1.38.9.9,0,0,1,.54-.54,1,1,0,0,1,1.09.21,1.46,1.46,0,0,1,.22.33A1,1,0,0,1,50,98a1,1,0,0,1-.29.7.84.84,0,0,1-.33.22A1,1,0,0,1,49,99Z"/><path class="cls-5" d="M55,99a.93.93,0,0,1-.7-.3A1,1,0,0,1,54,98a1,1,0,0,1,.3-.71,1,1,0,0,1,.32-.21,1,1,0,0,1,1.09.21,1.18,1.18,0,0,1,.22.33A1,1,0,0,1,56,98a1,1,0,0,1-.29.7.88.88,0,0,1-.32.22A1,1,0,0,1,55,99Z"/><path class="cls-5" d="M61,99a.93.93,0,0,1-.7-.3A1,1,0,0,1,60,98a1,1,0,0,1,.3-.71,1,1,0,0,1,1.41,0,1.18,1.18,0,0,1,.22.33A1,1,0,0,1,62,98a1,1,0,0,1-.29.7.88.88,0,0,1-.32.22A1,1,0,0,1,61,99Z"/><path class="cls-5" d="M67,99a1,1,0,0,1-.38-.08.88.88,0,0,1-.32-.22A1,1,0,0,1,66,98a1,1,0,0,1,.07-.38.91.91,0,0,1,.22-.33,1,1,0,0,1,1.41,0,1.18,1.18,0,0,1,.22.33A1,1,0,0,1,68,98a1,1,0,0,1-.29.7.88.88,0,0,1-.32.22A1,1,0,0,1,67,99Z"/><path class="cls-5" d="M73,99a1,1,0,0,1-.38-.08.88.88,0,0,1-.32-.22A1,1,0,0,1,72,98a1,1,0,0,1,1.71-.71,1.18,1.18,0,0,1,.22.33A1,1,0,0,1,74,98a1,1,0,0,1-.29.7.88.88,0,0,1-.32.22A1,1,0,0,1,73,99Z"/><path class="cls-4" d="M96,99H81v14h.17A13,13,0,0,1,94,102h1a12,12,0,0,1,12,12v1h4v-1A15,15,0,0,0,96,99Z"/><path class="cls-5" d="M111,116h-4a1,1,0,0,1-1-1v-1a11,11,0,0,0-11-11H94a11.92,11.92,0,0,0-11.84,10.15,1,1,0,0,1-1,.85H81a1,1,0,0,1-1-1V99a1,1,0,0,1,1-1H96a16,16,0,0,1,16,16v1A1,1,0,0,1,111,116Zm-3-2h2a14,14,0,0,0-14-14H82v7.77A13.91,13.91,0,0,1,94,101h1A13,13,0,0,1,108,114Z"/><path class="cls-4" d="M107,115v-4h10v-3.5a1.5,1.5,0,0,1,1.5-1.5h0a1.5,1.5,0,0,1,1.5,1.5V113a2,2,0,0,1-2,2Z"/><path class="cls-5" d="M118,116H107a1,1,0,0,1-1-1v-4a1,1,0,0,1,1-1h9v-2.5a2.5,2.5,0,0,1,5,0V113A3,3,0,0,1,118,116Zm-10-2h10a1,1,0,0,0,1-1v-5.5a.5.5,0,0,0-1,0V111a1,1,0,0,1-1,1h-9Z"/><path class="cls-3" d="M117.37,85.93l-1.6-7.6-.15-.34H92a2,2,0,0,0-2,2v8a2,2,0,0,0,2,2h25.91A30,30,0,0,0,117.37,85.93Z"/><path class="cls-17" d="M90,83.5,102.23,78H92a2,2,0,0,0-2,2Z"/><path class="cls-17" d="M108.9,78,90,86.5V88a2,2,0,0,0,.48,1.28L115.57,78Z"/><g class="cls-1"><path class="cls-18" d="M115.7,78H92a2,2,0,0,0-2,2v3h26.73Z"/></g><path class="cls-4" d="M113,84h0a2,2,0,0,1-2-2V78h4v4A2,2,0,0,1,113,84Z"/><path class="cls-5" d="M113,85a3,3,0,0,1-3-3V78a1,1,0,0,1,1-1h4a1,1,0,0,1,1,1v4A3,3,0,0,1,113,85Zm-1-6v3a1,1,0,0,0,2,0V79Z"/><path class="cls-5" d="M117.93,91H92a3,3,0,0,1-3-3V80a3,3,0,0,1,3-3H115.7a1,1,0,0,1,1,.79l1.67,7.94h0a31.08,31.08,0,0,1,.58,4.2,1,1,0,0,1-1,1.07ZM92,79a1,1,0,0,0-1,1v8a1,1,0,0,0,1,1h24.82a28.47,28.47,0,0,0-.45-2.86L114.88,79Z"/><path class="cls-5" d="M99,91a1,1,0,0,1-1-1V79a1,1,0,1,1,2,0V90A1,1,0,0,1,99,91Z"/><path class="cls-5" d="M99,99.29a1,1,0,0,1-1-1V90a1,1,0,1,1,2,0v8.28A1,1,0,0,1,99,99.29Z"/><path class="cls-19" d="M118,97h-3a2,2,0,0,1-2-2h0a2,2,0,0,1,2-2h3Z"/><path class="cls-5" d="M118,98h-3a3,3,0,0,1,0-6h3a1,1,0,0,1,1,1v4A1,1,0,0,1,118,98Zm-3-4a1,1,0,0,0,0,2h2V94Z"/><path class="cls-5" d="M94,95a1,1,0,0,1-1-1V93a1,1,0,0,1,2,0v1A1,1,0,0,1,94,95Z"/><g class="cls-1"><path class="cls-5" d="M75,95a1,1,0,0,1-.71-1.71l2-2a1,1,0,0,1,1.41,1.41l-2,2A1,1,0,0,1,75,95Z"/></g></svg>