<?xml version="1.0" ?><svg data-name="003" id="_003" viewBox="0 0 128 128" xmlns="http://www.w3.org/2000/svg"><defs><style>.cls-1{opacity:0.3;}.cls-2{fill:#c9c1f5;}.cls-3{fill:#6d6daa;}.cls-4{fill:#fffad1;}.cls-5{fill:#89dbba;}.cls-6{fill:#b1f1a8;}.cls-7{fill:#eef6ff;}.cls-8{fill:#fff;}.cls-9{fill:#7690a8;}.cls-10{fill:#fff27d;}.cls-11{opacity:0.5;}.cls-12{fill:#ffc661;}.cls-13{fill:#939fc6;}.cls-14{fill:#4c5a7f;}.cls-15{fill:#9eb2cc;}.cls-16{fill:#ced8ee;}.cls-17{fill:#ff9797;}.cls-18{fill:#48bc33;}</style></defs><title/><g class="cls-1"><path class="cls-2" d="M112.3,100.77a30,30,0,0,0,8.59-33.26,19.69,19.69,0,0,1-.31-12.74A37,37,0,0,0,73.22,8.7,21,21,0,0,1,55.84,6.82c-13.79-8-33.73-3.81-42,16.68a16.6,16.6,0,0,0-.75,8A20.58,20.58,0,0,1,9.29,45.78,28.49,28.49,0,0,0,21.41,88.55,20.06,20.06,0,0,1,32.79,101,29,29,0,0,0,80.62,113.4,20.08,20.08,0,0,1,93.9,108,29.83,29.83,0,0,0,112.3,100.77Z"/><rect class="cls-2" height="12" width="15" x="9.99" y="19"/><path class="cls-3" d="M25,32H10a1,1,0,0,1-1-1V19a1,1,0,0,1,1-1H25a1,1,0,0,1,1,1V31A1,1,0,0,1,25,32ZM11,30H24V20H11Z"/><rect class="cls-2" height="5" width="17" x="8.99" y="14"/><path class="cls-3" d="M26,20H9a1,1,0,0,1-1-1V14a1,1,0,0,1,1-1H26a1,1,0,0,1,1,1v5A1,1,0,0,1,26,20ZM10,18H25V15H10Z"/><rect class="cls-4" height="6" width="122.01" x="2.99" y="31"/><path class="cls-3" d="M125,38H3a1,1,0,0,1-1-1V31a1,1,0,0,1,1-1H125a1,1,0,0,1,1,1v6A1,1,0,0,1,125,38ZM4,36H124V32H4Z"/><rect class="cls-4" height="6" width="122.01" x="2.99" y="71"/><path class="cls-3" d="M125,78H3a1,1,0,0,1-1-1V71a1,1,0,0,1,1-1H125a1,1,0,0,1,1,1v6A1,1,0,0,1,125,78ZM4,76H124V72H4Z"/><path class="cls-3" d="M20,24H15a1,1,0,0,1,0-2h5a1,1,0,0,1,0,2Z"/><rect class="cls-5" height="3.99" width="41.99" x="41.99" y="14"/><path class="cls-3" d="M84,19H42a1,1,0,0,1-1-1V14a1,1,0,0,1,1-1H84a1,1,0,0,1,1,1v4A1,1,0,0,1,84,19ZM43,17H83V15H43Z"/><rect class="cls-6" height="3.99" width="41.99" x="41.99" y="10"/><path class="cls-3" d="M84,15H42a1,1,0,0,1-1-1V10a1,1,0,0,1,1-1H84a1,1,0,0,1,1,1v4A1,1,0,0,1,84,15ZM43,13H83V11H43Z"/><rect class="cls-5" height="3.99" width="41.99" x="41.99" y="6"/><path class="cls-3" d="M84,11H42a1,1,0,0,1-1-1V6a1,1,0,0,1,1-1H84a1,1,0,0,1,1,1v4A1,1,0,0,1,84,11ZM43,9H83V7H43Z"/><rect class="cls-7" height="14" width="9.99" x="57.99" y="4.5"/><rect class="cls-8" height="3" width="9.99" x="57.99" y="5"/><g class="cls-1"><rect class="cls-9" height="3" width="9.99" x="57.99" y="16"/></g><path class="cls-3" d="M68,20H58a1,1,0,0,1-1-1V5a1,1,0,0,1,1-1H68a1,1,0,0,1,1,1V19A1,1,0,0,1,68,20Zm-9-2h8V6H59Z"/><rect class="cls-5" height="3.99" width="41.99" x="71.99" y="26.01"/><path class="cls-3" d="M114,31H72a1,1,0,0,1-1-1V26a1,1,0,0,1,1-1h42a1,1,0,0,1,1,1v4A1,1,0,0,1,114,31ZM73,29h40V27H73Z"/><rect class="cls-6" height="3.99" width="41.99" x="71.99" y="22"/><path class="cls-3" d="M114,27H72a1,1,0,0,1-1-1V22a1,1,0,0,1,1-1h42a1,1,0,0,1,1,1v4A1,1,0,0,1,114,27ZM73,25h40V23H73Z"/><rect class="cls-5" height="3.99" width="41.99" x="71.99" y="18"/><path class="cls-3" d="M114,23H72a1,1,0,0,1-1-1V18a1,1,0,0,1,1-1h42a1,1,0,0,1,1,1v4A1,1,0,0,1,114,23ZM73,21h40V19H73Z"/><rect class="cls-7" height="14" width="10" x="87.99" y="16.51"/><rect class="cls-8" height="3" width="10" x="87.99" y="17"/><g class="cls-1"><rect class="cls-9" height="3" width="10" x="87.99" y="28.01"/></g><path class="cls-3" d="M98,32H88a1,1,0,0,1-1-1V17a1,1,0,0,1,1-1H98a1,1,0,0,1,1,1V31A1,1,0,0,1,98,32Zm-9-2h8V18H89Z"/><rect class="cls-5" height="3.99" width="41.99" x="35.99" y="26.01"/><path class="cls-3" d="M78,31H36a1,1,0,0,1-1-1V26a1,1,0,0,1,1-1H78a1,1,0,0,1,1,1v4A1,1,0,0,1,78,31ZM37,29H77V27H37Z"/><rect class="cls-6" height="3.99" width="41.99" x="35.99" y="22"/><path class="cls-3" d="M78,27H36a1,1,0,0,1-1-1V22a1,1,0,0,1,1-1H78a1,1,0,0,1,1,1v4A1,1,0,0,1,78,27ZM37,25H77V23H37Z"/><rect class="cls-5" height="3.99" width="41.99" x="35.99" y="18"/><path class="cls-3" d="M78,23H36a1,1,0,0,1-1-1V18a1,1,0,0,1,1-1H78a1,1,0,0,1,1,1v4A1,1,0,0,1,78,23ZM37,21H77V19H37Z"/><rect class="cls-7" height="14" width="10" x="51.98" y="16.51"/><rect class="cls-8" height="3" width="10" x="51.98" y="17"/><g class="cls-1"><rect class="cls-9" height="3" width="10" x="51.98" y="28.01"/></g><path class="cls-3" d="M62,32H52a1,1,0,0,1-1-1V17a1,1,0,0,1,1-1H62a1,1,0,0,1,1,1V31A1,1,0,0,1,62,32Zm-9-2h8V18H53Z"/><path class="cls-10" d="M5.77,68.43l1.8-6A2,2,0,0,1,9.49,61h11a2,2,0,0,1,1.92,1.43l1.8,6A2,2,0,0,1,22.31,71H7.69A2,2,0,0,1,5.77,68.43Z"/><g class="cls-11"><path class="cls-8" d="M5.77,68.43s0,.06,0,.1l15.41-7.41a2,2,0,0,0-.66-.12h-11a2,2,0,0,0-1.92,1.43Z"/></g><g class="cls-11"><path class="cls-8" d="M22.78,63.62l-.22-.72L6.52,70.61A2,2,0,0,0,7.69,71h4.25l11.41-5.48Z"/></g><path class="cls-3" d="M22.31,72H7.69a3,3,0,0,1-2.87-3.86h0l1.8-6A3,3,0,0,1,9.49,60h11a3,3,0,0,1,2.87,2.14l1.8,6A3,3,0,0,1,22.31,72ZM6.73,68.71a1,1,0,0,0,1,1.29H22.31a1,1,0,0,0,1-1.29l-1.8-6a1,1,0,0,0-1-.71h-11a1,1,0,0,0-1,.71Z"/><path class="cls-10" d="M25.77,68.43l1.8-6A2,2,0,0,1,29.49,61h11a2,2,0,0,1,1.92,1.43l1.8,6A2,2,0,0,1,42.31,71H27.69A2,2,0,0,1,25.77,68.43Z"/><g class="cls-11"><path class="cls-8" d="M25.77,68.43s0,.06,0,.1l15.41-7.41a2,2,0,0,0-.66-.12h-11a2,2,0,0,0-1.92,1.43Z"/></g><g class="cls-11"><path class="cls-8" d="M42.78,63.62l-.22-.72L26.52,70.61a2,2,0,0,0,1.17.39h4.25l11.41-5.48Z"/></g><path class="cls-3" d="M42.31,72H27.69a3,3,0,0,1-2.87-3.86h0l1.8-6A3,3,0,0,1,29.49,60h11a3,3,0,0,1,2.87,2.14l1.8,6A3,3,0,0,1,42.31,72ZM26.73,68.71a1,1,0,0,0,1,1.29H42.31a1,1,0,0,0,1-1.29l-1.8-6a1,1,0,0,0-1-.71h-11a1,1,0,0,0-1,.71Z"/><path class="cls-10" d="M45.77,68.43l1.8-6A2,2,0,0,1,49.49,61h11a2,2,0,0,1,1.92,1.43l1.8,6A2,2,0,0,1,62.31,71H47.69A2,2,0,0,1,45.77,68.43Z"/><g class="cls-11"><path class="cls-8" d="M45.77,68.43s0,.06,0,.1l15.41-7.41a2,2,0,0,0-.66-.12h-11a2,2,0,0,0-1.92,1.43Z"/></g><g class="cls-11"><path class="cls-8" d="M62.78,63.62l-.22-.72L46.52,70.61a2,2,0,0,0,1.17.39h4.25l11.41-5.48Z"/></g><path class="cls-3" d="M62.31,72H47.69a3,3,0,0,1-2.87-3.86h0l1.8-6A3,3,0,0,1,49.49,60h11a3,3,0,0,1,2.87,2.14l1.8,6A3,3,0,0,1,62.31,72ZM46.73,68.71a1,1,0,0,0,1,1.29H62.31a1,1,0,0,0,1-1.29l-1.8-6a1,1,0,0,0-1-.71h-11a1,1,0,0,0-1,.71Z"/><path class="cls-10" d="M35.77,58.43l1.8-6A2,2,0,0,1,39.49,51h11a2,2,0,0,1,1.92,1.43l1.8,6A2,2,0,0,1,52.31,61H37.69A2,2,0,0,1,35.77,58.43Z"/><g class="cls-11"><path class="cls-8" d="M35.77,58.43s0,.06,0,.1l15.41-7.41a2,2,0,0,0-.66-.12h-11a2,2,0,0,0-1.92,1.43Z"/></g><g class="cls-11"><path class="cls-8" d="M52.78,53.62l-.22-.72L36.52,60.61a2,2,0,0,0,1.17.39h4.25l11.41-5.48Z"/></g><path class="cls-3" d="M52.31,62H37.69a3,3,0,0,1-2.87-3.86h0l1.8-6A3,3,0,0,1,39.49,50h11a3,3,0,0,1,2.87,2.14l1.8,6A3,3,0,0,1,52.31,62ZM36.73,58.71a1,1,0,0,0,1,1.29H52.31a1,1,0,0,0,1-1.29l-1.8-6a1,1,0,0,0-1-.71h-11a1,1,0,0,0-1,.71Z"/><path class="cls-10" d="M15.77,58.43l1.8-6A2,2,0,0,1,19.49,51h11a2,2,0,0,1,1.92,1.43l1.8,6A2,2,0,0,1,32.31,61H17.69A2,2,0,0,1,15.77,58.43Z"/><g class="cls-11"><path class="cls-8" d="M15.77,58.43s0,.06,0,.1l15.41-7.41a2,2,0,0,0-.66-.12h-11a2,2,0,0,0-1.92,1.43Z"/></g><g class="cls-11"><path class="cls-8" d="M32.78,53.62l-.22-.72L16.52,60.61a2,2,0,0,0,1.17.39h4.25l11.41-5.48Z"/></g><path class="cls-3" d="M32.31,62H17.69a3,3,0,0,1-2.87-3.86h0l1.8-6A3,3,0,0,1,19.49,50h11a3,3,0,0,1,2.87,2.14l1.8,6A3,3,0,0,1,32.31,62ZM16.73,58.71a1,1,0,0,0,1,1.29H32.31a1,1,0,0,0,1-1.29l-1.8-6a1,1,0,0,0-1-.71h-11a1,1,0,0,0-1,.71Z"/><path class="cls-10" d="M25.77,48.43l1.8-6A2,2,0,0,1,29.49,41h11a2,2,0,0,1,1.92,1.43l1.8,6A2,2,0,0,1,42.31,51H27.69A2,2,0,0,1,25.77,48.43Z"/><g class="cls-11"><path class="cls-8" d="M25.77,48.43s0,.06,0,.1l15.41-7.41a2,2,0,0,0-.66-.12h-11a2,2,0,0,0-1.92,1.43Z"/></g><g class="cls-11"><path class="cls-8" d="M42.78,43.62l-.22-.72L26.52,50.61a2,2,0,0,0,1.17.39h4.25l11.41-5.48Z"/></g><path class="cls-3" d="M42.31,52H27.69a3,3,0,0,1-2.87-3.86h0l1.8-6A3,3,0,0,1,29.49,40h11a3,3,0,0,1,2.87,2.14l1.8,6A3,3,0,0,1,42.31,52ZM26.73,48.71a1,1,0,0,0,1,1.29H42.31a1,1,0,0,0,1-1.29l-1.8-6a1,1,0,0,0-1-.71h-11a1,1,0,0,0-1,.71Z"/><path class="cls-10" d="M85.77,68.43l1.8-6A2,2,0,0,1,89.49,61h11a2,2,0,0,1,1.92,1.43l1.8,6A2,2,0,0,1,102.31,71H87.69A2,2,0,0,1,85.77,68.43Z"/><g class="cls-11"><path class="cls-8" d="M85.77,68.43s0,.06,0,.1l15.41-7.41a2,2,0,0,0-.66-.12h-11a2,2,0,0,0-1.92,1.43Z"/></g><g class="cls-11"><path class="cls-8" d="M102.78,63.62l-.22-.72L86.52,70.61a2,2,0,0,0,1.17.39h4.25l11.41-5.48Z"/></g><path class="cls-3" d="M102.31,72H87.69a3,3,0,0,1-2.87-3.86h0l1.8-6A3,3,0,0,1,89.49,60h11a3,3,0,0,1,2.87,2.14l1.8,6A3,3,0,0,1,102.31,72ZM86.73,68.71a1,1,0,0,0,1,1.29h14.62a1,1,0,0,0,1-1.29l-1.8-6a1,1,0,0,0-1-.71h-11a1,1,0,0,0-1,.71Z"/><path class="cls-10" d="M105.77,68.43l1.8-6A2,2,0,0,1,109.49,61h11a2,2,0,0,1,1.92,1.43l1.8,6A2,2,0,0,1,122.31,71H107.69A2,2,0,0,1,105.77,68.43Z"/><g class="cls-11"><path class="cls-8" d="M105.77,68.43s0,.06,0,.1l15.41-7.41a2,2,0,0,0-.66-.12h-11a2,2,0,0,0-1.92,1.43Z"/></g><g class="cls-11"><path class="cls-8" d="M122.78,63.62l-.22-.72-16.05,7.71a2,2,0,0,0,1.17.39h4.25l11.41-5.48Z"/></g><path class="cls-3" d="M122.31,72H107.69a3,3,0,0,1-2.87-3.86h0l1.8-6A3,3,0,0,1,109.49,60h11a3,3,0,0,1,2.87,2.14l1.8,6A3,3,0,0,1,122.31,72Zm-15.58-3.29a1,1,0,0,0,1,1.29h14.62a1,1,0,0,0,1-1.29l-1.8-6a1,1,0,0,0-1-.71h-11a1,1,0,0,0-1,.71Z"/><path class="cls-10" d="M105.77,58.43l1.8-6A2,2,0,0,1,109.49,51h11a2,2,0,0,1,1.92,1.43l1.8,6A2,2,0,0,1,122.31,61H107.69A2,2,0,0,1,105.77,58.43Z"/><g class="cls-11"><path class="cls-8" d="M105.77,58.43s0,.06,0,.1l15.41-7.41a2,2,0,0,0-.66-.12h-11a2,2,0,0,0-1.92,1.43Z"/></g><g class="cls-11"><path class="cls-8" d="M122.78,53.62l-.22-.72-16.05,7.71a2,2,0,0,0,1.17.39h4.25l11.41-5.48Z"/></g><path class="cls-3" d="M122.31,62H107.69a3,3,0,0,1-2.87-3.86h0l1.8-6A3,3,0,0,1,109.49,50h11a3,3,0,0,1,2.87,2.14l1.8,6A3,3,0,0,1,122.31,62Zm-15.58-3.29a1,1,0,0,0,1,1.29h14.62a1,1,0,0,0,1-1.29l-1.8-6a1,1,0,0,0-1-.71h-11a1,1,0,0,0-1,.71Z"/><path class="cls-10" d="M85.77,58.43l1.8-6A2,2,0,0,1,89.49,51h11a2,2,0,0,1,1.92,1.43l1.8,6A2,2,0,0,1,102.31,61H87.69A2,2,0,0,1,85.77,58.43Z"/><g class="cls-11"><path class="cls-8" d="M85.77,58.43s0,.06,0,.1l15.41-7.41a2,2,0,0,0-.66-.12h-11a2,2,0,0,0-1.92,1.43Z"/></g><g class="cls-11"><path class="cls-8" d="M102.78,53.62l-.22-.72L86.52,60.61a2,2,0,0,0,1.17.39h4.25l11.41-5.48Z"/></g><path class="cls-3" d="M102.31,62H87.69a3,3,0,0,1-2.87-3.86h0l1.8-6A3,3,0,0,1,89.49,50h11a3,3,0,0,1,2.87,2.14l1.8,6A3,3,0,0,1,102.31,62ZM86.73,58.71a1,1,0,0,0,1,1.29h14.62a1,1,0,0,0,1-1.29l-1.8-6a1,1,0,0,0-1-.71h-11a1,1,0,0,0-1,.71Z"/><path class="cls-10" d="M95.77,48.43l1.8-6A2,2,0,0,1,99.49,41h11a2,2,0,0,1,1.92,1.43l1.8,6A2,2,0,0,1,112.31,51H97.69A2,2,0,0,1,95.77,48.43Z"/><g class="cls-11"><path class="cls-8" d="M95.77,48.43s0,.06,0,.1l15.41-7.41a2,2,0,0,0-.66-.12h-11a2,2,0,0,0-1.92,1.43Z"/></g><g class="cls-11"><path class="cls-8" d="M112.78,43.62l-.22-.72L96.52,50.61a2,2,0,0,0,1.17.39h4.25l11.41-5.48Z"/></g><path class="cls-3" d="M112.31,52H97.69a3,3,0,0,1-2.87-3.86h0l1.8-6A3,3,0,0,1,99.49,40h11a3,3,0,0,1,2.87,2.14l1.8,6A3,3,0,0,1,112.31,52ZM96.73,48.71a1,1,0,0,0,1,1.29h14.62a1,1,0,0,0,1-1.29l-1.8-6a1,1,0,0,0-1-.71h-11a1,1,0,0,0-1,.71Z"/><path class="cls-3" d="M104,126H22a1,1,0,1,1,0-2h82a1,1,0,0,1,0,2Z"/><path class="cls-3" d="M111,126h-4a1,1,0,0,1,0-2h4a1,1,0,0,1,0,2Z"/><path class="cls-3" d="M19,126H17a1,1,0,0,1,0-2h2a1,1,0,0,1,0,2Z"/><rect class="cls-10" height="3" width="7" x="10" y="110"/><path class="cls-3" d="M17,114H10a1,1,0,0,1-1-1v-3a1,1,0,0,1,1-1h7a1,1,0,0,1,1,1v3A1,1,0,0,1,17,114Zm-6-2h5v-1H11Z"/><rect class="cls-12" height="3" width="7" x="10" y="107"/><path class="cls-3" d="M17,111H10a1,1,0,0,1-1-1v-3a1,1,0,0,1,1-1h7a1,1,0,0,1,1,1v3A1,1,0,0,1,17,111Zm-6-2h5v-1H11Z"/><rect class="cls-10" height="3" width="7" x="10" y="104"/><path class="cls-3" d="M17,108H10a1,1,0,0,1-1-1v-3a1,1,0,0,1,1-1h7a1,1,0,0,1,1,1v3A1,1,0,0,1,17,108Zm-6-2h5v-1H11Z"/><rect class="cls-10" height="3" width="7" x="16" y="112"/><path class="cls-3" d="M23,116H16a1,1,0,0,1-1-1v-3a1,1,0,0,1,1-1h7a1,1,0,0,1,1,1v3A1,1,0,0,1,23,116Zm-6-2h5v-1H17Z"/><rect class="cls-12" height="3" width="7" x="16" y="109"/><path class="cls-3" d="M23,113H16a1,1,0,0,1-1-1v-3a1,1,0,0,1,1-1h7a1,1,0,0,1,1,1v3A1,1,0,0,1,23,113Zm-6-2h5v-1H17Z"/><rect class="cls-10" height="3" width="7" x="16" y="106"/><path class="cls-3" d="M23,110H16a1,1,0,0,1-1-1v-3a1,1,0,0,1,1-1h7a1,1,0,0,1,1,1v3A1,1,0,0,1,23,110Zm-6-2h5v-1H17Z"/><rect class="cls-12" height="3" width="7" x="16" y="103"/><path class="cls-3" d="M23,107H16a1,1,0,0,1-1-1v-3a1,1,0,0,1,1-1h7a1,1,0,0,1,1,1v3A1,1,0,0,1,23,107Zm-6-2h5v-1H17Z"/><rect class="cls-10" height="3" width="7" x="16" y="100"/><path class="cls-3" d="M23,104H16a1,1,0,0,1-1-1v-3a1,1,0,0,1,1-1h7a1,1,0,0,1,1,1v3A1,1,0,0,1,23,104Zm-6-2h5v-1H17Z"/><rect class="cls-10" height="3" width="7" x="5" y="113"/><path class="cls-3" d="M12,117H5a1,1,0,0,1-1-1v-3a1,1,0,0,1,1-1h7a1,1,0,0,1,1,1v3A1,1,0,0,1,12,117Zm-6-2h5v-1H6Z"/><rect class="cls-12" height="3" width="7" x="5" y="110"/><path class="cls-3" d="M12,114H5a1,1,0,0,1-1-1v-3a1,1,0,0,1,1-1h7a1,1,0,0,1,1,1v3A1,1,0,0,1,12,114Zm-6-2h5v-1H6Z"/><rect class="cls-10" height="3" width="7" x="5" y="107"/><path class="cls-3" d="M12,111H5a1,1,0,0,1-1-1v-3a1,1,0,0,1,1-1h7a1,1,0,0,1,1,1v3A1,1,0,0,1,12,111Zm-6-2h5v-1H6Z"/><rect class="cls-10" height="3" width="7" x="115" y="112"/><path class="cls-3" d="M122,116h-7a1,1,0,0,1-1-1v-3a1,1,0,0,1,1-1h7a1,1,0,0,1,1,1v3A1,1,0,0,1,122,116Zm-6-2h5v-1h-5Z"/><rect class="cls-12" height="3" transform="translate(-45.6 112.91) rotate(-45)" width="7" x="110" y="110"/><path class="cls-3" d="M112.08,116a1,1,0,0,1-.71-.29l-2.12-2.12a1,1,0,0,1,0-1.41l5-4.95a1,1,0,0,1,1.41,0l2.12,2.12a1,1,0,0,1,0,1.41l-5,4.95A1,1,0,0,1,112.08,116Zm-.71-3.12.71.71,3.54-3.54-.71-.71Z"/></g><rect class="cls-13" height="14" rx="2" ry="2" width="87" x="21" y="108"/><g class="cls-1"><path class="cls-8" d="M106,108H23a2,2,0,0,0-2,2v4a2,2,0,0,1,2-2h83a2,2,0,0,1,2,2v-4A2,2,0,0,0,106,108Z"/></g><g class="cls-1"><path class="cls-14" d="M23,122h83a2,2,0,0,0,2-2v-4a2,2,0,0,1-2,2H23a2,2,0,0,1-2-2v4A2,2,0,0,0,23,122Z"/></g><path class="cls-3" d="M106,123H23a3,3,0,0,1-3-3V110a3,3,0,0,1,3-3h83a3,3,0,0,1,3,3v10A3,3,0,0,1,106,123ZM23,109a1,1,0,0,0-1,1v10a1,1,0,0,0,1,1h83a1,1,0,0,0,1-1V110a1,1,0,0,0-1-1Z"/><rect class="cls-15" height="3" width="83" x="23" y="105"/><path class="cls-3" d="M106,109H23a1,1,0,0,1-1-1v-3a1,1,0,0,1,1-1h83a1,1,0,0,1,1,1v3A1,1,0,0,1,106,109Zm-82-2h81v-1H24Z"/><polygon class="cls-13" points="38 125 32 125 31 122 39 122 38 125"/><path class="cls-3" d="M38,126H32a1,1,0,0,1-.95-.68l-1-3A1,1,0,0,1,31,121h8a1,1,0,0,1,.95,1.32l-1,3A1,1,0,0,1,38,126Zm-5.28-2h4.56l.33-1H32.39Z"/><polygon class="cls-13" points="97 125 91 125 90 122 98 122 97 125"/><path class="cls-3" d="M97,126H91a1,1,0,0,1-.95-.68l-1-3A1,1,0,0,1,90,121h8a1,1,0,0,1,.95,1.32l-1,3A1,1,0,0,1,97,126Zm-5.28-2h4.56l.33-1H91.39Z"/><path class="cls-16" d="M106,105H23a2,2,0,0,1-2-2V99h87v4A2,2,0,0,1,106,105Z"/><path class="cls-3" d="M106,106H23a3,3,0,0,1-3-3V99a1,1,0,0,1,1-1h87a1,1,0,0,1,1,1v4A3,3,0,0,1,106,106Zm-84-6v3a1,1,0,0,0,1,1h83a1,1,0,0,0,1-1v-3Z"/><path class="cls-7" d="M104,80H64V58h38a2,2,0,0,1,2,2Z"/><path class="cls-8" d="M102,58H64v4h38a2,2,0,0,1,2,2V60A2,2,0,0,0,102,58Z"/><path class="cls-3" d="M104,81H64a1,1,0,0,1-1-1V58a1,1,0,0,1,1-1h38a3,3,0,0,1,3,3V80A1,1,0,0,1,104,81ZM65,79h38V60a1,1,0,0,0-1-1H65Z"/><path class="cls-7" d="M64,80H25V58a2,2,0,0,1,2-2H62a2,2,0,0,1,2,2Z"/><path class="cls-8" d="M62,56H27a2,2,0,0,0-2,2v4a2,2,0,0,1,2-2H62a2,2,0,0,1,2,2V58A2,2,0,0,0,62,56Z"/><path class="cls-3" d="M64,81H25a1,1,0,0,1-1-1V58a3,3,0,0,1,3-3H62a3,3,0,0,1,3,3V80A1,1,0,0,1,64,81ZM26,79H63V58a1,1,0,0,0-1-1H27a1,1,0,0,0-1,1Z"/><polygon class="cls-7" points="108 98.84 21 98.84 25 80 104 80 108 98.84"/><path class="cls-3" d="M108,99.84H21a1,1,0,0,1-1-1.21l4-18.84A1,1,0,0,1,25,79h79a1,1,0,0,1,1,.79l4,18.84a1,1,0,0,1-1,1.21Zm-85.77-2h84.53L103.19,81H25.81Z"/><g class="cls-1"><path class="cls-9" d="M59,84H54c-.55,0-1-.55-1,0v4a1,1,0,0,0,1,1h5a1,1,0,0,0,1-1V84C60,83.45,59.55,84,59,84Z"/></g><rect class="cls-7" height="3" width="5" x="54" y="84"/><path class="cls-3" d="M59,88H54a1,1,0,0,1-1-1V84a1,1,0,0,1,1-1h5a1,1,0,0,1,1,1v3A1,1,0,0,1,59,88Zm-4-2h3V85H55Z"/><g class="cls-1"><path class="cls-9" d="M67,84H62c-.55,0-1-.55-1,0v4a1,1,0,0,0,1,1h5a1,1,0,0,0,1-1V84C68,83.45,67.55,84,67,84Z"/></g><rect class="cls-7" height="3" width="5" x="62" y="84"/><path class="cls-3" d="M67,88H62a1,1,0,0,1-1-1V84a1,1,0,0,1,1-1h5a1,1,0,0,1,1,1v3A1,1,0,0,1,67,88Zm-4-2h3V85H63Z"/><g class="cls-1"><path class="cls-9" d="M75,84H70c-.55,0-1-.55-1,0v4a1,1,0,0,0,1,1h5a1,1,0,0,0,1-1V84C76,83.45,75.55,84,75,84Z"/></g><rect class="cls-7" height="3" width="5" x="70" y="84"/><path class="cls-3" d="M75,88H70a1,1,0,0,1-1-1V84a1,1,0,0,1,1-1h5a1,1,0,0,1,1,1v3A1,1,0,0,1,75,88Zm-4-2h3V85H71Z"/><g class="cls-1"><path class="cls-9" d="M84,84H79c-.55,0-1-.55-1,0v4a1,1,0,0,0,1,1h5a1,1,0,0,0,1-1V84C85,83.45,84.55,84,84,84Z"/></g><rect class="cls-7" height="3" width="5" x="79" y="84"/><path class="cls-3" d="M84,88H79a1,1,0,0,1-1-1V84a1,1,0,0,1,1-1h5a1,1,0,0,1,1,1v3A1,1,0,0,1,84,88Zm-4-2h3V85H80Z"/><g class="cls-1"><path class="cls-9" d="M92,84H87c-.55,0-1-.55-1,0v4a1,1,0,0,0,1,1h5a1,1,0,0,0,1-1V84C93,83.45,92.55,84,92,84Z"/></g><rect class="cls-7" height="3" width="5" x="87" y="84"/><path class="cls-3" d="M92,88H87a1,1,0,0,1-1-1V84a1,1,0,0,1,1-1h5a1,1,0,0,1,1,1v3A1,1,0,0,1,92,88Zm-4-2h3V85H88Z"/><g class="cls-1"><path class="cls-9" d="M100,84H95c-.55,0-1-.55-1,0v4a1,1,0,0,0,1,1h5a1,1,0,0,0,1-1V84C101,83.45,100.55,84,100,84Z"/></g><rect class="cls-7" height="3" width="5" x="95" y="84"/><path class="cls-3" d="M100,88H95a1,1,0,0,1-1-1V84a1,1,0,0,1,1-1h5a1,1,0,0,1,1,1v3A1,1,0,0,1,100,88Zm-4-2h3V85H96Z"/><g class="cls-1"><path class="cls-9" d="M59,87H54c-.55,0-1-.55-1,0v4a1,1,0,0,0,1,1h5a1,1,0,0,0,1-1V87C60,86.45,59.55,87,59,87Z"/></g><rect class="cls-7" height="3" width="5" x="54" y="87"/><path class="cls-3" d="M59,91H54a1,1,0,0,1-1-1V87a1,1,0,0,1,1-1h5a1,1,0,0,1,1,1v3A1,1,0,0,1,59,91Zm-4-2h3V88H55Z"/><g class="cls-1"><path class="cls-9" d="M67,87H62c-.55,0-1-.55-1,0v4a1,1,0,0,0,1,1h5a1,1,0,0,0,1-1V87C68,86.45,67.55,87,67,87Z"/></g><rect class="cls-7" height="3" width="5" x="62" y="87"/><path class="cls-3" d="M67,91H62a1,1,0,0,1-1-1V87a1,1,0,0,1,1-1h5a1,1,0,0,1,1,1v3A1,1,0,0,1,67,91Zm-4-2h3V88H63Z"/><g class="cls-1"><path class="cls-9" d="M75,87H70c-.55,0-1-.55-1,0v4a1,1,0,0,0,1,1h5a1,1,0,0,0,1-1V87C76,86.45,75.55,87,75,87Z"/></g><rect class="cls-7" height="3" width="5" x="70" y="87"/><path class="cls-3" d="M75,91H70a1,1,0,0,1-1-1V87a1,1,0,0,1,1-1h5a1,1,0,0,1,1,1v3A1,1,0,0,1,75,91Zm-4-2h3V88H71Z"/><g class="cls-1"><path class="cls-9" d="M84,87H79c-.55,0-1-.55-1,0v4a1,1,0,0,0,1,1h5a1,1,0,0,0,1-1V87C85,86.45,84.55,87,84,87Z"/></g><rect class="cls-7" height="3" width="5" x="79" y="87"/><path class="cls-3" d="M84,91H79a1,1,0,0,1-1-1V87a1,1,0,0,1,1-1h5a1,1,0,0,1,1,1v3A1,1,0,0,1,84,91Zm-4-2h3V88H80Z"/><g class="cls-1"><path class="cls-9" d="M92,87H87c-.55,0-1-.55-1,0v4a1,1,0,0,0,1,1h5a1,1,0,0,0,1-1V87C93,86.45,92.55,87,92,87Z"/></g><rect class="cls-7" height="3" width="5" x="87" y="87"/><path class="cls-3" d="M92,91H87a1,1,0,0,1-1-1V87a1,1,0,0,1,1-1h5a1,1,0,0,1,1,1v3A1,1,0,0,1,92,91Zm-4-2h3V88H88Z"/><g class="cls-1"><path class="cls-9" d="M100,87H95c-.55,0-1-.55-1,0v4a1,1,0,0,0,1,1h5a1,1,0,0,0,1-1V87C101,86.45,100.55,87,100,87Z"/></g><rect class="cls-7" height="3" width="5" x="95" y="87"/><path class="cls-3" d="M100,91H95a1,1,0,0,1-1-1V87a1,1,0,0,1,1-1h5a1,1,0,0,1,1,1v3A1,1,0,0,1,100,91Zm-4-2h3V88H96Z"/><g class="cls-1"><path class="cls-9" d="M59,90H54c-.55,0-1-.55-1,0v4a1,1,0,0,0,1,1h5a1,1,0,0,0,1-1V90C60,89.45,59.55,90,59,90Z"/></g><rect class="cls-7" height="3" width="5" x="54" y="90"/><path class="cls-3" d="M59,94H54a1,1,0,0,1-1-1V90a1,1,0,0,1,1-1h5a1,1,0,0,1,1,1v3A1,1,0,0,1,59,94Zm-4-2h3V91H55Z"/><g class="cls-1"><path class="cls-9" d="M67,90H62c-.55,0-1-.55-1,0v4a1,1,0,0,0,1,1h5a1,1,0,0,0,1-1V90C68,89.45,67.55,90,67,90Z"/></g><rect class="cls-7" height="3" width="5" x="62" y="90"/><path class="cls-3" d="M67,94H62a1,1,0,0,1-1-1V90a1,1,0,0,1,1-1h5a1,1,0,0,1,1,1v3A1,1,0,0,1,67,94Zm-4-2h3V91H63Z"/><g class="cls-1"><path class="cls-9" d="M75,90H70c-.55,0-1-.55-1,0v4a1,1,0,0,0,1,1h5a1,1,0,0,0,1-1V90C76,89.45,75.55,90,75,90Z"/></g><rect class="cls-7" height="3" width="5" x="70" y="90"/><path class="cls-3" d="M75,94H70a1,1,0,0,1-1-1V90a1,1,0,0,1,1-1h5a1,1,0,0,1,1,1v3A1,1,0,0,1,75,94Zm-4-2h3V91H71Z"/><g class="cls-1"><path class="cls-9" d="M34,84H29c-.55,0-1-.55-1,0v4a1,1,0,0,0,1,1h5a1,1,0,0,0,1-1V84C35,83.45,34.55,84,34,84Z"/></g><rect class="cls-7" height="3" width="5" x="29" y="84"/><path class="cls-3" d="M34,88H29a1,1,0,0,1-1-1V84a1,1,0,0,1,1-1h5a1,1,0,0,1,1,1v3A1,1,0,0,1,34,88Zm-4-2h3V85H30Z"/><g class="cls-1"><path class="cls-9" d="M42,84H37c-.55,0-1-.55-1,0v4a1,1,0,0,0,1,1h5a1,1,0,0,0,1-1V84C43,83.45,42.55,84,42,84Z"/></g><rect class="cls-7" height="3" width="5" x="37" y="84"/><path class="cls-3" d="M42,88H37a1,1,0,0,1-1-1V84a1,1,0,0,1,1-1h5a1,1,0,0,1,1,1v3A1,1,0,0,1,42,88Zm-4-2h3V85H38Z"/><g class="cls-1"><path class="cls-9" d="M50,84H45c-.55,0-1-.55-1,0v4a1,1,0,0,0,1,1h5a1,1,0,0,0,1-1V84C51,83.45,50.55,84,50,84Z"/></g><rect class="cls-7" height="3" width="5" x="45" y="84"/><path class="cls-3" d="M50,88H45a1,1,0,0,1-1-1V84a1,1,0,0,1,1-1h5a1,1,0,0,1,1,1v3A1,1,0,0,1,50,88Zm-4-2h3V85H46Z"/><g class="cls-1"><path class="cls-9" d="M34,87H29c-.55,0-1-.55-1,0v4a1,1,0,0,0,1,1h5a1,1,0,0,0,1-1V87C35,86.45,34.55,87,34,87Z"/></g><rect class="cls-7" height="3" width="5" x="29" y="87"/><path class="cls-3" d="M34,91H29a1,1,0,0,1-1-1V87a1,1,0,0,1,1-1h5a1,1,0,0,1,1,1v3A1,1,0,0,1,34,91Zm-4-2h3V88H30Z"/><g class="cls-1"><path class="cls-9" d="M42,87H37c-.55,0-1-.55-1,0v4a1,1,0,0,0,1,1h5a1,1,0,0,0,1-1V87C43,86.45,42.55,87,42,87Z"/></g><rect class="cls-7" height="3" width="5" x="37" y="87"/><path class="cls-3" d="M42,91H37a1,1,0,0,1-1-1V87a1,1,0,0,1,1-1h5a1,1,0,0,1,1,1v3A1,1,0,0,1,42,91Zm-4-2h3V88H38Z"/><g class="cls-1"><path class="cls-9" d="M50,87H45c-.55,0-1-.55-1,0v4a1,1,0,0,0,1,1h5a1,1,0,0,0,1-1V87C51,86.45,50.55,87,50,87Z"/></g><rect class="cls-7" height="3" width="5" x="45" y="87"/><path class="cls-3" d="M50,91H45a1,1,0,0,1-1-1V87a1,1,0,0,1,1-1h5a1,1,0,0,1,1,1v3A1,1,0,0,1,50,91Zm-4-2h3V88H46Z"/><g class="cls-1"><path class="cls-9" d="M34,90H29c-.55,0-1-.55-1,0v4a1,1,0,0,0,1,1h5a1,1,0,0,0,1-1V90C35,89.45,34.55,90,34,90Z"/></g><rect class="cls-7" height="3" width="5" x="29" y="90"/><path class="cls-3" d="M34,94H29a1,1,0,0,1-1-1V90a1,1,0,0,1,1-1h5a1,1,0,0,1,1,1v3A1,1,0,0,1,34,94Zm-4-2h3V91H30Z"/><g class="cls-1"><path class="cls-9" d="M42,90H37c-.55,0-1-.55-1,0v4a1,1,0,0,0,1,1h5a1,1,0,0,0,1-1V90C43,89.45,42.55,90,42,90Z"/></g><rect class="cls-7" height="3" width="5" x="37" y="90"/><path class="cls-3" d="M42,94H37a1,1,0,0,1-1-1V90a1,1,0,0,1,1-1h5a1,1,0,0,1,1,1v3A1,1,0,0,1,42,94Zm-4-2h3V91H38Z"/><g class="cls-1"><path class="cls-9" d="M50,90H45c-.55,0-1-.55-1,0v4a1,1,0,0,0,1,1h5a1,1,0,0,0,1-1V90C51,89.45,50.55,90,50,90Z"/></g><rect class="cls-7" height="3" width="5" x="45" y="90"/><path class="cls-3" d="M50,94H45a1,1,0,0,1-1-1V90a1,1,0,0,1,1-1h5a1,1,0,0,1,1,1v3A1,1,0,0,1,50,94Zm-4-2h3V91H46Z"/><g class="cls-1"><path class="cls-9" d="M84,90H79c-.55,0-1-.55-1,0v4a1,1,0,0,0,1,1h5a1,1,0,0,0,1-1V90C85,89.45,84.55,90,84,90Z"/></g><rect class="cls-7" height="3" width="5" x="79" y="90"/><rect class="cls-17" height="3" width="5" x="79" y="90"/><path class="cls-3" d="M84,94H79a1,1,0,0,1-1-1V90a1,1,0,0,1,1-1h5a1,1,0,0,1,1,1v3A1,1,0,0,1,84,94Zm-4-2h3V91H80Z"/><g class="cls-1"><path class="cls-9" d="M92,90H87c-.55,0-1-.55-1,0v4a1,1,0,0,0,1,1h5a1,1,0,0,0,1-1V90C93,89.45,92.55,90,92,90Z"/></g><rect class="cls-7" height="3" width="5" x="87" y="90"/><path class="cls-3" d="M92,94H87a1,1,0,0,1-1-1V90a1,1,0,0,1,1-1h5a1,1,0,0,1,1,1v3A1,1,0,0,1,92,94Zm-4-2h3V91H88Z"/><g class="cls-1"><path class="cls-9" d="M100,90H95c-.55,0-1-.55-1,0v4a1,1,0,0,0,1,1h5a1,1,0,0,0,1-1V90C101,89.45,100.55,90,100,90Z"/></g><rect class="cls-6" height="3" width="5" x="95" y="90"/><path class="cls-3" d="M100,94H95a1,1,0,0,1-1-1V90a1,1,0,0,1,1-1h5a1,1,0,0,1,1,1v3A1,1,0,0,1,100,94Zm-4-2h3V91H96Z"/><path class="cls-3" d="M100,94H95a1,1,0,0,1-1-1V90a1,1,0,0,1,1-1h5a1,1,0,0,1,1,1v3A1,1,0,0,1,100,94Zm-4-2h3V91H96Z"/><circle class="cls-7" cx="65" cy="115" r="4"/><path class="cls-3" d="M65,120a5,5,0,1,1,5-5A5,5,0,0,1,65,120Zm0-8a3,3,0,1,0,3,3A3,3,0,0,0,65,112Z"/><path class="cls-3" d="M65,117a1,1,0,0,1-1-1v-2a1,1,0,0,1,2,0v2A1,1,0,0,1,65,117Z"/><rect class="cls-13" height="16" rx="2" ry="2" width="32" x="68" y="36"/><path class="cls-3" d="M98,53H70a3,3,0,0,1-3-3V38a3,3,0,0,1,3-3H98a3,3,0,0,1,3,3V50A3,3,0,0,1,98,53ZM70,37a1,1,0,0,0-1,1V50a1,1,0,0,0,1,1H98a1,1,0,0,0,1-1V38a1,1,0,0,0-1-1Z"/><rect class="cls-6" height="10" width="26" x="71" y="39"/><path class="cls-3" d="M84,46a1,1,0,0,1-1-1V43a1,1,0,0,1,2,0v2A1,1,0,0,1,84,46Z"/><path class="cls-3" d="M87,46a.84.84,0,0,1-.38-.08.9.9,0,0,1-.54-.54.94.94,0,0,1,0-.76,1.15,1.15,0,0,1,.21-.33,1,1,0,0,1,.33-.21.93.93,0,0,1,.57-.06.61.61,0,0,1,.19.06.56.56,0,0,1,.17.09l.16.12a1.15,1.15,0,0,1,.21.33.94.94,0,0,1,0,.76,1.15,1.15,0,0,1-.21.33,1,1,0,0,1-.16.12.56.56,0,0,1-.17.09.62.62,0,0,1-.19.06Z"/><path class="cls-3" d="M90,46a1,1,0,0,1-1-1V43a1,1,0,0,1,2,0v2A1,1,0,0,1,90,46Z"/><path class="cls-3" d="M93,46a1,1,0,0,1-1-1V43a1,1,0,0,1,2,0v2A1,1,0,0,1,93,46Z"/><g class="cls-1"><rect class="cls-18" height="3" width="26" x="71" y="39"/></g><g class="cls-11"><polygon class="cls-8" points="86.41 39 71 39 71 46.32 86.41 39"/></g><g class="cls-11"><polygon class="cls-8" points="71 48.77 71 49 76.83 49 97 39.42 97 39 91.57 39 71 48.77"/></g><path class="cls-3" d="M97,50H71a1,1,0,0,1-1-1V39a1,1,0,0,1,1-1H97a1,1,0,0,1,1,1V49A1,1,0,0,1,97,50ZM72,48H96V40H72Z"/><path class="cls-3" d="M87,59H81a1,1,0,0,1-1-1V52a1,1,0,0,1,1-1h6a1,1,0,0,1,1,1v6A1,1,0,0,1,87,59Zm-5-2h4V53H82Z"/><rect class="cls-6" height="14" width="32" x="68" y="62"/><g class="cls-11"><polygon class="cls-8" points="68 62 68 73.22 91.62 62 68 62"/></g><g class="cls-11"><polygon class="cls-8" points="68 76 73.62 76 100 63.47 100 62 96.78 62 68 75.67 68 76"/></g><g class="cls-1"><rect class="cls-18" height="3" width="32" x="68" y="62"/></g><path class="cls-3" d="M100,77H68a1,1,0,0,1-1-1V62a1,1,0,0,1,1-1h32a1,1,0,0,1,1,1V76A1,1,0,0,1,100,77ZM69,75H99V63H69Z"/><path class="cls-3" d="M83.4,73a1,1,0,0,1-.71-.29l-2.4-2.4a1,1,0,0,1,1.41-1.41l1.59,1.59,3.91-5.09a1,1,0,1,1,1.59,1.22l-4.6,6a1,1,0,0,1-.73.39Z"/><path class="cls-8" d="M65,34a4,4,0,0,1,4-4H49a4,4,0,0,0-4,4V44H61a4,4,0,0,0,4-4Z"/><path class="cls-3" d="M61,45H45a1,1,0,0,1-1-1V34a5,5,0,0,1,5-5H69a1,1,0,0,1,0,2,3,3,0,0,0-3,3v6A5,5,0,0,1,61,45ZM46,43H61a3,3,0,0,0,3-3V34a5,5,0,0,1,1-3H49a3,3,0,0,0-3,3Z"/><path class="cls-16" d="M57,40V30a4,4,0,0,0-4-4H43a4,4,0,0,1,4,4V44H61A4,4,0,0,1,57,40Z"/><path class="cls-3" d="M61,45H47a1,1,0,0,1-1-1V30a3,3,0,0,0-3-3,1,1,0,0,1,0-2H53a5,5,0,0,1,5,5V40a3,3,0,0,0,3,3,1,1,0,0,1,0,2ZM48,43h9a5,5,0,0,1-1-3V30a3,3,0,0,0-3-3H47a5,5,0,0,1,1,3Z"/><rect class="cls-13" height="4" rx="2" ry="2" width="24" x="29" y="62"/><path class="cls-3" d="M51,67H31a3,3,0,0,1,0-6H51a3,3,0,0,1,0,6ZM31,63a1,1,0,0,0,0,2H51a1,1,0,0,0,0-2Z"/><path class="cls-8" d="M49,30a4,4,0,0,1,4-4H37a4,4,0,0,0-4,4V66H49V30Z"/><g class="cls-1"><rect class="cls-9" height="3" width="16" x="33" y="63"/></g><path class="cls-3" d="M49,67H33a1,1,0,0,1-1-1V30a5,5,0,0,1,5-5H53a1,1,0,0,1,0,2,3,3,0,0,0-3,3V66A1,1,0,0,1,49,67ZM34,65H48V30a5,5,0,0,1,1-3H37a3,3,0,0,0-3,3Z"/><g class="cls-11"><path class="cls-3" d="M45,47H44a1,1,0,0,1,0-2h1a1,1,0,0,1,0,2Z"/><path class="cls-3" d="M41,47H37a1,1,0,0,1,0-2h4a1,1,0,0,1,0,2Z"/><path class="cls-3" d="M45,51H44a1,1,0,0,1,0-2h1a1,1,0,0,1,0,2Z"/><path class="cls-3" d="M41,51H37a1,1,0,0,1,0-2h4a1,1,0,0,1,0,2Z"/><path class="cls-3" d="M40,39H37a1,1,0,0,1,0-2h3a1,1,0,0,1,0,2Z"/><path class="cls-3" d="M45,43H37a1,1,0,0,1,0-2h8a1,1,0,0,1,0,2Z"/><path class="cls-3" d="M45,33a1.05,1.05,0,0,1-.71-.29.94.94,0,0,1-.21-.33A1,1,0,0,1,44,32a1,1,0,1,1,2,0,1,1,0,0,1-.08.38,1,1,0,0,1-.21.33A1.05,1.05,0,0,1,45,33Z"/><path class="cls-3" d="M40,32a1,1,0,0,1,1-1h0a1,1,0,0,1,1,1h0a1,1,0,0,1-1,1h0A1,1,0,0,1,40,32Z"/><path class="cls-3" d="M37,33l-.19,0a.61.61,0,0,1-.19-.06.76.76,0,0,1-.18-.09,1.53,1.53,0,0,1-.15-.12,1,1,0,1,1,1.42-1.42l.12.15a.78.78,0,0,1,.09.18.62.62,0,0,1,.06.18,1,1,0,0,1,0,.4.62.62,0,0,1-.06.18.78.78,0,0,1-.09.18l-.12.15A1.05,1.05,0,0,1,37,33Z"/><path class="cls-3" d="M45,63a1.05,1.05,0,0,1-.71-.29,1.68,1.68,0,0,1-.12-.15.74.74,0,0,1-.09-.18A.65.65,0,0,1,44,62.2a1.38,1.38,0,0,1,0-.2,1,1,0,0,1,1.71-.71l.12.15a.78.78,0,0,1,.09.18.62.62,0,0,1,.06.18,1,1,0,0,1,0,.4.62.62,0,0,1-.06.18.78.78,0,0,1-.09.18l-.12.15A1.05,1.05,0,0,1,45,63Z"/><path class="cls-3" d="M40,62a1,1,0,0,1,1-1h0a1,1,0,0,1,1,1h0a1,1,0,0,1-1,1h0A1,1,0,0,1,40,62Z"/><path class="cls-3" d="M37,63a1,1,0,0,1-1-1,1,1,0,0,1,.08-.38,1,1,0,0,1,.21-.33l.15-.12a.76.76,0,0,1,.18-.09.6.6,0,0,1,.19-.06,1,1,0,0,1,.9.27,1.15,1.15,0,0,1,.21.33A1,1,0,0,1,38,62a1.26,1.26,0,0,1,0,.2.62.62,0,0,1-.06.18.78.78,0,0,1-.09.18l-.12.15A1.05,1.05,0,0,1,37,63Z"/></g><circle class="cls-13" cx="58" cy="64" r="2"/><path class="cls-3" d="M58,67a3,3,0,1,1,3-3A3,3,0,0,1,58,67Zm0-4a1,1,0,1,0,1,1A1,1,0,0,0,58,63Z"/><path class="cls-17" d="M61,61a1,1,0,0,1-.71-.29,1.15,1.15,0,0,1-.21-.33.94.94,0,0,1,0-.76.93.93,0,0,1,.21-.33,1.53,1.53,0,0,1,.15-.12.76.76,0,0,1,.18-.09A.63.63,0,0,1,60.8,59a.89.89,0,0,1,.4,0l.18.06a.76.76,0,0,1,.18.09l.15.12a1,1,0,0,1,0,1.42A1,1,0,0,1,61,61Z"/></svg>