<?xml version="1.0" ?><svg data-name="003" id="_003" viewBox="0 0 128 128" xmlns="http://www.w3.org/2000/svg" xmlns:xlink="http://www.w3.org/1999/xlink"><defs><style>.cls-1{fill:none;}.cls-2{opacity:0.3;}.cls-3{fill:#97c1ff;}.cls-4{clip-path:url(#clip-path);}.cls-5{fill:#fff27d;}.cls-6{fill:#fffad1;}.cls-7{fill:#96d7ff;}.cls-8{fill:#c7e9ff;}.cls-9{fill:#fff;}.cls-10{fill:#6d6daa;}.cls-11{fill:#d6b5b0;}.cls-11,.cls-12,.cls-13,.cls-14{fill-rule:evenodd;}.cls-12,.cls-19{fill:#b1f1a8;}.cls-13,.cls-18{fill:#48bc33;}.cls-14{fill:#585889;stroke:#6d6daa;stroke-linecap:round;stroke-linejoin:round;stroke-width:2px;}.cls-15{fill:#eef6ff;}.cls-16{fill:#5cbeff;}.cls-17{fill:#89dbba;}.cls-20{fill:#7690a8;}.cls-21{opacity:0.5;}.cls-22{fill:#ffc661;}</style><clipPath id="clip-path"><path class="cls-1" d="M116,48a39,39,0,1,0-77-12.09A20.62,20.62,0,0,1,23.54,52.71a30.75,30.75,0,0,0,14.29,59.81c12.7-2.8,26-.68,36.71,6.72a33.75,33.75,0,0,0,47.07-46.8A33.63,33.63,0,0,1,116,48Z"/></clipPath></defs><title/><g class="cls-2"><path class="cls-3" d="M116,48a39,39,0,1,0-77-12.09A20.62,20.62,0,0,1,23.54,52.71a30.75,30.75,0,1,0,22,57c7.61-4,17-2.68,22.64,3.84A33.75,33.75,0,0,0,121.6,72.44,33.63,33.63,0,0,1,116,48Z"/><g class="cls-4"><rect class="cls-5" height="10" width="126" x="1" y="118.02"/><rect class="cls-6" height="10" width="126" x="1" y="108.01"/><rect class="cls-7" height="20" width="126" x="1" y="88.01"/><rect class="cls-8" height="10" width="126" x="1" y="98.01"/><path class="cls-9" d="M26,96.14a3.1,3.1,0,0,1-2.21-.91,1.12,1.12,0,0,0-1.59,0,3.2,3.2,0,0,1-4.41,0,1.12,1.12,0,0,0-1.59,0,1,1,0,0,1-1.41-1.42,3.13,3.13,0,0,1,4.41,0,1.15,1.15,0,0,0,1.59,0,3.13,3.13,0,0,1,4.41,0,1.15,1.15,0,0,0,1.59,0,3.13,3.13,0,0,1,4.41,0,1,1,0,0,1-1.41,1.41,1.12,1.12,0,0,0-1.59,0A3.1,3.1,0,0,1,26,96.14Z"/><path class="cls-9" d="M67,96.14a3.1,3.1,0,0,1-2.21-.91,1.12,1.12,0,0,0-1.59,0,3.19,3.19,0,0,1-4.41,0,1.12,1.12,0,0,0-1.59,0,1,1,0,0,1-1.41-1.41,3.13,3.13,0,0,1,4.41,0,1.15,1.15,0,0,0,1.59,0,3.13,3.13,0,0,1,4.41,0,1.15,1.15,0,0,0,1.59,0,3.13,3.13,0,0,1,4.41,0,1,1,0,1,1-1.41,1.42,1.12,1.12,0,0,0-1.59,0A3.1,3.1,0,0,1,67,96.14Z"/><path class="cls-9" d="M16,103.14a3.11,3.11,0,0,1-2.21-.91,1.15,1.15,0,0,0-1.59,0,3.13,3.13,0,0,1-4.41,0,1,1,0,1,1,1.41-1.41,1.12,1.12,0,0,0,1.59,0,3.2,3.2,0,0,1,4.41,0,1.12,1.12,0,0,0,1.59,0,1,1,0,0,1,1.41,1.42A3.11,3.11,0,0,1,16,103.14Z"/><path class="cls-9" d="M109,96.13a3.11,3.11,0,0,1-2.21-.91,1,1,0,0,1,1.41-1.41,1.15,1.15,0,0,0,1.59,0,3.13,3.13,0,0,1,4.41,0,1.15,1.15,0,0,0,1.59,0,1,1,0,0,1,1.41,1.41,3.13,3.13,0,0,1-4.41,0,1.12,1.12,0,0,0-1.59,0A3.12,3.12,0,0,1,109,96.13Z"/><path class="cls-9" d="M87,104.14a3.1,3.1,0,0,1-2.21-.91,1.15,1.15,0,0,0-1.59,0,3.2,3.2,0,0,1-4.41,0,1,1,0,1,1,1.41-1.41,1.15,1.15,0,0,0,1.59,0,3.2,3.2,0,0,1,4.42,0,1.15,1.15,0,0,0,1.58,0,1,1,0,1,1,1.42,1.41A3.1,3.1,0,0,1,87,104.14Z"/><path class="cls-9" d="M117,104.14a3.1,3.1,0,0,1-2.21-.91,1.15,1.15,0,0,0-1.58,0,3.2,3.2,0,0,1-4.42,0,1.15,1.15,0,0,0-1.58,0,3.2,3.2,0,0,1-4.42,0,1.15,1.15,0,0,0-1.58,0,1,1,0,1,1-1.42-1.41,3.19,3.19,0,0,1,4.41,0,1.15,1.15,0,0,0,1.59,0,3.19,3.19,0,0,1,4.41,0,1.15,1.15,0,0,0,1.59,0,3.19,3.19,0,0,1,4.41,0,1.15,1.15,0,0,0,1.59,0,3.19,3.19,0,0,1,4.41,0,1,1,0,0,1-1.41,1.41,1.15,1.15,0,0,0-1.59,0A3.1,3.1,0,0,1,117,104.14Z"/><path class="cls-9" d="M47,104.14a3.1,3.1,0,0,1-2.21-.91,1.15,1.15,0,0,0-1.59,0,3.2,3.2,0,0,1-4.41,0,1.15,1.15,0,0,0-1.59,0,3.2,3.2,0,0,1-4.41,0,1.15,1.15,0,0,0-1.59,0,1,1,0,0,1-1.41-1.41,3.2,3.2,0,0,1,4.41,0,1.15,1.15,0,0,0,1.58,0,3.2,3.2,0,0,1,4.42,0,1.15,1.15,0,0,0,1.58,0,3.2,3.2,0,0,1,4.42,0,1.15,1.15,0,0,0,1.58,0,3.2,3.2,0,0,1,4.42,0,1,1,0,1,1-1.42,1.41,1.15,1.15,0,0,0-1.59,0A3.1,3.1,0,0,1,47,104.14Z"/><path class="cls-10" d="M127,89H1a1,1,0,0,1,0-2H127a1,1,0,0,1,0,2Z"/><path class="cls-10" d="M127,109H1a1,1,0,0,1,0-2H127a1,1,0,0,1,0,2Z"/><path class="cls-11" d="M97.72,26.06a3.44,3.44,0,0,0-1.12,3.41,6.09,6.09,0,0,0,1.12,3,3.44,3.44,0,0,0-1.12,3.41,6.09,6.09,0,0,0,1.12,3,3.44,3.44,0,0,0-1.12,3.41,6.09,6.09,0,0,0,1.12,3,3.44,3.44,0,0,0-1.12,3.41,6.09,6.09,0,0,0,1.12,3A3.44,3.44,0,0,0,96.6,55a6.09,6.09,0,0,0,1.12,3,3.44,3.44,0,0,0-1.12,3.41,6.09,6.09,0,0,0,1.12,3,3.44,3.44,0,0,0-1.12,3.41,6.09,6.09,0,0,0,1.12,3,3.44,3.44,0,0,0-1.12,3.41,6.09,6.09,0,0,0,1.12,3,3.44,3.44,0,0,0-1.12,3.41,6.09,6.09,0,0,0,1.12,3,3.12,3.12,0,0,0-1.17,2.57c0,.06,0,.11,0,.17a5.31,5.31,0,0,0,0,.55c0,.06,0,.11,0,.17a6.09,6.09,0,0,0,1.12,3,3.44,3.44,0,0,0-1.12,3.41,6.09,6.09,0,0,0,1.12,3,3.44,3.44,0,0,0-1.12,3.41,6.09,6.09,0,0,0,1.12,3,3.44,3.44,0,0,0-1.12,3.41,6.09,6.09,0,0,0,1.12,3,3.44,3.44,0,0,0-1.12,3.41,6.09,6.09,0,0,0,1.12,3,3.44,3.44,0,0,0-1.12,3.41,7.46,7.46,0,0,0,.6,2.11h5.69a7.46,7.46,0,0,0,.6-2.11,3.44,3.44,0,0,0-1.12-3.41,6.09,6.09,0,0,0,1.12-3,3.44,3.44,0,0,0-1.12-3.41,6.09,6.09,0,0,0,1.12-3,3.44,3.44,0,0,0-1.12-3.41,6.09,6.09,0,0,0,1.12-3,3.44,3.44,0,0,0-1.12-3.41,6.09,6.09,0,0,0,1.12-3A3.44,3.44,0,0,0,102.37,90a6.09,6.09,0,0,0,1.12-3c0-.06,0-.11,0-.17a5.31,5.31,0,0,0,0-.55c0-.06,0-.11,0-.17a3.12,3.12,0,0,0-1.17-2.57,6.09,6.09,0,0,0,1.12-3,3.44,3.44,0,0,0-1.12-3.41,6.09,6.09,0,0,0,1.12-3,3.44,3.44,0,0,0-1.12-3.41,6.09,6.09,0,0,0,1.12-3,3.44,3.44,0,0,0-1.12-3.41,6.09,6.09,0,0,0,1.12-3A3.44,3.44,0,0,0,102.37,58a6.09,6.09,0,0,0,1.12-3,3.44,3.44,0,0,0-1.12-3.41,6.09,6.09,0,0,0,1.12-3,3.44,3.44,0,0,0-1.12-3.41,6.09,6.09,0,0,0,1.12-3,3.44,3.44,0,0,0-1.12-3.41,6.09,6.09,0,0,0,1.12-3,3.44,3.44,0,0,0-1.12-3.41,6.09,6.09,0,0,0,1.12-3,3.44,3.44,0,0,0-1.12-3.41,6.09,6.09,0,0,0,1.12-3c.32-2.2-.68-4.06-3.42-4.06h0c-2.74,0-3.74,1.86-3.42,4.06A6.09,6.09,0,0,0,97.72,26.06Z"/><path class="cls-10" d="M102.89,122H97.2a1,1,0,0,1-.91-.58,8.51,8.51,0,0,1-.68-2.39,4.74,4.74,0,0,1,.82-3.69,8.13,8.13,0,0,1-.82-2.7,4.74,4.74,0,0,1,.82-3.69,8.14,8.14,0,0,1-.82-2.7,4.74,4.74,0,0,1,.82-3.69,8.14,8.14,0,0,1-.82-2.7,4.74,4.74,0,0,1,.82-3.69,8.14,8.14,0,0,1-.82-2.7,4.74,4.74,0,0,1,.82-3.69,8.14,8.14,0,0,1-.82-2.7s0-.16,0-.19c0-.22,0-.43,0-.65v-.2a4.39,4.39,0,0,1,.89-2.69,8.15,8.15,0,0,1-.82-2.7A4.74,4.74,0,0,1,96.44,77a8.13,8.13,0,0,1-.82-2.7,4.74,4.74,0,0,1,.82-3.69,8.13,8.13,0,0,1-.82-2.7,4.74,4.74,0,0,1,.82-3.69,8.14,8.14,0,0,1-.82-2.7,4.74,4.74,0,0,1,.82-3.69,8.14,8.14,0,0,1-.82-2.7,4.74,4.74,0,0,1,.82-3.69,8.13,8.13,0,0,1-.82-2.7,4.74,4.74,0,0,1,.82-3.69,8.14,8.14,0,0,1-.82-2.7,4.74,4.74,0,0,1,.82-3.69,8.14,8.14,0,0,1-.82-2.7,4.74,4.74,0,0,1,.82-3.69,8.14,8.14,0,0,1-.82-2.7,4.74,4.74,0,0,1,.82-3.69,8.13,8.13,0,0,1-.82-2.7,4.69,4.69,0,0,1,.92-3.81A4.38,4.38,0,0,1,100,18h0a4.38,4.38,0,0,1,3.49,1.4,4.69,4.69,0,0,1,.92,3.81,8.14,8.14,0,0,1-.82,2.7,4.74,4.74,0,0,1,.82,3.69,8.15,8.15,0,0,1-.82,2.7,4.74,4.74,0,0,1,.82,3.69,8.15,8.15,0,0,1-.82,2.7,4.74,4.74,0,0,1,.82,3.69,8.15,8.15,0,0,1-.82,2.7,4.74,4.74,0,0,1,.82,3.69,8.15,8.15,0,0,1-.82,2.7,4.74,4.74,0,0,1,.82,3.69,8.16,8.16,0,0,1-.82,2.7,4.74,4.74,0,0,1,.82,3.69,8.15,8.15,0,0,1-.82,2.7,4.74,4.74,0,0,1,.82,3.69,8.14,8.14,0,0,1-.82,2.7,4.74,4.74,0,0,1,.82,3.69,8.13,8.13,0,0,1-.82,2.7,4.74,4.74,0,0,1,.82,3.69,8.15,8.15,0,0,1-.83,2.7,4.4,4.4,0,0,1,.89,2.69v.2a6.48,6.48,0,0,1,0,.65,1.49,1.49,0,0,1,0,.19,8.14,8.14,0,0,1-.82,2.7,4.74,4.74,0,0,1,.82,3.69,8.15,8.15,0,0,1-.82,2.7,4.74,4.74,0,0,1,.82,3.69,8.15,8.15,0,0,1-.82,2.7,4.74,4.74,0,0,1,.82,3.69,8.15,8.15,0,0,1-.82,2.7,4.74,4.74,0,0,1,.82,3.69,8.15,8.15,0,0,1-.82,2.7,4.74,4.74,0,0,1,.82,3.69,8.54,8.54,0,0,1-.68,2.39A1,1,0,0,1,102.89,122Zm-5-2h4.33a7.29,7.29,0,0,0,.29-1.25,2.57,2.57,0,0,0-.73-2.46,1,1,0,0,1-.18-1.43,5.14,5.14,0,0,0,.91-2.49,2.57,2.57,0,0,0-.72-2.46,1,1,0,0,1-.18-1.43,5.15,5.15,0,0,0,.91-2.49,2.57,2.57,0,0,0-.73-2.46,1,1,0,0,1-.18-1.43,5.15,5.15,0,0,0,.91-2.49,2.57,2.57,0,0,0-.72-2.46,1,1,0,0,1-.18-1.43,5.16,5.16,0,0,0,.91-2.49,2.57,2.57,0,0,0-.72-2.46,1,1,0,0,1-.18-1.43,5.15,5.15,0,0,0,.91-2.49,1.1,1.1,0,0,1,0-.14,4.23,4.23,0,0,0,0-.45v-.13a2.2,2.2,0,0,0-.77-1.79,1,1,0,0,1-.18-1.43,5.15,5.15,0,0,0,.91-2.49,2.57,2.57,0,0,0-.72-2.46,1,1,0,0,1-.18-1.43A5.15,5.15,0,0,0,102.5,74a2.57,2.57,0,0,0-.72-2.46,1,1,0,0,1-.18-1.43,5.14,5.14,0,0,0,.91-2.49,2.57,2.57,0,0,0-.72-2.46,1,1,0,0,1-.18-1.43,5.15,5.15,0,0,0,.91-2.49,2.57,2.57,0,0,0-.72-2.46,1,1,0,0,1-.18-1.43,5.16,5.16,0,0,0,.91-2.49,2.57,2.57,0,0,0-.73-2.46,1,1,0,0,1-.18-1.43,5.14,5.14,0,0,0,.91-2.49,2.57,2.57,0,0,0-.72-2.46,1,1,0,0,1-.18-1.43,5.15,5.15,0,0,0,.91-2.49,2.57,2.57,0,0,0-.73-2.46,1,1,0,0,1-.18-1.43,5.15,5.15,0,0,0,.91-2.49,2.57,2.57,0,0,0-.72-2.46,1,1,0,0,1-.18-1.43,5.16,5.16,0,0,0,.91-2.49,2.57,2.57,0,0,0-.72-2.46,1,1,0,0,1-.18-1.43,5.14,5.14,0,0,0,.91-2.49,2.76,2.76,0,0,0-.45-2.21A2.48,2.48,0,0,0,100.1,20H100a2.48,2.48,0,0,0-1.94.71,2.75,2.75,0,0,0-.45,2.21,5.14,5.14,0,0,0,.91,2.49,1,1,0,0,1-.18,1.43,2.57,2.57,0,0,0-.72,2.46,5.15,5.15,0,0,0,.91,2.49,1,1,0,0,1-.18,1.43,2.57,2.57,0,0,0-.72,2.46,5.14,5.14,0,0,0,.91,2.49,1,1,0,0,1-.18,1.43,2.57,2.57,0,0,0-.72,2.46,5.14,5.14,0,0,0,.91,2.49A1,1,0,0,1,98.32,46a2.57,2.57,0,0,0-.72,2.46A5.14,5.14,0,0,0,98.5,51a1,1,0,0,1-.18,1.43,2.57,2.57,0,0,0-.72,2.46,5.15,5.15,0,0,0,.91,2.49,1,1,0,0,1-.18,1.43,2.57,2.57,0,0,0-.72,2.46,5.14,5.14,0,0,0,.91,2.49,1,1,0,0,1-.18,1.43,2.57,2.57,0,0,0-.72,2.46,5.14,5.14,0,0,0,.91,2.49,1,1,0,0,1-.18,1.43A2.57,2.57,0,0,0,97.59,74a5.14,5.14,0,0,0,.91,2.49,1,1,0,0,1-.18,1.43,2.57,2.57,0,0,0-.72,2.46,5.14,5.14,0,0,0,.91,2.49,1,1,0,0,1-.18,1.43,2.2,2.2,0,0,0-.77,1.79v.14a4.07,4.07,0,0,0,0,.43s0,.13,0,.15a5.12,5.12,0,0,0,.9,2.48,1,1,0,0,1-.18,1.43,2.57,2.57,0,0,0-.72,2.46,5.15,5.15,0,0,0,.91,2.49,1,1,0,0,1-.18,1.43,2.57,2.57,0,0,0-.72,2.46,5.14,5.14,0,0,0,.91,2.49,1,1,0,0,1-.18,1.43,2.57,2.57,0,0,0-.72,2.46,5.14,5.14,0,0,0,.91,2.49,1,1,0,0,1-.18,1.43,2.57,2.57,0,0,0-.72,2.46,5.14,5.14,0,0,0,.91,2.49,1,1,0,0,1-.18,1.43,2.57,2.57,0,0,0-.72,2.46A7.29,7.29,0,0,0,97.88,120Z"/><path class="cls-10" d="M104.89,122H95.2a1,1,0,0,1,0-2h9.69a1,1,0,0,1,0,2Z"/><path class="cls-11" d="M25.71,58.06a3.44,3.44,0,0,0-1.12,3.41,6.09,6.09,0,0,0,1.12,3,3.44,3.44,0,0,0-1.12,3.41,6.09,6.09,0,0,0,1.12,3,3.44,3.44,0,0,0-1.12,3.41,6.09,6.09,0,0,0,1.12,3,3.44,3.44,0,0,0-1.12,3.41,6.09,6.09,0,0,0,1.12,3A3.44,3.44,0,0,0,24.6,87a6.09,6.09,0,0,0,1.12,3A3.44,3.44,0,0,0,24.6,93.4a6.09,6.09,0,0,0,1.12,3,3.44,3.44,0,0,0-1.12,3.41,6.09,6.09,0,0,0,1.12,3,3.44,3.44,0,0,0-1.12,3.41,6.09,6.09,0,0,0,1.12,3,3.44,3.44,0,0,0-1.12,3.41,6.91,6.91,0,0,0,.78,2.48H30.7a6.91,6.91,0,0,0,.78-2.48,3.44,3.44,0,0,0-1.12-3.41,6.09,6.09,0,0,0,1.12-3,3.44,3.44,0,0,0-1.12-3.41,6.09,6.09,0,0,0,1.12-3,3.44,3.44,0,0,0-1.12-3.41,6.09,6.09,0,0,0,1.12-3A3.44,3.44,0,0,0,30.36,90a6.09,6.09,0,0,0,1.12-3,3.44,3.44,0,0,0-1.12-3.41,6.09,6.09,0,0,0,1.12-3,3.44,3.44,0,0,0-1.12-3.41,6.09,6.09,0,0,0,1.12-3,3.44,3.44,0,0,0-1.12-3.41,6.09,6.09,0,0,0,1.12-3,3.44,3.44,0,0,0-1.12-3.41,6.09,6.09,0,0,0,1.12-3,3.44,3.44,0,0,0-1.12-3.41,6.09,6.09,0,0,0,1.12-3c.32-2.2-.68-4.06-3.42-4.06h0c-2.74,0-3.74,1.86-3.42,4.06A6.09,6.09,0,0,0,25.71,58.06Z"/><path class="cls-10" d="M30.7,116H25.38a1,1,0,0,1-.87-.5,7.92,7.92,0,0,1-.91-2.84,4.74,4.74,0,0,1,.82-3.69,8.14,8.14,0,0,1-.82-2.7,4.74,4.74,0,0,1,.82-3.69,8.13,8.13,0,0,1-.82-2.7,4.74,4.74,0,0,1,.82-3.69,8.13,8.13,0,0,1-.82-2.7,4.74,4.74,0,0,1,.82-3.69,8.13,8.13,0,0,1-.82-2.7,4.74,4.74,0,0,1,.82-3.69,8.13,8.13,0,0,1-.82-2.7,4.75,4.75,0,0,1,.82-3.69,8.14,8.14,0,0,1-.82-2.7,4.74,4.74,0,0,1,.82-3.69,8.13,8.13,0,0,1-.82-2.7,4.74,4.74,0,0,1,.82-3.69,8.14,8.14,0,0,1-.82-2.7,4.74,4.74,0,0,1,.82-3.69,8.14,8.14,0,0,1-.82-2.7,4.69,4.69,0,0,1,.92-3.81A4.38,4.38,0,0,1,28,50h0a4.38,4.38,0,0,1,3.49,1.4,4.69,4.69,0,0,1,.92,3.81,8.14,8.14,0,0,1-.82,2.7,4.74,4.74,0,0,1,.82,3.69,8.14,8.14,0,0,1-.82,2.7A4.74,4.74,0,0,1,32.47,68a8.14,8.14,0,0,1-.82,2.7,4.74,4.74,0,0,1,.82,3.69,8.14,8.14,0,0,1-.82,2.7,4.74,4.74,0,0,1,.82,3.69,8.14,8.14,0,0,1-.82,2.7,4.74,4.74,0,0,1,.82,3.69,8.14,8.14,0,0,1-.82,2.7,4.74,4.74,0,0,1,.82,3.69,8.14,8.14,0,0,1-.82,2.7,4.74,4.74,0,0,1,.82,3.69,8.14,8.14,0,0,1-.82,2.7,4.74,4.74,0,0,1,.82,3.69,8.14,8.14,0,0,1-.82,2.7,4.74,4.74,0,0,1,.82,3.69,7.91,7.91,0,0,1-.91,2.84A1,1,0,0,1,30.7,116ZM26,114h4.07a6.91,6.91,0,0,0,.42-1.62,2.57,2.57,0,0,0-.72-2.46,1,1,0,0,1-.18-1.43,5.15,5.15,0,0,0,.91-2.49,2.57,2.57,0,0,0-.72-2.46,1,1,0,0,1-.18-1.43,5.15,5.15,0,0,0,.91-2.49,2.57,2.57,0,0,0-.72-2.46,1,1,0,0,1-.18-1.43,5.15,5.15,0,0,0,.91-2.49,2.57,2.57,0,0,0-.72-2.46,1,1,0,0,1-.18-1.43,5.15,5.15,0,0,0,.91-2.49,2.57,2.57,0,0,0-.72-2.46A1,1,0,0,1,29.59,83a5.16,5.16,0,0,0,.91-2.49A2.57,2.57,0,0,0,29.77,78a1,1,0,0,1-.18-1.43,5.15,5.15,0,0,0,.91-2.49,2.57,2.57,0,0,0-.72-2.46,1,1,0,0,1-.18-1.43,5.15,5.15,0,0,0,.91-2.49,2.57,2.57,0,0,0-.72-2.46,1,1,0,0,1-.18-1.43,5.15,5.15,0,0,0,.91-2.49,2.57,2.57,0,0,0-.72-2.46,1,1,0,0,1-.18-1.43,5.15,5.15,0,0,0,.91-2.49A2.76,2.76,0,0,0,30,52.73a2.5,2.5,0,0,0-2-.71h-.13a2.44,2.44,0,0,0-1.89.71,2.75,2.75,0,0,0-.45,2.21,5.14,5.14,0,0,0,.91,2.49,1,1,0,0,1-.18,1.43,2.57,2.57,0,0,0-.72,2.46,5.14,5.14,0,0,0,.91,2.49,1,1,0,0,1-.18,1.43,2.57,2.57,0,0,0-.72,2.46,5.14,5.14,0,0,0,.91,2.49,1,1,0,0,1-.18,1.43,2.57,2.57,0,0,0-.72,2.46,5.14,5.14,0,0,0,.91,2.49A1,1,0,0,1,26.31,78a2.57,2.57,0,0,0-.72,2.46A5.15,5.15,0,0,0,26.49,83a1,1,0,0,1-.18,1.43,2.57,2.57,0,0,0-.72,2.46,5.14,5.14,0,0,0,.91,2.49,1,1,0,0,1-.18,1.43,2.57,2.57,0,0,0-.72,2.46,5.14,5.14,0,0,0,.91,2.49,1,1,0,0,1-.18,1.43,2.57,2.57,0,0,0-.72,2.46,5.14,5.14,0,0,0,.91,2.49,1,1,0,0,1-.18,1.43,2.57,2.57,0,0,0-.72,2.46,5.14,5.14,0,0,0,.91,2.49,1,1,0,0,1-.18,1.43,2.57,2.57,0,0,0-.72,2.46A6.88,6.88,0,0,0,26,114Z"/><path class="cls-10" d="M32.7,116H23.38a1,1,0,1,1,0-2H32.7a1,1,0,0,1,0,2Z"/><path class="cls-9" d="M60,50a1,1,0,0,1-.7-1.71,1,1,0,0,1,.9-.27l.19.06a.7.7,0,0,1,.17.09l.15.12a1,1,0,0,1,0,1.42A1,1,0,0,1,60,50Z"/><path class="cls-9" d="M88,46H74a1,1,0,0,1,0-2H88a1,1,0,0,1,0,2Z"/><path class="cls-9" d="M79,50H64a1,1,0,0,1,0-2H79a1,1,0,0,1,0,2Z"/><path class="cls-9" d="M86,54H66a1,1,0,0,1,0-2H86a1,1,0,0,1,0,2Z"/><path class="cls-9" d="M78,58H70a1,1,0,0,1,0-2h8a1,1,0,0,1,0,2Z"/><path class="cls-9" d="M111,66a1.05,1.05,0,0,1-.71-.29,1.12,1.12,0,0,1-.22-.33,1.07,1.07,0,0,1,0-.76,1.47,1.47,0,0,1,.22-.33,1,1,0,0,1,1.41,0,1,1,0,0,1,.3.71,1,1,0,0,1-1,1Z"/><path class="cls-9" d="M123,70h-6a1,1,0,0,1,0-2h6a1,1,0,0,1,0,2Z"/><path class="cls-9" d="M124,66h-9a1,1,0,0,1,0-2h9a1,1,0,0,1,0,2Z"/><path class="cls-9" d="M113,70h-4a1,1,0,0,1,0-2h4a1,1,0,0,1,0,2Z"/></g><path class="cls-12" d="M36.29,35.9a55.2,55.2,0,0,0-8.27.82,55.2,55.2,0,0,0-8.27-.82c-9.16-.25-16.65,1.53-16.73,4s7.29,4.61,16.45,4.86a54.77,54.77,0,0,0,8.55-.4,54.77,54.77,0,0,0,8.55.4C45.73,44.48,53.1,42.3,53,39.86S45.46,35.65,36.29,35.9Z"/><g class="cls-2"><path class="cls-13" d="M51.21,37.95c-2.72,1.49-8.24,2.6-14.64,2.77a54.77,54.77,0,0,1-8.55-.4,54.77,54.77,0,0,1-8.55.4c-6.4-.17-11.92-1.29-14.64-2.77C3.7,38.51,3,39.16,3,39.86c-.08,2.44,7.29,4.61,16.45,4.86a54.78,54.78,0,0,0,8.55-.4,54.78,54.78,0,0,0,8.55.4C45.73,44.48,53.1,42.3,53,39.86,53,39.16,52.34,38.51,51.21,37.95Z"/></g><path class="cls-10" d="M21.12,45.74l-1.68,0c-7.88-.21-14.56-1.83-16.63-4A2.58,2.58,0,0,1,2,39.83c.11-3.72,9.29-5.16,17.75-4.94a56.91,56.91,0,0,1,8.25.8,56.93,56.93,0,0,1,8.25-.8l0,1,0-1c8.46-.23,17.64,1.22,17.75,4.94a2.58,2.58,0,0,1-.79,1.87c-2.07,2.19-8.75,3.81-16.63,4A56.23,56.23,0,0,1,28,45.33,54.44,54.44,0,0,1,21.12,45.74ZM28,43.32h.13a54,54,0,0,0,8.39.4c8.1-.22,13.8-1.87,15.23-3.39A.75.75,0,0,0,52,39.9c0-1.21-6-3.26-15.7-3h0a54.59,54.59,0,0,0-8.12.8,1,1,0,0,1-.36,0,54.57,54.57,0,0,0-8.12-.8c-9.67-.26-15.66,1.8-15.7,3a.75.75,0,0,0,.25.44c1.44,1.52,7.13,3.17,15.23,3.39a54.09,54.09,0,0,0,8.39-.4Z"/><path class="cls-12" d="M43.69,44.4c-6.77-5.9-13.79-9-15.66-7h0c-1.88-2-8.89,1.13-15.66,7S1.61,56.71,3.49,58.73s8.89-1.13,15.66-7c4.48-3.91,7.73-8,8.87-11,1.14,2.93,4.39,7.06,8.87,11,6.77,5.9,13.79,9,15.66,7S50.46,50.3,43.69,44.4Z"/><g class="cls-2"><path class="cls-13" d="M36.89,47.7c-4.26-3.71-7.37-7.6-8.66-10.49a1.61,1.61,0,0,0-.21.16h0a1.61,1.61,0,0,0-.21-.16C26.52,40.1,23.41,44,19.15,47.7c-6.58,5.73-13.37,8.85-15.47,7.18-.78,1.73-.89,3.1-.19,3.85,1.88,2,8.89-1.13,15.66-7,4.48-3.91,7.73-8,8.87-11,1.14,2.93,4.39,7.06,8.87,11,6.77,5.9,13.79,9,15.66,7,.7-.75.58-2.12-.19-3.85C50.26,56.55,43.47,53.43,36.89,47.7Z"/></g><path class="cls-10" d="M50.8,60.34c-3.63,0-9.54-3.51-14.57-7.88A39.63,39.63,0,0,1,28,43a39.65,39.65,0,0,1-8.21,9.44c-6.46,5.62-14.39,9.82-17.05,7A3,3,0,0,1,2,57.14c.17-3.23,4-8.53,9.67-13.49C17.65,38.47,24.84,34.5,28,36.14c3.18-1.64,10.38,2.33,16.32,7.51h0c5.71,5,9.5,10.26,9.67,13.49a3,3,0,0,1-.73,2.27A3.25,3.25,0,0,1,50.8,60.34ZM28,39.74a1,1,0,0,1,.93.64c1.13,2.88,4.42,6.93,8.6,10.57,7,6.13,13.16,8.3,14.27,7.1a1.09,1.09,0,0,0,.19-.81c-.12-2.22-3.24-7.09-9-12.09-7-6.13-13.16-8.3-14.27-7.1l0,0a1,1,0,0,1-1.45,0C26.13,36.86,20,39,13,45.15c-5.75,5-8.87,9.87-9,12.09a1.09,1.09,0,0,0,.19.81c1.12,1.2,7.23-1,14.27-7.1,4.18-3.64,7.47-7.69,8.6-10.57A1,1,0,0,1,28,39.74Z"/><path class="cls-12" d="M37.16,49.2c-2.1-5.21-4.76-9.42-7-11.48-1.53-1.28-2.81-1.28-4.26,0-2.26,2.06-4.91,6.28-7,11.49-3.23,8.07-3.9,15.44-1.5,16.46s7-4.68,10.22-12.75c.15-.37.29-.74.42-1.11.14.37.28.74.43,1.11C31.69,61,36.27,66.68,38.68,65.65S40.4,57.26,37.16,49.2Z"/><g class="cls-2"><path class="cls-13" d="M38.68,61.65c-2.41,1-7-4.67-10.24-12.73-.15-.37-.29-.74-.43-1.11-.14.37-.28.74-.42,1.11C24.35,57,19.78,62.7,17.37,61.67a2.74,2.74,0,0,1-1.3-2.21c-.39,3.3,0,5.66,1.3,6.21,2.41,1,7-4.68,10.22-12.75.15-.37.29-.74.42-1.11.14.37.28.74.43,1.11C31.69,61,36.27,66.68,38.68,65.65c1.28-.55,1.68-2.9,1.29-6.19A2.72,2.72,0,0,1,38.68,61.65Z"/></g><path class="cls-10" d="M18,66.79a2.53,2.53,0,0,1-1-.2c-3.46-1.47-2.13-10,1-17.75C20,43.66,22.73,39.23,25.2,37c1.83-1.62,3.65-1.63,5.57,0,2.5,2.27,5.23,6.7,7.31,11.87h0c3.1,7.7,4.44,16.27,1,17.75a2.87,2.87,0,0,1-2.28-.08c-2.71-1.12-6.09-5.77-8.77-12-2.67,6.23-6,10.88-8.75,12A3.34,3.34,0,0,1,18,66.79Zm10-29a2.26,2.26,0,0,0-1.45.72c-2.21,2-4.8,6.28-6.74,11.11-3.61,9-3.24,14.65-2,15.17a1.05,1.05,0,0,0,.73-.09c2-.82,5.41-5.24,8.17-12.11.14-.34.26-.67.39-1a1.06,1.06,0,0,1,1-.69h0a1,1,0,0,1,1,.61c.15.41.28.75.42,1.09,2.77,6.87,6.21,11.28,8.19,12.1a1,1,0,0,0,.73.08c1.21-.52,1.56-6.18-2.06-15.16-1.95-4.84-4.54-9.09-6.77-11.11A2.4,2.4,0,0,0,28,37.75Z"/><path class="cls-14" d="M9.08,58.36a8.62,8.62,0,0,0-1-3.21m6.31.27A9.47,9.47,0,0,0,12.74,51m5.92-1.23a6.58,6.58,0,0,0-1.1-3.81m3.57,18A6.61,6.61,0,0,0,19,60.78m5.42-1.44A10.32,10.32,0,0,0,21.77,55m5.58-1.49A10.58,10.58,0,0,0,24.52,49m-16-8.91A4.82,4.82,0,0,0,7,42.88m6.86-2.8a8.22,8.22,0,0,0-1.7,4M48,55.15a8.62,8.62,0,0,0-1,3.21M43.3,51a9.47,9.47,0,0,0-1.6,4.45m-3.22-9.5a6.58,6.58,0,0,0-1.1,3.81M37,60.78a6.61,6.61,0,0,0-2.09,3.11M34.27,55a10.32,10.32,0,0,0-2.69,4.34M31.53,49a10.58,10.58,0,0,0-2.84,4.52M49,42.88a4.82,4.82,0,0,0-1.46-2.8m-3.7,4a8.22,8.22,0,0,0-1.7-4M28,44.09v7.73"/><path class="cls-15" d="M65.08,19.21C65.36,13.94,61.33,8.62,53,10.1A12.25,12.25,0,0,0,36.85,6.71,12.23,12.23,0,0,0,24.5,9.4c-8.05-2.77-13.27,2.37-13.67,7.69-.42,5.57,3.23,8.29,5.78,8.59a5,5,0,0,0,3.19-.52,4.47,4.47,0,0,0,5.74,1.93c2.83,3.44,9.69,3.95,13,1.29a6.58,6.58,0,0,0,7.59.22,7.49,7.49,0,0,0,2.55-1.26c2.1,1.91,7.4,2.06,9.14-1.64C61.9,27.09,64.84,23.66,65.08,19.21Z"/><path class="cls-9" d="M24.5,13.4a12.23,12.23,0,0,1,12.36-2.69A12.25,12.25,0,0,1,53,14.1c7-1.25,11,2.34,11.87,6.65a10.29,10.29,0,0,0,.2-1.54C65.36,13.94,61.33,8.62,53,10.1A12.25,12.25,0,0,0,36.85,6.71,12.23,12.23,0,0,0,24.5,9.4c-8.05-2.77-13.27,2.37-13.67,7.69A10.22,10.22,0,0,0,11,20C12,15.07,17,10.83,24.5,13.4Z"/><g class="cls-2"><path class="cls-16" d="M57.86,21.69c-1.74,3.7-7,3.55-9.14,1.64a7.49,7.49,0,0,1-2.55,1.26,6.58,6.58,0,0,1-7.59-.22c-3.36,2.65-10.22,2.15-13-1.29a4.47,4.47,0,0,1-5.74-1.93,5,5,0,0,1-3.19.52A7,7,0,0,1,11,16a9,9,0,0,0-.17,1.13c-.42,5.57,3.23,8.29,5.78,8.59a5,5,0,0,0,3.19-.52,4.47,4.47,0,0,0,5.74,1.93c2.83,3.44,9.69,3.95,13,1.29a6.58,6.58,0,0,0,7.59.22,7.49,7.49,0,0,0,2.55-1.26c2.1,1.91,7.4,2.06,9.14-1.64,4,1.4,7-2,7.22-6.47a9.5,9.5,0,0,0-.2-2.46C64.12,20.4,61.42,22.92,57.86,21.69Z"/></g><path class="cls-10" d="M33,31.08a11.17,11.17,0,0,1-7.74-2.84,5.57,5.57,0,0,1-5.81-1.79,7,7,0,0,1-2.94.22c-3-.35-7.12-3.58-6.66-9.66A10.2,10.2,0,0,1,14.35,9.3a11.57,11.57,0,0,1,9.91-1A13.22,13.22,0,0,1,36.74,5.62a13.17,13.17,0,0,1,7.58-1.55A13.3,13.3,0,0,1,53.44,9c4.83-.7,7.8.86,9.45,2.32a9.77,9.77,0,0,1,3.19,7.92h0a8.63,8.63,0,0,1-3.35,6.79,5.53,5.53,0,0,1-4.38.8,6.24,6.24,0,0,1-4.1,2.64,7.8,7.8,0,0,1-5.55-.93,8.9,8.9,0,0,1-2.09.93,7.68,7.68,0,0,1-8.06.11A10.53,10.53,0,0,1,33,31.08Zm-7.44-5a1,1,0,0,1,.77.36C28.72,29.38,34.93,30,38,27.59a1,1,0,0,1,1.29,0,5.63,5.63,0,0,0,6.33.15,1,1,0,0,1,.31-.15,6.47,6.47,0,0,0,2.21-1.08,1,1,0,0,1,1.29,0,5.53,5.53,0,0,0,4.46.95A4.17,4.17,0,0,0,57,25.26a1,1,0,0,1,1.23-.52,3.69,3.69,0,0,0,3.43-.34,6.65,6.65,0,0,0,2.46-5.24h0a7.78,7.78,0,0,0-2.51-6.32c-2-1.77-4.9-2.37-8.39-1.75a1,1,0,0,1-1-.4,11.31,11.31,0,0,0-8.07-4.63,11.19,11.19,0,0,0-6.77,1.51,1,1,0,0,1-.83.08,11.23,11.23,0,0,0-11.35,2.47,1,1,0,0,1-1,.22C20,8.89,17.1,9.88,15.45,11a8.19,8.19,0,0,0-3.63,6.19c-.36,4.75,2.65,7.26,4.9,7.52a3.85,3.85,0,0,0,2.49-.33,1,1,0,0,1,1.5.4,3.48,3.48,0,0,0,4.45,1.41A1,1,0,0,1,25.54,26.08Zm39.54-6.86h0Z"/><path class="cls-10" d="M34.68,10.47a1,1,0,0,1-.94-1.35,10,10,0,0,1,2.41-3.31A1,1,0,0,1,37.49,7.3a8,8,0,0,0-1.87,2.52A1,1,0,0,1,34.68,10.47Z"/><path class="cls-10" d="M22.36,13.31A1,1,0,0,1,21.42,12a10,10,0,0,1,2.41-3.31,1,1,0,0,1,1.34,1.49,8,8,0,0,0-1.87,2.52A1,1,0,0,1,22.36,13.31Z"/><path class="cls-10" d="M54.09,15H54a1,1,0,0,1-.88-1.11,5.86,5.86,0,0,0-.94-3.21,1,1,0,1,1,1.66-1.11,7.79,7.79,0,0,1,1.26,4.54A1,1,0,0,1,54.09,15Z"/><path class="cls-10" d="M57.47,27.38a1,1,0,0,1-.85-1.53c.56-.89,1.3-3,.11-4.59a1,1,0,0,1,1.6-1.2c1.84,2.46.86,5.46,0,6.85A1,1,0,0,1,57.47,27.38Z"/><path class="cls-10" d="M48.73,28.33a1,1,0,0,1-.65-1.76,2,2,0,0,0,.25-1.62,1,1,0,1,1,1.71-1,3.75,3.75,0,0,1-.65,4.17A1,1,0,0,1,48.73,28.33Z"/><path class="cls-10" d="M38.58,29.37a1,1,0,0,1-.65-1.76A3.1,3.1,0,0,0,39,25.46a1,1,0,0,1,2,0,5,5,0,0,1-1.8,3.64A1,1,0,0,1,38.58,29.37Z"/><path class="cls-10" d="M19.92,26.34a1,1,0,0,1-.87-.51A5.14,5.14,0,0,1,19,20.74a1,1,0,0,1,1.73,1,3.15,3.15,0,0,0,.07,3.1,1,1,0,0,1-.87,1.49Z"/><path class="cls-10" d="M25.57,28.06a1,1,0,0,1-.92-.58,1,1,0,0,1,.48-1.31l0,0A5.07,5.07,0,0,0,27,24.9a1,1,0,0,1,1.55,1.27A6.84,6.84,0,0,1,26,28,1,1,0,0,1,25.57,28.06Z"/><path class="cls-12" d="M108.3,2.89a55.2,55.2,0,0,0-8.27.82,55.2,55.2,0,0,0-8.27-.82c-9.16-.25-16.65,1.53-16.73,4s7.29,4.61,16.45,4.86a54.77,54.77,0,0,0,8.55-.4,54.77,54.77,0,0,0,8.55.4c9.16-.25,16.53-2.42,16.45-4.86S117.46,2.65,108.3,2.89Z"/><g class="cls-2"><path class="cls-13" d="M123.22,4.94c-2.72,1.49-8.24,2.6-14.64,2.77a54.77,54.77,0,0,1-8.55-.4,54.77,54.77,0,0,1-8.55.4c-6.4-.17-11.92-1.29-14.64-2.77-1.13.56-1.79,1.21-1.81,1.92C75,9.3,82.32,11.47,91.48,11.72a54.78,54.78,0,0,0,8.55-.4,54.78,54.78,0,0,0,8.55.4c9.16-.25,16.53-2.42,16.45-4.86C125,6.15,124.35,5.51,123.22,4.94Z"/></g><path class="cls-10" d="M93.13,12.74l-1.67,0c-7.88-.21-14.56-1.83-16.63-4A2.58,2.58,0,0,1,74,6.83c.12-3.72,9.28-5.17,17.75-4.94a56.88,56.88,0,0,1,8.25.8,56.88,56.88,0,0,1,8.25-.8c8.48-.23,17.64,1.22,17.75,4.94a2.58,2.58,0,0,1-.79,1.87c-2.07,2.19-8.75,3.81-16.63,4a56.28,56.28,0,0,1-8.57-.4A54.52,54.52,0,0,1,93.13,12.74ZM90.07,3.87c-8.7,0-14,1.89-14,3a.75.75,0,0,0,.25.43c1.44,1.52,7.13,3.17,15.23,3.39a53.91,53.91,0,0,0,8.39-.4,1,1,0,0,1,.26,0,53.92,53.92,0,0,0,8.39.4c8.1-.22,13.8-1.87,15.23-3.39a.75.75,0,0,0,.25-.43c0-1.21-6-3.26-15.7-3h0a54.48,54.48,0,0,0-8.12.8,1,1,0,0,1-.36,0,54.48,54.48,0,0,0-8.12-.8Zm18.23-1h0Z"/><path class="cls-12" d="M115.7,11.4c-6.77-5.9-13.79-9-15.66-7h0c-1.88-2-8.89,1.13-15.66,7S73.62,23.71,75.49,25.73s8.89-1.13,15.66-7c4.48-3.91,7.73-8,8.87-11,1.14,2.93,4.39,7.06,8.87,11,6.77,5.9,13.79,9,15.66,7S122.47,17.29,115.7,11.4Z"/><g class="cls-2"><path class="cls-13" d="M108.9,14.7c-4.26-3.71-7.37-7.6-8.66-10.49a1.61,1.61,0,0,0-.21.16h0a1.61,1.61,0,0,0-.21-.16C98.53,7.1,95.41,11,91.16,14.7c-6.58,5.73-13.37,8.85-15.47,7.18-.78,1.73-.89,3.1-.19,3.85,1.88,2,8.89-1.13,15.66-7,4.48-3.91,7.73-8,8.87-11,1.14,2.93,4.39,7.06,8.87,11,6.77,5.9,13.79,9,15.66,7,.7-.75.58-2.12-.19-3.85C122.27,23.54,115.48,20.42,108.9,14.7Z"/></g><path class="cls-10" d="M122.81,27.33c-3.63,0-9.54-3.51-14.57-7.88A39.65,39.65,0,0,1,100,10a39.66,39.66,0,0,1-8.21,9.44c-6.46,5.62-14.39,9.82-17.05,7A3,3,0,0,1,74,24.14c.17-3.23,4-8.53,9.67-13.49C89.65,5.47,96.83,1.51,100,3.13c3.15-1.66,10.37,2.32,16.33,7.51,5.71,5,9.5,10.26,9.67,13.49a3,3,0,0,1-.73,2.27A3.25,3.25,0,0,1,122.81,27.33ZM98.26,4.74C96,4.74,90.81,7.11,85,12.15S76.15,22,76,24.24a1.09,1.09,0,0,0,.19.81c1.12,1.2,7.23-1,14.28-7.1,4.18-3.64,7.47-7.69,8.6-10.57a1,1,0,0,1,1.86,0c1.13,2.88,4.42,6.93,8.6,10.57,7,6.13,13.16,8.3,14.27,7.1a1.09,1.09,0,0,0,.19-.81c-.12-2.22-3.24-7.09-9-12.09h0C108,6,101.92,3.87,100.78,5l0,0a1,1,0,0,1-1.41,0l0,0A1.48,1.48,0,0,0,98.26,4.74Z"/><path class="cls-12" d="M109.16,16.19c-2.1-5.21-4.76-9.42-7-11.48-1.53-1.28-2.81-1.28-4.26,0C95.62,6.78,93,11,90.87,16.21c-3.23,8.07-3.9,15.44-1.5,16.46s7-4.68,10.22-12.75c.15-.37.29-.74.42-1.11.14.37.28.74.43,1.11,3.25,8.06,7.83,13.76,10.24,12.73S112.41,24.25,109.16,16.19Z"/><g class="cls-2"><path class="cls-13" d="M110.69,28.65c-2.41,1-7-4.67-10.24-12.73-.15-.37-.29-.74-.43-1.11-.14.37-.28.74-.42,1.11C96.36,24,91.79,29.69,89.38,28.67a2.74,2.74,0,0,1-1.3-2.21c-.39,3.3,0,5.66,1.3,6.21,2.41,1,7-4.68,10.22-12.75.15-.37.29-.74.42-1.11.14.37.28.74.43,1.11,3.25,8.06,7.83,13.76,10.24,12.73,1.28-.55,1.68-2.9,1.29-6.19A2.72,2.72,0,0,1,110.69,28.65Z"/></g><path class="cls-10" d="M90,33.79a2.53,2.53,0,0,1-1-.2c-3.45-1.47-2.13-10,1-17.75C92,10.66,94.74,6.22,97.21,4c1.84-1.62,3.65-1.63,5.57,0,2.5,2.27,5.23,6.7,7.31,11.87h0c3.1,7.7,4.44,16.27,1,17.75a2.87,2.87,0,0,1-2.28-.07c-2.71-1.12-6.09-5.77-8.77-12-2.67,6.23-6,10.88-8.75,12A3.34,3.34,0,0,1,90,33.79Zm10-29a2.26,2.26,0,0,0-1.45.72c-2.21,2-4.8,6.28-6.74,11.11-3.61,9-3.24,14.65-2,15.17a1,1,0,0,0,.73-.09c2-.82,5.41-5.24,8.17-12.11.14-.36.28-.71.41-1.07a1,1,0,0,1,.94-.66h0a1,1,0,0,1,.94.64c.16.42.28.75.42,1.09,2.77,6.87,6.21,11.28,8.19,12.1a1,1,0,0,0,.73.08c1.21-.52,1.56-6.18-2.06-15.17-1.95-4.84-4.54-9.09-6.77-11.11A2.4,2.4,0,0,0,100,4.75Z"/><path class="cls-14" d="M81.08,25.36a8.62,8.62,0,0,0-1-3.21m6.31.27A9.47,9.47,0,0,0,84.75,18m5.92-1.23a6.58,6.58,0,0,0-1.1-3.81m3.57,18a6.61,6.61,0,0,0-2.09-3.11m5.42-1.44A10.32,10.32,0,0,0,93.78,22m5.58-1.49A10.58,10.58,0,0,0,96.52,16m-16-8.91A4.82,4.82,0,0,0,79,9.88m6.86-2.8a8.22,8.22,0,0,0-1.7,4M120,22.14a8.62,8.62,0,0,0-1,3.21M115.31,18a9.47,9.47,0,0,0-1.6,4.45m-3.22-9.5a6.58,6.58,0,0,0-1.1,3.81M109,27.78a6.61,6.61,0,0,0-2.09,3.11M106.28,22a10.32,10.32,0,0,0-2.69,4.34M103.54,16a10.58,10.58,0,0,0-2.84,4.52M121,9.88a4.82,4.82,0,0,0-1.46-2.8m-3.7,4a8.22,8.22,0,0,0-1.7-4m-14.13,4v7.73"/><path class="cls-10" d="M49,116H25a1,1,0,1,1,0-2H49a1,1,0,1,1,0,2Z"/><path class="cls-10" d="M116,116H52a1,1,0,1,1,0-2h64a1,1,0,0,1,0,2Z"/><path class="cls-10" d="M123,116h-4a1,1,0,1,1,0-2h4a1,1,0,1,1,0,2Z"/><path class="cls-10" d="M22,116H11a1,1,0,1,1,0-2H22a1,1,0,1,1,0,2Z"/></g><rect class="cls-17" height="3.99" width="92" x="17" y="111.01"/><path class="cls-10" d="M109,116H17a1,1,0,0,1-1-1v-4a1,1,0,0,1,1-1h92a1,1,0,0,1,1,1v4A1,1,0,0,1,109,116Zm-91-2h90v-2H18Z"/><rect class="cls-17" height="3.99" width="92" x="17" y="107.01"/><path class="cls-10" d="M109,112H17a1,1,0,0,1-1-1v-4a1,1,0,0,1,1-1h92a1,1,0,0,1,1,1v4A1,1,0,0,1,109,112Zm-91-2h90v-2H18Z"/><rect class="cls-17" height="3.99" width="92" x="17" y="103.01"/><path class="cls-10" d="M109,108H17a1,1,0,0,1-1-1v-4a1,1,0,0,1,1-1h92a1,1,0,0,1,1,1v4A1,1,0,0,1,109,108Zm-91-2h90v-2H18Z"/><rect class="cls-17" height="48" width="92" x="17" y="55"/><g class="cls-2"><rect class="cls-18" height="24" width="92" x="17" y="79"/></g><path class="cls-10" d="M109,104H17a1,1,0,0,1-1-1V55a1,1,0,0,1,1-1h92a1,1,0,0,1,1,1v48A1,1,0,0,1,109,104Zm-91-2h90V56H18Z"/><path class="cls-19" d="M103,91a6,6,0,0,0-6,6H29a6,6,0,0,0-6-6V67a6,6,0,0,0,6-6H97a6,6,0,0,0,6,6Z"/><g class="cls-2"><path class="cls-18" d="M23,79V91a6,6,0,0,1,6,6H97a6,6,0,0,1,6-6V79Z"/></g><path class="cls-10" d="M97,98H29a1,1,0,0,1-1-1,5,5,0,0,0-5-5,1,1,0,0,1-1-1V67a1,1,0,0,1,1-1,5,5,0,0,0,5-5,1,1,0,0,1,1-1H97a1,1,0,0,1,1,1,5,5,0,0,0,5,5,1,1,0,0,1,1,1V91a1,1,0,0,1-1,1,5,5,0,0,0-5,5A1,1,0,0,1,97,98ZM29.93,96H96.07A7,7,0,0,1,102,90.07V67.93A7,7,0,0,1,96.07,62H29.93A7,7,0,0,1,24,67.93V90.07A7,7,0,0,1,29.93,96Z"/><ellipse class="cls-17" cx="63" cy="81" rx="12.8" ry="16"/><path class="cls-10" d="M63,98c-7.61,0-13.8-7.63-13.8-17S55.39,64,63,64s13.8,7.63,13.8,17S70.61,98,63,98Zm0-32c-6.51,0-11.8,6.73-11.8,15S56.49,96,63,96s11.8-6.73,11.8-15S69.51,66,63,66Z"/><circle class="cls-17" cx="37" cy="79" r="3"/><path class="cls-10" d="M37,83a4,4,0,1,1,4-4A4,4,0,0,1,37,83Zm0-6a2,2,0,1,0,2,2A2,2,0,0,0,37,77Z"/><circle class="cls-10" cx="23" cy="61" r="1"/><path class="cls-10" d="M23,63a2,2,0,1,1,2-2A2,2,0,0,1,23,63Zm0-2h0Zm0,0h0Zm0,0h0Zm0,0h0Zm0,0h0Zm0,0h0Zm0,0h0Zm0,0h0Z"/><circle class="cls-10" cx="23" cy="97" r="1"/><path class="cls-10" d="M23,99a2,2,0,1,1,2-2A2,2,0,0,1,23,99Zm0-2h0Zm0,0h0Zm0,0h0Zm0,0h0Zm0,0h0Zm0,0h0Zm0,0h0Zm0,0h0Z"/><circle class="cls-10" cx="103.01" cy="61" r="1"/><path class="cls-10" d="M103,63a2,2,0,1,1,2-2A2,2,0,0,1,103,63Zm0-2h0Zm0,0h0Zm0,0h0Zm0,0h0Zm0,0h0Zm0,0h0Zm0,0h0Zm0,0h0Z"/><circle class="cls-10" cx="103.01" cy="97" r="1"/><path class="cls-10" d="M103,99a2,2,0,1,1,2-2A2,2,0,0,1,103,99Zm0-2h0Zm0,0h0Zm0,0h0Zm0,0h0Zm0,0h0Zm0,0h0Zm0,0h0Zm0,0h0Z"/><path class="cls-19" d="M68.27,89.81l-.73-.16a.87.87,0,0,1-.73-.89c0-.48,0-1,0-1.52,0-1.22,1.46-2.68,1.54-4.39a6.88,6.88,0,0,0,.77-2.79A1.44,1.44,0,0,0,68.79,79c.12-.64.22-1.31.35-2,.5-2.78-.47-4.79-2.92-5.66-.88-.31-4.54-.95-5.91-2.27-.49-.48-.16,2.21-.6,2.42-2.4,1.08-3.35,2.75-2.85,5.51.12.69.23,1.37.35,2a1.44,1.44,0,0,0-.35,1.07,6.88,6.88,0,0,0,.77,2.79c.08,1.71,1.54,3.09,1.54,4.39,0,.53,0,1,0,1.52a.87.87,0,0,1-.73.89l-.81.16a14.65,14.65,0,0,0-4.36,1.6,12.23,12.23,0,0,0,8.38,5.51A11.29,11.29,0,0,0,63,97h.12a11.29,11.29,0,0,0,1.24-.08,12.24,12.24,0,0,0,8.4-5.54A13.88,13.88,0,0,0,68.27,89.81Z"/><path class="cls-10" d="M63,98a12.6,12.6,0,0,1-1.45-.09A13.18,13.18,0,0,1,52.46,92a1,1,0,0,1,.33-1.44,15.78,15.78,0,0,1,4.65-1.71l.74-.15c0-.46,0-.95,0-1.45a4.06,4.06,0,0,0-.58-1.48,7.21,7.21,0,0,1-.95-2.65,7.65,7.65,0,0,1-.78-3.05,2.74,2.74,0,0,1,.29-1.3L56,78.08c0-.3-.1-.6-.16-.91-.54-3,.46-5.12,3.07-6.43,0-.21,0-.49,0-.69,0-.9.09-1.68.82-2a1.11,1.11,0,0,1,1.19.26c.85.83,3.2,1.42,4.46,1.74.48.12.87.22,1.09.3,2.86,1,4.16,3.49,3.57,6.78-.06.31-.11.61-.16.91l-.12.68a2.74,2.74,0,0,1,.29,1.3,7.64,7.64,0,0,1-.78,3.05,7.51,7.51,0,0,1-1,2.71,4.25,4.25,0,0,0-.56,1.42c0,.5,0,1,0,1.45l.65.14a15,15,0,0,1,4.76,1.68,1,1,0,0,1,.33,1.43,13.18,13.18,0,0,1-9.1,6A12.14,12.14,0,0,1,63.1,98Zm-8.2-6.24a10.88,10.88,0,0,0,7,4.16A10.28,10.28,0,0,0,63,96h.1a10.21,10.21,0,0,0,1.13-.07,10.87,10.87,0,0,0,7-4.19,13.65,13.65,0,0,0-3.13-.94h0l-.73-.16a1.87,1.87,0,0,1-1.51-1.91c0-.46,0-1,0-1.47a5.31,5.31,0,0,1,.78-2.34,5.52,5.52,0,0,0,.76-2.1,1,1,0,0,1,.1-.39,5.94,5.94,0,0,0,.67-2.36.74.74,0,0,0-.06-.36,1,1,0,0,1-.27-.89c.06-.34.12-.7.18-1.06s.1-.62.16-.94c.43-2.36-.32-3.85-2.27-4.54-.19-.07-.51-.15-.91-.25a20.62,20.62,0,0,1-4-1.33c-.06.78-.21,1.42-.84,1.7-2,.92-2.68,2.16-2.27,4.42.06.32.11.63.16.94s.12.71.18,1.06a1,1,0,0,1-.27.89.75.75,0,0,0-.06.36,5.94,5.94,0,0,0,.67,2.36,1,1,0,0,1,.1.39,5.23,5.23,0,0,0,.74,2,5.32,5.32,0,0,1,.81,2.41c0,.52,0,1,0,1.48a1.88,1.88,0,0,1-1.56,1.92l-.79.16A14.42,14.42,0,0,0,54.8,91.76Zm3.47-3.09h0Zm9.45,0h0ZM59.3,70.56h0Z"/><path class="cls-17" d="M79,95H71a14.93,14.93,0,0,0-8-2,14.93,14.93,0,0,0-8,2H47v8H79Z"/><path class="cls-10" d="M79,104H47a1,1,0,0,1-1-1V95a1,1,0,0,1,1-1h7.71A16.23,16.23,0,0,1,63,92a16.23,16.23,0,0,1,8.28,2H79a1,1,0,0,1,1,1v8A1,1,0,0,1,79,104Zm-31-2H78V96H71a1,1,0,0,1-.55-.17A14.09,14.09,0,0,0,63,94a14.09,14.09,0,0,0-7.44,1.84A1,1,0,0,1,55,96H48Z"/><path class="cls-10" d="M43,87H31a1,1,0,0,1,0-2H43a1,1,0,0,1,0,2Z"/><circle class="cls-17" cx="89.01" cy="79" r="3"/><path class="cls-10" d="M89,83a4,4,0,1,1,4-4A4,4,0,0,1,89,83Zm0-6a2,2,0,1,0,2,2A2,2,0,0,0,89,77Z"/><path class="cls-10" d="M95,87H83a1,1,0,0,1,0-2H95a1,1,0,0,1,0,2Z"/><path class="cls-10" d="M75,100H51a1,1,0,0,1,0-2H75a1,1,0,0,1,0,2Z"/><rect class="cls-15" height="64" width="20" x="53" y="53"/><rect class="cls-9" height="5" width="20" x="53" y="53"/><g class="cls-2"><rect class="cls-20" height="15" width="20" x="53" y="102.01"/></g><path class="cls-10" d="M73,118H53a1,1,0,0,1-1-1V53a1,1,0,0,1,1-1H73a1,1,0,0,1,1,1v64A1,1,0,0,1,73,118Zm-19-2H72V54H54Z"/><path class="cls-5" d="M82,110v6c0,2.76,4.48,5,10,5s10-2.24,10-5v-6Z"/><g class="cls-21"><path class="cls-9" d="M92,110H82v6c0,2.76,4.48,5,10,5Z"/></g><path class="cls-10" d="M92,122c-6.17,0-11-2.64-11-6v-6a1,1,0,0,1,1-1h20a1,1,0,0,1,1,1v6C103,119.37,98.17,122,92,122Zm-9-11v5c0,1.89,3.7,4,9,4s9-2.11,9-4v-5Z"/><path class="cls-22" d="M82,104v6c0,2.76,4.48,5,10,5s10-2.24,10-5v-6Z"/><path class="cls-10" d="M92,116c-6.17,0-11-2.64-11-6v-6a1,1,0,0,1,1-1h20a1,1,0,0,1,1,1v6C103,113.37,98.17,116,92,116Zm-9-11v5c0,1.89,3.7,4,9,4s9-2.11,9-4v-5Z"/><path class="cls-22" d="M82,104v6c0,2.76,4.48,5,10,5s10-2.24,10-5v-6Z"/><path class="cls-5" d="M92,104H82v6c0,2.76,4.48,5,10,5Z"/><path class="cls-10" d="M92,116c-6.17,0-11-2.64-11-6v-6a1,1,0,0,1,1-1h20a1,1,0,0,1,1,1v6C103,113.37,98.17,116,92,116Zm-9-11v5c0,1.89,3.7,4,9,4s9-2.11,9-4v-5Z"/><path class="cls-5" d="M82,98v6c0,2.76,4.48,5,10,5s10-2.24,10-5V98Z"/><g class="cls-21"><path class="cls-9" d="M92,98H82v6c0,2.76,4.48,5,10,5Z"/></g><path class="cls-10" d="M92,110c-6.17,0-11-2.64-11-6V98a1,1,0,0,1,1-1h20a1,1,0,0,1,1,1v6C103,107.37,98.17,110,92,110ZM83,99v5c0,1.89,3.7,4,9,4s9-2.11,9-4V99Z"/><path class="cls-22" d="M82,92v6c0,2.76,4.48,5,10,5s10-2.24,10-5V92Z"/><path class="cls-10" d="M92,104c-6.17,0-11-2.64-11-6V92a1,1,0,0,1,1-1h20a1,1,0,0,1,1,1v6C103,101.37,98.17,104,92,104ZM83,93v5c0,1.89,3.7,4,9,4s9-2.11,9-4V93Z"/><path class="cls-22" d="M82,92v6c0,2.76,4.48,5,10,5s10-2.24,10-5V92Z"/><path class="cls-5" d="M92,92H82v6c0,2.76,4.48,5,10,5Z"/><path class="cls-10" d="M92,104c-6.17,0-11-2.64-11-6V92a1,1,0,0,1,1-1h20a1,1,0,0,1,1,1v6C103,101.37,98.17,104,92,104ZM83,93v5c0,1.89,3.7,4,9,4s9-2.11,9-4V93Z"/><path class="cls-5" d="M82,86v6c0,2.76,4.48,5,10,5s10-2.24,10-5V86Z"/><g class="cls-21"><path class="cls-9" d="M92,86H82v6c0,2.76,4.48,5,10,5Z"/></g><path class="cls-10" d="M92,98c-6.17,0-11-2.64-11-6V86a1,1,0,0,1,1-1h20a1,1,0,0,1,1,1v6C103,95.37,98.17,98,92,98ZM83,87v5c0,1.89,3.7,4,9,4s9-2.11,9-4V87Z"/><path class="cls-22" d="M82,80v6c0,2.76,4.48,5,10,5s10-2.24,10-5V80Z"/><path class="cls-10" d="M92,92c-6.17,0-11-2.64-11-6V80a1,1,0,0,1,1-1h20a1,1,0,0,1,1,1v6C103,89.37,98.17,92,92,92ZM83,81v5c0,1.89,3.7,4,9,4s9-2.11,9-4V81Z"/><path class="cls-22" d="M82,80v6c0,2.76,4.48,5,10,5s10-2.24,10-5V80Z"/><path class="cls-5" d="M92,80H82v6c0,2.76,4.48,5,10,5Z"/><path class="cls-10" d="M92,92c-6.17,0-11-2.64-11-6V80a1,1,0,0,1,1-1h20a1,1,0,0,1,1,1v6C103,89.37,98.17,92,92,92ZM83,81v5c0,1.89,3.7,4,9,4s9-2.11,9-4V81Z"/><ellipse class="cls-22" cx="92" cy="80" rx="10" ry="5"/><path class="cls-10" d="M92,86c-6.17,0-11-2.64-11-6s4.83-6,11-6,11,2.64,11,6S98.17,86,92,86Zm0-10c-5.3,0-9,2.11-9,4s3.7,4,9,4,9-2.11,9-4S97.31,76,92,76Z"/><ellipse class="cls-5" cx="92" cy="80" rx="6" ry="2"/><path class="cls-22" d="M98,114v6c0,2.76,4.48,5,10,5s10-2.24,10-5v-6Z"/><path class="cls-10" d="M108,126c-6.17,0-11-2.64-11-6v-6a1,1,0,0,1,1-1h20a1,1,0,0,1,1,1v6C119,123.37,114.17,126,108,126Zm-9-11v5c0,1.89,3.7,4,9,4s9-2.11,9-4v-5Z"/><path class="cls-22" d="M98,114v6c0,2.76,4.48,5,10,5s10-2.24,10-5v-6Z"/><path class="cls-5" d="M108,114H98v6c0,2.76,4.48,5,10,5Z"/><path class="cls-10" d="M108,126c-6.17,0-11-2.64-11-6v-6a1,1,0,0,1,1-1h20a1,1,0,0,1,1,1v6C119,123.37,114.17,126,108,126Zm-9-11v5c0,1.89,3.7,4,9,4s9-2.11,9-4v-5Z"/><path class="cls-5" d="M98,108v6c0,2.76,4.48,5,10,5s10-2.24,10-5v-6Z"/><g class="cls-21"><path class="cls-9" d="M108,108H98v6c0,2.76,4.48,5,10,5Z"/></g><path class="cls-10" d="M108,120c-6.17,0-11-2.64-11-6v-6a1,1,0,0,1,1-1h20a1,1,0,0,1,1,1v6C119,117.37,114.17,120,108,120Zm-9-11v5c0,1.89,3.7,4,9,4s9-2.11,9-4v-5Z"/><path class="cls-22" d="M98,102v6c0,2.76,4.48,5,10,5s10-2.24,10-5v-6Z"/><path class="cls-10" d="M108,114c-6.17,0-11-2.64-11-6v-6a1,1,0,0,1,1-1h20a1,1,0,0,1,1,1v6C119,111.37,114.17,114,108,114Zm-9-11v5c0,1.89,3.7,4,9,4s9-2.11,9-4v-5Z"/><path class="cls-22" d="M98,102v6c0,2.76,4.48,5,10,5s10-2.24,10-5v-6Z"/><path class="cls-5" d="M108,102H98v6c0,2.76,4.48,5,10,5Z"/><path class="cls-10" d="M108,114c-6.17,0-11-2.64-11-6v-6a1,1,0,0,1,1-1h20a1,1,0,0,1,1,1v6C119,111.37,114.17,114,108,114Zm-9-11v5c0,1.89,3.7,4,9,4s9-2.11,9-4v-5Z"/><path class="cls-5" d="M98,96v6c0,2.76,4.48,5,10,5s10-2.24,10-5V96Z"/><g class="cls-21"><path class="cls-9" d="M108,96H98v6c0,2.76,4.48,5,10,5Z"/></g><path class="cls-10" d="M108,108c-6.17,0-11-2.64-11-6V96a1,1,0,0,1,1-1h20a1,1,0,0,1,1,1v6C119,105.37,114.17,108,108,108ZM99,97v5c0,1.89,3.7,4,9,4s9-2.11,9-4V97Z"/><path class="cls-22" d="M98,90v6c0,2.76,4.48,5,10,5s10-2.24,10-5V90Z"/><path class="cls-10" d="M108,102c-6.17,0-11-2.64-11-6V90a1,1,0,0,1,1-1h20a1,1,0,0,1,1,1v6C119,99.37,114.17,102,108,102ZM99,91v5c0,1.89,3.7,4,9,4s9-2.11,9-4V91Z"/><path class="cls-22" d="M98,90v6c0,2.76,4.48,5,10,5s10-2.24,10-5V90Z"/><path class="cls-5" d="M108,90H98v6c0,2.76,4.48,5,10,5Z"/><path class="cls-10" d="M108,102c-6.17,0-11-2.64-11-6V90a1,1,0,0,1,1-1h20a1,1,0,0,1,1,1v6C119,99.37,114.17,102,108,102ZM99,91v5c0,1.89,3.7,4,9,4s9-2.11,9-4V91Z"/><path class="cls-5" d="M98,84v6c0,2.76,4.48,5,10,5s10-2.24,10-5V84Z"/><g class="cls-21"><path class="cls-9" d="M108,84H98v6c0,2.76,4.48,5,10,5Z"/></g><path class="cls-10" d="M108,96c-6.17,0-11-2.64-11-6V84a1,1,0,0,1,1-1h20a1,1,0,0,1,1,1v6C119,93.37,114.17,96,108,96ZM99,85v5c0,1.89,3.7,4,9,4s9-2.11,9-4V85Z"/><path class="cls-22" d="M98,78v6c0,2.76,4.48,5,10,5s10-2.24,10-5V78Z"/><path class="cls-10" d="M108,90c-6.17,0-11-2.64-11-6V78a1,1,0,0,1,1-1h20a1,1,0,0,1,1,1v6C119,87.37,114.17,90,108,90ZM99,79v5c0,1.89,3.7,4,9,4s9-2.11,9-4V79Z"/><path class="cls-22" d="M98,78v6c0,2.76,4.48,5,10,5s10-2.24,10-5V78Z"/><path class="cls-5" d="M108,78H98v6c0,2.76,4.48,5,10,5Z"/><path class="cls-10" d="M108,90c-6.17,0-11-2.64-11-6V78a1,1,0,0,1,1-1h20a1,1,0,0,1,1,1v6C119,87.37,114.17,90,108,90ZM99,79v5c0,1.89,3.7,4,9,4s9-2.11,9-4V79Z"/><path class="cls-5" d="M98,72v6c0,2.76,4.48,5,10,5s10-2.24,10-5V72Z"/><g class="cls-21"><path class="cls-9" d="M108,72H98v6c0,2.76,4.48,5,10,5Z"/></g><path class="cls-10" d="M108,84c-6.17,0-11-2.64-11-6V72a1,1,0,0,1,1-1h20a1,1,0,0,1,1,1v6C119,81.37,114.17,84,108,84ZM99,73v5c0,1.89,3.7,4,9,4s9-2.11,9-4V73Z"/><path class="cls-22" d="M98,66v6c0,2.76,4.48,5,10,5s10-2.24,10-5V66Z"/><path class="cls-10" d="M108,78c-6.17,0-11-2.64-11-6V66a1,1,0,0,1,1-1h20a1,1,0,0,1,1,1v6C119,75.37,114.17,78,108,78ZM99,67v5c0,1.89,3.7,4,9,4s9-2.11,9-4V67Z"/><path class="cls-22" d="M98,66v6c0,2.76,4.48,5,10,5s10-2.24,10-5V66Z"/><path class="cls-5" d="M108,66H98v6c0,2.76,4.48,5,10,5Z"/><path class="cls-10" d="M108,78c-6.17,0-11-2.64-11-6V66a1,1,0,0,1,1-1h20a1,1,0,0,1,1,1v6C119,75.37,114.17,78,108,78ZM99,67v5c0,1.89,3.7,4,9,4s9-2.11,9-4V67Z"/><path class="cls-5" d="M98,60v6c0,2.76,4.48,5,10,5s10-2.24,10-5V60Z"/><g class="cls-21"><path class="cls-9" d="M108,60H98v6c0,2.76,4.48,5,10,5Z"/></g><path class="cls-10" d="M108,72c-6.17,0-11-2.64-11-6V60a1,1,0,0,1,1-1h20a1,1,0,0,1,1,1v6C119,69.36,114.17,72,108,72ZM99,61v5c0,1.89,3.7,4,9,4s9-2.11,9-4V61Z"/><path class="cls-22" d="M98,54v6c0,2.76,4.48,5,10,5s10-2.24,10-5V54Z"/><path class="cls-10" d="M108,66c-6.17,0-11-2.64-11-6V54a1,1,0,0,1,1-1h20a1,1,0,0,1,1,1v6C119,63.36,114.17,66,108,66ZM99,55v5c0,1.89,3.7,4,9,4s9-2.11,9-4V55Z"/><path class="cls-22" d="M98,54v6c0,2.76,4.48,5,10,5s10-2.24,10-5V54Z"/><path class="cls-5" d="M108,54H98v6c0,2.76,4.48,5,10,5Z"/><path class="cls-10" d="M108,66c-6.17,0-11-2.64-11-6V54a1,1,0,0,1,1-1h20a1,1,0,0,1,1,1v6C119,63.36,114.17,66,108,66ZM99,55v5c0,1.89,3.7,4,9,4s9-2.11,9-4V55Z"/><ellipse class="cls-22" cx="108" cy="54" rx="10" ry="5"/><path class="cls-10" d="M108,60c-6.17,0-11-2.64-11-6s4.83-6,11-6,11,2.64,11,6S114.17,60,108,60Zm0-10c-5.3,0-9,2.11-9,4s3.7,4,9,4,9-2.11,9-4S113.31,50,108,50Z"/><ellipse class="cls-5" cx="108" cy="54" rx="6" ry="2"/><path class="cls-22" d="M66,114v6c0,2.76,4.48,5,10,5s10-2.24,10-5v-6Z"/><path class="cls-10" d="M76,126c-6.17,0-11-2.64-11-6v-6a1,1,0,0,1,1-1H86a1,1,0,0,1,1,1v6C87,123.37,82.17,126,76,126Zm-9-11v5c0,1.89,3.7,4,9,4s9-2.11,9-4v-5Z"/><path class="cls-22" d="M66,114v6c0,2.76,4.48,5,10,5s10-2.24,10-5v-6Z"/><path class="cls-5" d="M76,114H66v6c0,2.76,4.48,5,10,5Z"/><path class="cls-10" d="M76,126c-6.17,0-11-2.64-11-6v-6a1,1,0,0,1,1-1H86a1,1,0,0,1,1,1v6C87,123.37,82.17,126,76,126Zm-9-11v5c0,1.89,3.7,4,9,4s9-2.11,9-4v-5Z"/><path class="cls-5" d="M66,108v6c0,2.76,4.48,5,10,5s10-2.24,10-5v-6Z"/><g class="cls-21"><path class="cls-9" d="M76,108H66v6c0,2.76,4.48,5,10,5Z"/></g><path class="cls-10" d="M76,120c-6.17,0-11-2.64-11-6v-6a1,1,0,0,1,1-1H86a1,1,0,0,1,1,1v6C87,117.37,82.17,120,76,120Zm-9-11v5c0,1.89,3.7,4,9,4s9-2.11,9-4v-5Z"/><path class="cls-22" d="M66,102v6c0,2.76,4.48,5,10,5s10-2.24,10-5v-6Z"/><path class="cls-10" d="M76,114c-6.17,0-11-2.64-11-6v-6a1,1,0,0,1,1-1H86a1,1,0,0,1,1,1v6C87,111.37,82.17,114,76,114Zm-9-11v5c0,1.89,3.7,4,9,4s9-2.11,9-4v-5Z"/><path class="cls-22" d="M66,102v6c0,2.76,4.48,5,10,5s10-2.24,10-5v-6Z"/><path class="cls-5" d="M76,102H66v6c0,2.76,4.48,5,10,5Z"/><path class="cls-10" d="M76,114c-6.17,0-11-2.64-11-6v-6a1,1,0,0,1,1-1H86a1,1,0,0,1,1,1v6C87,111.37,82.17,114,76,114Zm-9-11v5c0,1.89,3.7,4,9,4s9-2.11,9-4v-5Z"/><ellipse class="cls-22" cx="76" cy="102" rx="10" ry="5"/><path class="cls-10" d="M76,108c-6.17,0-11-2.64-11-6s4.83-6,11-6,11,2.64,11,6S82.17,108,76,108Zm0-10c-5.3,0-9,2.11-9,4s3.7,4,9,4,9-2.11,9-4S81.3,98,76,98Z"/><ellipse class="cls-5" cx="76" cy="102" rx="6" ry="2"/><path class="cls-9" d="M115.23,88.85a7.4,7.4,0,0,0,4.92,4.92q3.69,1.23,0,2.46a7.4,7.4,0,0,0-4.92,4.92q-1.23,3.69-2.46,0a7.4,7.4,0,0,0-4.92-4.92q-3.69-1.23,0-2.46a7.4,7.4,0,0,0,4.92-4.92Q114,85.16,115.23,88.85Z"/><path class="cls-5" d="M42.92,115.39a5.55,5.55,0,0,0,3.69,3.69q2.77.92,0,1.85a5.55,5.55,0,0,0-3.69,3.69q-.92,2.77-1.85,0a5.55,5.55,0,0,0-3.69-3.69q-2.77-.92,0-1.85a5.55,5.55,0,0,0,3.69-3.69Q42,112.62,42.92,115.39Z"/><path class="cls-9" d="M83,75.57A3.7,3.7,0,0,0,85.48,78q1.85.62,0,1.23A3.7,3.7,0,0,0,83,81.73q-.62,1.85-1.23,0a3.7,3.7,0,0,0-2.46-2.46q-1.85-.62,0-1.23a3.7,3.7,0,0,0,2.46-2.46Q82.4,73.73,83,75.57Z"/></svg>