<?xml version="1.0" ?><svg data-name="003" id="_003" viewBox="0 0 128 128" xmlns="http://www.w3.org/2000/svg"><defs><style>.cls-1{opacity:0.3;}.cls-2{fill:#c9c1f5;}.cls-3{fill:#ced8ee;}.cls-4{fill:#6d6daa;}.cls-5{fill:#2b5c8e;}.cls-6{fill:#e0f3ff;}.cls-7{fill:#c7e9ff;}.cls-8{fill:#1c64ba;}.cls-9{fill:#eef6ff;}.cls-10{fill:#5cbeff;}.cls-11{fill:#96d7ff;}.cls-12{fill:#f5fbff;}.cls-13{fill:#fff;}.cls-14{fill:#7690a8;}.cls-15{fill:#ff9797;}.cls-16{fill:#ffc661;}.cls-17{fill:#b1f1a8;}.cls-18{opacity:0.5;}.cls-19{fill:#fffad1;}.cls-20{fill:#ff99b1;}.cls-20,.cls-21,.cls-22{fill-rule:evenodd;}.cls-21{fill:#db4962;}.cls-22{fill:#fff9e0;}.cls-23{fill:#a09557;}</style></defs><title/><g class="cls-1"><path class="cls-2" d="M92,102.27A39,39,0,1,0,80.45,25.14a20.62,20.62,0,0,1-20.6-9.66A30.75,30.75,0,1,0,12.07,53.56C18.17,59.62,19.73,69,15.2,76.3a33.75,33.75,0,0,0,55.21,38.64A33.63,33.63,0,0,1,92,102.27Z"/><polygon class="cls-3" points="43 95 25 95 25 93 25 81 43 81 43 93 43 95"/><path class="cls-4" d="M43,96H25a1,1,0,0,1-1-1V81a1,1,0,0,1,1-1H43a1,1,0,0,1,1,1V95A1,1,0,0,1,43,96ZM26,94H42V82H26Z"/><g class="cls-1"><rect class="cls-5" height="4" width="16" x="26" y="81"/></g><path class="cls-4" d="M46,96H22a1,1,0,0,1,0-2H46a1,1,0,1,1,0,2Z"/><path class="cls-6" d="M3,25H81a2,2,0,0,1,2,2V71a0,0,0,0,1,0,0H1a0,0,0,0,1,0,0V27A2,2,0,0,1,3,25Z"/><polygon class="cls-7" points="82 30 2 66 2 26 82 26 82 30"/><g class="cls-1"><path class="cls-8" d="M81,25H3a2,2,0,0,0-2,2v4a2,2,0,0,1,2-2H81a2,2,0,0,1,2,2V27A2,2,0,0,0,81,25Z"/></g><path class="cls-4" d="M83,72H1a1,1,0,0,1-1-1V27a3,3,0,0,1,3-3H81a3,3,0,0,1,3,3V71A1,1,0,0,1,83,72ZM2,70H82V27a1,1,0,0,0-1-1H3a1,1,0,0,0-1,1Z"/><polygon class="cls-7" points="82 36 2 72 2 69 82 33 82 36"/><path class="cls-9" d="M1,71H83a0,0,0,0,1,0,0v6a4,4,0,0,1-4,4H5a4,4,0,0,1-4-4V71a0,0,0,0,1,0,0Z"/><path class="cls-4" d="M79,82H5a5,5,0,0,1-5-5V71a1,1,0,0,1,1-1H83a1,1,0,0,1,1,1v6A5,5,0,0,1,79,82ZM2,72v5a3,3,0,0,0,3,3H79a3,3,0,0,0,3-3V72Z"/><rect class="cls-10" height="37" rx="1" ry="1" width="48" x="72" y="4"/><path class="cls-11" d="M73,4h46a1,1,0,0,1,1,1V38a0,0,0,0,1,0,0H72a0,0,0,0,1,0,0V5A1,1,0,0,1,73,4Z"/><path class="cls-7" d="M119.66,4.26A1,1,0,0,0,119,4H73a1,1,0,0,0-1,1V26.9Z"/><polygon class="cls-7" points="120 9.1 120 6.1 72 28.9 72 31.9 120 9.1"/><g class="cls-1"><path class="cls-8" d="M119,4H73a1,1,0,0,0-1,1V9a1,1,0,0,1,1-1h46a1,1,0,0,1,1,1V5A1,1,0,0,0,119,4Z"/></g><path class="cls-4" d="M119,42H73a2,2,0,0,1-2-2V5a2,2,0,0,1,2-2h46a2,2,0,0,1,2,2V40A2,2,0,0,1,119,42ZM73,5V40h46V5Z"/><path class="cls-9" d="M123,36H104l-1,1H89l-1-1H68v3a2,2,0,0,0,2,2h51a2,2,0,0,0,2-2Z"/><path class="cls-4" d="M121,42H70a3,3,0,0,1-3-3V36a1,1,0,0,1,1-1H88a1,1,0,0,1,.71.29l.71.71h13.17l.71-.71A1,1,0,0,1,104,35h19a1,1,0,0,1,1,1v3A3,3,0,0,1,121,42ZM69,37v2a1,1,0,0,0,1,1h51a1,1,0,0,0,1-1V37H104.41l-.71.71A1,1,0,0,1,103,38H89a1,1,0,0,1-.71-.29L87.59,37Z"/><rect class="cls-9" height="44" rx="2" ry="2" width="30" x="93" y="61"/><path class="cls-4" d="M121,106H95a3,3,0,0,1-3-3V63a3,3,0,0,1,3-3h26a3,3,0,0,1,3,3v40A3,3,0,0,1,121,106ZM95,62a1,1,0,0,0-1,1v40a1,1,0,0,0,1,1h26a1,1,0,0,0,1-1V63a1,1,0,0,0-1-1Z"/><rect class="cls-11" height="32" width="30" x="93" y="65"/><polygon class="cls-7" points="123 69.22 93 87 93 65 123 65 123 69.22"/><polygon class="cls-7" points="123 73.22 93 91 93 89 123 71.22 123 73.22"/><path class="cls-4" d="M108,102.5a1.46,1.46,0,0,1-1.06-.44,1.5,1.5,0,0,1-.44-1.06,1.35,1.35,0,0,1,0-.29,1.3,1.3,0,0,1,.09-.28,1.27,1.27,0,0,1,.13-.26,2.11,2.11,0,0,1,.19-.23,1.55,1.55,0,0,1,2.12,0,2.17,2.17,0,0,1,.19.23,1.91,1.91,0,0,1,.22.54,1.35,1.35,0,0,1,0,.29,1.5,1.5,0,0,1-.44,1.06A1.46,1.46,0,0,1,108,102.5Z"/><g class="cls-1"><rect class="cls-8" height="4" width="30" x="93" y="65"/></g><path class="cls-4" d="M123,98H93a1,1,0,0,1-1-1V65a1,1,0,0,1,1-1h30a1,1,0,0,1,1,1V97A1,1,0,0,1,123,98ZM94,96h28V66H94Z"/><rect class="cls-9" height="34" rx="2" ry="2" width="18" x="13" y="15"/><path class="cls-4" d="M29,50H15a3,3,0,0,1-3-3V17a3,3,0,0,1,3-3H29a3,3,0,0,1,3,3V47A3,3,0,0,1,29,50ZM15,16a1,1,0,0,0-1,1V47a1,1,0,0,0,1,1H29a1,1,0,0,0,1-1V17a1,1,0,0,0-1-1Z"/><rect class="cls-12" height="22" width="18" x="13" y="19"/><path class="cls-4" d="M31,42H13a1,1,0,0,1-1-1V19a1,1,0,0,1,1-1H31a1,1,0,0,1,1,1V41A1,1,0,0,1,31,42ZM14,40H30V20H14Z"/><polygon class="cls-7" points="13 33 31 22.33 31 19 13 19 13 33"/><polygon class="cls-7" points="13 37 31 26.33 31 24.33 13 35 13 37"/><path class="cls-4" d="M22,46.5a1.56,1.56,0,0,1-.57-.11,1.62,1.62,0,0,1-.49-.33,1.34,1.34,0,0,1-.32-.49A1.39,1.39,0,0,1,20.5,45a1.35,1.35,0,0,1,0-.29,1.3,1.3,0,0,1,.09-.28,1.27,1.27,0,0,1,.13-.26,1.55,1.55,0,0,1,.42-.42,1.24,1.24,0,0,1,.26-.13,1.29,1.29,0,0,1,.28-.09,1.42,1.42,0,0,1,.58,0,1.57,1.57,0,0,1,.29.09,1.15,1.15,0,0,1,.25.13,1.47,1.47,0,0,1,.23.19,2.17,2.17,0,0,1,.19.23,1.37,1.37,0,0,1,.22.54,1.35,1.35,0,0,1,0,.29,1.55,1.55,0,0,1-.11.57,1.5,1.5,0,0,1-.33.49,1.57,1.57,0,0,1-.48.33A1.65,1.65,0,0,1,22,46.5Z"/><g class="cls-1"><rect class="cls-8" height="4" width="18" x="13" y="19"/></g><path class="cls-4" d="M31,42H13a1,1,0,0,1-1-1V19a1,1,0,0,1,1-1H31a1,1,0,0,1,1,1V41A1,1,0,0,1,31,42ZM14,40H30V20H14Z"/><path class="cls-4" d="M109,126H23a1,1,0,1,1,0-2h86a1,1,0,0,1,0,2Z"/><path class="cls-4" d="M117,126h-5a1,1,0,0,1,0-2h5a1,1,0,0,1,0,2Z"/><path class="cls-4" d="M20,126H16a1,1,0,0,1,0-2h4a1,1,0,0,1,0,2Z"/></g><rect class="cls-13" height="72" width="76" x="26" y="53"/><g class="cls-1"><path class="cls-14" d="M102,55H26V72.57A5.07,5.07,0,0,0,28,71a5,5,0,0,0,8,0,5,5,0,0,0,8,0,5,5,0,0,0,8,0,5,5,0,0,0,8,0,5,5,0,0,0,8,0,5,5,0,0,0,8,0,5,5,0,0,0,8,0,5,5,0,0,0,8,0,5,5,0,0,0,8,0,5.07,5.07,0,0,0,2,1.6Z"/></g><path class="cls-9" d="M102,45v8H26V45a4,4,0,0,1,4-4H98A4,4,0,0,1,102,45Z"/><path class="cls-13" d="M98,41H30a4,4,0,0,0-4,4v3a4,4,0,0,1,4-4H98a4,4,0,0,1,4,4V45A4,4,0,0,0,98,41Z"/><path class="cls-4" d="M102,126H26a1,1,0,0,1-1-1V45a5,5,0,0,1,5-5H98a5,5,0,0,1,5,5v80A1,1,0,0,1,102,126Zm-75-2h74V45a3,3,0,0,0-3-3H30a3,3,0,0,0-3,3Z"/><rect class="cls-13" height="4" rx="2" ry="2" width="44" x="54" y="45"/><path class="cls-4" d="M96,50H56a3,3,0,0,1,0-6H96a3,3,0,0,1,0,6ZM56,46a1,1,0,0,0,0,2H96a1,1,0,0,0,0-2Z"/><circle class="cls-15" cx="32" cy="47" r="2"/><path class="cls-4" d="M32,50a3,3,0,1,1,3-3A3,3,0,0,1,32,50Zm0-4a1,1,0,1,0,1,1A1,1,0,0,0,32,46Z"/><circle class="cls-16" cx="40" cy="47" r="2"/><path class="cls-4" d="M40,50a3,3,0,1,1,3-3A3,3,0,0,1,40,50Zm0-4a1,1,0,1,0,1,1A1,1,0,0,0,40,46Z"/><circle class="cls-17" cx="48" cy="47" r="2"/><path class="cls-4" d="M48,50a3,3,0,1,1,3-3A3,3,0,0,1,48,50Zm0-4a1,1,0,1,0,1,1A1,1,0,0,0,48,46Z"/><path class="cls-2" d="M24,69h0a4,4,0,0,1-4-4V63h8v2A4,4,0,0,1,24,69Z"/><path class="cls-4" d="M24,70a5,5,0,0,1-5-5V63a1,1,0,0,1,1-1h8a1,1,0,0,1,1,1v2A5,5,0,0,1,24,70Zm-3-6v1a3,3,0,0,0,6,0V64Z"/><path class="cls-13" d="M32,69h0a4,4,0,0,1-4-4V63h8v2A4,4,0,0,1,32,69Z"/><path class="cls-4" d="M32,70a5,5,0,0,1-5-5V63a1,1,0,0,1,1-1h8a1,1,0,0,1,1,1v2A5,5,0,0,1,32,70Zm-3-6v1a3,3,0,0,0,6,0V64Z"/><path class="cls-2" d="M40,69h0a4,4,0,0,1-4-4V63h8v2A4,4,0,0,1,40,69Z"/><path class="cls-4" d="M40,70a5,5,0,0,1-5-5V63a1,1,0,0,1,1-1h8a1,1,0,0,1,1,1v2A5,5,0,0,1,40,70Zm-3-6v1a3,3,0,0,0,6,0V64Z"/><path class="cls-13" d="M48,69h0a4,4,0,0,1-4-4V63h8v2A4,4,0,0,1,48,69Z"/><path class="cls-4" d="M48,70a5,5,0,0,1-5-5V63a1,1,0,0,1,1-1h8a1,1,0,0,1,1,1v2A5,5,0,0,1,48,70Zm-3-6v1a3,3,0,0,0,6,0V64Z"/><path class="cls-2" d="M56,69h0a4,4,0,0,1-4-4V63h8v2A4,4,0,0,1,56,69Z"/><path class="cls-4" d="M56,70a5,5,0,0,1-5-5V63a1,1,0,0,1,1-1h8a1,1,0,0,1,1,1v2A5,5,0,0,1,56,70Zm-3-6v1a3,3,0,0,0,6,0V64Z"/><path class="cls-2" d="M72,69h0a4,4,0,0,1-4-4V63h8v2A4,4,0,0,1,72,69Z"/><path class="cls-4" d="M72,70a5,5,0,0,1-5-5V63a1,1,0,0,1,1-1h8a1,1,0,0,1,1,1v2A5,5,0,0,1,72,70Zm-3-6v1a3,3,0,0,0,6,0V64Z"/><path class="cls-13" d="M80,69h0a4,4,0,0,1-4-4V63h8v2A4,4,0,0,1,80,69Z"/><path class="cls-4" d="M80,70a5,5,0,0,1-5-5V63a1,1,0,0,1,1-1h8a1,1,0,0,1,1,1v2A5,5,0,0,1,80,70Zm-3-6v1a3,3,0,0,0,6,0V64Z"/><path class="cls-2" d="M88,69h0a4,4,0,0,1-4-4V63h8v2A4,4,0,0,1,88,69Z"/><path class="cls-4" d="M88,70a5,5,0,0,1-5-5V63a1,1,0,0,1,1-1h8a1,1,0,0,1,1,1v2A5,5,0,0,1,88,70Zm-3-6v1a3,3,0,0,0,6,0V64Z"/><path class="cls-13" d="M96,69h0a4,4,0,0,1-4-4V63h8v2A4,4,0,0,1,96,69Z"/><path class="cls-4" d="M96,70a5,5,0,0,1-5-5V63a1,1,0,0,1,1-1h8a1,1,0,0,1,1,1v2A5,5,0,0,1,96,70Zm-3-6v1a3,3,0,0,0,6,0V64Z"/><path class="cls-2" d="M104,69h0a4,4,0,0,1-4-4V63h8v2A4,4,0,0,1,104,69Z"/><path class="cls-4" d="M104,70a5,5,0,0,1-5-5V63a1,1,0,0,1,1-1h8a1,1,0,0,1,1,1v2A5,5,0,0,1,104,70Zm-3-6v1a3,3,0,0,0,6,0V64Z"/><polygon class="cls-2" points="28 63 20 63 26 53 32 53 28 63"/><path class="cls-4" d="M28,64H20a1,1,0,0,1-.86-1.51l6-10A1,1,0,0,1,26,52h6a1,1,0,0,1,.93,1.37l-4,10A1,1,0,0,1,28,64Zm-6.23-2h5.56l3.2-8h-4Z"/><polygon class="cls-13" points="36 63 28 63 32 53 39 53 36 63"/><path class="cls-4" d="M36,64H28a1,1,0,0,1-.93-1.37l4-10A1,1,0,0,1,32,52h7a1,1,0,0,1,1,1.29l-3,10A1,1,0,0,1,36,64Zm-6.52-2h5.78l2.4-8h-5Z"/><polygon class="cls-2" points="44 63 36 63 39 53 46 53 44 63"/><path class="cls-4" d="M44,64H36a1,1,0,0,1-1-1.29l3-10A1,1,0,0,1,39,52h7a1,1,0,0,1,1,1.2l-2,10A1,1,0,0,1,44,64Zm-6.66-2h5.84l1.6-8h-5Z"/><polygon class="cls-13" points="52 63 44 63 46 53 53 53 52 63"/><path class="cls-4" d="M52,64H44a1,1,0,0,1-1-1.2l2-10a1,1,0,0,1,1-.8h7a1,1,0,0,1,1,1.1l-1,10A1,1,0,0,1,52,64Zm-6.78-2h5.88l.8-8H46.82Z"/><polygon class="cls-2" points="60 63 52 63 53 53 60 53 60 63"/><path class="cls-4" d="M60,64H52a1,1,0,0,1-1-1.1l1-10a1,1,0,0,1,1-.9h7a1,1,0,0,1,1,1V63A1,1,0,0,1,60,64Zm-6.9-2H59V54H53.9Z"/><path class="cls-13" d="M64,69h0a4,4,0,0,1-4-4V63h8v2A4,4,0,0,1,64,69Z"/><path class="cls-4" d="M64,70a5,5,0,0,1-5-5V63a1,1,0,0,1,1-1h8a1,1,0,0,1,1,1v2A5,5,0,0,1,64,70Zm-3-6v1a3,3,0,0,0,6,0V64Z"/><rect class="cls-13" height="10" width="8" x="60" y="53"/><path class="cls-4" d="M68,64H60a1,1,0,0,1-1-1V53a1,1,0,0,1,1-1h8a1,1,0,0,1,1,1V63A1,1,0,0,1,68,64Zm-7-2h6V54H61Z"/><polygon class="cls-2" points="76 63 68 63 68 53 75 53 76 63"/><path class="cls-4" d="M76,64H68a1,1,0,0,1-1-1V53a1,1,0,0,1,1-1h7a1,1,0,0,1,1,.9l1,10A1,1,0,0,1,76,64Zm-7-2h5.9l-.8-8H69Z"/><polygon class="cls-13" points="84 63 76 63 75 53 82 53 84 63"/><path class="cls-4" d="M84,64H76a1,1,0,0,1-1-.9l-1-10A1,1,0,0,1,75,52h7a1,1,0,0,1,1,.8l2,10A1,1,0,0,1,84,64Zm-7.1-2h5.88l-1.6-8H76.1Z"/><polygon class="cls-2" points="92 63 84 63 82 53 89 53 92 63"/><path class="cls-4" d="M92,64H84a1,1,0,0,1-1-.8l-2-10A1,1,0,0,1,82,52h7a1,1,0,0,1,1,.71l3,10A1,1,0,0,1,92,64Zm-7.18-2h5.84l-2.4-8h-5Z"/><polygon class="cls-13" points="100 63 92 63 89 53 96 53 100 63"/><path class="cls-4" d="M100,64H92a1,1,0,0,1-1-.71l-3-10A1,1,0,0,1,89,52h7a1,1,0,0,1,.93.63l4,10A1,1,0,0,1,100,64Zm-7.26-2h5.78l-3.2-8h-5Z"/><polygon class="cls-2" points="108 63 100 63 96 53 102 53 108 63"/><path class="cls-4" d="M108,64h-8a1,1,0,0,1-.93-.63l-4-10A1,1,0,0,1,96,52h6a1,1,0,0,1,.86.49l6,10A1,1,0,0,1,108,64Zm-7.32-2h5.56l-4.8-8h-4Z"/><rect class="cls-17" height="6" rx="3" ry="3" width="25" x="69" y="109"/><g class="cls-18"><path class="cls-13" d="M91,109H72a3,3,0,0,0-3,3H94A3,3,0,0,0,91,109Z"/></g><path class="cls-4" d="M91,116H72a4,4,0,1,1,0-8H91a4,4,0,0,1,0,8Zm-19-6a2,2,0,1,0,0,4H91a2,2,0,0,0,0-4Z"/><g class="cls-18"><path class="cls-4" d="M49,80H34a1,1,0,0,1,0-2H49a1,1,0,0,1,0,2Z"/><path class="cls-4" d="M77,92H69a1,1,0,1,1,0-2h8a1,1,0,0,1,0,2Z"/><path class="cls-4" d="M94,96H69a1,1,0,1,1,0-2H94a1,1,0,0,1,0,2Z"/><path class="cls-4" d="M88,100H69a1,1,0,1,1,0-2H88a1,1,0,0,1,0,2Z"/><path class="cls-4" d="M69,104a1,1,0,0,1-.38-.08.9.9,0,0,1-.54-.54A.84.84,0,0,1,68,103a1,1,0,0,1,.08-.38.9.9,0,0,1,.54-.54,1,1,0,0,1,1.09.21,1,1,0,0,1,.21.33.94.94,0,0,1,0,.76,1.17,1.17,0,0,1-.21.33,1.15,1.15,0,0,1-.33.21A1,1,0,0,1,69,104Z"/><path class="cls-4" d="M73,104a1,1,0,0,1-.38-.08.9.9,0,0,1-.54-.54.95.95,0,0,1,0-.76,1,1,0,0,1,.21-.33.93.93,0,0,1,.33-.21,1,1,0,0,1,1.09.21,1,1,0,0,1,.21.33.94.94,0,0,1,0,.76,1.17,1.17,0,0,1-.21.33,1.15,1.15,0,0,1-.33.21A1,1,0,0,1,73,104Z"/><path class="cls-4" d="M77,104a1,1,0,0,1-.38-.08.9.9,0,0,1-.54-.54.95.95,0,0,1,0-.76,1,1,0,0,1,1.84,0,.94.94,0,0,1,0,.76,1.17,1.17,0,0,1-.21.33A1,1,0,0,1,77,104Z"/><path class="cls-4" d="M81,104a1,1,0,0,1-.38-.08.9.9,0,0,1-.54-.54.95.95,0,0,1,0-.76,1,1,0,0,1,.21-.33,1.55,1.55,0,0,1,.15-.12.74.74,0,0,1,.18-.09.65.65,0,0,1,.18-.06,1,1,0,0,1,.91.27,1,1,0,0,1,.21.33.94.94,0,0,1,0,.76,1.17,1.17,0,0,1-.21.33A1,1,0,0,1,81,104Z"/><path class="cls-4" d="M85,104a1,1,0,0,1-.71-.29,1.16,1.16,0,0,1-.21-.33.95.95,0,0,1,0-.76,1,1,0,0,1,.21-.33,1,1,0,0,1,.9-.27.62.62,0,0,1,.19.06.54.54,0,0,1,.17.09,1,1,0,0,1,.16.12,1,1,0,0,1,.21.33.94.94,0,0,1,0,.76,1.17,1.17,0,0,1-.21.33,1.15,1.15,0,0,1-.33.21A1,1,0,0,1,85,104Z"/><path class="cls-4" d="M89,104a1,1,0,0,1-.71-.29,1.16,1.16,0,0,1-.21-.33A.84.84,0,0,1,88,103a1,1,0,0,1,.08-.38.9.9,0,0,1,.54-.54,1,1,0,0,1,1.09.21,1,1,0,0,1,.21.33.94.94,0,0,1,0,.76,1.17,1.17,0,0,1-.21.33,1.15,1.15,0,0,1-.33.21A1,1,0,0,1,89,104Z"/><path class="cls-4" d="M93,104a1,1,0,0,1-.71-.29,1.16,1.16,0,0,1-.21-.33.95.95,0,0,1,0-.76,1,1,0,0,1,.21-.33.93.93,0,0,1,.33-.21,1,1,0,0,1,.76,0,1.15,1.15,0,0,1,.33.21,1,1,0,0,1,.21.33.94.94,0,0,1,0,.76,1.17,1.17,0,0,1-.21.33,1.15,1.15,0,0,1-.33.21A1,1,0,0,1,93,104Z"/><path class="cls-4" d="M94,80H90a1,1,0,1,1,0-2h4a1,1,0,0,1,0,2Z"/><path class="cls-4" d="M86,80H82a1,1,0,1,1,0-2h4a1,1,0,0,1,0,2Z"/><path class="cls-4" d="M78,80H74a1,1,0,1,1,0-2h4a1,1,0,0,1,0,2Z"/><path class="cls-4" d="M70,80H66a1,1,0,1,1,0-2h4a1,1,0,0,1,0,2Z"/></g><path class="cls-19" d="M46.2,87.72C47.62,89.13,48,93,48,93s-3.87-.38-5.28-1.8a2.46,2.46,0,1,1,3.48-3.48Z"/><path class="cls-4" d="M48,94h-.1c-.43,0-4.27-.47-5.89-2.09A3.46,3.46,0,0,1,46.91,87c1.62,1.62,2,5.46,2.09,5.89A1,1,0,0,1,48,94Zm-3.54-6a1.46,1.46,0,0,0-1,2.49,7.56,7.56,0,0,0,3.38,1.32,7.57,7.57,0,0,0-1.31-3.38A1.45,1.45,0,0,0,44.46,88Z"/><path class="cls-19" d="M49.8,87.72C48.38,89.13,48,93,48,93s3.87-.38,5.28-1.8a2.46,2.46,0,0,0-3.48-3.48Z"/><path class="cls-4" d="M48,94a1,1,0,0,1-1-1.1c0-.43.47-4.27,2.09-5.89h0A3.46,3.46,0,0,1,54,91.91c-1.62,1.62-5.46,2-5.89,2.09Zm2.51-5.57a7.58,7.58,0,0,0-1.31,3.38,7.58,7.58,0,0,0,3.38-1.32,1.46,1.46,0,0,0-2.07-2.07Z"/><path class="cls-20" d="M59,115H37a2,2,0,0,1-2-2V99H61v14A2,2,0,0,1,59,115Z"/><g class="cls-1"><path class="cls-21" d="M59,112H37a2,2,0,0,1-2-2v3a2,2,0,0,0,2,2H59a2,2,0,0,0,2-2v-3A2,2,0,0,1,59,112Z"/></g><path class="cls-4" d="M59,116H37a3,3,0,0,1-3-3V99a1,1,0,0,1,1-1H61a1,1,0,0,1,1,1v14A3,3,0,0,1,59,116ZM36,100v13a1,1,0,0,0,1,1H59a1,1,0,0,0,1-1V100Z"/><path class="cls-20" d="M62,99H34V95a2,2,0,0,1,2-2H60a2,2,0,0,1,2,2Z"/><g class="cls-1"><path class="cls-22" d="M60,93H36a2,2,0,0,0-2,2v3a2,2,0,0,1,2-2H60a2,2,0,0,1,2,2V95A2,2,0,0,0,60,93Z"/></g><path class="cls-4" d="M62,100H34a1,1,0,0,1-1-1V95a3,3,0,0,1,3-3H60a3,3,0,0,1,3,3v4A1,1,0,0,1,62,100ZM35,98H61V95a1,1,0,0,0-1-1H36a1,1,0,0,0-1,1Z"/><rect class="cls-19" height="22" width="6" x="45" y="93"/><rect class="cls-13" height="3" width="6" x="45" y="93"/><g class="cls-1"><rect class="cls-23" height="3" width="6" x="45" y="112"/></g><path class="cls-4" d="M51,116H45a1,1,0,0,1-1-1V93a1,1,0,0,1,1-1h6a1,1,0,0,1,1,1v22A1,1,0,0,1,51,116Zm-5-2h4V94H46Z"/><g class="cls-18"><path class="cls-4" d="M51,100H45a1,1,0,1,1,0-2h6a1,1,0,0,1,0,2Z"/></g></svg>