<?xml version="1.0" ?><svg data-name="003" id="_003" viewBox="0 0 128 128" xmlns="http://www.w3.org/2000/svg"><defs><style>.cls-1{opacity:0.3;}.cls-2{fill:#c9c1f5;}.cls-3{fill:#89dbba;}.cls-4{fill:#48bc33;}.cls-5{fill:#6d6daa;}.cls-6{fill:#b1f1a8;}.cls-7{fill:#ffc661;}.cls-8{fill:#fff27d;}.cls-9{fill:#fff;}.cls-10{fill:#ced8ee;}.cls-11{fill:#97c1ff;}.cls-12{opacity:0.5;}.cls-13{fill:#939fc6;}.cls-14{fill:#b6b6d4;}</style></defs><title/><g class="cls-1"><path class="cls-2" d="M110.3,101.77a30,30,0,0,0,8.59-33.26,19.69,19.69,0,0,1-.31-12.74A37,37,0,0,0,71.22,9.7,21,21,0,0,1,53.84,7.82C40.05-.21,20.12,4,11.88,24.5a16.6,16.6,0,0,0-.75,8A20.58,20.58,0,0,1,7.29,46.78,28.49,28.49,0,0,0,19.41,89.55,20.06,20.06,0,0,1,30.79,102,29,29,0,0,0,78.62,114.4,20.08,20.08,0,0,1,91.9,109,29.83,29.83,0,0,0,110.3,101.77Z"/><rect class="cls-3" height="92" transform="translate(7.86 79.33) rotate(-80.25)" width="48" x="27" y="-11"/><g class="cls-1"><rect class="cls-4" height="92" transform="translate(-5.48 87.15) rotate(-80.25)" width="24" x="36.97" y="0.83"/></g><path class="cls-5" d="M92.27,67.45H92.1L1.43,51.85a1,1,0,0,1-.82-1.15L8.75,3.39A1,1,0,0,1,9.9,2.57l90.67,15.59a1,1,0,0,1,.82,1.15l-8.13,47.3A1,1,0,0,1,92.27,67.45ZM2.76,50l88.7,15.25L99.24,20,10.55,4.71Z"/><path class="cls-6" d="M88.39,53.6a6,6,0,0,0-6.93,4.9L14.44,47a6,6,0,0,0-4.9-6.93L13.61,16.4a6,6,0,0,0,6.93-4.9L87.56,23A6,6,0,0,0,92.45,30Z"/><g class="cls-1"><path class="cls-4" d="M11.57,28.25l-2,11.8A6,6,0,0,1,14.44,47l67,11.52a6,6,0,0,1,6.93-4.9l2-11.8Z"/></g><path class="cls-5" d="M81.46,59.5h-.17L14.28,48a1,1,0,0,1-.82-1.15A5,5,0,0,0,9.38,41a1,1,0,0,1-.82-1.15l4.07-23.65a1,1,0,0,1,1.15-.82,5,5,0,0,0,5.78-4.08,1,1,0,0,1,1.15-.82L87.72,22a1,1,0,0,1,.82,1.15A5,5,0,0,0,92.62,29a1,1,0,0,1,.82,1.15L89.37,53.77a1,1,0,0,1-1.15.82,5,5,0,0,0-5.78,4.08A1,1,0,0,1,81.46,59.5ZM15.53,46.15l65.18,11.2a7,7,0,0,1,6.85-4.84L91.31,30.7a7,7,0,0,1-4.84-6.85L21.29,12.65a7,7,0,0,1-6.85,4.84L10.69,39.3A7,7,0,0,1,15.53,46.15Z"/><ellipse class="cls-3" cx="50.66" cy="36.97" rx="16" ry="12.8" transform="matrix(0.17, -0.99, 0.99, 0.17, 5.64, 80.64)"/><path class="cls-5" d="M49.7,53.89a11.27,11.27,0,0,1-1.92-.16c-7.5-1.29-12.31-9.85-10.72-19.09s9-15.7,16.48-14.42,12.31,9.85,10.72,19.09C62.81,47.76,56.5,53.89,49.7,53.89Zm1.92-31.84C45.77,22.05,40.32,27.5,39,35c-1.4,8.15,2.68,15.68,9.09,16.78S60.89,47.12,62.29,39h0c1.4-8.15-2.68-15.68-9.09-16.78A9.36,9.36,0,0,0,51.61,22.05Z"/><circle class="cls-3" cx="25.38" cy="30.6" r="3" transform="translate(-9.08 50.42) rotate(-80.25)"/><path class="cls-5" d="M25.38,34.6a4,4,0,0,1-4-4.68,4,4,0,1,1,7.88,1.35h0a4,4,0,0,1-3.93,3.32Zm0-6a2,2,0,1,0,2,2.34h0a2,2,0,0,0-1.63-2.31Z"/><circle class="cls-5" cx="14.63" cy="10.48" r="1" transform="translate(1.82 23.12) rotate(-80.25)"/><path class="cls-5" d="M14.63,12.48a2,2,0,1,1,1.15-.37A2,2,0,0,1,14.63,12.48Zm0-2Z"/><circle class="cls-5" cx="8.53" cy="45.97" r="1" transform="translate(-38.22 46.58) rotate(-80.25)"/><path class="cls-5" d="M8.53,48l-.34,0a2,2,0,0,1-.82-3.6A2,2,0,0,1,8.87,44,2,2,0,0,1,10.5,46.3h0A2,2,0,0,1,8.53,48Zm1-1.83h0Z"/><circle class="cls-5" cx="93.48" cy="24.04" r="1" transform="translate(53.95 112.09) rotate(-80.25)"/><path class="cls-5" d="M93.48,26l-.34,0a2,2,0,1,1,.34,0Zm0-2Z"/><circle class="cls-5" cx="87.38" cy="59.52" r="1" transform="matrix(0.17, -0.99, 0.99, 0.17, 13.92, 135.55)"/><path class="cls-5" d="M87.38,61.52a2,2,0,0,1-.34,0,2,2,0,1,1,2.31-1.63h0A2,2,0,0,1,87.38,61.52Zm1-1.83h0Z"/><path class="cls-6" d="M54.36,46.55l-.69-.28a.87.87,0,0,1-.57-1c.1-.47.19-1,.28-1.49.21-1.2,1.9-2.39,2.26-4.06a6.88,6.88,0,0,0,1.23-2.62A1.44,1.44,0,0,0,56.71,36c.23-.61.44-1.25.68-1.91,1-2.66.35-4.8-1.91-6.07-.82-.46-4.32-1.7-5.44-3.24-.41-.55-.53,2.16-1,2.28-2.54.66-3.76,2.15-3.74,4.95,0,.7,0,1.38,0,2a1.44,1.44,0,0,0-.52,1,6.88,6.88,0,0,0,.28,2.88c-.21,1.7,1,3.3.78,4.59-.09.52-.18,1-.24,1.5a.87.87,0,0,1-.87.76l-.83,0a14.65,14.65,0,0,0-4.57.83,12.23,12.23,0,0,0,7.33,6.85,11.29,11.29,0,0,0,1.28.31H48a11.29,11.29,0,0,0,1.23.13,12.24,12.24,0,0,0,9.22-4A13.88,13.88,0,0,0,54.36,46.55Z"/><path class="cls-5" d="M49.71,53.89h-.47a12.45,12.45,0,0,1-1.35-.14h-.1a12.65,12.65,0,0,1-1.41-.34,13.17,13.17,0,0,1-8-7.39A1,1,0,0,1,39,44.64a15.78,15.78,0,0,1,4.88-.89l.75,0c.06-.46.14-.94.23-1.43a4.08,4.08,0,0,0-.32-1.55A7.21,7.21,0,0,1,44,38a7.65,7.65,0,0,1-.25-3.14,2.73,2.73,0,0,1,.5-1.23q0-.33,0-.68c0-.31,0-.62,0-.94,0-3.07,1.32-5,4.11-5.82.06-.2.12-.48.16-.67.2-.88.37-1.64,1.14-1.8a1.11,1.11,0,0,1,1.13.46c.7,1,2.91,1.94,4.09,2.47.45.2.82.37,1,.48,2.64,1.48,3.51,4.14,2.37,7.28l-.31.87-.23.66a2.73,2.73,0,0,1,.06,1.33,7.64,7.64,0,0,1-1.29,2.87,7.51,7.51,0,0,1-1.41,2.51,4.26,4.26,0,0,0-.79,1.3c-.08.49-.17,1-.26,1.43l.62.25a15,15,0,0,1,4.41,2.46,1,1,0,0,1,.08,1.47A13.3,13.3,0,0,1,49.71,53.89Zm-1.61-2.14h.11a10.38,10.38,0,0,0,1.12.12,10.92,10.92,0,0,0,7.62-2.94A13.66,13.66,0,0,0,54,47.49h0l-.69-.28A1.87,1.87,0,0,1,52.13,45c.1-.45.18-.94.27-1.45a5.32,5.32,0,0,1,1.17-2.17,5.51,5.51,0,0,0,1.11-1.94,1,1,0,0,1,.16-.37,5.92,5.92,0,0,0,1.06-2.21.73.73,0,0,0,0-.37,1,1,0,0,1-.12-.92c.12-.33.24-.67.36-1l.31-.89c.82-2.26.34-3.84-1.46-4.86-.17-.1-.48-.23-.86-.4a20.44,20.44,0,0,1-3.73-2c-.19.76-.44,1.36-1.11,1.53-2.17.56-3,1.67-3,4,0,.33,0,.65,0,1s0,.72,0,1.06a1,1,0,0,1-.42.83.74.74,0,0,0-.12.35A5.94,5.94,0,0,0,46,37.61a1,1,0,0,1,0,.4,5.23,5.23,0,0,0,.39,2.12,5.31,5.31,0,0,1,.38,2.51c-.09.51-.17,1-.23,1.46a1.89,1.89,0,0,1-1.86,1.63l-.81,0a14.44,14.44,0,0,0-3.17.44,10.87,10.87,0,0,0,6.19,5.29,10.42,10.42,0,0,0,1.16.28ZM54,45.32h0Zm-9.32-1.6h0Z"/><path class="cls-3" d="M64.05,53.48l-7.89-1.36a14.93,14.93,0,0,0-7.54-3.33,14.93,14.93,0,0,0-8.21.62l-7.89-1.36-1.35,7.88L62.7,61.36Z"/><path class="cls-5" d="M62.7,62.36h-.17L31,56.93a1,1,0,0,1-.82-1.15l1.35-7.88a1,1,0,0,1,1.15-.82l7.6,1.31a16.24,16.24,0,0,1,8.5-.57,16.23,16.23,0,0,1,7.82,3.38l7.6,1.31A1,1,0,0,1,65,53.65l-1.35,7.88A1,1,0,0,1,62.7,62.36ZM32.33,55.13l29.56,5.08,1-5.91L56,53.11a1,1,0,0,1-.52-.26,14.09,14.09,0,0,0-7-3.07,14.11,14.11,0,0,0-7.64.55,1,1,0,0,1-.57.07l-6.9-1.19Z"/><line class="cls-3" x1="30.1" x2="18.28" y1="38.51" y2="36.48"/><path class="cls-5" d="M30.1,39.51h-.17l-11.82-2a1,1,0,1,1,.34-2l11.82,2a1,1,0,0,1-.17,2Z"/><circle class="cls-3" cx="76.63" cy="39.41" r="3" transform="translate(24.81 108.25) rotate(-80.25)"/><path class="cls-5" d="M76.63,43.41a4,4,0,1,1,3.94-3.32h0A4,4,0,0,1,76.63,43.41Zm0-6a2,2,0,1,0,.34,0Zm3,2.51h0Z"/><line class="cls-3" x1="81.35" x2="69.53" y1="47.32" y2="45.29"/><path class="cls-5" d="M81.35,48.32h-.17l-11.82-2a1,1,0,1,1,.34-2l11.82,2a1,1,0,0,1-.17,2Z"/><line class="cls-3" x1="59.43" x2="35.79" y1="56.74" y2="52.68"/><path class="cls-5" d="M59.43,57.74h-.17L35.62,53.66a1,1,0,1,1,.34-2L59.6,55.76a1,1,0,0,1-.17,2Z"/><rect class="cls-3" height="48" width="92" x="6" y="11"/><g class="cls-1"><rect class="cls-4" height="24" width="92" x="6" y="35"/></g><path class="cls-5" d="M98,60H6a1,1,0,0,1-1-1V11a1,1,0,0,1,1-1H98a1,1,0,0,1,1,1V59A1,1,0,0,1,98,60ZM7,58H97V12H7Z"/><path class="cls-6" d="M92,47a6,6,0,0,0-6,6H18a6,6,0,0,0-6-6V23a6,6,0,0,0,6-6H86a6,6,0,0,0,6,6Z"/><g class="cls-1"><path class="cls-4" d="M12,35V47a6,6,0,0,1,6,6H86a6,6,0,0,1,6-6V35Z"/></g><path class="cls-5" d="M86,54H18a1,1,0,0,1-1-1,5,5,0,0,0-5-5,1,1,0,0,1-1-1V23a1,1,0,0,1,1-1,5,5,0,0,0,5-5,1,1,0,0,1,1-1H86a1,1,0,0,1,1,1,5,5,0,0,0,5,5,1,1,0,0,1,1,1V47a1,1,0,0,1-1,1,5,5,0,0,0-5,5A1,1,0,0,1,86,54ZM18.93,52H85.07A7,7,0,0,1,91,46.07V23.93A7,7,0,0,1,85.07,18H18.93A7,7,0,0,1,13,23.93V46.07A7,7,0,0,1,18.93,52Z"/><ellipse class="cls-3" cx="52" cy="37" rx="12.8" ry="16"/><path class="cls-5" d="M52,54c-7.61,0-13.8-7.63-13.8-17S44.39,20,52,20s13.8,7.63,13.8,17S59.61,54,52,54Zm0-32c-6.51,0-11.8,6.73-11.8,15S45.49,52,52,52s11.8-6.73,11.8-15S58.51,22,52,22Z"/><circle class="cls-3" cx="26" cy="35" r="3"/><path class="cls-5" d="M26,39a4,4,0,1,1,4-4A4,4,0,0,1,26,39Zm0-6a2,2,0,1,0,2,2A2,2,0,0,0,26,33Z"/><circle class="cls-5" cx="12" cy="17" r="1"/><path class="cls-5" d="M12,19a2,2,0,1,1,2-2A2,2,0,0,1,12,19Zm0-2h0Z"/><circle class="cls-5" cx="12" cy="53" r="1"/><path class="cls-5" d="M12,55a2,2,0,1,1,2-2A2,2,0,0,1,12,55Zm0-2h0Z"/><circle class="cls-5" cx="92.01" cy="17" r="1"/><path class="cls-5" d="M92,19a2,2,0,1,1,2-2A2,2,0,0,1,92,19Zm0-2h0Z"/><circle class="cls-5" cx="92.01" cy="53" r="1"/><path class="cls-5" d="M92,55a2,2,0,1,1,2-2A2,2,0,0,1,92,55Zm0-2h0Z"/><path class="cls-6" d="M57.27,45.81l-.73-.16a.87.87,0,0,1-.73-.89c0-.48,0-1,0-1.52,0-1.22,1.46-2.68,1.54-4.39a6.88,6.88,0,0,0,.77-2.79A1.44,1.44,0,0,0,57.79,35c.12-.64.22-1.31.35-2,.5-2.78-.47-4.79-2.92-5.66-.88-.31-4.54-.95-5.91-2.27-.49-.48-.16,2.21-.6,2.42-2.4,1.08-3.35,2.75-2.85,5.51.12.69.23,1.37.35,2a1.44,1.44,0,0,0-.35,1.07,6.88,6.88,0,0,0,.77,2.79c.08,1.71,1.54,3.09,1.54,4.39,0,.53,0,1,0,1.52a.87.87,0,0,1-.73.89l-.81.16a14.65,14.65,0,0,0-4.36,1.6,12.23,12.23,0,0,0,8.38,5.51A11.29,11.29,0,0,0,52,53h.12a11.29,11.29,0,0,0,1.24-.08,12.24,12.24,0,0,0,8.4-5.54A13.88,13.88,0,0,0,57.27,45.81Z"/><path class="cls-5" d="M52,54a12.64,12.64,0,0,1-1.45-.09A13.18,13.18,0,0,1,41.46,48a1,1,0,0,1,.33-1.44,15.79,15.79,0,0,1,4.66-1.71l.74-.15c0-.46,0-.95,0-1.45a4.07,4.07,0,0,0-.58-1.48,7.2,7.2,0,0,1-.95-2.65,7.64,7.64,0,0,1-.78-3.05,2.74,2.74,0,0,1,.29-1.3L45,34.09c-.05-.3-.1-.61-.16-.93-.54-3,.46-5.13,3.07-6.43,0-.21,0-.49,0-.69,0-.9.09-1.68.82-2a1.11,1.11,0,0,1,1.19.26c.86.83,3.2,1.42,4.46,1.74.48.12.87.22,1.09.3,2.86,1,4.16,3.49,3.57,6.78-.06.31-.11.62-.16.93l-.11.66a2.74,2.74,0,0,1,.29,1.3,7.63,7.63,0,0,1-.78,3.05,7.51,7.51,0,0,1-1,2.71,4.25,4.25,0,0,0-.56,1.42c0,.5,0,1,0,1.45l.65.14a15,15,0,0,1,4.76,1.68,1,1,0,0,1,.33,1.43,13.18,13.18,0,0,1-9.1,6A12.1,12.1,0,0,1,52.1,54Zm-8.2-6.24a10.88,10.88,0,0,0,7,4.16A10.32,10.32,0,0,0,52,52h.1a10.19,10.19,0,0,0,1.13-.07,10.88,10.88,0,0,0,7-4.19,13.67,13.67,0,0,0-3.13-.94h0l-.73-.16a1.87,1.87,0,0,1-1.51-1.91c0-.46,0-1,0-1.47a5.3,5.3,0,0,1,.78-2.34,5.51,5.51,0,0,0,.76-2.1,1,1,0,0,1,.1-.39,5.94,5.94,0,0,0,.67-2.36.71.71,0,0,0-.06-.36,1,1,0,0,1-.27-.89c.06-.34.12-.69.18-1s.11-.63.16-1c.42-2.36-.32-3.85-2.27-4.54-.19-.07-.51-.15-.91-.25a20.62,20.62,0,0,1-4-1.33c-.06.78-.21,1.42-.84,1.7-2,.92-2.68,2.16-2.27,4.42.06.32.11.64.16,1s.12.7.18,1a1,1,0,0,1-.27.89.73.73,0,0,0-.06.36,5.94,5.94,0,0,0,.67,2.36,1,1,0,0,1,.1.39,5.24,5.24,0,0,0,.74,2,5.31,5.31,0,0,1,.81,2.41c0,.52,0,1,0,1.48a1.88,1.88,0,0,1-1.56,1.92l-.79.16A14.41,14.41,0,0,0,43.8,47.76Zm3.47-3.09h0Zm9.45,0h0ZM48.3,26.56h0Zm.32-.79h0Z"/><path class="cls-3" d="M68,51H60a14.93,14.93,0,0,0-8-2,14.93,14.93,0,0,0-8,2H36v8H68Z"/><path class="cls-5" d="M68,60H36a1,1,0,0,1-1-1V51a1,1,0,0,1,1-1h7.71A16.23,16.23,0,0,1,52,48a16.23,16.23,0,0,1,8.28,2H68a1,1,0,0,1,1,1v8A1,1,0,0,1,68,60ZM37,58H67V52H60a1,1,0,0,1-.55-.17A14.09,14.09,0,0,0,52,50a14.09,14.09,0,0,0-7.44,1.84A1,1,0,0,1,44,52H37Z"/><path class="cls-5" d="M32,43H20a1,1,0,0,1,0-2H32a1,1,0,0,1,0,2Z"/><circle class="cls-3" cx="78.01" cy="35" r="3"/><path class="cls-5" d="M78,39a4,4,0,1,1,4-4A4,4,0,0,1,78,39Zm0-6a2,2,0,1,0,2,2A2,2,0,0,0,78,33Z"/><path class="cls-5" d="M84,43H72a1,1,0,0,1,0-2H84a1,1,0,0,1,0,2Z"/><path class="cls-5" d="M64,56H40a1,1,0,0,1,0-2H64a1,1,0,0,1,0,2Z"/><rect class="cls-3" height="48" width="92" x="9" y="14"/><g class="cls-1"><rect class="cls-4" height="24" width="92" x="9" y="38"/></g><path class="cls-5" d="M101,63H9a1,1,0,0,1-1-1V14a1,1,0,0,1,1-1h92a1,1,0,0,1,1,1V62A1,1,0,0,1,101,63ZM10,61h90V15H10Z"/><path class="cls-6" d="M95,50a6,6,0,0,0-6,6H21a6,6,0,0,0-6-6V26a6,6,0,0,0,6-6H89a6,6,0,0,0,6,6Z"/><g class="cls-1"><path class="cls-4" d="M15,38V50a6,6,0,0,1,6,6H89a6,6,0,0,1,6-6V38Z"/></g><path class="cls-5" d="M89,57H21a1,1,0,0,1-1-1,5,5,0,0,0-5-5,1,1,0,0,1-1-1V26a1,1,0,0,1,1-1,5,5,0,0,0,5-5,1,1,0,0,1,1-1H89a1,1,0,0,1,1,1,5,5,0,0,0,5,5,1,1,0,0,1,1,1V50a1,1,0,0,1-1,1,5,5,0,0,0-5,5A1,1,0,0,1,89,57ZM21.93,55H88.07A7,7,0,0,1,94,49.07V26.93A7,7,0,0,1,88.07,21H21.93A7,7,0,0,1,16,26.93V49.07A7,7,0,0,1,21.93,55Z"/><ellipse class="cls-3" cx="55" cy="40" rx="12.8" ry="16"/><path class="cls-5" d="M55,57c-7.61,0-13.8-7.63-13.8-17S47.39,23,55,23s13.8,7.63,13.8,17S62.61,57,55,57Zm0-32c-6.51,0-11.8,6.73-11.8,15S48.49,55,55,55s11.8-6.73,11.8-15S61.51,25,55,25Z"/><circle class="cls-3" cx="29" cy="38" r="3"/><path class="cls-5" d="M29,42a4,4,0,1,1,4-4A4,4,0,0,1,29,42Zm0-6a2,2,0,1,0,2,2A2,2,0,0,0,29,36Z"/><circle class="cls-5" cx="15" cy="20" r="1"/><path class="cls-5" d="M15,22a2,2,0,1,1,2-2A2,2,0,0,1,15,22Zm0-2h0Z"/><circle class="cls-5" cx="15" cy="56" r="1"/><path class="cls-5" d="M15,58a2,2,0,1,1,2-2A2,2,0,0,1,15,58Zm0-2h0Z"/><circle class="cls-5" cx="95.01" cy="20" r="1"/><path class="cls-5" d="M95,22a2,2,0,1,1,2-2A2,2,0,0,1,95,22Zm0-2h0Z"/><circle class="cls-5" cx="95.01" cy="56" r="1"/><path class="cls-5" d="M95,58a2,2,0,1,1,2-2A2,2,0,0,1,95,58Zm0-2h0Z"/><path class="cls-6" d="M60.27,48.81l-.73-.16a.87.87,0,0,1-.73-.89c0-.48,0-1,0-1.52,0-1.22,1.46-2.68,1.54-4.39a6.88,6.88,0,0,0,.77-2.79A1.44,1.44,0,0,0,60.79,38c.12-.64.22-1.31.35-2,.5-2.78-.47-4.79-2.92-5.66-.88-.31-4.54-.95-5.91-2.27-.49-.48-.16,2.21-.6,2.42-2.4,1.08-3.35,2.75-2.85,5.51.12.69.23,1.37.35,2a1.44,1.44,0,0,0-.35,1.07,6.88,6.88,0,0,0,.77,2.79c.08,1.71,1.54,3.09,1.54,4.39,0,.53,0,1,0,1.52a.87.87,0,0,1-.73.89l-.81.16a14.65,14.65,0,0,0-4.36,1.6,12.23,12.23,0,0,0,8.38,5.51A11.29,11.29,0,0,0,55,56h.12a11.29,11.29,0,0,0,1.24-.08,12.24,12.24,0,0,0,8.4-5.54A13.88,13.88,0,0,0,60.27,48.81Z"/><path class="cls-5" d="M55,57a12.64,12.64,0,0,1-1.45-.09A13.18,13.18,0,0,1,44.46,51a1,1,0,0,1,.33-1.44,15.79,15.79,0,0,1,4.66-1.71l.74-.15c0-.46,0-.95,0-1.45a4.07,4.07,0,0,0-.58-1.48,7.2,7.2,0,0,1-.95-2.65,7.64,7.64,0,0,1-.78-3.05,2.74,2.74,0,0,1,.29-1.3L48,37.09c-.05-.3-.1-.61-.16-.93-.54-3,.46-5.13,3.07-6.43,0-.21,0-.49,0-.69,0-.9.09-1.68.82-2a1.12,1.12,0,0,1,1.19.26c.86.83,3.2,1.42,4.46,1.74.48.12.87.22,1.09.3,2.86,1,4.16,3.49,3.57,6.78-.06.31-.11.62-.16.93l-.11.66a2.74,2.74,0,0,1,.29,1.3,7.63,7.63,0,0,1-.78,3.05,7.51,7.51,0,0,1-1,2.71,4.25,4.25,0,0,0-.56,1.42c0,.5,0,1,0,1.45l.65.14a15,15,0,0,1,4.76,1.68,1,1,0,0,1,.33,1.43,13.18,13.18,0,0,1-9.1,6A12.1,12.1,0,0,1,55.1,57Zm-8.2-6.24a10.88,10.88,0,0,0,7,4.16A10.32,10.32,0,0,0,55,55h.1a10.19,10.19,0,0,0,1.13-.07,10.88,10.88,0,0,0,7-4.19,13.67,13.67,0,0,0-3.13-.94h0l-.73-.16a1.87,1.87,0,0,1-1.51-1.91c0-.46,0-1,0-1.47a5.3,5.3,0,0,1,.78-2.34,5.51,5.51,0,0,0,.76-2.1,1,1,0,0,1,.1-.39,5.94,5.94,0,0,0,.67-2.36.71.71,0,0,0-.06-.36,1,1,0,0,1-.27-.89c.06-.34.12-.69.18-1s.11-.63.16-1c.42-2.36-.32-3.85-2.27-4.54-.19-.07-.51-.15-.91-.25a20.62,20.62,0,0,1-4-1.33c-.06.78-.21,1.42-.84,1.7-2,.92-2.68,2.16-2.27,4.42.06.32.11.64.16,1s.12.7.18,1a1,1,0,0,1-.27.89.73.73,0,0,0-.06.36,5.94,5.94,0,0,0,.67,2.36,1,1,0,0,1,.1.39,5.24,5.24,0,0,0,.74,2,5.31,5.31,0,0,1,.81,2.41c0,.52,0,1,0,1.48a1.88,1.88,0,0,1-1.56,1.92l-.79.16A14.41,14.41,0,0,0,46.8,50.76Zm3.47-3.09h0Zm9.45,0h0ZM51.3,29.56h0Zm.32-.79h0Z"/><path class="cls-3" d="M71,54H63a14.93,14.93,0,0,0-8-2,14.93,14.93,0,0,0-8,2H39v8H71Z"/><path class="cls-5" d="M71,63H39a1,1,0,0,1-1-1V54a1,1,0,0,1,1-1h7.71A16.23,16.23,0,0,1,55,51a16.23,16.23,0,0,1,8.28,2H71a1,1,0,0,1,1,1v8A1,1,0,0,1,71,63ZM40,61H70V55H63a1,1,0,0,1-.55-.17A14.09,14.09,0,0,0,55,53a14.09,14.09,0,0,0-7.44,1.84A1,1,0,0,1,47,55H40Z"/><path class="cls-5" d="M35,46H23a1,1,0,0,1,0-2H35a1,1,0,0,1,0,2Z"/><circle class="cls-3" cx="81.01" cy="38" r="3"/><path class="cls-5" d="M81,42a4,4,0,1,1,4-4A4,4,0,0,1,81,42Zm0-6a2,2,0,1,0,2,2A2,2,0,0,0,81,36Z"/><path class="cls-5" d="M87,46H75a1,1,0,0,1,0-2H87a1,1,0,0,1,0,2Z"/><path class="cls-5" d="M67,59H43a1,1,0,0,1,0-2H67a1,1,0,0,1,0,2Z"/><circle class="cls-7" cx="93.01" cy="38" r="9"/><path class="cls-5" d="M93,48a10,10,0,1,1,10-10A10,10,0,0,1,93,48Zm0-18a8,8,0,1,0,8,8A8,8,0,0,0,93,30Z"/><circle class="cls-8" cx="93.01" cy="38" r="5"/><path class="cls-5" d="M93,44a6,6,0,1,1,6-6A6,6,0,0,1,93,44Zm0-10a4,4,0,1,0,4,4A4,4,0,0,0,93,34Z"/><circle class="cls-7" cx="99.01" cy="44" r="9"/><path class="cls-5" d="M99,54a10,10,0,1,1,10-10A10,10,0,0,1,99,54Zm0-18a8,8,0,1,0,8,8A8,8,0,0,0,99,36Z"/><circle class="cls-8" cx="99.01" cy="44" r="5"/><path class="cls-5" d="M99,50a6,6,0,1,1,6-6A6,6,0,0,1,99,50Zm0-10a4,4,0,1,0,4,4A4,4,0,0,0,99,40Z"/><circle class="cls-7" cx="113.01" cy="28" r="9"/><path class="cls-5" d="M113,38a10,10,0,1,1,10-10A10,10,0,0,1,113,38Zm0-18a8,8,0,1,0,8,8A8,8,0,0,0,113,20Z"/><circle class="cls-8" cx="113.01" cy="28" r="5"/><path class="cls-5" d="M113,34a6,6,0,1,1,6-6A6,6,0,0,1,113,34Zm0-10a4,4,0,1,0,4,4A4,4,0,0,0,113,24Z"/><circle class="cls-7" cx="109.01" cy="88" r="9"/><path class="cls-5" d="M109,98a10,10,0,1,1,10-10A10,10,0,0,1,109,98Zm0-18a8,8,0,1,0,8,8A8,8,0,0,0,109,80Z"/><circle class="cls-8" cx="109.01" cy="88" r="5"/><path class="cls-5" d="M109,94a6,6,0,1,1,6-6A6,6,0,0,1,109,94Zm0-10a4,4,0,1,0,4,4A4,4,0,0,0,109,84Z"/><circle class="cls-7" cx="33.01" cy="108" r="9"/><path class="cls-5" d="M33,118a10,10,0,1,1,10-10A10,10,0,0,1,33,118Zm0-18a8,8,0,1,0,8,8A8,8,0,0,0,33,100Z"/><circle class="cls-8" cx="33.01" cy="108" r="5"/><path class="cls-5" d="M33,114a6,6,0,1,1,6-6A6,6,0,0,1,33,114Zm0-10a4,4,0,1,0,4,4A4,4,0,0,0,33,104Z"/><circle class="cls-7" cx="13.01" cy="92" r="9"/><path class="cls-5" d="M13,102A10,10,0,1,1,23,92,10,10,0,0,1,13,102Zm0-18a8,8,0,1,0,8,8A8,8,0,0,0,13,84Z"/><circle class="cls-8" cx="13.01" cy="92" r="5"/><path class="cls-5" d="M13,98a6,6,0,1,1,6-6A6,6,0,0,1,13,98Zm0-10a4,4,0,1,0,4,4A4,4,0,0,0,13,88Z"/></g><path class="cls-9" d="M117,51a4,4,0,0,1,4-4H101a4,4,0,0,0-4,4V61h16a4,4,0,0,0,4-4Z"/><path class="cls-5" d="M113,62H97a1,1,0,0,1-1-1V51a5,5,0,0,1,5-5h20a1,1,0,0,1,0,2,3,3,0,0,0-3,3v6A5,5,0,0,1,113,62ZM98,60h15a3,3,0,0,0,3-3V51a5,5,0,0,1,1-3H101a3,3,0,0,0-3,3Z"/><path class="cls-10" d="M109,57V47a4,4,0,0,0-4-4H95a4,4,0,0,1,4,4V61h14A4,4,0,0,1,109,57Z"/><path class="cls-5" d="M113,62H99a1,1,0,0,1-1-1V47a3,3,0,0,0-3-3,1,1,0,0,1,0-2h10a5,5,0,0,1,5,5V57a3,3,0,0,0,3,3,1,1,0,0,1,0,2Zm-13-2h9a5,5,0,0,1-1-3V47a3,3,0,0,0-3-3H99a5,5,0,0,1,1,3Z"/><rect class="cls-11" height="58" rx="2" ry="2" width="90" x="15" y="53"/><rect class="cls-9" height="14" width="70" x="25" y="79"/><path class="cls-5" d="M95,94H25a1,1,0,0,1-1-1V79a1,1,0,0,1,1-1H95a1,1,0,0,1,1,1V93A1,1,0,0,1,95,94ZM26,92H94V80H26Z"/><g class="cls-12"><path class="cls-5" d="M45,102H25a1,1,0,0,1,0-2H45a1,1,0,0,1,0,2Z"/></g><g class="cls-12"><path class="cls-5" d="M35,76H25a1,1,0,0,1,0-2H35a1,1,0,0,1,0,2Z"/></g><g class="cls-12"><path class="cls-5" d="M65,106H25a1,1,0,0,1,0-2H65a1,1,0,0,1,0,2Z"/></g><rect class="cls-13" height="10" width="90" x="15" y="61"/><path class="cls-5" d="M105,72H15a1,1,0,0,1-1-1V61a1,1,0,0,1,1-1h90a1,1,0,0,1,1,1V71A1,1,0,0,1,105,72ZM16,70h88V62H16Z"/><g class="cls-1"><path class="cls-5" d="M24,63l-.2,0-.18-.06a.76.76,0,0,1-.18-.09,1.53,1.53,0,0,1-.15-.12,1,1,0,0,1,0-1.42l.15-.12a.76.76,0,0,1,.18-.09A.63.63,0,0,1,23.8,61a1,1,0,0,1,.91.27A1.05,1.05,0,0,1,25,62a1.39,1.39,0,0,1,0,.2.62.62,0,0,1-.06.18.78.78,0,0,1-.09.18l-.12.15A1.05,1.05,0,0,1,24,63Z"/><path class="cls-5" d="M24,67l-.2,0-.18-.06a1,1,0,0,1-.33-.21A1,1,0,0,1,23,66a1.54,1.54,0,0,1,0-.2.65.65,0,0,1,.06-.18.74.74,0,0,1,.09-.18,1.55,1.55,0,0,1,.12-.15,1.53,1.53,0,0,1,.15-.12.76.76,0,0,1,.18-.09A.63.63,0,0,1,23.8,65a1,1,0,0,1,.91.27l.12.15a.78.78,0,0,1,.09.18.62.62,0,0,1,.06.18,1.39,1.39,0,0,1,0,.2,1,1,0,0,1-1,1Z"/><path class="cls-5" d="M26,65a.84.84,0,0,1-.38-.08.9.9,0,0,1-.54-.54A.83.83,0,0,1,25,64a1,1,0,0,1,.29-.71,1,1,0,0,1,1.42,0,1.15,1.15,0,0,1,.21.33.94.94,0,0,1,0,.76,1.15,1.15,0,0,1-.21.33A1.05,1.05,0,0,1,26,65Z"/><path class="cls-5" d="M28,67a.84.84,0,0,1-.38-.08,1,1,0,0,1-.33-.21,1,1,0,0,1,0-1.42,1,1,0,0,1,.33-.21A1,1,0,0,1,28.2,65l.18.06a.56.56,0,0,1,.17.09l.16.12A1.05,1.05,0,0,1,29,66a1,1,0,0,1-.08.38,1,1,0,0,1-.21.33,1.17,1.17,0,0,1-.33.21L28.2,67Z"/><path class="cls-5" d="M28,63a1,1,0,0,1-.38-.08,1,1,0,0,1-.33-.21,1.68,1.68,0,0,1-.12-.15.74.74,0,0,1-.09-.18A.65.65,0,0,1,27,62.2a1.53,1.53,0,0,1,0-.2,1,1,0,0,1,.29-.71,1,1,0,0,1,.33-.21A1,1,0,0,1,28.2,61l.18.06a.56.56,0,0,1,.17.09l.16.12a1,1,0,0,1,.21.33A1,1,0,0,1,29,62a1.05,1.05,0,0,1-.29.71,1,1,0,0,1-.16.12.56.56,0,0,1-.17.09L28.2,63Z"/><path class="cls-5" d="M30,65a1,1,0,0,1-.71-1.71,1,1,0,0,1,.9-.27.61.61,0,0,1,.19.06.76.76,0,0,1,.18.09l.15.12a.93.93,0,0,1,.21.33.94.94,0,0,1,0,.76,1.15,1.15,0,0,1-.21.33l-.15.12a.76.76,0,0,1-.18.09.62.62,0,0,1-.19.06Z"/><path class="cls-5" d="M32,67l-.19,0a.61.61,0,0,1-.19-.06.76.76,0,0,1-.18-.09l-.15-.12a1,1,0,0,1,0-1.42,1.53,1.53,0,0,1,.15-.12.76.76,0,0,1,.18-.09.6.6,0,0,1,.19-.06.81.81,0,0,1,.38,0,.61.61,0,0,1,.19.06.56.56,0,0,1,.17.09,1,1,0,0,1,.16.12.93.93,0,0,1,.21.33.94.94,0,0,1,0,.76,1.15,1.15,0,0,1-.21.33l-.16.12a.56.56,0,0,1-.17.09.62.62,0,0,1-.19.06Z"/><path class="cls-5" d="M32,63l-.19,0a.61.61,0,0,1-.19-.06.76.76,0,0,1-.18-.09,1.53,1.53,0,0,1-.15-.12,1.68,1.68,0,0,1-.12-.15.74.74,0,0,1-.09-.18A.65.65,0,0,1,31,62.2a1.38,1.38,0,0,1,0-.2,1,1,0,0,1,.29-.71,1.53,1.53,0,0,1,.15-.12.76.76,0,0,1,.18-.09.6.6,0,0,1,.19-.06.81.81,0,0,1,.38,0,.61.61,0,0,1,.19.06.56.56,0,0,1,.17.09,1,1,0,0,1,.16.12A1.05,1.05,0,0,1,33,62a1.26,1.26,0,0,1,0,.2.62.62,0,0,1-.06.18.78.78,0,0,1-.09.18l-.12.15a1,1,0,0,1-.16.12.56.56,0,0,1-.17.09.62.62,0,0,1-.19.06Z"/><path class="cls-5" d="M34,65l-.19,0a.61.61,0,0,1-.19-.06.76.76,0,0,1-.18-.09,1.53,1.53,0,0,1-.15-.12,1,1,0,0,1,0-1.42l.15-.12a.76.76,0,0,1,.18-.09.6.6,0,0,1,.19-.06,1,1,0,0,1,.9.27A1.05,1.05,0,0,1,35,64a1,1,0,0,1-.08.38,1,1,0,0,1-.21.33A1.05,1.05,0,0,1,34,65Z"/><path class="cls-5" d="M36,67a1,1,0,0,1-1-1,1.25,1.25,0,0,1,0-.19.62.62,0,0,1,.06-.19.74.74,0,0,1,.09-.18l.12-.15a1,1,0,0,1,.9-.27.61.61,0,0,1,.19.06.76.76,0,0,1,.18.09l.15.12a1.55,1.55,0,0,1,.12.15.78.78,0,0,1,.09.18.59.59,0,0,1,.06.19A1.14,1.14,0,0,1,37,66a1.05,1.05,0,0,1-.29.71l-.15.12a.76.76,0,0,1-.18.09.62.62,0,0,1-.19.06Z"/><path class="cls-5" d="M36,63a1,1,0,0,1-.71-1.71,1.53,1.53,0,0,1,.15-.12.76.76,0,0,1,.18-.09.6.6,0,0,1,.19-.06.81.81,0,0,1,.38,0,.61.61,0,0,1,.19.06,1,1,0,0,1,.33.21,1,1,0,0,1,0,1.42l-.15.12a.76.76,0,0,1-.18.09.62.62,0,0,1-.19.06Z"/><path class="cls-5" d="M38,65a1,1,0,0,1-.71-1.71,1,1,0,0,1,.9-.27.61.61,0,0,1,.19.06.56.56,0,0,1,.17.09,1,1,0,0,1,.16.12.93.93,0,0,1,.21.33.94.94,0,0,1,0,.76.94.94,0,0,1-.21.33,1,1,0,0,1-.16.12.56.56,0,0,1-.17.09.62.62,0,0,1-.19.06Z"/><path class="cls-5" d="M40,67a1.05,1.05,0,0,1-.71-.29.94.94,0,0,1-.21-.33A1,1,0,0,1,39,66a1,1,0,0,1,.29-.71,1,1,0,0,1,.33-.21.93.93,0,0,1,.57-.06.61.61,0,0,1,.19.06.56.56,0,0,1,.17.09l.16.12A1.05,1.05,0,0,1,41,66a.84.84,0,0,1-.08.38.94.94,0,0,1-.21.33,1,1,0,0,1-.16.12.56.56,0,0,1-.17.09.62.62,0,0,1-.19.06Z"/><path class="cls-5" d="M40,63a1,1,0,0,1-.38-.08,1,1,0,0,1-.33-.21,1,1,0,0,1,0-1.42,1,1,0,0,1,.33-.21.93.93,0,0,1,.57-.06.61.61,0,0,1,.19.06.56.56,0,0,1,.17.09l.16.12a1,1,0,0,1,0,1.42l-.16.12a.56.56,0,0,1-.17.09.62.62,0,0,1-.19.06Z"/><path class="cls-5" d="M42,65a1.05,1.05,0,0,1-.71-.29,1.68,1.68,0,0,1-.12-.15.74.74,0,0,1-.09-.18A.65.65,0,0,1,41,64.2a1.38,1.38,0,0,1,0-.2,1,1,0,0,1,.29-.71,1,1,0,0,1,.33-.21,1,1,0,0,1,1.09.21A1.05,1.05,0,0,1,43,64a1.26,1.26,0,0,1,0,.2.62.62,0,0,1-.06.18.78.78,0,0,1-.09.18,1.68,1.68,0,0,1-.12.15A1.05,1.05,0,0,1,42,65Z"/><path class="cls-5" d="M44,67a1,1,0,1,1,.71-.29A1.05,1.05,0,0,1,44,67Z"/><path class="cls-5" d="M44,63a1,1,0,1,1,.71-.29A1.05,1.05,0,0,1,44,63Z"/><path class="cls-5" d="M46,65a1,1,0,1,1,.71-.29A1.05,1.05,0,0,1,46,65Z"/><path class="cls-5" d="M48,67a1.05,1.05,0,0,1-.71-.29.94.94,0,0,1-.21-.33A1,1,0,0,1,47,66a1,1,0,0,1,.29-.71,1.15,1.15,0,0,1,.33-.21,1,1,0,0,1,1.09.21A1.05,1.05,0,0,1,49,66a1,1,0,0,1-.08.38.94.94,0,0,1-.21.33A1.05,1.05,0,0,1,48,67Z"/><path class="cls-5" d="M48,63a1,1,0,0,1-.38-.08,1.16,1.16,0,0,1-.33-.21A1,1,0,0,1,47,62a1,1,0,0,1,.08-.38,1,1,0,0,1,.21-.33,1.15,1.15,0,0,1,.33-.21,1,1,0,0,1,1.3.54A1,1,0,0,1,49,62a1,1,0,0,1-1,1Z"/><path class="cls-5" d="M50,65a1,1,0,1,1,.71-.29A1.05,1.05,0,0,1,50,65Z"/><path class="cls-5" d="M52,67a1,1,0,0,1-1-1,.83.83,0,0,1,.08-.38.93.93,0,0,1,.21-.33,1,1,0,0,1,1.42,0,.93.93,0,0,1,.21.33A.85.85,0,0,1,53,66a1,1,0,0,1-1,1Z"/><path class="cls-5" d="M52,63a1.05,1.05,0,0,1-.71-.29A1,1,0,0,1,51,62a1,1,0,1,1,2,0,1,1,0,0,1-.29.71A1.05,1.05,0,0,1,52,63Z"/><path class="cls-5" d="M54,65a1,1,0,0,1-1-1,.83.83,0,0,1,.08-.38,1.15,1.15,0,0,1,.21-.33,1,1,0,0,1,1.42,0,1.15,1.15,0,0,1,.21.33A1,1,0,0,1,55,64a1,1,0,0,1-1,1Z"/><path class="cls-5" d="M56,67a1,1,0,0,1-.38-.08A1,1,0,0,1,55,66a1,1,0,0,1,.08-.38,1,1,0,0,1,1.63-.33,1.15,1.15,0,0,1,.21.33A.85.85,0,0,1,57,66a1,1,0,0,1-1,1Z"/><path class="cls-5" d="M56,63a1,1,0,0,1-.38-.08A1,1,0,0,1,55,62a1,1,0,0,1,.08-.38.9.9,0,0,1,.54-.54,1,1,0,0,1,1.09.21,1.15,1.15,0,0,1,.21.33A.85.85,0,0,1,57,62a1,1,0,0,1-1,1Z"/><path class="cls-5" d="M58,65l-.2,0-.18-.06a.76.76,0,0,1-.18-.09,1.53,1.53,0,0,1-.15-.12,1,1,0,1,1,1.42,0,1,1,0,0,1-.16.12.56.56,0,0,1-.17.09.62.62,0,0,1-.19.06Z"/><path class="cls-5" d="M60,67a1,1,0,0,1-.71-.29A1,1,0,1,1,60,67Z"/><path class="cls-5" d="M60,63l-.2,0-.18-.06a.76.76,0,0,1-.18-.09l-.15-.12a1,1,0,1,1,1.42,0l-.16.12a.56.56,0,0,1-.17.09.62.62,0,0,1-.19.06Z"/><path class="cls-5" d="M62,65a1.05,1.05,0,0,1-.71-.29,1.15,1.15,0,0,1-.21-.33A1,1,0,0,1,61,64a1,1,0,0,1,1.71-.71A1,1,0,0,1,63,64a1,1,0,0,1-.08.38,1.15,1.15,0,0,1-.21.33A1.05,1.05,0,0,1,62,65Z"/><path class="cls-5" d="M64,67a1,1,0,0,1-1-1,.83.83,0,0,1,.08-.38,1.15,1.15,0,0,1,.21-.33,1,1,0,0,1,1.42,0,1.15,1.15,0,0,1,.21.33A1,1,0,0,1,65,66a1,1,0,0,1-1,1Z"/><path class="cls-5" d="M64,63a1,1,0,1,1,.71-.29A1.05,1.05,0,0,1,64,63Z"/><path class="cls-5" d="M66,65a1,1,0,0,1-1-1,1,1,0,0,1,.08-.38,1.15,1.15,0,0,1,.21-.33A1,1,0,0,1,66.2,63l.18.06a.76.76,0,0,1,.18.09l.15.12a1.15,1.15,0,0,1,.21.33A1,1,0,0,1,67,64a1.05,1.05,0,0,1-.29.71l-.15.12a.76.76,0,0,1-.18.09L66.2,65Z"/><path class="cls-5" d="M68,67l-.2,0-.18-.06a.76.76,0,0,1-.18-.09l-.15-.12a1,1,0,0,1,0-1.42l.15-.12a.76.76,0,0,1,.18-.09A.63.63,0,0,1,67.8,65a1,1,0,0,1,.91.27A1,1,0,0,1,68,67Z"/><path class="cls-5" d="M68,63l-.2,0-.18-.06a.76.76,0,0,1-.18-.09,1.53,1.53,0,0,1-.15-.12,1.15,1.15,0,0,1-.21-.33A1,1,0,0,1,67,62a1,1,0,0,1,.29-.71l.15-.12a.76.76,0,0,1,.18-.09A.63.63,0,0,1,67.8,61a1,1,0,0,1,.39,0,.61.61,0,0,1,.19.06.76.76,0,0,1,.18.09l.15.12A1.05,1.05,0,0,1,69,62a1,1,0,0,1-.08.38,1.15,1.15,0,0,1-.21.33A1.05,1.05,0,0,1,68,63Z"/><path class="cls-5" d="M70,65a1.05,1.05,0,0,1-.71-.29,1.68,1.68,0,0,1-.12-.15.74.74,0,0,1-.09-.18A.65.65,0,0,1,69,64.2a1.38,1.38,0,0,1,0-.2,1,1,0,1,1,2,0,1,1,0,0,1-.29.71A1.05,1.05,0,0,1,70,65Z"/><path class="cls-5" d="M72,67a1,1,0,0,1-1-1,.83.83,0,0,1,.08-.38,1.15,1.15,0,0,1,.21-.33,1,1,0,0,1,1.42,0,1.15,1.15,0,0,1,.21.33A1,1,0,0,1,73,66a1,1,0,0,1-.29.71A1.05,1.05,0,0,1,72,67Z"/><path class="cls-5" d="M72,63a1,1,0,0,1-.71-1.71A1,1,0,0,1,72.2,61l.18.06a.76.76,0,0,1,.18.09l.15.12a1,1,0,0,1,0,1.42l-.15.12a.76.76,0,0,1-.18.09L72.2,63Z"/><path class="cls-5" d="M74,65a1.05,1.05,0,0,1-.71-.29,1.15,1.15,0,0,1-.21-.33.94.94,0,0,1,0-.76,1.15,1.15,0,0,1,.21-.33A1,1,0,0,1,74.2,63l.18.06a.76.76,0,0,1,.18.09l.15.12a1.15,1.15,0,0,1,.21.33.94.94,0,0,1,0,.76,1.15,1.15,0,0,1-.21.33l-.15.12a.76.76,0,0,1-.18.09L74.2,65Z"/><path class="cls-5" d="M76,67a1,1,0,0,1-1-1,.73.73,0,0,1,0-.2,1.38,1.38,0,0,1,0-.18,1,1,0,0,1,.1-.17,1,1,0,0,1,.12-.16A1,1,0,0,1,76.2,65l.18.06a.76.76,0,0,1,.18.09l.15.12A1,1,0,0,1,77,66a1.05,1.05,0,0,1-.29.71l-.15.12a.76.76,0,0,1-.18.09L76.2,67Z"/><path class="cls-5" d="M76,63a1,1,0,0,1-.71-1.71A1,1,0,0,1,76.2,61l.18.06a.76.76,0,0,1,.18.09l.15.12A1,1,0,0,1,77,62a1.05,1.05,0,0,1-.29.71l-.15.12a.76.76,0,0,1-.18.09L76.2,63Z"/><path class="cls-5" d="M78,65a1,1,0,0,1-.38-.08,1,1,0,0,1-.33-.21A1,1,0,0,1,77,64a1.38,1.38,0,0,1,0-.2.65.65,0,0,1,.06-.18.74.74,0,0,1,.09-.18,1.55,1.55,0,0,1,.12-.15,1,1,0,0,1,.33-.21,1,1,0,0,1,1.09.21,1.55,1.55,0,0,1,.12.15.78.78,0,0,1,.09.18.62.62,0,0,1,.06.18,1.26,1.26,0,0,1,0,.2,1,1,0,0,1-1,1Z"/><path class="cls-5" d="M80,67a1.05,1.05,0,0,1-.71-.29,1,1,0,0,1-.12-.16.54.54,0,0,1-.09-.17A.65.65,0,0,1,79,66.2a1,1,0,0,1,0-.4.65.65,0,0,1,.06-.18.55.55,0,0,1,.09-.17,1,1,0,0,1,.12-.16,1,1,0,0,1,1.42,0,1,1,0,0,1,.12.16.57.57,0,0,1,.09.17.62.62,0,0,1,.06.18,1,1,0,0,1,0,.4.62.62,0,0,1-.06.18.56.56,0,0,1-.09.17,1,1,0,0,1-.12.16A1.05,1.05,0,0,1,80,67Z"/><path class="cls-5" d="M80,63a1.05,1.05,0,0,1-.71-.29,1.68,1.68,0,0,1-.12-.15.74.74,0,0,1-.09-.18A.65.65,0,0,1,79,62.2a1,1,0,0,1,0-.4.65.65,0,0,1,.06-.18.55.55,0,0,1,.09-.17,1,1,0,0,1,.12-.16,1,1,0,0,1,1.42,0,1,1,0,0,1,.12.16.57.57,0,0,1,.09.17.62.62,0,0,1,.06.18,1,1,0,0,1,0,.4.62.62,0,0,1-.06.18.78.78,0,0,1-.09.18,1.68,1.68,0,0,1-.12.15A1.05,1.05,0,0,1,80,63Z"/><path class="cls-5" d="M82,65l-.2,0-.18-.06a.76.76,0,0,1-.18-.09,1.53,1.53,0,0,1-.15-.12,1,1,0,0,1-.21-.33A.83.83,0,0,1,81,64a1.38,1.38,0,0,1,0-.2.65.65,0,0,1,.06-.18.74.74,0,0,1,.09-.18,1.55,1.55,0,0,1,.12-.15,1,1,0,0,1,1.42,0A1,1,0,0,1,83,64a1,1,0,0,1-.08.38,1,1,0,0,1-.21.33,1,1,0,0,1-.16.12.56.56,0,0,1-.17.09.62.62,0,0,1-.19.06Z"/><path class="cls-5" d="M84,67l-.2,0-.18-.06a.76.76,0,0,1-.18-.09,1.53,1.53,0,0,1-.15-.12,1,1,0,0,1-.21-.33.94.94,0,0,1,0-.76,1.15,1.15,0,0,1,.21-.33l.15-.12a.76.76,0,0,1,.18-.09A.63.63,0,0,1,83.8,65a.85.85,0,0,1,.39,0,.61.61,0,0,1,.19.06.56.56,0,0,1,.17.09l.16.12a1.15,1.15,0,0,1,.21.33.94.94,0,0,1,0,.76,1,1,0,0,1-.21.33,1,1,0,0,1-.16.12.56.56,0,0,1-.17.09.62.62,0,0,1-.19.06Z"/><path class="cls-5" d="M84,63l-.2,0-.18-.06a.76.76,0,0,1-.18-.09l-.15-.12A1,1,0,0,1,83,62a1.38,1.38,0,0,1,0-.2.65.65,0,0,1,.06-.18.74.74,0,0,1,.09-.18,1.55,1.55,0,0,1,.12-.15,1,1,0,0,1,1.42,0l.12.15a.78.78,0,0,1,.09.18.62.62,0,0,1,.06.18,1.26,1.26,0,0,1,0,.2,1.05,1.05,0,0,1-.29.71l-.16.12a.56.56,0,0,1-.17.09.62.62,0,0,1-.19.06Z"/><path class="cls-5" d="M86,65a1.05,1.05,0,0,1-.71-.29,1.15,1.15,0,0,1-.21-.33A1,1,0,0,1,85,64a1,1,0,0,1,.29-.71,1,1,0,0,1,.9-.27.61.61,0,0,1,.19.06.56.56,0,0,1,.17.09l.16.12A1.05,1.05,0,0,1,87,64a1,1,0,0,1-.08.38,1.15,1.15,0,0,1-.21.33l-.16.12a.56.56,0,0,1-.17.09.62.62,0,0,1-.19.06Z"/><path class="cls-5" d="M88,67l-.2,0-.18-.06a.76.76,0,0,1-.18-.09l-.15-.12a1,1,0,0,1-.12-.16.54.54,0,0,1-.09-.17.62.62,0,0,1-.06-.19A1.25,1.25,0,0,1,87,66a1,1,0,0,1,.08-.38,1.15,1.15,0,0,1,.21-.33l.15-.12a.76.76,0,0,1,.18-.09A.63.63,0,0,1,87.8,65a.85.85,0,0,1,.39,0,.61.61,0,0,1,.19.06.56.56,0,0,1,.17.09l.16.12a1.15,1.15,0,0,1,.21.33A1,1,0,0,1,89,66a1.14,1.14,0,0,1,0,.19.59.59,0,0,1-.06.19.56.56,0,0,1-.09.17l-.12.16-.16.12a.56.56,0,0,1-.17.09.62.62,0,0,1-.19.06Z"/><path class="cls-5" d="M88,63l-.2,0-.18-.06a.76.76,0,0,1-.18-.09l-.15-.12a1.15,1.15,0,0,1-.21-.33A1,1,0,0,1,87,62a1.54,1.54,0,0,1,0-.2.65.65,0,0,1,.06-.18.74.74,0,0,1,.09-.18,1.55,1.55,0,0,1,.12-.15,1,1,0,0,1,1.42,0l.12.15a.78.78,0,0,1,.09.18.62.62,0,0,1,.06.18,1.39,1.39,0,0,1,0,.2,1,1,0,0,1-.08.38,1.15,1.15,0,0,1-.21.33l-.16.12a.56.56,0,0,1-.17.09.62.62,0,0,1-.19.06Z"/><path class="cls-5" d="M90,65l-.2,0-.18-.06a.76.76,0,0,1-.18-.09,1.53,1.53,0,0,1-.15-.12,1,1,0,0,1-.21-.33.94.94,0,0,1,0-.76,1,1,0,0,1,.21-.33l.15-.12a.76.76,0,0,1,.18-.09A.63.63,0,0,1,89.8,63a.85.85,0,0,1,.39,0,.61.61,0,0,1,.19.06.56.56,0,0,1,.17.09l.16.12a1,1,0,0,1,.21.33.94.94,0,0,1,0,.76,1,1,0,0,1-.21.33,1,1,0,0,1-.16.12.56.56,0,0,1-.17.09.62.62,0,0,1-.19.06Z"/><path class="cls-5" d="M92,67a1,1,0,0,1-.38-.08.9.9,0,0,1-.54-.54A.83.83,0,0,1,91,66a1,1,0,0,1,.29-.71,1,1,0,0,1,.33-.21.93.93,0,0,1,.57-.06.61.61,0,0,1,.19.06.56.56,0,0,1,.17.09l.16.12A1.05,1.05,0,0,1,93,66a1,1,0,0,1-.08.38,1,1,0,0,1-.21.33,1,1,0,0,1-.16.12.56.56,0,0,1-.17.09.62.62,0,0,1-.19.06Z"/><path class="cls-5" d="M92,63a1,1,0,0,1-.38-.08,1,1,0,0,1-.33-.21,1.15,1.15,0,0,1-.21-.33A.83.83,0,0,1,91,62a1,1,0,0,1,.62-.92.93.93,0,0,1,.57-.06.61.61,0,0,1,.19.06.56.56,0,0,1,.17.09l.16.12A1,1,0,0,1,93,62a1,1,0,0,1-.08.38,1.15,1.15,0,0,1-.21.33l-.16.12a.56.56,0,0,1-.17.09.62.62,0,0,1-.19.06Z"/><path class="cls-5" d="M94,65a1.05,1.05,0,0,1-.71-.29,1.15,1.15,0,0,1-.21-.33.94.94,0,0,1,0-.76,1.15,1.15,0,0,1,.21-.33,1,1,0,0,1,.9-.27.61.61,0,0,1,.19.06.56.56,0,0,1,.17.09l.16.12a1.15,1.15,0,0,1,.21.33.94.94,0,0,1,0,.76,1.15,1.15,0,0,1-.21.33l-.16.12a.56.56,0,0,1-.17.09.62.62,0,0,1-.19.06Z"/><path class="cls-5" d="M96,67l-.19,0a.61.61,0,0,1-.19-.06.76.76,0,0,1-.18-.09l-.15-.12a1.68,1.68,0,0,1-.12-.15.74.74,0,0,1-.09-.18A.65.65,0,0,1,95,66.2a.73.73,0,0,1,0-.2.83.83,0,0,1,.08-.38,1.15,1.15,0,0,1,.21-.33,1.53,1.53,0,0,1,.15-.12.76.76,0,0,1,.18-.09.6.6,0,0,1,.19-.06.94.94,0,0,1,.57.06.56.56,0,0,1,.17.09,1,1,0,0,1,.16.12,1,1,0,0,1,.21.33A1,1,0,0,1,97,66a1,1,0,0,1-.29.71l-.16.12a.56.56,0,0,1-.17.09A1,1,0,0,1,96,67Z"/><path class="cls-5" d="M96,63l-.19,0a.61.61,0,0,1-.19-.06.76.76,0,0,1-.18-.09l-.15-.12a1.68,1.68,0,0,1-.12-.15.74.74,0,0,1-.09-.18A.65.65,0,0,1,95,62.2a.73.73,0,0,1,0-.2,1,1,0,0,1,.29-.71l.15-.12a.76.76,0,0,1,.18-.09.6.6,0,0,1,.19-.06.94.94,0,0,1,.57.06.56.56,0,0,1,.17.09l.16.12a1,1,0,0,1,.21.33A1,1,0,0,1,97,62a1,1,0,0,1-.29.71l-.16.12a.56.56,0,0,1-.17.09A1,1,0,0,1,96,63Z"/><path class="cls-5" d="M98,65l-.2,0-.18-.06a.76.76,0,0,1-.18-.09,1.53,1.53,0,0,1-.15-.12,1.15,1.15,0,0,1-.21-.33A1,1,0,0,1,97,64a1,1,0,0,1,.29-.71l.15-.12a.76.76,0,0,1,.18-.09A.63.63,0,0,1,97.8,63a1,1,0,0,1,.91.27,1.15,1.15,0,0,1,.21.33.94.94,0,0,1,0,.76,1.15,1.15,0,0,1-.21.33A1.05,1.05,0,0,1,98,65Z"/><path class="cls-5" d="M100,67l-.2,0-.18-.06a.76.76,0,0,1-.18-.09l-.15-.12a1.68,1.68,0,0,1-.12-.15.74.74,0,0,1-.09-.18.62.62,0,0,1-.06-.19A1.25,1.25,0,0,1,99,66a1,1,0,0,1,.29-.71,1,1,0,0,1,1.09-.21,1,1,0,0,1,.33.21A1.05,1.05,0,0,1,101,66a1.14,1.14,0,0,1,0,.19.59.59,0,0,1-.06.19.78.78,0,0,1-.09.18l-.12.15A1.05,1.05,0,0,1,100,67Z"/><path class="cls-5" d="M24,71l-.2,0-.18-.06a.76.76,0,0,1-.18-.09,1.53,1.53,0,0,1-.15-.12A1,1,0,0,1,23,70a.83.83,0,0,1,.08-.38,1,1,0,0,1,.21-.33l.15-.12a.76.76,0,0,1,.18-.09A.63.63,0,0,1,23.8,69a1,1,0,0,1,.91.27A1.05,1.05,0,0,1,25,70a1.39,1.39,0,0,1,0,.2.62.62,0,0,1-.06.18.78.78,0,0,1-.09.18l-.12.15A1.05,1.05,0,0,1,24,71Z"/><path class="cls-5" d="M26,69a.84.84,0,0,1-.38-.08,1.16,1.16,0,0,1-.33-.21,1,1,0,0,1,0-1.42,1.15,1.15,0,0,1,.33-.21,1,1,0,0,1,1.09.21,1,1,0,0,1,.21.33.94.94,0,0,1,0,.76,1.15,1.15,0,0,1-.21.33A1.05,1.05,0,0,1,26,69Z"/><path class="cls-5" d="M28,71a1,1,0,0,1-.38-.08,1,1,0,0,1-.33-.21,1,1,0,0,1,0-1.42,1,1,0,0,1,.33-.21A1,1,0,0,1,28.2,69l.18.06a.56.56,0,0,1,.17.09,1,1,0,0,1,.16.12,1,1,0,0,1,0,1.42l-.16.12a.56.56,0,0,1-.17.09L28.2,71Z"/><path class="cls-5" d="M30,69a1,1,0,0,1-.71-1.71,1,1,0,0,1,.9-.27.61.61,0,0,1,.19.06.76.76,0,0,1,.18.09l.15.12A1,1,0,0,1,31,68a1,1,0,0,1-.08.38.94.94,0,0,1-.21.33l-.15.12a.76.76,0,0,1-.18.09.62.62,0,0,1-.19.06Z"/><path class="cls-5" d="M16,63a1.05,1.05,0,0,1-.71-.29,1.68,1.68,0,0,1-.12-.15.74.74,0,0,1-.09-.18A.65.65,0,0,1,15,62.2a1.53,1.53,0,0,1,0-.2,1,1,0,0,1,.08-.38,1.15,1.15,0,0,1,.21-.33,1,1,0,0,1,1.42,0,.93.93,0,0,1,.21.33A1,1,0,0,1,17,62a1,1,0,0,1-.29.71A1.05,1.05,0,0,1,16,63Z"/><path class="cls-5" d="M16,67a1.05,1.05,0,0,1-.71-.29,1.68,1.68,0,0,1-.12-.15.74.74,0,0,1-.09-.18A.65.65,0,0,1,15,66.2a1.53,1.53,0,0,1,0-.2,1,1,0,0,1,1.71-.71,1.15,1.15,0,0,1,.21.33A1,1,0,0,1,17,66a1,1,0,0,1-.29.71A1.05,1.05,0,0,1,16,67Z"/><path class="cls-5" d="M18,65a1,1,0,1,1,1-1,1.39,1.39,0,0,1,0,.2.62.62,0,0,1-.06.18.78.78,0,0,1-.09.18l-.12.15A1.05,1.05,0,0,1,18,65Z"/><path class="cls-5" d="M20,67l-.2,0-.18-.06a.76.76,0,0,1-.18-.09l-.15-.12a1,1,0,0,1,0-1.42l.15-.12a.76.76,0,0,1,.18-.09A.63.63,0,0,1,19.8,65a1,1,0,0,1,.91.27,1,1,0,0,1,.21.33A1,1,0,0,1,21,66a1,1,0,0,1-.29.71A1.05,1.05,0,0,1,20,67Z"/><path class="cls-5" d="M20,63l-.2,0-.18-.06a.76.76,0,0,1-.18-.09,1.53,1.53,0,0,1-.15-.12,1,1,0,0,1-.21-.33.94.94,0,0,1,0-.76,1,1,0,0,1,.21-.33,1.53,1.53,0,0,1,.15-.12.76.76,0,0,1,.18-.09A.63.63,0,0,1,19.8,61a1,1,0,0,1,.91.27,1,1,0,0,1,.21.33.94.94,0,0,1,0,.76,1,1,0,0,1-.21.33A1.05,1.05,0,0,1,20,63Z"/><path class="cls-5" d="M22,65a1,1,0,1,1,1-1,1.14,1.14,0,0,1,0,.19.59.59,0,0,1-.06.19.78.78,0,0,1-.09.18l-.12.15A1.05,1.05,0,0,1,22,65Z"/><path class="cls-5" d="M16,71a1.05,1.05,0,0,1-.71-.29,1,1,0,0,1-.21-.33A1,1,0,0,1,15,70a1,1,0,0,1,1.71-.71,1,1,0,0,1,.21.33.94.94,0,0,1,0,.76,1,1,0,0,1-.21.33A1.05,1.05,0,0,1,16,71Z"/><path class="cls-5" d="M18,69a1,1,0,0,1-.71-.29,1,1,0,0,1,1.42-1.42l.12.15a.78.78,0,0,1,.09.18.62.62,0,0,1,.06.18,1.39,1.39,0,0,1,0,.2,1,1,0,0,1-1,1Z"/><path class="cls-5" d="M20,71l-.2,0-.18-.06a.76.76,0,0,1-.18-.09l-.15-.12a1,1,0,0,1-.21-.33A1,1,0,0,1,19,70a1,1,0,0,1,.29-.71l.15-.12a.76.76,0,0,1,.18-.09A.63.63,0,0,1,19.8,69a1,1,0,0,1,.91.27A1.05,1.05,0,0,1,21,70a1,1,0,0,1-.08.38,1,1,0,0,1-.21.33A1.05,1.05,0,0,1,20,71Z"/><path class="cls-5" d="M22,69a1,1,0,1,1,1-1,1.39,1.39,0,0,1,0,.2.62.62,0,0,1-.06.18.78.78,0,0,1-.09.18l-.12.15A1.05,1.05,0,0,1,22,69Z"/><path class="cls-5" d="M32,71l-.19,0a.61.61,0,0,1-.19-.06.76.76,0,0,1-.18-.09l-.15-.12a1,1,0,0,1,0-1.42,1.53,1.53,0,0,1,.15-.12.76.76,0,0,1,.18-.09.6.6,0,0,1,.19-.06.81.81,0,0,1,.38,0,.61.61,0,0,1,.19.06.56.56,0,0,1,.17.09,1,1,0,0,1,.16.12.93.93,0,0,1,.21.33.94.94,0,0,1,0,.76,1.15,1.15,0,0,1-.21.33l-.16.12a.56.56,0,0,1-.17.09.62.62,0,0,1-.19.06Z"/><path class="cls-5" d="M34,69l-.19,0a.61.61,0,0,1-.19-.06.76.76,0,0,1-.18-.09l-.15-.12A1,1,0,0,1,33,68a.83.83,0,0,1,.08-.38.93.93,0,0,1,.21-.33,1.53,1.53,0,0,1,.15-.12.76.76,0,0,1,.18-.09.6.6,0,0,1,.19-.06,1,1,0,0,1,.9.27.93.93,0,0,1,.21.33.94.94,0,0,1,0,.76,1.15,1.15,0,0,1-.21.33A1.05,1.05,0,0,1,34,69Z"/><path class="cls-5" d="M36,71a1,1,0,0,1-1-1,1.25,1.25,0,0,1,0-.19.62.62,0,0,1,.06-.19.74.74,0,0,1,.09-.18l.12-.15a1,1,0,0,1,.9-.27.61.61,0,0,1,.19.06.76.76,0,0,1,.18.09l.15.12a1.55,1.55,0,0,1,.12.15.78.78,0,0,1,.09.18.59.59,0,0,1,.06.19A1.14,1.14,0,0,1,37,70a1.05,1.05,0,0,1-.29.71l-.15.12a.76.76,0,0,1-.18.09.62.62,0,0,1-.19.06Z"/><path class="cls-5" d="M38,69l-.19,0a.61.61,0,0,1-.19-.06.76.76,0,0,1-.18-.09,1.53,1.53,0,0,1-.15-.12.94.94,0,0,1-.21-.33.94.94,0,0,1,0-.76,1.15,1.15,0,0,1,.21-.33,1,1,0,0,1,.9-.27.61.61,0,0,1,.19.06.56.56,0,0,1,.17.09l.16.12a1.15,1.15,0,0,1,.21.33.94.94,0,0,1,0,.76.94.94,0,0,1-.21.33,1.17,1.17,0,0,1-.33.21.62.62,0,0,1-.19.06Z"/><path class="cls-5" d="M40,71a1,1,0,0,1-.38-.08.9.9,0,0,1-.54-.54A1,1,0,0,1,39,70a1,1,0,0,1,.29-.71,1,1,0,0,1,.33-.21.93.93,0,0,1,.57-.06.61.61,0,0,1,.19.06.56.56,0,0,1,.17.09,1,1,0,0,1,.16.12A1.05,1.05,0,0,1,41,70a.84.84,0,0,1-.08.38.94.94,0,0,1-.21.33,1,1,0,0,1-.16.12.56.56,0,0,1-.17.09.62.62,0,0,1-.19.06Z"/><path class="cls-5" d="M42,69a1,1,0,0,1-.38-.08,1,1,0,0,1-.33-.21,1,1,0,0,1,0-1.42,1,1,0,0,1,.33-.21,1,1,0,0,1,1.09.21A1,1,0,0,1,42,69Z"/><path class="cls-5" d="M44,71a1,1,0,1,1,.71-.29A1.05,1.05,0,0,1,44,71Z"/><path class="cls-5" d="M46,69a1,1,0,1,1,.71-.29A1.05,1.05,0,0,1,46,69Z"/><path class="cls-5" d="M48,71a1,1,0,0,1-.38-.08,1.16,1.16,0,0,1-.33-.21,1,1,0,0,1,0-1.42,1.15,1.15,0,0,1,.33-.21,1,1,0,0,1,1.09.21A1,1,0,0,1,48,71Z"/><path class="cls-5" d="M50,69a1,1,0,0,1-1-1,.83.83,0,0,1,.08-.38,1,1,0,0,1,.21-.33,1,1,0,0,1,1.42,0,1,1,0,0,1,.21.33A1,1,0,0,1,51,68a1,1,0,0,1-1,1Z"/><path class="cls-5" d="M52,71a1,1,0,0,1-1-1,.83.83,0,0,1,.08-.38,1,1,0,0,1,.21-.33,1,1,0,0,1,1.42,0,1,1,0,0,1,.21.33A.85.85,0,0,1,53,70a1,1,0,0,1-1,1Z"/><path class="cls-5" d="M54,69a1,1,0,0,1-1-1,.83.83,0,0,1,.08-.38,1.15,1.15,0,0,1,.21-.33,1,1,0,0,1,1.42,0,1.15,1.15,0,0,1,.21.33A1,1,0,0,1,55,68a1,1,0,0,1-1,1Z"/><path class="cls-5" d="M56,71a1,1,0,0,1-.38-.08,1,1,0,0,1-.33-.21,1.15,1.15,0,0,1-.21-.33.94.94,0,0,1,0-.76,1.15,1.15,0,0,1,.21-.33,1,1,0,0,1,.33-.21,1,1,0,0,1,1.09.21,1.15,1.15,0,0,1,.21.33.94.94,0,0,1,0,.76,1.15,1.15,0,0,1-.21.33A1.05,1.05,0,0,1,56,71Z"/><path class="cls-5" d="M58,69a1,1,0,0,1-.71-.29,1.15,1.15,0,0,1-.21-.33.94.94,0,0,1,0-.76,1.15,1.15,0,0,1,.21-.33,1,1,0,0,1,1.42,0,1.15,1.15,0,0,1,.21.33.94.94,0,0,1,0,.76,1.15,1.15,0,0,1-.21.33A1.05,1.05,0,0,1,58,69Z"/><path class="cls-5" d="M60,71a1,1,0,0,1-.71-.29A1,1,0,0,1,59,70a1,1,0,0,1,.08-.38,1.15,1.15,0,0,1,.21-.33,1,1,0,0,1,1.42,0,1.15,1.15,0,0,1,.21.33A1,1,0,0,1,61,70a1,1,0,0,1-1,1Z"/><path class="cls-5" d="M62,69a1,1,0,0,1-1-1,1,1,0,0,1,.08-.38,1.15,1.15,0,0,1,.21-.33,1,1,0,0,1,1.42,0,1,1,0,0,1,.21.33A1,1,0,0,1,63,68a1,1,0,0,1-1,1Z"/><path class="cls-5" d="M64,71a1.05,1.05,0,0,1-.71-.29A1,1,0,0,1,63,70a1,1,0,1,1,2,0,1,1,0,0,1-.29.71A1.05,1.05,0,0,1,64,71Z"/><path class="cls-5" d="M66,69a1,1,0,1,1,.2-2l.18.06a.76.76,0,0,1,.18.09l.15.12a1,1,0,0,1,0,1.42l-.15.12a.76.76,0,0,1-.18.09L66.2,69Z"/><path class="cls-5" d="M68,71l-.2,0-.18-.06a.76.76,0,0,1-.18-.09,1.53,1.53,0,0,1-.15-.12,1.15,1.15,0,0,1-.21-.33A1,1,0,0,1,67,70a1,1,0,0,1,.29-.71l.15-.12a.76.76,0,0,1,.18-.09A.63.63,0,0,1,67.8,69a1.27,1.27,0,0,1,.39,0,.61.61,0,0,1,.19.06.76.76,0,0,1,.18.09l.15.12A1.05,1.05,0,0,1,69,70a1,1,0,0,1-.08.38,1.15,1.15,0,0,1-.21.33A1.05,1.05,0,0,1,68,71Z"/><path class="cls-5" d="M70,69a1,1,0,0,1-.71-.29,1.68,1.68,0,0,1-.12-.15.74.74,0,0,1-.09-.18A.65.65,0,0,1,69,68.2a1.38,1.38,0,0,1,0-.2.83.83,0,0,1,.08-.38,1.15,1.15,0,0,1,.21-.33,1,1,0,0,1,1.42,0,1.15,1.15,0,0,1,.21.33A1,1,0,0,1,71,68a1.26,1.26,0,0,1,0,.2.62.62,0,0,1-.06.18.78.78,0,0,1-.09.18l-.12.15A1.05,1.05,0,0,1,70,69Z"/><path class="cls-5" d="M72,71a1.05,1.05,0,0,1-.71-.29,1.15,1.15,0,0,1-.21-.33A.83.83,0,0,1,71,70a1,1,0,1,1,2,0,1,1,0,0,1-.08.38,1.15,1.15,0,0,1-.21.33A1.05,1.05,0,0,1,72,71Z"/><path class="cls-5" d="M74,69a1.05,1.05,0,0,1-.71-.29A1,1,0,0,1,73,68a.83.83,0,0,1,.08-.38,1,1,0,0,1,.21-.33A1,1,0,0,1,74.2,67l.18.06a.76.76,0,0,1,.18.09l.15.12a1.15,1.15,0,0,1,.21.33A.85.85,0,0,1,75,68a1.26,1.26,0,0,1,0,.2.62.62,0,0,1-.06.18.78.78,0,0,1-.09.18,1.68,1.68,0,0,1-.12.15l-.15.12a.76.76,0,0,1-.18.09L74.2,69Z"/><path class="cls-5" d="M76,71a1.05,1.05,0,0,1-.71-.29,1,1,0,0,1-.12-.16,1,1,0,0,1-.1-.17,1.38,1.38,0,0,1,0-.18.73.73,0,0,1,0-.2,1,1,0,0,1,.29-.71A1,1,0,0,1,76.2,69l.18.06a.76.76,0,0,1,.18.09l.15.12A1.05,1.05,0,0,1,77,70a1,1,0,0,1-.29.71l-.15.12a.76.76,0,0,1-.18.09L76.2,71Z"/><path class="cls-5" d="M78,69a.84.84,0,0,1-.38-.08,1,1,0,0,1-.33-.21,1.68,1.68,0,0,1-.12-.15.74.74,0,0,1-.09-.18A.65.65,0,0,1,77,68.2a1.38,1.38,0,0,1,0-.2,1,1,0,0,1,.08-.38,1.15,1.15,0,0,1,.21-.33,1,1,0,0,1,1.42,0,1.15,1.15,0,0,1,.21.33A.85.85,0,0,1,79,68a1.26,1.26,0,0,1,0,.2.62.62,0,0,1-.06.18.78.78,0,0,1-.09.18,1.68,1.68,0,0,1-.12.15A1.05,1.05,0,0,1,78,69Z"/><path class="cls-5" d="M80,71a1.05,1.05,0,0,1-.71-.29,1,1,0,0,1-.12-.16.54.54,0,0,1-.09-.17A.65.65,0,0,1,79,70.2a1,1,0,0,1,0-.4.65.65,0,0,1,.06-.18.74.74,0,0,1,.09-.18,1.55,1.55,0,0,1,.12-.15,1,1,0,0,1,1.42,0,1.55,1.55,0,0,1,.12.15.78.78,0,0,1,.09.18.62.62,0,0,1,.06.18,1,1,0,0,1,0,.4.62.62,0,0,1-.06.18.56.56,0,0,1-.09.17,1,1,0,0,1-.12.16A1.05,1.05,0,0,1,80,71Z"/><path class="cls-5" d="M82,69l-.2,0-.18-.06a.76.76,0,0,1-.18-.09l-.15-.12a1.68,1.68,0,0,1-.12-.15.74.74,0,0,1-.09-.18A.65.65,0,0,1,81,68.2a1,1,0,0,1,0-.4.65.65,0,0,1,.06-.18.55.55,0,0,1,.09-.17,1,1,0,0,1,.12-.16l.15-.12a.76.76,0,0,1,.18-.09A.63.63,0,0,1,81.8,67a.85.85,0,0,1,.39,0,.61.61,0,0,1,.19.06.56.56,0,0,1,.17.09l.16.12A1.05,1.05,0,0,1,83,68a1,1,0,0,1-.29.71l-.16.12a.56.56,0,0,1-.17.09.62.62,0,0,1-.19.06Z"/><path class="cls-5" d="M84,71l-.2,0-.18-.06a.76.76,0,0,1-.18-.09l-.15-.12a1.15,1.15,0,0,1-.21-.33.94.94,0,0,1,0-.76,1,1,0,0,1,.21-.33,1.53,1.53,0,0,1,.15-.12.76.76,0,0,1,.18-.09A.63.63,0,0,1,83.8,69a.85.85,0,0,1,.39,0,.61.61,0,0,1,.19.06.56.56,0,0,1,.17.09,1,1,0,0,1,.16.12,1,1,0,0,1,.21.33.94.94,0,0,1,0,.76,1.15,1.15,0,0,1-.21.33l-.16.12a.56.56,0,0,1-.17.09.62.62,0,0,1-.19.06Z"/><path class="cls-5" d="M86,69a1.05,1.05,0,0,1-.71-.29,1.15,1.15,0,0,1-.21-.33.94.94,0,0,1,0-.76,1,1,0,0,1,.21-.33,1,1,0,0,1,.9-.27.61.61,0,0,1,.19.06.56.56,0,0,1,.17.09l.16.12a1,1,0,0,1,.21.33.94.94,0,0,1,0,.76,1.15,1.15,0,0,1-.21.33l-.16.12a.56.56,0,0,1-.17.09.62.62,0,0,1-.19.06Z"/><path class="cls-5" d="M88,71l-.2,0-.18-.06a.76.76,0,0,1-.18-.09l-.15-.12a1.15,1.15,0,0,1-.21-.33A1,1,0,0,1,87,70a1,1,0,0,1,.29-.71l.15-.12a.76.76,0,0,1,.18-.09A.63.63,0,0,1,87.8,69a.85.85,0,0,1,.39,0,.61.61,0,0,1,.19.06.56.56,0,0,1,.17.09l.16.12A1.05,1.05,0,0,1,89,70a1,1,0,0,1-.08.38,1.15,1.15,0,0,1-.21.33l-.16.12a.56.56,0,0,1-.17.09.62.62,0,0,1-.19.06Z"/><path class="cls-5" d="M90,69l-.2,0-.18-.06a.76.76,0,0,1-.18-.09,1.53,1.53,0,0,1-.15-.12A1,1,0,0,1,89,68a1,1,0,0,1,.08-.38,1,1,0,0,1,.21-.33l.15-.12a.76.76,0,0,1,.18-.09A.63.63,0,0,1,89.8,67a.85.85,0,0,1,.39,0,.61.61,0,0,1,.19.06.56.56,0,0,1,.17.09l.16.12a1,1,0,0,1,.21.33.94.94,0,0,1,0,.76,1,1,0,0,1-.21.33,1,1,0,0,1-.16.12.56.56,0,0,1-.17.09.62.62,0,0,1-.19.06Z"/><path class="cls-5" d="M92,71a.84.84,0,0,1-.38-.08,1,1,0,0,1-.33-.21A1,1,0,0,1,91,70a.83.83,0,0,1,.08-.38,1.15,1.15,0,0,1,.21-.33,1,1,0,0,1,.33-.21.93.93,0,0,1,.57-.06.61.61,0,0,1,.19.06.56.56,0,0,1,.17.09,1,1,0,0,1,.16.12,1.15,1.15,0,0,1,.21.33A1,1,0,0,1,93,70a1.05,1.05,0,0,1-.29.71l-.16.12a.56.56,0,0,1-.17.09.62.62,0,0,1-.19.06Z"/><path class="cls-5" d="M94,69a1,1,0,0,1-.38-.08,1,1,0,0,1-.33-.21A1,1,0,0,1,93,68a.83.83,0,0,1,.08-.38,1,1,0,0,1,.21-.33,1,1,0,0,1,.9-.27.61.61,0,0,1,.19.06.56.56,0,0,1,.17.09,1,1,0,0,1,.16.12,1,1,0,0,1,.21.33A.85.85,0,0,1,95,68a1.39,1.39,0,0,1,0,.2.62.62,0,0,1-.06.18.78.78,0,0,1-.09.18l-.12.15-.16.12a.56.56,0,0,1-.17.09.62.62,0,0,1-.19.06Z"/><path class="cls-5" d="M96,71l-.19,0a.61.61,0,0,1-.19-.06.76.76,0,0,1-.18-.09l-.15-.12a1.15,1.15,0,0,1-.21-.33.94.94,0,0,1,0-.76,1.15,1.15,0,0,1,.21-.33l.15-.12a.76.76,0,0,1,.18-.09.6.6,0,0,1,.19-.06.94.94,0,0,1,.57.06.56.56,0,0,1,.17.09l.16.12a1,1,0,0,1,.21.33.94.94,0,0,1,0,.76,1,1,0,0,1-.21.33l-.16.12a.56.56,0,0,1-.17.09A1,1,0,0,1,96,71Z"/><path class="cls-5" d="M98,69l-.2,0-.18-.06a.76.76,0,0,1-.18-.09l-.15-.12a1.68,1.68,0,0,1-.12-.15.74.74,0,0,1-.09-.18.62.62,0,0,1-.06-.19A1.25,1.25,0,0,1,97,68a1,1,0,0,1,.29-.71,1,1,0,0,1,1.09-.21,1,1,0,0,1,.33.21A1,1,0,0,1,98,69Z"/><path class="cls-5" d="M100,71l-.2,0-.18-.06a.76.76,0,0,1-.18-.09l-.15-.12a1.68,1.68,0,0,1-.12-.15.74.74,0,0,1-.09-.18A.65.65,0,0,1,99,70.2a1.38,1.38,0,0,1,0-.2,1,1,0,0,1,.08-.38,1,1,0,0,1,1.3-.54,1,1,0,0,1,.33.21,1,1,0,0,1,.21.33A.85.85,0,0,1,101,70a1.26,1.26,0,0,1,0,.2.62.62,0,0,1-.06.18.78.78,0,0,1-.09.18l-.12.15A1.05,1.05,0,0,1,100,71Z"/><path class="cls-5" d="M100,63l-.2,0-.18-.06a.76.76,0,0,1-.18-.09l-.15-.12a1,1,0,0,1,0-1.42,1,1,0,0,1,1.09-.21,1,1,0,0,1,.33.21A1,1,0,0,1,100,63Z"/><path class="cls-5" d="M102,65l-.2,0-.18-.06a.76.76,0,0,1-.18-.09,1.53,1.53,0,0,1-.15-.12A1,1,0,0,1,101,64a.83.83,0,0,1,.08-.38,1.15,1.15,0,0,1,.21-.33,1.53,1.53,0,0,1,.15-.12.76.76,0,0,1,.18-.09.63.63,0,0,1,.18-.06,1,1,0,0,1,.91.27,1,1,0,0,1,.21.33.94.94,0,0,1,0,.76,1,1,0,0,1-.21.33A1.05,1.05,0,0,1,102,65Z"/><path class="cls-5" d="M104,67a1.05,1.05,0,0,1-.71-.29,1.15,1.15,0,0,1-.21-.33A.83.83,0,0,1,103,66a1,1,0,0,1,.29-.71,1,1,0,0,1,.33-.21,1,1,0,0,1,1.08.21,1,1,0,0,1,.3.71,1,1,0,0,1-.3.71A1,1,0,0,1,104,67Z"/><path class="cls-5" d="M102,69a1,1,0,0,1-.71-.29A1,1,0,0,1,101,68a1.25,1.25,0,0,1,0-.19.62.62,0,0,1,.06-.19.74.74,0,0,1,.09-.18,1.55,1.55,0,0,1,.12-.15l.15-.12a.76.76,0,0,1,.18-.09.63.63,0,0,1,.18-.06,1,1,0,0,1,.91.27A1.05,1.05,0,0,1,103,68a1,1,0,0,1-.29.71,1,1,0,0,1-.33.21A1,1,0,0,1,102,69Z"/><path class="cls-5" d="M104,71a1.05,1.05,0,0,1-.71-.29,1.15,1.15,0,0,1-.21-.33A.83.83,0,0,1,103,70a1,1,0,0,1,.29-.71,1,1,0,0,1,.33-.21,1,1,0,0,1,1.08.21,1,1,0,0,1,.3.71,1,1,0,0,1-.3.71A1,1,0,0,1,104,71Z"/><path class="cls-5" d="M104,63a1,1,0,0,1-.38-.08,1,1,0,0,1-.33-.21A1,1,0,0,1,103,62a.83.83,0,0,1,.08-.38,1.15,1.15,0,0,1,.21-.33,1,1,0,0,1,1.41,0,1,1,0,0,1,.3.71,1,1,0,0,1-.3.71,1,1,0,0,1-.7.29Z"/></g><path class="cls-5" d="M103,112H17a3,3,0,0,1-3-3V55a3,3,0,0,1,3-3h86a3,3,0,0,1,3,3v54A3,3,0,0,1,103,112ZM17,54a1,1,0,0,0-1,1v54a1,1,0,0,0,1,1h86a1,1,0,0,0,1-1V55a1,1,0,0,0-1-1Z"/><path class="cls-14" d="M51.14,91l-.27,0a1.82,1.82,0,0,1-1.26-.68A4.61,4.61,0,0,1,49,87.81a23.87,23.87,0,0,1-2.8.79,1,1,0,0,1-.4-2,22.6,22.6,0,0,0,3.38-1,7.37,7.37,0,0,1,1-2.57,4.57,4.57,0,0,1,5.3-1.88,1.51,1.51,0,0,1,1.32,1.49C56.75,84.13,54,85.82,51,87A5.62,5.62,0,0,0,51.16,89,9,9,0,0,0,55,86.87a1,1,0,0,1,1.5.29,3.41,3.41,0,0,1,.18.39c.15.36.15.36.34.36a4.83,4.83,0,0,0,1.43-.71,4.18,4.18,0,0,1,2-.85,3.26,3.26,0,0,1,1.89.9,3.15,3.15,0,0,0,1.3.74s.12-.15.17-.23a2.11,2.11,0,0,1,1.91-1.23,2.75,2.75,0,0,1,2,.88,1.82,1.82,0,0,0,.25.21,1,1,0,0,1,1,1,1,1,0,0,1-1,1,2.23,2.23,0,0,1-1.59-.74c-.28-.27-.38-.34-.64-.34-.06,0-.14.15-.19.24A2.1,2.1,0,0,1,63.69,90a4.32,4.32,0,0,1-2.51-1.15,5.51,5.51,0,0,0-.7-.48,7,7,0,0,0-1,.54,5.07,5.07,0,0,1-2.48,1,2.1,2.1,0,0,1-1.71-.76C54.14,90,52.45,91,51.14,91Zm2.81-8a2.31,2.31,0,0,0-2,.94,3.7,3.7,0,0,0-.39.65A16.62,16.62,0,0,0,54.28,83Z"/><g class="cls-12"><path class="cls-5" d="M89,88a1,1,0,0,1-1-1V85a1,1,0,0,1,2,0v2A1,1,0,0,1,89,88Z"/></g><g class="cls-12"><path class="cls-5" d="M85,88a1,1,0,0,1-1-1V85a1,1,0,0,1,2,0v2A1,1,0,0,1,85,88Z"/></g><g class="cls-12"><path class="cls-5" d="M81,88a1,1,0,0,1-1-1V85a1,1,0,0,1,2,0v2A1,1,0,0,1,81,88Z"/></g><path class="cls-9" d="M61,123l2-2,2,2,2-2,2,2,2-2,2,2,2-2,2,2,2-2,2,2,2-2,2,2,2-2,2,2,2-2,2,2,2-2,2,2,2-2,2,2V47a4,4,0,0,1,4-4H61a4,4,0,0,0-4,4v76l2-2Z"/><path class="cls-5" d="M101,124a1,1,0,0,1-.71-.29L99,122.41l-1.29,1.29a1,1,0,0,1-1.41,0L95,122.41l-1.29,1.29a1,1,0,0,1-1.41,0L91,122.41l-1.29,1.29a1,1,0,0,1-1.41,0L87,122.41l-1.29,1.29a1,1,0,0,1-1.41,0L83,122.41l-1.29,1.29a1,1,0,0,1-1.41,0L79,122.41l-1.29,1.29a1,1,0,0,1-1.41,0L75,122.41l-1.29,1.29a1,1,0,0,1-1.41,0L71,122.41l-1.29,1.29a1,1,0,0,1-1.41,0L67,122.41l-1.29,1.29a1,1,0,0,1-1.41,0L63,122.41l-1.29,1.29a1,1,0,0,1-1.41,0L59,122.41l-1.29,1.29A1,1,0,0,1,56,123V47a5,5,0,0,1,5-5h44a1,1,0,0,1,0,2,3,3,0,0,0-3,3v76a1,1,0,0,1-1,1Zm-6-4a1,1,0,0,1,.71.29L97,121.59l1.29-1.29a1,1,0,0,1,1.41,0l.29.29V47a5,5,0,0,1,1-3H61a3,3,0,0,0-3,3v73.59l.29-.29a1,1,0,0,1,1.41,0L61,121.59l1.29-1.29a1,1,0,0,1,1.41,0L65,121.59l1.29-1.29a1,1,0,0,1,1.41,0L69,121.59l1.29-1.29a1,1,0,0,1,1.41,0L73,121.59l1.29-1.29a1,1,0,0,1,1.41,0L77,121.59l1.29-1.29a1,1,0,0,1,1.41,0L81,121.59l1.29-1.29a1,1,0,0,1,1.41,0L85,121.59l1.29-1.29a1,1,0,0,1,1.41,0L89,121.59l1.29-1.29a1,1,0,0,1,1.41,0L93,121.59l1.29-1.29A1,1,0,0,1,95,120Z"/><g class="cls-12"><path class="cls-5" d="M61,50a1,1,0,0,1-.38-.08.76.76,0,0,1-.18-.09,1.53,1.53,0,0,1-.15-.12A1,1,0,0,1,60,49a.83.83,0,0,1,.08-.38,1.15,1.15,0,0,1,.21-.33l.15-.12a.76.76,0,0,1,.18-.09,1,1,0,0,1,1.09.21,1.15,1.15,0,0,1,.21.33A1,1,0,0,1,62,49a1,1,0,0,1-1,1Z"/><path class="cls-5" d="M92,49a1,1,0,0,1,1-1h0a1,1,0,0,1,1,1h0a1,1,0,0,1-1,1h0A1,1,0,0,1,92,49Zm-4,0a1,1,0,0,1,1-1h0a1,1,0,0,1,1,1h0a1,1,0,0,1-1,1h0A1,1,0,0,1,88,49Zm-4,0a1,1,0,0,1,1-1h0a1,1,0,0,1,1,1h0a1,1,0,0,1-1,1h0A1,1,0,0,1,84,49Zm-4,0a1,1,0,0,1,1-1h0a1,1,0,0,1,1,1h0a1,1,0,0,1-1,1h0A1,1,0,0,1,80,49Zm-4,0a1,1,0,0,1,1-1h0a1,1,0,0,1,1,1h0a1,1,0,0,1-1,1h0A1,1,0,0,1,76,49Zm-4,0a1,1,0,0,1,1-1h0a1,1,0,0,1,1,1h0a1,1,0,0,1-1,1h0A1,1,0,0,1,72,49Zm-4,0a1,1,0,0,1,1-1h0a1,1,0,0,1,1,1h0a1,1,0,0,1-1,1h0A1,1,0,0,1,68,49Zm-4,0a1,1,0,0,1,1-1h0a1,1,0,0,1,1,1h0a1,1,0,0,1-1,1h0A1,1,0,0,1,64,49Z"/><path class="cls-5" d="M97,50l-.19,0a.61.61,0,0,1-.19-.06.76.76,0,0,1-.18-.09l-.15-.12A1,1,0,0,1,96,49a1,1,0,0,1,.08-.38,1,1,0,0,1,.21-.33l.15-.12a.76.76,0,0,1,.18-.09.6.6,0,0,1,.19-.06.94.94,0,0,1,.57.06.56.56,0,0,1,.17.09l.16.12a1,1,0,0,1,.21.33A1,1,0,0,1,98,49a1,1,0,0,1-.29.71l-.16.12a.56.56,0,0,1-.17.09A1,1,0,0,1,97,50Z"/><path class="cls-5" d="M61,116a1,1,0,0,1-.38-.08,1,1,0,0,1-.33-.21,1,1,0,0,1,0-1.42l.15-.12a.76.76,0,0,1,.18-.09,1,1,0,0,1,1.09.21A1,1,0,0,1,61,116Z"/><path class="cls-5" d="M92,115a1,1,0,0,1,1-1h0a1,1,0,0,1,1,1h0a1,1,0,0,1-1,1h0A1,1,0,0,1,92,115Zm-4,0a1,1,0,0,1,1-1h0a1,1,0,0,1,1,1h0a1,1,0,0,1-1,1h0A1,1,0,0,1,88,115Zm-4,0a1,1,0,0,1,1-1h0a1,1,0,0,1,1,1h0a1,1,0,0,1-1,1h0A1,1,0,0,1,84,115Zm-4,0a1,1,0,0,1,1-1h0a1,1,0,0,1,1,1h0a1,1,0,0,1-1,1h0A1,1,0,0,1,80,115Zm-4,0a1,1,0,0,1,1-1h0a1,1,0,0,1,1,1h0a1,1,0,0,1-1,1h0A1,1,0,0,1,76,115Zm-4,0a1,1,0,0,1,1-1h0a1,1,0,0,1,1,1h0a1,1,0,0,1-1,1h0A1,1,0,0,1,72,115Zm-4,0a1,1,0,0,1,1-1h0a1,1,0,0,1,1,1h0a1,1,0,0,1-1,1h0A1,1,0,0,1,68,115Zm-4,0a1,1,0,0,1,1-1h0a1,1,0,0,1,1,1h0a1,1,0,0,1-1,1h0A1,1,0,0,1,64,115Z"/><path class="cls-5" d="M97,116l-.19,0a.61.61,0,0,1-.19-.06.76.76,0,0,1-.18-.09,1.53,1.53,0,0,1-.15-.12,1,1,0,0,1-.21-.33A1,1,0,0,1,96,115a1,1,0,0,1,.29-.71l.15-.12a.76.76,0,0,1,.18-.09.6.6,0,0,1,.19-.06.94.94,0,0,1,.57.06.56.56,0,0,1,.17.09l.16.12A1,1,0,0,1,98,115a1,1,0,0,1-.08.38,1,1,0,0,1-.21.33,1,1,0,0,1-.16.12.56.56,0,0,1-.17.09A1,1,0,0,1,97,116Z"/><path class="cls-5" d="M79,104a4,4,0,0,1-4-4,1,1,0,1,1,2,0,2,2,0,0,0,4,0c0-1.53-2.25-2.2-2.27-2.21S75,96.74,75,93.7a4,4,0,0,1,8,0,1,1,0,1,1-2,0,2,2,0,0,0-4,0c0,1.53,2.25,2.2,2.27,2.21S83,97,83,100A4,4,0,0,1,79,104Z"/><path class="cls-5" d="M79,91.74a1,1,0,0,1-1-1V89a1,1,0,0,1,2,0v1.74A1,1,0,0,1,79,91.74Z"/><path class="cls-5" d="M79,106a1,1,0,0,1-1-1v-2a1,1,0,0,1,2,0v2A1,1,0,0,1,79,106Z"/><path class="cls-5" d="M86,66H63a1,1,0,0,1,0-2H86a1,1,0,0,1,0,2Z"/><path class="cls-5" d="M93,66H90a1,1,0,0,1,0-2h3a1,1,0,0,1,0,2Z"/><path class="cls-5" d="M86,70H63a1,1,0,0,1,0-2H86a1,1,0,0,1,0,2Z"/><path class="cls-5" d="M93,70H90a1,1,0,0,1,0-2h3a1,1,0,0,1,0,2Z"/><path class="cls-5" d="M86,74H63a1,1,0,0,1,0-2H86a1,1,0,0,1,0,2Z"/><path class="cls-5" d="M93,74H90a1,1,0,0,1,0-2h3a1,1,0,0,1,0,2Z"/><path class="cls-5" d="M86,78H63a1,1,0,0,1,0-2H86a1,1,0,0,1,0,2Z"/><path class="cls-5" d="M93,78H90a1,1,0,0,1,0-2h3a1,1,0,0,1,0,2Z"/><path class="cls-5" d="M86,82H63a1,1,0,0,1,0-2H86a1,1,0,0,1,0,2Z"/><path class="cls-5" d="M93,82H90a1,1,0,0,1,0-2h3a1,1,0,0,1,0,2Z"/><path class="cls-5" d="M66,58H63a1,1,0,0,1,0-2h3a1,1,0,0,1,0,2Z"/><path class="cls-5" d="M93,62H63a1,1,0,0,1,0-2H93a1,1,0,0,1,0,2Z"/></g></svg>