<?xml version="1.0" ?><svg data-name="003" id="_003" viewBox="0 0 128 128" xmlns="http://www.w3.org/2000/svg"><defs><style>.cls-1{opacity:0.3;}.cls-2,.cls-7{fill:#c9c1f5;}.cls-3{fill:#b1f1a8;}.cls-4{opacity:0.5;}.cls-5{fill:#fff;}.cls-6{fill:#6d6daa;}.cls-7,.cls-8{fill-rule:evenodd;}.cls-8,.cls-9{fill:#ddd9ff;}.cls-10{fill:#f2eed5;}.cls-11{fill:#fffad1;}.cls-12{fill:#e0f3ff;}.cls-13{fill:#ff968c;}.cls-14{fill:#fff2cc;}.cls-15{fill:#ff9797;}.cls-16{fill:#fff9e0;}.cls-17{fill:#ced8ee;}.cls-18{fill:#eef6ff;}.cls-19{fill:#f5dbb8;}.cls-20{fill:#875499;}.cls-21{fill:#d6b5b0;}.cls-22{fill:#b6b6d4;}</style></defs><title/><g class="cls-1"><path class="cls-2" d="M125.7,51.66a30,30,0,0,0-23.51-25,19.69,19.69,0,0,1-10.93-6.55A37,37,0,0,0,27,35.44,21,21,0,0,1,16.12,49.11C2,56.47-5.14,75.57,7.77,93.5a16.6,16.6,0,0,0,6.35,4.91,20.58,20.58,0,0,1,10,10.88,28.49,28.49,0,0,0,42.62,12.64A20.06,20.06,0,0,1,83.39,119a29,29,0,0,0,36-33.79,20.08,20.08,0,0,1,2.51-14.13A29.83,29.83,0,0,0,125.7,51.66Z"/><path class="cls-3" d="M121.74,66A26.56,26.56,0,0,0,123,57.74c0-5.3-2.91-8.74-6.5-8.74s-6.5,3.5-6.5,8.74A26.56,26.56,0,0,0,111.27,66Z"/><g class="cls-4"><path class="cls-5" d="M118.51,49.39a5.43,5.43,0,0,0-2-.39c-3.59,0-6.5,3.5-6.5,8.74A26.56,26.56,0,0,0,111.27,66h4A26.56,26.56,0,0,1,114,57.74C114,53.52,115.9,50.43,118.51,49.39Z"/></g><path class="cls-6" d="M121.74,67H111.27a1,1,0,0,1-.95-.68A27.43,27.43,0,0,1,109,57.74c0-5.64,3.15-9.74,7.5-9.74s7.5,4.09,7.5,9.74a27.42,27.42,0,0,1-1.32,8.59A1,1,0,0,1,121.74,67ZM112,65h9a26,26,0,0,0,1-7.26c0-4.48-2.31-7.74-5.5-7.74s-5.5,3.25-5.5,7.74A26,26,0,0,0,112,65Z"/><path class="cls-6" d="M111.51,54.5a1,1,0,0,1-.55-.17l-1.5-1a1,1,0,0,1,1.11-1.66l1.5,1a1,1,0,0,1-.56,1.83Z"/><path class="cls-6" d="M114.26,51.31a1,1,0,0,1-.73-.31l-1.24-1.31a1,1,0,1,1,1.45-1.37L115,49.62a1,1,0,0,1-.73,1.69Z"/><path class="cls-6" d="M118.76,51.31a1,1,0,0,1-.68-1.73l1.32-1.22a1,1,0,0,1,1.36,1.47L119.44,51A1,1,0,0,1,118.76,51.31Z"/><path class="cls-6" d="M110.51,60a1,1,0,0,1-.32-.05l-1.5-.5a1,1,0,0,1,.63-1.9l1.5.5a1,1,0,0,1-.32,1.95Z"/><path class="cls-6" d="M110,65a1,1,0,0,1-.32-1.95l1.5-.5a1,1,0,0,1,.63,1.9l-1.5.5A1,1,0,0,1,110,65Z"/><path class="cls-6" d="M122,56a1,1,0,0,1-.56-1.83l1.5-1a1,1,0,1,1,1.11,1.66l-1.5,1A1,1,0,0,1,122,56Z"/><path class="cls-6" d="M123.51,59h-1a1,1,0,0,1,0-2h1a1,1,0,0,1,0,2Z"/><path class="cls-6" d="M114.51,62.5a1,1,0,0,1-.71-.29l-.5-.5a1,1,0,0,1,1.41-1.41l.5.5a1,1,0,0,1-.71,1.71Z"/><path class="cls-6" d="M114.51,56.5a1,1,0,0,1-.71-.29l-.5-.5a1,1,0,0,1,1.41-1.41l.5.5a1,1,0,0,1-.71,1.71Z"/><path class="cls-6" d="M118.51,59.5a1,1,0,0,1-.71-1.71l.5-.5a1,1,0,0,1,1.41,1.41l-.5.5A1,1,0,0,1,118.51,59.5Z"/><path class="cls-6" d="M118.51,54.5a1,1,0,0,1-.71-1.71l.5-.5a1,1,0,0,1,1.41,1.41l-.5.5A1,1,0,0,1,118.51,54.5Z"/><path class="cls-6" d="M118.51,64.5a1,1,0,0,1-.71-1.71l.5-.5a1,1,0,0,1,1.41,1.41l-.5.5A1,1,0,0,1,118.51,64.5Z"/><path class="cls-6" d="M123.51,63.5a1,1,0,0,1-.32-.05l-1.5-.5a1,1,0,0,1,.63-1.9l1.5.5a1,1,0,0,1-.32,1.95Z"/><polygon class="cls-7" points="122.51 78 110.51 78 109.01 69 124.01 69 122.51 78"/><polygon class="cls-8" points="115.01 78 113.01 78 112.01 69 114.01 69 115.01 78"/><path class="cls-6" d="M122.51,79h-12a1,1,0,0,1-1-.84l-1.5-9A1,1,0,0,1,109,68h15a1,1,0,0,1,1,1.16l-1.5,9A1,1,0,0,1,122.51,79Zm-11.15-2h10.31l1.17-7H110.19Z"/><rect class="cls-2" height="3" width="17" x="108.01" y="66"/><rect class="cls-9" height="3" width="2" x="111.01" y="66"/><path class="cls-6" d="M125,70H108a1,1,0,0,1-1-1V66a1,1,0,0,1,1-1h17a1,1,0,0,1,1,1v3A1,1,0,0,1,125,70Zm-16-2h15V67H109Z"/><rect class="cls-10" height="21" width="6" x="85.01" y="57"/><path class="cls-6" d="M91,79H85a1,1,0,0,1-1-1V57a1,1,0,0,1,1-1h6a1,1,0,0,1,1,1V78A1,1,0,0,1,91,79Zm-5-2h4V58H86Z"/><rect class="cls-11" height="6" width="44" x="79.01" y="78"/><path class="cls-6" d="M123,85H79a1,1,0,0,1-1-1V78a1,1,0,0,1,1-1h44a1,1,0,0,1,1,1v6A1,1,0,0,1,123,85ZM80,83h42V79H80Z"/><rect class="cls-12" height="21" width="6" x="102.01" y="18"/><path class="cls-6" d="M108,40h-6a1,1,0,0,1-1-1V18a1,1,0,0,1,1-1h6a1,1,0,0,1,1,1V39A1,1,0,0,1,108,40Zm-5-2h4V19h-4Z"/><rect class="cls-12" height="12" width="15" x="82.01" y="27"/><path class="cls-6" d="M97,40H82a1,1,0,0,1-1-1V27a1,1,0,0,1,1-1H97a1,1,0,0,1,1,1V39A1,1,0,0,1,97,40ZM83,38H96V28H83Z"/><rect class="cls-12" height="5" width="17" x="81.01" y="22"/><path class="cls-6" d="M98,28H81a1,1,0,0,1-1-1V22a1,1,0,0,1,1-1H98a1,1,0,0,1,1,1v5A1,1,0,0,1,98,28ZM82,26H97V23H82Z"/><rect class="cls-13" height="21" width="6" x="108.01" y="18"/><path class="cls-6" d="M114,40h-6a1,1,0,0,1-1-1V18a1,1,0,0,1,1-1h6a1,1,0,0,1,1,1V39A1,1,0,0,1,114,40Zm-5-2h4V19h-4Z"/><rect class="cls-12" height="21" width="6" x="97.01" y="57"/><path class="cls-6" d="M103,79H97a1,1,0,0,1-1-1V57a1,1,0,0,1,1-1h6a1,1,0,0,1,1,1V78A1,1,0,0,1,103,79Zm-5-2h4V58H98Z"/><rect class="cls-13" height="21" width="6" x="91.01" y="57"/><path class="cls-6" d="M97,79H91a1,1,0,0,1-1-1V57a1,1,0,0,1,1-1h6a1,1,0,0,1,1,1V78A1,1,0,0,1,97,79Zm-5-2h4V58H92Z"/><rect class="cls-14" height="21" width="6" x="114.01" y="18"/><path class="cls-6" d="M120,40h-6a1,1,0,0,1-1-1V18a1,1,0,0,1,1-1h6a1,1,0,0,1,1,1V39A1,1,0,0,1,120,40Zm-5-2h4V19h-4Z"/><rect class="cls-11" height="6" width="44" x="79.01" y="39"/><path class="cls-6" d="M123,46H79a1,1,0,0,1-1-1V39a1,1,0,0,1,1-1h44a1,1,0,0,1,1,1v6A1,1,0,0,1,123,46ZM80,44h42V40H80Z"/><path class="cls-6" d="M92,32H87a1,1,0,0,1,0-2h5a1,1,0,0,1,0,2Z"/><path class="cls-6" d="M114,116H15a1,1,0,1,1,0-2h99a1,1,0,0,1,0,2Z"/><path class="cls-6" d="M121,116h-4a1,1,0,0,1,0-2h4a1,1,0,0,1,0,2Z"/><path class="cls-6" d="M9,116H7a1,1,0,0,1,0-2H9a1,1,0,0,1,0,2Z"/><circle class="cls-11" cx="53.98" cy="31.26" r="7" transform="translate(-6.3 47.33) rotate(-45)"/><path class="cls-6" d="M54,39.26a8,8,0,1,1,5.66-2.34h0A8,8,0,0,1,54,39.26Zm0-14A6,6,0,1,0,58.22,27,6,6,0,0,0,54,25.27Zm5,10.95h0Z"/><path class="cls-15" d="M60.23,16h-8.5L44.58,8.85a9.2,9.2,0,0,0-12.51-.63,9,9,0,0,0-.44,13.14L39,28.73v8.5A6.8,6.8,0,0,0,41,42l1.54,1.54,24-24L65,18A6.8,6.8,0,0,0,60.23,16Z"/><g class="cls-1"><path class="cls-16" d="M43,24.73l-7.36-7.36a9,9,0,0,1-2-9.69,8.62,8.62,0,0,0-1.34.66,9,9,0,0,0,1.33,11L41,26.73l2-2Z"/></g><g class="cls-1"><path class="cls-16" d="M43,24.73l-2,2,1,7.5A6.8,6.8,0,0,0,44,39l1.54,1.54,3-3C45,36.38,43.38,31.74,43,24.73Z"/></g><path class="cls-6" d="M42.54,44.58a1,1,0,0,1-.71-.29l-1.54-1.54A7.75,7.75,0,0,1,38,37.23V29.14l-7.07-7.07A10,10,0,0,1,28,14.67a9.92,9.92,0,0,1,3.41-7.2,10.18,10.18,0,0,1,13.88.67L52.14,15h8.08a7.75,7.75,0,0,1,5.51,2.28l1.54,1.54a1,1,0,0,1,0,1.41l-24,24A1,1,0,0,1,42.54,44.58ZM37.9,7.06A7.78,7.78,0,0,0,32.73,9a8,8,0,0,0-.39,11.68L39.71,28a1,1,0,0,1,.29.71v8.5a5.76,5.76,0,0,0,1.7,4.1l.84.84L65.16,19.54l-.84-.84a5.76,5.76,0,0,0-4.1-1.7h-8.5a1,1,0,0,1-.71-.29L43.88,9.56A8.47,8.47,0,0,0,37.9,7.06Z"/><path class="cls-6" d="M49.5,19.5a1,1,0,0,1-.71-1.71l2.5-2.5a1,1,0,0,1,1.41,1.41l-2.5,2.5A1,1,0,0,1,49.5,19.5Z"/><path class="cls-6" d="M39,30a1,1,0,0,1-.71-1.71l6.5-6.5a1,1,0,0,1,1.41,1.41l-6.5,6.5A1,1,0,0,1,39,30Z"/><path class="cls-6" d="M29,28a1,1,0,0,1-.71-1.71l4-4a1,1,0,0,1,1.41,1.41l-4,4A1,1,0,0,1,29,28Z"/><polygon class="cls-17" points="8.69 55.53 21 83 17 85 4.41 57.12 8.69 55.53"/><path class="cls-6" d="M17,86a1,1,0,0,1-.33-.06,1,1,0,0,1-.58-.53L3.5,57.53a1,1,0,0,1,.57-1.35L8.34,54.6a1,1,0,0,1,1.26.53L21.91,82.59a1,1,0,0,1-.47,1.3l-4,2A1,1,0,0,1,17,86ZM5.76,57.68l11.72,26,2.21-1.11L8.16,56.8Z"/><path class="cls-17" d="M35,94H3V92a2,2,0,0,1,2-2H33a2,2,0,0,1,2,2Z"/><path class="cls-6" d="M35,95H3a1,1,0,0,1-1-1V92a3,3,0,0,1,3-3H33a3,3,0,0,1,3,3v2A1,1,0,0,1,35,95ZM4,93H34V92a1,1,0,0,0-1-1H5a1,1,0,0,0-1,1Z"/><path class="cls-18" d="M28,90H8a8,8,0,0,1,8-8h6a8,8,0,0,1,8,8Z"/><path class="cls-5" d="M16,85h6a8,8,0,0,1,7.41,5H30a8,8,0,0,0-8-8H16a8,8,0,0,0-8,8h.59A8,8,0,0,1,16,85Z"/><path class="cls-6" d="M30,91H8a1,1,0,0,1-1-1,9,9,0,0,1,9-9h6a9,9,0,0,1,9,9A1,1,0,0,1,30,91ZM9.06,89H28.92A7,7,0,0,0,22,83H16A7,7,0,0,0,9.06,89Z"/><polygon class="cls-17" points="26.01 32.23 9.03 55.53 5.28 54.79 24.39 30.97 26.01 32.23"/><path class="cls-6" d="M9,56.53l-.19,0-3.75-.74a1,1,0,0,1-.59-1.61L23.61,30.34A1,1,0,0,1,25,30.18l1.62,1.26a1,1,0,0,1,.19,1.38l-17,23.31A1,1,0,0,1,9,56.53Zm-1.94-2.4,1.5.3,16-22-.08-.06Z"/><circle class="cls-18" cx="7" cy="57" r="4"/><path class="cls-6" d="M7,62a5,5,0,1,1,5-5A5,5,0,0,1,7,62Zm0-8a3,3,0,1,0,3,3A3,3,0,0,0,7,54Z"/><path class="cls-6" d="M22.87,28.25A1,1,0,0,1,22.2,28l-3.73-3.4a1,1,0,0,1,1.35-1.48l3.73,3.4a1,1,0,0,1-.67,1.74Z"/><path class="cls-6" d="M19,88a1,1,0,0,1-1-1V86a1,1,0,0,1,2,0v1A1,1,0,0,1,19,88Z"/><circle class="cls-18" cx="26" cy="30" r="4"/><path class="cls-6" d="M26,35a5,5,0,1,1,5-5A5,5,0,0,1,26,35Zm0-8a3,3,0,1,0,3,3A3,3,0,0,0,26,27Z"/><g class="cls-4"><path class="cls-6" d="M114,23h-6a1,1,0,0,1,0-2h6a1,1,0,0,1,0,2Z"/><path class="cls-6" d="M114,36h-6a1,1,0,0,1,0-2h6a1,1,0,0,1,0,2Z"/></g><g class="cls-4"><path class="cls-6" d="M120,23h-6a1,1,0,0,1,0-2h6a1,1,0,0,1,0,2Z"/><path class="cls-6" d="M120,36h-6a1,1,0,0,1,0-2h6a1,1,0,0,1,0,2Z"/></g><g class="cls-4"><path class="cls-6" d="M108,23h-6a1,1,0,0,1,0-2h6a1,1,0,0,1,0,2Z"/><path class="cls-6" d="M108,36h-6a1,1,0,0,1,0-2h6a1,1,0,0,1,0,2Z"/></g><g class="cls-4"><path class="cls-6" d="M97,62H91a1,1,0,1,1,0-2h6a1,1,0,0,1,0,2Z"/><path class="cls-6" d="M97,75H91a1,1,0,1,1,0-2h6a1,1,0,0,1,0,2Z"/></g><g class="cls-4"><path class="cls-6" d="M103,62H97a1,1,0,1,1,0-2h6a1,1,0,0,1,0,2Z"/><path class="cls-6" d="M103,75H97a1,1,0,1,1,0-2h6a1,1,0,0,1,0,2Z"/></g><g class="cls-4"><path class="cls-6" d="M91,62H85a1,1,0,1,1,0-2h6a1,1,0,0,1,0,2Z"/><path class="cls-6" d="M91,75H85a1,1,0,1,1,0-2h6a1,1,0,0,1,0,2Z"/></g></g><path class="cls-19" d="M64,115h44.82a1.1,1.1,0,0,0,1.18-1V40a1,1,0,0,0-1-1H64Z"/><g class="cls-1"><path class="cls-20" d="M108.82,111H64v4h44.82a1.1,1.1,0,0,0,1.18-1v-4A1.1,1.1,0,0,1,108.82,111Z"/></g><g class="cls-4"><path class="cls-5" d="M109,39a1,1,0,0,1,1,1v4a1,1,0,0,0-1-1H64V39Z"/></g><path class="cls-6" d="M108.82,116H64a1,1,0,0,1-1-1V39a1,1,0,0,1,1-1h45a2,2,0,0,1,2,2v74A2.1,2.1,0,0,1,108.82,116ZM65,114h43.82a.27.27,0,0,0,.2-.06L109,40H65Z"/><path class="cls-11" d="M19.18,115H64V39H19a1,1,0,0,0-1,1v74A1.1,1.1,0,0,0,19.18,115Z"/><rect class="cls-21" height="16" width="12" x="35" y="39"/><g class="cls-4"><path class="cls-5" d="M19,39a1,1,0,0,0-1,1v4a1,1,0,0,1,1-1H64V39Z"/></g><g class="cls-1"><path class="cls-20" d="M18,110v4a1.1,1.1,0,0,0,1.18,1H64v-4H19.18A1.1,1.1,0,0,1,18,110Z"/></g><path class="cls-6" d="M64,116H19.18A2.1,2.1,0,0,1,17,114V40a2,2,0,0,1,2-2H64a1,1,0,0,1,1,1v76A1,1,0,0,1,64,116Zm-45-2a1.15,1.15,0,0,0,.16,0H63V40H19v74Zm0,0h0Z"/><rect class="cls-5" height="14" width="30.13" x="25.87" y="90"/><path class="cls-6" d="M56,105H25.87a1,1,0,0,1-1-1V90a1,1,0,0,1,1-1H56a1,1,0,0,1,1,1v14A1,1,0,0,1,56,105Zm-29.13-2H55V91H26.87Z"/><rect class="cls-22" height="2" width="5" x="29" y="93"/><rect class="cls-22" height="2" width="3" x="29" y="100"/><rect class="cls-22" height="2" width="3" x="34" y="100"/><rect class="cls-22" height="2" width="3" x="39" y="100"/><rect class="cls-22" height="2" width="5" x="36" y="93"/><rect class="cls-22" height="2" width="7" x="43" y="93"/><rect class="cls-22" height="2" width="11" x="29" y="96"/><rect class="cls-22" height="2" width="10" x="42" y="96"/><g class="cls-4"><path class="cls-20" d="M71,87v5a6,6,0,0,0,5,5.91V103H73v2h8v-2H78V97.91A6,6,0,0,0,83,92V87Z"/><rect class="cls-20" height="15" width="3" x="89" y="90"/><polygon class="cls-20" points="90.5 87.06 86 92 95 92 90.5 87.06"/><rect class="cls-20" height="15" width="3" x="98" y="90"/><polygon class="cls-20" points="99.5 87.06 95 92 104 92 99.5 87.06"/></g><path class="cls-6" d="M47,56H35a1,1,0,0,1-1-1V39a1,1,0,0,1,1-1H47a1,1,0,0,1,1,1V55A1,1,0,0,1,47,56ZM36,54H46V40H36Z"/></svg>