<?xml version="1.0" ?><svg data-name="003" id="_003" viewBox="0 0 128 128" xmlns="http://www.w3.org/2000/svg"><defs><style>.cls-1{opacity:0.3;}.cls-2{fill:#c9c1f5;}.cls-3{fill:#eef6ff;}.cls-4{fill:#7595b5;}.cls-5{fill:#fff;}.cls-6{fill:#6d6daa;}.cls-7{fill:#ffc661;}.cls-8{fill:#fff27d;}.cls-9{fill:#89dbba;}.cls-10{fill:#48bc33;}.cls-11{fill:#b1f1a8;}.cls-12{fill:#97c1ff;}.cls-13{fill:#939fc6;}.cls-14{opacity:0.5;}.cls-15{fill:#f7a706;}.cls-16{fill:#7690a8;}.cls-17{fill:#ced8ee;}.cls-18{fill:#96d7ff;}.cls-19{fill:#1c64ba;}.cls-20{fill:#ff9797;}.cls-21{fill:#fff9e0;}.cls-22{fill:#d63c74;}</style></defs><title/><g class="cls-1"><path class="cls-2" d="M124.7,47.65a30,30,0,0,0-23.51-25,19.69,19.69,0,0,1-10.93-6.55A37,37,0,0,0,26,31.43,21,21,0,0,1,15.12,45.1C1,52.46-6.14,71.56,6.77,89.48a16.6,16.6,0,0,0,6.35,4.91,20.58,20.58,0,0,1,10,10.88,28.49,28.49,0,0,0,42.62,12.64A20.06,20.06,0,0,1,82.39,115a29,29,0,0,0,36-33.79A20.08,20.08,0,0,1,120.94,67,29.83,29.83,0,0,0,124.7,47.65Z"/><circle class="cls-3" cx="106" cy="97" r="18"/><g class="cls-1"><path class="cls-4" d="M106,111.14a18,18,0,0,0,17.89-16.07,18,18,0,1,1-35.79,0A18,18,0,0,0,106,111.14Z"/></g><path class="cls-5" d="M106,82.86A18,18,0,0,0,88.11,98.93a18,18,0,1,1,35.79,0A18,18,0,0,0,106,82.86Z"/><path class="cls-6" d="M106,116a19,19,0,1,1,19-19A19,19,0,0,1,106,116Zm0-36a17,17,0,1,0,17,17A17,17,0,0,0,106,80Z"/><path class="cls-6" d="M106,110.86a1,1,0,0,1-.92-1.38.94.94,0,0,1,.21-.33,1,1,0,0,1,.9-.27l.19,0,.18.09.15.13a.94.94,0,0,1,.21.33,1,1,0,0,1-.92,1.38Z"/><path class="cls-6" d="M93.14,98a1,1,0,0,1-.7-.29,1,1,0,0,1-.22-.33,1,1,0,0,1-.08-.38,1,1,0,0,1,.3-.71,1,1,0,0,1,1.41,0,1,1,0,0,1,.29.71,1,1,0,0,1-.07.38,1.2,1.2,0,0,1-.22.33.93.93,0,0,1-.33.21A1,1,0,0,1,93.14,98Z"/><path class="cls-6" d="M119.14,98a1,1,0,0,1-.7-.29,1,1,0,0,1,0-1.42,1,1,0,0,1,1.08-.21.6.6,0,0,1,.18.09l.15.12a1.06,1.06,0,0,1,.22.33,1,1,0,0,1,.07.38,1,1,0,0,1-.29.71A1,1,0,0,1,119.14,98Z"/><path class="cls-6" d="M106,85a1,1,0,0,1-1-1,1,1,0,0,1,.29-.71,1,1,0,0,1,.9-.27.62.62,0,0,1,.19.06.74.74,0,0,1,.18.09l.15.12A1.05,1.05,0,0,1,107,84a1,1,0,0,1-1,1Z"/><path class="cls-6" d="M106,100.57A3.57,3.57,0,1,1,109.57,97,3.58,3.58,0,0,1,106,100.57Zm0-5.14A1.57,1.57,0,1,0,107.57,97,1.57,1.57,0,0,0,106,95.43Z"/><path class="cls-6" d="M106,95.43a1,1,0,0,1-1-1V87.14a1,1,0,0,1,2,0v7.29A1,1,0,0,1,106,95.43Z"/><path class="cls-6" d="M115.86,98h-7.29a1,1,0,0,1,0-2h7.29a1,1,0,1,1,0,2Z"/><path class="cls-6" d="M111,126H19a1,1,0,1,1,0-2h92a1,1,0,0,1,0,2Z"/><path class="cls-6" d="M119,126h-5a1,1,0,0,1,0-2h5a1,1,0,0,1,0,2Z"/><path class="cls-6" d="M5,126a1,1,0,0,1-.7-.29,1,1,0,0,1-.22-.33A1,1,0,0,1,4,125a1,1,0,0,1,.29-.71l.15-.12a.56.56,0,0,1,.17-.09A.73.73,0,0,1,4.8,124a1,1,0,0,1,.58.06,1,1,0,0,1,.32.21A1,1,0,0,1,6,125a1,1,0,0,1-.08.38,1,1,0,0,1-.22.33A1,1,0,0,1,5,126Z"/><path class="cls-6" d="M16,126H8a1,1,0,0,1,0-2h8a1,1,0,1,1,0,2Z"/><circle class="cls-7" cx="38.01" cy="52" r="9"/><path class="cls-6" d="M38,62A10,10,0,1,1,48,52,10,10,0,0,1,38,62Zm0-18a8,8,0,1,0,8,8A8,8,0,0,0,38,44Z"/><circle class="cls-8" cx="38.01" cy="52" r="5"/><path class="cls-6" d="M38,58a6,6,0,1,1,6-6A6,6,0,0,1,38,58Zm0-10a4,4,0,1,0,4,4A4,4,0,0,0,38,48Z"/><rect class="cls-9" height="36" width="69" x="53" y="23"/><g class="cls-1"><rect class="cls-10" height="18" width="69" x="53" y="41"/></g><path class="cls-11" d="M117,49.58A4.42,4.42,0,0,0,112.57,54H62.42A4.42,4.42,0,0,0,58,49.58V32.42A4.42,4.42,0,0,0,62.42,28h50.15A4.42,4.42,0,0,0,117,32.42Z"/><path class="cls-6" d="M122,60H53a1,1,0,0,1-1-1V23a1,1,0,0,1,1-1h69a1,1,0,0,1,1,1V59A1,1,0,0,1,122,60ZM54,58h67V24H54Z"/><g class="cls-1"><path class="cls-10" d="M57.5,41v9A4.5,4.5,0,0,1,62,54.5h51a4.5,4.5,0,0,1,4.5-4.5V41Z"/></g><path class="cls-6" d="M112.57,55H62.42a1,1,0,0,1-1-1A3.42,3.42,0,0,0,58,50.58a1,1,0,0,1-1-1V32.42a1,1,0,0,1,1-1A3.42,3.42,0,0,0,61.42,28a1,1,0,0,1,1-1h50.15a1,1,0,0,1,1,1A3.42,3.42,0,0,0,117,31.42a1,1,0,0,1,1,1V49.58a1,1,0,0,1-1,1A3.42,3.42,0,0,0,113.57,54,1,1,0,0,1,112.57,55ZM63.33,53h48.34A5.43,5.43,0,0,1,116,48.68V33.33A5.43,5.43,0,0,1,111.67,29H63.33A5.44,5.44,0,0,1,59,33.33V48.68A5.44,5.44,0,0,1,63.33,53Z"/><ellipse class="cls-9" cx="87.5" cy="42.5" rx="9.6" ry="12"/><path class="cls-6" d="M87.5,55.5c-5.84,0-10.6-5.83-10.6-13s4.75-13,10.6-13,10.6,5.83,10.6,13S93.34,55.5,87.5,55.5Zm0-24c-4.74,0-8.6,4.93-8.6,11s3.86,11,8.6,11,8.6-4.93,8.6-11S92.24,31.5,87.5,31.5Z"/><circle class="cls-9" cx="68" cy="41" r="2.25"/><path class="cls-6" d="M68,44.25A3.25,3.25,0,1,1,71.25,41,3.25,3.25,0,0,1,68,44.25Zm0-4.5A1.25,1.25,0,1,0,69.25,41,1.25,1.25,0,0,0,68,39.75Z"/><circle class="cls-6" cx="57.5" cy="27.5" r="0.75"/><path class="cls-6" d="M57.5,29.25a1.75,1.75,0,1,1,1.75-1.75A1.75,1.75,0,0,1,57.5,29.25Zm0-2a.25.25,0,0,0-.25.25c0,.28.5.28.5,0A.25.25,0,0,0,57.5,27.25Z"/><circle class="cls-6" cx="57.5" cy="54.5" r="0.75"/><path class="cls-6" d="M57.5,56.25a1.75,1.75,0,1,1,1.75-1.75A1.75,1.75,0,0,1,57.5,56.25Zm0-2a.25.25,0,0,0-.25.25c0,.28.5.28.5,0A.25.25,0,0,0,57.5,54.25Z"/><circle class="cls-6" cx="117.5" cy="27.5" r="0.75"/><path class="cls-6" d="M117.5,29.25a1.75,1.75,0,1,1,1.75-1.75A1.75,1.75,0,0,1,117.5,29.25Zm0-2a.25.25,0,0,0-.25.25c0,.28.5.28.5,0A.25.25,0,0,0,117.5,27.25Z"/><circle class="cls-6" cx="117.5" cy="54.5" r="0.75"/><path class="cls-6" d="M117.5,56.25a1.75,1.75,0,1,1,1.75-1.75A1.75,1.75,0,0,1,117.5,56.25Zm0-2a.25.25,0,0,0-.25.25c0,.28.5.28.5,0A.25.25,0,0,0,117.5,54.25Z"/><path class="cls-11" d="M91.45,49.11,90.91,49a.65.65,0,0,1-.55-.67c0-.36,0-.74,0-1.14,0-.91,1.1-2,1.16-3.29a5.16,5.16,0,0,0,.57-2.09,1.08,1.08,0,0,0-.26-.8c.09-.48.17-1,.26-1.5.38-2.09-.35-3.59-2.19-4.24-.66-.23-3.41-.71-4.43-1.7-.37-.36-.12,1.66-.45,1.81a3.35,3.35,0,0,0-2.14,4.13c.09.52.17,1,.26,1.5a1.08,1.08,0,0,0-.26.8,5.16,5.16,0,0,0,.57,2.09c.06,1.28,1.16,2.32,1.16,3.29,0,.4,0,.78,0,1.14a.65.65,0,0,1-.55.67l-.61.12a11,11,0,0,0-3.27,1.2,9.17,9.17,0,0,0,6.29,4.13,8.47,8.47,0,0,0,1,.06h.09a8.47,8.47,0,0,0,.93-.06,9.18,9.18,0,0,0,6.3-4.15A10.41,10.41,0,0,0,91.45,49.11Z"/><path class="cls-6" d="M87.45,55.5h0a9.18,9.18,0,0,1-1.06-.07,10.13,10.13,0,0,1-7-4.56,1,1,0,0,1,.33-1.44,12.08,12.08,0,0,1,3.56-1.31l.35-.07c0-.28,0-.58,0-.89a3.08,3.08,0,0,0-.41-1,5.78,5.78,0,0,1-.74-2,6,6,0,0,1-.59-2.35,2.35,2.35,0,0,1,.21-1L82,40.33l-.11-.66a4.26,4.26,0,0,1,2.31-5c0-.12,0-.27,0-.37,0-.7.07-1.42.78-1.69a1.08,1.08,0,0,1,1.16.25,9.4,9.4,0,0,0,3.23,1.24c.37.09.67.17.84.23,2.27.81,3.3,2.76,2.84,5.36l-.12.68-.07.43a2.35,2.35,0,0,1,.21,1,6,6,0,0,1-.59,2.35,6,6,0,0,1-.75,2.08,3.39,3.39,0,0,0-.39,1c0,.3,0,.6,0,.89l.28.06a11.49,11.49,0,0,1,3.65,1.29,1,1,0,0,1,.33,1.43,10.13,10.13,0,0,1-7,4.58,9.45,9.45,0,0,1-1,.07Zm-5.7-4.83a7.82,7.82,0,0,0,4.87,2.78,7.55,7.55,0,0,0,.86.06,8.37,8.37,0,0,0,.89-.06,7.81,7.81,0,0,0,4.88-2.79,10.2,10.2,0,0,0-2-.56h0L90.69,50a1.65,1.65,0,0,1-1.33-1.69c0-.35,0-.71,0-1.09A4.16,4.16,0,0,1,90,45.31a4,4,0,0,0,.54-1.47,1,1,0,0,1,.1-.39,4.28,4.28,0,0,0,.48-1.66.57.57,0,0,0,0-.16.85.85,0,0,1-.23-.82c0-.25.09-.52.14-.79l.12-.71c.29-1.63-.21-2.65-1.54-3.12-.13,0-.37-.1-.66-.18a17.72,17.72,0,0,1-2.74-.87,1.34,1.34,0,0,1-.73,1.13,2.37,2.37,0,0,0-1.56,3L84,40c0,.28.09.55.14.81a1,1,0,0,1-.24.86s0,.05,0,.13a4.28,4.28,0,0,0,.47,1.66,1,1,0,0,1,.1.39A3.71,3.71,0,0,0,85,45.25a4.18,4.18,0,0,1,.63,1.92c0,.39,0,.75,0,1.1A1.66,1.66,0,0,1,84.27,50l-.59.12A10.75,10.75,0,0,0,81.75,50.67ZM83.9,48h0Zm7.18,0h0Z"/><path class="cls-9" d="M99.5,54h-6a12.71,12.71,0,0,0-12,0h-6v5h24Z"/><path class="cls-6" d="M99.5,60h-24a1,1,0,0,1-1-1V54a1,1,0,0,1,1-1h5.71a13.89,13.89,0,0,1,12.57,0H99.5a1,1,0,0,1,1,1v5A1,1,0,0,1,99.5,60Zm-23-2h22V55h-5a1,1,0,0,1-.55-.17,11.75,11.75,0,0,0-10.88,0,1,1,0,0,1-.55.17h-5Z"/><path class="cls-6" d="M72.49,47h-9a1,1,0,0,1,0-2h9a1,1,0,0,1,0,2Z"/><circle class="cls-9" cx="107" cy="41" r="2.25"/><path class="cls-6" d="M107,44.25A3.25,3.25,0,1,1,110.25,41,3.25,3.25,0,0,1,107,44.25Zm0-4.5A1.25,1.25,0,1,0,108.25,41,1.25,1.25,0,0,0,107,39.75Z"/><path class="cls-6" d="M111.5,47h-9a1,1,0,0,1,0-2h9a1,1,0,0,1,0,2Z"/><rect class="cls-12" height="33" rx="2" ry="2" width="48" x="4" y="72"/><path class="cls-6" d="M50,106H6a3,3,0,0,1-3-3V74a3,3,0,0,1,3-3H50a3,3,0,0,1,3,3v29A3,3,0,0,1,50,106ZM6,73a1,1,0,0,0-1,1v29a1,1,0,0,0,1,1H50a1,1,0,0,0,1-1V74a1,1,0,0,0-1-1Z"/><rect class="cls-5" height="6" width="36" x="10" y="91"/><path class="cls-6" d="M46,98H10a1,1,0,0,1-1-1V91a1,1,0,0,1,1-1H46a1,1,0,0,1,1,1v6A1,1,0,0,1,46,98ZM11,96H45V92H11Z"/><rect class="cls-13" height="7" width="48" x="4" y="78"/><path class="cls-6" d="M52,86H4a1,1,0,0,1-1-1V78a1,1,0,0,1,1-1H52a1,1,0,0,1,1,1v7A1,1,0,0,1,52,86ZM5,84H51V79H5Z"/><g class="cls-1"><path class="cls-6" d="M5,83a1,1,0,0,1-.71-.3A1,1,0,0,1,4,82a1,1,0,0,1,.08-.38,1.15,1.15,0,0,1,.21-.33,1,1,0,0,1,1.42,0,1,1,0,0,1,.21.33A1,1,0,0,1,6,82a1,1,0,0,1-.29.7,1,1,0,0,1-.33.22A1,1,0,0,1,5,83Z"/><path class="cls-6" d="M7,81a1,1,0,0,1-.71-.29,1.16,1.16,0,0,1-.21-.33.94.94,0,0,1,0-.76,1,1,0,0,1,.21-.33l.15-.12a.74.74,0,0,1,.18-.09A.65.65,0,0,1,6.8,79a1,1,0,0,1,1.12.6.94.94,0,0,1,0,.76,1.16,1.16,0,0,1-.21.33A1,1,0,0,1,7,81Z"/><path class="cls-6" d="M9,83a1,1,0,0,1-1-1,1,1,0,0,1,.29-.71l.15-.12a.74.74,0,0,1,.18-.09A.65.65,0,0,1,8.8,81a1,1,0,0,1,.58.06,1.16,1.16,0,0,1,.33.21,1,1,0,0,1,.21.33,1,1,0,0,1-.21,1.09,1.16,1.16,0,0,1-.33.21A1,1,0,0,1,9,83Z"/><path class="cls-6" d="M11,81a1,1,0,0,1-.71-.29,1.22,1.22,0,0,1-.22-.33A1,1,0,0,1,10,80a.83.83,0,0,1,.08-.38.9.9,0,0,1,.54-.54.91.91,0,0,1,.76,0,1.16,1.16,0,0,1,.33.21,1.15,1.15,0,0,1,.21.33.94.94,0,0,1,0,.76,1.16,1.16,0,0,1-.21.33A1,1,0,0,1,11,81Z"/><path class="cls-6" d="M13,83a1,1,0,0,1-.38-.08,1.15,1.15,0,0,1-.33-.21A1,1,0,0,1,12,82a1,1,0,0,1,.08-.38,1,1,0,0,1,.21-.33,1,1,0,0,1,1.09-.21,1.16,1.16,0,0,1,.33.21,1,1,0,0,1,.21.33A.84.84,0,0,1,14,82a1,1,0,0,1-1,1Z"/><path class="cls-6" d="M15,81a1,1,0,0,1-.71-.29A1,1,0,0,1,14,80a1,1,0,0,1,.08-.38,1,1,0,0,1,.21-.33,1,1,0,0,1,1.42,0,1,1,0,0,1,.21.33,1,1,0,0,1-.21,1.09,1.16,1.16,0,0,1-.33.21A1,1,0,0,1,15,81Z"/><path class="cls-6" d="M17,83a1,1,0,0,1-.71-.29,1.16,1.16,0,0,1-.21-.33.94.94,0,0,1,0-.76,1.15,1.15,0,0,1,.21-.33,1,1,0,0,1,1.09-.21,1.16,1.16,0,0,1,.33.21,1,1,0,0,1,.21.33A1,1,0,0,1,17,83Z"/><path class="cls-6" d="M19,81a1,1,0,0,1-.38-.08,1.15,1.15,0,0,1-.33-.21A1,1,0,0,1,18,80a.83.83,0,0,1,.08-.38,1,1,0,0,1,.21-.33l.15-.12a.74.74,0,0,1,.18-.09A.65.65,0,0,1,18.8,79a.87.87,0,0,1,.39,0,.62.62,0,0,1,.19.06.74.74,0,0,1,.18.09l.15.12a1,1,0,0,1,.21.33.94.94,0,0,1,0,.76.9.9,0,0,1-.54.54A1,1,0,0,1,19,81Z"/><path class="cls-6" d="M21,83a1,1,0,0,1-.38-.08,1.15,1.15,0,0,1-.33-.21A1,1,0,0,1,20,82a1,1,0,0,1,.29-.71,1,1,0,0,1,.9-.27.62.62,0,0,1,.19.06.74.74,0,0,1,.18.09l.15.12A1.05,1.05,0,0,1,22,82a1,1,0,0,1-1,1Z"/><path class="cls-6" d="M23,81a1,1,0,0,1-.71-.29,1.16,1.16,0,0,1-.21-.33.94.94,0,0,1,0-.76.9.9,0,0,1,.54-.54A1,1,0,0,1,23.2,79l.18.06a.74.74,0,0,1,.18.09l.15.12a1,1,0,0,1,.21.33.94.94,0,0,1,0,.76.9.9,0,0,1-.54.54A1,1,0,0,1,23,81Z"/><path class="cls-6" d="M25,83a1,1,0,0,1-.38-.08,1,1,0,0,1-.33-.21,1.16,1.16,0,0,1-.21-.33.94.94,0,0,1,0-.76,1.15,1.15,0,0,1,.21-.33,1,1,0,0,1,.33-.21.93.93,0,0,1,.57-.06.62.62,0,0,1,.19.06.74.74,0,0,1,.18.09l.15.12a1,1,0,0,1,.21.33,1,1,0,0,1-.21,1.09,1,1,0,0,1-.33.21A1,1,0,0,1,25,83Z"/><path class="cls-6" d="M27,81a1,1,0,0,1-.71-.29,1.5,1.5,0,0,1-.22-.33A1,1,0,0,1,26,80a1.26,1.26,0,0,1,0-.19.62.62,0,0,1,.06-.19.74.74,0,0,1,.09-.18,1.61,1.61,0,0,1,.12-.15,1,1,0,0,1,.33-.21.93.93,0,0,1,.57-.06.62.62,0,0,1,.19.06.74.74,0,0,1,.18.09l.15.12.12.15a.78.78,0,0,1,.09.18.59.59,0,0,1,.06.19A1.15,1.15,0,0,1,28,80a1,1,0,0,1-.08.38.9.9,0,0,1-.54.54A1,1,0,0,1,27,81Z"/><path class="cls-6" d="M29,83a.84.84,0,0,1-.38-.08,1.15,1.15,0,0,1-.33-.21,1.16,1.16,0,0,1-.21-.33A.83.83,0,0,1,28,82a1,1,0,0,1,.08-.38.93.93,0,0,1,.21-.33,1,1,0,0,1,1.42,0,.93.93,0,0,1,.21.33.94.94,0,0,1,0,.76.9.9,0,0,1-.54.54A.84.84,0,0,1,29,83Z"/><path class="cls-6" d="M31,81a1,1,0,0,1-.71-.29,1.16,1.16,0,0,1-.21-.33A1,1,0,0,1,30,80a1,1,0,0,1,.29-.71,1,1,0,0,1,1.42,0A1.05,1.05,0,0,1,32,80a1,1,0,0,1-.08.38.9.9,0,0,1-.54.54A1,1,0,0,1,31,81Z"/><path class="cls-6" d="M33,83a1,1,0,0,1-.71-.29,1.16,1.16,0,0,1-.21-.33.94.94,0,0,1,0-.76,1.15,1.15,0,0,1,.21-.33l.15-.12a.74.74,0,0,1,.18-.09A.65.65,0,0,1,32.8,81a1,1,0,0,1,.91.27,1.15,1.15,0,0,1,.21.33.94.94,0,0,1,0,.76.9.9,0,0,1-.54.54A1,1,0,0,1,33,83Z"/><path class="cls-6" d="M35,81a1,1,0,0,1-.38-.08,1.15,1.15,0,0,1-.33-.21A1,1,0,0,1,34,80a1,1,0,0,1,1.71-.71,1,1,0,0,1,.21.33A1,1,0,0,1,35,81Z"/><path class="cls-6" d="M37,83a1,1,0,0,1-.71-.29,1.5,1.5,0,0,1-.22-.33A1,1,0,0,1,36,82a1,1,0,1,1,2,0,.84.84,0,0,1-.08.38,1.16,1.16,0,0,1-.21.33A1,1,0,0,1,37,83Z"/><path class="cls-6" d="M39,81a1,1,0,0,1-.71-.29,1.22,1.22,0,0,1-.22-.33A1,1,0,0,1,38,80a1,1,0,0,1,.29-.71,1,1,0,0,1,.33-.21,1,1,0,0,1,.76,0,1.16,1.16,0,0,1,.33.21,1,1,0,0,1,.21.33A1,1,0,0,1,39,81Z"/><path class="cls-6" d="M41,83a1,1,0,0,1-.38-.08,1,1,0,0,1-.33-.21,1.16,1.16,0,0,1-.21-.33.94.94,0,0,1,0-.76,1.15,1.15,0,0,1,.21-.33,1,1,0,0,1,1.42,0,1.15,1.15,0,0,1,.21.33A1,1,0,0,1,41,83Z"/><path class="cls-6" d="M43,81a1,1,0,0,1-.71-.29,1.16,1.16,0,0,1-.21-.33A.83.83,0,0,1,42,80a1,1,0,0,1,.29-.71l.15-.12a.74.74,0,0,1,.18-.09A.65.65,0,0,1,42.8,79a1,1,0,0,1,.91.27A1.05,1.05,0,0,1,44,80a1,1,0,0,1-1,1Z"/><path class="cls-6" d="M45,83a1,1,0,0,1-.71-.29A1,1,0,0,1,44,82a1,1,0,0,1,.29-.71,1,1,0,0,1,1.09-.21,1.16,1.16,0,0,1,.33.21,1,1,0,0,1,.21.33A1,1,0,0,1,45,83Z"/><path class="cls-6" d="M47,81a1,1,0,0,1-.92-1.38,1.15,1.15,0,0,1,.21-.33,1,1,0,0,1,.9-.27.62.62,0,0,1,.19.06.55.55,0,0,1,.17.09,1,1,0,0,1,.16.12A1.05,1.05,0,0,1,48,80a1,1,0,0,1-1,1Z"/><path class="cls-6" d="M49,83a1,1,0,0,1-.92-1.38,1,1,0,0,1,.21-.33,1,1,0,0,1,1.42,0,1.15,1.15,0,0,1,.21.33A1,1,0,0,1,49,83Z"/><path class="cls-6" d="M51,81a1,1,0,0,1-.71-.29,1.16,1.16,0,0,1-.21-.33A1,1,0,0,1,50,80a1,1,0,0,1,.29-.71,1,1,0,0,1,.33-.21A1,1,0,0,1,51.2,79l.18.06a.74.74,0,0,1,.18.09l.15.12A1.05,1.05,0,0,1,52,80a1,1,0,0,1-1,1Z"/><path class="cls-6" d="M7,85a1,1,0,0,1-.71-.29,1.16,1.16,0,0,1-.21-.33.94.94,0,0,1,0-.76,1,1,0,0,1,.21-.33l.15-.12a.74.74,0,0,1,.18-.09A.65.65,0,0,1,6.8,83a1,1,0,0,1,1.12.6.94.94,0,0,1,0,.76,1.16,1.16,0,0,1-.21.33A1,1,0,0,1,7,85Z"/><path class="cls-6" d="M11,85a1,1,0,0,1-.38-.08,1.15,1.15,0,0,1-.33-.21A1,1,0,0,1,10,84a.83.83,0,0,1,.08-.38.9.9,0,0,1,.54-.54,1,1,0,0,1,.76,0,1.16,1.16,0,0,1,.33.21,1,1,0,0,1,.21.33A1,1,0,0,1,11,85Z"/><path class="cls-6" d="M15,85a1,1,0,0,1-1-1,1.39,1.39,0,0,1,0-.2.65.65,0,0,1,.06-.18.74.74,0,0,1,.09-.18,1.61,1.61,0,0,1,.12-.15l.15-.12a.74.74,0,0,1,.18-.09.62.62,0,0,1,.19-.06.88.88,0,0,1,.39,0l.18.06a.74.74,0,0,1,.18.09l.15.12A1,1,0,0,1,16,84a1,1,0,0,1-.08.38,1.16,1.16,0,0,1-.21.33A1,1,0,0,1,15,85Z"/><path class="cls-6" d="M19,85a1,1,0,0,1-.71-.29,1.22,1.22,0,0,1-.22-.33A1,1,0,0,1,18,84a.83.83,0,0,1,.08-.38,1,1,0,0,1,.21-.33l.15-.12a.74.74,0,0,1,.18-.09A.65.65,0,0,1,18.8,83a1,1,0,0,1,.91.27,1,1,0,0,1,.21.33.94.94,0,0,1,0,.76.9.9,0,0,1-.54.54A1,1,0,0,1,19,85Z"/><path class="cls-6" d="M23,85a1,1,0,0,1-.38-.08,1,1,0,0,1-.33-.21A1,1,0,0,1,22,84a1,1,0,0,1,.08-.38.9.9,0,0,1,.54-.54A1,1,0,0,1,23.2,83l.18.06a.74.74,0,0,1,.18.09l.15.12a1,1,0,0,1,.21.33,1,1,0,0,1-.21,1.09,1.16,1.16,0,0,1-.33.21A1,1,0,0,1,23,85Z"/><path class="cls-6" d="M27,85a1,1,0,0,1-1-1,1,1,0,0,1,.29-.71,1,1,0,0,1,.33-.21.93.93,0,0,1,.57-.06.62.62,0,0,1,.19.06.74.74,0,0,1,.18.09l.15.12A1.05,1.05,0,0,1,28,84a1,1,0,0,1-1,1Z"/><path class="cls-6" d="M31,85a1,1,0,0,1-.92-1.38,1,1,0,0,1,.21-.33l.15-.12a.74.74,0,0,1,.18-.09A.65.65,0,0,1,30.8,83a1,1,0,0,1,1.12.6A1,1,0,0,1,31,85Z"/><path class="cls-6" d="M35,85a1,1,0,0,1-1-1,1,1,0,0,1,.29-.71,1,1,0,0,1,1.09-.21,1.16,1.16,0,0,1,.33.21,1,1,0,0,1,.21.33A1,1,0,0,1,35,85Z"/><path class="cls-6" d="M39,85a1,1,0,0,1-.71-.29,1.22,1.22,0,0,1-.22-.33A1,1,0,0,1,38,84a1,1,0,0,1,.29-.71,1,1,0,0,1,.33-.21,1,1,0,0,1,.76,0,1.16,1.16,0,0,1,.33.21,1,1,0,0,1,.21.33A1,1,0,0,1,39,85Z"/><path class="cls-6" d="M43,85a1,1,0,0,1-.71-.29,1.16,1.16,0,0,1-.21-.33A.83.83,0,0,1,42,84a1,1,0,0,1,.29-.71l.15-.12a.74.74,0,0,1,.18-.09A.65.65,0,0,1,42.8,83a1,1,0,0,1,.91.27A1.05,1.05,0,0,1,44,84a1,1,0,0,1-.29.71,1.16,1.16,0,0,1-.33.21A1,1,0,0,1,43,85Z"/><path class="cls-6" d="M47,85a1,1,0,0,1-1-1,1,1,0,0,1,.29-.71,1.06,1.06,0,0,1,.9-.27.62.62,0,0,1,.19.06.55.55,0,0,1,.17.09,1,1,0,0,1,.16.12A1.05,1.05,0,0,1,48,84a1,1,0,0,1-1,1Z"/><path class="cls-6" d="M51,85a1,1,0,0,1-.71-.29,1.16,1.16,0,0,1-.21-.33.94.94,0,0,1,0-.76.9.9,0,0,1,.54-.54A1,1,0,0,1,51.2,83l.18.06a.74.74,0,0,1,.18.09l.15.12a1.15,1.15,0,0,1,.21.33A.84.84,0,0,1,52,84a1,1,0,0,1-1,1Z"/></g><circle class="cls-7" cx="58.01" cy="24" r="9"/><path class="cls-6" d="M58,34A10,10,0,1,1,68,24,10,10,0,0,1,58,34Zm0-18a8,8,0,1,0,8,8A8,8,0,0,0,58,16Z"/><circle class="cls-8" cx="58.01" cy="24" r="5"/><path class="cls-6" d="M58,30a6,6,0,1,1,6-6A6,6,0,0,1,58,30Zm0-10a4,4,0,1,0,4,4A4,4,0,0,0,58,20Z"/><circle class="cls-7" cx="70.01" cy="16" r="9"/><path class="cls-6" d="M70,26A10,10,0,1,1,80,16,10,10,0,0,1,70,26ZM70,8a8,8,0,1,0,8,8A8,8,0,0,0,70,8Z"/><circle class="cls-8" cx="70.01" cy="16" r="5"/><path class="cls-6" d="M70,22a6,6,0,1,1,6-6A6,6,0,0,1,70,22Zm0-10a4,4,0,1,0,4,4A4,4,0,0,0,70,12Z"/><circle class="cls-7" cx="116.01" cy="26" r="9"/><path class="cls-6" d="M116,36a10,10,0,1,1,10-10A10,10,0,0,1,116,36Zm0-18a8,8,0,1,0,8,8A8,8,0,0,0,116,18Z"/><circle class="cls-8" cx="116.01" cy="26" r="5"/><path class="cls-6" d="M116,32a6,6,0,1,1,6-6A6,6,0,0,1,116,32Zm0-10a4,4,0,1,0,4,4A4,4,0,0,0,116,22Z"/><path class="cls-8" d="M24.79,13.89l-19,19a2.79,2.79,0,0,0,0,3.95L17.23,48.22a2.79,2.79,0,0,0,3.95,0l19-19V13.89Zm8.38,9.78A2.79,2.79,0,1,1,36,20.87,2.79,2.79,0,0,1,33.17,23.66Z"/><path class="cls-5" d="M24.79,13.89l-19,19a2.79,2.79,0,0,0-.38,3.47,2.8,2.8,0,0,1,.38-.47l20-20H40.15v-2Z"/><g class="cls-14"><path class="cls-15" d="M17.23,45.22,5.82,33.81a2.77,2.77,0,0,1-.63-1,2.79,2.79,0,0,0,.63,3L17.23,47.22a2.79,2.79,0,0,0,3.95,0l19-19v-2l-19,19A2.79,2.79,0,0,1,17.23,45.22Z"/></g><path class="cls-6" d="M19.2,50a3.78,3.78,0,0,1-2.68-1.11L5.11,37.52a3.79,3.79,0,0,1,0-5.36l19-19a1,1,0,0,1,.71-.29H40.15a1,1,0,0,1,1,1V29.25a1,1,0,0,1-.29.71l-19,19A3.78,3.78,0,0,1,19.2,50Zm6-35.15L6.52,33.57a1.79,1.79,0,0,0,0,2.54L17.94,47.51a1.8,1.8,0,0,0,2.54,0L39.15,28.83V14.89Zm8,9.77A3.79,3.79,0,1,1,37,20.87,3.8,3.8,0,0,1,33.17,24.66Zm0-5.59A1.79,1.79,0,1,0,35,20.87,1.8,1.8,0,0,0,33.17,19.08Z"/><path class="cls-6" d="M40.15,21.87a1,1,0,0,1,0-2,2.21,2.21,0,0,0,1.3-.42,1,1,0,0,1,1.14,1.64A4.2,4.2,0,0,1,40.15,21.87Zm-7,0h0a1,1,0,0,1-1-1c0-.71,0-1.41.09-2.09a1,1,0,0,1,2,.18c-.06.61-.08,1.25-.09,1.91A1,1,0,0,1,33.17,21.83Zm10.68-2.89A1,1,0,0,1,43,17.5a12.11,12.11,0,0,0,.67-1.72,1,1,0,1,1,1.91.59,14.11,14.11,0,0,1-.78,2A1,1,0,0,1,43.85,18.94ZM33.77,16.88a1,1,0,0,1-1-1.25,15.34,15.34,0,0,1,.68-2,1,1,0,1,1,1.85.77,13.4,13.4,0,0,0-.59,1.76A1,1,0,0,1,33.77,16.88Zm11.17-2.75a1,1,0,0,1-1-.84,3.74,3.74,0,0,0-.57-1.46,1,1,0,1,1,1.68-1.09A5.71,5.71,0,0,1,45.93,13a1,1,0,0,1-.83,1.14Zm-9.07-1.75a1,1,0,0,1-.8-1.6,12,12,0,0,1,.81-1,6.19,6.19,0,0,1,.74-.68,1,1,0,0,1,1.22,1.58,4.09,4.09,0,0,0-.5.46,9.54,9.54,0,0,0-.67.81A1,1,0,0,1,35.87,12.38Zm6.09-2a1,1,0,0,1-.4-.08A3.93,3.93,0,0,0,40,10a1,1,0,0,1,0-2,5.86,5.86,0,0,1,2.34.49,1,1,0,0,1-.4,1.92Z"/><path class="cls-6" d="M22.27,35.38a3.6,3.6,0,0,1-2.57-6.11,1,1,0,0,1,1.41,1.41,1.59,1.59,0,0,0,2.25,2.25c.86-.86-.05-2.56-.06-2.57-.63-1.12-1.27-3.42.27-5a3.59,3.59,0,0,1,5.08,5.08,1,1,0,1,1-1.41-1.41A1.59,1.59,0,0,0,25,26.8c-.86.86.05,2.56.06,2.58.63,1.12,1.27,3.42-.27,5A3.53,3.53,0,0,1,22.27,35.38Z"/><path class="cls-6" d="M27.92,27.12a1,1,0,0,1-.71-1.71l1.06-1.06a1,1,0,0,1,1.41,1.41l-1.06,1.06A1,1,0,0,1,27.92,27.12Z"/><path class="cls-6" d="M19.2,35.83a1,1,0,0,1-.71-1.71l1.22-1.22a1,1,0,0,1,1.41,1.42l-1.22,1.22A1,1,0,0,1,19.2,35.83Z"/><path class="cls-6" d="M18.51,40a1,1,0,0,1-.71-.29l-3.49-3.49a1,1,0,0,1,1.41-1.41l3.49,3.49A1,1,0,0,1,18.51,40Z"/><path class="cls-6" d="M18.51,44.21a1,1,0,0,1-.71-.29l-7.68-7.68a1,1,0,0,1,1.41-1.41l7.68,7.68a1,1,0,0,1-.71,1.71Z"/></g><rect class="cls-3" height="3" width="91" x="19" y="57.03"/><path class="cls-6" d="M110,61H19a1,1,0,0,1-1-1V57a1,1,0,0,1,1-1h91a1,1,0,0,1,1,1v3A1,1,0,0,1,110,61ZM20,59h89V58H20Z"/><rect class="cls-3" height="12" width="87" x="21" y="60.03"/><g class="cls-1"><rect class="cls-16" height="3" width="87" x="21" y="60.03"/></g><path class="cls-6" d="M108,73H21a1,1,0,0,1-1-1V60a1,1,0,0,1,1-1h87a1,1,0,0,1,1,1V72A1,1,0,0,1,108,73ZM22,71h85V61H22Z"/><polygon class="cls-17" points="105 72.03 105 68 100 66 65 52 29 66 24 68 24.05 72.03 105 72.03"/><rect class="cls-3" height="37" width="81" x="24" y="84.03"/><path class="cls-6" d="M105,122H24a1,1,0,0,1-1-1v-5a1,1,0,0,1,1-1h81a1,1,0,0,1,1,1v5A1,1,0,0,1,105,122Zm-80-2h79v-3H25Z"/><g class="cls-1"><rect class="cls-16" height="4" width="81" x="24" y="84.03"/></g><g class="cls-1"><polygon class="cls-16" points="65 54 28 69 28 73 65 58 101 73 101 69 65 54"/></g><rect class="cls-3" height="3" width="96" x="17" y="72.03"/><path class="cls-6" d="M113,76H17a1,1,0,0,1-1-1V72a1,1,0,0,1,1-1h96a1,1,0,0,1,1,1v3A1,1,0,0,1,113,76ZM18,74h94V73H18Z"/><polygon class="cls-3" points="105 67.67 65 51 24 67.62 24 71.62 65 55 105 71.67 105 67.67"/><path class="cls-6" d="M105,72.67a1,1,0,0,1-.38-.08L65,56.08,24.38,72.55A1,1,0,0,1,23,71.62v-4a1,1,0,0,1,.62-.93l41-16.62a1,1,0,0,1,.76,0l40,16.67a1,1,0,0,1,.62.92v4a1,1,0,0,1-1,1ZM65,54a1,1,0,0,1,.38.08L104,70.17V68.33L65,52.08,25,68.3v1.84L64.62,54.07A1,1,0,0,1,65,54Z"/><rect class="cls-3" height="9" width="85" x="22" y="75.03"/><path class="cls-6" d="M107,85H22a1,1,0,0,1-1-1V75a1,1,0,0,1,1-1h85a1,1,0,0,1,1,1v9A1,1,0,0,1,107,85ZM23,83h83V76H23Z"/><polygon class="cls-17" points="103 75.03 27 75.03 19 75.03 19 76.03 19 78.03 19 80.03 23 80.03 23 78.03 27 78.03 27 80.03 31 80.03 31 78.03 35 78.03 35 80.03 39 80.03 39 78.03 43 78.03 43 80.03 47 80.03 47 78.03 51 78.03 51 80.03 55 80.03 55 78.03 59 78.03 59 80.03 63 80.03 63 78.03 67 78.03 67 80.03 71 80.03 71 78.03 75 78.03 75 80.03 79 80.03 79 78.03 83 78.03 83 80.03 87 80.03 87 78.03 91 78.03 91 80.03 95 80.03 95 78.03 99 78.03 99 80.03 103 80.03 103 78.03 107 78.03 107 80.03 111 80.03 111 78.03 111 76.03 111 75.03 103 75.03"/><path class="cls-6" d="M111,81h-4a1,1,0,0,1-1-1V79h-2v1a1,1,0,0,1-1,1H99a1,1,0,0,1-1-1V79H96v1a1,1,0,0,1-1,1H91a1,1,0,0,1-1-1V79H88v1a1,1,0,0,1-1,1H83a1,1,0,0,1-1-1V79H80v1a1,1,0,0,1-1,1H75a1,1,0,0,1-1-1V79H72v1a1,1,0,0,1-1,1H67a1,1,0,0,1-1-1V79H64v1a1,1,0,0,1-1,1H59a1,1,0,0,1-1-1V79H56v1a1,1,0,0,1-1,1H51a1,1,0,0,1-1-1V79H48v1a1,1,0,0,1-1,1H43a1,1,0,0,1-1-1V79H40v1a1,1,0,0,1-1,1H35a1,1,0,0,1-1-1V79H32v1a1,1,0,0,1-1,1H27a1,1,0,0,1-1-1V79H24v1a1,1,0,0,1-1,1H19a1,1,0,0,1-1-1V75a1,1,0,0,1,1-1h92a1,1,0,0,1,1,1v5A1,1,0,0,1,111,81Zm-3-2h2V76H20v3h2V78a1,1,0,0,1,1-1h4a1,1,0,0,1,1,1v1h2V78a1,1,0,0,1,1-1h4a1,1,0,0,1,1,1v1h2V78a1,1,0,0,1,1-1h4a1,1,0,0,1,1,1v1h2V78a1,1,0,0,1,1-1h4a1,1,0,0,1,1,1v1h2V78a1,1,0,0,1,1-1h4a1,1,0,0,1,1,1v1h2V78a1,1,0,0,1,1-1h4a1,1,0,0,1,1,1v1h2V78a1,1,0,0,1,1-1h4a1,1,0,0,1,1,1v1h2V78a1,1,0,0,1,1-1h4a1,1,0,0,1,1,1v1h2V78a1,1,0,0,1,1-1h4a1,1,0,0,1,1,1v1h2V78a1,1,0,0,1,1-1h4a1,1,0,0,1,1,1v1h2V78a1,1,0,0,1,1-1h4a1,1,0,0,1,1,1Z"/><rect class="cls-17" height="4" width="100" x="15" y="121.03"/><path class="cls-6" d="M115,126H15a1,1,0,0,1-1-1v-4a1,1,0,0,1,1-1H115a1,1,0,0,1,1,1v4A1,1,0,0,1,115,126Zm-99-2h98v-2H16Z"/><g class="cls-14"><path class="cls-6" d="M35,126a1,1,0,0,1-1-1v-4a1,1,0,0,1,2,0v4A1,1,0,0,1,35,126Z"/><path class="cls-6" d="M55,126a1,1,0,0,1-1-1v-4a1,1,0,0,1,2,0v4A1,1,0,0,1,55,126Z"/><path class="cls-6" d="M75,126a1,1,0,0,1-1-1v-4a1,1,0,0,1,2,0v4A1,1,0,0,1,75,126Z"/><path class="cls-6" d="M95,126a1,1,0,0,1-1-1v-4a1,1,0,0,1,2,0v4A1,1,0,0,1,95,126Z"/></g><path class="cls-3" d="M22,87V84H33v3a1,1,0,0,1-1,1H23A1,1,0,0,1,22,87Z"/><path class="cls-6" d="M32,89H23a2,2,0,0,1-2-2V84a1,1,0,0,1,1-1H33a1,1,0,0,1,1,1v3A2,2,0,0,1,32,89Zm-9-4v2h9V85Z"/><path class="cls-3" d="M22,121v-3a1,1,0,0,1,1-1h9a1,1,0,0,1,1,1v3Z"/><path class="cls-6" d="M33,122H22a1,1,0,0,1-1-1v-3a2,2,0,0,1,2-2h9a2,2,0,0,1,2,2v3A1,1,0,0,1,33,122Zm-10-2h9v-2H23Z"/><rect class="cls-3" height="29" width="9" x="23" y="88.03"/><path class="cls-6" d="M32,118H23a1,1,0,0,1-1-1V88a1,1,0,0,1,1-1h9a1,1,0,0,1,1,1v29A1,1,0,0,1,32,118Zm-8-2h7V89H24Z"/><g class="cls-14"><path class="cls-6" d="M26,115a1,1,0,0,1-1-1V91a1,1,0,0,1,2,0v23A1,1,0,0,1,26,115Z"/><path class="cls-6" d="M29,115a1,1,0,0,1-1-1V91a1,1,0,0,1,2,0v23A1,1,0,0,1,29,115Z"/></g><path class="cls-3" d="M96,87V84h11v3a1,1,0,0,1-1,1H97A1,1,0,0,1,96,87Z"/><path class="cls-6" d="M106,89H97a2,2,0,0,1-2-2V84a1,1,0,0,1,1-1h11a1,1,0,0,1,1,1v3A2,2,0,0,1,106,89Zm-9-4v2h9V85Z"/><path class="cls-3" d="M96,121v-3a1,1,0,0,1,1-1h9a1,1,0,0,1,1,1v3Z"/><path class="cls-6" d="M107,122H96a1,1,0,0,1-1-1v-3a2,2,0,0,1,2-2h9a2,2,0,0,1,2,2v3A1,1,0,0,1,107,122Zm-10-2h9v-2H97Z"/><rect class="cls-3" height="29" width="9" x="97" y="88.03"/><path class="cls-6" d="M106,118H97a1,1,0,0,1-1-1V88a1,1,0,0,1,1-1h9a1,1,0,0,1,1,1v29A1,1,0,0,1,106,118Zm-8-2h7V89H98Z"/><g class="cls-14"><path class="cls-6" d="M100,115a1,1,0,0,1-1-1V91a1,1,0,0,1,2,0v23A1,1,0,0,1,100,115Z"/><path class="cls-6" d="M103,115a1,1,0,0,1-1-1V91a1,1,0,0,1,2,0v23A1,1,0,0,1,103,115Z"/></g><rect class="cls-18" height="18" width="16" x="57" y="94"/><g class="cls-1"><polygon class="cls-5" points="57 102.67 71.63 94 57 94 57 102.67"/></g><g class="cls-1"><polygon class="cls-5" points="57 108.67 73 99.19 73 96.19 57 105.67 57 108.67"/></g><g class="cls-1"><rect class="cls-19" height="3" width="16" x="57" y="94"/></g><path class="cls-6" d="M73,113H57a1,1,0,0,1-1-1V94a1,1,0,0,1,1-1H73a1,1,0,0,1,1,1v18A1,1,0,0,1,73,113Zm-15-2H72V95H58Z"/><path class="cls-6" d="M65,113a1,1,0,0,1-1-1V94a1,1,0,0,1,2,0v18A1,1,0,0,1,65,113Z"/><rect class="cls-17" height="4" width="16" x="57" y="90"/><path class="cls-6" d="M73,95H57a1,1,0,0,1-1-1V90a1,1,0,0,1,1-1H73a1,1,0,0,1,1,1v4A1,1,0,0,1,73,95ZM58,93H72V91H58Z"/><rect class="cls-17" height="3" width="16" x="57" y="112"/><path class="cls-6" d="M73,116H57a1,1,0,0,1-1-1v-3a1,1,0,0,1,1-1H73a1,1,0,0,1,1,1v3A1,1,0,0,1,73,116Zm-15-2H72v-1H58Z"/><rect class="cls-17" height="3" width="16" x="57" y="115"/><path class="cls-6" d="M73,119H57a1,1,0,0,1-1-1v-3a1,1,0,0,1,1-1H73a1,1,0,0,1,1,1v3A1,1,0,0,1,73,119Zm-15-2H72v-1H58Z"/><rect class="cls-17" height="3" width="16" x="57" y="118"/><path class="cls-6" d="M73,122H57a1,1,0,0,1-1-1v-3a1,1,0,0,1,1-1H73a1,1,0,0,1,1,1v3A1,1,0,0,1,73,122Zm-15-2H72v-1H58Z"/><rect class="cls-18" height="23" width="14" x="38" y="90"/><g class="cls-1"><polygon class="cls-5" points="38 100.67 52 92.37 52 90 38 90 38 100.67"/></g><g class="cls-1"><polygon class="cls-5" points="38 106.67 52 98.37 52 95.37 38 103.67 38 106.67"/></g><g class="cls-1"><rect class="cls-19" height="3" width="14" x="38" y="90"/></g><path class="cls-6" d="M52,114H38a1,1,0,0,1-1-1V90a1,1,0,0,1,1-1H52a1,1,0,0,1,1,1v23A1,1,0,0,1,52,114Zm-13-2H51V91H39Z"/><path class="cls-6" d="M45,114a1,1,0,0,1-1-1V90a1,1,0,0,1,2,0v23A1,1,0,0,1,45,114Z"/><path class="cls-6" d="M38,99a1,1,0,0,1,0-2H52a1,1,0,0,1,0,2Z"/><path class="cls-6" d="M38,107a1,1,0,0,1,0-2H52a1,1,0,0,1,0,2Z"/><rect class="cls-17" height="3" width="16" x="37" y="113"/><path class="cls-6" d="M53,117H37a1,1,0,0,1-1-1v-3a1,1,0,0,1,1-1H53a1,1,0,0,1,1,1v3A1,1,0,0,1,53,117Zm-15-2H52v-1H38Z"/><rect class="cls-18" height="23" width="14" x="78" y="90"/><g class="cls-1"><polygon class="cls-5" points="78 100.67 92 92.37 92 90 78 90 78 100.67"/></g><g class="cls-1"><polygon class="cls-5" points="78 106.67 92 98.37 92 95.37 78 103.67 78 106.67"/></g><g class="cls-1"><rect class="cls-19" height="3" width="14" x="78" y="90"/></g><path class="cls-6" d="M92,114H78a1,1,0,0,1-1-1V90a1,1,0,0,1,1-1H92a1,1,0,0,1,1,1v23A1,1,0,0,1,92,114Zm-13-2H91V91H79Z"/><path class="cls-6" d="M85,114a1,1,0,0,1-1-1V90a1,1,0,0,1,2,0v23A1,1,0,0,1,85,114Z"/><path class="cls-6" d="M78,99a1,1,0,0,1,0-2H92a1,1,0,0,1,0,2Z"/><path class="cls-6" d="M78,107a1,1,0,0,1,0-2H92a1,1,0,0,1,0,2Z"/><rect class="cls-17" height="3" width="16" x="77" y="113"/><path class="cls-6" d="M93,117H77a1,1,0,0,1-1-1v-3a1,1,0,0,1,1-1H93a1,1,0,0,1,1,1v3A1,1,0,0,1,93,117Zm-15-2H92v-1H78Z"/><circle class="cls-18" cx="65" cy="64" r="5"/><g class="cls-1"><path class="cls-5" d="M65,59a5,5,0,0,0-5,5,4.94,4.94,0,0,0,.56,2.26l8.57-5.08A5,5,0,0,0,65,59Z"/></g><g class="cls-1"><path class="cls-19" d="M65,62a5,5,0,0,1,4.75,3.5A5,5,0,0,0,70,64a5,5,0,0,0-10,0,5,5,0,0,0,.25,1.5A5,5,0,0,1,65,62Z"/></g><path class="cls-6" d="M65,70a6,6,0,1,1,6-6A6,6,0,0,1,65,70Zm0-10a4,4,0,1,0,4,4A4,4,0,0,0,65,60Z"/><path class="cls-6" d="M65,52a1,1,0,0,1-1-1V35a1,1,0,0,1,2,0V51A1,1,0,0,1,65,52Z"/><polygon class="cls-20" points="81 39 73 39 73 43 73 43 73 47 81 47 81 39"/><g class="cls-1"><rect class="cls-21" height="3" width="8" x="73" y="39"/></g><g class="cls-1"><rect class="cls-22" height="8" width="3" x="73" y="39"/></g><path class="cls-6" d="M81,48H73a1,1,0,0,1-1-1V39a1,1,0,0,1,1-1h8a1,1,0,0,1,1,1v8A1,1,0,0,1,81,48Zm-7-2h6V40H74Z"/><rect class="cls-20" height="8" width="8" x="65" y="37"/><g class="cls-1"><rect class="cls-21" height="3" width="8" x="65" y="37"/></g><path class="cls-6" d="M73,46H65a1,1,0,0,1-1-1V37a1,1,0,0,1,1-1h8a1,1,0,0,1,1,1v8A1,1,0,0,1,73,46Zm-7-2h6V38H66Z"/></svg>