<?xml version="1.0" ?><svg data-name="003" id="_003" viewBox="0 0 128 128" xmlns="http://www.w3.org/2000/svg"><defs><style>.cls-1{opacity:0.3;}.cls-2{fill:#c9c1f5;}.cls-3{fill:#ced8ee;}.cls-4{fill:#6d6daa;}.cls-5{fill:#2b5c8e;}.cls-6{fill:#e0f3ff;}.cls-7{fill:#c7e9ff;}.cls-8{fill:#1c64ba;}.cls-9{fill:#eef6ff;}.cls-10{fill:#5cbeff;}.cls-11{fill:#96d7ff;}.cls-12{fill:#f5fbff;}.cls-13{fill:#fff;}.cls-14{fill:#7690a8;}.cls-15{fill:#ff9797;}.cls-16{fill:#ffc661;}.cls-17{fill:#b1f1a8;}.cls-18{fill:#48bc33;}.cls-19{opacity:0.5;}</style></defs><title/><g class="cls-1"><path class="cls-2" d="M92,102.27A39,39,0,1,0,80.45,25.14a20.62,20.62,0,0,1-20.6-9.66A30.75,30.75,0,1,0,12.07,53.56C18.17,59.62,19.73,69,15.2,76.3a33.75,33.75,0,0,0,55.21,38.64A33.63,33.63,0,0,1,92,102.27Z"/><polygon class="cls-3" points="43 95 25 95 25 93 25 81 43 81 43 93 43 95"/><path class="cls-4" d="M43,96H25a1,1,0,0,1-1-1V81a1,1,0,0,1,1-1H43a1,1,0,0,1,1,1V95A1,1,0,0,1,43,96ZM26,94H42V82H26Z"/><g class="cls-1"><rect class="cls-5" height="4" width="16" x="26" y="81"/></g><path class="cls-4" d="M46,96H22a1,1,0,0,1,0-2H46a1,1,0,1,1,0,2Z"/><path class="cls-6" d="M3,25H81a2,2,0,0,1,2,2V71a0,0,0,0,1,0,0H1a0,0,0,0,1,0,0V27A2,2,0,0,1,3,25Z"/><polygon class="cls-7" points="82 30 2 66 2 26 82 26 82 30"/><g class="cls-1"><path class="cls-8" d="M81,25H3a2,2,0,0,0-2,2v4a2,2,0,0,1,2-2H81a2,2,0,0,1,2,2V27A2,2,0,0,0,81,25Z"/></g><path class="cls-4" d="M83,72H1a1,1,0,0,1-1-1V27a3,3,0,0,1,3-3H81a3,3,0,0,1,3,3V71A1,1,0,0,1,83,72ZM2,70H82V27a1,1,0,0,0-1-1H3a1,1,0,0,0-1,1Z"/><polygon class="cls-7" points="82 36 2 72 2 69 82 33 82 36"/><path class="cls-9" d="M1,71H83a0,0,0,0,1,0,0v6a4,4,0,0,1-4,4H5a4,4,0,0,1-4-4V71A0,0,0,0,1,1,71Z"/><path class="cls-4" d="M79,82H5a5,5,0,0,1-5-5V71a1,1,0,0,1,1-1H83a1,1,0,0,1,1,1v6A5,5,0,0,1,79,82ZM2,72v5a3,3,0,0,0,3,3H79a3,3,0,0,0,3-3V72Z"/><rect class="cls-10" height="37" rx="1" ry="1" width="48" x="72" y="4"/><path class="cls-11" d="M73,4h46a1,1,0,0,1,1,1V38a0,0,0,0,1,0,0H72a0,0,0,0,1,0,0V5A1,1,0,0,1,73,4Z"/><path class="cls-7" d="M119.66,4.26A1,1,0,0,0,119,4H73a1,1,0,0,0-1,1V26.9Z"/><polygon class="cls-7" points="120 9.1 120 6.1 72 28.9 72 31.9 120 9.1"/><g class="cls-1"><path class="cls-8" d="M119,4H73a1,1,0,0,0-1,1V9a1,1,0,0,1,1-1h46a1,1,0,0,1,1,1V5A1,1,0,0,0,119,4Z"/></g><path class="cls-4" d="M119,42H73a2,2,0,0,1-2-2V5a2,2,0,0,1,2-2h46a2,2,0,0,1,2,2V40A2,2,0,0,1,119,42ZM73,5V40h46V5Z"/><path class="cls-9" d="M123,36H104l-1,1H89l-1-1H68v3a2,2,0,0,0,2,2h51a2,2,0,0,0,2-2Z"/><path class="cls-4" d="M121,42H70a3,3,0,0,1-3-3V36a1,1,0,0,1,1-1H88a1,1,0,0,1,.71.29l.71.71h13.17l.71-.71A1,1,0,0,1,104,35h19a1,1,0,0,1,1,1v3A3,3,0,0,1,121,42ZM69,37v2a1,1,0,0,0,1,1h51a1,1,0,0,0,1-1V37H104.41l-.71.71A1,1,0,0,1,103,38H89a1,1,0,0,1-.71-.29L87.59,37Z"/><rect class="cls-9" height="44" rx="2" ry="2" width="30" x="93" y="61"/><path class="cls-4" d="M121,106H95a3,3,0,0,1-3-3V63a3,3,0,0,1,3-3h26a3,3,0,0,1,3,3v40A3,3,0,0,1,121,106ZM95,62a1,1,0,0,0-1,1v40a1,1,0,0,0,1,1h26a1,1,0,0,0,1-1V63a1,1,0,0,0-1-1Z"/><rect class="cls-11" height="32" width="30" x="93" y="65"/><polygon class="cls-7" points="123 69.22 93 87 93 65 123 65 123 69.22"/><polygon class="cls-7" points="123 73.22 93 91 93 89 123 71.22 123 73.22"/><path class="cls-4" d="M108,102.5a1.46,1.46,0,0,1-1.06-.44,1.5,1.5,0,0,1-.44-1.06,1.35,1.35,0,0,1,0-.29,2.21,2.21,0,0,1,.08-.28,1.54,1.54,0,0,1,.56-.68l.26-.14.28-.08a1.5,1.5,0,0,1,1.35.41,2.17,2.17,0,0,1,.19.23,1.37,1.37,0,0,1,.22.54,1.35,1.35,0,0,1,0,.29,1.55,1.55,0,0,1-.11.57,1.5,1.5,0,0,1-.33.49A1.46,1.46,0,0,1,108,102.5Z"/><g class="cls-1"><rect class="cls-8" height="4" width="30" x="93" y="65"/></g><path class="cls-4" d="M123,98H93a1,1,0,0,1-1-1V65a1,1,0,0,1,1-1h30a1,1,0,0,1,1,1V97A1,1,0,0,1,123,98ZM94,96h28V66H94Z"/><rect class="cls-9" height="34" rx="2" ry="2" width="18" x="13" y="15"/><path class="cls-4" d="M29,50H15a3,3,0,0,1-3-3V17a3,3,0,0,1,3-3H29a3,3,0,0,1,3,3V47A3,3,0,0,1,29,50ZM15,16a1,1,0,0,0-1,1V47a1,1,0,0,0,1,1H29a1,1,0,0,0,1-1V17a1,1,0,0,0-1-1Z"/><rect class="cls-12" height="22" width="18" x="13" y="19"/><path class="cls-4" d="M31,42H13a1,1,0,0,1-1-1V19a1,1,0,0,1,1-1H31a1,1,0,0,1,1,1V41A1,1,0,0,1,31,42ZM14,40H30V20H14Z"/><polygon class="cls-7" points="13 33 31 22.33 31 19 13 19 13 33"/><polygon class="cls-7" points="13 37 31 26.33 31 24.33 13 35 13 37"/><path class="cls-4" d="M22,46.5a1.56,1.56,0,0,1-.57-.11,1.62,1.62,0,0,1-.49-.33,1.34,1.34,0,0,1-.32-.49A1.39,1.39,0,0,1,20.5,45a1.35,1.35,0,0,1,0-.29,1.3,1.3,0,0,1,.09-.28,1.27,1.27,0,0,1,.13-.26,1.55,1.55,0,0,1,.42-.42,1.24,1.24,0,0,1,.26-.13,1.29,1.29,0,0,1,.28-.09,1.43,1.43,0,0,1,.87.09,1.15,1.15,0,0,1,.25.13,1.47,1.47,0,0,1,.23.19,2.17,2.17,0,0,1,.19.23,1.37,1.37,0,0,1,.22.54,1.35,1.35,0,0,1,0,.29,1.55,1.55,0,0,1-.11.57A1.51,1.51,0,0,1,22,46.5Z"/><g class="cls-1"><rect class="cls-8" height="4" width="18" x="13" y="19"/></g><path class="cls-4" d="M31,42H13a1,1,0,0,1-1-1V19a1,1,0,0,1,1-1H31a1,1,0,0,1,1,1V41A1,1,0,0,1,31,42ZM14,40H30V20H14Z"/><path class="cls-4" d="M109,126H23a1,1,0,1,1,0-2h86a1,1,0,0,1,0,2Z"/><path class="cls-4" d="M117,126h-5a1,1,0,0,1,0-2h5a1,1,0,0,1,0,2Z"/><path class="cls-4" d="M20,126H16a1,1,0,0,1,0-2h4a1,1,0,0,1,0,2Z"/></g><rect class="cls-13" height="72" width="76" x="26" y="53"/><g class="cls-1"><path class="cls-14" d="M102,55H26V72.57A5.07,5.07,0,0,0,28,71a5,5,0,0,0,8,0,5,5,0,0,0,8,0,5,5,0,0,0,8,0,5,5,0,0,0,8,0,5,5,0,0,0,8,0,5,5,0,0,0,8,0,5,5,0,0,0,8,0,5,5,0,0,0,8,0,5,5,0,0,0,8,0,5.07,5.07,0,0,0,2,1.6Z"/></g><path class="cls-9" d="M102,45v8H26V45a4,4,0,0,1,4-4H98A4,4,0,0,1,102,45Z"/><path class="cls-13" d="M98,41H30a4,4,0,0,0-4,4v3a4,4,0,0,1,4-4H98a4,4,0,0,1,4,4V45A4,4,0,0,0,98,41Z"/><path class="cls-4" d="M102,126H26a1,1,0,0,1-1-1V45a5,5,0,0,1,5-5H98a5,5,0,0,1,5,5v80A1,1,0,0,1,102,126Zm-75-2h74V45a3,3,0,0,0-3-3H30a3,3,0,0,0-3,3Z"/><rect class="cls-13" height="4" rx="2" ry="2" width="44" x="54" y="45"/><path class="cls-4" d="M96,50H56a3,3,0,0,1,0-6H96a3,3,0,0,1,0,6ZM56,46a1,1,0,0,0,0,2H96a1,1,0,0,0,0-2Z"/><circle class="cls-15" cx="32" cy="47" r="2"/><path class="cls-4" d="M32,50a3,3,0,1,1,3-3A3,3,0,0,1,32,50Zm0-4a1,1,0,1,0,1,1A1,1,0,0,0,32,46Z"/><circle class="cls-16" cx="40" cy="47" r="2"/><path class="cls-4" d="M40,50a3,3,0,1,1,3-3A3,3,0,0,1,40,50Zm0-4a1,1,0,1,0,1,1A1,1,0,0,0,40,46Z"/><circle class="cls-17" cx="48" cy="47" r="2"/><path class="cls-4" d="M48,50a3,3,0,1,1,3-3A3,3,0,0,1,48,50Zm0-4a1,1,0,1,0,1,1A1,1,0,0,0,48,46Z"/><path class="cls-2" d="M24,69h0a4,4,0,0,1-4-4V63h8v2A4,4,0,0,1,24,69Z"/><path class="cls-4" d="M24,70a5,5,0,0,1-5-5V63a1,1,0,0,1,1-1h8a1,1,0,0,1,1,1v2A5,5,0,0,1,24,70Zm-3-6v1a3,3,0,0,0,6,0V64Z"/><path class="cls-13" d="M32,69h0a4,4,0,0,1-4-4V63h8v2A4,4,0,0,1,32,69Z"/><path class="cls-4" d="M32,70a5,5,0,0,1-5-5V63a1,1,0,0,1,1-1h8a1,1,0,0,1,1,1v2A5,5,0,0,1,32,70Zm-3-6v1a3,3,0,0,0,6,0V64Z"/><path class="cls-2" d="M40,69h0a4,4,0,0,1-4-4V63h8v2A4,4,0,0,1,40,69Z"/><path class="cls-4" d="M40,70a5,5,0,0,1-5-5V63a1,1,0,0,1,1-1h8a1,1,0,0,1,1,1v2A5,5,0,0,1,40,70Zm-3-6v1a3,3,0,0,0,6,0V64Z"/><path class="cls-13" d="M48,69h0a4,4,0,0,1-4-4V63h8v2A4,4,0,0,1,48,69Z"/><path class="cls-4" d="M48,70a5,5,0,0,1-5-5V63a1,1,0,0,1,1-1h8a1,1,0,0,1,1,1v2A5,5,0,0,1,48,70Zm-3-6v1a3,3,0,0,0,6,0V64Z"/><path class="cls-2" d="M56,69h0a4,4,0,0,1-4-4V63h8v2A4,4,0,0,1,56,69Z"/><path class="cls-4" d="M56,70a5,5,0,0,1-5-5V63a1,1,0,0,1,1-1h8a1,1,0,0,1,1,1v2A5,5,0,0,1,56,70Zm-3-6v1a3,3,0,0,0,6,0V64Z"/><path class="cls-2" d="M72,69h0a4,4,0,0,1-4-4V63h8v2A4,4,0,0,1,72,69Z"/><path class="cls-4" d="M72,70a5,5,0,0,1-5-5V63a1,1,0,0,1,1-1h8a1,1,0,0,1,1,1v2A5,5,0,0,1,72,70Zm-3-6v1a3,3,0,0,0,6,0V64Z"/><path class="cls-13" d="M80,69h0a4,4,0,0,1-4-4V63h8v2A4,4,0,0,1,80,69Z"/><path class="cls-4" d="M80,70a5,5,0,0,1-5-5V63a1,1,0,0,1,1-1h8a1,1,0,0,1,1,1v2A5,5,0,0,1,80,70Zm-3-6v1a3,3,0,0,0,6,0V64Z"/><path class="cls-2" d="M88,69h0a4,4,0,0,1-4-4V63h8v2A4,4,0,0,1,88,69Z"/><path class="cls-4" d="M88,70a5,5,0,0,1-5-5V63a1,1,0,0,1,1-1h8a1,1,0,0,1,1,1v2A5,5,0,0,1,88,70Zm-3-6v1a3,3,0,0,0,6,0V64Z"/><path class="cls-13" d="M96,69h0a4,4,0,0,1-4-4V63h8v2A4,4,0,0,1,96,69Z"/><path class="cls-4" d="M96,70a5,5,0,0,1-5-5V63a1,1,0,0,1,1-1h8a1,1,0,0,1,1,1v2A5,5,0,0,1,96,70Zm-3-6v1a3,3,0,0,0,6,0V64Z"/><path class="cls-2" d="M104,69h0a4,4,0,0,1-4-4V63h8v2A4,4,0,0,1,104,69Z"/><path class="cls-4" d="M104,70a5,5,0,0,1-5-5V63a1,1,0,0,1,1-1h8a1,1,0,0,1,1,1v2A5,5,0,0,1,104,70Zm-3-6v1a3,3,0,0,0,6,0V64Z"/><polygon class="cls-2" points="28 63 20 63 26 53 32 53 28 63"/><path class="cls-4" d="M28,64H20a1,1,0,0,1-.86-1.51l6-10A1,1,0,0,1,26,52h6a1,1,0,0,1,.93,1.37l-4,10A1,1,0,0,1,28,64Zm-6.23-2h5.56l3.2-8h-4Z"/><polygon class="cls-13" points="36 63 28 63 32 53 39 53 36 63"/><path class="cls-4" d="M36,64H28a1,1,0,0,1-.93-1.37l4-10A1,1,0,0,1,32,52h7a1,1,0,0,1,1,1.29l-3,10A1,1,0,0,1,36,64Zm-6.52-2h5.78l2.4-8h-5Z"/><polygon class="cls-2" points="44 63 36 63 39 53 46 53 44 63"/><path class="cls-4" d="M44,64H36a1,1,0,0,1-1-1.29l3-10A1,1,0,0,1,39,52h7a1,1,0,0,1,1,1.2l-2,10A1,1,0,0,1,44,64Zm-6.66-2h5.84l1.6-8h-5Z"/><polygon class="cls-13" points="52 63 44 63 46 53 53 53 52 63"/><path class="cls-4" d="M52,64H44a1,1,0,0,1-1-1.2l2-10a1,1,0,0,1,1-.8h7a1,1,0,0,1,1,1.1l-1,10A1,1,0,0,1,52,64Zm-6.78-2h5.88l.8-8H46.82Z"/><polygon class="cls-2" points="60 63 52 63 53 53 60 53 60 63"/><path class="cls-4" d="M60,64H52a1,1,0,0,1-1-1.1l1-10a1,1,0,0,1,1-.9h7a1,1,0,0,1,1,1V63A1,1,0,0,1,60,64Zm-6.9-2H59V54H53.9Z"/><path class="cls-13" d="M64,69h0a4,4,0,0,1-4-4V63h8v2A4,4,0,0,1,64,69Z"/><path class="cls-4" d="M64,70a5,5,0,0,1-5-5V63a1,1,0,0,1,1-1h8a1,1,0,0,1,1,1v2A5,5,0,0,1,64,70Zm-3-6v1a3,3,0,0,0,6,0V64Z"/><rect class="cls-13" height="10" width="8" x="60" y="53"/><path class="cls-4" d="M68,64H60a1,1,0,0,1-1-1V53a1,1,0,0,1,1-1h8a1,1,0,0,1,1,1V63A1,1,0,0,1,68,64Zm-7-2h6V54H61Z"/><polygon class="cls-2" points="76 63 68 63 68 53 75 53 76 63"/><path class="cls-4" d="M76,64H68a1,1,0,0,1-1-1V53a1,1,0,0,1,1-1h7a1,1,0,0,1,1,.9l1,10A1,1,0,0,1,76,64Zm-7-2h5.9l-.8-8H69Z"/><polygon class="cls-13" points="84 63 76 63 75 53 82 53 84 63"/><path class="cls-4" d="M84,64H76a1,1,0,0,1-1-.9l-1-10A1,1,0,0,1,75,52h7a1,1,0,0,1,1,.8l2,10A1,1,0,0,1,84,64Zm-7.1-2h5.88l-1.6-8H76.1Z"/><polygon class="cls-2" points="92 63 84 63 82 53 89 53 92 63"/><path class="cls-4" d="M92,64H84a1,1,0,0,1-1-.8l-2-10A1,1,0,0,1,82,52h7a1,1,0,0,1,1,.71l3,10A1,1,0,0,1,92,64Zm-7.18-2h5.84l-2.4-8h-5Z"/><polygon class="cls-13" points="100 63 92 63 89 53 96 53 100 63"/><path class="cls-4" d="M100,64H92a1,1,0,0,1-1-.71l-3-10A1,1,0,0,1,89,52h7a1,1,0,0,1,.93.63l4,10A1,1,0,0,1,100,64Zm-7.26-2h5.78l-3.2-8h-5Z"/><polygon class="cls-2" points="108 63 100 63 96 53 102 53 108 63"/><path class="cls-4" d="M108,64h-8a1,1,0,0,1-.93-.63l-4-10A1,1,0,0,1,96,52h6a1,1,0,0,1,.86.49l6,10A1,1,0,0,1,108,64Zm-7.32-2h5.56l-4.8-8h-4Z"/><circle class="cls-17" cx="65" cy="97" r="20"/><g class="cls-1"><path class="cls-18" d="M65,114A20,20,0,0,1,45.08,95.5c0,.5-.08,1-.08,1.5a20,20,0,0,0,40,0c0-.51,0-1-.08-1.5A20,20,0,0,1,65,114Z"/></g><g class="cls-19"><path class="cls-13" d="M65,80A20,20,0,0,1,84.92,98.5c0-.5.08-1,.08-1.5a20,20,0,0,0-40,0c0,.51,0,1,.08,1.5A20,20,0,0,1,65,80Z"/></g><path class="cls-4" d="M65,118A21,21,0,1,1,86,97,21,21,0,0,1,65,118Zm0-40A19,19,0,1,0,84,97,19,19,0,0,0,65,78Z"/><g class="cls-1"><path class="cls-18" d="M76.47,91.2a2.46,2.46,0,0,0-4.3-1.25l-9,8.38-3.9-1.06a2.45,2.45,0,0,0-3.83,2,2.37,2.37,0,0,0,.66,1.66l5.58,6.25a2.79,2.79,0,0,0,2,.79h.16a2.8,2.8,0,0,0,2-1.12L76,93A2.43,2.43,0,0,0,76.47,91.2Z"/></g><path class="cls-13" d="M75.39,89.16a1.34,1.34,0,0,0-.54-.89h0a1.37,1.37,0,0,0-1.88.25l-9.52,9-4.59-1.43c-.89-.42-1.35-.43-1.86.08a1.35,1.35,0,0,0-.4,1A1.32,1.32,0,0,0,57,98l5.53,6.2a1.68,1.68,0,0,0,1.18.48h.12A1.69,1.69,0,0,0,65,104L75.13,90.16A1.34,1.34,0,0,0,75.39,89.16Z"/><path class="cls-4" d="M63.73,105.71a2.69,2.69,0,0,1-1.92-.76L56.23,98.7a2.28,2.28,0,0,1-.63-1.59,2.34,2.34,0,0,1,3.62-2l4,1.23,9.05-8.54a2.36,2.36,0,0,1,3.2-.36A2.34,2.34,0,0,1,76.38,89h0a2.33,2.33,0,0,1-.45,1.75L65.85,104.62a2.7,2.7,0,0,1-2,1.08h-.16Zm-5.92-9-.1.09a.35.35,0,0,0-.11.26.33.33,0,0,0,.08.22l5.58,6.25a.67.67,0,0,0,.43.15h.08a.67.67,0,0,0,.47-.27L74.32,89.58a.35.35,0,0,0,.08-.27h0a.35.35,0,0,0-.14-.23.37.37,0,0,0-.5.07l-.09.1-9.52,9a1,1,0,0,1-1,.23L58.56,97,58.43,97A1.74,1.74,0,0,0,57.81,96.75Z"/><path class="cls-2" d="M51.32,3A5.55,5.55,0,0,0,55,6.72q2.77.92,0,1.85a5.55,5.55,0,0,0-3.69,3.69q-.92,2.77-1.85,0a5.55,5.55,0,0,0-3.69-3.69q-2.77-.92,0-1.85A5.55,5.55,0,0,0,49.48,3Q50.4.26,51.32,3Z"/><path class="cls-2" d="M16,109.57A3.7,3.7,0,0,0,18.48,112q1.85.62,0,1.23A3.7,3.7,0,0,0,16,115.72q-.62,1.85-1.23,0a3.7,3.7,0,0,0-2.46-2.46q-1.85-.62,0-1.23a3.7,3.7,0,0,0,2.46-2.46Q15.4,107.72,16,109.57Z"/><path class="cls-11" d="M8.17,92.81a4.62,4.62,0,0,0,3.08,3.08q2.31.77,0,1.54a4.62,4.62,0,0,0-3.08,3.08q-.77,2.31-1.54,0a4.62,4.62,0,0,0-3.08-3.08q-2.31-.77,0-1.54a4.62,4.62,0,0,0,3.08-3.08Q7.4,90.5,8.17,92.81Z"/><path class="cls-2" d="M113,109.57a3.7,3.7,0,0,0,2.46,2.46q1.85.62,0,1.23a3.7,3.7,0,0,0-2.46,2.46q-.62,1.85-1.23,0a3.7,3.7,0,0,0-2.46-2.46q-1.85-.62,0-1.23a3.7,3.7,0,0,0,2.46-2.46Q112.4,107.73,113,109.57Z"/><path class="cls-11" d="M120,44.57A3.7,3.7,0,0,0,122.48,47q1.85.62,0,1.23A3.7,3.7,0,0,0,120,50.73q-.62,1.85-1.23,0a3.7,3.7,0,0,0-2.46-2.46q-1.85-.62,0-1.23a3.7,3.7,0,0,0,2.46-2.46Q119.41,42.73,120,44.57Z"/></svg>