<?xml version="1.0" ?><svg data-name="003" id="_003" viewBox="0 0 128 128" xmlns="http://www.w3.org/2000/svg"><defs><style>.cls-1{opacity:0.3;}.cls-2{fill:#97c1ff;}.cls-3{fill:#fff;}.cls-4{fill:#eef6ff;}.cls-5{fill:#6d6daa;}.cls-6{fill:#8d96b8;}.cls-7{fill:#939fc6;}.cls-8{fill:#96d7ff;}.cls-9{fill:#ff9797;}.cls-10{fill:#b1f1a8;}.cls-11{fill:#c9c1f5;}.cls-12{fill:#d4edff;}.cls-13{fill:#bed1f4;}.cls-14{fill:#9eb2cc;}.cls-15{fill:#c7e9ff;}.cls-16{fill:#1c64ba;}.cls-17{fill:#7369d6;}.cls-18{fill:#3b4872;}.cls-19{fill:#ced8ee;}</style></defs><title/><g class="cls-1"><path class="cls-2" d="M1.81,45.69a30,30,0,0,1,23.51-25A19.69,19.69,0,0,0,36.26,14.1a37,37,0,0,1,64.33,15.68A19.57,19.57,0,0,0,111,42.95,28,28,0,1,1,73.34,80.29,9.41,9.41,0,0,0,64.83,75H64a12.39,12.39,0,0,0-12,9.74A20,20,0,0,1,25.88,98.88,20,20,0,0,1,12.53,81,21.38,21.38,0,0,0,8,68.65,29.91,29.91,0,0,1,1.81,45.69Z"/><path class="cls-3" d="M44,12a1,1,0,0,1-.39-.08.87.87,0,0,1-.32-.22A1,1,0,0,1,43,11a1,1,0,0,1,.07-.39,1,1,0,0,1,1.31-.54,1,1,0,0,1,.32.22.88.88,0,0,1,.22.32A1.05,1.05,0,0,1,45,11a1,1,0,0,1-.3.7A1,1,0,0,1,44,12Z"/><path class="cls-3" d="M56,16H50a1,1,0,0,1,0-2h6a1,1,0,0,1,0,2Z"/><path class="cls-3" d="M63,12H48a1,1,0,0,1,0-2H63a1,1,0,0,1,0,2Z"/><path class="cls-3" d="M53,20H46a1,1,0,0,1,0-2h7a1,1,0,0,1,0,2Z"/><path class="cls-3" d="M46,16H42a1,1,0,0,1,0-2h4a1,1,0,0,1,0,2Z"/><path class="cls-3" d="M44,12a1,1,0,0,1-.39-.08.87.87,0,0,1-.32-.22A1,1,0,0,1,43,11a1,1,0,0,1,.07-.39,1,1,0,0,1,1.31-.54,1,1,0,0,1,.32.22.88.88,0,0,1,.22.32A1.05,1.05,0,0,1,45,11a1,1,0,0,1-.3.7A1,1,0,0,1,44,12Z"/><path class="cls-3" d="M56,16H50a1,1,0,0,1,0-2h6a1,1,0,0,1,0,2Z"/><path class="cls-3" d="M63,12H48a1,1,0,0,1,0-2H63a1,1,0,0,1,0,2Z"/><path class="cls-3" d="M53,20H46a1,1,0,0,1,0-2h7a1,1,0,0,1,0,2Z"/><path class="cls-3" d="M46,16H42a1,1,0,0,1,0-2h4a1,1,0,0,1,0,2Z"/><rect class="cls-4" height="4" width="4" x="16" y="79"/><path class="cls-5" d="M20,84H16a1,1,0,0,1-1-1V79a1,1,0,0,1,1-1h4a1,1,0,0,1,1,1v4A1,1,0,0,1,20,84Zm-3-2h2V80H17Z"/><rect class="cls-4" height="4" width="4" x="16" y="69"/><path class="cls-5" d="M20,74H16a1,1,0,0,1-1-1V69a1,1,0,0,1,1-1h4a1,1,0,0,1,1,1v4A1,1,0,0,1,20,74Zm-3-2h2V70H17Z"/><rect class="cls-4" height="4" width="4" x="16" y="59"/><path class="cls-5" d="M20,64H16a1,1,0,0,1-1-1V59a1,1,0,0,1,1-1h4a1,1,0,0,1,1,1v4A1,1,0,0,1,20,64Zm-3-2h2V60H17Z"/><rect class="cls-4" height="4" width="4" x="16" y="49"/><path class="cls-5" d="M20,54H16a1,1,0,0,1-1-1V49a1,1,0,0,1,1-1h4a1,1,0,0,1,1,1v4A1,1,0,0,1,20,54Zm-3-2h2V50H17Z"/><rect class="cls-4" height="4" width="4" x="16" y="39"/><path class="cls-5" d="M20,44H16a1,1,0,0,1-1-1V39a1,1,0,0,1,1-1h4a1,1,0,0,1,1,1v4A1,1,0,0,1,20,44Zm-3-2h2V40H17Z"/><rect class="cls-4" height="4" width="4" x="16" y="99"/><path class="cls-5" d="M20,104H16a1,1,0,0,1-1-1V99a1,1,0,0,1,1-1h4a1,1,0,0,1,1,1v4A1,1,0,0,1,20,104Zm-3-2h2v-2H17Z"/><rect class="cls-4" height="4" width="4" x="16" y="89"/><path class="cls-5" d="M20,94H16a1,1,0,0,1-1-1V89a1,1,0,0,1,1-1h4a1,1,0,0,1,1,1v4A1,1,0,0,1,20,94Zm-3-2h2V90H17Z"/><path class="cls-5" d="M70,109a1,1,0,0,1-1-1V34a1,1,0,1,1,2,0v74A1,1,0,0,1,70,109Z"/><path class="cls-5" d="M70,76H64a1,1,0,0,1,0-2h6a1,1,0,1,1,0,2Z"/><path class="cls-5" d="M70,72H64a1,1,0,0,1,0-2h6a1,1,0,1,1,0,2Z"/><path class="cls-5" d="M70,80H64a1,1,0,0,1,0-2h6a1,1,0,1,1,0,2Z"/><path class="cls-5" d="M70,64H64a1,1,0,0,1,0-2h6a1,1,0,0,1,0,2Z"/><path class="cls-5" d="M70,60H64a1,1,0,0,1,0-2h6a1,1,0,0,1,0,2Z"/><path class="cls-5" d="M70,68H64a1,1,0,1,1,0-2h6a1,1,0,0,1,0,2Z"/><path class="cls-5" d="M70,52H64a1,1,0,0,1,0-2h6a1,1,0,0,1,0,2Z"/><path class="cls-5" d="M70,48H64a1,1,0,0,1,0-2h6a1,1,0,0,1,0,2Z"/><path class="cls-5" d="M70,56H64a1,1,0,0,1,0-2h6a1,1,0,0,1,0,2Z"/><path class="cls-5" d="M70,40H64a1,1,0,0,1,0-2h6a1,1,0,0,1,0,2Z"/><path class="cls-5" d="M70,36H64a1,1,0,0,1,0-2h6a1,1,0,0,1,0,2Z"/><path class="cls-5" d="M70,44H64a1,1,0,0,1,0-2h6a1,1,0,0,1,0,2Z"/><path class="cls-5" d="M70,84H64a1,1,0,0,1,0-2h6a1,1,0,1,1,0,2Z"/><path class="cls-5" d="M70,88H64a1,1,0,0,1,0-2h6a1,1,0,1,1,0,2Z"/><path class="cls-5" d="M70,92H64a1,1,0,0,1,0-2h6a1,1,0,1,1,0,2Z"/><path class="cls-5" d="M70,96H64a1,1,0,0,1,0-2h6a1,1,0,1,1,0,2Z"/><path class="cls-5" d="M70,100H64a1,1,0,0,1,0-2h6a1,1,0,0,1,0,2Z"/><path class="cls-5" d="M70,104H64a1,1,0,1,1,0-2h6a1,1,0,0,1,0,2Z"/><path class="cls-5" d="M70,108H64a1,1,0,1,1,0-2h6a1,1,0,0,1,0,2Z"/><rect class="cls-6" height="3.99" width="44" x="20" y="25"/><path class="cls-5" d="M64,30H20a1,1,0,0,1-1-1V25a1,1,0,0,1,1-1H64a1,1,0,0,1,1,1v4A1,1,0,0,1,64,30ZM21,28H63V26H21Z"/><rect class="cls-4" height="86" width="44" x="20" y="29"/><path class="cls-5" d="M64,116H20a1,1,0,0,1-1-1V29a1,1,0,0,1,1-1H64a1,1,0,0,1,1,1v86A1,1,0,0,1,64,116Zm-43-2H63V30H21Z"/><rect class="cls-7" height="10" width="8" x="50" y="105"/><path class="cls-5" d="M58,116H50a1,1,0,0,1-1-1V105a1,1,0,0,1,1-1h8a1,1,0,0,1,1,1v10A1,1,0,0,1,58,116Zm-7-2h6v-8H51Z"/><rect class="cls-8" height="6" width="20" x="26" y="105"/><path class="cls-5" d="M46,112H26a1,1,0,0,1-1-1v-6a1,1,0,0,1,1-1H46a1,1,0,0,1,1,1v6A1,1,0,0,1,46,112Zm-19-2H45v-4H27Z"/><rect class="cls-8" height="6" width="10" x="26" y="95"/><path class="cls-5" d="M36,102H26a1,1,0,0,1-1-1V95a1,1,0,0,1,1-1H36a1,1,0,0,1,1,1v6A1,1,0,0,1,36,102Zm-9-2h8V96H27Z"/><path class="cls-5" d="M31,102a1,1,0,0,1-1-1V95a1,1,0,0,1,2,0v6A1,1,0,0,1,31,102Z"/><rect class="cls-8" height="6" width="10" x="26" y="85"/><path class="cls-5" d="M36,92H26a1,1,0,0,1-1-1V85a1,1,0,0,1,1-1H36a1,1,0,0,1,1,1v6A1,1,0,0,1,36,92Zm-9-2h8V86H27Z"/><path class="cls-5" d="M31,92a1,1,0,0,1-1-1V85a1,1,0,0,1,2,0v6A1,1,0,0,1,31,92Z"/><rect class="cls-8" height="6" width="10" x="26" y="75"/><path class="cls-5" d="M36,82H26a1,1,0,0,1-1-1V75a1,1,0,0,1,1-1H36a1,1,0,0,1,1,1v6A1,1,0,0,1,36,82Zm-9-2h8V76H27Z"/><path class="cls-5" d="M31,82a1,1,0,0,1-1-1V75a1,1,0,0,1,2,0v6A1,1,0,0,1,31,82Z"/><rect class="cls-8" height="6" width="10" x="26" y="65"/><path class="cls-5" d="M36,72H26a1,1,0,0,1-1-1V65a1,1,0,0,1,1-1H36a1,1,0,0,1,1,1v6A1,1,0,0,1,36,72Zm-9-2h8V66H27Z"/><path class="cls-5" d="M31,72a1,1,0,0,1-1-1V65a1,1,0,0,1,2,0v6A1,1,0,0,1,31,72Z"/><rect class="cls-8" height="6" width="10" x="48" y="95"/><path class="cls-5" d="M58,102H48a1,1,0,0,1-1-1V95a1,1,0,0,1,1-1H58a1,1,0,0,1,1,1v6A1,1,0,0,1,58,102Zm-9-2h8V96H49Z"/><path class="cls-5" d="M53,102a1,1,0,0,1-1-1V95a1,1,0,0,1,2,0v6A1,1,0,0,1,53,102Z"/><rect class="cls-8" height="6" width="10" x="48" y="85"/><path class="cls-5" d="M58,92H48a1,1,0,0,1-1-1V85a1,1,0,0,1,1-1H58a1,1,0,0,1,1,1v6A1,1,0,0,1,58,92Zm-9-2h8V86H49Z"/><path class="cls-5" d="M53,92a1,1,0,0,1-1-1V85a1,1,0,0,1,2,0v6A1,1,0,0,1,53,92Z"/><rect class="cls-8" height="6" width="10" x="48" y="75"/><path class="cls-5" d="M58,82H48a1,1,0,0,1-1-1V75a1,1,0,0,1,1-1H58a1,1,0,0,1,1,1v6A1,1,0,0,1,58,82Zm-9-2h8V76H49Z"/><path class="cls-5" d="M53,82a1,1,0,0,1-1-1V75a1,1,0,0,1,2,0v6A1,1,0,0,1,53,82Z"/><rect class="cls-8" height="6" width="10" x="48" y="65"/><path class="cls-5" d="M58,72H48a1,1,0,0,1-1-1V65a1,1,0,0,1,1-1H58a1,1,0,0,1,1,1v6A1,1,0,0,1,58,72Zm-9-2h8V66H49Z"/><path class="cls-5" d="M53,72a1,1,0,0,1-1-1V65a1,1,0,0,1,2,0v6A1,1,0,0,1,53,72Z"/><rect class="cls-8" height="6" width="10" x="26" y="55"/><path class="cls-5" d="M36,62H26a1,1,0,0,1-1-1V55a1,1,0,0,1,1-1H36a1,1,0,0,1,1,1v6A1,1,0,0,1,36,62Zm-9-2h8V56H27Z"/><path class="cls-5" d="M31,62a1,1,0,0,1-1-1V55a1,1,0,0,1,2,0v6A1,1,0,0,1,31,62Z"/><rect class="cls-8" height="6" width="10" x="48" y="55"/><path class="cls-5" d="M58,62H48a1,1,0,0,1-1-1V55a1,1,0,0,1,1-1H58a1,1,0,0,1,1,1v6A1,1,0,0,1,58,62Zm-9-2h8V56H49Z"/><path class="cls-5" d="M53,62a1,1,0,0,1-1-1V55a1,1,0,0,1,2,0v6A1,1,0,0,1,53,62Z"/><rect class="cls-8" height="6" width="10" x="26" y="45"/><path class="cls-5" d="M36,52H26a1,1,0,0,1-1-1V45a1,1,0,0,1,1-1H36a1,1,0,0,1,1,1v6A1,1,0,0,1,36,52Zm-9-2h8V46H27Z"/><path class="cls-5" d="M31,52a1,1,0,0,1-1-1V45a1,1,0,0,1,2,0v6A1,1,0,0,1,31,52Z"/><rect class="cls-8" height="6" width="10" x="48" y="45"/><path class="cls-5" d="M58,52H48a1,1,0,0,1-1-1V45a1,1,0,0,1,1-1H58a1,1,0,0,1,1,1v6A1,1,0,0,1,58,52Zm-9-2h8V46H49Z"/><path class="cls-5" d="M53,52a1,1,0,0,1-1-1V45a1,1,0,0,1,2,0v6A1,1,0,0,1,53,52Z"/><rect class="cls-8" height="6" width="10" x="26" y="35"/><path class="cls-5" d="M36,42H26a1,1,0,0,1-1-1V35a1,1,0,0,1,1-1H36a1,1,0,0,1,1,1v6A1,1,0,0,1,36,42Zm-9-2h8V36H27Z"/><path class="cls-5" d="M31,42a1,1,0,0,1-1-1V35a1,1,0,1,1,2,0v6A1,1,0,0,1,31,42Z"/><rect class="cls-8" height="6" width="10" x="48" y="35"/><path class="cls-5" d="M58,42H48a1,1,0,0,1-1-1V35a1,1,0,0,1,1-1H58a1,1,0,0,1,1,1v6A1,1,0,0,1,58,42Zm-9-2h8V36H49Z"/><path class="cls-5" d="M53,42a1,1,0,0,1-1-1V35a1,1,0,1,1,2,0v6A1,1,0,0,1,53,42Z"/><rect class="cls-2" height="66" width="4" x="40" y="35"/><path class="cls-5" d="M44,102H40a1,1,0,0,1-1-1V35a1,1,0,0,1,1-1h4a1,1,0,0,1,1,1v66A1,1,0,0,1,44,102Zm-3-2h2V36H41Z"/><path class="cls-5" d="M44,94H40a1,1,0,0,1,0-2h4a1,1,0,1,1,0,2Z"/><path class="cls-5" d="M44,84H40a1,1,0,0,1,0-2h4a1,1,0,0,1,0,2Z"/><path class="cls-5" d="M44,74H40a1,1,0,0,1,0-2h4a1,1,0,0,1,0,2Z"/><path class="cls-5" d="M44,64H40a1,1,0,0,1,0-2h4a1,1,0,0,1,0,2Z"/><path class="cls-5" d="M44,54H40a1,1,0,0,1,0-2h4a1,1,0,0,1,0,2Z"/><path class="cls-5" d="M44,44H40a1,1,0,0,1,0-2h4a1,1,0,0,1,0,2Z"/><path class="cls-5" d="M64,30H20a1,1,0,0,1,0-2H64a1,1,0,0,1,0,2Z"/><path class="cls-5" d="M66,26H18a1,1,0,0,1,0-2H66a1,1,0,0,1,0,2Z"/><rect class="cls-2" height="14" width="50" x="5" y="59.03"/><path class="cls-5" d="M55,74H5a1,1,0,0,1-1-1V59a1,1,0,0,1,1-1H55a1,1,0,0,1,1,1V73A1,1,0,0,1,55,74ZM6,72H54V60H6Z"/><polygon class="cls-4" points="51 77.03 51 75.03 30 61.5 9 75.03 9 77.03 7 77.03 7 115.03 53 115.03 53 109.34 53 83.45 53 77.03 51 77.03"/><path class="cls-5" d="M53,116H7a1,1,0,0,1-1-1V77a1,1,0,0,1,1-1H8V75a1,1,0,0,1,.46-.84l21-13.53a1,1,0,0,1,1.08,0l21,13.53A1,1,0,0,1,52,75v1h1a1,1,0,0,1,1,1v38A1,1,0,0,1,53,116ZM8,114H52V78H51a1,1,0,0,1-1-1V75.58L30,62.69,10,75.58V77a1,1,0,0,1-1,1H8Z"/><rect class="cls-8" height="12" width="18" x="13" y="99.03"/><path class="cls-5" d="M31,112H13a1,1,0,0,1-1-1V99a1,1,0,0,1,1-1H31a1,1,0,0,1,1,1v12A1,1,0,0,1,31,112Zm-17-2H30V100H14Z"/><rect class="cls-8" height="8" width="6" x="13" y="81.03"/><path class="cls-5" d="M19,90H13a1,1,0,0,1-1-1V81a1,1,0,0,1,1-1h6a1,1,0,0,1,1,1v8A1,1,0,0,1,19,90Zm-5-2h4V82H14Z"/><polygon class="cls-9" points="49 69.03 49 60.03 43 60.03 43 65.35 49 69.03"/><path class="cls-5" d="M49,70a1,1,0,0,1-.52-.15l-6-3.68a1,1,0,0,1-.48-.85V60a1,1,0,0,1,1-1h6a1,1,0,0,1,1,1v9a1,1,0,0,1-1,1Zm-5-5.24,4,2.45V61H44Z"/><rect class="cls-9" height="3" width="8" x="42" y="57.03"/><path class="cls-5" d="M50,61H42a1,1,0,0,1-1-1V57a1,1,0,0,1,1-1h8a1,1,0,0,1,1,1v3A1,1,0,0,1,50,61Zm-7-2h6V58H43Z"/><path class="cls-5" d="M22,112a1,1,0,0,1-1-1V99a1,1,0,0,1,2,0v12A1,1,0,0,1,22,112Z"/><path class="cls-5" d="M32,112H12a1,1,0,0,1,0-2H32a1,1,0,0,1,0,2Z"/><rect class="cls-9" height="13" width="10" x="37" y="99.03"/><path class="cls-5" d="M47,113H37a1,1,0,0,1-1-1V99a1,1,0,0,1,1-1H47a1,1,0,0,1,1,1v13A1,1,0,0,1,47,113Zm-9-2h8V100H38Z"/><path class="cls-5" d="M39,107H37a1,1,0,1,1,0-2h2a1,1,0,0,1,0,2Z"/><rect class="cls-7" height="3" width="12" x="36" y="112.03"/><path class="cls-5" d="M48,116H36a1,1,0,0,1-1-1v-3a1,1,0,0,1,1-1H48a1,1,0,0,1,1,1v3A1,1,0,0,1,48,116Zm-11-2H47v-1H37Z"/><rect class="cls-8" height="8" width="6" x="41" y="81.03"/><path class="cls-5" d="M47,90H41a1,1,0,0,1-1-1V81a1,1,0,0,1,1-1h6a1,1,0,0,1,1,1v8A1,1,0,0,1,47,90Zm-5-2h4V82H42Z"/><path class="cls-5" d="M20,90H12a1,1,0,0,1,0-2h8a1,1,0,0,1,0,2Z"/><rect class="cls-8" height="8" width="6" x="27" y="81.03"/><path class="cls-5" d="M33,90H27a1,1,0,0,1-1-1V81a1,1,0,0,1,1-1h6a1,1,0,0,1,1,1v8A1,1,0,0,1,33,90Zm-5-2h4V82H28Z"/><path class="cls-5" d="M19,86H13a1,1,0,0,1,0-2h6a1,1,0,0,1,0,2Z"/><path class="cls-5" d="M33,86H27a1,1,0,0,1,0-2h6a1,1,0,0,1,0,2Z"/><path class="cls-5" d="M47,86H41a1,1,0,0,1,0-2h6a1,1,0,0,1,0,2Z"/><path class="cls-5" d="M48,90H40a1,1,0,1,1,0-2h8a1,1,0,0,1,0,2Z"/><path class="cls-5" d="M34,90H26a1,1,0,0,1,0-2h8a1,1,0,0,1,0,2Z"/><path class="cls-8" d="M27,73V70a3,3,0,0,1,3-3h0a3,3,0,0,1,3,3v3Z"/><path class="cls-5" d="M33,74H27a1,1,0,0,1-1-1V70a4,4,0,0,1,8,0v3A1,1,0,0,1,33,74Zm-5-2h4V70a2,2,0,0,0-4,0Z"/><path class="cls-5" d="M34,74H26a1,1,0,0,1,0-2h8a1,1,0,0,1,0,2Z"/><path class="cls-5" d="M53,96H8a1,1,0,1,1,0-2H53a1,1,0,1,1,0,2Z"/><path class="cls-5" d="M53,78H8a1,1,0,1,1,0-2H53a1,1,0,0,1,0,2Z"/><polygon class="cls-2" points="51 77.03 51 75.03 30 61.5 9 75.03 9 77.03 5 77.03 5 73.03 30 57.03 55 73.03 55 77.03 51 77.03"/><path class="cls-5" d="M55,78H51a1,1,0,0,1-1-1V75.58L30,62.69,10,75.58V77a1,1,0,0,1-1,1H5a1,1,0,0,1-1-1V73a1,1,0,0,1,.46-.84l25-16a1,1,0,0,1,1.08,0l25,16A1,1,0,0,1,56,73v4A1,1,0,0,1,55,78Zm-3-2h2V73.58L30,58.22,6,73.58V76H8V75a1,1,0,0,1,.46-.84l21-13.53a1,1,0,0,1,1.08,0l21,13.53A1,1,0,0,1,52,75Z"/><path class="cls-10" d="M22,111a3,3,0,0,0-1.12.22,3,3,0,0,0-4.57-1.7,5,5,0,0,0-8.92.52,3.92,3.92,0,0,0-.4,0,4,4,0,0,0-4,4v1H25v-1A3,3,0,0,0,22,111Z"/><path class="cls-5" d="M25,116H3a1,1,0,0,1-1-1v-1a5,5,0,0,1,4.8-5,6,6,0,0,1,9.84-.77,4,4,0,0,1,4.83,1.8,3.81,3.81,0,0,1,.53,0,4,4,0,0,1,4,4v1A1,1,0,0,1,25,116ZM4,114H24a2,2,0,0,0-2.74-1.85,1,1,0,0,1-1.34-.67,2,2,0,0,0-3-1.14,1,1,0,0,1-1.43-.33A4,4,0,0,0,12,108a4,4,0,0,0-3.68,2.43,1,1,0,0,1-1,.6l-.18,0H7A3,3,0,0,0,4,114Z"/><path class="cls-5" d="M13.11,112.12a1,1,0,0,1-.59-.2c-.5-.37-.78-.32-1.11-.11a1,1,0,0,1-1.07-1.69,2.79,2.79,0,0,1,3.37.2,1,1,0,0,1-.6,1.8Z"/><rect class="cls-11" height="4" width="26" x="80" y="11.03"/><path class="cls-5" d="M106,16H80a1,1,0,0,1-1-1V11a1,1,0,0,1,1-1h26a1,1,0,0,1,1,1v4A1,1,0,0,1,106,16ZM81,14h24V12H81Z"/><rect class="cls-4" height="28" width="4" x="64" y="87.03"/><path class="cls-5" d="M68,116H64a1,1,0,0,1-1-1V87a1,1,0,0,1,1-1h4a1,1,0,0,1,1,1v28A1,1,0,0,1,68,116Zm-3-2h2V88H65Z"/><rect class="cls-12" height="28" width="6" x="68" y="87.03"/><path class="cls-5" d="M74,116H68a1,1,0,0,1-1-1V87a1,1,0,0,1,1-1h6a1,1,0,0,1,1,1v28A1,1,0,0,1,74,116Zm-5-2h4V88H69Z"/><rect class="cls-4" height="28" width="4" x="118" y="87.03"/><path class="cls-5" d="M122,116h-4a1,1,0,0,1-1-1V87a1,1,0,0,1,1-1h4a1,1,0,0,1,1,1v28A1,1,0,0,1,122,116Zm-3-2h2V88h-2Z"/><rect class="cls-12" height="28" width="6" x="112" y="87.03"/><path class="cls-5" d="M118,116h-6a1,1,0,0,1-1-1V87a1,1,0,0,1,1-1h6a1,1,0,0,1,1,1v28A1,1,0,0,1,118,116Zm-5-2h4V88h-4Z"/><rect class="cls-4" height="100" width="38" x="74" y="15.03"/><path class="cls-5" d="M112,116H74a1,1,0,0,1-1-1V15a1,1,0,0,1,1-1h38a1,1,0,0,1,1,1V115A1,1,0,0,1,112,116Zm-37-2h36V16H75Z"/><rect class="cls-8" height="80" width="30" x="78" y="19.03"/><path class="cls-5" d="M108,100H78a1,1,0,0,1-1-1V19a1,1,0,0,1,1-1h30a1,1,0,0,1,1,1V99A1,1,0,0,1,108,100ZM79,98h28V20H79Z"/><rect class="cls-12" height="16" width="30" x="78" y="99.03"/><path class="cls-5" d="M108,116H78a1,1,0,0,1-1-1V99a1,1,0,0,1,1-1h30a1,1,0,0,1,1,1v16A1,1,0,0,1,108,116Zm-29-2h28V100H79Z"/><path class="cls-5" d="M102,100a1,1,0,0,1-1-1V19a1,1,0,0,1,2,0V99A1,1,0,0,1,102,100Z"/><path class="cls-5" d="M96,100a1,1,0,0,1-1-1V19a1,1,0,0,1,2,0V99A1,1,0,0,1,96,100Z"/><path class="cls-5" d="M90,100a1,1,0,0,1-1-1V19a1,1,0,0,1,2,0V99A1,1,0,0,1,90,100Z"/><path class="cls-5" d="M93,12a1,1,0,0,1-1-1V7a1,1,0,1,1,2,0v4A1,1,0,0,1,93,12Z"/><rect class="cls-7" height="4" width="10" x="64" y="111.03"/><path class="cls-5" d="M74,116H64a1,1,0,0,1-1-1v-4a1,1,0,0,1,1-1H74a1,1,0,0,1,1,1v4A1,1,0,0,1,74,116Zm-9-2h8v-2H65Z"/><path class="cls-5" d="M84,100a1,1,0,0,1-1-1V19a1,1,0,0,1,2,0V99A1,1,0,0,1,84,100Z"/><path class="cls-5" d="M86,116a1,1,0,0,1-1-1V99a1,1,0,0,1,2,0v16A1,1,0,0,1,86,116Z"/><path class="cls-5" d="M100,116a1,1,0,0,1-1-1V99a1,1,0,0,1,2,0v16A1,1,0,0,1,100,116Z"/><path class="cls-5" d="M93,116a1,1,0,0,1-1-1V99a1,1,0,0,1,2,0v16A1,1,0,0,1,93,116Z"/><path class="cls-5" d="M108,80H78a1,1,0,0,1,0-2h30a1,1,0,1,1,0,2Z"/><path class="cls-5" d="M108,90H78a1,1,0,0,1,0-2h30a1,1,0,1,1,0,2Z"/><path class="cls-5" d="M108,50H78a1,1,0,0,1,0-2h30a1,1,0,0,1,0,2Z"/><path class="cls-5" d="M108,60H78a1,1,0,0,1,0-2h30a1,1,0,0,1,0,2Z"/><path class="cls-5" d="M108,70H78a1,1,0,0,1,0-2h30a1,1,0,1,1,0,2Z"/><path class="cls-5" d="M108,30H78a1,1,0,0,1,0-2h30a1,1,0,0,1,0,2Z"/><path class="cls-5" d="M108,40H78a1,1,0,0,1,0-2h30a1,1,0,0,1,0,2Z"/><path class="cls-5" d="M108,100H78a1,1,0,0,1,0-2h30a1,1,0,1,1,0,2Z"/><path class="cls-5" d="M118,112a1,1,0,0,1-1-1V91a1,1,0,0,1,2,0v20A1,1,0,0,1,118,112Z"/><rect class="cls-7" height="4" width="10" x="112" y="111.03"/><path class="cls-5" d="M122,116H112a1,1,0,0,1-1-1v-4a1,1,0,0,1,1-1h10a1,1,0,0,1,1,1v4A1,1,0,0,1,122,116Zm-9-2h8v-2h-8Z"/><rect class="cls-11" height="4" width="10" x="112" y="87.03"/><path class="cls-5" d="M122,92H112a1,1,0,0,1-1-1V87a1,1,0,0,1,1-1h10a1,1,0,0,1,1,1v4A1,1,0,0,1,122,92Zm-9-2h8V88h-8Z"/><rect class="cls-11" height="4" width="10" x="64" y="87.03"/><path class="cls-5" d="M74,92H64a1,1,0,0,1-1-1V87a1,1,0,0,1,1-1H74a1,1,0,0,1,1,1v4A1,1,0,0,1,74,92Zm-9-2h8V88H65Z"/><path class="cls-5" d="M113.09,115.92a1,1,0,0,1-1-1v-8a1,1,0,0,1,2,0v8A1,1,0,0,1,113.09,115.92Z"/><path class="cls-10" d="M119.09,101.42a6,6,0,0,1-12,0c0-3,2.69-16.5,6-16.5S119.09,98.38,119.09,101.42Z"/><path class="cls-5" d="M113.09,107.92a6.77,6.77,0,0,1-7-6.5c0-1.95,2.34-17.5,7-17.5s7,15.55,7,17.5A6.77,6.77,0,0,1,113.09,107.92Zm0-22c-2,0-5,11.79-5,15.5a5,5,0,0,0,10,0C118.09,97.71,115.11,85.92,113.09,85.92Z"/><path class="cls-5" d="M111.81,103.78a1,1,0,0,1-.25,0,2.79,2.79,0,0,1-2.18-2.57,1,1,0,1,1,2-.25c.08.61.31.79.69.88a1,1,0,0,1-.24,2Z"/><path class="cls-5" d="M114.11,94.37a1,1,0,0,1-.83-.44c-.35-.51-.63-.56-1-.47a1,1,0,0,1-.44-2,2.8,2.8,0,0,1,3.11,1.3,1,1,0,0,1-.83,1.56Z"/><path class="cls-10" d="M64.14,111.17a3,3,0,0,1,4.54-1.62,5,5,0,0,1,9.11,1.15A4,4,0,0,1,84,114v1H62v-1A3,3,0,0,1,64.14,111.17Z"/><path class="cls-5" d="M84,116H62a1,1,0,0,1-1-1v-1a4,4,0,0,1,2.36-3.64,4,4,0,0,1,5-2.13,6,6,0,0,1,10,1.05A5,5,0,0,1,85,114v1A1,1,0,0,1,84,116Zm-21-2H83a3,3,0,0,0-4.65-2.5,1,1,0,0,1-1.51-.57A4,4,0,0,0,73,108a4,4,0,0,0-3.45,2,1,1,0,0,1-1.43.33,2,2,0,0,0-3,1.08,1,1,0,0,1-.67.67A2,2,0,0,0,63,114Zm1.14-2.86h0Z"/><path class="cls-5" d="M74.11,112.06a1,1,0,0,1-.55-.17c-.51-.34-.8-.28-1.12-.05a1,1,0,1,1-1.15-1.63,2.8,2.8,0,0,1,3.37,0,1,1,0,0,1-.55,1.83Z"/><path class="cls-5" d="M112,116H23a1,1,0,0,1,0-2h89a1,1,0,0,1,0,2Z"/><path class="cls-5" d="M127,116H115a1,1,0,1,1,0-2h12a1,1,0,1,1,0,2Z"/><path class="cls-5" d="M6,116H1a1,1,0,1,1,0-2H6a1,1,0,1,1,0,2Z"/><path class="cls-5" d="M20,116H9a1,1,0,0,1,0-2H20a1,1,0,1,1,0,2Z"/><path class="cls-5" d="M114,126H82a1,1,0,0,1,0-2h32a1,1,0,1,1,0,2Z"/><path class="cls-5" d="M79,126H26a1,1,0,0,1,0-2H79a1,1,0,0,1,0,2Z"/><path class="cls-5" d="M20,126H16a1,1,0,1,1,0-2h4a1,1,0,0,1,0,2Z"/></g><path class="cls-7" d="M28,116v7a2,2,0,0,0,2,2h8a2,2,0,0,0,2-2v-7H28Z"/><g class="cls-1"><path class="cls-13" d="M28,116v7a2,2,0,0,0,2,2h2v-9Z"/></g><path class="cls-5" d="M30,120H28a1,1,0,1,1,0-2h2a1,1,0,1,1,0,2Z"/><path class="cls-5" d="M30,123H28a1,1,0,1,1,0-2h2a1,1,0,1,1,0,2Z"/><path class="cls-5" d="M40,123H38a1,1,0,0,1,0-2h2a1,1,0,0,1,0,2Z"/><path class="cls-5" d="M40,120H38a1,1,0,0,1,0-2h2a1,1,0,0,1,0,2Z"/><path class="cls-5" d="M37,126H31a4,4,0,0,1-4-4v-6a1,1,0,0,1,1-1H40a1,1,0,0,1,1,1v6A4,4,0,0,1,37,126Zm-8-9v5a2,2,0,0,0,2,2h6a2,2,0,0,0,2-2v-5Z"/><path class="cls-7" d="M88,116v7a2,2,0,0,0,2,2h8a2,2,0,0,0,2-2v-7H88Z"/><g class="cls-1"><path class="cls-13" d="M96,116v9h2a2,2,0,0,0,2-2v-7Z"/></g><path class="cls-5" d="M90,120H88a1,1,0,1,1,0-2h2a1,1,0,0,1,0,2Z"/><path class="cls-5" d="M90,123H88a1,1,0,1,1,0-2h2a1,1,0,0,1,0,2Z"/><path class="cls-5" d="M100,123H98a1,1,0,0,1,0-2h2a1,1,0,0,1,0,2Z"/><path class="cls-5" d="M100,120H98a1,1,0,0,1,0-2h2a1,1,0,0,1,0,2Z"/><path class="cls-5" d="M97,126H91a4,4,0,0,1-4-4v-6a1,1,0,0,1,1-1h12a1,1,0,0,1,1,1v6A4,4,0,0,1,97,126Zm-8-9v5a2,2,0,0,0,2,2h6a2,2,0,0,0,2-2v-5Z"/><path class="cls-14" d="M22,104v6a6,6,0,0,0,6,6h72a6,6,0,0,0,6-6v-6"/><path class="cls-5" d="M100,117H28a7,7,0,0,1-7-7v-6a1,1,0,0,1,2,0v6a5,5,0,0,0,5,5h72a5,5,0,0,0,5-5v-6a1,1,0,0,1,2,0v6A7,7,0,0,1,100,117Z"/><path class="cls-8" d="M93.34,74.23,97,83l-3.47,1.74A12.12,12.12,0,0,1,88.16,86H39.83a12.12,12.12,0,0,1-5.37-1.26L31,83l3.66-8.77A15,15,0,0,1,48.5,65h31A15,15,0,0,1,93.34,74.23Z"/><path class="cls-15" d="M79.49,65h-31a15,15,0,0,0-13.85,9.22L31,83l3.47,1.74a12.09,12.09,0,0,0,1.45.6l45-20.26C80.46,65,80,65,79.49,65Z"/><path class="cls-15" d="M47.77,86l40.44-18.2a15,15,0,0,0-3-1.66L41.1,86Z"/><g class="cls-1"><path class="cls-16" d="M33.66,78.23C36,72.65,42.44,69,48.5,69h31c6.06,0,12.52,3.65,14.85,9.23l2.28,5.47L97,83l-3.66-8.78A15,15,0,0,0,79.49,65h-31a15,15,0,0,0-13.85,9.22L31,83l.38.69Z"/></g><path class="cls-11" d="M106,98.21V106a6,6,0,0,1-6,6H28a6,6,0,0,1-6-6V98.21a15,15,0,0,1,4.39-10.61L31,83l3.47,1.74A12.12,12.12,0,0,0,39.83,86H88.16a12.12,12.12,0,0,0,5.37-1.26L97,83l4.6,4.61A15,15,0,0,1,106,98.21Z"/><g class="cls-1"><path class="cls-17" d="M100,108H28a6,6,0,0,1-6-6v4a6,6,0,0,0,6,6h72a6,6,0,0,0,6-6v-4A6,6,0,0,1,100,108Z"/></g><path class="cls-7" d="M73.37,105H54.62a4,4,0,0,1-3.88-3l-1.12-4.48A2,2,0,0,1,51.56,95H76.44a2,2,0,0,1,1.94,2.49L77.25,102A4,4,0,0,1,73.37,105Z"/><g class="cls-1"><path class="cls-18" d="M50.15,99.6a2,2,0,0,1,1.41-.6H76.44a2,2,0,0,1,1.41.6l.53-2.12A2,2,0,0,0,76.44,95H51.56a2,2,0,0,0-1.94,2.49Z"/></g><path class="cls-5" d="M73.37,106H54.62a5,5,0,0,1-4.85-3.79l-1.12-4.48A3,3,0,0,1,51.56,94H76.44a3,3,0,0,1,2.91,3.73l-1.12,4.48A5,5,0,0,1,73.37,106ZM51.56,96a1,1,0,0,0-1,1.24l1.12,4.49A3,3,0,0,0,54.62,104H73.37a3,3,0,0,0,2.91-2.27l1.12-4.48a1,1,0,0,0-1-1.24Z"/><path class="cls-5" d="M64,106a1,1,0,0,1-1-1V95a1,1,0,0,1,2,0v10A1,1,0,0,1,64,106Z"/><path class="cls-5" d="M60,106a1,1,0,0,1-1-.9l-1-10a1,1,0,0,1,2-.2l1,10a1,1,0,0,1-.9,1.09Z"/><path class="cls-5" d="M56,106a1,1,0,0,1-1-.8l-2-10a1,1,0,1,1,2-.39l2,10a1,1,0,0,1-.78,1.18Z"/><path class="cls-5" d="M68,106h-.1a1,1,0,0,1-.9-1.09l1-10A1,1,0,0,1,69.1,94a1,1,0,0,1,.9,1.09l-1,10A1,1,0,0,1,68,106Z"/><path class="cls-5" d="M72,106l-.2,0A1,1,0,0,1,71,104.8l2-10a1,1,0,1,1,2,.39l-2,10A1,1,0,0,1,72,106Z"/><path class="cls-5" d="M100,113H28a7,7,0,0,1-7-7V98.22A15.9,15.9,0,0,1,25.68,86.9l4.61-4.61a1,1,0,0,1,1.41,1.41L27.1,88.32a13.91,13.91,0,0,0-4.1,9.9V106a5,5,0,0,0,5,5h72a5,5,0,0,0,5-5V98.22a13.91,13.91,0,0,0-4.1-9.9l-4.61-4.61A1,1,0,0,1,97.7,82.3l4.61,4.61A15.9,15.9,0,0,1,107,98.22V106A7,7,0,0,1,100,113Z"/><path class="cls-5" d="M97,84a1,1,0,0,1-.92-.62l-3.65-8.77A14,14,0,0,0,79.5,66h-31a14,14,0,0,0-12.92,8.62l-3.65,8.77a1,1,0,0,1-1.85-.77l3.65-8.77A16,16,0,0,1,48.5,64h31a16,16,0,0,1,14.77,9.85l3.65,8.77A1,1,0,0,1,97,84Z"/><path class="cls-5" d="M88.16,87H39.83A13.18,13.18,0,0,1,34,85.64L30.55,83.9a1,1,0,1,1,.9-1.79l3.47,1.74A11.16,11.16,0,0,0,39.83,85H88.16a11.16,11.16,0,0,0,4.93-1.16l3.46-1.74a1,1,0,1,1,.9,1.79L94,85.64A13.18,13.18,0,0,1,88.16,87Z"/><path class="cls-19" d="M88.8,102h8.4a2.87,2.87,0,0,0,2.8-2.94V97.94A2.85,2.85,0,0,0,96.89,95l-8.28,1a2.77,2.77,0,0,0-1.93,1.16l-.11.16A3,3,0,0,0,88.8,102Z"/><path class="cls-3" d="M96.89,95l-8.28,1a2.77,2.77,0,0,0-1.93,1.16l-.11.16a3,3,0,0,0-.16,3.26,3,3,0,0,1,.16-.26l.11-.16A2.77,2.77,0,0,1,88.61,99l8.28-1a2.79,2.79,0,0,1,2.95,2,3,3,0,0,0,.16-.94V97.94A2.85,2.85,0,0,0,96.89,95Z"/><path class="cls-5" d="M97.2,103H88.8a3.73,3.73,0,0,1-3.35-2.08,4,4,0,0,1,.3-4.2l.11-.16A3.78,3.78,0,0,1,88.49,95l8.28-1a3.7,3.7,0,0,1,2.9.92,4,4,0,0,1,1.32,3v1.12A3.87,3.87,0,0,1,97.2,103Zm0-7H97l-8.28,1a1.78,1.78,0,0,0-1.23.75l-.11.16a2,2,0,0,0-.15,2.12,1.76,1.76,0,0,0,1.57,1h8.4A1.87,1.87,0,0,0,99,99.06V97.94a2,2,0,0,0-.65-1.49A1.71,1.71,0,0,0,97.2,96Z"/><path class="cls-19" d="M39.19,102h-8.4A2.87,2.87,0,0,1,28,99.06V97.94A2.85,2.85,0,0,1,31.1,95l8.28,1a2.77,2.77,0,0,1,1.93,1.16l.11.16A3,3,0,0,1,39.19,102Z"/><path class="cls-3" d="M31.1,98l8.28,1a2.77,2.77,0,0,1,1.93,1.16l.11.16a3,3,0,0,1,.16.26,3,3,0,0,0-.16-3.26l-.11-.16A2.77,2.77,0,0,0,39.38,96L31.1,95A2.85,2.85,0,0,0,28,97.94v1.12a3,3,0,0,0,.16.94A2.79,2.79,0,0,1,31.1,98Z"/><path class="cls-5" d="M39.19,103h-8.4A3.87,3.87,0,0,1,27,99.06V97.94a4,4,0,0,1,1.32-3,3.71,3.71,0,0,1,2.9-.92l8.28,1a3.78,3.78,0,0,1,2.63,1.57l.11.16a4,4,0,0,1,.3,4.2A3.73,3.73,0,0,1,39.19,103Zm-8.4-7a1.7,1.7,0,0,0-1.14.44A2,2,0,0,0,29,97.94v1.12a1.87,1.87,0,0,0,1.8,1.94h8.4a1.76,1.76,0,0,0,1.57-1,2,2,0,0,0-.15-2.12l-.11-.16A1.78,1.78,0,0,0,39.27,97L31,96Z"/><path class="cls-11" d="M28,80V78.5A1.5,1.5,0,0,0,26.5,77h-4A1.5,1.5,0,0,0,21,78.5v3A1.5,1.5,0,0,0,22.5,83H31A3,3,0,0,1,28,80Z"/><path class="cls-5" d="M31,84H22.5A2.5,2.5,0,0,1,20,81.5v-3A2.5,2.5,0,0,1,22.5,76h4A2.5,2.5,0,0,1,29,78.5V80a2,2,0,0,0,2,2,1,1,0,0,1,0,2Zm-8.5-6a.5.5,0,0,0-.5.5v3a.5.5,0,0,0,.5.5h5A4,4,0,0,1,27,80V78.5a.5.5,0,0,0-.5-.5Z"/><path class="cls-11" d="M100,80V78.5a1.5,1.5,0,0,1,1.5-1.5h4a1.5,1.5,0,0,1,1.5,1.5v3a1.5,1.5,0,0,1-1.5,1.5H97A3,3,0,0,0,100,80Z"/><path class="cls-5" d="M105.5,84H97a1,1,0,0,1,0-2,2,2,0,0,0,2-2V78.5a2.5,2.5,0,0,1,2.5-2.5h4a2.5,2.5,0,0,1,2.5,2.5v3A2.5,2.5,0,0,1,105.5,84Zm-5-2h5a.5.5,0,0,0,.5-.5v-3a.5.5,0,0,0-.5-.5h-4a.5.5,0,0,0-.5.5V80A4,4,0,0,1,100.46,82Z"/><rect class="cls-4" height="4" width="18" x="55" y="112"/><path class="cls-5" d="M73,117H55a1,1,0,0,1-1-1v-4a1,1,0,0,1,1-1H73a1,1,0,0,1,1,1v4A1,1,0,0,1,73,117Zm-17-2H72v-2H56Z"/></svg>