<?xml version="1.0" ?><svg data-name="003" id="_003" viewBox="0 0 128 128" xmlns="http://www.w3.org/2000/svg"><defs><style>.cls-1{opacity:0.3;}.cls-2{fill:#97c1ff;}.cls-3{fill:#eef6ff;}.cls-4{fill:#5cbeff;}.cls-5{fill:#fff;}.cls-6{fill:#6d6daa;}.cls-7{opacity:0.5;}.cls-8{fill:#1c64ba;}.cls-9{fill:#ced8ee;}.cls-10{fill:#96d7ff;}</style></defs><title/><g class="cls-1"><path class="cls-2" d="M126.69,48.66a30,30,0,0,0-23.51-25,19.69,19.69,0,0,1-10.93-6.55A37,37,0,0,0,28,32.44,21,21,0,0,1,17.11,46.11C2.94,53.47-4.15,72.57,8.76,90.5a16.6,16.6,0,0,0,6.35,4.91,20.58,20.58,0,0,1,10,10.88,28.49,28.49,0,0,0,42.62,12.64A20.06,20.06,0,0,1,84.38,116a29,29,0,0,0,36-33.79,20.08,20.08,0,0,1,2.51-14.13A29.83,29.83,0,0,0,126.69,48.66Z"/><path class="cls-3" d="M53.12,28a9,9,0,0,0-17.43-4.16,4.82,4.82,0,0,0-7.81,3.76c0,.14,0,.28,0,.41a7.19,7.19,0,0,0,2.39,14H50.77a7.19,7.19,0,0,0,2.35-14Z"/><g class="cls-1"><path class="cls-4" d="M50.77,39.6H30.29a7.22,7.22,0,0,1-7.12-6A7.19,7.19,0,0,0,30.29,42H50.77a7.19,7.19,0,0,0,7.12-8.42A7.22,7.22,0,0,1,50.77,39.6Z"/></g><path class="cls-5" d="M27.9,30.41c0-.14,0-.27,0-.41a4.82,4.82,0,0,1,7.81-3.76A9,9,0,0,1,53.12,30.4,7.22,7.22,0,0,1,57.89,36a7.13,7.13,0,0,0-4.77-8,9,9,0,0,0-17.43-4.16,4.82,4.82,0,0,0-7.81,3.76c0,.14,0,.28,0,.41a7.12,7.12,0,0,0-4.74,8A7.21,7.21,0,0,1,27.9,30.41Z"/><path class="cls-6" d="M50.77,43H30.29a8.19,8.19,0,0,1-3.4-15.66,5.82,5.82,0,0,1,8.37-5A10,10,0,0,1,54.18,27q0,.17,0,.34A8.19,8.19,0,0,1,50.77,43ZM32.7,23.8a3.81,3.81,0,0,0-3.82,3.8c0,.11,0,.22,0,.33a1,1,0,0,1-.67,1,6.19,6.19,0,0,0,2.06,12H50.77a6.19,6.19,0,0,0,2-12.06,1,1,0,0,1-.67-1.06,7.78,7.78,0,0,0,.05-.88,8,8,0,0,0-15.56-2.81,1,1,0,0,1-1.56.43A3.79,3.79,0,0,0,32.7,23.8Z"/><path class="cls-3" d="M50.77,27.6a7.25,7.25,0,0,1,2.37.4"/><path class="cls-6" d="M53.14,29a1,1,0,0,1-.33-.05,6.25,6.25,0,0,0-2-.34,1,1,0,0,1,0-2,8.23,8.23,0,0,1,2.7.45A1,1,0,0,1,53.14,29Z"/><path class="cls-3" d="M27.89,28a7.25,7.25,0,0,1,2.39-.4"/><path class="cls-6" d="M27.89,29a1,1,0,0,1-.33-1.94,8.25,8.25,0,0,1,2.72-.46,1,1,0,0,1,0,2,6.26,6.26,0,0,0-2.06.35A1,1,0,0,1,27.89,29Z"/><path class="cls-3" d="M35.66,23.81A4.83,4.83,0,0,1,37,25.38"/><path class="cls-6" d="M37,26.38a1,1,0,0,1-.89-.53,3.81,3.81,0,0,0-1-1.24A1,1,0,1,1,36.27,23a5.79,5.79,0,0,1,1.58,1.89A1,1,0,0,1,37,26.38Z"/><path class="cls-3" d="M13.1,92.5A11.29,11.29,0,0,1,34.89,87.3,6,6,0,0,1,44.66,92c0,.17,0,.34,0,.51a9,9,0,0,1-3,17.49H16A9,9,0,0,1,13.1,92.5Z"/><g class="cls-1"><path class="cls-4" d="M16,107H41.64a9,9,0,0,0,8.91-7.52A9,9,0,0,1,41.64,110H16A9,9,0,0,1,7.13,99.48,9,9,0,0,0,16,107Z"/></g><path class="cls-5" d="M44.63,95.51c0-.17,0-.34,0-.51a6,6,0,0,0-9.77-4.7A11.28,11.28,0,0,0,13.1,95.5a9,9,0,0,0-6,7,8.91,8.91,0,0,1,6-10A11.29,11.29,0,0,1,34.89,87.3,6,6,0,0,1,44.66,92c0,.17,0,.34,0,.51a8.9,8.9,0,0,1,5.92,10A9,9,0,0,0,44.63,95.51Z"/><path class="cls-6" d="M41.64,111H16a10,10,0,0,1-4-19.17q0-.3,0-.58a12.3,12.3,0,0,1,23.31-5.43,7,7,0,0,1,10.32,6,10,10,0,0,1-4,19.16ZM24.32,81A10.22,10.22,0,0,0,14.09,92.39a1,1,0,0,1-.67,1.06A8,8,0,0,0,16,109H41.64A8,8,0,0,0,44.3,93.46a1,1,0,0,1-.67-1c0-.14,0-.28,0-.43a5,5,0,0,0-8.15-3.91A1,1,0,0,1,34,87.66,10.34,10.34,0,0,0,24.32,81Z"/><path class="cls-3" d="M16,92a9.06,9.06,0,0,0-3,.5"/><path class="cls-6" d="M13.07,93.5a1,1,0,0,1-.33-1.95A10.06,10.06,0,0,1,16,91a1,1,0,1,1,0,2,8,8,0,0,0-2.64.44A1,1,0,0,1,13.07,93.5Z"/><path class="cls-3" d="M44.63,92.5a9.06,9.06,0,0,0-3-.5"/><path class="cls-6" d="M44.63,93.5a1,1,0,0,1-.33-.06A8,8,0,0,0,41.64,93a1,1,0,0,1,0-2,10.06,10.06,0,0,1,3.32.56,1,1,0,0,1-.33,1.94Z"/><path class="cls-3" d="M34.93,87.27a6,6,0,0,0-1.64,2"/><path class="cls-6" d="M33.29,90.22a1,1,0,0,1-.88-1.47,7.08,7.08,0,0,1,1.91-2.28,1,1,0,1,1,1.23,1.58,5.09,5.09,0,0,0-1.37,1.63A1,1,0,0,1,33.29,90.22Z"/><path class="cls-3" d="M87,22.66a6,6,0,0,1,11.62-2.77,3.21,3.21,0,0,1,5.21,2.51c0,.09,0,.18,0,.27A4.79,4.79,0,0,1,102.18,32H88.52A4.8,4.8,0,0,1,87,22.66Z"/><path class="cls-5" d="M87,24.66a6,6,0,0,1,11.62-2.77,3.21,3.21,0,0,1,5.21,2.51c0,.09,0,.18,0,.27a4.81,4.81,0,0,1,3.11,3.54,4.76,4.76,0,0,0-3.11-5.54c0-.09,0-.18,0-.27a3.21,3.21,0,0,0-5.21-2.51A6,6,0,0,0,87,22.66a4.76,4.76,0,0,0-3.14,5.55A4.81,4.81,0,0,1,87,24.66Z"/><g class="cls-1"><path class="cls-4" d="M102.18,30H88.52a4.81,4.81,0,0,1-4.71-3.78,4.75,4.75,0,0,0-.11,1A4.81,4.81,0,0,0,88.52,32h13.66A4.81,4.81,0,0,0,107,27.2a4.75,4.75,0,0,0-.11-1A4.81,4.81,0,0,1,102.18,30Z"/></g><path class="cls-6" d="M102.18,33H88.52a5.79,5.79,0,0,1-2.61-11v0A7,7,0,0,1,99,18.5,4.22,4.22,0,0,1,104.77,22a5.79,5.79,0,0,1-2.59,11ZM92.94,17a5,5,0,0,0-5,5,4.93,4.93,0,0,0,0,.55,1,1,0,0,1-.67,1.06A3.79,3.79,0,0,0,88.52,31h13.66a3.79,3.79,0,0,0,1.26-7.38,1,1,0,0,1-.67-1c0-.06,0-.12,0-.19a2.21,2.21,0,0,0-3.59-1.72,1,1,0,0,1-1.56-.43A5,5,0,0,0,92.94,17Z"/><path class="cls-3" d="M88.52,22.4a4.83,4.83,0,0,0-1.58.26"/><path class="cls-6" d="M86.94,23.66a1,1,0,0,1-.33-1.95,5.84,5.84,0,0,1,1.91-.32,1,1,0,0,1,0,2,3.84,3.84,0,0,0-1.25.21A1,1,0,0,1,86.94,23.66Z"/><path class="cls-3" d="M103.77,22.67a4.83,4.83,0,0,0-1.59-.27"/><path class="cls-6" d="M103.77,23.67a1,1,0,0,1-.33-.06,3.81,3.81,0,0,0-1.26-.21,1,1,0,0,1,0-2,5.8,5.8,0,0,1,1.92.33,1,1,0,0,1-.33,1.94Z"/><path class="cls-3" d="M98.6,19.88a3.22,3.22,0,0,0-.87,1"/><path class="cls-6" d="M97.72,21.92a1,1,0,0,1-.88-1.47A4.26,4.26,0,0,1,98,19.09a1,1,0,0,1,1.23,1.58,2.25,2.25,0,0,0-.6.72A1,1,0,0,1,97.72,21.92Z"/><path class="cls-5" d="M102.51,84a1,1,0,0,1-1-1,.84.84,0,0,1,.08-.38,1,1,0,0,1,.21-.33,1,1,0,0,1,.9-.27l.19,0a.94.94,0,0,1,.17.1.61.61,0,0,1,.15.12,1,1,0,0,1,.3.71,1,1,0,0,1-.3.7A.92.92,0,0,1,102.51,84Z"/><path class="cls-5" d="M100.51,88h-6a1,1,0,0,1,0-2h6a1,1,0,0,1,0,2Z"/><path class="cls-5" d="M98.51,84h-7a1,1,0,0,1,0-2h7a1,1,0,0,1,0,2Z"/><path class="cls-5" d="M90.51,88h-2a1,1,0,0,1,0-2h2a1,1,0,0,1,0,2Z"/><path class="cls-5" d="M98.51,92h-8a1,1,0,0,1,0-2h8a1,1,0,0,1,0,2Z"/><path class="cls-2" d="M21,21a1,1,0,0,1-.38-.08,1,1,0,0,1-.32-.21,1,1,0,0,1-.22-.33A1,1,0,0,1,20,20a1,1,0,0,1,.3-.71.61.61,0,0,1,.15-.12.54.54,0,0,1,.17-.09.62.62,0,0,1,.19-.06.88.88,0,0,1,.39,0,.71.71,0,0,1,.19.06.67.67,0,0,1,.17.09l.15.12a1.11,1.11,0,0,1,.22.33,1,1,0,0,1-.54,1.3A1,1,0,0,1,21,21Z"/><path class="cls-2" d="M22,17H20a1,1,0,1,1,0-2h2a1,1,0,0,1,0,2Z"/><path class="cls-2" d="M25,13H15a1,1,0,0,1,0-2H25a1,1,0,0,1,0,2Z"/><path class="cls-2" d="M16,17H12a1,1,0,0,1,0-2h4a1,1,0,0,1,0,2Z"/><path class="cls-2" d="M17,21H9a1,1,0,0,1,0-2h8a1,1,0,0,1,0,2Z"/><path class="cls-3" d="M80.77,112a8,8,0,0,1,11.88-8.85,10.49,10.49,0,0,1,18.8,5.25A7.5,7.5,0,0,1,109,123H81a5.5,5.5,0,0,1-.23-11Z"/><path class="cls-5" d="M80.77,115a7.62,7.62,0,0,1-.2-3,5.47,5.47,0,0,0-4.84,7A5.48,5.48,0,0,1,80.77,115Z"/><path class="cls-5" d="M88.51,105a8,8,0,0,1,4.14,1.16,10.49,10.49,0,0,1,18.8,5.25,7.5,7.5,0,0,1,4.9,5.62,7.49,7.49,0,0,0-4.9-8.62,10.49,10.49,0,0,0-18.8-5.25A8,8,0,0,0,80.51,110a7.72,7.72,0,0,0,.15,1.45A8,8,0,0,1,88.51,105Z"/><path class="cls-4" d="M80.77,109c0-.18-.08-.38-.11-.57,0,.2-.07.39-.09.59Z"/><g class="cls-1"><path class="cls-4" d="M109,120H81a5.5,5.5,0,0,1-5.28-4,5.44,5.44,0,0,0-.22,1.46A5.5,5.5,0,0,0,81,123h28a7.43,7.43,0,0,0,7.34-9A7.5,7.5,0,0,1,109,120Z"/></g><path class="cls-6" d="M109,124H81a6.5,6.5,0,0,1-1.42-12.84,8.52,8.52,0,0,1-.08-1.16A9,9,0,0,1,92.4,101.9a11.49,11.49,0,0,1,20,5.8A8.5,8.5,0,0,1,109,124Zm-20.5-21a7,7,0,0,0-6.77,8.76,1,1,0,0,1-.93,1.25,4.5,4.5,0,0,0,.19,9h28a6.5,6.5,0,0,0,2.12-12.64,1,1,0,0,1-.67-.84,9.49,9.49,0,0,0-17-4.75,1,1,0,0,1-1.32.25A7,7,0,0,0,88.51,103Z"/><path class="cls-6" d="M111,113.75a1,1,0,0,1-1-1.31A9.51,9.51,0,0,0,101,100a1,1,0,0,1,0-2,11.51,11.51,0,0,1,10.94,15.06A1,1,0,0,1,111,113.75Z"/><path class="cls-6" d="M84.63,114.37a1,1,0,0,1-.66-.25A4.49,4.49,0,0,0,81,113a1,1,0,0,1,0-2,6.49,6.49,0,0,1,4.28,1.61,1,1,0,0,1-.66,1.75Z"/><path class="cls-6" d="M95,106.34a1,1,0,0,1-.81-.42A7,7,0,0,0,88.51,103a1,1,0,0,1,0-2,9,9,0,0,1,7.32,3.76,1,1,0,0,1-.81,1.58Z"/><path class="cls-6" d="M71.38,37c-.47,0-1.91,0-2.19-1.16-.07-.3-.18-.76.55-1.57-.9-.57-2-1.21-3.19-1.79a1,1,0,1,1,.9-1.79,35.94,35.94,0,0,1,3.93,2.23,36.43,36.43,0,0,1,4-2.32,1,1,0,1,1,.9,1.79c-1.21.61-2.38,1.28-3.31,1.87.74.81.63,1.27.56,1.58C73.3,37,71.85,37,71.38,37Zm.28-1.24h0Z"/><path class="cls-6" d="M62.87,100c-1,0-1.65-.35-1.81-1a1.16,1.16,0,0,1,.22-1.09c-.57-.35-1.24-.72-1.91-1.06a1,1,0,0,1,.9-1.79,26.59,26.59,0,0,1,2.6,1.46A26.89,26.89,0,0,1,65.55,95a1,1,0,0,1,.9,1.78c-.7.35-1.4.75-2,1.11A1.16,1.16,0,0,1,64.69,99C64.52,99.65,63.91,100,62.87,100Zm-.07-1h0Z"/></g><path class="cls-2" d="M39,57H9L5,35h5a6,6,0,0,1,4.77,2.36l9.48,12.4A10,10,0,0,0,28.64,53Z"/><g class="cls-7"><path class="cls-6" d="M12.5,58a1,1,0,0,1-1-.82l-4-22a1,1,0,1,1,2-.36l4,22a1,1,0,0,1-.8,1.16Z"/></g><g class="cls-1"><path class="cls-8" d="M28.64,53a10,10,0,0,1-1.92-1H8.09L9,57H39Z"/></g><g class="cls-1"><path class="cls-5" d="M10,38c1.87,0,2.22.46,3.35,1.94l9.89,12.81A10,10,0,0,0,27.64,56l2.56,1H39L28.64,53a10,10,0,0,1-4.35-3.26L14.8,37.36A6,6,0,0,0,10,35H5l.55,3Z"/></g><path class="cls-6" d="M39,58H9a1,1,0,0,1-1-.82l-4-22A1,1,0,0,1,5,34h5a7,7,0,0,1,5.56,2.75l9.48,12.4A9,9,0,0,0,29,52.08l10.36,4A1,1,0,0,1,39,58ZM9.83,56H33.61l-5.34-2.05a11,11,0,0,1-4.79-3.59L14,38a5,5,0,0,0-4-2H6.2Z"/><path class="cls-2" d="M119.43,63.24a4,4,0,0,1-2.56-1.83C114.42,57.66,108.24,55,101,55H6a2,2,0,0,0-2,2v2.71a2,2,0,0,0,1.18,1.82l20,9A50,50,0,0,0,45.77,75h71.12c5,0,10.12-2.69,10.12-6h0C127,66.27,123.23,64,119.43,63.24Z"/><path class="cls-3" d="M5.18,61.53,17.29,67h109c-1.26-1.81-4.06-3.22-6.88-3.76a4,4,0,0,1-2.56-1.83C114.42,57.66,108.24,55,101,55H6a2,2,0,0,0-2,2v2.71A2,2,0,0,0,5.18,61.53Z"/><g class="cls-1"><path class="cls-8" d="M116.88,72H45.77a50,50,0,0,1-20.58-4.43l-20-9A2,2,0,0,1,4,56.82,1.68,1.68,0,0,0,4,57v2.71a2,2,0,0,0,1.18,1.82l20,9A50,50,0,0,0,45.77,75h71.12c5,0,10.12-2.69,10.12-6h0a3.25,3.25,0,0,0-.38-1.48C125.38,70.1,121.12,72,116.88,72Z"/></g><path class="cls-5" d="M6,58h95c7.24,0,13.42,2.66,15.87,6.41a4,4,0,0,0,2.56,1.83A14.84,14.84,0,0,1,122,67h4.29c-1.26-1.81-4.06-3.22-6.88-3.76a4,4,0,0,1-2.56-1.83C114.42,57.66,108.24,55,101,55H6a2,2,0,0,0-2,2v2.71c0,.05,0,.1,0,.15A2,2,0,0,1,6,58Z"/><path class="cls-6" d="M116.88,76H45.77a50.65,50.65,0,0,1-21-4.52l-20-9A3,3,0,0,1,3,59.71V57a3,3,0,0,1,3-3h95c7.42,0,14,2.69,16.71,6.87a3,3,0,0,0,1.91,1.39h0c4.17.8,8.38,3.37,8.38,6.74C128,73.13,122.14,76,116.88,76ZM6,56a1,1,0,0,0-1,1v2.71a1,1,0,0,0,.59.91l20,9A48.68,48.68,0,0,0,45.77,74h71.12c4.69,0,9.12-2.43,9.12-5,0-1.92-3-4.07-6.76-4.78A5,5,0,0,1,116,62c-2.33-3.56-8.37-6-15-6Z"/><rect class="cls-3" height="8" width="6" x="91" y="59"/><path class="cls-6" d="M97,68H91a1,1,0,0,1-1-1V59a1,1,0,0,1,1-1h6a1,1,0,0,1,1,1v8A1,1,0,0,1,97,68Zm-5-2h4V60H92Z"/><rect class="cls-3" height="8" width="6" x="27" y="59"/><path class="cls-6" d="M33,68H27a1,1,0,0,1-1-1V59a1,1,0,0,1,1-1h6a1,1,0,0,1,1,1v8A1,1,0,0,1,33,68Zm-5-2h4V60H28Z"/><path class="cls-9" d="M1,54H6l15,5A71.37,71.37,0,0,1,6,59Z"/><path class="cls-6" d="M13.33,60.39A61.46,61.46,0,0,1,5.87,60a1,1,0,0,1-.58-.29l-5-5A1,1,0,0,1,1,53H6a1,1,0,0,1,.32.05l15,5a1,1,0,0,1-.2,1.94A70.62,70.62,0,0,1,13.33,60.39ZM6.46,58a67.7,67.7,0,0,0,9.44.31L5.84,55H3.41Z"/><rect class="cls-10" height="4" rx="1.5" ry="1.5" width="3" x="47" y="59"/><path class="cls-6" d="M48.5,64A2.5,2.5,0,0,1,46,61.5v-1a2.5,2.5,0,0,1,5,0v1A2.5,2.5,0,0,1,48.5,64Zm0-4a.5.5,0,0,0-.5.5v1a.5.5,0,0,0,1,0v-1A.5.5,0,0,0,48.5,60Z"/><rect class="cls-10" height="4" rx="1.5" ry="1.5" width="3" x="54" y="59"/><path class="cls-6" d="M55.5,64A2.5,2.5,0,0,1,53,61.5v-1a2.5,2.5,0,0,1,5,0v1A2.5,2.5,0,0,1,55.5,64Zm0-4a.5.5,0,0,0-.5.5v1a.5.5,0,0,0,1,0v-1A.5.5,0,0,0,55.5,60Z"/><rect class="cls-10" height="4" rx="1.5" ry="1.5" width="3" x="61" y="59"/><path class="cls-6" d="M62.5,64A2.5,2.5,0,0,1,60,61.5v-1a2.5,2.5,0,0,1,5,0v1A2.5,2.5,0,0,1,62.5,64Zm0-4a.5.5,0,0,0-.5.5v1a.5.5,0,0,0,1,0v-1A.5.5,0,0,0,62.5,60Z"/><rect class="cls-10" height="4" rx="1.5" ry="1.5" width="3" x="68" y="59"/><path class="cls-6" d="M69.5,64A2.5,2.5,0,0,1,67,61.5v-1a2.5,2.5,0,0,1,5,0v1A2.5,2.5,0,0,1,69.5,64Zm0-4a.5.5,0,0,0-.5.5v1a.5.5,0,0,0,1,0v-1A.5.5,0,0,0,69.5,60Z"/><rect class="cls-10" height="4" rx="1.5" ry="1.5" width="3" x="75" y="59"/><path class="cls-6" d="M76.5,64A2.5,2.5,0,0,1,74,61.5v-1a2.5,2.5,0,0,1,5,0v1A2.5,2.5,0,0,1,76.5,64Zm0-4a.5.5,0,0,0-.5.5v1a.5.5,0,0,0,1,0v-1A.5.5,0,0,0,76.5,60Z"/><rect class="cls-10" height="4" rx="1.5" ry="1.5" width="3" x="82" y="59"/><path class="cls-6" d="M83.5,64A2.5,2.5,0,0,1,81,61.5v-1a2.5,2.5,0,0,1,5,0v1A2.5,2.5,0,0,1,83.5,64Zm0-4a.5.5,0,0,0-.5.5v1a.5.5,0,0,0,1,0v-1A.5.5,0,0,0,83.5,60Z"/><path class="cls-10" d="M116.87,61.41a10.2,10.2,0,0,0-2.3-2.41H105a4,4,0,0,0,4,4h9.67A4.27,4.27,0,0,1,116.87,61.41Z"/><path class="cls-6" d="M118.67,64H109a5,5,0,0,1-5-5,1,1,0,0,1,1-1h9.56a1,1,0,0,1,.61.21,11.18,11.18,0,0,1,2.53,2.66,3.27,3.27,0,0,0,1.37,1.22,1,1,0,0,1-.41,1.91Zm-12.5-4A3,3,0,0,0,109,62h7.06l0,0h0a8.89,8.89,0,0,0-1.82-2Z"/><path class="cls-10" d="M116.87,61.41a10.2,10.2,0,0,0-2.3-2.41h-5l2.4,4h6.67A4.27,4.27,0,0,1,116.87,61.41Z"/><path class="cls-6" d="M118.67,64H112a1,1,0,0,1-.86-.49l-2.4-4A1,1,0,0,1,109.6,58h5a1,1,0,0,1,.61.21,11.13,11.13,0,0,1,2.53,2.65,3.27,3.27,0,0,0,1.37,1.22,1,1,0,0,1-.41,1.91Zm-6.1-2h3.49l0,0h0a8.86,8.86,0,0,0-1.82-2h-2.85Z"/><path class="cls-9" d="M37,66H48l28.59,2.86A1.57,1.57,0,0,1,78,70.42h0A1.57,1.57,0,0,1,76.43,72H49.77a10,10,0,0,1-5.14-1.43Z"/><path class="cls-6" d="M76.43,73H49.77a11,11,0,0,1-5.66-1.57l-7.62-4.58A1,1,0,0,1,37,65H48l28.69,2.86A2.57,2.57,0,0,1,76.43,73ZM40.61,67l4.53,2.72A9,9,0,0,0,49.77,71H76.43a.57.57,0,0,0,.06-1.15L47.9,67Z"/><path class="cls-2" d="M44.41,64.55a3.64,3.64,0,0,1-1.58-1.19l-3.45-4.51A2.18,2.18,0,0,0,37.65,58H35.82L37,66H48.18Z"/><path class="cls-6" d="M48.18,67H37a1,1,0,0,1-1-.85l-1.18-8a1,1,0,0,1,1-1.15h1.83a3.19,3.19,0,0,1,2.53,1.25l3.45,4.51a2.64,2.64,0,0,0,1.15.86h0l3.77,1.45A1,1,0,0,1,48.18,67ZM37.86,65h5.26A4.63,4.63,0,0,1,42,64l-3.45-4.51a1.19,1.19,0,0,0-.94-.46H37Z"/><path class="cls-3" d="M66,72H64a1,1,0,0,0-1,1v2a1,1,0,0,0,1,1h2Z"/><path class="cls-6" d="M66,77H64a2,2,0,0,1-2-2V73a2,2,0,0,1,2-2h2a1,1,0,0,1,1,1v4A1,1,0,0,1,66,77Zm-2-4v2h1V73Z"/><path class="cls-3" d="M70.9,69.66,66,71v6l4.9,1.34A20.89,20.89,0,0,0,83,78h0V70h0A20.89,20.89,0,0,0,70.9,69.66Z"/><g class="cls-1"><path class="cls-4" d="M70.9,75.34,66,74v3l4.9,1.34A20.89,20.89,0,0,0,83,78V75A20.89,20.89,0,0,1,70.9,75.34Z"/></g><path class="cls-5" d="M70.9,69.66,66,71v3l4.9-1.34A20.89,20.89,0,0,1,83,73V70A20.89,20.89,0,0,0,70.9,69.66Z"/><path class="cls-6" d="M76.4,80.08a21.88,21.88,0,0,1-5.76-.77L65.74,78A1,1,0,0,1,65,77V71a1,1,0,0,1,.74-1l4.9-1.34h0a21.81,21.81,0,0,1,12.68.35A1,1,0,0,1,84,70v8a1,1,0,0,1-.68.95A21.87,21.87,0,0,1,76.4,80.08ZM67,76.24l4.16,1.13A19.81,19.81,0,0,0,82,77.27V70.73a19.81,19.81,0,0,0-10.84-.11L67,71.76Z"/><g class="cls-7"><path class="cls-6" d="M80,79.76a1,1,0,0,1-1-1V69.24a1,1,0,0,1,2,0v9.52A1,1,0,0,1,80,79.76Z"/></g></svg>