<?xml version="1.0" ?><svg data-name="009" height="128" id="_009" viewBox="0 0 128 128" width="128" xmlns="http://www.w3.org/2000/svg" xmlns:xlink="http://www.w3.org/1999/xlink"><defs><clipPath id="clip-path"><path d="M111.29712,104.77285A30.00059,30.00059,0,0,0,119.885,71.51159a19.68967,19.68967,0,0,1-.31386-12.73991A37.01139,37.01139,0,0,0,72.21781,12.69982,21.01331,21.01331,0,0,1,54.8441,10.81768c-13.79226-8.03168-33.72629-3.812-41.968,16.68169a16.60222,16.60222,0,0,0-.751,7.99316A20.57854,20.57854,0,0,1,8.294,49.77539a28.48779,28.48779,0,0,0,12.11866,42.774,20.05863,20.05863,0,0,1,11.37711,12.4727,29.00072,29.00072,0,0,0,47.82755,12.378,20.08025,20.08025,0,0,1,13.28285-5.4374A29.83225,29.83225,0,0,0,111.29712,104.77285Z" style="fill:none"/></clipPath></defs><title/><g style="opacity:0.30000000000000004"><path d="M111.29712,104.77285A30.00059,30.00059,0,0,0,119.885,71.51159a19.68967,19.68967,0,0,1-.31386-12.73991A37.01139,37.01139,0,0,0,72.21781,12.69982,21.01331,21.01331,0,0,1,54.8441,10.81768c-13.79226-8.03168-33.72629-3.812-41.968,16.68169a16.60222,16.60222,0,0,0-.751,7.99316A20.57854,20.57854,0,0,1,8.294,49.77539a28.48779,28.48779,0,0,0,12.11866,42.774,20.05863,20.05863,0,0,1,11.37711,12.4727,29.00072,29.00072,0,0,0,47.82755,12.378,20.08025,20.08025,0,0,1,13.28285-5.4374A29.83225,29.83225,0,0,0,111.29712,104.77285Z" style="fill:#97c1ff"/><path d="M32,49a1.26017,1.26017,0,0,1-.19043-.02.61438.61438,0,0,1-.18945-.06006.5476.5476,0,0,1-.16992-.09033A1.9526,1.9526,0,0,1,31.29,48.71a1.01394,1.01394,0,0,1,0-1.41992.91467.91467,0,0,1,.16016-.12012.5476.5476,0,0,1,.16992-.09033.6009.6009,0,0,1,.18945-.05957.93512.93512,0,0,1,.57031.05957A1.04094,1.04094,0,0,1,32.71,47.29a.98545.98545,0,0,1-.33008,1.62988A.99953.99953,0,0,1,32,49Z" style="fill:#fff"/><path d="M37,44.99951H35a1,1,0,0,1,0-2h2a1,1,0,0,1,0,2Z" style="fill:#fff"/><path d="M33,40.999H26a1,1,0,0,1,0-2h7a1,1,0,0,1,0,2Z" style="fill:#fff"/><path d="M30.999,44.999H18a1,1,0,0,1,0-2H30.999a1,1,0,1,1,0,2Z" style="fill:#fff"/><path d="M27.999,49H22a1,1,0,0,1,0-2h5.999a1,1,0,1,1,0,2Z" style="fill:#fff"/><g style="clip-path:url(#clip-path)"><rect height="55" style="fill:#89dbba" width="119.5" x="3" y="73"/><circle cx="50.25" cy="13.75" r="7.75" style="fill:#fff27d"/><polygon points="20.634 78.201 20.634 106.629 16.634 106.629 16.634 80.209 20.634 78.201" style="fill:#d6b5b0"/><path d="M20.63389,78.20121l-4,2.00781v7.30682a4.9969,4.9969,0,0,0,3.6795-3.174c.09955.08911.21429.15955.3205.24084Z" style="fill:#750000;opacity:0.2"/><path d="M37.49369,88.76921a2.973,2.973,0,0,0-4.85979-1.3616,2.97534,2.97534,0,0,0-4.88451,1.441,3.00354,3.00354,0,1,0,.2524,5.436,3.98574,3.98574,0,0,0,7.2642,0,2.96663,2.96663,0,0,0,1.36791.3444,2.99178,2.99178,0,0,0,.85979-5.8598Z" style="fill:#b1f1a8"/><path d="M36.63389,91.629a2.96648,2.96648,0,0,1-1.36792-.34442,3.9857,3.9857,0,0,1-7.26416,0A2.94931,2.94931,0,0,1,24.05,90.129a2.96952,2.96952,0,0,0-.41608,1.5,3,3,0,0,0,3,3,2.96648,2.96648,0,0,0,1.36792-.34442,3.9857,3.9857,0,0,0,7.26416,0,2.96648,2.96648,0,0,0,1.36792.34442,3,3,0,0,0,3-3,2.94109,2.94109,0,0,0-.41528-1.50153A2.98713,2.98713,0,0,1,36.63389,91.629Z" style="fill:#2c4b75;opacity:0.2"/><path d="M8.87539,87.65341a2.9768,2.9768,0,0,0-5.126,1.1952,2.99153,2.99153,0,1,0-1.9753,5.6402,2.987,2.987,0,0,0,5.3329.8352,3.99213,3.99213,0,1,0,1.7684-7.6706Z" style="fill:#b1f1a8"/><path d="M8.63389,92.629A3.9814,3.9814,0,0,1,7.107,92.324a2.987,2.987,0,0,1-5.33289-.83521,3.01666,3.01666,0,0,1-1.725-1.35828,2.96209,2.96209,0,0,0,1.725,4.35828A2.987,2.987,0,0,0,7.107,95.324a3.997,3.997,0,0,0,5.23181-5.2A3.9963,3.9963,0,0,1,8.63389,92.629Z" style="fill:#2c4b75;opacity:0.2"/><path d="M43.63389,68.629a4.99155,4.99155,0,0,0-2.242-4.1664,10.00532,10.00532,0,0,0-7.808-7.64033,6.992,6.992,0,0,0-11.31351-4.6615,7.99482,7.99482,0,0,0-14.4038,2.58331A6.96041,6.96041,0,0,0-.29711,60.698a6.99091,6.99091,0,0,0-2.0353,13.2645c-.0182.2204-.0337.4415-.0337.6665a7.99213,7.99213,0,0,0,12.324,6.7242,4.97482,4.97482,0,0,0,9.35549-.0113,4.96491,4.96491,0,0,0,7.9608-1.8736,7.98634,7.98634,0,0,0,14.1375-6.6836A4.99314,4.99314,0,0,0,43.63389,68.629Z" style="fill:#b1f1a8"/><g style="opacity:0.5"><path d="M-.29714,63.698a6.9604,6.9604,0,0,1,8.1637-5.95392,7.99483,7.99483,0,0,1,14.40381-2.58331,6.992,6.992,0,0,1,11.31354,4.6615,10.00527,10.00527,0,0,1,7.808,7.64032,5.00991,5.00991,0,0,1,2.00281,2.667,4.95437,4.95437,0,0,0-2.00281-5.66693,10.00526,10.00526,0,0,0-7.808-7.64038,6.992,6.992,0,0,0-11.31354-4.6615A7.99483,7.99483,0,0,0,7.86656,54.74405,6.9604,6.9604,0,0,0-.29714,60.698a6.99614,6.99614,0,0,0-6.069,6.931,6.94713,6.94713,0,0,0,.17426,1.4729A6.99917,6.99917,0,0,1-.29714,63.698Z" style="fill:#fff"/><path d="M41.41167,75.78464c.03.12708.04565.25916.07013.38824.0321-.16425.05432-.33185.07623-.49951C41.50835,75.70939,41.46269,75.75046,41.41167,75.78464Z" style="fill:#fff"/></g><g style="opacity:0.2"><path d="M33.63389,79.629a7.97849,7.97849,0,0,1-6.35968-3.16071,4.96492,4.96492,0,0,1-7.96082,1.8736,4.97484,4.97484,0,0,1-9.35553.01129A7.99209,7.99209,0,0,1-2.36611,71.629c0-.225.0155-.44611.03369-.6665a7.001,7.001,0,0,1-3.85944-4.8606,6.95715,6.95715,0,0,0,3.85944,7.8606c-.01819.2204-.03369.44147-.03369.6665a7.99209,7.99209,0,0,0,12.324,6.72418,4.97484,4.97484,0,0,0,9.35553-.01129,4.96492,4.96492,0,0,0,7.96082-1.8736A7.99288,7.99288,0,0,0,41.63389,74.629a7.78686,7.78686,0,0,0-.1521-1.45612A8.00026,8.00026,0,0,1,33.63389,79.629Z" style="fill:#2c4b75"/><path d="M41.41167,69.7847a7.56219,7.56219,0,0,1,.14636,2.88873,4.93993,4.93993,0,0,0,1.83661-5.54382A5.0073,5.0073,0,0,1,41.41167,69.7847Z" style="fill:#2c4b75"/></g><path d="M20.63379,107.62891h-4a.99974.99974,0,0,1-1-1v-22a1,1,0,1,1,2,0v21h2V82.62109a1,1,0,0,1,2,0v24.00781A.99974.99974,0,0,1,20.63379,107.62891Z" style="fill:#6d6daa"/><path d="M20.80664,97.45752a1.00005,1.00005,0,0,1-.53223-1.84717l3.96-2.48535a1,1,0,0,1,1.0625,1.69434l-3.96,2.48535A.99474.99474,0,0,1,20.80664,97.45752Z" style="fill:#6d6daa"/><path d="M16.63379,95.44189a1.00021,1.00021,0,0,1-.35352-.06494l-4.19336-1.58447a1.00011,1.00011,0,1,1,.707-1.87109l4.19336,1.58447a1.00035,1.00035,0,0,1-.35352,1.936Z" style="fill:#6d6daa"/><path d="M31.63379,97.62891a5.00564,5.00564,0,0,1-4.07227-2.11426,3.81286,3.81286,0,0,1-.92773.11426,4,4,0,1,1,0-8,3.8988,3.8988,0,0,1,.52832.03613,3.96566,3.96566,0,0,1,5.47168-1.49072,3.96772,3.96772,0,0,1,5.63672,1.81836,3.961,3.961,0,0,1,2.36328,3.63623,4.00427,4.00427,0,0,1-4,4,3.81875,3.81875,0,0,1-.92773-.11426A5.00293,5.00293,0,0,1,31.63379,97.62891ZM28.002,93.28467a.99914.99914,0,0,1,.90918.58447,2.9855,2.9855,0,0,0,5.44434.00049,1.00013,1.00013,0,0,1,1.36914-.47363,1.98813,1.98813,0,1,0,1.48145-3.66943.99873.99873,0,0,1-.66895-.66895,1.97352,1.97352,0,0,0-3.2334-.90723,1.00141,1.00141,0,0,1-1.33984,0,1.96953,1.96953,0,0,0-1.33008-.52148,1.99938,1.99938,0,0,0-1.91992,1.48145,1.00009,1.00009,0,0,1-1.33789.666,1.99392,1.99392,0,1,0,.167,3.61963A1.004,1.004,0,0,1,28.002,93.28467Z" style="fill:#6d6daa"/><path d="M4.63379,97.62891A3.9597,3.9597,0,0,1,.998,95.26514a3.96028,3.96028,0,0,1-2.36426-3.63623,4.00427,4.00427,0,0,1,4-4,3.8988,3.8988,0,0,1,.52832.03613,3.96926,3.96926,0,0,1,6.17383-.96973,4.99153,4.99153,0,1,1-1.90137,9.78711A3.99728,3.99728,0,0,1,4.63379,97.62891Zm-2-8a2.00229,2.00229,0,0,0-2,2A1.98206,1.98206,0,0,0,2.0625,93.53125a1.00052,1.00052,0,0,1,.66992.66992,1.97929,1.97929,0,0,0,1.90137,1.42773,2.00247,2.00247,0,0,0,1.64941-.87109.99739.99739,0,0,1,1.207-.35742,2.9922,2.9922,0,1,0,1.32422-5.749.99864.99864,0,0,1-.68945-.33691,1.96877,1.96877,0,0,0-1.49121-.68555,1.99938,1.99938,0,0,0-1.91992,1.48145,1.00009,1.00009,0,0,1-1.33789.666A1.987,1.987,0,0,0,2.63379,89.62891Z" style="fill:#6d6daa"/><path d="M33.63379,83.62891a8.90935,8.90935,0,0,1-6.167-2.45264,5.956,5.956,0,0,1-4.833,2.45264,1,1,0,1,1,0-2,3.97737,3.97737,0,0,0,3.71094-2.52979,1.00062,1.00062,0,0,1,1.72559-.23682,6.99244,6.99244,0,0,0,12.56348-4.2334,7.04593,7.04593,0,0,0-.19531-1.61523,1.00029,1.00029,0,0,1,.417-1.05957,3.995,3.995,0,0,0-.0166-6.6582,1.00084,1.00084,0,0,1-.42383-.61768,8.98009,8.98009,0,0,0-7.02539-6.875.99924.99924,0,0,1-.79883-.8667,5.99231,5.99231,0,0,0-9.69629-3.99463.99025.99025,0,0,1-.77539.207,1.00153,1.00153,0,0,1-.67773-.42871A6.9951,6.9951,0,0,0,8.83789,54.97949a1.0021,1.0021,0,0,1-1.14648.749A5.96013,5.96013,0,0,0,.69434,60.83008a1.00029,1.00029,0,0,1-.85937.85938,6.011,6.011,0,0,0-5.20117,5.93945,6.02332,6.02332,0,0,0,3.459,5.42822.9993.9993,0,0,1,.57129.98926c-.01562.19287-.03027.38574-.03027.58252a7.00818,7.00818,0,0,0,7,7,1,1,0,1,1,0,2,9.01015,9.01015,0,0,1-9-9c0-.02637,0-.05322.001-.07959a8.0329,8.0329,0,0,1-4.001-6.92041,8.021,8.021,0,0,1,6.21-7.79053A7.965,7.965,0,0,1,7.14844,53.647,8.995,8.995,0,0,1,22.48438,50.7915a7.89746,7.89746,0,0,1,4.14941-1.1626A7.99162,7.99162,0,0,1,34.46387,56a10.98442,10.98442,0,0,1,7.81348,7.86621,5.99372,5.99372,0,0,1,.2373,9.33691,8.80128,8.80128,0,0,1,.11914,1.42578A9.01015,9.01015,0,0,1,33.63379,83.62891Z" style="fill:#6d6daa"/><path d="M30.124,92.8252a1.0008,1.0008,0,0,1-.916-1.3999,3.05582,3.05582,0,0,1,5.207-.665.99993.99993,0,0,1-1.57422,1.2334,1.05549,1.05549,0,0,0-1.79883.23047A1.00029,1.00029,0,0,1,30.124,92.8252Z" style="fill:#6d6daa"/><path d="M8.876,93.74365a.99957.99957,0,0,1-.98047-1.19971,1.05664,1.05664,0,0,0-1.3418-1.22119,1,1,0,0,1-.58008-1.91406,3.05568,3.05568,0,0,1,3.88086,3.53467A.999.999,0,0,1,8.876,93.74365Z" style="fill:#6d6daa"/><path d="M18.79846,62.62548A4.00164,4.00164,0,0,0,22.63037,58.461l-.00238-.02585A6.19913,6.19913,0,0,1,18.68761,59.96a6.19913,6.19913,0,0,1-4.0534-1.19241c.00032.00875-.00059.01722-.00022.026A4.00164,4.00164,0,0,0,18.79846,62.62548Z" style="fill:#2c4b75;opacity:0.200000002980232"/><path d="M5.59944,70.48794a4.00164,4.00164,0,0,0,4.913-2.80869l.00556-.02536a6.19913,6.19913,0,0,1-4.21713.26015,6.19913,6.19913,0,0,1-3.50206-2.36379l-.00807.02468A4.00164,4.00164,0,0,0,5.59944,70.48794Z" style="fill:#2c4b75;opacity:0.200000002980232"/><path d="M14.46231,75.167a4.82215,4.82215,0,0,1-2.705-1.538,2.55944,2.55944,0,0,0-.06845.25057,3.287,3.287,0,0,0,2.83075,3.64756,3.287,3.287,0,0,0,4.05986-2.19894,2.5953,2.5953,0,0,0-.041-1.22437A4.24392,4.24392,0,0,1,14.46231,75.167Z" style="fill:#2c4b75;opacity:0.200000002980232"/><path d="M30.68543,70.38011a4.82215,4.82215,0,0,1-3.05154-.60881,2.55944,2.55944,0,0,0,.01386.25938,3.287,3.287,0,0,0,3.83466,2.57161,3.287,3.287,0,0,0,3.16178-3.36467A2.5953,2.5953,0,0,0,34.22,68.08834,4.24392,4.24392,0,0,1,30.68543,70.38011Z" style="fill:#2c4b75;opacity:0.200000002980232"/><polygon points="106 63.43 106 91.858 102 91.858 102 65.438 106 63.43" style="fill:#d6b5b0"/><path d="M106,63.42991l-4,2.00781v7.30682a4.9969,4.9969,0,0,0,3.6795-3.174c.09955.08911.21429.15955.3205.24084Z" style="fill:#750000;opacity:0.2"/><path d="M122.85979,73.99791A2.973,2.973,0,0,0,118,72.63631a2.97534,2.97534,0,0,0-4.88451,1.441,3.00354,3.00354,0,1,0,.2524,5.436,3.98574,3.98574,0,0,0,7.2642,0A2.96663,2.96663,0,0,0,122,79.85771a2.99178,2.99178,0,0,0,.85979-5.8598Z" style="fill:#b1f1a8"/><path d="M122,76.85771a2.96648,2.96648,0,0,1-1.36792-.34442,3.9857,3.9857,0,0,1-7.26416,0,2.94931,2.94931,0,0,1-3.95184-1.15558,2.96952,2.96952,0,0,0-.41608,1.5,3,3,0,0,0,3,3,2.96648,2.96648,0,0,0,1.36792-.34442,3.9857,3.9857,0,0,0,7.26416,0A2.96648,2.96648,0,0,0,122,79.85771a3,3,0,0,0,3-3,2.94109,2.94109,0,0,0-.41528-1.50153A2.98713,2.98713,0,0,1,122,76.85771Z" style="fill:#2c4b75;opacity:0.2"/><path d="M94.24149,72.88211a2.9768,2.9768,0,0,0-5.126,1.1952,2.99153,2.99153,0,1,0-1.9753,5.6402,2.987,2.987,0,0,0,5.3329.8352,3.99213,3.99213,0,1,0,1.7684-7.6706Z" style="fill:#b1f1a8"/><path d="M94,77.85771a3.9814,3.9814,0,0,1-1.52692-.305,2.987,2.987,0,0,1-5.33289-.83521,3.01666,3.01666,0,0,1-1.725-1.35828,2.96209,2.96209,0,0,0,1.725,4.35828,2.987,2.987,0,0,0,5.33289.83521,3.997,3.997,0,0,0,5.23181-5.2A3.9963,3.9963,0,0,1,94,77.85771Z" style="fill:#2c4b75;opacity:0.2"/><path d="M129,53.85771a4.99155,4.99155,0,0,0-2.242-4.1664A10.00532,10.00532,0,0,0,118.95,42.051a6.992,6.992,0,0,0-11.31351-4.6615,7.99482,7.99482,0,0,0-14.4038,2.58331A6.96041,6.96041,0,0,0,85.069,45.92671a6.99091,6.99091,0,0,0-2.0353,13.2645c-.0182.2204-.0337.4415-.0337.6665a7.99213,7.99213,0,0,0,12.324,6.7242,4.97482,4.97482,0,0,0,9.35549-.0113,4.96491,4.96491,0,0,0,7.9608-1.8736,7.98634,7.98634,0,0,0,14.1375-6.6836A4.99314,4.99314,0,0,0,129,53.85771Z" style="fill:#b1f1a8"/><g style="opacity:0.5"><path d="M85.069,48.92668a6.9604,6.9604,0,0,1,8.1637-5.95392,7.99483,7.99483,0,0,1,14.40381-2.58331A6.992,6.992,0,0,1,118.95,45.05095a10.00527,10.00527,0,0,1,7.808,7.64032,5.00991,5.00991,0,0,1,2.00281,2.667,4.95437,4.95437,0,0,0-2.00281-5.66693,10.00526,10.00526,0,0,0-7.808-7.64038,6.992,6.992,0,0,0-11.31354-4.6615,7.99483,7.99483,0,0,0-14.40381,2.58331,6.9604,6.9604,0,0,0-8.1637,5.95392,6.91165,6.91165,0,0,0-5.89471,8.40393A6.99917,6.99917,0,0,1,85.069,48.92668Z" style="fill:#fff"/><path d="M126.77777,61.01335c.03.12708.04565.25916.07013.38824.0321-.16425.05432-.33185.07623-.49951C126.87445,60.93809,126.8288,60.97917,126.77777,61.01335Z" style="fill:#fff"/></g><g style="opacity:0.2"><path d="M119,64.85771a7.97849,7.97849,0,0,1-6.35968-3.16071,4.96492,4.96492,0,0,1-7.96082,1.8736,4.97484,4.97484,0,0,1-9.35553.01129A7.99209,7.99209,0,0,1,83,56.85771c0-.225.0155-.44611.03369-.6665a7.001,7.001,0,0,1-3.85944-4.8606,6.95715,6.95715,0,0,0,3.85944,7.8606c-.01819.2204-.03369.44147-.03369.6665a7.99209,7.99209,0,0,0,12.324,6.72418,4.97484,4.97484,0,0,0,9.35553-.01129,4.96492,4.96492,0,0,0,7.96082-1.8736A7.99288,7.99288,0,0,0,127,59.85771a7.78686,7.78686,0,0,0-.1521-1.45612A8.00026,8.00026,0,0,1,119,64.85771Z" style="fill:#2c4b75"/><path d="M126.77777,55.01341a7.56219,7.56219,0,0,1,.14636,2.88873,4.93993,4.93993,0,0,0,1.83661-5.54382A5.0073,5.0073,0,0,1,126.77777,55.01341Z" style="fill:#2c4b75"/></g><path d="M106,92.85791h-4a.99974.99974,0,0,1-1-1v-22a1,1,0,0,1,2,0v21h2V67.8501a1,1,0,0,1,2,0V91.85791A.99974.99974,0,0,1,106,92.85791Z" style="fill:#6d6daa"/><path d="M106.17285,82.686a1.00005,1.00005,0,0,1-.53223-1.84717l3.96-2.48486a1,1,0,0,1,1.0625,1.69434l-3.96,2.48486A.99474.99474,0,0,1,106.17285,82.686Z" style="fill:#6d6daa"/><path d="M102,80.6709a1.00021,1.00021,0,0,1-.35352-.06494l-4.19336-1.585a1.00011,1.00011,0,1,1,.707-1.87109l4.19336,1.585A1.00035,1.00035,0,0,1,102,80.6709Z" style="fill:#6d6daa"/><path d="M117,82.85791a5.00428,5.00428,0,0,1-4.07227-2.11426A3.81875,3.81875,0,0,1,112,80.85791a4,4,0,0,1,0-8,3.89836,3.89836,0,0,1,.52832.03564A3.9958,3.9958,0,0,1,116,70.85791a3.95236,3.95236,0,0,1,2,.54541,3.96666,3.96666,0,0,1,5.63574,1.81836A3.96028,3.96028,0,0,1,126,76.85791a4.00427,4.00427,0,0,1-4,4,3.81875,3.81875,0,0,1-.92773-.11426A5.00428,5.00428,0,0,1,117,82.85791Zm-3.63184-4.34473a.99868.99868,0,0,1,.91016.585,2.98458,2.98458,0,0,0,5.44336,0,1.00013,1.00013,0,0,1,1.36914-.47363,1.98781,1.98781,0,1,0,1.48047-3.66895,1.00052,1.00052,0,0,1-.66992-.66992,1.97253,1.97253,0,0,0-3.23145-.90674,1.00141,1.00141,0,0,1-1.33984,0,1.976,1.976,0,0,0-3.25.96,1.00009,1.00009,0,0,1-1.33789.666,1.97882,1.97882,0,0,0-.74219-.147,1.99439,1.99439,0,1,0,.90918,3.7666A1.004,1.004,0,0,1,113.36816,78.51318Z" style="fill:#6d6daa"/><path d="M90,82.85791a3.9597,3.9597,0,0,1-3.63574-2.36377A3.96134,3.96134,0,0,1,84,76.85791a4.00427,4.00427,0,0,1,4-4,3.89836,3.89836,0,0,1,.52832.03564,3.96954,3.96954,0,0,1,6.17383-.96924,4.99139,4.99139,0,1,1-1.90137,9.78662A3.99774,3.99774,0,0,1,90,82.85791Zm-2-8a2.00229,2.00229,0,0,0-2,2,1.981,1.981,0,0,0,1.42871,1.90186.99956.99956,0,0,1,.66992.66992A1.9806,1.9806,0,0,0,90,80.85791a2.00073,2.00073,0,0,0,1.64844-.87109.999.999,0,0,1,1.20605-.3584,2.99214,2.99214,0,1,0,1.32617-5.748.99864.99864,0,0,1-.68945-.33691A1.97029,1.97029,0,0,0,92,72.85791a1.9995,1.9995,0,0,0-1.91992,1.481,1.00009,1.00009,0,0,1-1.33789.666A1.97882,1.97882,0,0,0,88,74.85791Z" style="fill:#6d6daa"/><path d="M100,70.85791a6.01041,6.01041,0,0,1-5.11035-2.88818A8.99277,8.99277,0,0,1,82,59.85791c0-.02637,0-.05322.001-.07959A7.98945,7.98945,0,0,1,84.21,45.06689,7.96141,7.96141,0,0,1,92.51465,38.876a8.995,8.995,0,0,1,15.33594-2.85547A7.89049,7.89049,0,0,1,112,34.85791a7.99328,7.99328,0,0,1,7.83008,6.37061,10.98069,10.98069,0,0,1,7.8125,7.86621,5.99243,5.99243,0,0,1,.23828,9.33643A8.79949,8.79949,0,0,1,128,59.85791a9.01015,9.01015,0,0,1-9,9,8.90761,8.90761,0,0,1-6.167-2.45312,5.95275,5.95275,0,0,1-7.78223,1.66113A6.00712,6.00712,0,0,1,100,70.85791ZM95.32422,65.582a1.0009,1.0009,0,0,1,.93848.65381,3.97487,3.97487,0,0,0,7.47852-.00928.99963.99963,0,0,1,1.60547-.40088,3.96458,3.96458,0,0,0,6.36426-1.498,1.00062,1.00062,0,0,1,1.72559-.23682,6.986,6.986,0,0,0,12.36816-5.84717.99948.99948,0,0,1,.416-1.06152,3.99346,3.99346,0,0,0-.01562-6.65723,1.00084,1.00084,0,0,1-.42383-.61768,8.98133,8.98133,0,0,0-7.02539-6.87549,1.00037,1.00037,0,0,1-.79883-.8667A5.99327,5.99327,0,0,0,112,36.85791a5.93348,5.93348,0,0,0-3.73926,1.313.99919.99919,0,0,1-1.45312-.22217A6.99544,6.99544,0,0,0,94.2041,40.208a1.00156,1.00156,0,0,1-1.14648.749,5.963,5.963,0,0,0-6.99707,5.10156,1.00029,1.00029,0,0,1-.85937.85938A5.99088,5.99088,0,0,0,83.459,58.28613a.9993.9993,0,0,1,.57129.98926c-.01562.19238-.03027.38574-.03027.58252a6.99244,6.99244,0,0,0,10.7832,5.8833A1.00044,1.00044,0,0,1,95.32422,65.582Z" style="fill:#6d6daa"/><path d="M115.49023,78.05371a1.00138,1.00138,0,0,1-.916-1.39941,3.05586,3.05586,0,0,1,5.207-.66553.99993.99993,0,1,1-1.57422,1.2334,1.05606,1.05606,0,0,0-1.79883.23A1.00075,1.00075,0,0,1,115.49023,78.05371Z" style="fill:#6d6daa"/><path d="M94.24219,78.97217a.99957.99957,0,0,1-.98047-1.19971,1.05664,1.05664,0,0,0-1.3418-1.22119,1,1,0,1,1-.58008-1.91406,3.05568,3.05568,0,0,1,3.88086,3.53467A.999.999,0,0,1,94.24219,78.97217Z" style="fill:#6d6daa"/><path d="M104.16457,47.85419a4.00164,4.00164,0,0,0,3.83191-4.16448l-.00238-.02585a6.56409,6.56409,0,0,1-7.99379.33247c.00032.00875-.00059.01722-.00022.026A4.00164,4.00164,0,0,0,104.16457,47.85419Z" style="fill:#2c4b75;opacity:0.200000002980232"/><path d="M90.96555,55.71665a4.00164,4.00164,0,0,0,4.913-2.80869l.00556-.02536A6.56409,6.56409,0,0,1,88.16493,50.779l-.00807.02468A4.00164,4.00164,0,0,0,90.96555,55.71665Z" style="fill:#2c4b75;opacity:0.200000002980232"/><path d="M99.82841,60.39575a4.82215,4.82215,0,0,1-2.705-1.538,2.55945,2.55945,0,0,0-.06845.25057,3.56826,3.56826,0,0,0,6.89062,1.44862,2.5953,2.5953,0,0,0-.041-1.22437A4.24392,4.24392,0,0,1,99.82841,60.39575Z" style="fill:#2c4b75;opacity:0.200000002980232"/><path d="M116.05154,55.60881A4.82215,4.82215,0,0,1,113,55a2.55946,2.55946,0,0,0,.01386.25938,3.56826,3.56826,0,0,0,6.99644-.79305,2.5953,2.5953,0,0,0-.42415-1.14928A4.24392,4.24392,0,0,1,116.05154,55.60881Z" style="fill:#2c4b75;opacity:0.200000002980232"/></g><path d="M36.06642,25.99716A9.03363,9.03363,0,0,0,18.6333,21.842,4.82018,4.82018,0,0,0,10.81995,25.6c0,.13872.00931.27513.0209.41091A7.19222,7.19222,0,0,0,13.23,40H33.71488a7.19271,7.19271,0,0,0,2.35154-14.00284Z" style="fill:#eef6ff"/><path d="M33.71486,37.59975H13.22995a7.21678,7.21678,0,0,1-7.12427-6.01792A7.19011,7.19011,0,0,0,13.22995,40H33.71486a7.19112,7.19112,0,0,0,7.12441-8.41871A7.21687,7.21687,0,0,1,33.71486,37.59975Z" style="fill:#5cbeff;opacity:0.30000000000000004"/><path d="M10.84084,28.41113c-.01157-.13579-.0209-.27222-.0209-.41094a4.82019,4.82019,0,0,1,7.81338-3.758,9.02573,9.02573,0,0,1,17.43311,4.15522,7.21554,7.21554,0,0,1,4.77285,5.58413,7.12519,7.12519,0,0,0-4.77285-7.98437,9.03363,9.03363,0,0,0-17.43311-4.15522,4.82019,4.82019,0,0,0-7.81338,3.758c0,.13872.00933.27515.0209.41094a7.12378,7.12378,0,0,0-4.73516,7.97119A7.21487,7.21487,0,0,1,10.84084,28.41113Z" style="fill:#fff"/><path d="M33.71484,41H13.22949A8.19119,8.19119,0,0,1,9.82617,25.34082a5.82414,5.82414,0,0,1,8.36621-4.95361A10.03744,10.03744,0,0,1,37.125,25c0,.11377-.002.22705-.00684.33984A8.19151,8.19151,0,0,1,33.71484,41ZM15.63965,21.7998a3.81373,3.81373,0,0,0-3.81934,3.80029c0,.10986.00781.21729.0166.32471a1.00041,1.00041,0,0,1-.666,1.02979A6.19238,6.19238,0,0,0,13.22949,39H33.71484a6.19279,6.19279,0,0,0,2.02734-12.05713,1.00127,1.00127,0,0,1-.66992-1.05566,8.03342,8.03342,0,0,0-15.50293-3.69287,1.00008,1.00008,0,0,1-1.55566.43213A3.79222,3.79222,0,0,0,15.63965,21.7998Z" style="fill:#6d6daa"/><path d="M33.71488,25.6a7.24658,7.24658,0,0,1,2.37126.39619" style="fill:#eef6ff"/><path d="M36.08594,26.99658a.99713.99713,0,0,1-.32715-.05566,6.23858,6.23858,0,0,0-2.04395-.34082,1,1,0,0,1,0-2,8.231,8.231,0,0,1,2.69824.45117,1.00015,1.00015,0,0,1-.32715,1.94531Z" style="fill:#6d6daa"/><path d="M10.83973,26.00277A7.24643,7.24643,0,0,1,13.23,25.6" style="fill:#eef6ff"/><path d="M10.83984,27.00342a1.00047,1.00047,0,0,1-.33008-1.94482,8.237,8.237,0,0,1,2.71973-.4585,1,1,0,0,1,0,2,6.234,6.234,0,0,0-2.05957.34668A.9903.9903,0,0,1,10.83984,27.00342Z" style="fill:#6d6daa"/><path d="M18.6016,21.81276a4.82565,4.82565,0,0,1,1.31087,1.56335" style="fill:#eef6ff"/><path d="M19.91309,24.376a1.00149,1.00149,0,0,1-.88672-.53516A3.82854,3.82854,0,0,0,17.98828,22.603a1.00014,1.00014,0,1,1,1.22656-1.58008,5.86459,5.86459,0,0,1,1.583,1.88818,1.00044,1.00044,0,0,1-.88477,1.46484Z" style="fill:#6d6daa"/><path d="M81.34961,110H52.001a1,1,0,0,1,0-2H81.34961a1,1,0,0,1,0,2Z" style="fill:#6d6daa"/><path d="M86.65039,110h-2.2998a1,1,0,0,1,0-2h2.2998a1,1,0,0,1,0,2Z" style="fill:#6d6daa"/><path d="M49.001,110H47a1,1,0,0,1,0-2h2.001a1,1,0,0,1,0,2Z" style="fill:#6d6daa"/><path d="M108,104H84a1,1,0,0,1,0-2h24a1,1,0,0,1,0,2Z" style="fill:#6d6daa"/><path d="M112.15137,104H111.001a1,1,0,0,1,0-2h1.15039a1,1,0,0,1,0,2Z" style="fill:#6d6daa"/><path d="M47.999,104H23.001a1,1,0,1,1,0-2H47.999a1,1,0,0,1,0,2Z" style="fill:#6d6daa"/><path d="M54,104H51a1,1,0,0,1,0-2h3a1,1,0,0,1,0,2Z" style="fill:#6d6daa"/><path d="M20.001,104H18a1,1,0,0,1,0-2h2.001a1,1,0,0,1,0,2Z" style="fill:#6d6daa"/><path d="M81,31a.838.838,0,0,1-.37988-.08008,1.03729,1.03729,0,0,1-.33008-.21,1.4878,1.4878,0,0,1-.2207-.33008,1.07667,1.07667,0,0,1,0-.76025A1.48476,1.48476,0,0,1,80.29,29.29a1.03019,1.03019,0,0,1,.33008-.21045.91681.91681,0,0,1,.75977,0,.90422.90422,0,0,1,.54.54.94226.94226,0,0,1,0,.76025,1.15386,1.15386,0,0,1-.21.33008,1.17134,1.17134,0,0,1-.33008.21A.838.838,0,0,1,81,31Z" style="fill:#fff"/><path d="M78,27H76a1,1,0,0,1,0-2h2a1,1,0,0,1,0,2Z" style="fill:#fff"/><path d="M87,22.999H80a1,1,0,0,1,0-2h7a1,1,0,0,1,0,2Z" style="fill:#fff"/><path d="M93,26.999H82.001a1,1,0,0,1,0-2H93a1,1,0,0,1,0,2Z" style="fill:#fff"/><path d="M93.001,31.00049h-8a1,1,0,0,1,0-2h8a1,1,0,0,1,0,2Z" style="fill:#fff"/><path d="M92.6297,15.58149a6.72128,6.72128,0,0,1,12.97074-3.09158,3.58635,3.58635,0,0,1,5.81336,2.79606c0,.10321-.00692.2047-.01555.30573A5.35122,5.35122,0,0,1,109.62068,26H94.37931A5.35158,5.35158,0,0,1,92.6297,15.58149Z" style="fill:#eef6ff"/><path d="M92.62969,17.81379a6.72127,6.72127,0,0,1,12.97073-3.0916,3.58638,3.58638,0,0,1,5.81338,2.796c0,.10327-.00695.20476-.01553.30578a5.36342,5.36342,0,0,1,3.47476,3.9554,5.31681,5.31681,0,0,0-3.47476-6.18776c.00858-.101.01553-.20251.01553-.30571a3.58638,3.58638,0,0,0-5.81338-2.796,6.71535,6.71535,0,0,0-12.97073,3.0916,5.31788,5.31788,0,0,0-3.50276,6.19777A5.364,5.364,0,0,1,92.62969,17.81379Z" style="fill:#fff"/><path d="M109.62066,23.7677H94.37929A5.37223,5.37223,0,0,1,89.12693,19.547,5.30286,5.30286,0,0,0,89,20.643,5.36818,5.36818,0,0,0,94.37929,26h15.24137A5.36819,5.36819,0,0,0,115,20.643a5.30157,5.30157,0,0,0-.127-1.09588A5.37218,5.37218,0,0,1,109.62066,23.7677Z" style="fill:#5cbeff;opacity:0.30000000000000004"/><path d="M109.62109,27H94.37891a6.35067,6.35067,0,0,1-2.792-12.06836c-.001-.03076-.001-.06152-.001-.09229a7.724,7.724,0,0,1,14.45313-3.76367,4.59276,4.59276,0,0,1,6.36133,3.8501A6.35051,6.35051,0,0,1,109.62109,27ZM99.31055,9.14355a5.717,5.717,0,0,0-5.72461,5.6958,5.60389,5.60389,0,0,0,.03809.63086,1.00048,1.00048,0,0,1-.66992,1.05713A4.35163,4.35163,0,0,0,94.37891,25h15.24219a4.35118,4.35118,0,0,0,1.44824-8.46387.99892.99892,0,0,1-.667-1.03076c.00586-.07275.01172-.14551.01172-.21924a2.58664,2.58664,0,0,0-4.19336-2.01172,1.00977,1.00977,0,0,1-.8877.17871.99766.99766,0,0,1-.668-.61035A5.749,5.749,0,0,0,99.31055,9.14355Z" style="fill:#6d6daa"/><path d="M94.37931,15.286a5.39166,5.39166,0,0,0-1.76428.29477" style="fill:#eef6ff"/><path d="M92.61523,16.58105a1.00027,1.00027,0,0,1-.32617-1.9458,6.39354,6.39354,0,0,1,2.08984-.34912,1,1,0,0,1,0,2,4.39212,4.39212,0,0,0-1.4375.23975A.99927.99927,0,0,1,92.61523,16.58105Z" style="fill:#6d6daa"/><path d="M111.39908,15.58566a5.39156,5.39156,0,0,0-1.7784-.2997" style="fill:#eef6ff"/><path d="M111.39941,16.58594a.99646.99646,0,0,1-.3291-.05615,4.39664,4.39664,0,0,0-1.44922-.24365,1,1,0,1,1,0-2,6.40036,6.40036,0,0,1,2.10742.355,1.00032,1.00032,0,0,1-.3291,1.94482Z" style="fill:#6d6daa"/><path d="M105.624,12.46818a3.59042,3.59042,0,0,0-.97532,1.16317" style="fill:#eef6ff"/><path d="M104.64746,14.63135a1.00026,1.00026,0,0,1-.88379-1.46631,4.62653,4.62653,0,0,1,1.24707-1.48633.99975.99975,0,1,1,1.22656,1.5791,2.61756,2.61756,0,0,0-.7041.83984A.99936.99936,0,0,1,104.64746,14.63135Z" style="fill:#6d6daa"/></g><path d="M34.8331,55.4c9.16488,0,19.83384,14.62509,19.83384,27.76613C54.66694,96.30859,44.08883,103,34.8331,103,25.57753,103,15,96.30859,15,83.16616,15,70.02512,25.12213,55.4,34.8331,55.4Z" style="fill:#97c1ff;fill-rule:evenodd"/><path d="M20.13965,82.35986A1.03882,1.03882,0,0,1,19.75,82.29a1.06549,1.06549,0,0,1-.54-.54,1.006,1.006,0,0,1-.07031-.39014A.98814.98814,0,0,1,19.21,80.98a1.0179,1.0179,0,0,1,.21973-.32031.87509.87509,0,0,1,.32031-.21973,1.0171,1.0171,0,0,1,1.08984.21973.87916.87916,0,0,1,.21973.32031.99759.99759,0,0,1,.08008.37988,1.05133,1.05133,0,0,1-.08008.39014.87739.87739,0,0,1-.21973.31982A.96752.96752,0,0,1,20.13965,82.35986Z" style="fill:#fff"/><path d="M20.13965,91.02a1.04883,1.04883,0,0,1-.38965-.08008.87637.87637,0,0,1-.32031-.22021A1.01028,1.01028,0,0,1,19.21,90.3999a.98984.98984,0,0,1-.07031-.37988.9748.9748,0,0,1,.29-.71,1.204,1.204,0,0,1,.32031-.22021,1.01633,1.01633,0,0,1,1.08984.22021.99708.99708,0,0,1,.2998.71,1.02549,1.02549,0,0,1-1,1Z" style="fill:#fff"/><path d="M28.79,82.35986a1.00645,1.00645,0,0,1-.71-.29,1.02954,1.02954,0,0,1-.29-.71,1.00619,1.00619,0,0,1,.29-.7002,1.773,1.773,0,0,1,.14941-.12988c.06055-.02979.12012-.06006.18066-.08984.05957-.02.12012-.04.18945-.06006a.93171.93171,0,0,1,.57031.06006.91922.91922,0,0,1,.33008.21973,1.01046,1.01046,0,0,1,.29.7002,1.03393,1.03393,0,0,1-.29.71,1.07677,1.07677,0,0,1-.33008.22021A.9894.9894,0,0,1,28.79,82.35986Z" style="fill:#fff"/><path d="M28.79,91.02a1.00405,1.00405,0,0,1-.71-1.71.9985.9985,0,0,1,1.08984-.21045A.96128.96128,0,0,1,29.79,90.02a.9595.9595,0,0,1-.62012.91992A.99953.99953,0,0,1,28.79,91.02Z" style="fill:#fff"/><path d="M24.46,78.04a.99953.99953,0,0,1-.37988-.08008,1.06549,1.06549,0,0,1-.54-.54A.99953.99953,0,0,1,23.46,77.04a.98153.98153,0,0,1,.2998-.71045,1.01239,1.01239,0,0,1,.32031-.21973,1.03662,1.03662,0,0,1,.58008-.0498,1.29154,1.29154,0,0,1,.18945.0498c.06055.02979.11035.06006.16992.08984a1.78125,1.78125,0,0,1,.15039.12988.97671.97671,0,0,1,.29.71045.98984.98984,0,0,1-.07031.37988,1.01028,1.01028,0,0,1-.21973.31982,1.69646,1.69646,0,0,1-.15039.12988c-.05957.03027-.10937.06006-.16992.09033-.05957.02-.12988.04-.18945.06006A1.39038,1.39038,0,0,1,24.46,78.04Z" style="fill:#fff"/><path d="M24.46,86.68994a.99953.99953,0,0,1-.37988-.08008.98563.98563,0,0,1-.32031-.21,1.85732,1.85732,0,0,1-.12988-.1499c-.03027-.06006-.06055-.12012-.08984-.18018-.02051-.06006-.04-.12012-.06055-.18018a1.38272,1.38272,0,0,1-.01953-.19971,1.01424,1.01424,0,0,1,.2998-.71.97782.97782,0,0,1,.32031-.21.96274.96274,0,0,1,.58008-.06006,1.09119,1.09119,0,0,1,.35938.1499c.0498.04.10059.08008.15039.12012a1.18093,1.18093,0,0,1,.21973.33008.98814.98814,0,0,1,.07031.37988.66232.66232,0,0,1-.02051.19971,1.12677,1.12677,0,0,1-.0498.18018A1.65424,1.65424,0,0,1,25.29,86.25a.82429.82429,0,0,1-.12012.1499c-.0498.04-.10059.08008-.15039.12012a.681.681,0,0,1-.16992.08984.71033.71033,0,0,1-.18945.06006A1.39038,1.39038,0,0,1,24.46,86.68994Z" style="fill:#fff"/><path d="M46.09961,82.35986a.71771.71771,0,0,1-.2002-.02,1.26806,1.26806,0,0,1-.17969-.0498c-.05957-.03027-.12012-.06006-.17969-.09033a1.78124,1.78124,0,0,1-.15039-.12988,1.03393,1.03393,0,0,1-.29-.71,1.01046,1.01046,0,0,1,.29-.7002,1.78124,1.78124,0,0,1,.15039-.12988l.17969-.08984c.06055-.02.12012-.04.17969-.06006a1.02434,1.02434,0,0,1,.91016.27979.99515.99515,0,0,1-.71,1.7002Z" style="fill:#fff"/><path d="M50.42969,78.04a1.00126,1.00126,0,0,1-.71-.30029,1.002,1.002,0,0,1,0-1.41016,1.03525,1.03525,0,0,1,1.41016,0,1.00551,1.00551,0,0,1-.7002,1.71045Z" style="fill:#fff"/><path d="M46.09961,91.02a1.55887,1.55887,0,0,1-.2002-.02.65979.65979,0,0,1-.17969-.06006.75629.75629,0,0,1-.17969-.09033c-.0498-.03955-.10059-.07959-.15039-.11963a1.05329,1.05329,0,0,1-.29-.71,1.03393,1.03393,0,0,1,.29-.71.77172.77172,0,0,1,.15039-.12012.75629.75629,0,0,1,.17969-.09033.64194.64194,0,0,1,.17969-.05957,1.01591,1.01591,0,0,1,.91016.27,1.02954,1.02954,0,0,1,.29.71,1.04871,1.04871,0,0,1-.29.71,1.9526,1.9526,0,0,1-.16016.11963.5476.5476,0,0,1-.16992.09033A.649.649,0,0,1,46.2998,91,1.39038,1.39038,0,0,1,46.09961,91.02Z" style="fill:#fff"/><path d="M50.42969,86.68994a1.03575,1.03575,0,0,1-.71-.29.99183.99183,0,0,1-.29-.71,1.00853,1.00853,0,0,1,.29-.71,1.03425,1.03425,0,0,1,1.41016,0,1.01843,1.01843,0,0,1,.2998.71,1.007,1.007,0,0,1-1,1Z" style="fill:#fff"/><path d="M37.4502,82.35986a1.04037,1.04037,0,0,1-.39062-.06982,1.01756,1.01756,0,0,1-.31934-.22021,1.6313,1.6313,0,0,1-.13086-.1499c-.0293-.06006-.05957-.10986-.08984-.16992a1.38026,1.38026,0,0,1-.0498-.18994.66479.66479,0,0,1-.01953-.2002.62912.62912,0,0,1,.01953-.18994,1.06828,1.06828,0,0,1,.0498-.18994c.03027-.06006.06055-.12012.08984-.16992a.627.627,0,0,1,.13086-.15039,1.01368,1.01368,0,0,1,1.40918,0,.627.627,0,0,1,.13086.15039c.0293.0498.05957.10986.08984.16992.01953.06006.04.11963.05957.18994a1.25485,1.25485,0,0,1,.02051.18994,1.39852,1.39852,0,0,1-.02051.2002c-.01953.05957-.04.12988-.05957.18994-.03027.06006-.06055.10986-.08984.16992a1.6313,1.6313,0,0,1-.13086.1499A.9653.9653,0,0,1,37.4502,82.35986Z" style="fill:#fff"/><path d="M41.76953,78.04a1.24751,1.24751,0,0,1-.18945-.02c-.07031-.02-.12988-.04-.19043-.06006-.05957-.03027-.12012-.06006-.16992-.09033a.6445.6445,0,0,1-.15039-.12988.97768.97768,0,0,1-.2998-.69971,1.00308,1.00308,0,0,1,.2998-.71045,1.03864,1.03864,0,0,1,1.09082-.21973,1.55536,1.55536,0,0,1,.16992.1001.78249.78249,0,0,1,.14941.11963.98976.98976,0,0,1,.29.71045.96447.96447,0,0,1-.29.69971,1.01756,1.01756,0,0,1-.31934.22021A1.09506,1.09506,0,0,1,41.76953,78.04Z" style="fill:#fff"/><path d="M37.4502,91.02a1.03212,1.03212,0,0,1-.71-.29,1.00521,1.00521,0,0,1-.29-.71.69574.69574,0,0,1,.01953-.2002,1.23911,1.23911,0,0,1,.0498-.18018c.03027-.06982.06055-.11963.08984-.17969a1.56927,1.56927,0,0,1,.13086-.1499,1.19876,1.19876,0,0,1,.31934-.22021,1.01975,1.01975,0,0,1,1.08984.22021,1.56927,1.56927,0,0,1,.13086.1499c.0293.06006.05957.11963.08984.17969.01953.06006.04.12012.05957.18018a1.38434,1.38434,0,0,1,.02051.2002,1.00865,1.00865,0,0,1-1,1Z" style="fill:#fff"/><path d="M41.76953,86.68994a.99719.99719,0,0,1-.7002-1.71,1.0337,1.0337,0,0,1,1.09082-.21.71638.71638,0,0,1,.16992.08984l.14941.12012a1.01394,1.01394,0,0,1,0,1.41992,1.61012,1.61012,0,0,1-.14941.12012.71638.71638,0,0,1-.16992.08984A1.05383,1.05383,0,0,1,41.76953,86.68994Z" style="fill:#fff"/><path d="M33.12012,78.04a1.39038,1.39038,0,0,1-.2002-.02c-.06055-.02-.12012-.04-.19043-.06006-.0498-.03027-.10937-.06006-.16992-.09033a1.68858,1.68858,0,0,1-.14941-.12988,1.005,1.005,0,0,1-.29-.69971,1.03162,1.03162,0,0,1,.29-.71045.98066.98066,0,0,1,1.40918,0,1,1,0,0,1,.30078.71045,1.0273,1.0273,0,0,1-1,1Z" style="fill:#fff"/><path d="M33.12012,86.68994a1.39038,1.39038,0,0,1-.2002-.02.84728.84728,0,0,1-.19043-.06006.71638.71638,0,0,1-.16992-.08984l-.14941-.12012A.74815.74815,0,0,1,32.29,86.25a1.66568,1.66568,0,0,1-.10059-.18018,1.23911,1.23911,0,0,1-.0498-.18018.69407.69407,0,0,1-.01953-.19971,1.04778,1.04778,0,0,1,.29-.71A1.03551,1.03551,0,0,1,33.5,84.77a.97361.97361,0,0,1,.31934.21,1.01526,1.01526,0,0,1,.30078.71,1.38473,1.38473,0,0,1-.02051.19971.65043.65043,0,0,1-.05957.18018.77551.77551,0,0,1-.08984.18018,1.69845,1.69845,0,0,1-.13086.1499A1.00814,1.00814,0,0,1,33.12012,86.68994Z" style="fill:#fff"/><path d="M28.79,99.66992a.61753.61753,0,0,1-.19043-.02,1.07373,1.07373,0,0,1-.18945-.05029A1.58112,1.58112,0,0,1,28.22949,99.5a.80583.80583,0,0,1-.14941-.12012,1.02954,1.02954,0,0,1-.29-.71.83028.83028,0,0,1,.08008-.37988.99083.99083,0,0,1,.21-.32031A1.01959,1.01959,0,0,1,29.16992,97.75a.91293.91293,0,0,1,.33008.21973.99083.99083,0,0,1,.21.32031.84306.84306,0,0,1,.08008.37988,1.03393,1.03393,0,0,1-.29.71,1.0667,1.0667,0,0,1-.33008.21973A.98074.98074,0,0,1,28.79,99.66992Z" style="fill:#fff"/><path d="M24.46,95.34961a.999.999,0,0,1-.37988-.07959.87637.87637,0,0,1-.32031-.22021.97487.97487,0,0,1-.2998-.7002A1.04883,1.04883,0,0,1,23.54,93.96a.87916.87916,0,0,1,.21973-.32031,1.01239,1.01239,0,0,1,.32031-.21973,1.13965,1.13965,0,0,1,.58008-.06006c.05957.02.12988.04.18945.06006.06055.02979.11035.06006.16992.08984a1.78125,1.78125,0,0,1,.15039.12988,1.0179,1.0179,0,0,1,.21973.32031,1.00352,1.00352,0,0,1,.07031.38965.99058.99058,0,0,1-.07031.38037,1.01579,1.01579,0,0,1-.21973.31982,1.78124,1.78124,0,0,1-.15039.12988c-.05957.03027-.10937.06006-.16992.09033-.05957.02-.12988.04-.18945.05957A1.32434,1.32434,0,0,1,24.46,95.34961Z" style="fill:#fff"/><path d="M46.09961,99.66992a.71771.71771,0,0,1-.2002-.02,1.27108,1.27108,0,0,1-.17969-.05029A1.57,1.57,0,0,1,45.54,99.5a.8102.8102,0,0,1-.15039-.12012,1.03393,1.03393,0,0,1-.29-.71,1.01046,1.01046,0,0,1,.29-.7002,1.78125,1.78125,0,0,1,.15039-.12988,1.54144,1.54144,0,0,1,.17969-.08984,1.27218,1.27218,0,0,1,.17969-.06006,1.02434,1.02434,0,0,1,.91016.27979,1.00619,1.00619,0,0,1,.29.7002,1.02954,1.02954,0,0,1-.29.71A1.00645,1.00645,0,0,1,46.09961,99.66992Z" style="fill:#fff"/><path d="M37.4502,99.66992a1.03122,1.03122,0,0,1-.39062-.07031,1.00818,1.00818,0,0,1-.31934-.21973.98783.98783,0,0,1-.29-.71.96557.96557,0,0,1,.29-.7002.86574.86574,0,0,1,.31934-.21973,1.01959,1.01959,0,0,1,1.08984.21973.97583.97583,0,0,1,.30078.7002.998.998,0,0,1-.30078.71A.9653.9653,0,0,1,37.4502,99.66992Z" style="fill:#fff"/><path d="M41.76953,95.34961a1.18828,1.18828,0,0,1-.18945-.02c-.07031-.01953-.12988-.03955-.19043-.05957-.05957-.03027-.12012-.06006-.16992-.09033a.65612.65612,0,0,1-.15039-.12988.979.979,0,0,1,0-1.41016.65612.65612,0,0,1,.15039-.12988c.0498-.02979.11035-.06006.16992-.08984a1.08488,1.08488,0,0,1,.19043-.05029,1.04911,1.04911,0,0,1,.58008.05029c.05957.02979.10938.06006.16992.08984a1.773,1.773,0,0,1,.14941.12988,1.002,1.002,0,0,1,0,1.41016,1.773,1.773,0,0,1-.14941.12988c-.06055.03027-.11035.06006-.16992.09033A1.09427,1.09427,0,0,1,41.76953,95.34961Z" style="fill:#fff"/><path d="M33.12012,95.34961a1.32434,1.32434,0,0,1-.2002-.02c-.06055-.01953-.12012-.03955-.19043-.05957-.05957-.03027-.10937-.06006-.16992-.09033a1.773,1.773,0,0,1-.14941-.12988,1.00619,1.00619,0,0,1-.29-.7002.69407.69407,0,0,1,.01953-.19971,1.36226,1.36226,0,0,1,.0498-.18994A.95612.95612,0,0,1,32.29,93.79a.53669.53669,0,0,1,.12012-.15039.78249.78249,0,0,1,.14941-.11963,1.55536,1.55536,0,0,1,.16992-.1001,1.85849,1.85849,0,0,1,.19043-.05029.98924.98924,0,0,1,.89941.27.89576.89576,0,0,1,.13086.15039A.56241.56241,0,0,1,34.04,93.96a.71192.71192,0,0,1,.05957.18994,1.38473,1.38473,0,0,1,.02051.19971,1.02639,1.02639,0,0,1-1,1Z" style="fill:#fff"/><path d="M20.13965,73.71a1.04883,1.04883,0,0,1-.38965-.08008A1.00435,1.00435,0,0,1,19.42969,72a.97782.97782,0,0,1,.32031-.21,1.00273,1.00273,0,0,1,1.38965.91992,1.007,1.007,0,0,1-1,1Z" style="fill:#fff"/><path d="M28.79,65.0498a1.00645,1.00645,0,0,1-.71-.29.89853.89853,0,0,1-.12012-.1499.54155.54155,0,0,1-.08984-.16992.68131.68131,0,0,1-.06055-.18994,1.26489,1.26489,0,0,1-.01953-.2002,1.00708,1.00708,0,0,1,.29-.7002,1.773,1.773,0,0,1,.14941-.12988c.06055-.02979.12012-.06006.18066-.08984.05957-.02.12012-.04.18945-.06006a.93171.93171,0,0,1,.57031.06006.91922.91922,0,0,1,.33008.21973,1.01136,1.01136,0,0,1,.29.7002,1.15665,1.15665,0,0,1-.02051.2002.67833.67833,0,0,1-.05957.18994.56241.56241,0,0,1-.08984.16992.89853.89853,0,0,1-.12012.1499,1.07677,1.07677,0,0,1-.33008.22021A.9894.9894,0,0,1,28.79,65.0498Z" style="fill:#fff"/><path d="M28.79,73.71a1.05235,1.05235,0,0,1-.71-.29.97966.97966,0,0,1-.12012-.16016.54155.54155,0,0,1-.08984-.16992.59281.59281,0,0,1-.06055-.18994A1.25284,1.25284,0,0,1,27.79,72.71a1.04778,1.04778,0,0,1,.29-.71.99747.99747,0,0,1,1.08984-.21A.9595.9595,0,0,1,29.79,72.71a1.14111,1.14111,0,0,1-.02051.18994.59144.59144,0,0,1-.05957.18994.56241.56241,0,0,1-.08984.16992.97966.97966,0,0,1-.12012.16016,1.04819,1.04819,0,0,1-.33008.21A.99953.99953,0,0,1,28.79,73.71Z" style="fill:#fff"/><path d="M24.46,69.37988a.9894.9894,0,0,1-.37988-.06982,1.21546,1.21546,0,0,1-.32031-.22021A.87739.87739,0,0,1,23.54,68.77a1.09464,1.09464,0,0,1-.08008-.39014,1.01424,1.01424,0,0,1,.2998-.71.97782.97782,0,0,1,.32031-.21.96274.96274,0,0,1,.58008-.06006,1.09119,1.09119,0,0,1,.35938.1499c.0498.04.10059.08008.15039.12012A1.188,1.188,0,0,1,25.38965,68a.98814.98814,0,0,1,.07031.37988,1.07946,1.07946,0,0,1-.07031.39014,1.01579,1.01579,0,0,1-.21973.31982.8102.8102,0,0,1-.15039.12012,1.45636,1.45636,0,0,1-.16992.1001,1.42715,1.42715,0,0,1-.18945.0498A.68105.68105,0,0,1,24.46,69.37988Z" style="fill:#fff"/><path d="M46.09961,65.0498a1.44992,1.44992,0,0,1-.2002-.00977c-.05957-.02-.11914-.04-.17969-.06006-.05957-.03027-.12012-.06006-.17969-.09033a1.69646,1.69646,0,0,1-.15039-.12988,1.002,1.002,0,0,1,0-1.41016,1.78124,1.78124,0,0,1,.15039-.12988l.17969-.08984c.06055-.02.12012-.04.17969-.06006a1.04256,1.04256,0,0,1,.91016.27979.99515.99515,0,0,1-.71,1.7002Z" style="fill:#fff"/><path d="M46.09961,73.71a1.55887,1.55887,0,0,1-.2002-.02.65979.65979,0,0,1-.17969-.06006A.77257.77257,0,0,1,45.54,73.54c-.0498-.04-.10059-.08008-.15039-.12012a1.01394,1.01394,0,0,1,0-1.41992,1.54179,1.54179,0,0,1,.15039-.12012.75385.75385,0,0,1,.17969-.08984.62816.62816,0,0,1,.17969-.06006,1.03706,1.03706,0,0,1,.91016.27,1,1,0,0,1-.71,1.71Z" style="fill:#fff"/><path d="M37.4502,65.06006a1.04984,1.04984,0,0,1-.39062-.08008,1.01756,1.01756,0,0,1-.31934-.22021.99738.99738,0,0,1-.2207-.31982,1.03918,1.03918,0,0,1-.06934-.39014.96638.96638,0,0,1,.29-.7002.87158.87158,0,0,1,.31934-.21973,1.01671,1.01671,0,0,1,1.08984.21973.97666.97666,0,0,1,.30078.7002.998.998,0,0,1-.30078.71A.9751.9751,0,0,1,37.4502,65.06006Z" style="fill:#fff"/><path d="M41.76953,60.73a1.24751,1.24751,0,0,1-.18945-.02,1.08652,1.08652,0,0,1-.19043-.06006.93536.93536,0,0,1-.16992-.08984.6461.6461,0,0,1-.15039-.13037.97768.97768,0,0,1-.2998-.69971,1.01843,1.01843,0,0,1,.2998-.71.44294.44294,0,0,1,.15039-.12012.94246.94246,0,0,1,.16992-.1001,1.15049,1.15049,0,0,1,.77051,0,1.55536,1.55536,0,0,1,.16992.1001.76756.76756,0,0,1,.14941.12012,1.00437,1.00437,0,0,1,.29.71.96447.96447,0,0,1-.29.69971,1.69678,1.69678,0,0,1-.14941.13037,1.507,1.507,0,0,1-.16992.08984A1.09506,1.09506,0,0,1,41.76953,60.73Z" style="fill:#fff"/><path d="M37.4502,73.71a1.03212,1.03212,0,0,1-.71-.29,1.17041,1.17041,0,0,1-.2207-.33008,1.07667,1.07667,0,0,1,0-.76025A.9408.9408,0,0,1,36.74023,72a.97361.97361,0,0,1,.31934-.21.99747.99747,0,0,1,1.08984.21,1,1,0,0,1-.69922,1.71Z" style="fill:#fff"/><path d="M41.76953,69.37988a.61135.61135,0,0,1-.18945-.02.62025.62025,0,0,1-.19043-.06006.55734.55734,0,0,1-.16992-.08984.626.626,0,0,1-.15039-.12012,1.0011,1.0011,0,0,1-.2998-.71.98976.98976,0,0,1,.4502-.83008.55734.55734,0,0,1,.16992-.08984.59493.59493,0,0,1,.19043-.06006.97176.97176,0,0,1,.58008.06006.71638.71638,0,0,1,.16992.08984l.14941.12012a1.00437,1.00437,0,0,1,.29.71.98783.98783,0,0,1-.29.71,1.61012,1.61012,0,0,1-.14941.12012.71638.71638,0,0,1-.16992.08984A1.09506,1.09506,0,0,1,41.76953,69.37988Z" style="fill:#fff"/><path d="M33.12012,60.73a1.39038,1.39038,0,0,1-.2002-.02.84728.84728,0,0,1-.19043-.06006,1.00272,1.00272,0,0,1-.16992-.08984l-.14941-.12012a1.04871,1.04871,0,0,1-.29-.71,1.02954,1.02954,0,0,1,.29-.71,1.5335,1.5335,0,0,1,.14941-.12012c.06055-.04.12012-.07031.16992-.1001a1.73143,1.73143,0,0,1,.19043-.0498.988.988,0,0,1,.89941.27.998.998,0,0,1,.30078.71,1.00865,1.00865,0,0,1-1,1Z" style="fill:#fff"/><path d="M33.12012,69.37988a.68105.68105,0,0,1-.2002-.02c-.06055-.01025-.12012-.03027-.19043-.0498a1.6379,1.6379,0,0,1-.16992-.1001,1.61012,1.61012,0,0,1-.14941-.12012,1.02954,1.02954,0,0,1-.29-.71,1.04778,1.04778,0,0,1,.29-.71l.14941-.12012a.71638.71638,0,0,1,.16992-.08984.8.8,0,0,1,.19043-.06006,1.00651,1.00651,0,0,1,1.2002.98.998.998,0,0,1-.30078.71A.9653.9653,0,0,1,33.12012,69.37988Z" style="fill:#fff"/><g style="opacity:0.30000000000000004"><path d="M42.3566,58.41149A32.958,32.958,0,0,1,49.606,78.10523c0,13.14245-10.57814,19.83384-19.83384,19.83384a20.78474,20.78474,0,0,1-11.54069-3.571A20.19948,20.19948,0,0,0,34.83309,103c9.25574,0,19.83384-6.69144,19.83384-19.83384C54.66693,73.6545,48.80891,63.36939,42.3566,58.41149Z" style="fill:#0070b8;fill-rule:evenodd"/><path d="M38.5,56.25a56.60409,56.60409,0,0,0-7.25,22.625c-.49951,6.25085,1.2763,16.21245,3.25,20.25,1.71438,3.50707,4.17569.34681,6.89331,2.77441A19.06245,19.06245,0,0,0,54.66693,83.16614C54.66693,71.22827,46.98322,58.56018,38.5,56.25Z" style="fill:#0070b8;fill-rule:evenodd"/></g><path d="M34.833,104C24.7334,104,14,96.69824,14,83.166,14,69.186,24.709,54.3999,34.833,54.3999a10.19055,10.19055,0,0,1,1.56934.12451A.99977.99977,0,1,1,36.09375,56.5a8.20871,8.20871,0,0,0-1.26074-.1001C25.85645,56.3999,16,70.4082,16,83.166,16,95.39893,25.70313,102,34.833,102a19.75344,19.75344,0,0,0,6.66309-1.19092.99982.99982,0,1,1,.68164,1.87988A21.76086,21.76086,0,0,1,34.833,104Z" style="fill:#6d6daa"/><ellipse cx="28.74384" cy="70.83445" rx="10.80574" ry="5.6574" style="fill:#fff;opacity:0.5" transform="translate(-47.67736 68.95618) rotate(-66.5053)"/><path d="M66.74918,33C81.18966,33,98,56.04375,98,76.74918,98,97.45681,81.3328,108,66.74918,108c-14.58336,0-31.24965-10.54319-31.24965-31.25082C35.49953,56.04375,51.44828,33,66.74918,33Z" style="fill:#ff9797;fill-rule:evenodd"/><g style="opacity:0.5"><ellipse cx="47.61598" cy="88.77259" rx="2.64297" ry="3.52963" style="fill:#fff" transform="translate(-24.38801 18.32205) rotate(-17.41649)"/><ellipse cx="57.12049" cy="97.92215" rx="2.83794" ry="3.52963" style="fill:#fff" transform="translate(-56.0494 104.56103) rotate(-63.10119)"/><ellipse cx="77.25986" cy="97.62756" rx="3.52963" ry="2.8495" style="fill:#fff" transform="translate(-33.73623 41.23523) rotate(-24.70968)"/><ellipse cx="67.24574" cy="106.06005" rx="3.52963" ry="1.47492" style="fill:#fff" transform="translate(-3.82982 2.5275) rotate(-2.09366)"/><circle cx="57.20012" cy="79.10273" r="3.52963" style="fill:#fff"/><circle cx="77.46666" cy="78.82699" r="3.52963" style="fill:#fff"/><ellipse cx="94.46246" cy="78.77206" rx="1.83079" ry="3.52963" style="fill:#fff"/><ellipse cx="56.3867" cy="59.52552" rx="3.52963" ry="3.24011" style="fill:#fff" transform="translate(-13.00413 103.20229) rotate(-78.73875)"/><ellipse cx="77.14857" cy="59.24978" rx="3.21154" ry="3.52963" style="fill:#fff" transform="translate(-11.75161 19.76311) rotate(-13.57482)"/><ellipse cx="57.62519" cy="41.6081" rx="3.52963" ry="2.5228" style="fill:#fff" transform="translate(-12.82652 32.20315) rotate(-28.22732)"/><ellipse cx="75.61902" cy="41.47886" rx="2.40622" ry="3.52963" style="fill:#fff" transform="translate(-4.78617 72.68363) rotate(-49.95677)"/><ellipse cx="86.21959" cy="89.16826" rx="3.52963" ry="2.80585" style="fill:#fff" transform="translate(-30.66722 130.66851) rotate(-65.51041)"/><circle cx="67.12659" cy="88.86376" r="3.52963" style="fill:#fff"/><ellipse cx="46.99783" cy="68.51449" rx="3.11611" ry="3.52963" style="fill:#fff"/><ellipse cx="86.47416" cy="68.79023" rx="3.16212" ry="3.52963" style="fill:#fff"/><circle cx="66.98872" cy="69.31412" r="3.52963" style="fill:#fff"/><ellipse cx="48.39658" cy="51.03642" rx="3.52963" ry="2.11652" style="fill:#fff" transform="translate(-19.26149 70.25441) rotate(-62.37776)"/><ellipse cx="39.00729" cy="79.24059" rx="1.73164" ry="3.52963" style="fill:#fff"/><ellipse cx="85.64776" cy="51.25346" rx="1.92212" ry="3.52963" style="fill:#fff" transform="translate(-13.67311 41.36298) rotate(-25.21038)"/><ellipse cx="92.74107" cy="60.83905" rx="1.51448" ry="3.52963" style="fill:#fff" transform="translate(-14.3875 32.10292) rotate(-18.24974)"/><ellipse cx="40.46277" cy="60.83905" rx="3.52963" ry="1.51448" style="fill:#fff" transform="translate(-29.98742 80.21424) rotate(-71.75026)"/><ellipse cx="66.76763" cy="50.08037" rx="3.21711" ry="3.46191" style="fill:#fff"/><ellipse cx="66.76763" cy="34.9963" rx="3.06956" ry="1.38631" style="fill:#fff"/></g><g style="opacity:0.2"><path d="M78.60345,37.745C85.38427,46.24642,90.02589,57.83573,90.02589,68.775c0,20.70765-16.66725,31.25082-31.25082,31.25082a32.74909,32.74909,0,0,1-18.18387-5.62663C46.648,103.42915,57.14891,108,66.74916,108,81.3328,108,98,97.45676,98,76.74918,98,61.76232,88.76991,45.55677,78.60345,37.745Z" style="fill:#750000;fill-rule:evenodd"/><path d="M86.87653,55.27563,83.571,55.25627a.42676.42676,0,0,0-.2978.73484L83.375,58.25c-1.59094,1.89966-1.7489,3.8915-1.8125,6.5625-.0625,2.625.23224,6.0564,2.6875,8.0625a27.95007,27.95007,0,0,0-4.66388.9165c-6.61523,2.03394-12.27789,8.189-11.61346,11.19214-2.39008,3.562-3.54614,6.89355-2.92853,8.25146,1.52954,3.36255,13.71222,7.38794,24.02258,3.951.88947-.29651,1.71765-.63147,2.51788-.98267A30.69126,30.69126,0,0,0,98,76.74915a50.6909,50.6909,0,0,0-6.27228-23.29236A10.89635,10.89635,0,0,0,86.87653,55.27563Z" style="fill:#750000;fill-rule:evenodd"/></g><path d="M66.749,109C51.11523,109,34.5,97.69678,34.5,76.749,34.5,55.002,51.07617,32,66.749,32c7.90918,0,17.01563,6.6543,23.76563,17.36621a.99976.99976,0,1,1-1.69141,1.06641C82.43555,40.29639,73.97754,34,66.749,34,52.33105,34,36.5,56.37354,36.5,76.749,36.5,96.39795,52.085,107,66.749,107a31.84168,31.84168,0,0,0,16.43359-4.67432,1,1,0,1,1,1.04688,1.7041A33.86793,33.86793,0,0,1,66.749,109Z" style="fill:#6d6daa"/><ellipse cx="57.41472" cy="56.04396" rx="17.02586" ry="8.91397" style="fill:#fff;opacity:0.5" transform="translate(-16.70065 86.77322) rotate(-66.82738)"/><path d="M90.53223,109.84912a5.22331,5.22331,0,0,1-3.708-1.74609.99355.99355,0,0,1-.26172-.4375,19.29424,19.29424,0,0,1,.00586-12.29346,1,1,0,1,1,1.91016.59277,17.162,17.162,0,0,0-.06836,10.8877,2.84365,2.84365,0,0,0,2.77734.92383,1.00018,1.00018,0,0,1,.41406,1.957A5.18321,5.18321,0,0,1,90.53223,109.84912Z" style="fill:#6d6daa"/><path d="M85.48828,108.50049a1,1,0,0,1-.83887-1.543,2.411,2.411,0,0,1,2.71875-.793,1.00016,1.00016,0,1,1-.44922,1.94922.89574.89574,0,0,0-.64551.00781A1.00149,1.00149,0,0,1,85.48828,108.50049Zm.83789-.45312v0Zm.002-.002-.001.001Zm.001-.002-.001.00146Z" style="fill:#6d6daa"/><path d="M106.10664,69.87442a10.88351,10.88351,0,0,0,2.48191-7.01755A11.054,11.054,0,0,0,97.99387,52.0053a10.938,10.938,0,0,0-7.26,19.40827,39.55825,39.55825,0,0,0-4.92209,1.33531C75.5305,76.24155,68.305,88.86092,69.66915,91.86008c1.52951,3.36251,13.71217,7.38794,24.02258,3.95109,10.87087-3.62353,15.07533-11.55816,12.7356-18.44577a9.932,9.932,0,0,0-.78364-1.7496A5.05392,5.05392,0,0,1,106.10664,69.87442Z" style="fill:#fff27d;fill-rule:evenodd"/><polygon points="91.515 58.082 88.25 57.75 87.125 53.875 91.515 53.901 91.515 58.082" style="fill:#fff27d;fill-rule:evenodd"/><g style="opacity:0.2"><path d="M105.68812,75.70322c-.63091,7.4208-5.18451,12.78767-13.46062,15.54628-8.21347,2.73787-19.24457,1.283-22.09561-2.13829-.93035,2.05156-.86144,1.87239-.46274,2.74887,1.52951,3.36251,13.71217,7.38794,24.02258,3.95109,10.87087-3.62353,15.07533-11.55816,12.7356-18.44577A9.95567,9.95567,0,0,0,105.68812,75.70322Z" style="fill:#750000;fill-rule:evenodd"/><path d="M98.60062,76.91478c2.04989,4.18082-2.15415,10.44611-9.39,13.9939s-16.014,2.48976-18.06162-.4838c-1.94253-2.821,3.40245-11.1085,10.6383-14.6563S96.55073,72.734,98.60062,76.91478Z" style="fill:#750000;fill-rule:evenodd"/></g><circle cx="95.67577" cy="59.67741" r="4.68372" style="fill:#fff;opacity:0.75"/><path d="M85.10059,98.124c-7.793,0-14.9541-2.79932-16.3418-5.8501-.63379-1.39307.0459-3.56348.72656-5.13916,2.0166-4.66309,7.94336-12.59424,16.00488-15.33252,1.07324-.36475,2.14941-.68359,3.21582-.95312A11.94707,11.94707,0,0,1,87.208,57.144a9.08744,9.08744,0,0,0-.582-1.01221c-.64551-1.02393-1.37793-2.18408-.53906-3.06348.6582-.69189,1.874-.53613,3.417-.33643a10.30988,10.30988,0,0,0,1.72656.13867,11.87545,11.87545,0,0,1,6.79395-1.86475,11.93632,11.93632,0,0,1,8.85449,19.50391h0a4.03813,4.03813,0,0,0-.36816,4.6084,10.95513,10.95513,0,0,1,.86328,1.9248,12.6665,12.6665,0,0,1-.7168,9.897c-2.15039,4.33008-6.64258,7.81738-12.64941,9.81982A28.348,28.348,0,0,1,85.10059,98.124Zm2.916-43.5459c.10352.17285.21387.34912.30078.48682.61719.978,1.25488,1.98975.73828,2.877a9.94065,9.94065,0,0,0,2.31152,12.69727,1.0001,1.0001,0,0,1-.43555,1.75488,38.73491,38.73491,0,0,0-4.79883,1.30176c-7.44434,2.5293-12.93652,9.89746-14.81152,14.23291-.90137,2.0835-.89062,3.19092-.74219,3.51709,1.19141,2.61963,12.72656,6.77246,22.7959,3.4165,5.498-1.83252,9.5791-4.96191,11.49023-8.812a10.7003,10.7003,0,0,0,.61523-8.36328,8.97932,8.97932,0,0,0-.7041-1.57373,6.02224,6.02224,0,0,1,.55762-6.874A9.939,9.939,0,0,0,92.24414,54.59668c-.61816.40186-1.499.31152-2.99609.11865C88.90039,54.67041,88.418,54.6084,88.0166,54.57813Zm18.08984,15.29639h0ZM91.15527,52.91895l-.001.00049Z" style="fill:#6d6daa"/><path d="M105.21878,62.9291c0-1.25967.76973-2.28084,3.07913-2.28084S114,61.66943,114,62.9291s-3.3927,2.28084-5.70209,2.28084" style="fill:#ffc661;fill-rule:evenodd"/><path d="M108.29785,66.21a1,1,0,0,1,0-2,8.49643,8.49643,0,0,0,4.64746-1.28076,8.49643,8.49643,0,0,0-4.64746-1.28076c-2.0791,0-2.0791.86523-2.0791,1.28076a1,1,0,0,1-2,0c0-.76953.29395-3.28076,4.0791-3.28076,2.26367,0,6.70215.99072,6.70215,3.28076S110.56152,66.21,108.29785,66.21Z" style="fill:#6d6daa"/><path d="M97.1875,63.5376a1.00008,1.00008,0,0,1-.94629-.67773,3.15386,3.15386,0,1,1,5.9707-2.03418.99966.99966,0,1,1-1.89258.64453,1.15438,1.15438,0,0,0-2.18555.74414,1.00121,1.00121,0,0,1-.94629,1.32324Z" style="fill:#6d6daa"/><path d="M98.24512,109.09473a4.20941,4.20941,0,0,1-3.542-1.90625.995.995,0,0,1-.15723-.31738c-.91211-3.13721-1.64258-7.64209.05371-11.2876a.99963.99963,0,1,1,1.8125.84375c-1.40332,3.01758-.78906,6.90967.00293,9.70654a2.345,2.345,0,0,0,2.74512.84912.99986.99986,0,1,1,.43359,1.95215A6.226,6.226,0,0,1,98.24512,109.09473Z" style="fill:#6d6daa"/><path d="M93.77539,108.50049a1,1,0,0,1-.83887-1.543,2.411,2.411,0,0,1,2.71875-.793,1.00016,1.00016,0,1,1-.44922,1.94922.89464.89464,0,0,0-.64551.00781A1.00149,1.00149,0,0,1,93.77539,108.50049Zm.83789-.45312v0Zm.002-.002-.001.001Zm.001-.002-.001.00146Z" style="fill:#6d6daa"/><path d="M99.01163,75.895c1.24558,4.0513-3.36136,9.06239-10.2899,11.19258s-14.59227-.09845-16.00278-3.0658c-1.33813-2.81507,4.56361-9.47506,11.49214-11.60525S97.76605,71.84374,99.01163,75.895Z" style="fill:#fff27d;fill-rule:evenodd"/><path d="M98.54561,74.88884c-2.183,2.57179-6.20256,5.04655-11.14372,6.56576a27.07781,27.07781,0,0,1-14.64141.442,2.86773,2.86773,0,0,0-.04148,2.1252c1.41049,2.96729,9.07421,5.19606,16.00275,3.06585s11.53546-7.14126,10.2898-11.19259A4.59608,4.59608,0,0,0,98.54561,74.88884Z" style="fill:#750000;fill-rule:evenodd;opacity:0.1"/><path d="M83.00879,88.92188c-5.2793,0-9.98535-1.93164-11.19336-4.47021a4.17988,4.17988,0,0,1,.22266-3.4834C73.502,77.64014,78.3457,73.17383,83.917,71.46045a20.44887,20.44887,0,0,1,9.20605-.76807,1.00021,1.00021,0,0,1-.33789,1.97168,18.37783,18.37783,0,0,0-8.28027.7085c-4.957,1.52393-9.38086,5.54736-10.63672,8.40137a2.39031,2.39031,0,0,0-.24609,1.81885c1.16113,2.44238,8.25781,4.55176,14.80566,2.53857C94.71,84.20068,99.11914,79.64746,98.05566,76.189a1.00022,1.00022,0,0,1,1.91211-.58789c1.42871,4.6499-3.38184,10.11523-10.95215,12.44238A20.5499,20.5499,0,0,1,83.00879,88.92188Z" style="fill:#6d6daa"/><path d="M67.61539,10.92306a3.69876,3.69876,0,0,0,2.46153,2.46155q1.84616.61538,0,1.23075a3.69876,3.69876,0,0,0-2.46153,2.46155q-.61538,1.84613-1.23078,0a3.69872,3.69872,0,0,0-2.46153-2.46155q-1.84616-.61538,0-1.23075a3.69872,3.69872,0,0,0,2.46153-2.46155Q67,9.07694,67.61539,10.92306Z" style="fill:#97c1ff"/><path d="M22,107.84613a3.69876,3.69876,0,0,0,2.46153,2.46155q1.84616.61538,0,1.23075A3.69876,3.69876,0,0,0,22,114q-.61538,1.84613-1.23078,0a3.69872,3.69872,0,0,0-2.46153-2.46155q-1.84616-.61538,0-1.23075a3.69872,3.69872,0,0,0,2.46153-2.46155Q21.38464,106,22,107.84613Z" style="fill:#ff99b1"/><path d="M108.61539,110.92308a3.69876,3.69876,0,0,0,2.46153,2.46155q1.84616.61538,0,1.23075a3.69876,3.69876,0,0,0-2.46153,2.46155q-.61538,1.84613-1.23078,0a3.69872,3.69872,0,0,0-2.46153-2.46155q-1.84616-.61538,0-1.23075a3.69872,3.69872,0,0,0,2.46153-2.46155Q108,109.07695,108.61539,110.92308Z" style="fill:#89dbba"/></svg>