<?xml version="1.0" ?><svg data-name="scenarium 10" height="128" id="scenarium_10" viewBox="0 0 128 128" width="128" xmlns="http://www.w3.org/2000/svg"><title/><g style="opacity:0.30000000000000004"><path d="M125.69988,47.64846a30.00059,30.00059,0,0,0-23.51163-25.0453,19.68967,19.68967,0,0,1-10.93264-6.54837,37.01139,37.01139,0,0,0-64.2547,15.37177A21.01331,21.01331,0,0,1,16.11875,45.10014C1.95588,52.45861-5.13974,71.559,7.76885,89.48336a16.60222,16.60222,0,0,0,6.35231,4.90944,20.57854,20.57854,0,0,1,10.01954,10.876,28.48779,28.48779,0,0,0,42.6239,12.6366,20.05863,20.05863,0,0,1,16.62372-2.94261,29.00072,29.00072,0,0,0,36.03811-33.79264A20.08025,20.08025,0,0,1,121.936,67.03853,29.83225,29.83225,0,0,0,125.69988,47.64846Z" style="fill:#c9c1f5"/><polygon points="63 118 29 118 29 72 55 72 63 80 63 118" style="fill:#eef6ff"/><path d="M63,119H29a.99974.99974,0,0,1-1-1V72a.99974.99974,0,0,1,1-1H55a.99928.99928,0,0,1,.707.293l8,8A1.00013,1.00013,0,0,1,64,80v38A.99974.99974,0,0,1,63,119Zm-33-2H62V80.41406L54.58594,73H30Z" style="fill:#6d6daa"/><polygon points="55 72 55 80 63 80 55 72" style="fill:#eef6ff"/><path d="M63,81H55a.99974.99974,0,0,1-1-1V72a.99991.99991,0,0,1,1.707-.707l8,8A.99991.99991,0,0,1,63,81Zm-7-2h4.58594L56,74.41406Z" style="fill:#6d6daa"/><path d="M43,81H40a1,1,0,0,1,0-2h3a1,1,0,0,1,0,2Z" style="fill:#939fc6"/><path d="M51,81H47a1,1,0,0,1,0-2h4a1,1,0,0,1,0,2Z" style="fill:#5cbeff"/><path d="M45,85H40a1,1,0,0,1,0-2h5a1,1,0,0,1,0,2Z" style="fill:#939fc6"/><path d="M51,85H49a1,1,0,0,1,0-2h2a1,1,0,0,1,0,2Z" style="fill:#939fc6"/><path d="M57,85H55a1,1,0,0,1,0-2h2a1,1,0,0,1,0,2Z" style="fill:#939fc6"/><path d="M57,97H52a1,1,0,0,1,0-2h5a1,1,0,0,1,0,2Z" style="fill:#939fc6"/><path d="M48,97H46a1,1,0,0,1,0-2h2a1,1,0,0,1,0,2Z" style="fill:#ff9797"/><path d="M42,97H40a1,1,0,0,1,0-2h2a1,1,0,0,1,0,2Z" style="fill:#5b6875"/><path d="M57,101H50a1,1,0,0,1,0-2h7a1,1,0,0,1,0,2Z" style="fill:#939fc6"/><path d="M46,101H40a1,1,0,0,1,0-2h6a1,1,0,0,1,0,2Z" style="fill:#939fc6"/><path d="M47,89H40a1,1,0,0,1,0-2h7a1,1,0,0,1,0,2Z" style="fill:#939fc6"/><path d="M57,89H51a1,1,0,0,1,0-2h6a1,1,0,0,1,0,2Z" style="fill:#ff9797"/><path d="M47,113H40a1,1,0,0,1,0-2h7a1,1,0,0,1,0,2Z" style="fill:#ff9797"/><path d="M57,113H51a1,1,0,0,1,0-2h6a1,1,0,0,1,0,2Z" style="fill:#939fc6"/><path d="M41,105H40a1,1,0,0,1,0-2h1a1,1,0,0,1,0,2Z" style="fill:#939fc6"/><path d="M51,105H45a1,1,0,0,1,0-2h6a1,1,0,0,1,0,2Z" style="fill:#5cbeff"/><path d="M57,105H55a1,1,0,0,1,0-2h2a1,1,0,0,1,0,2Z" style="fill:#939fc6"/><path d="M49,109H40a1,1,0,0,1,0-2h9a1,1,0,0,1,0,2Z" style="fill:#939fc6"/><path d="M57,109H53a1,1,0,0,1,0-2h4a1,1,0,0,1,0,2Z" style="fill:#5cbeff"/><path d="M43,93H40a1,1,0,0,1,0-2h3a1,1,0,0,1,0,2Z" style="fill:#5cbeff"/><path d="M57,93H47a1,1,0,0,1,0-2H57a1,1,0,0,1,0,2Z" style="fill:#939fc6"/><path d="M36,81H35a1,1,0,0,1,0-2h1a1,1,0,0,1,0,2Z" style="fill:#6d6daa"/><path d="M36,85H35a1,1,0,0,1,0-2h1a1,1,0,0,1,0,2Z" style="fill:#6d6daa"/><path d="M36,89H35a1,1,0,0,1,0-2h1a1,1,0,0,1,0,2Z" style="fill:#6d6daa"/><path d="M36,93H35a1,1,0,0,1,0-2h1a1,1,0,0,1,0,2Z" style="fill:#6d6daa"/><path d="M36,97H35a1,1,0,0,1,0-2h1a1,1,0,0,1,0,2Z" style="fill:#6d6daa"/><path d="M36,101H35a1,1,0,0,1,0-2h1a1,1,0,0,1,0,2Z" style="fill:#6d6daa"/><path d="M36,105H35a1,1,0,0,1,0-2h1a1,1,0,0,1,0,2Z" style="fill:#6d6daa"/><path d="M36,109H35a1,1,0,0,1,0-2h1a1,1,0,0,1,0,2Z" style="fill:#6d6daa"/><path d="M36,113H35a1,1,0,0,1,0-2h1a1,1,0,0,1,0,2Z" style="fill:#6d6daa"/><rect height="42" rx="2" ry="2" style="fill:#eef6ff" width="54" x="46" y="7"/><path d="M98,50H48a3.00328,3.00328,0,0,1-3-3V9a3.00328,3.00328,0,0,1,3-3H98a3.00328,3.00328,0,0,1,3,3V47A3.00328,3.00328,0,0,1,98,50ZM48,8a1.001,1.001,0,0,0-1,1V47a1.001,1.001,0,0,0,1,1H98a1.001,1.001,0,0,0,1-1V9a1.001,1.001,0,0,0-1-1Z" style="fill:#6d6daa"/><rect height="34" style="fill:#96d7ff" width="46" x="50" y="11"/><polygon points="96 45 50 45 62 31 70 39 82 23 96 45" style="fill:#b1f1a8"/><path d="M96,46H50a.99991.99991,0,0,1-.75879-1.65088l12-14A.9999.9999,0,0,1,62.707,30.293l7.18457,7.18457L81.2002,22.3999a1.01058,1.01058,0,0,1,.83789-.39893,1.00012,1.00012,0,0,1,.80566.46191l14,22A.99981.99981,0,0,1,96,46ZM52.17383,44H94.17871L81.93262,24.75684,70.7998,39.6001A.99951.99951,0,0,1,69.293,39.707L62.05664,32.4707Z" style="fill:#6d6daa"/><path d="M96,46H50a.99974.99974,0,0,1-1-1V11a.99974.99974,0,0,1,1-1H96a.99974.99974,0,0,1,1,1V45A.99974.99974,0,0,1,96,46ZM51,44H95V12H51Z" style="fill:#6d6daa"/><circle cx="60" cy="21" r="4" style="fill:#fff27d"/><path d="M60,26a5,5,0,1,1,5-5A5.00589,5.00589,0,0,1,60,26Zm0-8a3,3,0,1,0,3,3A3.00328,3.00328,0,0,0,60,18Z" style="fill:#6d6daa"/><rect height="24" rx="1.41176" ry="1.41176" style="fill:#ced8ee" width="35.29412" x="63" y="84"/><polyline points="97.88 107.586 85.797 96 75.497 96 63.414 107.586" style="fill:#eef6ff"/><path d="M63.41406,108.58594a1.00023,1.00023,0,0,1-.69238-1.72168l12.083-11.58594a1.00011,1.00011,0,0,1,1.38477,1.44336l-12.083,11.58594A.99759.99759,0,0,1,63.41406,108.58594Z" style="fill:#6d6daa"/><path d="M97.87988,108.58594a.99759.99759,0,0,1-.69238-.27832l-12.083-11.58594a1.00011,1.00011,0,0,1,1.38477-1.44336l12.083,11.58594a1.00023,1.00023,0,0,1-.69238,1.72168Z" style="fill:#6d6daa"/><path d="M97.8801,84.414l-14.3,13.71141a4.23531,4.23531,0,0,1-5.86616,0l-14.3-13.71148" style="fill:#eef6ff"/><path d="M80.64746,100.311a5.22052,5.22052,0,0,1-3.626-1.46436L62.72168,85.13574a1.00011,1.00011,0,0,1,1.38477-1.44336l14.2998,13.71143a3.22762,3.22762,0,0,0,4.48145.00049L97.1875,83.69238a1.00011,1.00011,0,0,1,1.38477,1.44336L84.27246,98.84717A5.2216,5.2216,0,0,1,80.64746,100.311Z" style="fill:#6d6daa"/><path d="M96.88281,109H64.41211A2.41469,2.41469,0,0,1,62,106.58838V85.41162A2.41469,2.41469,0,0,1,64.41211,83h32.4707a2.41448,2.41448,0,0,1,2.41113,2.41162v21.17676A2.41448,2.41448,0,0,1,96.88281,109ZM64.41211,85A.41209.41209,0,0,0,64,85.41162v21.17676A.41209.41209,0,0,0,64.41211,107h32.4707a.41188.41188,0,0,0,.41113-.41162V85.41162A.41188.41188,0,0,0,96.88281,85Z" style="fill:#6d6daa"/></g><rect height="72" rx="4" ry="4" style="fill:#939fc6" width="42.00008" x="14.0001" y="28"/><path d="M52,101H18a5.00589,5.00589,0,0,1-5-5V32a5.00589,5.00589,0,0,1,5-5H52a5.00589,5.00589,0,0,1,5,5V96A5.00589,5.00589,0,0,1,52,101ZM18,29a3.00328,3.00328,0,0,0-3,3V96a3.00328,3.00328,0,0,0,3,3H52a3.00328,3.00328,0,0,0,3-3V32a3.00328,3.00328,0,0,0-3-3Z" style="fill:#6d6daa"/><rect height="52" style="fill:#c7e9ff" width="42.00008" x="14.0001" y="36"/><g style="opacity:0.5"><polygon points="56 88 56 50 17.662 88 56 88" style="fill:#fff"/><polygon points="14 86.629 56 45 56 40 14 81.629 14 86.629" style="fill:#fff"/></g><rect height="4" style="fill:#1c64ba;opacity:0.30000000000000004" width="42.00028" x="14" y="35.9999"/><path d="M56,89H14a.99974.99974,0,0,1-1-1V36a.99974.99974,0,0,1,1-1H56a.99974.99974,0,0,1,1,1V88A.99974.99974,0,0,1,56,89ZM15,87H55V37H15Z" style="fill:#6d6daa"/><path d="M40,33H34a1,1,0,0,1,0-2h6a1,1,0,0,1,0,2Z" style="fill:#6d6daa"/><path d="M30,33a.838.838,0,0,1-.37988-.08008,1.03729,1.03729,0,0,1-.33008-.21,1.6816,1.6816,0,0,1-.12012-.1499.73882.73882,0,0,1-.08984-.18018.65357.65357,0,0,1-.06055-.18018A1.52982,1.52982,0,0,1,29,32a1,1,0,0,1,.08008-.38037.90422.90422,0,0,1,.54-.54.93278.93278,0,0,1,.56934-.05957.60664.60664,0,0,1,.19043.05957.5587.5587,0,0,1,.16992.09033c.05957.04.11035.08008.16016.12012a1.15153,1.15153,0,0,1,.21.32959A1,1,0,0,1,31,32a1.03393,1.03393,0,0,1-.29.71.95.95,0,0,1-.16016.11963.5587.5587,0,0,1-.16992.09033.62025.62025,0,0,1-.19043.06006A1.24751,1.24751,0,0,1,30,33Z" style="fill:#6d6daa"/><circle cx="35" cy="93.99951" r="3" style="fill:#8593ba"/><path d="M35,97.99951a4,4,0,1,1,4-4A4.00427,4.00427,0,0,1,35,97.99951Zm0-6a2,2,0,1,0,2,2A2.00229,2.00229,0,0,0,35,91.99951Z" style="fill:#6d6daa"/><rect height="71.99988" rx="4" ry="4" style="fill:#c7e9ff" width="41.99998" x="72.00002" y="28.00002"/><g style="opacity:0.5"><path d="M114,47.00012,72,88.6296v7.37018a4,4,0,0,0,4,4H110a4,4,0,0,0,4-4Z" style="fill:#fff"/><polygon points="114 37 72 78.63 72 83.63 114 42 114 37" style="fill:#fff"/></g><path d="M110,97H76a4,4,0,0,1-4-4v3a4.00012,4.00012,0,0,0,4,4h34a4,4,0,0,0,4-4V93A3.99989,3.99989,0,0,1,110,97Z" style="fill:#fff"/><path d="M110,28H76a4,4,0,0,0-4,4v3.00012a4,4,0,0,1,4-4h34a3.99989,3.99989,0,0,1,4,4V32A4,4,0,0,0,110,28Z" style="fill:#0070b8;opacity:0.30000000000000004"/><path d="M102,28.00012v3a2,2,0,0,1-2,2H86.00007a2,2,0,0,1-2-2v-3Z" style="fill:#939fc6"/><path d="M110,101H76a5.00589,5.00589,0,0,1-5-5V32a5.00589,5.00589,0,0,1,5-5h34a5.00589,5.00589,0,0,1,5,5V96A5.00589,5.00589,0,0,1,110,101ZM76,29a3.00328,3.00328,0,0,0-3,3V96a3.00328,3.00328,0,0,0,3,3h34a3.00328,3.00328,0,0,0,3-3V32a3.00328,3.00328,0,0,0-3-3Z" style="fill:#6d6daa"/><path d="M100,34H86a3.00328,3.00328,0,0,1-3-3V28a1,1,0,0,1,2,0v3a1.001,1.001,0,0,0,1,1h14a1.001,1.001,0,0,0,1-1V28a1,1,0,0,1,2,0v3A3.00328,3.00328,0,0,1,100,34Z" style="fill:#6d6daa"/><circle cx="64" cy="64" r="21" style="fill:#97c1ff"/><path d="M64,81.85A20.987,20.987,0,0,1,43.07947,62.425C43.04076,62.9468,43,63.46827,43,64a21,21,0,0,0,42,0c0-.53173-.04076-1.0532-.07947-1.575A20.987,20.987,0,0,1,64,81.85Z" style="fill:#2c4b75;opacity:0.2"/><path d="M64,46.15A20.987,20.987,0,0,1,84.92053,65.575C84.95924,65.0532,85,64.53173,85,64a21,21,0,0,0-42,0c0,.53173.04076,1.0532.07947,1.575A20.987,20.987,0,0,1,64,46.15Z" style="fill:#fff;opacity:0.5"/><path d="M64,86A22,22,0,1,1,86,64,22.02489,22.02489,0,0,1,64,86Zm0-42A20,20,0,1,0,84,64,20.0226,20.0226,0,0,0,64,44Z" style="fill:#6d6daa"/><path d="M52,75a.99974.99974,0,0,1-1-1V68a1,1,0,0,1,2,0v6A.99974.99974,0,0,1,52,75Z" style="fill:#fff"/><path d="M75.30273,61.00049a.99914.99914,0,0,1-.94238-.6665,10.98477,10.98477,0,0,0-20.7207,0,.99982.99982,0,1,1-1.88477-.668,12.98421,12.98421,0,0,1,24.49023,0,1.00043,1.00043,0,0,1-.94238,1.33447Z" style="fill:#fff"/><path d="M64,77a13.01858,13.01858,0,0,1-12.24512-8.666.99982.99982,0,1,1,1.88477-.668,10.98477,10.98477,0,0,0,20.7207,0,.99982.99982,0,1,1,1.88477.668A13.01858,13.01858,0,0,1,64,77Z" style="fill:#fff"/><path d="M76,61a.99974.99974,0,0,1-1-1V54a1,1,0,0,1,2,0v6A.99974.99974,0,0,1,76,61Z" style="fill:#fff"/><path d="M76,61H70a1,1,0,0,1,0-2h6a1,1,0,0,1,0,2Z" style="fill:#fff"/><path d="M58,69H52a1,1,0,0,1,0-2h6a1,1,0,0,1,0,2Z" style="fill:#fff"/><path d="M26.92308,12.3846a5.54815,5.54815,0,0,0,3.69229,3.69233q2.76925.92306,0,1.84613a5.54815,5.54815,0,0,0-3.69229,3.69233q-.92306,2.76919-1.84616,0a5.54807,5.54807,0,0,0-3.69229-3.69233q-2.76925-.92306,0-1.84613a5.54808,5.54808,0,0,0,3.69229-3.69233Q26,9.6154,26.92308,12.3846Z" style="fill:#c9c1f5"/><path d="M107.03846,107.80769a3.23642,3.23642,0,0,0,2.15384,2.15386q1.61539.53845,0,1.07691a3.23642,3.23642,0,0,0-2.15384,2.15386q-.53845,1.61536-1.07693,0a3.23638,3.23638,0,0,0-2.15384-2.15386q-1.61539-.53845,0-1.07691a3.23638,3.23638,0,0,0,2.15384-2.15386Q106.5,106.19233,107.03846,107.80769Z" style="fill:#96d7ff"/><path d="M113.61539,13.92306a3.69876,3.69876,0,0,0,2.46153,2.46155q1.84616.61538,0,1.23075a3.69876,3.69876,0,0,0-2.46153,2.46155q-.61538,1.84613-1.23078,0a3.69872,3.69872,0,0,0-2.46153-2.46155q-1.84616-.61538,0-1.23075a3.69872,3.69872,0,0,0,2.46153-2.46155Q113,12.07694,113.61539,13.92306Z" style="fill:#96d7ff"/></svg>