<?xml version="1.0" ?><svg data-name="009" height="128" id="_009" viewBox="0 0 128 128" width="128" xmlns="http://www.w3.org/2000/svg" xmlns:xlink="http://www.w3.org/1999/xlink"><defs><clipPath id="clip-path"><path d="M14.448,89.11125a26.45627,26.45627,0,0,0,23.29832,19.37114,17.42,17.42,0,0,1,10.29087,4.55325,32.80309,32.80309,0,0,0,8.77624,5.79263c14.59048,6.58639,32.90349.41407,42.10081-12.64655,6.105-8.66943,5.21377-14.44908,13.41177-22.825,9.899-10.11386,14.394-29.12509,1.15825-43.40745a14.66863,14.66863,0,0,0-6.097-3.6108,18.14434,18.14434,0,0,1-9.95023-8.43231,25.232,25.232,0,0,0-38.7493-6.48535A17.79485,17.79485,0,0,1,44.413,25.76911,25.59674,25.59674,0,0,0,16.38506,59.14949a17.612,17.612,0,0,1-.698,12.61641A26.16637,26.16637,0,0,0,14.448,89.11125Z" style="fill:none"/></clipPath></defs><title/><g style="opacity:0.30000000000000004"><path d="M14.448,89.11125a26.45627,26.45627,0,0,0,23.29832,19.37114,17.42,17.42,0,0,1,10.29087,4.55325,32.80309,32.80309,0,0,0,8.77624,5.79263c14.59048,6.58639,32.90349.41407,42.10081-12.64655,6.105-8.66943,5.21377-14.44908,13.41177-22.825,9.899-10.11386,14.394-29.12509,1.15825-43.40745a14.66863,14.66863,0,0,0-6.097-3.6108,18.14434,18.14434,0,0,1-9.95023-8.43231,25.232,25.232,0,0,0-38.7493-6.48535A17.79485,17.79485,0,0,1,44.413,25.76911,25.59674,25.59674,0,0,0,16.38506,59.14949a17.612,17.612,0,0,1-.698,12.61641A26.16637,26.16637,0,0,0,14.448,89.11125Z" style="fill:#97c1ff"/><path d="M120,65a1,1,0,0,1-.38037-.08008,1.15153,1.15153,0,0,1-.32959-.21A.98946.98946,0,0,1,119,64a1,1,0,1,1,2,0,.99146.99146,0,0,1-.29.71,1.15386,1.15386,0,0,1-.33008.21A.99953.99953,0,0,1,120,65Z" style="fill:#fff"/><path d="M117.998,69.001h-6a1,1,0,1,1,0-2h6a1,1,0,0,1,0,2Z" style="fill:#fff"/><path d="M115.99756,65h-6.999a1,1,0,1,1,0-2h6.999a1,1,0,0,1,0,2Z" style="fill:#fff"/><path d="M107.99707,69h-1.999a1,1,0,0,1,0-2h1.999a1,1,0,1,1,0,2Z" style="fill:#fff"/><path d="M115.998,73.001h-8.00049a1,1,0,0,1,0-2H115.998a1,1,0,0,1,0,2Z" style="fill:#fff"/><path d="M28,47.33008a.96947.96947,0,0,1-.7002-.29.97591.97591,0,0,1-.22021-1.08984.87637.87637,0,0,1,.22021-.32031,1.003,1.003,0,0,1,1.08008-.21973.83879.83879,0,0,1,.33008.21973,1.214,1.214,0,0,1,.21973.32031A.97741.97741,0,0,1,29,46.33008a.99042.99042,0,0,1-1,1Z" style="fill:#fff"/><path d="M29.001,51.333h-2a1,1,0,1,1,0-2h2a1,1,0,0,1,0,2Z" style="fill:#fff"/><path d="M32.001,55.334H22.00146a1,1,0,0,1,0-2H32.001a1,1,0,0,1,0,2Z" style="fill:#fff"/><path d="M23.00049,51.334H19.001a1,1,0,0,1,0-2h3.99951a1,1,0,0,1,0,2Z" style="fill:#fff"/><path d="M24.00049,47.333H16a1,1,0,0,1,0-2h8.00049a1,1,0,0,1,0,2Z" style="fill:#fff"/><path d="M8.25548,89.66438a7.52809,7.52809,0,0,1,14.52773-3.46269,4.01685,4.01685,0,0,1,6.51119,3.1317c0,.1156-.00776.22928-.01742.34243a5.99357,5.99357,0,0,1-1.99094,11.6577H10.21511A5.994,5.994,0,0,1,8.25548,89.66438Z" style="fill:#eef6ff"/><path d="M8.25547,92.16465a7.52809,7.52809,0,0,1,14.52772-3.46271,4.01689,4.01689,0,0,1,6.51121,3.13167c0,.11566-.00778.22934-.0174.34249a6.00724,6.00724,0,0,1,3.89187,4.4302A5.955,5.955,0,0,0,29.277,89.67577c.00961-.11314.0174-.22682.0174-.34241a4.01689,4.01689,0,0,0-6.51121-3.13167A7.52145,7.52145,0,0,0,8.25547,89.6644a5.95623,5.95623,0,0,0-3.92322,6.94174A6.00785,6.00785,0,0,1,8.25547,92.16465Z" style="fill:#fff"/><path d="M27.286,98.83326H10.2151a6.01711,6.01711,0,0,1-5.88285-4.72737,5.93941,5.93941,0,0,0-.14214,1.22758,6.01256,6.01256,0,0,0,6.025,6H27.286a6.01258,6.01258,0,0,0,6.02506-6,5.938,5.938,0,0,0-.14221-1.22743A6.01705,6.01705,0,0,1,27.286,98.83326Z" style="fill:#5cbeff;opacity:0.30000000000000004"/><path d="M27.28613,102.334H10.21533A6.99388,6.99388,0,0,1,7.2085,89.01074c-.00146-.05859-.002-.11816-.002-.17773a8.53128,8.53128,0,0,1,16.01611-4.0625,5.02321,5.02321,0,0,1,7.06152,4.23828,6.99269,6.99269,0,0,1-2.998,13.3252ZM15.73828,82.333a6.52342,6.52342,0,0,0-6.53174,6.5,6.61227,6.61227,0,0,0,.04248.7207.99987.99987,0,0,1-.66943,1.05664,4.99426,4.99426,0,0,0,1.63574,9.72363h17.0708a4.99373,4.99373,0,0,0,1.66113-9.71387.99967.99967,0,0,1-.6665-1.03027c.00732-.085.01367-.16992.01367-.25684a3.01571,3.01571,0,0,0-4.89014-2.34668.99987.99987,0,0,1-1.55664-.43164A6.558,6.558,0,0,0,15.73828,82.333Z" style="fill:#6d6daa"/><path d="M10.21511,89.33339a6.03887,6.03887,0,0,0-1.97607.33016" style="fill:#eef6ff"/><path d="M8.23926,90.66309a1,1,0,0,1-.32666-1.94531,7.04508,7.04508,0,0,1,2.30273-.38477,1,1,0,0,1,0,2,5.03573,5.03573,0,0,0-1.64941.27539A1.00359,1.00359,0,0,1,8.23926,90.66309Z" style="fill:#6d6daa"/><path d="M29.27791,89.66906a6.03875,6.03875,0,0,0-1.99187-.33567" style="fill:#eef6ff"/><path d="M29.27783,90.66895a.99645.99645,0,0,1-.32959-.05566,5.01121,5.01121,0,0,0-1.66211-.28027,1,1,0,1,1,0-2,7.02675,7.02675,0,0,1,2.32129.3916,1.00014,1.00014,0,0,1-.32959,1.94434Z" style="fill:#6d6daa"/><path d="M22.80962,86.17736a4.02141,4.02141,0,0,0-1.0924,1.3028" style="fill:#eef6ff"/><path d="M21.71631,88.48047a.99943.99943,0,0,1-.88428-1.46484,5.02745,5.02745,0,0,1,1.36523-1.62793.99954.99954,0,1,1,1.22461,1.58008,3.03955,3.03955,0,0,0-.81934.97754A.99909.99909,0,0,1,21.71631,88.48047Z" style="fill:#6d6daa"/><path d="M90.35448,33.8855a7.10789,7.10789,0,0,1,10.57183-7.87608,9.33792,9.33792,0,0,1,16.73858,4.67418,6.67341,6.67341,0,0,1-2.175,12.98341l-24.92725.00019a4.893,4.893,0,0,1-.20812-9.78169Z" style="fill:#eef6ff"/><path d="M90.35446,36.55644a6.78744,6.78744,0,0,1-.18023-2.64565,4.869,4.869,0,0,0-4.30994,6.22869A4.88141,4.88141,0,0,1,90.35446,36.55644Z" style="fill:#fff"/><path d="M97.23957,27.64326a7.07673,7.07673,0,0,1,3.68671,1.0371,9.33791,9.33791,0,0,1,16.73857,4.67421A6.67674,6.67674,0,0,1,122.02436,38.36a6.67121,6.67121,0,0,0-4.35949-7.6764,9.33794,9.33794,0,0,0-16.73857-4.67421,7.1104,7.1104,0,0,0-10.80808,6.08448,6.87244,6.87244,0,0,0,.13665,1.28856A7.12185,7.12185,0,0,1,97.23957,27.64326Z" style="fill:#fff"/><path d="M90.35446,31.21451c-.0426-.1642-.06765-.33481-.0996-.503-.03418.17366-.05933.35041-.08063.52836C90.23547,31.23494,90.29263,31.21712,90.35446,31.21451Z" style="fill:#5cbeff"/><path d="M115.48987,40.996l-24.92725.00016a4.89527,4.89527,0,0,1-4.69833-3.52767,4.83924,4.83924,0,0,0-.19762,1.30258,4.896,4.896,0,0,0,4.89595,4.89606l24.92725-.00016a6.61476,6.61476,0,0,0,6.53449-7.978A6.67788,6.67788,0,0,1,115.48987,40.996Z" style="fill:#5cbeff;opacity:0.30000000000000004"/><path d="M115.48975,44.667H90.5625a5.89381,5.89381,0,0,1-1.38525-11.623,7.73172,7.73172,0,0,1-.05908-.9502,8.11,8.11,0,0,1,11.55811-7.35156,10.33783,10.33783,0,0,1,17.90234,5.22656A7.673,7.673,0,0,1,115.48975,44.667Zm-18.25-18.69434a6.09757,6.09757,0,0,0-5.91748,7.66211.99988.99988,0,0,1-.92578,1.25,3.89282,3.89282,0,0,0,.166,7.78223h24.92725a5.67346,5.67346,0,0,0,1.84912-11.03809.99932.99932,0,0,1-.66846-.84277,8.33818,8.33818,0,0,0-14.94775-4.17187.99868.99868,0,0,1-1.31592.25A6.10069,6.10069,0,0,0,97.23975,25.97266Z" style="fill:#6d6daa"/><path d="M117.2583,35.541a.9991.9991,0,0,1-.95068-1.30957,8.35463,8.35463,0,0,0-7.93994-10.92969,1,1,0,0,1,0-2A10.3536,10.3536,0,0,1,118.209,34.85059,1.00044,1.00044,0,0,1,117.2583,35.541Z" style="fill:#6d6daa"/><path d="M93.78711,36.08691a.99826.99826,0,0,1-.65869-.248A3.89316,3.89316,0,0,0,90.5625,34.875a1,1,0,0,1,0-2,5.89067,5.89067,0,0,1,3.88428,1.46,1,1,0,0,1-.65967,1.752Z" style="fill:#6d6daa"/><path d="M103.03076,28.94727a.99785.99785,0,0,1-.81348-.417,6.13944,6.13944,0,0,0-4.97754-2.55762,1,1,0,0,1,0-2,8.14263,8.14263,0,0,1,6.60254,3.3916,1.00029,1.00029,0,0,1-.81152,1.583Z" style="fill:#6d6daa"/></g><path d="M35.95659,50.95259A4.39786,4.39786,0,0,0,40.809,46.5045a5.56431,5.56431,0,0,0-4.72634-5.40167.9313.9313,0,0,0-.20482-.03616l-2.631-.26192a4.39983,4.39983,0,0,0-4.93115,4.456,5.56017,5.56017,0,0,0,4.50575,5.34817l2.70982.26977A2.00454,2.00454,0,0,1,35.95659,50.95259Z" style="fill:#f9e2dc"/><path d="M39,42.40638a5.38255,5.38255,0,0,0-2.91736-1.41962.92916.92916,0,0,0-.20483-.03613l-2.63092-.262c-.08435-.00842-.16345.00446-.24689.00037v9.82159l2.53131.252a2.00354,2.00354,0,0,1,.42529.07391A4.405,4.405,0,0,0,39,49.99263Z" style="fill:#cc7e54;opacity:0.2"/><rect height="74.99988" rx="4" ry="4" style="fill:#c7e9ff" width="45.0001" x="37.00002" y="9.00002"/><g style="opacity:0.5"><path d="M82.00011,28.00012,37,69.6296V79.99978a4,4,0,0,0,4,4H78.00011a4,4,0,0,0,4-4Z" style="fill:#fff"/><polygon points="82 18 37 59.63 37 64.63 82 23 82 18" style="fill:#fff"/></g><path d="M78.00007,81H41a4,4,0,0,1-4-4v3a4.00012,4.00012,0,0,0,4,4H78.00007a4,4,0,0,0,4-4V77A3.99989,3.99989,0,0,1,78.00007,81Z" style="fill:#fff"/><path d="M78.00007,9H41a4,4,0,0,0-4,4v3.00012a4,4,0,0,1,4-4H78.00007a3.99989,3.99989,0,0,1,4,4V13A4,4,0,0,0,78.00007,9Z" style="fill:#0070b8;opacity:0.30000000000000004"/><path d="M69.00007,9.00012v3a2,2,0,0,1-2,2h-16a2,2,0,0,1-2-2v-3Z" style="fill:#939fc6"/><path d="M67,15H51a3.00328,3.00328,0,0,1-3-3V9a1,1,0,0,1,2,0v3a1.001,1.001,0,0,0,1,1H67a1.001,1.001,0,0,0,1-1V9a1,1,0,0,1,2,0v3A3.00328,3.00328,0,0,1,67,15Z" style="fill:#6d6daa"/><path d="M92.35714,89.92857s5.16554,5.19643,5.5584,7.875C98.91554,104.58929,90.862,109,82.862,109l-8.112,2.875c-2.875-2.75-11.92374-14.07143-11.92374-14.07143-4.30357,0-8.58929-3.375-11.375-6.66071A59.73742,59.73742,0,0,0,44.237,84.17857l30.763,0c-.06251-3.36609,1.56249-11.49109,7.21912-14.46429,0-.64288-.84412-1.91072-.84412-2.46429a15.74823,15.74823,0,0,1,.84411-6.46429c-7.14286-3.57143-9.69713-8.23214-9.69713-8.23214-3.33929-2.21429-4.897-6.35714-2.98624-9.875l.14286-.26786c.58929-1.10714,1.70351-1,2.81065-.39286l5.92857,3.41071L80.625,45.75l1.91782,2.09541C88.95952,48.17875,89.375,54.1875,92.25,57.5l5,8.3125c.42857,4.41071-.83929,15.04464-4.875,24.08036C92.375,89.91071,92.35714,89.91071,92.35714,89.92857Z" style="fill:#f9e2dc"/><g style="opacity:0.2"><path d="M96.75,64.3125c-.132.57064-5.814-8.05523-5.66667-7.47917C92,60.41667,95,68.5,92.875,73.25c-.986,2.204.61881,2.67519.375,3.41667-3.38834,10.3047-8.55007,16.13056-14.91964,19.16369,0,0,3.29241,1.22768,5.13393.78125A14.23715,14.23715,0,0,0,92.522,89.41071C95.45569,84.03532,98.34223,76.00183,96.75,64.3125Z" style="fill:#cc7e54"/><path d="M94.03363,105.92828c3.248-2.03312,5.35246-4.96016,4.84137-8.42828-.06594-.44959-6.261-7.11494-6.5-7.60714-.90415,2.15-6.567,6.49554-13.096,7.05357C79,97.16964,90.17035,107.72455,89,107.875Z" style="fill:#cc7e54"/><path d="M67.55395,95.58557a4.03376,4.03376,0,0,0-3.53465-2.85246l-.9609-.08356c-4.30352,0-8.82143-3.57819-11.60714-6.86384-.45983-.54561-.94822-1.08109-1.44392-1.60719H44.237a59.74038,59.74038,0,0,1,7.21425,6.96433c2.78571,3.28565,7.07147,6.66068,11.375,6.66068,0,0,10.17375,11.07146,12.92375,16.32146L79.5,110.5S68.48709,98.74079,67.55395,95.58557Z" style="fill:#cc7e54"/><path d="M72.05955,52.38584C72.97622,53.55251,75.27381,57.42857,82.41667,61c.66667-.91667,1.20164-3.71652-.41667-5s-10.52378-5.86416-10.52378-5.86416C70.06035,49.197,71.14288,51.21918,72.05955,52.38584Z" style="fill:#cc7e54"/><path d="M75.89515,88.29044a1.537,1.537,0,0,1-1.332,2.18252c-5.86425.251-19.55329.52758-22.89645-2.13963-1.54006-1.22868-6.46914-3.36083-7.4297-4.15476H74.70126A.78589.78589,0,0,1,74.66554,84,15.43188,15.43188,0,0,0,75.89515,88.29044Z" style="fill:#cc7e54"/></g><g style="opacity:0.5"><path d="M93.5,59.625,91,56c-3.43751-6.9375-4.06539-6.21426-7.83333-8.25l-2.54166-2-7.875-4.25a2.24627,2.24627,0,0,0-3.07149.91073l-.14278.2679a7.7094,7.7094,0,0,0-.43041,6.36727,7.66267,7.66267,0,0,1,.43041-1.01013l.14278-.2679a1.77617,1.77617,0,0,1,2.65591-.71426l4.5625,2.625,1.25-1.125,5.41965,3.07266C87.33457,53.662,92.50417,59.91667,94.625,62.125Z" style="fill:#fff"/><path d="M76.33961,86.51116c2.04617-7.34747,7.23707-8.98363,8.74372-15.17783-.16667-1.83333.08333-4.5,0-6.25s-2.16667-4-3.33333-.41667c-.49468.17412.21991,5.066-.25,5.33333-4.68683,2.66683-7.37007,9.99116-6.83446,14a.78508.78508,0,0,0,.03575.17853h-.03575A6.962,6.962,0,0,1,76.33961,86.51116Z" style="fill:#fff"/></g><g style="opacity:0.2"><path d="M82,69.71429V67.92857H78.74922C73.375,69.25,71.375,74.75,70.375,78c-.53524,1.73954-1,5.63979-4.5,5.63979-.97393,0,6.38793,1.304,7.36084,1.25938a1.83178,1.83178,0,0,0,.86168-.23852c1.03461-.6224.46833-2.79892.61413-3.9028A17.78632,17.78632,0,0,1,75.90893,76.311C77.06273,73.51786,79.04342,70.75495,82,69.71429Z" style="fill:#2c4b75"/><path d="M70.64288,50.2162c-3.72024,6.77083,7.51968,10.71832,6.2548,16.96832-1.35469,6.69374,4.8791.0744,5.10232.0744s.14881-6.10119.14881-6.10119S71.90776,54.53168,70.64288,50.2162Z" style="fill:#2c4b75"/><path d="M42.36929,69.8128a6.79169,6.79169,0,0,0,1.39-3.60495c.01541-.19462.02942-.37771.02942-.57618a6.75394,6.75394,0,0,0-2.0865-4.93327c.11136-.10539.23332-.19337.3383-.30847a6.73393,6.73393,0,0,0,1.74821-4.60479A4.58981,4.58981,0,0,0,40.923,51.49937c-3.642-1.79167-9.739-.84821-9.90157-.66667a7.52053,7.52053,0,0,0-1.47748,4.95243,6.72817,6.72817,0,0,0,2.08545,4.91894c-.1139.10779-.23822.19789-.34568.31588a6.81883,6.81883,0,0,0-1.73977,4.61172,6.60127,6.60127,0,0,0,3.0746,5.668,6.758,6.758,0,0,0-1.42445,4.17853A5.98223,5.98223,0,0,0,37.1181,81.7h2.39538a5.30066,5.30066,0,0,0,1.40361-.18693,5.70839,5.70839,0,0,0,2.7806-1.72314,6.0811,6.0811,0,0,0,1.7398-4.31172A6.60347,6.60347,0,0,0,42.36929,69.8128Z" style="fill:#2c4b75"/></g><path d="M35.53129,60.72525a1.39874,1.39874,0,0,1,.252.04086,4.37728,4.37728,0,0,0,4.67912-4.44957,5.57726,5.57726,0,0,0-4.50585-5.36395l-2.70972-.26976a2.00543,2.00543,0,0,1-.4254-.07389,4.39335,4.39335,0,0,0-3.40292,1.11062,4.43973,4.43973,0,0,0-1.44948,3.35324,5.5518,5.5518,0,0,0,4.67912,5.3812,1.34832,1.34832,0,0,1,.252.00932Zm.252,9.8874a4.35511,4.35511,0,0,0,4.64758-3.94855c.01577-.17171.03154-.32774.03154-.501a5.56827,5.56827,0,0,0-4.67912-5.397,1.34832,1.34832,0,0,1-.252-.00932l-2.63106-.26193a1.39874,1.39874,0,0,1-.252-.04086,4.38185,4.38185,0,0,0-3.22964,1.1121,4.46478,4.46478,0,0,0-1.44948,3.35324,5.56966,5.56966,0,0,0,4.93115,5.42206l1.55968.15527a1.34987,1.34987,0,0,1,.25213.00933Zm1.55968.15527-1.55968-.15527a1.34832,1.34832,0,0,1-.252-.00932l-1.07139-.10666a4.32348,4.32348,0,0,0-3.22964,1.1121,4.38046,4.38046,0,0,0-1.44938,3.33748A5.58521,5.58521,0,0,0,34.712,80.38407l2.631.26192a4.71874,4.71874,0,0,0,1.16581-.02577,4.30443,4.30443,0,0,0,2.316-1.07709A4.43946,4.43946,0,0,0,42.27414,76.19,5.56959,5.56959,0,0,0,37.343,70.76791Z" style="fill:#f9e2dc"/><g style="opacity:0.5"><path d="M34.50721,75.41676a4.38046,4.38046,0,0,1,1.44938-3.33748,4.26158,4.26158,0,0,1,2.45125-1.08343,5.17645,5.17645,0,0,0-1.06485-.22794l-1.55968-.15527a1.34832,1.34832,0,0,1-.252-.00932l-1.07139-.10666a4.32348,4.32348,0,0,0-3.22964,1.1121,4.38046,4.38046,0,0,0-1.44938,3.33748A5.58521,5.58521,0,0,0,34.712,80.38407l2.631.26192a4.72621,4.72621,0,0,0,1.02456-.02262A5.60267,5.60267,0,0,1,34.50721,75.41676Z" style="fill:#fff"/><path d="M35.53129,60.72525a1.39874,1.39874,0,0,1,.252.04086,4.531,4.531,0,0,0,.81849-.03121,5.54793,5.54793,0,0,1-3.9064-5.19157,4.43973,4.43973,0,0,1,1.44948-3.35324A4.29143,4.29143,0,0,1,36.50767,51.106a5.09382,5.09382,0,0,0-.55108-.15342l-2.70972-.26976a2.00543,2.00543,0,0,1-.4254-.07389,4.39335,4.39335,0,0,0-3.40292,1.11062,4.43973,4.43973,0,0,0-1.44948,3.35324,5.5518,5.5518,0,0,0,4.67912,5.3812,1.34832,1.34832,0,0,1,.252.00932Z" style="fill:#fff"/><path d="M35.78331,70.61264a4.58361,4.58361,0,0,0,.77849-.02866,5.581,5.581,0,0,1-3.8664-5.19413,4.46478,4.46478,0,0,1,1.44948-3.35324,4.35325,4.35325,0,0,1,2.40923-1.08079,5.17131,5.17131,0,0,0-.7708-.18972,1.34832,1.34832,0,0,1-.252-.00932l-2.63106-.26193a1.39874,1.39874,0,0,1-.252-.04086,4.38185,4.38185,0,0,0-3.22964,1.1121,4.46478,4.46478,0,0,0-1.44948,3.35324,5.56966,5.56966,0,0,0,4.93115,5.42206l1.55968.15527a1.34987,1.34987,0,0,1,.25213.00933Z" style="fill:#fff"/></g><path d="M67.61182,98.80371H62.82617c-5.58838,0-10.3501-4.90527-12.1377-7.01465a62.1402,62.1402,0,0,0-7.08887-7.01855.99986.99986,0,1,1,1.27441-1.541,64.00552,64.00552,0,0,1,7.3418,7.26855c1.25244,1.47754,5.7251,6.30566,10.61035,6.30566h4.78564a1,1,0,0,1,0,2Z" style="fill:#6d6daa"/><path d="M92.35693,90.92871a.99974.99974,0,0,1-1-1,1.03792,1.03792,0,0,1,.11328-.46289c3.13281-7.01953,4.80518-13.62891,4.7085-18.61328a9.2756,9.2756,0,0,1,.252-2.06934,4.923,4.923,0,0,0,.15771-1.18652,1.012,1.012,0,0,1,.001-.207,6.19671,6.19671,0,0,0-.90088-2.55566A102.00406,102.00406,0,0,1,87.74609,52.1377c-1.28711-2.31445-1.7627-2.38184-2.55029-2.49414-1.0498-.14941-2.47607-.35254-5.0498-2.95312L78.27393,46.418a.99407.99407,0,0,1-.35449-.12207l-5.92871-3.41113a1.24527,1.24527,0,0,0-1.68994.51367l-.10547.19727c-1.06543,3.209,1.07031,6.70313,2.94336,8.1709a.99706.99706,0,0,1,.27734.33887c.021.041,2.31445,4.42676,9.03125,7.78613a1.00006,1.00006,0,0,1,.52588,1.124c-.83057,3.52637-.83887,6.0293-.02832,8.37109a1.00068,1.00068,0,0,1-.34424,1.127c-4.18945,3.14648-6.103,6.68164-6.60449,12.20215a7.49759,7.49759,0,0,0,.31934,3.23438,1.00011,1.00011,0,1,1-1.87109.707,9.46563,9.46563,0,0,1-.44043-4.123c.52881-5.81641,2.583-9.7998,6.83252-13.18457a16.10928,16.10928,0,0,1,.019-8.02832c-6.0835-3.23535-8.58057-7.167-9.11621-8.11426-2.66943-2.19824-4.7417-6.502-3.40918-10.33887a.94067.94067,0,0,1,.063-.14355l.14307-.26758a3.24618,3.24618,0,0,1,4.43359-1.31641L78.751,44.4668l2.01807.29395a.99433.99433,0,0,1,.57666.2959c2.24951,2.33887,3.29346,2.4873,4.13232,2.60645,1.39795.19922,2.36816.53809,4.04639,3.56152A99.46013,99.46013,0,0,0,97.31152,63.666a7.84955,7.84955,0,0,1,1.2749,3.832,6.43961,6.43961,0,0,1-.19629,1.68457,7.57388,7.57388,0,0,0-.21143,1.63086c.103,5.35352-1.58789,12.0918-4.89062,19.4873l-.00049-.001c-.0083.01953-.01758.03906-.02734.05859A1.00076,1.00076,0,0,1,92.35693,90.92871Z" style="fill:#6d6daa"/><path d="M74.74951,112.875a.996.996,0,0,1-.60693-.20605,32.6031,32.6031,0,0,1-5.86182-6.72363c-1.95068-2.667-3.96777-5.4248-6.2749-7.05762a1.00009,1.00009,0,1,1,1.15527-1.63281c2.57324,1.82227,4.68848,4.71387,6.73389,7.50977a31.32185,31.32185,0,0,0,5.4624,6.31641.99975.99975,0,0,1-.60791,1.79395Z" style="fill:#6d6daa"/><path d="M97.91406,98.80371a.99962.99962,0,0,1-.98779-.85449c-.25146-1.71387-3.37109-5.39648-5.27832-7.31543a.9999.9999,0,0,1,1.418-1.41016c.55273.55566,5.41064,5.51465,5.83887,8.43457a.99964.99964,0,0,1-.84424,1.13477A.9286.9286,0,0,1,97.91406,98.80371Z" style="fill:#6d6daa"/><path d="M82.23193,97.46387h-2.875a1,1,0,0,1,0-2h2.875a8.3623,8.3623,0,0,0,6.15576-2.69336L91.748,89.09082A1,1,0,1,1,93.252,90.40918l-.125.14258-3.26416,3.56934A10.36809,10.36809,0,0,1,82.23193,97.46387Z" style="fill:#6d6daa"/><path d="M36.07959,71.72168c-.1001,0-.20068-.002-.30176-.00781a1.86986,1.86986,0,0,1-.34033-.01562l-2.63623-.26172a6.60185,6.60185,0,0,1-5.832-6.417,5.50058,5.50058,0,0,1,1.78027-4.09668,5.3084,5.3084,0,0,1,3.90332-1.37012,2.41727,2.41727,0,0,1,.33936.01465l2.63818.2627a2.743,2.743,0,0,1,.35107.05469,6.58847,6.58847,0,0,1,5.481,6.37793c0,.19824-.01562.377-.03369.57031a5.35034,5.35034,0,0,1-5.34912,4.88867Zm-.40674-2.01562c.05615,0,.13037.00586.17236.00879A3.35453,3.35453,0,0,0,39.43506,66.668c.01465-.15332.02734-.27246.02734-.40527a4.54926,4.54926,0,0,0-3.82568-4.40723.97126.97126,0,0,1-.13916-.03125l-2.69629-.26562a1.98674,1.98674,0,0,1-.21533-.00684,3.38108,3.38108,0,0,0-2.498.85742,3.45091,3.45091,0,0,0-1.11865,2.61035,4.558,4.558,0,0,0,4.03027,4.42676l2.63037.26172C35.64209,69.707,35.65674,69.70605,35.67285,69.70605Z" style="fill:#6d6daa"/><path d="M36.07227,61.77539c-.09766,0-.1958-.002-.29443-.00781a2.06332,2.06332,0,0,1-.34033-.01562l-2.63623-.26172a2.75009,2.75009,0,0,1-.35156-.05469,6.57881,6.57881,0,0,1-5.48047-6.3623,5.42869,5.42869,0,0,1,1.78027-4.09668,5.36553,5.36553,0,0,1,4.15967-1.36328c.01123.001.10205.00977.11328.01172l2.60791.25879a3.068,3.068,0,0,1,.56006.09473,6.54144,6.54144,0,0,1,5.272,6.33789,5.3731,5.3731,0,0,1-5.39014,5.459Zm-.39941-2.01562c.05615,0,.13037.00586.17236.00879a3.37816,3.37816,0,0,0,3.61719-3.45215,4.57515,4.57515,0,0,0-3.68408-4.37988,1.07165,1.07165,0,0,1-.124-.03125,1.42191,1.42191,0,0,0-.21924-.03125l-2.63379-.26172a3.39954,3.39954,0,0,0-3.832,3.46094,4.54018,4.54018,0,0,0,3.8252,4.3916.96343.96343,0,0,1,.1377.03027l2.69824.2666C35.64209,59.76074,35.65674,59.75977,35.67285,59.75977Z" style="fill:#6d6daa"/><path d="M37.83691,81.70605c-.126,0-.252-.00391-.37891-.01172l-2.63818-.16895a6.61036,6.61036,0,0,1-6.05713-6.2207,6.32528,6.32528,0,0,1,1.6416-4.14844,5.33841,5.33841,0,0,1,3.8457-1.502,2.87769,2.87769,0,0,1,.33154.00293l2.65332.16895a6.60213,6.60213,0,0,1,6.05664,6.20605,5.43135,5.43135,0,0,1-1.63379,4.15723,5.28367,5.28367,0,0,1-2.79053,1.42285A5.62752,5.62752,0,0,1,37.83691,81.70605ZM34.15332,71.65332a3.3156,3.3156,0,0,0-2.3584.94043,4.42932,4.42932,0,0,0-1.0332,2.63965,4.56587,4.56587,0,0,0,4.18555,4.2959l2.63916.16895a3.56238,3.56238,0,0,0,.9165-.05273h.00391a3.30086,3.30086,0,0,0,1.751-.88379,3.46275,3.46275,0,0,0,1.03467-2.65918,4.55754,4.55754,0,0,0-4.18506-4.28027l-2.63818-.168a1.76779,1.76779,0,0,1-.21582.001C34.22021,71.6543,34.18652,71.65332,34.15332,71.65332Z" style="fill:#6d6daa"/><path d="M33.14453,51.57813l.10254-.99512-.11426.99316a3.02984,3.02984,0,0,1-.54736-.09375,6.53088,6.53088,0,0,1-5.26953-6.32129A5.399,5.399,0,0,1,33.34619,39.71l2.63086.26172a1.808,1.808,0,0,1,.44141.08887,1.00047,1.00047,0,0,1-.67187,1.88477l-2.59863-.24512a3.40015,3.40015,0,0,0-3.832,3.46094A4.56342,4.56342,0,0,0,32.999,49.52441a.993.993,0,0,1,.12988.0332,1.53968,1.53968,0,0,0,.2085.0293Z" style="fill:#6d6daa"/><path d="M83.24951,72.083a.99306.99306,0,0,1-.63623-.22949A8.83459,8.83459,0,0,1,81.208,70.40527a1.00008,1.00008,0,0,1,1.61523-1.17969h0a6.9978,6.9978,0,0,0,1.06348,1.08691.99974.99974,0,0,1-.63721,1.77051Z" style="fill:#6d6daa"/><path d="M82.21924,61.78613a1,1,0,0,1-.00293-2,1.80951,1.80951,0,0,0,.87158-.20312,1.00044,1.00044,0,0,1,1.32422,1.5A3.61365,3.61365,0,0,1,82.21924,61.78613Z" style="fill:#6d6daa"/><path d="M37,52.125a.99974.99974,0,0,1-1-1V13a5.00589,5.00589,0,0,1,5-5H78a5.00589,5.00589,0,0,1,5,5V46.375a1,1,0,0,1-2,0V13a3.00328,3.00328,0,0,0-3-3H41a3.00328,3.00328,0,0,0-3,3V51.125A.99974.99974,0,0,1,37,52.125Z" style="fill:#6d6daa"/><path d="M74.875,85H41a4.99942,4.99942,0,0,1-4.915-4.0791.99991.99991,0,1,1,1.96582-.36719A2.99914,2.99914,0,0,0,41,83H74.875a1,1,0,0,1,0,2Z" style="fill:#6d6daa"/><g style="clip-path:url(#clip-path)"><path d="M71.61909,117.20809l7.52655,8.69a2.66466,2.66466,0,0,0,3.39435.57941,179.48965,179.48965,0,0,0,25.05338-18.16027,2.6551,2.6551,0,0,0,.31519-3.72575L99.02,94.27418a2.65486,2.65486,0,0,0-3.73991-.3319L71.951,113.46818A2.65486,2.65486,0,0,0,71.61909,117.20809Z" style="fill:#97c1ff;fill-rule:evenodd"/><path d="M99.02,94.27417l8.88854,10.31724a2.65518,2.65518,0,0,1-.31518,3.72581c-.90143.76842-3.91559,3.27927-3.78915,3.17143a2.65516,2.65516,0,0,0,.31512-3.72576L95.2308,97.44565a2.65484,2.65484,0,0,0-3.73991-.3319l3.78921-3.17148A2.65484,2.65484,0,0,1,99.02,94.27417Z" style="fill:#fff;fill-rule:evenodd;opacity:0.5"/><path d="M82.54,126.47744a2.66464,2.66464,0,0,1-3.39437-.57938l-7.52655-8.69a2.65484,2.65484,0,0,1,.3319-3.73991l3.56882-2.987a2.65484,2.65484,0,0,0-.3319,3.73991l7.52655,8.69a2.66464,2.66464,0,0,0,3.39437.57938Z" style="fill:#2c4b75;fill-rule:evenodd;opacity:0.2"/><path d="M81.17969,127.84863a3.64584,3.64584,0,0,1-2.80078-1.30762l-7.51562-8.67871-.01074-.0127a3.65384,3.65384,0,0,1,.45654-5.14844L94.63867,93.17578a3.65459,3.65459,0,0,1,5.14844.457l8.87939,10.30664a3.66967,3.66967,0,0,1-.42432,5.13867,175.47565,175.47565,0,0,1-25.19775,18.2627A3.69328,3.69328,0,0,1,81.17969,127.84863Zm-8.79883-11.28906,7.52051,8.68457a1.66973,1.66973,0,0,0,2.13428.37012,175.93926,175.93926,0,0,0,24.90869-18.05762,1.66181,1.66181,0,0,0,.19727-2.32324L98.26221,94.92676a1.6542,1.6542,0,0,0-1.13184-.59766,1.68375,1.68375,0,0,0-1.208.37988L72.59277,114.23438a1.65456,1.65456,0,0,0-.21191,2.3252Z" style="fill:#6d6daa"/><path d="M80.41992,116.74023a.99183.99183,0,0,1-.71-.29,1.02824,1.02824,0,0,1-.29-.7002,1.00242,1.00242,0,0,1,.08008-.39062.98388.98388,0,0,1,.21-.31934,1.025,1.025,0,0,1,1.08984-.2207.83742.83742,0,0,1,.33008.2207.99182.99182,0,0,1,.21.31934,1.0113,1.0113,0,0,1,.08008.39063.99034.99034,0,0,1-1,.99023Z" style="fill:#6d6daa"/></g><path d="M111.61539,49.92306a3.69876,3.69876,0,0,0,2.46153,2.46155q1.84616.61538,0,1.23075a3.69876,3.69876,0,0,0-2.46153,2.46155q-.61538,1.84613-1.23078,0a3.69872,3.69872,0,0,0-2.46153-2.46155q-1.84616-.61538,0-1.23075a3.69872,3.69872,0,0,0,2.46153-2.46155Q111,48.07694,111.61539,49.92306Z" style="fill:#96d7ff"/><path d="M19.76924,22.15385a4.62346,4.62346,0,0,0,3.07691,3.07694q2.30771.76922,0,1.53844a4.62346,4.62346,0,0,0-3.07691,3.07694q-.76922,2.30766-1.53847,0a4.6234,4.6234,0,0,0-3.07691-3.07694q-2.30771-.76922,0-1.53844a4.6234,4.6234,0,0,0,3.07691-3.07694Q19,19.84618,19.76924,22.15385Z" style="fill:#96d7ff"/><path d="M96.61539,8.92306a3.69876,3.69876,0,0,0,2.46153,2.46155q1.84616.61538,0,1.23075a3.69876,3.69876,0,0,0-2.46153,2.46155q-.61538,1.84613-1.23078,0a3.69872,3.69872,0,0,0-2.46153-2.46155q-1.84616-.61538,0-1.23075a3.69872,3.69872,0,0,0,2.46153-2.46155Q96,7.07694,96.61539,8.92306Z" style="fill:#c9c1f5"/><path d="M113.61539,96.92308a3.69876,3.69876,0,0,0,2.46153,2.46155q1.84616.61538,0,1.23075a3.69876,3.69876,0,0,0-2.46153,2.46155q-.61538,1.84613-1.23078,0a3.69872,3.69872,0,0,0-2.46153-2.46155q-1.84616-.61538,0-1.23075a3.69872,3.69872,0,0,0,2.46153-2.46155Q113,95.07695,113.61539,96.92308Z" style="fill:#96d7ff"/><path d="M40.61539,105.92308a3.69876,3.69876,0,0,0,2.46153,2.46155q1.84616.61538,0,1.23075a3.69876,3.69876,0,0,0-2.46153,2.46155q-.61538,1.84613-1.23078,0a3.69872,3.69872,0,0,0-2.46153-2.46155q-1.84616-.61538,0-1.23075a3.69872,3.69872,0,0,0,2.46153-2.46155Q40,104.07695,40.61539,105.92308Z" style="fill:#97c1ff"/><path d="M9.61539,65.92306a3.69876,3.69876,0,0,0,2.46153,2.46155q1.84616.61538,0,1.23075a3.69876,3.69876,0,0,0-2.46153,2.46155q-.61538,1.84613-1.23078,0a3.69872,3.69872,0,0,0-2.46153-2.46155q-1.84616-.61538,0-1.23075a3.69872,3.69872,0,0,0,2.46153-2.46155Q9,64.07694,9.61539,65.92306Z" style="fill:#c9c1f5"/></svg>