<?xml version="1.0" ?><svg data-name="009" height="128" id="_009" viewBox="0 0 128 128" width="128" xmlns="http://www.w3.org/2000/svg" xmlns:xlink="http://www.w3.org/1999/xlink"><defs><clipPath id="clip-path"><path d="M124.71326,48.42991a28.32546,28.32546,0,0,0-22.00578-23.79319,18.38081,18.38081,0,0,1-10.23244-6.221,34.915,34.915,0,0,0-8.48194-7.35109,34.38559,34.38559,0,0,0-44.46746,7.44686,35.32814,35.32814,0,0,0-7.19,14.5075,19.91126,19.91126,0,0,1-10.1852,12.99C8.89466,52.99958,2.25349,71.145,14.33533,88.17332a15.57224,15.57224,0,0,0,5.94547,4.664,19.44131,19.44131,0,0,1,9.37782,10.33223c2.962,7.35317,9.068,16.32136,17.16087,18.73772,8.05437,2.40488,16.33229-2.22838,22.73311-6.73288a18.54606,18.54606,0,0,1,15.559-2.7955,26.76136,26.76136,0,0,0,23.26588-4.42157,27.7592,27.7592,0,0,0,10.46412-27.68165,19.31914,19.31914,0,0,1,2.3488-13.42509A28.69732,28.69732,0,0,0,124.71326,48.42991Z" style="fill:none"/></clipPath></defs><title/><g style="opacity:0.30000000000000004"><path d="M124.71326,48.42991a28.32546,28.32546,0,0,0-22.00578-23.79319,18.38081,18.38081,0,0,1-10.23244-6.221,34.915,34.915,0,0,0-8.48194-7.35109,34.38559,34.38559,0,0,0-44.46746,7.44686,35.32814,35.32814,0,0,0-7.19,14.5075,19.91126,19.91126,0,0,1-10.1852,12.99C8.89466,52.99958,2.25349,71.145,14.33533,88.17332a15.57224,15.57224,0,0,0,5.94547,4.664,19.44131,19.44131,0,0,1,9.37782,10.33223c2.962,7.35317,9.068,16.32136,17.16087,18.73772,8.05437,2.40488,16.33229-2.22838,22.73311-6.73288a18.54606,18.54606,0,0,1,15.559-2.7955,26.76136,26.76136,0,0,0,23.26588-4.42157,27.7592,27.7592,0,0,0,10.46412-27.68165,19.31914,19.31914,0,0,1,2.3488-13.42509A28.69732,28.69732,0,0,0,124.71326,48.42991Z" style="fill:#97c1ff"/><path d="M44.12156,24.33049A9.03363,9.03363,0,0,0,26.68845,20.1753a4.82018,4.82018,0,0,0-7.81336,3.758c0,.13872.00931.27513.0209.41091a7.19222,7.19222,0,0,0,2.3891,13.98912H41.77a7.19271,7.19271,0,0,0,2.35154-14.00284Z" style="fill:#eef6ff"/><path d="M41.77,35.93308H21.2851a7.21678,7.21678,0,0,1-7.12427-6.01792,7.19011,7.19011,0,0,0,7.12427,8.41817H41.77a7.19112,7.19112,0,0,0,7.12441-8.41871A7.21687,7.21687,0,0,1,41.77,35.93308Z" style="fill:#5cbeff;opacity:0.30000000000000004"/><path d="M18.896,26.74446c-.01157-.13579-.0209-.27222-.0209-.41094a4.82019,4.82019,0,0,1,7.81338-3.758,9.02573,9.02573,0,0,1,17.43311,4.15522,7.21554,7.21554,0,0,1,4.77285,5.58413,7.12519,7.12519,0,0,0-4.77285-7.98437,9.03363,9.03363,0,0,0-17.43311-4.15522,4.82019,4.82019,0,0,0-7.81338,3.758c0,.13872.00933.27515.0209.41094a7.12378,7.12378,0,0,0-4.73516,7.97119A7.21487,7.21487,0,0,1,18.896,26.74446Z" style="fill:#fff"/><path d="M41.77,39.3335H21.28516a8.19132,8.19132,0,0,1-3.4043-15.65918,5.825,5.825,0,0,1,8.36621-4.9541A10.0379,10.0379,0,0,1,45.18018,23.3335c0,.11377-.00244.22705-.00635.33984A8.19178,8.19178,0,0,1,41.77,39.3335ZM23.69531,20.1333a3.81447,3.81447,0,0,0-3.82031,3.7998c0,.10986.00781.21777.01709.3252a.99967.99967,0,0,1-.6665,1.03027A6.1922,6.1922,0,0,0,21.28516,37.3335H41.77a6.19288,6.19288,0,0,0,2.02734-12.05713,1.00016,1.00016,0,0,1-.66992-1.05566A8.03369,8.03369,0,0,0,27.624,20.52783a1.00008,1.00008,0,0,1-1.55566.43213A3.78952,3.78952,0,0,0,23.69531,20.1333Z" style="fill:#6d6daa"/><path d="M41.77,23.9333a7.24658,7.24658,0,0,1,2.37126.39619" style="fill:#eef6ff"/><path d="M44.14111,25.33008a1.00429,1.00429,0,0,1-.32666-.05518,6.23172,6.23172,0,0,0-2.04443-.3418,1,1,0,0,1,0-2,8.23673,8.23673,0,0,1,2.69775.45117,1.00036,1.00036,0,0,1-.32666,1.9458Z" style="fill:#6d6daa"/><path d="M18.89488,24.33611a7.24643,7.24643,0,0,1,2.39023-.4028" style="fill:#eef6ff"/><path d="M18.895,25.33643a1.00032,1.00032,0,0,1-.3291-1.94482,8.24263,8.24263,0,0,1,2.71924-.4585,1,1,0,0,1,0,2,6.241,6.241,0,0,0-2.061.34717A.99434.99434,0,0,1,18.895,25.33643Z" style="fill:#6d6daa"/><path d="M26.65675,20.14609a4.82565,4.82565,0,0,1,1.31087,1.56335" style="fill:#eef6ff"/><path d="M27.96875,22.70947a1.00011,1.00011,0,0,1-.88623-.53467A3.84237,3.84237,0,0,0,26.043,20.93555a1.00005,1.00005,0,0,1,1.22754-1.5791,5.8645,5.8645,0,0,1,1.58252,1.8877.99993.99993,0,0,1-.88428,1.46533Z" style="fill:#6d6daa"/><path d="M121,28a1.05235,1.05235,0,0,1-.71-.29,1.15552,1.15552,0,0,1-.21045-.33008A.999.999,0,0,1,120,27a1,1,0,1,1,2,0,.838.838,0,0,1-.08008.37988,1.16449,1.16449,0,0,1-.21.33008A1.05329,1.05329,0,0,1,121,28Z" style="fill:#fff"/><path d="M118.35352,31.99951h-7.93115a1,1,0,0,1,0-2h7.93115a1,1,0,0,1,0,2Z" style="fill:#fff"/><path d="M115.70947,27.999h-9.252a1,1,0,1,1,0-2h9.252a1,1,0,0,1,0,2Z" style="fill:#fff"/><path d="M105.13379,31.999h-2.64258a1,1,0,0,1,0-2h2.64258a1,1,0,0,1,0,2Z" style="fill:#fff"/><path d="M115.71,36H105.13428a1,1,0,0,1,0-2H115.71a1,1,0,0,1,0,2Z" style="fill:#fff"/><path d="M40.32959,53.66992a1.02639,1.02639,0,0,1-1-1,1.01684,1.01684,0,0,1,.30029-.71,1.03425,1.03425,0,0,1,1.41016,0,1.01633,1.01633,0,0,1,.2998.71.97572.97572,0,0,1-.2998.69971A.99952.99952,0,0,1,40.32959,53.66992Z" style="fill:#fff"/><path d="M41.5835,49.66748h-2.5a1,1,0,0,1,0-2h2.5a1,1,0,0,1,0,2Z" style="fill:#fff"/><path d="M45.3335,45.6665H32.834a1,1,0,1,1,0-2H45.3335a1,1,0,0,1,0,2Z" style="fill:#fff"/><path d="M34.08252,49.6665h-4.999a1,1,0,1,1,0-2h4.999a1,1,0,0,1,0,2Z" style="fill:#fff"/><path d="M35.333,53.668H25.33252a1,1,0,0,1,0-2H35.333a1,1,0,0,1,0,2Z" style="fill:#fff"/><g style="clip-path:url(#clip-path)"><path d="M102.49523,50.04291a6.81589,6.81589,0,0,1,10.13752-7.55252,8.9543,8.9543,0,0,1,16.05093,4.48216,6.39925,6.39925,0,0,1-2.08568,12.45l-23.9032.00018a4.692,4.692,0,0,1-.19957-9.37985Z" style="fill:#eef6ff"/><path d="M102.49521,52.60413a6.5086,6.5086,0,0,1-.17283-2.537A4.669,4.669,0,0,0,98.1895,56.04,4.68087,4.68087,0,0,1,102.49521,52.60413Z" style="fill:#fff"/><path d="M109.09747,44.05711a6.786,6.786,0,0,1,3.53526.99449,8.95429,8.95429,0,0,1,16.05093,4.48218,6.40245,6.40245,0,0,1,4.1804,4.7998,6.39714,6.39714,0,0,0-4.1804-7.361,8.95432,8.95432,0,0,0-16.05093-4.48218,6.81829,6.81829,0,0,0-10.36406,5.83452,6.59011,6.59011,0,0,0,.131,1.23563A6.82927,6.82927,0,0,1,109.09747,44.05711Z" style="fill:#fff"/><path d="M102.49521,47.48165c-.04085-.15746-.06487-.32106-.09551-.48237-.03277.16652-.0569.336-.07732.50665C102.38111,47.50124,102.43592,47.48415,102.49521,47.48165Z" style="fill:#5cbeff"/><path d="M126.598,56.86133l-23.9032.00016a4.69416,4.69416,0,0,1-4.50532-3.38275A4.64043,4.64043,0,0,0,98,54.7278a4.69488,4.69488,0,0,0,4.69481,4.69492l23.9032-.00016a6.343,6.343,0,0,0,6.266-7.65021A6.40354,6.40354,0,0,1,126.598,56.86133Z" style="fill:#5cbeff;opacity:0.30000000000000004"/><path d="M102.69482,60.42285a5.693,5.693,0,0,1-1.37354-11.21826,7.4545,7.4545,0,0,1-.05273-.87988,7.81861,7.81861,0,0,1,11.11426-7.1001,9.95455,9.95455,0,0,1,17.21387,5.0332,7.39907,7.39907,0,0,1-2.99854,14.16455Zm6.40283-17.92676a5.80617,5.80617,0,0,0-5.63477,7.2959.99939.99939,0,0,1-.92578,1.25,3.69206,3.69206,0,0,0,.15771,7.38086l23.90332-.00049A5.39905,5.39905,0,0,0,128.35742,47.918a.99937.99937,0,0,1-.66846-.84326,7.95462,7.95462,0,0,0-14.25977-3.98,1.00117,1.00117,0,0,1-1.31543.25A5.81406,5.81406,0,0,0,109.09766,42.49609Z" style="fill:#6d6daa"/><path d="M128.29395,51.67236a1.00113,1.00113,0,0,1-.95117-1.30957,7.96931,7.96931,0,0,0-7.57422-10.42773,1,1,0,0,1,0-2,9.97,9.97,0,0,1,9.47656,13.0459A1.00086,1.00086,0,0,1,128.29395,51.67236Z" style="fill:#6d6daa"/><path d="M105.78711,52.19531a.99557.99557,0,0,1-.6582-.24756,3.6918,3.6918,0,0,0-2.43408-.915,1,1,0,0,1,0-2,5.69242,5.69242,0,0,1,3.75146,1.41016,1,1,0,0,1-.65918,1.75244Z" style="fill:#6d6daa"/><path d="M114.65088,45.34863a.99917.99917,0,0,1-.81348-.417,5.84786,5.84786,0,0,0-4.73975-2.43555,1,1,0,0,1,0-2,7.85173,7.85173,0,0,1,6.36475,3.26953,1,1,0,0,1-.81152,1.583Z" style="fill:#6d6daa"/><polygon points="152.93 116.776 108.116 63.977 61.946 117.333 152.93 116.776" style="fill:#ced8ee"/><polygon points="101.337 82.526 107.894 87.797 108.26 87.806 114.338 82.635 125.18 84.548 122.88 81.788 113.734 79.922 108.181 84.293 102.239 79.813 93.745 81.322 91.269 84.293 101.337 82.526" style="fill:#7690a8;opacity:0.30000000000000004"/><polygon points="108.118 64.071 122.88 81.788 113.734 79.922 108.181 84.293 102.239 79.813 93.745 81.322 108.118 64.071" style="fill:#eef6ff"/><polygon points="108.118 67.689 119.249 81.047 122.88 81.788 108.118 64.071 93.745 81.322 101.786 79.351 108.118 67.689" style="fill:#fff"/><polygon points="126 86 108.116 63.977 121 117 126 86" style="fill:#7690a8;opacity:0.30000000000000004"/><polygon points="63.803 116.776 108.618 63.977 87.316 116.776 63.803 116.776" style="fill:#fff;opacity:0.5"/><path d="M62.34814,117.84961a1,1,0,0,1-.749-1.66211L92.99561,80.65967l14.355-17.229a1.03338,1.03338,0,0,1,1.53613,0l14.76172,17.71777L154.083,115.63037a.99976.99976,0,1,1-1.499,1.32324L122.13086,82.4502,108.11865,65.63281,94.51318,81.96191l-31.415,35.5498A.99822.99822,0,0,1,62.34814,117.84961Z" style="fill:#6d6daa"/><path d="M108.18066,85.293a.99613.99613,0,0,1-.60205-.20166L101.98486,80.874l-8.06494,1.43213a1.01922,1.01922,0,0,1-1.18262-.98437.99391.99391,0,0,1,.89063-.99463l8.436-1.49854a.9883.9883,0,0,1,.77686.186l5.32666,4.01611,4.94775-3.89453a1.00024,1.00024,0,0,1,.81885-.19434l9.14648,1.8667a1.00022,1.00022,0,1,1-.40039,1.96l-8.69189-1.77441-5.189,4.08447A1.0003,1.0003,0,0,1,108.18066,85.293Z" style="fill:#6d6daa"/><polygon points="-3 96.963 20.564 71 51 97.372 -3 96.963" style="fill:#9eb2cc"/><polygon points="20.564 71 -3 96.963 2.23 96.116 20.564 76.024 43.852 96.194 48.727 95.405 20.564 71" style="fill:#fff;opacity:0.5"/><path d="M-3.00049,97.96289a.99489.99489,0,0,1-.67139-.25928,1,1,0,0,1-.06885-1.4126L19.82275,70.32813a1.00011,1.00011,0,0,1,1.39551-.084L49.38184,94.64941a1,1,0,1,1-1.30957,1.51172L20.647,72.39551-2.25928,97.63477A.99757.99757,0,0,1-3.00049,97.96289Z" style="fill:#6d6daa"/></g></g><path d="M92,22H72.27586V41.96552h0v1.51724A1.51721,1.51721,0,0,0,73.7931,45H92L80.62069,33.44828Z" style="fill:#ff9797"/><path d="M77.27586,43.48276V22h-5V43.48276A1.5172,1.5172,0,0,0,73.7931,45h5A1.5172,1.5172,0,0,1,77.27586,43.48276Z" style="fill:#750000;opacity:0.2"/><path d="M73.7931,42a1.5172,1.5172,0,0,1-1.51724-1.51724v3A1.5172,1.5172,0,0,0,73.7931,45H92l-2.72414-3Z" style="fill:#750000;opacity:0.2"/><polygon points="92 22 72.276 22 72.276 25 89.276 25 92 22" style="fill:#fff;opacity:0.5"/><path d="M70.48276,18H54V41H72V19.51724A1.51722,1.51722,0,0,0,70.48276,18Z" style="fill:#ff9797"/><rect height="23" style="fill:#fff;opacity:0.5" width="8" x="59" y="18"/><rect height="4" style="fill:#750000;opacity:0.2" width="18" x="54" y="37"/><path d="M70.48276,18H54v3H70.48276A1.5172,1.5172,0,0,1,72,22.51724v-3A1.5172,1.5172,0,0,0,70.48276,18Z" style="fill:#fff;opacity:0.5"/><path d="M92,46H73.793a2.52024,2.52024,0,0,1-2.51709-2.51709V22a1,1,0,0,1,1-1H92a1.00013,1.00013,0,0,1,.70947,1.70508L82.02734,33.45117,92.7124,44.29834A1,1,0,0,1,92,46ZM73.27588,23V43.48291A.51763.51763,0,0,0,73.793,44H89.61133L79.9082,34.1499a1.00013,1.00013,0,0,1,.00293-1.40674L89.59619,23Z" style="fill:#6d6daa"/><path d="M72,42H54a1,1,0,0,1-1-1V18a1,1,0,0,1,1-1H70.48291A2.52024,2.52024,0,0,1,73,19.51709V41A1,1,0,0,1,72,42ZM55,40H71V19.51709A.51763.51763,0,0,0,70.48291,19H55Z" style="fill:#6d6daa"/><path d="M54,59a1,1,0,0,1-1-1V14a1,1,0,0,1,2,0V58A1,1,0,0,1,54,59Z" style="fill:#6d6daa"/><path d="M36.73958,70.77994a9.741,9.741,0,0,0-18.79814-4.48055,5.19761,5.19761,0,0,0-8.42515,4.05226c0,.14958.01.29667.02254.44309A7.75538,7.75538,0,0,0,12.115,85.87922H34.20391a7.75591,7.75591,0,0,0,2.53567-15.09928Z" style="fill:#eef6ff"/><path d="M34.20389,83.291H12.115a7.78186,7.78186,0,0,1-7.6821-6.48913,7.7531,7.7531,0,0,0,7.6821,9.07732h22.0889a7.75419,7.75419,0,0,0,7.68226-9.0779A7.782,7.782,0,0,1,34.20389,83.291Z" style="fill:#5cbeff;opacity:0.30000000000000004"/><path d="M9.53881,73.38293c-.01248-.14642-.02253-.29353-.02253-.44311a5.19761,5.19761,0,0,1,8.42517-4.05226,9.73245,9.73245,0,0,1,18.79813,4.48058,7.78052,7.78052,0,0,1,5.14657,6.02137,7.6831,7.6831,0,0,0-5.14657-8.60956,9.741,9.741,0,0,0-18.79813-4.48058,5.19761,5.19761,0,0,0-8.42517,4.05226c0,.14958.01006.29669.02253.44311a7.68158,7.68158,0,0,0-5.10592,8.59534A7.7798,7.7798,0,0,1,9.53881,73.38293Z" style="fill:#fff"/><path d="M18.125,86.87939H12.11523A8.75422,8.75422,0,0,1,8.52,70.12451a6.203,6.203,0,0,1,8.97949-5.29,10.75638,10.75638,0,0,1,19.3291.41113,1,1,0,0,1-1.81641.83691,8.75585,8.75585,0,0,0-16.13525.56934.9995.9995,0,0,1-1.55615.43164,4.1977,4.1977,0,0,0-6.80469,3.26807c0,.12061.00879.23926.019.35693a1.00026,1.00026,0,0,1-.6665,1.03076,6.7552,6.7552,0,0,0,2.24658,13.14014H18.125a1,1,0,0,1,0,2Z" style="fill:#6d6daa"/><path d="M9.53762,70.786a7.81384,7.81384,0,0,1,2.57738-.43434" style="fill:#eef6ff"/><path d="M9.5376,71.78662a1.00032,1.00032,0,0,1-.3291-1.94482,8.81115,8.81115,0,0,1,2.90674-.49023,1,1,0,1,1,0,2,6.8117,6.8117,0,0,0-2.24854.37891A.99434.99434,0,0,1,9.5376,71.78662Z" style="fill:#6d6daa"/><path d="M17.90725,66.2679a5.2035,5.2035,0,0,1,1.41351,1.68576" style="fill:#eef6ff"/><path d="M19.32178,68.95361a.9989.9989,0,0,1-.88574-.53418,4.227,4.227,0,0,0-1.14209-1.36133A1.00014,1.00014,0,0,1,18.52051,65.478a6.24812,6.24812,0,0,1,1.68506,2.00977,1.00007,1.00007,0,0,1-.88379,1.46582Z" style="fill:#6d6daa"/><g style="clip-path:url(#clip-path)"><rect height="20" style="fill:#ced8ee" width="65" x="12.66667" y="113"/><polygon points="115.875 115.875 120.5 103 99.75 79.75 96 82 85 69 75.807 76.38 53.721 50 19.819 89.344 14.667 91.167 -6 115.5 115.875 115.875" style="fill:#ced8ee"/><polygon points="49.25 95 45.75 81.083 40.667 85.333 37.917 76.583 29 79.75 32.854 75 40.104 72.375 42.417 79.833 47.25 75.583 50.042 85.833 58.417 74.583 63.042 80.333 67.667 72.917 74.583 75.25 75.721 76.222 78.25 79.5 68.833 76.667 62.75 86.75 58.25 80 49.25 95" style="fill:#657296;opacity:0.5"/><polygon points="53.661 50.104 74.755 75.421 67.667 72.917 62.833 81 58.267 74.4 50.5 87.333 47.292 75.375 42.417 79.833 40.104 72.375 33.122 74.754 53.661 50.104" style="fill:#eef6ff"/><polygon points="84.594 68.917 94.406 79.997 90.936 83.174 86.167 79.667 81.417 83.917 76 76.333 84.594 68.917" style="fill:#eef6ff"/><polygon points="54.5 51.583 53.724 50.104 32.712 75.323 40.104 72.375 42.417 79.833 47.25 75.583 54.5 51.583" style="fill:#fff"/><polygon points="123.125 105.25 99.75 79.75 102 88.875 85.625 69.75 94.75 97.75 85.35 84.3 79.875 73 75.721 76.222 53.721 50 61.667 92 58.667 97 63.667 126 67.375 126 123.125 105.25" style="fill:#7690a8;opacity:0.30000000000000004"/><path d="M-5.50049,115.6665a.99591.99591,0,0,1-.65088-.24121,1,1,0,0,1-.10742-1.41016l20.1665-23.5a1.0037,1.0037,0,0,1,.46045-.30322l5.06543-1.58252,17.645-20.10986,15.877-19.05615a1.03338,1.03338,0,0,1,1.53613,0l16.32324,19.5918,5.11865,5.94043L84.374,68.22021a1.00088,1.00088,0,0,1,1.38916.13379l10.394,12.28369,2.74658-2.04053a.99951.99951,0,0,1,1.32275.11572l3.4751,3.67529a.99994.99994,0,0,1-1.45312,1.374L99.3833,80.73242l-2.78711,2.07031a.99973.99973,0,0,1-1.35937-.15674L84.86621,70.38965l-8.43359,6.77a1.00014,1.00014,0,0,1-1.38379-.127l-5.75977-6.68457L53.72363,51.66553,38.59814,69.81934,20.75146,90.15967a.99746.99746,0,0,1-.45312.29492l-5.05957,1.58105-19.98,23.28223A.99727.99727,0,0,1-5.50049,115.6665Z" style="fill:#6d6daa"/><path d="M93.00049,95.25a.99846.99846,0,0,1-.79346-.39062l-7.18945-9.35156-1.78223.707a1.00122,1.00122,0,0,1-1.15234-.30859L75.02295,77.001a1,1,0,0,1,1.56738-1.24219l6.59814,8.32275,1.793-.71143a1.00308,1.00308,0,0,1,1.16162.32031l7.6499,9.9502A1,1,0,0,1,93.00049,95.25Z" style="fill:#6d6daa"/><polygon points="59.549 107.34 48.667 122 93.22 122 81.391 106.07 70.943 92 59.549 107.34" style="fill:#ced8ee"/><polygon points="70.943 92 81.391 106.07 81.235 106.16 74.964 105.19 70.977 108 66.733 105.12 59.605 107.37 59.549 107.34 70.943 92" style="fill:#fff"/><polygon points="77.626 122 93.22 122 70.943 92 77.626 122" style="fill:#7690a8;opacity:0.30000000000000004"/><path d="M93.22119,123a.99894.99894,0,0,1-.80371-.40381L70.94336,93.67725,60.35156,107.936a.99991.99991,0,0,1-1.60547-1.19238l12.19727-16.4209,23.07959,31.08105A1,1,0,0,1,93.22119,123Z" style="fill:#6d6daa"/><polygon points="70.987 109.216 66.572 106.22 59.905 108.324 59.304 106.417 66.894 104.021 70.966 106.784 74.718 104.14 81.388 105.172 81.083 107.148 75.21 106.24 70.987 109.216" style="fill:#6d6daa"/><polygon points="9.5 111 22.5 95.167 27.333 92.667 37.333 85 32.333 95.5 19.167 120.333 9.5 111" style="fill:#fff;opacity:0.5"/><path d="M127.75629,96.92784a7.319,7.319,0,0,0-10.88575-8.11,9.61521,9.61521,0,0,0-17.23563,4.813,6.87158,6.87158,0,0,0,2.23962,13.36895L127.542,107a5.0383,5.0383,0,0,0,.2143-10.07216Z" style="fill:#eef6ff"/><path d="M127.75631,99.6781a6.989,6.989,0,0,0,.18558-2.72421,5.01362,5.01362,0,0,1,4.43792,6.41365A5.02636,5.02636,0,0,0,127.75631,99.6781Z" style="fill:#fff"/><path d="M120.66674,90.50024a7.28688,7.28688,0,0,0-3.79619,1.0679,9.61519,9.61519,0,0,0-17.23562,4.813,6.875,6.875,0,0,0-4.48895,5.15407,6.86931,6.86931,0,0,1,4.48895-7.90435,9.61523,9.61523,0,0,1,17.23562-4.813,7.32154,7.32154,0,0,1,11.129,6.26516,7.07651,7.07651,0,0,1-.14071,1.32683A7.33333,7.33333,0,0,0,120.66674,90.50024Z" style="fill:#fff"/><path d="M127.75631,94.17754c.04386-.16908.06966-.34476.10255-.518.03519.17881.0611.36081.083.544C127.87884,94.19857,127.82,94.18022,127.75631,94.17754Z" style="fill:#5cbeff"/><path d="M101.87451,104.24952l25.66746.00017a5.04063,5.04063,0,0,0,4.83785-3.63243,4.98294,4.98294,0,0,1,.20349,1.34126A5.04141,5.04141,0,0,1,127.542,107l-25.66746-.00017A6.81119,6.81119,0,0,1,95.146,98.78493,6.87618,6.87618,0,0,0,101.87451,104.24952Z" style="fill:#5cbeff;opacity:0.30000000000000004"/><path d="M127.542,108H101.87451A7.87154,7.87154,0,0,1,98.7207,92.915a10.61544,10.61544,0,0,1,18.3999-5.36621A8.32131,8.32131,0,0,1,128.99951,95.083a7.99407,7.99407,0,0,1-.064,1.001A6.03923,6.03923,0,0,1,127.542,108ZM109.208,86a8.596,8.596,0,0,0-8.57861,7.73291.99937.99937,0,0,1-.66846.84326A5.87171,5.87171,0,0,0,101.87451,106H127.542a4.0384,4.0384,0,0,0,.17236-8.07324.99956.99956,0,0,1-.92578-1.25049,6.31931,6.31931,0,0,0-9.39893-7.00391.99909.99909,0,0,1-1.31543-.25A8.56093,8.56093,0,0,0,109.208,86Z" style="fill:#6d6daa"/><path d="M100.05371,98.604a1.00131,1.00131,0,0,1-.95117-.69092A14.73491,14.73491,0,0,1,98.584,94.0249a1,1,0,0,1,2,0,12.871,12.871,0,0,0,.4209,3.269,1.00086,1.00086,0,0,1-.95117,1.31006Z" style="fill:#6d6daa"/><path d="M124.22168,99.165a1,1,0,0,1-.65967-1.752,6.03659,6.03659,0,0,1,3.98-1.49609,1,1,0,1,1,0,2,4.03563,4.03563,0,0,0-2.66162,1A.99576.99576,0,0,1,124.22168,99.165Z" style="fill:#6d6daa"/><path d="M114.70361,91.81348a1,1,0,0,1-.812-1.58252,8.42115,8.42115,0,0,1,2.60791-2.36523,1,1,0,1,1,1.001,1.73145,6.39946,6.39946,0,0,0-1.98291,1.79883A.99922.99922,0,0,1,114.70361,91.81348Z" style="fill:#6d6daa"/></g><path d="M33.83614,105.69235a6.64975,6.64975,0,0,1,12.83271-3.05868A3.54819,3.54819,0,0,1,52.42035,105.4c0,.10211-.00685.20253-.01539.30248A5.29427,5.29427,0,0,1,50.64632,116H35.56714a5.29463,5.29463,0,0,1-1.731-10.30765Z" style="fill:#eef6ff"/><path d="M33.83613,107.90091a6.64975,6.64975,0,0,1,12.8327-3.0587,3.54822,3.54822,0,0,1,5.75152,2.76628c0,.10217-.00687.20258-.01537.30253a5.30634,5.30634,0,0,1,3.43778,3.91331,5.26023,5.26023,0,0,0-3.43778-6.12191c.00849-.09994.01537-.20036.01537-.30246a3.54822,3.54822,0,0,0-5.75152-2.76628,6.64389,6.64389,0,0,0-12.8327,3.0587,5.26129,5.26129,0,0,0-3.46548,6.13182A5.30689,5.30689,0,0,1,33.83613,107.90091Z" style="fill:#fff"/><path d="M50.6463,113.79146H35.56712a5.31506,5.31506,0,0,1-5.19647-4.1758A5.24643,5.24643,0,0,0,30.2451,110.7a5.31105,5.31105,0,0,0,5.322,5.3H50.6463a5.31107,5.31107,0,0,0,5.32209-5.3,5.24515,5.24515,0,0,0-.12562-1.08422A5.315,5.315,0,0,1,50.6463,113.79146Z" style="fill:#5cbeff;opacity:0.30000000000000004"/><path d="M50.64648,117H35.56689a6.29372,6.29372,0,0,1-2.77344-11.957c-.00049-.02832-.00049-.05615-.00049-.08447a7.65276,7.65276,0,0,1,14.31494-3.73779,4.55369,4.55369,0,0,1,6.29785,3.81641A6.29312,6.29312,0,0,1,50.64648,117ZM40.4458,99.3335a5.64527,5.64527,0,0,0-5.65283,5.625,5.73568,5.73568,0,0,0,.03711.625.99974.99974,0,0,1-.66992,1.05469A4.29478,4.29478,0,0,0,35.56689,115H50.64648a4.294,4.294,0,0,0,1.42871-8.353.99993.99993,0,0,1-.6665-1.03174c.00635-.07129.01172-.14258.01172-.21533a2.548,2.548,0,0,0-4.13086-1.98193.9995.9995,0,0,1-1.55615-.43164A5.67624,5.67624,0,0,0,40.4458,99.3335Z" style="fill:#6d6daa"/><path d="M35.56714,105.4a5.33429,5.33429,0,0,0-1.74551.29164" style="fill:#eef6ff"/><path d="M33.82178,106.69189a1.00036,1.00036,0,0,1-.32666-1.9458,6.33753,6.33753,0,0,1,2.07178-.34619,1,1,0,0,1,0,2,4.32818,4.32818,0,0,0-1.41846.23682A1.00647,1.00647,0,0,1,33.82178,106.69189Z" style="fill:#6d6daa"/><path d="M52.40579,105.69649A5.33418,5.33418,0,0,0,50.64632,105.4" style="fill:#eef6ff"/><path d="M52.40576,106.69678a.99646.99646,0,0,1-.3291-.05615,4.337,4.337,0,0,0-1.43018-.24072,1,1,0,1,1,0-2,6.3365,6.3365,0,0,1,2.08838.35205,1.00032,1.00032,0,0,1-.3291,1.94482Z" style="fill:#6d6daa"/><path d="M46.69219,102.61217a3.55221,3.55221,0,0,0-.96495,1.1508" style="fill:#eef6ff"/><path d="M45.72607,104.76318a1.00007,1.00007,0,0,1-.88379-1.46582,4.57808,4.57808,0,0,1,1.2373-1.4751.99984.99984,0,0,1,1.22559,1.58008,2.56624,2.56624,0,0,0-.69336.82666A.99983.99983,0,0,1,45.72607,104.76318Z" style="fill:#6d6daa"/><path d="M19.76924,103.15385a4.62346,4.62346,0,0,0,3.07691,3.07694q2.30771.76922,0,1.53844a4.62346,4.62346,0,0,0-3.07691,3.07694q-.76922,2.30766-1.53847,0a4.6234,4.6234,0,0,0-3.07691-3.07694q-2.30771-.76922,0-1.53844a4.6234,4.6234,0,0,0,3.07691-3.07694Q19,100.84618,19.76924,103.15385Z" style="fill:#c9c1f5"/><path d="M76.86539,53.17308a3.69876,3.69876,0,0,0,2.46153,2.46155q1.84616.61538,0,1.23075a3.69876,3.69876,0,0,0-2.46153,2.46155q-.61538,1.84613-1.23078,0a3.69872,3.69872,0,0,0-2.46153-2.46155q-1.84616-.61538,0-1.23075a3.69872,3.69872,0,0,0,2.46153-2.46155Q76.25,51.32695,76.86539,53.17308Z" style="fill:#ff9797"/><path d="M105.78846,11.55768a3.23642,3.23642,0,0,0,2.15384,2.15386q1.61539.53845,0,1.07691a3.23642,3.23642,0,0,0-2.15384,2.15386q-.53845,1.61536-1.07693,0a3.23638,3.23638,0,0,0-2.15384-2.15386q-1.61539-.53845,0-1.07691a3.23638,3.23638,0,0,0,2.15384-2.15386Q105.25,9.94232,105.78846,11.55768Z" style="fill:#ff9797"/><path d="M16.61539,43.92308a3.69876,3.69876,0,0,0,2.46153,2.46155q1.84616.61538,0,1.23075a3.69876,3.69876,0,0,0-2.46153,2.46155q-.61538,1.84613-1.23078,0a3.69872,3.69872,0,0,0-2.46153-2.46155q-1.84616-.61538,0-1.23075a3.69872,3.69872,0,0,0,2.46153-2.46155Q16,42.07695,16.61539,43.92308Z" style="fill:#97c1ff"/><path d="M110.61539,109.92308a3.69876,3.69876,0,0,0,2.46153,2.46155q1.84616.61538,0,1.23075a3.69876,3.69876,0,0,0-2.46153,2.46155q-.61538,1.84613-1.23078,0a3.69872,3.69872,0,0,0-2.46153-2.46155q-1.84616-.61538,0-1.23075a3.69872,3.69872,0,0,0,2.46153-2.46155Q110,108.07695,110.61539,109.92308Z" style="fill:#97c1ff"/><g style="opacity:0.5"><path d="M92,17.71973a1.007,1.007,0,0,1-1-1,1.03173,1.03173,0,0,1,.29-.71,1.18568,1.18568,0,0,1,.32959-.21973,1.02077,1.02077,0,0,1,1.09033.21973,1.00729,1.00729,0,0,1,.29.71.96752.96752,0,0,1-.29.7002A1.01721,1.01721,0,0,1,92,17.71973Z" style="fill:#6d6daa"/><path d="M39.44971,55.96973h0a1.00326,1.00326,0,0,1,.21-1.3999h0a1.00243,1.00243,0,0,1,1.40039.21h0a1.00186,1.00186,0,0,1-.21045,1.3999h0a1.0182,1.0182,0,0,1-.58984.2002h0A1,1,0,0,1,39.44971,55.96973Zm-2.25-3.5a1.00264,1.00264,0,0,1,.39014-1.35986h0A1.00264,1.00264,0,0,1,38.94971,51.5h0a1.00247,1.00247,0,0,1-.38965,1.35986h0a1.03607,1.03607,0,0,1-.48047.12012h0A.98833.98833,0,0,1,37.19971,52.46973Zm-1.7998-3.75h.00977a.99756.99756,0,0,1,.55029-1.2998h0a.99774.99774,0,0,1,1.2998.5498h0a1.00554,1.00554,0,0,1-.5498,1.31006h0a1.02657,1.02657,0,0,1-.38037.06982h0A1.015,1.015,0,0,1,35.3999,48.71973Zm-1.31006-3.93994h0a1.008,1.008,0,0,1,.71-1.23h0a1.0062,1.0062,0,0,1,1.23.72021h0a1.00031,1.00031,0,0,1-.71973,1.21973h0a1.07041,1.07041,0,0,1-.25.03027h0A1.01441,1.01441,0,0,1,34.08984,44.77979ZM33.29,40.69971a1.00224,1.00224,0,0,1,.85986-1.12988h0a1.00227,1.00227,0,0,1,1.12012.85986h0a1.01025,1.01025,0,0,1-.86035,1.13037h-.12988A.99281.99281,0,0,1,33.29,40.69971ZM33,36.5498A.99636.99636,0,0,1,33.98975,35.54h0A.99678.99678,0,0,1,35,36.52979h0A.99688.99688,0,0,1,34.00977,37.54H34A.99456.99456,0,0,1,33,36.5498Zm1.09961-3.04A.99939.99939,0,0,1,33.23,32.3999h0A1.00121,1.00121,0,0,1,34.33984,31.52h0A.99375.99375,0,0,1,35.21,32.62988h0a.995.995,0,0,1-.99023.87988h-.12012Zm.6001-3.98975a.9918.9918,0,0,1-.73-1.21h0a.98762.98762,0,0,1,1.21-.73047h0a1.00257,1.00257,0,0,1,.73,1.21045h0a1.00324,1.00324,0,0,1-.96973.75977h0A.98685.98685,0,0,1,34.69971,29.52ZM35.79,25.62988a.986.986,0,0,1-.57031-1.29h0a.99326.99326,0,0,1,1.29-.56982h0a.99684.99684,0,0,1,.56982,1.29h0a.98915.98915,0,0,1-.92969.63965h0A.89047.89047,0,0,1,35.79,25.62988Zm1.56982-3.71a.99575.99575,0,0,1-.41016-1.3501h0a.99575.99575,0,0,1,1.3501-.41016h0a.99575.99575,0,0,1,.41016,1.3501h0a1.00014,1.00014,0,0,1-.88037.53027h0A.99421.99421,0,0,1,37.35986,21.91992Zm2.02-3.49023A.98684.98684,0,0,1,39.13965,17.04h0a.987.987,0,0,1,1.39014-.24023h0A.99588.99588,0,0,1,40.77,18.18994h0a.98858.98858,0,0,1-.82031.41992h0A.987.987,0,0,1,39.37988,18.42969Zm2.43018-3.21A1.0177,1.0177,0,0,1,41.75,13.7998h0a1.01816,1.01816,0,0,1,1.41992-.06006h0A1.01864,1.01864,0,0,1,43.23,15.15967h0a1.02482,1.02482,0,0,1-.74023.32031h0A1.05249,1.05249,0,0,1,41.81006,15.21973Zm46.83984-.8501h0A.98655.98655,0,0,1,88.65967,12.96h0a.98719.98719,0,0,1,1.41016.00977h0a.98713.98713,0,0,1-.00977,1.41016h0a1.00254,1.00254,0,0,1-.7002.29h0A.97488.97488,0,0,1,88.6499,14.36963Zm-44.02-2.04a.99873.99873,0,0,1,.10986-1.40967h0a1.01035,1.01035,0,0,1,1.41992.10986h0A1.02033,1.02033,0,0,1,46.04,12.44971h0a1.05546,1.05546,0,0,1-.65039.23h0A1.00578,1.00578,0,0,1,44.62988,12.32959Zm41.10986-.56982a1.00395,1.00395,0,0,1-.16016-1.41016h0A.99954.99954,0,0,1,86.98,10.18994h0a.98128.98128,0,0,1,.15967,1.3999h0a.98387.98387,0,0,1-.77979.37988h0A1.00869,1.00869,0,0,1,85.73975,11.75977Zm-37.96-1.94971a.99969.99969,0,0,1,.29-1.38037h0a1.00945,1.00945,0,0,1,1.39014.29h0a.99912.99912,0,0,1-.29,1.37988h0a1.01292,1.01292,0,0,1-.55029.17041h0A1.01316,1.01316,0,0,1,47.77979,9.81006Zm34.75-.29a.99234.99234,0,0,1-.33008-1.37012h0a1.00318,1.00318,0,0,1,1.37012-.33984h0a1.01683,1.01683,0,0,1,.33984,1.37988h0a1.00449,1.00449,0,0,1-.85986.48h0A.983.983,0,0,1,82.52979,9.52ZM51.23,7.71a1.0032,1.0032,0,0,1,.46-1.34033h0a1.01514,1.01514,0,0,1,1.33984.46h0a1.00876,1.00876,0,0,1-.46,1.34033h0a.979.979,0,0,1-.43994.1001h0A1.00471,1.00471,0,0,1,51.23,7.71Zm27.83984,0a.99959.99959,0,0,1-.5-1.32031h0a1.0052,1.0052,0,0,1,1.31982-.50977h0a1.00736,1.00736,0,0,1,.5,1.33008h0A.9918.9918,0,0,1,79.48,7.7998h0A.977.977,0,0,1,79.06982,7.71ZM54.90967,6.0498a1.00182,1.00182,0,0,1,.62012-1.27h0a1.00142,1.00142,0,0,1,1.27.62012h0a.99347.99347,0,0,1-.62012,1.27h0a.95754.95754,0,0,1-.33008.06006h0A.99383.99383,0,0,1,54.90967,6.0498Zm20.5.29h0A.98319.98319,0,0,1,74.75,5.09961h0a.99261.99261,0,0,1,1.23975-.66992h0a1.00291,1.00291,0,0,1,.66992,1.25h0a1.00439,1.00439,0,0,1-.96.71h0A1.04881,1.04881,0,0,1,75.40967,6.33984ZM58.77,4.86963a.98657.98657,0,0,1,.77979-1.17969h0A.99444.99444,0,0,1,60.73,4.46973h0a1.01241,1.01241,0,0,1-.78027,1.18018h0a1.53506,1.53506,0,0,1-.19971.02h0A1.00362,1.00362,0,0,1,58.77,4.86963Zm12.83984.58008A1.01343,1.01343,0,0,1,70.79,4.29h0A.999.999,0,0,1,71.94971,3.48h0A.99872.99872,0,0,1,72.77,4.62988h0a1.00679,1.00679,0,0,1-.99023.83008h0A.94566.94566,0,0,1,71.60986,5.44971Zm-8.87012-1.27a1.013,1.013,0,0,1,.91992-1.08008h0A1.01277,1.01277,0,0,1,64.73975,4.02h0a1.00607,1.00607,0,0,1-.91992,1.07959h-.08008A1.00233,1.00233,0,0,1,62.73975,4.17969Zm4.98.8501a.99543.99543,0,0,1-.94971-1.04h0a1.00991,1.00991,0,0,1,1.04-.96h0a1.01935,1.01935,0,0,1,.96,1.0498h0a1.00729,1.00729,0,0,1-1,.9502h-.05029Z" style="fill:#6d6daa"/><path d="M42.88965,59.52a.99042.99042,0,0,1-1-1,.98982.98982,0,0,1,.29-.71,1.03423,1.03423,0,0,1,1.41016,0,.99052.99052,0,0,1,0,1.41992A1.02863,1.02863,0,0,1,42.88965,59.52Z" style="fill:#6d6daa"/></g><g style="opacity:0.5"><path d="M81.12988,66a1.09251,1.09251,0,0,1-.39014-.08008.99143.99143,0,0,1-.31982-.21,1.18976,1.18976,0,0,1-.22021-.33008,1.06963,1.06963,0,0,1,0-.76025,1.18744,1.18744,0,0,1,.22021-.32959.9848.9848,0,0,1,.31982-.21045.97456.97456,0,0,1,.58008-.05957.60377.60377,0,0,1,.18994.05957.5531.5531,0,0,1,.16992.09033.9578.9578,0,0,1,.1499.12012,1.00171,1.00171,0,0,1,0,1.41992.92966.92966,0,0,1-.1499.11963.5531.5531,0,0,1-.16992.09033.61731.61731,0,0,1-.18994.06006A1.25383,1.25383,0,0,1,81.12988,66Z" style="fill:#6d6daa"/><path d="M83.85986,63.42969a.98733.98733,0,0,1,.25-1.38965h0A1.00516,1.00516,0,0,1,85.5,62.29h0a.99468.99468,0,0,1-.25,1.38965v.01025a.99923.99923,0,0,1-.57031.16992h0A.98379.98379,0,0,1,83.85986,63.42969ZM87.18994,60.96a.997.997,0,0,1,.06982-1.41016h0a.9974.9974,0,0,1,1.41016.06982h0a.99651.99651,0,0,1-.07031,1.41016h0a.95947.95947,0,0,1-.66992.26025h0A.98112.98112,0,0,1,87.18994,60.96Zm2.98-2.87012a.99907.99907,0,0,1-.1001-1.41016h0A.99931.99931,0,0,1,91.48,56.56982h0A.998.998,0,0,1,91.57959,57.98h0a.97159.97159,0,0,1-.75.34961h0A1.03056,1.03056,0,0,1,90.16992,58.08984ZM92.77,54.84961a.98775.98775,0,0,1-.28027-1.37988h0a.99921.99921,0,0,1,1.37988-.29h0a1.0128,1.0128,0,0,1,.29,1.39014h0a1.01335,1.01335,0,0,1-.83984.4502h0A1.01258,1.01258,0,0,1,92.77,54.84961Zm2.16992-3.52979A.99437.99437,0,0,1,94.48,49.98h0a.99976.99976,0,0,1,1.33008-.46h0a.99145.99145,0,0,1,.46,1.33984h0a1.006,1.006,0,0,1-.90039.56006h0A.9662.9662,0,0,1,94.93994,51.31982Zm1.68994-3.79A.9834.9834,0,0,1,96,46.27h0a.98783.98783,0,0,1,1.25977-.63037h0a.99774.99774,0,0,1,.64014,1.26025h0a1.015,1.015,0,0,1-.9502.67969h0A.85807.85807,0,0,1,96.62988,47.52979Zm1.18994-3.96973a.992.992,0,0,1-.79-1.17041h0a.99123.99123,0,0,1,1.16992-.79h0a.99923.99923,0,0,1,.79,1.17041h0a.99439.99439,0,0,1-.98.80957h0A1.25284,1.25284,0,0,1,97.81982,43.56006ZM98.48,39.46973a.99906.99906,0,0,1-.93018-1.06982h0a1.00332,1.00332,0,0,1,1.06006-.93018h0A1.00016,1.00016,0,0,1,99.54,38.54h.00977a1.01084,1.01084,0,0,1-1,.92969H98.48Zm-.91992-5.08984h0A.99576.99576,0,0,1,98.5,33.32959h0a.99694.99694,0,0,1,1.06006.93018h0a.99912.99912,0,0,1-.94043,1.06006h-.05957A.99076.99076,0,0,1,97.56006,34.37988Zm-.5-3.98a1,1,0,0,1,.7998-1.16992h0a1.00593,1.00593,0,0,1,1.16992.79h0a1.00248,1.00248,0,0,1-.7998,1.16992h0a.58429.58429,0,0,1-.18994.02h0A.99482.99482,0,0,1,97.06006,30.3999Z" style="fill:#6d6daa"/><path d="M97,27.18994a1.0078,1.0078,0,0,1-1-1,1.04882,1.04882,0,0,1,.07959-.39014A.9848.9848,0,0,1,96.29,25.48a1.04669,1.04669,0,0,1,1.41992,0,1.00141,1.00141,0,0,1,0,1.40967A1.01772,1.01772,0,0,1,97,27.18994Z" style="fill:#6d6daa"/></g></svg>