<?xml version="1.0" ?><svg data-name="scenarium 10" height="128" id="scenarium_10" viewBox="0 0 128 128" width="128" xmlns="http://www.w3.org/2000/svg"><title/><g style="opacity:0.30000000000000004"><path d="M126.6889,49.66257a30.00059,30.00059,0,0,0-23.51163-25.0453A19.68967,19.68967,0,0,1,92.24464,18.0689a37.01139,37.01139,0,0,0-64.2547,15.37177A21.01331,21.01331,0,0,1,17.10777,47.11425C2.9449,54.47272-4.15071,73.57309,8.75787,91.49747a16.60222,16.60222,0,0,0,6.35231,4.90944C19.71476,98.62864,23.91871,101.56459,29,101c9-1,9.35339-4.54352,18-2,8.60553,2.53144,4.79146,10.63191,13,12,12,2,13.32442-.54371,19,1,8.26315,2.2475,22.71536,2.66583,30-3,9-7,13.60171-15.103,11.41546-25.81578A20.08025,20.08025,0,0,1,122.925,69.05264,29.83225,29.83225,0,0,0,126.6889,49.66257Z" style="fill:#97c1ff"/><path d="M44.902,26.49645a11.292,11.292,0,0,0-21.79139-5.194A6.02523,6.02523,0,0,0,13.34387,26c0,.1734.01163.34391.02613.51364A8.99027,8.99027,0,0,0,16.35638,44H41.96253A8.99088,8.99088,0,0,0,44.902,26.49645Z" style="fill:#eef6ff"/><path d="M41.96251,40.99969H16.35637A9.021,9.021,0,0,1,7.451,33.47729,8.98763,8.98763,0,0,0,16.35637,44H41.96251A8.9889,8.9889,0,0,0,50.868,33.47662,9.02109,9.02109,0,0,1,41.96251,40.99969Z" style="fill:#5cbeff;opacity:0.30000000000000004"/><path d="M13.37,29.51392c-.01447-.16974-.02612-.34027-.02612-.51367a6.02523,6.02523,0,0,1,9.76672-4.69751,11.28216,11.28216,0,0,1,21.79138,5.194A9.01942,9.01942,0,0,1,50.868,36.47693,8.90649,8.90649,0,0,0,44.902,26.49646a11.292,11.292,0,0,0-21.79138-5.194,6.02523,6.02523,0,0,0-9.76672,4.69751c0,.1734.01166.34393.02612.51367A8.90473,8.90473,0,0,0,7.451,36.4776,9.01859,9.01859,0,0,1,13.37,29.51392Z" style="fill:#fff"/><path d="M41.96289,45H16.35645A9.98925,9.98925,0,0,1,12.3457,25.84131a7.02858,7.02858,0,0,1,10.32129-6.021A12.29738,12.29738,0,0,1,45.97461,25.25c0,.19189-.00488.38574-.01562.584A9.98986,9.98986,0,0,1,41.96289,45ZM19.36914,21a5.01823,5.01823,0,0,0-5.02539,5c0,.14453.01074.28613.02246.42773a1.001,1.001,0,0,1-.666,1.03027A7.99008,7.99008,0,0,0,16.35645,43H41.96289a7.991,7.991,0,0,0,2.61523-15.55762,1.00009,1.00009,0,0,1-.66992-1.05469,10.29241,10.29241,0,0,0-19.8623-4.73242,1.00029,1.00029,0,0,1-1.55566.43164A4.98657,4.98657,0,0,0,19.36914,21Z" style="fill:#6d6daa"/><path d="M41.96253,26a9.05823,9.05823,0,0,1,2.96407.49523" style="fill:#eef6ff"/><path d="M44.92676,27.49561a.99927.99927,0,0,1-.32617-.05518A8.05152,8.05152,0,0,0,41.96289,27a1,1,0,1,1,0-2,10.05293,10.05293,0,0,1,3.29.5498,1.00027,1.00027,0,0,1-.32617,1.9458Z" style="fill:#6d6daa"/><path d="M13.36859,26.50347A9.058,9.058,0,0,1,16.35638,26" style="fill:#eef6ff"/><path d="M13.36816,27.50391a1.00032,1.00032,0,0,1-.3291-1.94482A10.05257,10.05257,0,0,1,16.35645,25a1,1,0,0,1,0,2,8.05313,8.05313,0,0,0-2.65918.44775A.99223.99223,0,0,1,13.36816,27.50391Z" style="fill:#6d6daa"/><path d="M23.07094,21.266a6.03206,6.03206,0,0,1,1.63859,1.95418" style="fill:#eef6ff"/><path d="M24.71094,24.22021a.99983.99983,0,0,1-.88574-.53418A5.08009,5.08009,0,0,0,22.457,22.05566a1.00035,1.00035,0,0,1,1.22852-1.5791,7.09179,7.09179,0,0,1,1.90918,2.27783,1.00007,1.00007,0,0,1-.88379,1.46582Z" style="fill:#6d6daa"/><path d="M72.25229,12.66478A6.02242,6.02242,0,0,1,83.87437,9.89465,3.21345,3.21345,0,0,1,89.08327,12.4c0,.09248-.0062.18342-.01394.27394A4.79481,4.79481,0,0,1,87.4766,22H73.82a4.79514,4.79514,0,0,1-1.56769-9.33523Z" style="fill:#eef6ff"/><path d="M72.25228,14.665a6.02241,6.02241,0,0,1,11.62207-2.77014,3.21348,3.21348,0,0,1,5.20892,2.50531c0,.09253-.00623.18347-.01392.274a4.80574,4.80574,0,0,1,3.11346,3.54413,4.764,4.764,0,0,0-3.11346-5.54437c.00769-.09052.01392-.18146.01392-.27393a3.21348,3.21348,0,0,0-5.20892-2.50531,6.01711,6.01711,0,0,0-11.62207,2.77014,4.76494,4.76494,0,0,0-3.13855,5.55334A4.80624,4.80624,0,0,1,72.25228,14.665Z" style="fill:#fff"/><path d="M87.47659,19.99982H73.82A4.81364,4.81364,0,0,1,69.11373,16.218,4.75148,4.75148,0,0,0,69,17.2,4.81,4.81,0,0,0,73.82,22H87.47659a4.81,4.81,0,0,0,4.82-4.8,4.75033,4.75033,0,0,0-.11377-.98193A4.8136,4.8136,0,0,1,87.47659,19.99982Z" style="fill:#5cbeff;opacity:0.30000000000000004"/><path d="M87.47656,23H73.82031a5.79441,5.79441,0,0,1-2.60742-10.98193V12A7.025,7.025,0,0,1,84.3125,8.49658a4.21939,4.21939,0,0,1,5.75293,3.51318A5.79386,5.79386,0,0,1,87.47656,23ZM78.23828,7a5.01823,5.01823,0,0,0-5.02539,5,5.24479,5.24479,0,0,0,.0332.55762.99919.99919,0,0,1-.66992,1.05273A3.79545,3.79545,0,0,0,73.82031,21H87.47656a3.7946,3.7946,0,0,0,1.2627-7.38184,1.00023,1.00023,0,0,1-.666-1.03027c.00488-.062.00977-.12451.00977-.188a2.21368,2.21368,0,0,0-3.58887-1.7207,1.00008,1.00008,0,0,1-1.55566-.43213A5.04477,5.04477,0,0,0,78.23828,7Z" style="fill:#6d6daa"/><path d="M73.82,12.4a4.83105,4.83105,0,0,0-1.58084.26412" style="fill:#eef6ff"/><path d="M72.23926,13.66455a1.0003,1.0003,0,0,1-.32617-1.9458,5.8382,5.8382,0,0,1,1.90723-.31885,1,1,0,0,1,0,2,3.83246,3.83246,0,0,0-1.25488.20947A1.0036,1.0036,0,0,1,72.23926,13.66455Z" style="fill:#6d6daa"/><path d="M89.07008,12.66852A4.831,4.831,0,0,0,87.4766,12.4" style="fill:#eef6ff"/><path d="M89.07031,13.66895a.99646.99646,0,0,1-.3291-.05615,3.83782,3.83782,0,0,0-1.26465-.21289,1,1,0,0,1,0-2,5.8289,5.8289,0,0,1,1.92285.32422,1.00032,1.00032,0,0,1-.3291,1.94482Z" style="fill:#6d6daa"/><path d="M83.8955,9.87518a3.2171,3.2171,0,0,0-.87391,1.04223" style="fill:#eef6ff"/><path d="M83.02051,11.91748a.99923.99923,0,0,1-.88379-1.46533,4.25169,4.25169,0,0,1,1.14453-1.3667,1.00035,1.00035,0,0,1,1.22852,1.5791,2.23649,2.23649,0,0,0-.60352.71826A.99937.99937,0,0,1,83.02051,11.91748Z" style="fill:#6d6daa"/><path d="M88.26584,43.01218A7.98432,7.98432,0,0,1,100.1412,34.165a10.48932,10.48932,0,0,1,18.80249,5.25052,7.49626,7.49626,0,0,1-2.44322,14.5843L88.49962,54a5.49632,5.49632,0,0,1-.23378-10.98781Z" style="fill:#eef6ff"/><path d="M88.26581,46.01246a7.62435,7.62435,0,0,1-.20245-2.97186A5.4694,5.4694,0,0,0,83.222,50.0373,5.4833,5.4833,0,0,1,88.26581,46.01246Z" style="fill:#fff"/><path d="M95.99988,36.00026a7.94932,7.94932,0,0,1,4.1413,1.165,10.4893,10.4893,0,0,1,18.80249,5.25055,7.5,7.5,0,0,1,4.897,5.62262,7.49379,7.49379,0,0,0-4.897-8.62292,10.48933,10.48933,0,0,0-18.80249-5.25055,7.98713,7.98713,0,0,0-12.14075,6.83472,7.71983,7.71983,0,0,0,.1535,1.44745A8,8,0,0,1,95.99988,36.00026Z" style="fill:#fff"/><path d="M88.26581,40.01185c-.04785-.18445-.076-.3761-.11188-.56506-.03839.19507-.06665.39362-.09058.59351C88.13215,40.0348,88.19635,40.01478,88.26581,40.01185Z" style="fill:#5cbeff"/><path d="M116.50049,50.99946l-28.00085.00018A5.49887,5.49887,0,0,1,83.222,47.037,5.43593,5.43593,0,0,0,83,48.50019a5.49971,5.49971,0,0,0,5.49963,5.49976l28.00085-.00018a7.43038,7.43038,0,0,0,7.34021-8.96167A7.50129,7.50129,0,0,1,116.50049,50.99946Z" style="fill:#5cbeff;opacity:0.30000000000000004"/><path d="M116.5,55h-28a6.49743,6.49743,0,0,1-1.41992-12.83838A8.54133,8.54133,0,0,1,87,40.99951a8.98613,8.98613,0,0,1,12.89063-8.10693,11.489,11.489,0,0,1,19.96777,5.80566A8.496,8.496,0,0,1,116.5,55ZM96,34a6.97219,6.97219,0,0,0-6.7666,8.76123.99939.99939,0,0,1-.92578,1.25A4.49637,4.49637,0,0,0,88.5,53h28a6.49628,6.49628,0,0,0,2.11719-12.63916,1.00065,1.00065,0,0,1-.66895-.84326,9.48831,9.48831,0,0,0-17.00977-4.748A1.00018,1.00018,0,0,1,99.623,35.02,6.98476,6.98476,0,0,0,96,34Z" style="fill:#6d6daa"/><path d="M118.4873,44.74951a1.00141,1.00141,0,0,1-.95117-1.30908A9.50962,9.50962,0,0,0,108.5,31a1,1,0,0,1,0-2,11.50951,11.50951,0,0,1,10.93848,15.05762A1.00113,1.00113,0,0,1,118.4873,44.74951Z" style="fill:#6d6daa"/><path d="M92.12207,45.3623a.99515.99515,0,0,1-.65918-.248A4.4934,4.4934,0,0,0,88.5,44.00049a1,1,0,0,1,0-2,6.49342,6.49342,0,0,1,4.28125,1.60986,1,1,0,0,1-.65918,1.752Z" style="fill:#6d6daa"/><path d="M102.50488,37.3418a.99917.99917,0,0,1-.81348-.417A7.02075,7.02075,0,0,0,96,34a1,1,0,0,1,0-2,9.0239,9.0239,0,0,1,7.31641,3.75879,1,1,0,0,1-.81152,1.583Z" style="fill:#6d6daa"/><path d="M124,58a1.00405,1.00405,0,0,1-.71-1.71,1.00851,1.00851,0,0,1,.91016-.27.64194.64194,0,0,1,.17969.05957.75629.75629,0,0,1,.17969.09033c.0498.04.10059.08008.15039.12012A1.00853,1.00853,0,0,1,125,57a.99183.99183,0,0,1-.29.71c-.0498.04-.10059.08008-.15039.11963a.75629.75629,0,0,1-.17969.09033.65979.65979,0,0,1-.17969.06006A1.40433,1.40433,0,0,1,124,58Z" style="fill:#fff"/><path d="M122,62.001h-6a1,1,0,0,1,0-2h6a1,1,0,0,1,0,2Z" style="fill:#fff"/><path d="M120,58h-6.999a1,1,0,0,1,0-2H120a1,1,0,0,1,0,2Z" style="fill:#fff"/><path d="M111.999,62H110a1,1,0,0,1,0-2h1.999a1,1,0,0,1,0,2Z" style="fill:#fff"/><path d="M120,66.001h-8.001a1,1,0,0,1,0-2H120a1,1,0,0,1,0,2Z" style="fill:#fff"/><path d="M15,72a.99042.99042,0,0,1-1-1,1.38267,1.38267,0,0,1,.01953-.2002.65357.65357,0,0,1,.06055-.18018.74472.74472,0,0,1,.08984-.17969c.04-.05029.08008-.1001.12012-.1499a1.04644,1.04644,0,0,1,.91016-.27.64194.64194,0,0,1,.17969.05957.75629.75629,0,0,1,.17969.09033A1.54179,1.54179,0,0,1,15.71,70.29a1.01394,1.01394,0,0,1,0,1.41992c-.0498.04-.10059.08008-.15039.11963a.75629.75629,0,0,1-.17969.09033.65979.65979,0,0,1-.17969.06006A1.40433,1.40433,0,0,1,15,72Z" style="fill:#fff"/><path d="M16,68H14a1,1,0,0,1,0-2h2a1,1,0,0,1,0,2Z" style="fill:#fff"/><path d="M19,63.999H9.001a1,1,0,0,1,0-2H19a1,1,0,0,1,0,2Z" style="fill:#fff"/><path d="M9.999,67.999H6a1,1,0,0,1,0-2H9.999a1,1,0,1,1,0,2Z" style="fill:#fff"/><path d="M10.999,72.00049h-8a1,1,0,1,1,0-2h8a1,1,0,1,1,0,2Z" style="fill:#fff"/><path d="M90.00488,118.00049H42.001a1,1,0,0,1,0-2H90.00488a1,1,0,0,1,0,2Z" style="fill:#6d6daa"/><path d="M94.00488,118.00049h-.999a1,1,0,0,1,0-2h.999a1,1,0,0,1,0,2Z" style="fill:#6d6daa"/><path d="M32.999,118.00049H32.7002a1,1,0,1,1,0-2H32.999a1,1,0,0,1,0,2Z" style="fill:#6d6daa"/><path d="M39,118.00049H36a1,1,0,0,1,0-2h3a1,1,0,0,1,0,2Z" style="fill:#6d6daa"/><path d="M115,111H16.99512a1,1,0,1,1,0-2H115a1,1,0,0,1,0,2Z" style="fill:#6d6daa"/><path d="M119,111h-.999a1,1,0,0,1,0-2H119a1,1,0,0,1,0,2Z" style="fill:#6d6daa"/><path d="M7.99512,111H7.2002a1,1,0,0,1,0-2h.79492a1,1,0,0,1,0,2Z" style="fill:#6d6daa"/><path d="M13.99414,111h-2.999a1,1,0,1,1,0-2h2.999a1,1,0,0,1,0,2Z" style="fill:#6d6daa"/></g><rect height="66" rx="4" ry="4" style="fill:#939fc6" width="37.9999" x="76.0001" y="44"/><path d="M110,111H80a5.00589,5.00589,0,0,1-5-5V48a5.00589,5.00589,0,0,1,5-5h30a5.00589,5.00589,0,0,1,5,5v58A5.00589,5.00589,0,0,1,110,111ZM80,45a3.00328,3.00328,0,0,0-3,3v58a3.00328,3.00328,0,0,0,3,3h30a3.00328,3.00328,0,0,0,3-3V48a3.00328,3.00328,0,0,0-3-3Z" style="fill:#6d6daa"/><rect height="46" style="fill:#c7e9ff" width="37.9999" x="76.0001" y="52"/><g style="opacity:0.5"><polygon points="114 98 114 64 79.662 98 114 98" style="fill:#fff"/><polygon points="76 96.629 114 59 114 54 76 91.629 76 96.629" style="fill:#fff"/></g><rect height="4" style="fill:#1c64ba;opacity:0.30000000000000004" width="38.0001" x="76" y="51.9999"/><path d="M114,99H76a.99974.99974,0,0,1-1-1V52a.99974.99974,0,0,1,1-1h38a.99974.99974,0,0,1,1,1V98A.99974.99974,0,0,1,114,99ZM77,97h36V53H77Z" style="fill:#6d6daa"/><path d="M98,49H92a1,1,0,0,1,0-2h6a1,1,0,0,1,0,2Z" style="fill:#6d6daa"/><rect height="4" style="fill:#8593ba" width="4" x="84" y="102"/><path d="M88,107H84a.99974.99974,0,0,1-1-1v-4a.99974.99974,0,0,1,1-1h4a.99974.99974,0,0,1,1,1v4A.99974.99974,0,0,1,88,107Zm-3-2h2v-2H85Z" style="fill:#6d6daa"/><rect height="4" style="fill:#8593ba" width="4" x="93" y="102"/><path d="M97,107H93a.99974.99974,0,0,1-1-1v-4a.99974.99974,0,0,1,1-1h4a.99974.99974,0,0,1,1,1v4A.99974.99974,0,0,1,97,107Zm-3-2h2v-2H94Z" style="fill:#6d6daa"/><rect height="4" style="fill:#8593ba" width="4" x="102" y="102"/><path d="M106,107h-4a.99974.99974,0,0,1-1-1v-4a.99974.99974,0,0,1,1-1h4a.99974.99974,0,0,1,1,1v4A.99974.99974,0,0,1,106,107Zm-3-2h2v-2h-2Z" style="fill:#6d6daa"/><rect height="66" rx="4" ry="4" style="fill:#eef6ff" width="37.9999" x="14" y="43.99984"/><path d="M48,111H18a5.00589,5.00589,0,0,1-5-5V48a5.00589,5.00589,0,0,1,5-5H48a5.00589,5.00589,0,0,1,5,5v58A5.00589,5.00589,0,0,1,48,111ZM18,45a3.00328,3.00328,0,0,0-3,3v58a3.00328,3.00328,0,0,0,3,3H48a3.00328,3.00328,0,0,0,3-3V48a3.00328,3.00328,0,0,0-3-3Z" style="fill:#6d6daa"/><rect height="46" style="fill:#c7e9ff" width="37.9999" x="14" y="51.99984"/><g style="opacity:0.5"><polygon points="52 98 52 64 17.662 98 52 98" style="fill:#fff"/><polygon points="14 96.629 52 59 52 54 14 91.629 14 96.629" style="fill:#fff"/></g><rect height="4" style="fill:#1c64ba;opacity:0.30000000000000004" width="38.0001" x="13.9999" y="51.99974"/><path d="M52,99H14a.99974.99974,0,0,1-1-1V52a.99974.99974,0,0,1,1-1H52a.99974.99974,0,0,1,1,1V98A.99974.99974,0,0,1,52,99ZM15,97H51V53H15Z" style="fill:#6d6daa"/><path d="M39,49H32a1,1,0,0,1,0-2h7a1,1,0,0,1,0,2Z" style="fill:#6d6daa"/><path d="M28,49a1.05235,1.05235,0,0,1-.71-.29A1.00521,1.00521,0,0,1,27,48a.62754.62754,0,0,1,.01953-.18994,1.16482,1.16482,0,0,1,.0498-.19043,1.70748,1.70748,0,0,1,.10059-.17969A1.55249,1.55249,0,0,1,27.29,47.29a1.03234,1.03234,0,0,1,1.41992,0,1.55249,1.55249,0,0,1,.12012.1499.78218.78218,0,0,1,.08984.17969.59046.59046,0,0,1,.05957.19043A1.13558,1.13558,0,0,1,29,48a.99042.99042,0,0,1-1,1Z" style="fill:#6d6daa"/><path d="M33,107.99951a4,4,0,1,1,4-4A4.00427,4.00427,0,0,1,33,107.99951Zm0-6a2,2,0,1,0,2,2A2.00229,2.00229,0,0,0,33,101.99951Z" style="fill:#6d6daa;opacity:0.5"/><rect height="66" style="fill:#6d6daa;opacity:0.30000000000000004" width="54" x="37" y="44"/><rect height="81.00004" rx="4" ry="4" style="fill:#c7e9ff" width="43.99998" x="42.00002" y="35.99986"/><g style="opacity:0.5"><path d="M86,57,42,101.62956v11.37022a4,4,0,0,0,4,4H82a4,4,0,0,0,4-4Z" style="fill:#fff"/><polygon points="86 47 42 91.63 42 96.63 86 52 86 47" style="fill:#fff"/></g><path d="M82,114H46a4,4,0,0,1-4-4v3a4.00012,4.00012,0,0,0,4,4H82a4,4,0,0,0,4-4v-3A3.99989,3.99989,0,0,1,82,114Z" style="fill:#fff"/><path d="M82,35.99984H46a4,4,0,0,0-4,4V43a4,4,0,0,1,4-4H82a3.99989,3.99989,0,0,1,4,4V39.99984A4,4,0,0,0,82,35.99984Z" style="fill:#0070b8;opacity:0.30000000000000004"/><path d="M74,36v3a2,2,0,0,1-2,2H56.00007a2,2,0,0,1-2-2V36Z" style="fill:#939fc6"/><path d="M82,118H46a5.00589,5.00589,0,0,1-5-5V40a5.00589,5.00589,0,0,1,5-5H82a5.00589,5.00589,0,0,1,5,5v73A5.00589,5.00589,0,0,1,82,118ZM46,37a3.00328,3.00328,0,0,0-3,3v73a3.00328,3.00328,0,0,0,3,3H82a3.00328,3.00328,0,0,0,3-3V40a3.00328,3.00328,0,0,0-3-3Z" style="fill:#6d6daa"/><path d="M72,42H56a3.00328,3.00328,0,0,1-3-3V36a1,1,0,0,1,2,0v3a1.001,1.001,0,0,0,1,1H72a1.001,1.001,0,0,0,1-1V36a1,1,0,0,1,2,0v3A3.00328,3.00328,0,0,1,72,42Z" style="fill:#6d6daa"/><path d="M55.53846,7.46152a5.54815,5.54815,0,0,0,3.69229,3.69233Q62,12.07692,59.23075,13a5.54815,5.54815,0,0,0-3.69229,3.69233q-.92306,2.76919-1.84616,0A5.54807,5.54807,0,0,0,50,13q-2.76925-.92306,0-1.84613a5.54808,5.54808,0,0,0,3.69229-3.69233Q54.61541,4.69233,55.53846,7.46152Z" style="fill:#c9c1f5"/><path d="M107.61539,15.92308a3.69876,3.69876,0,0,0,2.46153,2.46155q1.84616.61538,0,1.23075a3.69876,3.69876,0,0,0-2.46153,2.46155q-.61538,1.84613-1.23078,0a3.69872,3.69872,0,0,0-2.46153-2.46155q-1.84616-.61538,0-1.23075a3.69872,3.69872,0,0,0,2.46153-2.46155Q107,14.07695,107.61539,15.92308Z" style="fill:#96d7ff"/></svg>